<?xml version="1.0" encoding="UTF-8" standalone="no"?>
<!DOCTYPE svg PUBLIC "-//W3C//DTD SVG 1.1//EN"
 "http://www.w3.org/Graphics/SVG/1.1/DTD/svg11.dtd">
<!-- Generated by graphviz version 2.43.0 (0)
 -->
<!-- Title: CAN&#45;FD Driver Pages: 1 -->
<svg width="404pt" height="343pt"
 viewBox="0.00 0.00 404.00 342.50" xmlns="http://www.w3.org/2000/svg" xmlns:xlink="http://www.w3.org/1999/xlink">
<g id="graph0" class="graph" transform="scale(1 1) rotate(0) translate(4 338.5)">
<title>CAN&#45;FD Driver</title>
<polygon fill="white" stroke="transparent" points="-4,4 -4,-338.5 400,-338.5 400,4 -4,4"/>
<!-- Node6 -->
<g id="node1" class="node">
<title>Node6</title>
<g id="a_node1"><a xlink:href="group__canfdread__canfd.html" target="_top" xlink:title="Read from the CAN&#45;FD drivers&#39;s receive buffer.">
<polygon fill="white" stroke="black" points="382.5,-334.5 245.5,-334.5 245.5,-315.5 382.5,-315.5 382.5,-334.5"/>
<text text-anchor="middle" x="314" y="-322.5" font-family="Helvetica,sans-Serif" font-size="10.00">CAN&#45;FD Driver data read</text>
</a>
</g>
</g>
<!-- Node8 -->
<g id="node2" class="node">
<title>Node8</title>
<g id="a_node2"><a xlink:href="group__group5__canfd.html" target="_top" xlink:title="Init and deinit interrupt handling for the CIO server.">
<polygon fill="white" stroke="black" points="380.5,-297 247.5,-297 247.5,-267 380.5,-267 380.5,-297"/>
<text text-anchor="start" x="255.5" y="-285" font-family="Helvetica,sans-Serif" font-size="10.00">CAN&#45;FD Driver interrupt</text>
<text text-anchor="middle" x="314" y="-274" font-family="Helvetica,sans-Serif" font-size="10.00"> intialization functions</text>
</a>
</g>
</g>
<!-- Node7 -->
<g id="node3" class="node">
<title>Node7</title>
<g id="a_node3"><a xlink:href="group__canfdwrite.html" target="_top" xlink:title="Write data to the CAN&#45;FD drivers&#39;s trasmit buffer.">
<polygon fill="white" stroke="black" points="370.5,-249 257.5,-249 257.5,-219 370.5,-219 370.5,-249"/>
<text text-anchor="start" x="265.5" y="-237" font-family="Helvetica,sans-Serif" font-size="10.00">CAN&#45;FD Driver data</text>
<text text-anchor="middle" x="314" y="-226" font-family="Helvetica,sans-Serif" font-size="10.00"> transmit</text>
</a>
</g>
</g>
<!-- Node2 -->
<g id="node4" class="node">
<title>Node2</title>
<g id="a_node4"><a xlink:href="group__cio__drivers.html" target="_top" xlink:title=" ">
<polygon fill="white" stroke="black" points="72,-173.5 0,-173.5 0,-154.5 72,-154.5 72,-173.5"/>
<text text-anchor="middle" x="36" y="-161.5" font-family="Helvetica,sans-Serif" font-size="10.00">CIO Drivers</text>
</a>
</g>
</g>
<!-- Node1 -->
<g id="node9" class="node">
<title>Node1</title>
<g id="a_node9"><a xlink:title=" ">
<polygon fill="#bfbfbf" stroke="black" points="196,-173.5 108,-173.5 108,-154.5 196,-154.5 196,-173.5"/>
<text text-anchor="middle" x="152" y="-161.5" font-family="Helvetica,sans-Serif" font-size="10.00">CAN&#45;FD Driver</text>
</a>
</g>
</g>
<!-- Node2&#45;&gt;Node1 -->
<g id="edge1" class="edge">
<title>Node2&#45;&gt;Node1</title>
<path fill="none" stroke="black" d="M82.18,-164C90.6,-164 99.38,-164 107.74,-164"/>
<polygon fill="black" stroke="black" points="82.13,-160.5 72.13,-164 82.13,-167.5 82.13,-160.5"/>
</g>
<!-- Node5 -->
<g id="node5" class="node">
<title>Node5</title>
<g id="a_node5"><a xlink:href="group__group3__canfd.html" target="_top" xlink:title="Methods and defines commonly used across different driver files.">
<polygon fill="white" stroke="black" points="375.5,-201 252.5,-201 252.5,-171 375.5,-171 375.5,-201"/>
<text text-anchor="start" x="260.5" y="-189" font-family="Helvetica,sans-Serif" font-size="10.00">CAN&#45;FD Driver Helper</text>
<text text-anchor="middle" x="314" y="-178" font-family="Helvetica,sans-Serif" font-size="10.00"> Functions</text>
</a>
</g>
</g>
<!-- Node10 -->
<g id="node6" class="node">
<title>Node10</title>
<g id="a_node6"><a xlink:href="group__group1__canfd.html" target="_top" xlink:title="Bridge for the CIO server.">
<polygon fill="white" stroke="black" points="396,-152.5 232,-152.5 232,-133.5 396,-133.5 396,-152.5"/>
<text text-anchor="middle" x="314" y="-140.5" font-family="Helvetica,sans-Serif" font-size="10.00">CIO CANFD Driver Declaration</text>
</a>
</g>
</g>
<!-- Node9 -->
<g id="node7" class="node">
<title>Node9</title>
<g id="a_node7"><a xlink:href="group__canfdmain1__canfd.html" target="_top" xlink:title="CIO CAN&#45;FD Driver main module.">
<polygon fill="white" stroke="black" points="372,-115.5 256,-115.5 256,-96.5 372,-96.5 372,-115.5"/>
<text text-anchor="middle" x="314" y="-103.5" font-family="Helvetica,sans-Serif" font-size="10.00">CAN&#45;FD Driver main</text>
</a>
</g>
</g>
<!-- Node3 -->
<g id="node8" class="node">
<title>Node3</title>
<g id="a_node8"><a xlink:href="group__group4__canfd.html" target="_top" xlink:title="Provide a CIO interface to pass different configuartion parameter to the driver.">
<polygon fill="white" stroke="black" points="392,-78 236,-78 236,-48 392,-48 392,-78"/>
<text text-anchor="start" x="244" y="-66" font-family="Helvetica,sans-Serif" font-size="10.00">CAN&#45;FD Driver Configuration</text>
<text text-anchor="middle" x="314" y="-55" font-family="Helvetica,sans-Serif" font-size="10.00"> Function</text>
</a>
</g>
</g>
<!-- Node1&#45;&gt;Node6 -->
<g id="edge5" class="edge">
<title>Node1&#45;&gt;Node6</title>
<path fill="none" stroke="black" d="M158.22,-183.37C167.6,-214.29 190.31,-274.52 232,-306 237.07,-309.83 242.79,-312.9 248.79,-315.37"/>
<polygon fill="black" stroke="black" points="161.58,-182.39 155.45,-173.75 154.86,-184.33 161.58,-182.39"/>
</g>
<!-- Node1&#45;&gt;Node8 -->
<g id="edge7" class="edge">
<title>Node1&#45;&gt;Node8</title>
<path fill="none" stroke="black" d="M163.71,-182.31C177.06,-203.57 201.85,-238.25 232,-258 237.28,-261.46 243.06,-264.43 249.04,-266.98"/>
<polygon fill="black" stroke="black" points="166.58,-180.31 158.4,-173.59 160.6,-183.95 166.58,-180.31"/>
</g>
<!-- Node1&#45;&gt;Node7 -->
<g id="edge6" class="edge">
<title>Node1&#45;&gt;Node7</title>
<path fill="none" stroke="black" d="M175.8,-179.25C191.19,-189.03 212.21,-201.45 232,-210 240.08,-213.49 248.82,-216.66 257.47,-219.47"/>
<polygon fill="black" stroke="black" points="177.31,-176.05 167.02,-173.55 173.51,-181.93 177.31,-176.05"/>
</g>
<!-- Node1&#45;&gt;Node5 -->
<g id="edge4" class="edge">
<title>Node1&#45;&gt;Node5</title>
<path fill="none" stroke="black" d="M206.26,-171.32C221,-173.35 237.11,-175.57 252.25,-177.65"/>
<polygon fill="black" stroke="black" points="206.68,-167.85 196.3,-169.95 205.73,-174.78 206.68,-167.85"/>
</g>
<!-- Node1&#45;&gt;Node10 -->
<g id="edge9" class="edge">
<title>Node1&#45;&gt;Node10</title>
<path fill="none" stroke="black" d="M206.47,-156.98C217.35,-155.55 228.96,-154.03 240.38,-152.53"/>
<polygon fill="black" stroke="black" points="205.76,-153.55 196.3,-158.32 206.67,-160.49 205.76,-153.55"/>
</g>
<!-- Node1&#45;&gt;Node9 -->
<g id="edge8" class="edge">
<title>Node1&#45;&gt;Node9</title>
<path fill="none" stroke="black" d="M177.89,-149.37C193.1,-140.95 213.18,-130.73 232,-124 241.22,-120.7 251.26,-117.88 261.03,-115.52"/>
<polygon fill="black" stroke="black" points="176.09,-146.36 169.11,-154.33 179.54,-152.46 176.09,-146.36"/>
</g>
<!-- Node1&#45;&gt;Node3 -->
<g id="edge2" class="edge">
<title>Node1&#45;&gt;Node3</title>
<path fill="none" stroke="black" d="M166.82,-146.21C181.29,-128.73 205.55,-102.51 232,-87 237.82,-83.59 244.16,-80.63 250.66,-78.06"/>
<polygon fill="black" stroke="black" points="163.73,-144.46 160.19,-154.44 169.18,-148.85 163.73,-144.46"/>
</g>
<!-- Node4 -->
<g id="node10" class="node">
<title>Node4</title>
<g id="a_node10"><a xlink:href="group__group2__canfd.html" target="_top" xlink:title="Methods used by the CIO Server to initiate or finish communicatrion with the CAN&#45;FD module.">
<polygon fill="white" stroke="black" points="379.5,-30 248.5,-30 248.5,0 379.5,0 379.5,-30"/>
<text text-anchor="start" x="256.5" y="-18" font-family="Helvetica,sans-Serif" font-size="10.00">CAN&#45;FD Driver Connect</text>
<text text-anchor="middle" x="314" y="-7" font-family="Helvetica,sans-Serif" font-size="10.00"> Functions</text>
</a>
</g>
</g>
<!-- Node1&#45;&gt;Node4 -->
<g id="edge3" class="edge">
<title>Node1&#45;&gt;Node4</title>
<path fill="none" stroke="black" d="M160.16,-144.5C171.27,-116.91 195.31,-66.76 232,-39 236.91,-35.28 242.39,-32.14 248.12,-29.48"/>
<polygon fill="black" stroke="black" points="156.75,-143.6 156.41,-154.19 163.28,-146.12 156.75,-143.6"/>
</g>
</g>
</svg>
