<?xml version="1.0" encoding="UTF-8" standalone="no"?>
<!DOCTYPE svg PUBLIC "-//W3C//DTD SVG 1.1//EN"
 "http://www.w3.org/Graphics/SVG/1.1/DTD/svg11.dtd">
<!-- Generated by graphviz version 2.43.0 (0)
 -->
<!-- Title: OSAL Wrapper User Configurator For AUTOSAR Pages: 1 -->
<svg width="492pt" height="230pt"
 viewBox="0.00 0.00 492.00 230.00" xmlns="http://www.w3.org/2000/svg" xmlns:xlink="http://www.w3.org/1999/xlink">
<g id="graph0" class="graph" transform="scale(1 1) rotate(0) translate(4 226)">
<title>OSAL Wrapper User Configurator For AUTOSAR</title>
<polygon fill="white" stroke="transparent" points="-4,4 -4,-226 488,-226 488,4 -4,4"/>
<!-- Node2 -->
<g id="node1" class="node">
<title>Node2</title>
<g id="a_node1"><a xlink:href="group__osal__wrapper.html" target="_top" xlink:title=" ">
<polygon fill="white" stroke="black" points="87,-120.5 0,-120.5 0,-101.5 87,-101.5 87,-120.5"/>
<text text-anchor="middle" x="43.5" y="-108.5" font-family="Helvetica,sans-Serif" font-size="10.00">OSAL Wrapper</text>
</a>
</g>
</g>
<!-- Node1 -->
<g id="node2" class="node">
<title>Node1</title>
<g id="a_node2"><a xlink:title=" ">
<polygon fill="#bfbfbf" stroke="black" points="299,-126 123,-126 123,-96 299,-96 299,-126"/>
<text text-anchor="start" x="131" y="-114" font-family="Helvetica,sans-Serif" font-size="10.00">OSAL Wrapper User Configurator</text>
<text text-anchor="middle" x="211" y="-103" font-family="Helvetica,sans-Serif" font-size="10.00"> For AUTOSAR</text>
</a>
</g>
</g>
<!-- Node2&#45;&gt;Node1 -->
<g id="edge1" class="edge">
<title>Node2&#45;&gt;Node1</title>
<path fill="none" stroke="black" d="M97.23,-111C105.43,-111 114.08,-111 122.8,-111"/>
<polygon fill="black" stroke="black" points="97.12,-107.5 87.12,-111 97.12,-114.5 97.12,-107.5"/>
</g>
<!-- Node4 -->
<g id="node3" class="node">
<title>Node4</title>
<g id="a_node3"><a xlink:href="group__OSAL__Public__Defines__UsrConfig__control.html" target="_top" xlink:title=" ">
<polygon fill="white" stroke="black" points="484,-222 335,-222 335,-192 484,-192 484,-222"/>
<text text-anchor="start" x="343" y="-210" font-family="Helvetica,sans-Serif" font-size="10.00">User Configurator Public</text>
<text text-anchor="middle" x="409.5" y="-199" font-family="Helvetica,sans-Serif" font-size="10.00"> macro definitions (control)</text>
</a>
</g>
</g>
<!-- Node1&#45;&gt;Node4 -->
<g id="edge3" class="edge">
<title>Node1&#45;&gt;Node4</title>
<path fill="none" stroke="black" d="M242.78,-131.52C267.08,-147.09 302.24,-168.27 335,-183 342.1,-186.19 349.76,-189.17 357.35,-191.87"/>
<polygon fill="black" stroke="black" points="244.64,-128.55 234.34,-126.05 240.83,-134.43 244.64,-128.55"/>
</g>
<!-- Node3 -->
<g id="node4" class="node">
<title>Node3</title>
<g id="a_node4"><a xlink:href="group__OSAL__Public__Defines__Extern__Variables__UsrConfig.html" target="_top" xlink:title=" ">
<polygon fill="white" stroke="black" points="476.5,-174 342.5,-174 342.5,-144 476.5,-144 476.5,-174"/>
<text text-anchor="start" x="350.5" y="-162" font-family="Helvetica,sans-Serif" font-size="10.00">User Configurator Public</text>
<text text-anchor="middle" x="409.5" y="-151" font-family="Helvetica,sans-Serif" font-size="10.00"> extern variables (info)</text>
</a>
</g>
</g>
<!-- Node1&#45;&gt;Node3 -->
<g id="edge2" class="edge">
<title>Node1&#45;&gt;Node3</title>
<path fill="none" stroke="black" d="M283.4,-128.44C304.27,-133.54 326.89,-139.07 347.08,-144"/>
<polygon fill="black" stroke="black" points="284.18,-125.03 273.63,-126.06 282.52,-131.83 284.18,-125.03"/>
</g>
<!-- Node5 -->
<g id="node5" class="node">
<title>Node5</title>
<g id="a_node5"><a xlink:href="group__OSAL__Public__Defines__UsrConfig__info.html" target="_top" xlink:title=" ">
<polygon fill="white" stroke="black" points="476.5,-126 342.5,-126 342.5,-96 476.5,-96 476.5,-126"/>
<text text-anchor="start" x="350.5" y="-114" font-family="Helvetica,sans-Serif" font-size="10.00">User Configurator Public</text>
<text text-anchor="middle" x="409.5" y="-103" font-family="Helvetica,sans-Serif" font-size="10.00"> macro definitions (info)</text>
</a>
</g>
</g>
<!-- Node1&#45;&gt;Node5 -->
<g id="edge4" class="edge">
<title>Node1&#45;&gt;Node5</title>
<path fill="none" stroke="black" d="M309.33,-111C320.56,-111 331.8,-111 342.47,-111"/>
<polygon fill="black" stroke="black" points="309.05,-107.5 299.05,-111 309.05,-114.5 309.05,-107.5"/>
</g>
<!-- Node7 -->
<g id="node6" class="node">
<title>Node7</title>
<g id="a_node6"><a xlink:href="group__OSAL__Public__Type__UsrConfig__info.html" target="_top" xlink:title=" ">
<polygon fill="white" stroke="black" points="476.5,-78 342.5,-78 342.5,-48 476.5,-48 476.5,-78"/>
<text text-anchor="start" x="350.5" y="-66" font-family="Helvetica,sans-Serif" font-size="10.00">User Configurator Public</text>
<text text-anchor="middle" x="409.5" y="-55" font-family="Helvetica,sans-Serif" font-size="10.00"> type definitions (info)</text>
</a>
</g>
</g>
<!-- Node1&#45;&gt;Node7 -->
<g id="edge6" class="edge">
<title>Node1&#45;&gt;Node7</title>
<path fill="none" stroke="black" d="M283.4,-93.56C304.27,-88.46 326.89,-82.93 347.08,-78"/>
<polygon fill="black" stroke="black" points="282.52,-90.17 273.63,-95.94 284.18,-96.97 282.52,-90.17"/>
</g>
<!-- Node6 -->
<g id="node7" class="node">
<title>Node6</title>
<g id="a_node7"><a xlink:href="group__OSAL__Public__Type__UsrConfig__control.html" target="_top" xlink:title=" ">
<polygon fill="white" stroke="black" points="479.5,-30 339.5,-30 339.5,0 479.5,0 479.5,-30"/>
<text text-anchor="start" x="347.5" y="-18" font-family="Helvetica,sans-Serif" font-size="10.00">User Configurator Public</text>
<text text-anchor="middle" x="409.5" y="-7" font-family="Helvetica,sans-Serif" font-size="10.00"> type definitions (control)</text>
</a>
</g>
</g>
<!-- Node1&#45;&gt;Node6 -->
<g id="edge5" class="edge">
<title>Node1&#45;&gt;Node6</title>
<path fill="none" stroke="black" d="M242.78,-90.48C267.08,-74.91 302.24,-53.73 335,-39 342.1,-35.81 349.76,-32.83 357.35,-30.13"/>
<polygon fill="black" stroke="black" points="240.83,-87.57 234.34,-95.95 244.64,-93.45 240.83,-87.57"/>
</g>
</g>
</svg>
