<?xml version="1.0" encoding="UTF-8" standalone="no"?>
<!DOCTYPE svg PUBLIC "-//W3C//DTD SVG 1.1//EN"
 "http://www.w3.org/Graphics/SVG/1.1/DTD/svg11.dtd">
<!-- Generated by graphviz version 2.43.0 (0)
 -->
<!-- Title: CSI2 driver Pages: 1 -->
<svg width="273pt" height="101pt"
 viewBox="0.00 0.00 273.00 101.00" xmlns="http://www.w3.org/2000/svg" xmlns:xlink="http://www.w3.org/1999/xlink">
<g id="graph0" class="graph" transform="scale(1 1) rotate(0) translate(4 97)">
<title>CSI2 driver</title>
<polygon fill="white" stroke="transparent" points="-4,4 -4,-97 269,-97 269,4 -4,4"/>
<!-- Node3 -->
<g id="node1" class="node">
<title>Node3</title>
<g id="a_node1"><a xlink:href="group__CSI2api.html" target="_top" xlink:title=" ">
<polygon fill="white" stroke="black" points="245.5,-93 213.5,-93 213.5,-74 245.5,-74 245.5,-93"/>
<text text-anchor="middle" x="229.5" y="-81" font-family="Helvetica,sans-Serif" font-size="10.00">API</text>
</a>
</g>
</g>
<!-- Node5 -->
<g id="node2" class="node">
<title>Node5</title>
<g id="a_node2"><a xlink:href="group__CSI2types.html" target="_top" xlink:title=" ">
<polygon fill="white" stroke="black" points="265,-56 194,-56 194,-37 265,-37 265,-56"/>
<text text-anchor="middle" x="229.5" y="-44" font-family="Helvetica,sans-Serif" font-size="10.00">Data Types</text>
</a>
</g>
</g>
<!-- Node2 -->
<g id="node3" class="node">
<title>Node2</title>
<g id="a_node3"><a xlink:href="group__drivers.html" target="_top" xlink:title=" ">
<polygon fill="white" stroke="black" points="52,-56 0,-56 0,-37 52,-37 52,-56"/>
<text text-anchor="middle" x="26" y="-44" font-family="Helvetica,sans-Serif" font-size="10.00">Drivers</text>
</a>
</g>
</g>
<!-- Node1 -->
<g id="node4" class="node">
<title>Node1</title>
<g id="a_node4"><a xlink:title="CSI2(Camera Serial Interface 2) driver interface.">
<polygon fill="#bfbfbf" stroke="black" points="158,-56 88,-56 88,-37 158,-37 158,-56"/>
<text text-anchor="middle" x="123" y="-44" font-family="Helvetica,sans-Serif" font-size="10.00">CSI2 driver</text>
</a>
</g>
</g>
<!-- Node2&#45;&gt;Node1 -->
<g id="edge1" class="edge">
<title>Node2&#45;&gt;Node1</title>
<path fill="none" stroke="black" d="M62.59,-46.5C70.88,-46.5 79.68,-46.5 87.89,-46.5"/>
<polygon fill="black" stroke="black" points="62.46,-43 52.46,-46.5 62.46,-50 62.46,-43"/>
</g>
<!-- Node1&#45;&gt;Node3 -->
<g id="edge2" class="edge">
<title>Node1&#45;&gt;Node3</title>
<path fill="none" stroke="black" d="M160.37,-59.38C178.52,-65.8 199.5,-73.23 213.33,-78.13"/>
<polygon fill="black" stroke="black" points="161.51,-56.07 150.91,-56.03 159.17,-62.67 161.51,-56.07"/>
</g>
<!-- Node1&#45;&gt;Node5 -->
<g id="edge4" class="edge">
<title>Node1&#45;&gt;Node5</title>
<path fill="none" stroke="black" d="M168.39,-46.5C176.9,-46.5 185.7,-46.5 193.85,-46.5"/>
<polygon fill="black" stroke="black" points="168.22,-43 158.22,-46.5 168.22,-50 168.22,-43"/>
</g>
<!-- Node4 -->
<g id="node5" class="node">
<title>Node4</title>
<g id="a_node5"><a xlink:href="group__CSI2consts.html" target="_top" xlink:title=" ">
<polygon fill="white" stroke="black" points="262,-19 197,-19 197,0 262,0 262,-19"/>
<text text-anchor="middle" x="229.5" y="-7" font-family="Helvetica,sans-Serif" font-size="10.00">Constants</text>
</a>
</g>
</g>
<!-- Node1&#45;&gt;Node4 -->
<g id="edge3" class="edge">
<title>Node1&#45;&gt;Node4</title>
<path fill="none" stroke="black" d="M160.37,-33.62C173.82,-28.86 188.82,-23.55 201.32,-19.12"/>
<polygon fill="black" stroke="black" points="159.17,-30.33 150.91,-36.97 161.51,-36.93 159.17,-30.33"/>
</g>
</g>
</svg>
