<?xml version="1.0" encoding="UTF-8" standalone="no"?>
<!DOCTYPE svg PUBLIC "-//W3C//DTD SVG 1.1//EN"
 "http://www.w3.org/Graphics/SVG/1.1/DTD/svg11.dtd">
<!-- Generated by graphviz version 2.43.0 (0)
 -->
<!-- Title: Tick driver Pages: 1 -->
<svg width="295pt" height="64pt"
 viewBox="0.00 0.00 295.00 64.00" xmlns="http://www.w3.org/2000/svg" xmlns:xlink="http://www.w3.org/1999/xlink">
<g id="graph0" class="graph" transform="scale(1 1) rotate(0) translate(4 60)">
<title>Tick driver</title>
<polygon fill="white" stroke="transparent" points="-4,4 -4,-60 291,-60 291,4 -4,4"/>
<!-- Node1 -->
<g id="node1" class="node">
<title>Node1</title>
<g id="a_node1"><a xlink:title="Tick driver interface.">
<polygon fill="#bfbfbf" stroke="black" points="156,-37 88,-37 88,-18 156,-18 156,-37"/>
<text text-anchor="middle" x="122" y="-25" font-family="Helvetica,sans-Serif" font-size="10.00">Tick driver</text>
</a>
</g>
</g>
<!-- Node3 -->
<g id="node3" class="node">
<title>Node3</title>
<g id="a_node3"><a xlink:href="group__TickSysgroup.html" target="_top" xlink:title="System interface to the Tick driver.">
<polygon fill="white" stroke="black" points="287,-56 192,-56 192,-37 287,-37 287,-56"/>
<text text-anchor="middle" x="239.5" y="-44" font-family="Helvetica,sans-Serif" font-size="10.00">Tick system API</text>
</a>
</g>
</g>
<!-- Node1&#45;&gt;Node3 -->
<g id="edge2" class="edge">
<title>Node1&#45;&gt;Node3</title>
<path fill="none" stroke="black" d="M166.01,-34.58C174.37,-35.95 183.16,-37.4 191.63,-38.79"/>
<polygon fill="black" stroke="black" points="166.53,-31.11 156.1,-32.94 165.4,-38.02 166.53,-31.11"/>
</g>
<!-- Node4 -->
<g id="node4" class="node">
<title>Node4</title>
<g id="a_node4"><a xlink:href="group__TickApi.html" target="_top" xlink:title="tick user functions">
<polygon fill="white" stroke="black" points="279.5,-19 199.5,-19 199.5,0 279.5,0 279.5,-19"/>
<text text-anchor="middle" x="239.5" y="-7" font-family="Helvetica,sans-Serif" font-size="10.00">Tick user API</text>
</a>
</g>
</g>
<!-- Node1&#45;&gt;Node4 -->
<g id="edge3" class="edge">
<title>Node1&#45;&gt;Node4</title>
<path fill="none" stroke="black" d="M166.21,-20.77C177.06,-19.08 188.63,-17.27 199.26,-15.61"/>
<polygon fill="black" stroke="black" points="165.44,-17.34 156.1,-22.34 166.52,-24.26 165.44,-17.34"/>
</g>
<!-- Node2 -->
<g id="node2" class="node">
<title>Node2</title>
<g id="a_node2"><a xlink:href="group__drivers.html" target="_top" xlink:title=" ">
<polygon fill="white" stroke="black" points="52,-37 0,-37 0,-18 52,-18 52,-37"/>
<text text-anchor="middle" x="26" y="-25" font-family="Helvetica,sans-Serif" font-size="10.00">Drivers</text>
</a>
</g>
</g>
<!-- Node2&#45;&gt;Node1 -->
<g id="edge1" class="edge">
<title>Node2&#45;&gt;Node1</title>
<path fill="none" stroke="black" d="M62.43,-27.5C70.8,-27.5 79.69,-27.5 87.95,-27.5"/>
<polygon fill="black" stroke="black" points="62.19,-24 52.19,-27.5 62.19,-31 62.19,-24"/>
</g>
</g>
</svg>
