<?xml version="1.0" encoding="UTF-8" standalone="no"?>
<!DOCTYPE svg PUBLIC "-//W3C//DTD SVG 1.1//EN"
 "http://www.w3.org/Graphics/SVG/1.1/DTD/svg11.dtd">
<!-- Generated by graphviz version 2.43.0 (0)
 -->
<!-- Title: WM internal Types Pages: 1 -->
<svg width="395pt" height="27pt"
 viewBox="0.00 0.00 395.00 27.00" xmlns="http://www.w3.org/2000/svg" xmlns:xlink="http://www.w3.org/1999/xlink">
<g id="graph0" class="graph" transform="scale(1 1) rotate(0) translate(4 23)">
<title>WM internal Types</title>
<polygon fill="white" stroke="transparent" points="-4,4 -4,-23 391,-23 391,4 -4,4"/>
<!-- Node3 -->
<g id="node1" class="node">
<title>Node3</title>
<g id="a_node1"><a xlink:href="group__WmMsgTypes.html" target="_top" xlink:title="Types used to transfer data between the WM user and driver lib.">
<polygon fill="white" stroke="black" points="387,-19 274,-19 274,0 387,0 387,-19"/>
<text text-anchor="middle" x="330.5" y="-7" font-family="Helvetica,sans-Serif" font-size="10.00">WM Message Types</text>
</a>
</g>
</g>
<!-- Node2 -->
<g id="node2" class="node">
<title>Node2</title>
<g id="a_node2"><a xlink:href="group__PrivDef.html" target="_top" xlink:title="WM internal types and APIs.">
<polygon fill="white" stroke="black" points="95,-19 0,-19 0,0 95,0 95,-19"/>
<text text-anchor="middle" x="47.5" y="-7" font-family="Helvetica,sans-Serif" font-size="10.00">WM User Bridge</text>
</a>
</g>
</g>
<!-- Node1 -->
<g id="node3" class="node">
<title>Node1</title>
<g id="a_node3"><a xlink:title="WM internal types.">
<polygon fill="#bfbfbf" stroke="black" points="238,-19 131,-19 131,0 238,0 238,-19"/>
<text text-anchor="middle" x="184.5" y="-7" font-family="Helvetica,sans-Serif" font-size="10.00">WM internal Types</text>
</a>
</g>
</g>
<!-- Node2&#45;&gt;Node1 -->
<g id="edge1" class="edge">
<title>Node2&#45;&gt;Node1</title>
<path fill="none" stroke="black" d="M105.43,-9.5C113.82,-9.5 122.43,-9.5 130.74,-9.5"/>
<polygon fill="black" stroke="black" points="105.34,-6 95.34,-9.5 105.34,-13 105.34,-6"/>
</g>
<!-- Node1&#45;&gt;Node3 -->
<g id="edge2" class="edge">
<title>Node1&#45;&gt;Node3</title>
<path fill="none" stroke="black" d="M248.47,-9.5C256.9,-9.5 265.5,-9.5 273.8,-9.5"/>
<polygon fill="black" stroke="black" points="248.3,-6 238.3,-9.5 248.3,-13 248.3,-6"/>
</g>
</g>
</svg>
