<?xml version="1.0" encoding="UTF-8" standalone="no"?>
<!DOCTYPE svg PUBLIC "-//W3C//DTD SVG 1.1//EN"
 "http://www.w3.org/Graphics/SVG/1.1/DTD/svg11.dtd">
<!-- Generated by graphviz version 2.43.0 (0)
 -->
<!-- Title: SYSC driver Pages: 1 -->
<svg width="276pt" height="64pt"
 viewBox="0.00 0.00 276.00 64.00" xmlns="http://www.w3.org/2000/svg" xmlns:xlink="http://www.w3.org/1999/xlink">
<g id="graph0" class="graph" transform="scale(1 1) rotate(0) translate(4 60)">
<title>SYSC driver</title>
<polygon fill="white" stroke="transparent" points="-4,4 -4,-60 272,-60 272,4 -4,4"/>
<!-- Node2 -->
<g id="node1" class="node">
<title>Node2</title>
<g id="a_node1"><a xlink:href="group__drivers.html" target="_top" xlink:title=" ">
<polygon fill="white" stroke="black" points="52,-37 0,-37 0,-18 52,-18 52,-37"/>
<text text-anchor="middle" x="26" y="-25" font-family="Helvetica,sans-Serif" font-size="10.00">Drivers</text>
</a>
</g>
</g>
<!-- Node1 -->
<g id="node3" class="node">
<title>Node1</title>
<g id="a_node3"><a xlink:title="SYSC driver interface.">
<polygon fill="#bfbfbf" stroke="black" points="161,-37 88,-37 88,-18 161,-18 161,-37"/>
<text text-anchor="middle" x="124.5" y="-25" font-family="Helvetica,sans-Serif" font-size="10.00">SYSC driver</text>
</a>
</g>
</g>
<!-- Node2&#45;&gt;Node1 -->
<g id="edge1" class="edge">
<title>Node2&#45;&gt;Node1</title>
<path fill="none" stroke="black" d="M62.32,-27.5C70.69,-27.5 79.61,-27.5 87.99,-27.5"/>
<polygon fill="black" stroke="black" points="62.1,-24 52.1,-27.5 62.1,-31 62.1,-24"/>
</g>
<!-- Node4 -->
<g id="node2" class="node">
<title>Node4</title>
<g id="a_node2"><a xlink:href="group__SYSCtypes.html" target="_top" xlink:title=" ">
<polygon fill="white" stroke="black" points="268,-56 197,-56 197,-37 268,-37 268,-56"/>
<text text-anchor="middle" x="232.5" y="-44" font-family="Helvetica,sans-Serif" font-size="10.00">Data Types</text>
</a>
</g>
</g>
<!-- Node1&#45;&gt;Node4 -->
<g id="edge3" class="edge">
<title>Node1&#45;&gt;Node4</title>
<path fill="none" stroke="black" d="M171.07,-35.67C179.73,-37.22 188.65,-38.82 196.9,-40.3"/>
<polygon fill="black" stroke="black" points="171.55,-32.2 161.09,-33.88 170.32,-39.09 171.55,-32.2"/>
</g>
<!-- Node3 -->
<g id="node4" class="node">
<title>Node3</title>
<g id="a_node4"><a xlink:href="group__SYSCapi.html" target="_top" xlink:title=" ">
<polygon fill="white" stroke="black" points="248.5,-19 216.5,-19 216.5,0 248.5,0 248.5,-19"/>
<text text-anchor="middle" x="232.5" y="-7" font-family="Helvetica,sans-Serif" font-size="10.00">API</text>
</a>
</g>
</g>
<!-- Node1&#45;&gt;Node3 -->
<g id="edge2" class="edge">
<title>Node1&#45;&gt;Node3</title>
<path fill="none" stroke="black" d="M171,-19.77C187.21,-17.02 204.36,-14.11 216.25,-12.09"/>
<polygon fill="black" stroke="black" points="170.36,-16.33 161.09,-21.46 171.54,-23.23 170.36,-16.33"/>
</g>
</g>
</svg>
