<?xml version="1.0" encoding="UTF-8" standalone="no"?>
<!DOCTYPE svg PUBLIC "-//W3C//DTD SVG 1.1//EN"
 "http://www.w3.org/Graphics/SVG/1.1/DTD/svg11.dtd">
<!-- Generated by graphviz version 2.43.0 (0)
 -->
<!-- Title: VSP2 driver Pages: 1 -->
<svg width="306pt" height="175pt"
 viewBox="0.00 0.00 306.00 175.00" xmlns="http://www.w3.org/2000/svg" xmlns:xlink="http://www.w3.org/1999/xlink">
<g id="graph0" class="graph" transform="scale(1 1) rotate(0) translate(4 171)">
<title>VSP2 driver</title>
<polygon fill="white" stroke="transparent" points="-4,4 -4,-171 302,-171 302,4 -4,4"/>
<!-- Node6 -->
<g id="node1" class="node">
<title>Node6</title>
<g id="a_node1"><a xlink:href="group__VSPDgroup.html" target="_top" xlink:title="VSPD driver interface.">
<polygon fill="white" stroke="black" points="298,-167 197,-167 197,-148 298,-148 298,-167"/>
<text text-anchor="middle" x="247.5" y="-155" font-family="Helvetica,sans-Serif" font-size="10.00">VSPD specific API</text>
</a>
</g>
</g>
<!-- Node7 -->
<g id="node2" class="node">
<title>Node7</title>
<g id="a_node2"><a xlink:href="group__VSPIgroup.html" target="_top" xlink:title="VSPI driver interface.">
<polygon fill="white" stroke="black" points="296,-130 199,-130 199,-111 296,-111 296,-130"/>
<text text-anchor="middle" x="247.5" y="-118" font-family="Helvetica,sans-Serif" font-size="10.00">VSPI specific API</text>
</a>
</g>
</g>
<!-- Node2 -->
<g id="node3" class="node">
<title>Node2</title>
<g id="a_node3"><a xlink:href="group__drivers.html" target="_top" xlink:title=" ">
<polygon fill="white" stroke="black" points="52,-93 0,-93 0,-74 52,-74 52,-93"/>
<text text-anchor="middle" x="26" y="-81" font-family="Helvetica,sans-Serif" font-size="10.00">Drivers</text>
</a>
</g>
</g>
<!-- Node1 -->
<g id="node6" class="node">
<title>Node1</title>
<g id="a_node6"><a xlink:title="Video Signal Processor (VSP2) driver interface.">
<polygon fill="#bfbfbf" stroke="black" points="161,-93 88,-93 88,-74 161,-74 161,-93"/>
<text text-anchor="middle" x="124.5" y="-81" font-family="Helvetica,sans-Serif" font-size="10.00">VSP2 driver</text>
</a>
</g>
</g>
<!-- Node2&#45;&gt;Node1 -->
<g id="edge1" class="edge">
<title>Node2&#45;&gt;Node1</title>
<path fill="none" stroke="black" d="M62.32,-83.5C70.69,-83.5 79.61,-83.5 87.99,-83.5"/>
<polygon fill="black" stroke="black" points="62.1,-80 52.1,-83.5 62.1,-87 62.1,-80"/>
</g>
<!-- Node3 -->
<g id="node4" class="node">
<title>Node3</title>
<g id="a_node4"><a xlink:href="group__VSPapi.html" target="_top" xlink:title=" ">
<polygon fill="white" stroke="black" points="263.5,-93 231.5,-93 231.5,-74 263.5,-74 263.5,-93"/>
<text text-anchor="middle" x="247.5" y="-81" font-family="Helvetica,sans-Serif" font-size="10.00">API</text>
</a>
</g>
</g>
<!-- Node5 -->
<g id="node5" class="node">
<title>Node5</title>
<g id="a_node5"><a xlink:href="group__VSPtypes.html" target="_top" xlink:title=" ">
<polygon fill="white" stroke="black" points="283,-56 212,-56 212,-37 283,-37 283,-56"/>
<text text-anchor="middle" x="247.5" y="-44" font-family="Helvetica,sans-Serif" font-size="10.00">Data Types</text>
</a>
</g>
</g>
<!-- Node1&#45;&gt;Node6 -->
<g id="edge5" class="edge">
<title>Node1&#45;&gt;Node6</title>
<path fill="none" stroke="black" d="M143.63,-100.35C157.44,-112.5 177.36,-128.6 197,-139.5 202.76,-142.69 209.19,-145.52 215.47,-147.92"/>
<polygon fill="black" stroke="black" points="145.66,-97.46 135.88,-93.38 140.98,-102.67 145.66,-97.46"/>
</g>
<!-- Node1&#45;&gt;Node7 -->
<g id="edge6" class="edge">
<title>Node1&#45;&gt;Node7</title>
<path fill="none" stroke="black" d="M166.26,-95.96C182.17,-100.83 200.14,-106.32 215.02,-110.88"/>
<polygon fill="black" stroke="black" points="167.25,-92.61 156.66,-93.03 165.2,-99.3 167.25,-92.61"/>
</g>
<!-- Node1&#45;&gt;Node3 -->
<g id="edge2" class="edge">
<title>Node1&#45;&gt;Node3</title>
<path fill="none" stroke="black" d="M171.34,-83.5C192.62,-83.5 216.47,-83.5 231.48,-83.5"/>
<polygon fill="black" stroke="black" points="171.15,-80 161.15,-83.5 171.15,-87 171.15,-80"/>
</g>
<!-- Node1&#45;&gt;Node5 -->
<g id="edge4" class="edge">
<title>Node1&#45;&gt;Node5</title>
<path fill="none" stroke="black" d="M166.26,-71.04C182.17,-66.17 200.14,-60.68 215.02,-56.12"/>
<polygon fill="black" stroke="black" points="165.2,-67.7 156.66,-73.97 167.25,-74.39 165.2,-67.7"/>
</g>
<!-- Node4 -->
<g id="node7" class="node">
<title>Node4</title>
<g id="a_node7"><a xlink:href="group__VSPconsts.html" target="_top" xlink:title=" ">
<polygon fill="white" stroke="black" points="280,-19 215,-19 215,0 280,0 280,-19"/>
<text text-anchor="middle" x="247.5" y="-7" font-family="Helvetica,sans-Serif" font-size="10.00">Constants</text>
</a>
</g>
</g>
<!-- Node1&#45;&gt;Node4 -->
<g id="edge3" class="edge">
<title>Node1&#45;&gt;Node4</title>
<path fill="none" stroke="black" d="M143.63,-66.65C157.44,-54.5 177.36,-38.4 197,-27.5 202.76,-24.31 209.19,-21.48 215.47,-19.08"/>
<polygon fill="black" stroke="black" points="140.98,-64.33 135.88,-73.62 145.66,-69.54 140.98,-64.33"/>
</g>
</g>
</svg>
