<?xml version="1.0" encoding="UTF-8" standalone="no"?>
<!DOCTYPE svg PUBLIC "-//W3C//DTD SVG 1.1//EN"
 "http://www.w3.org/Graphics/SVG/1.1/DTD/svg11.dtd">
<!-- Generated by graphviz version 2.43.0 (0)
 -->
<!-- Title: User Configurator Public macro definitions (control) Pages: 1 -->
<svg width="369pt" height="86pt"
 viewBox="0.00 0.00 369.00 86.00" xmlns="http://www.w3.org/2000/svg" xmlns:xlink="http://www.w3.org/1999/xlink">
<g id="graph0" class="graph" transform="scale(1 1) rotate(0) translate(4 82)">
<title>User Configurator Public macro definitions (control)</title>
<polygon fill="white" stroke="transparent" points="-4,4 -4,-82 365,-82 365,4 -4,4"/>
<!-- Node2 -->
<g id="node1" class="node">
<title>Node2</title>
<g id="a_node1"><a xlink:href="group__OSAL__WRAPPER__FREERTOS__USR__CFG.html" target="_top" xlink:title=" ">
<polygon fill="white" stroke="black" points="176,-78 0,-78 0,-48 176,-48 176,-78"/>
<text text-anchor="start" x="8" y="-66" font-family="Helvetica,sans-Serif" font-size="10.00">OSAL Wrapper User Configurator</text>
<text text-anchor="middle" x="88" y="-55" font-family="Helvetica,sans-Serif" font-size="10.00"> For FREERTOS</text>
</a>
</g>
</g>
<!-- Node1 -->
<g id="node3" class="node">
<title>Node1</title>
<g id="a_node3"><a xlink:title=" ">
<polygon fill="#bfbfbf" stroke="black" points="361,-54 212,-54 212,-24 361,-24 361,-54"/>
<text text-anchor="start" x="220" y="-42" font-family="Helvetica,sans-Serif" font-size="10.00">User Configurator Public</text>
<text text-anchor="middle" x="286.5" y="-31" font-family="Helvetica,sans-Serif" font-size="10.00"> macro definitions (control)</text>
</a>
</g>
</g>
<!-- Node2&#45;&gt;Node1 -->
<g id="edge1" class="edge">
<title>Node2&#45;&gt;Node1</title>
<path fill="none" stroke="black" d="M186.13,-51.14C194.74,-50.09 203.36,-49.03 211.73,-48.01"/>
<polygon fill="black" stroke="black" points="185.55,-47.68 176.05,-52.37 186.4,-54.63 185.55,-47.68"/>
</g>
<!-- Node3 -->
<g id="node2" class="node">
<title>Node3</title>
<g id="a_node2"><a xlink:href="group__OSAL__WRAPPER__AUTOSAR__USR__CFG.html" target="_top" xlink:title=" ">
<polygon fill="white" stroke="black" points="176,-30 0,-30 0,0 176,0 176,-30"/>
<text text-anchor="start" x="8" y="-18" font-family="Helvetica,sans-Serif" font-size="10.00">OSAL Wrapper User Configurator</text>
<text text-anchor="middle" x="88" y="-7" font-family="Helvetica,sans-Serif" font-size="10.00"> For AUTOSAR</text>
</a>
</g>
</g>
<!-- Node3&#45;&gt;Node1 -->
<g id="edge2" class="edge">
<title>Node3&#45;&gt;Node1</title>
<path fill="none" stroke="black" d="M186.13,-26.86C194.74,-27.91 203.36,-28.97 211.73,-29.99"/>
<polygon fill="black" stroke="black" points="186.4,-23.37 176.05,-25.63 185.55,-30.32 186.4,-23.37"/>
</g>
</g>
</svg>
