<?xml version="1.0" encoding="UTF-8" standalone="no"?>
<!DOCTYPE svg PUBLIC "-//W3C//DTD SVG 1.1//EN"
 "http://www.w3.org/Graphics/SVG/1.1/DTD/svg11.dtd">
<!-- Generated by graphviz version 2.43.0 (0)
 -->
<!-- Title: HDMI driver Pages: 1 -->
<svg width="278pt" height="64pt"
 viewBox="0.00 0.00 278.00 64.00" xmlns="http://www.w3.org/2000/svg" xmlns:xlink="http://www.w3.org/1999/xlink">
<g id="graph0" class="graph" transform="scale(1 1) rotate(0) translate(4 60)">
<title>HDMI driver</title>
<polygon fill="white" stroke="transparent" points="-4,4 -4,-60 274,-60 274,4 -4,4"/>
<!-- Node2 -->
<g id="node1" class="node">
<title>Node2</title>
<g id="a_node1"><a xlink:href="group__drivers.html" target="_top" xlink:title=" ">
<polygon fill="white" stroke="black" points="52,-37 0,-37 0,-18 52,-18 52,-37"/>
<text text-anchor="middle" x="26" y="-25" font-family="Helvetica,sans-Serif" font-size="10.00">Drivers</text>
</a>
</g>
</g>
<!-- Node1 -->
<g id="node3" class="node">
<title>Node1</title>
<g id="a_node3"><a xlink:title="HDMI driver interface for R&#45;Car H3, M3, and M3N.">
<polygon fill="#bfbfbf" stroke="black" points="163,-37 88,-37 88,-18 163,-18 163,-37"/>
<text text-anchor="middle" x="125.5" y="-25" font-family="Helvetica,sans-Serif" font-size="10.00">HDMI driver</text>
</a>
</g>
</g>
<!-- Node2&#45;&gt;Node1 -->
<g id="edge1" class="edge">
<title>Node2&#45;&gt;Node1</title>
<path fill="none" stroke="black" d="M62.22,-27.5C70.51,-27.5 79.36,-27.5 87.71,-27.5"/>
<polygon fill="black" stroke="black" points="62.11,-24 52.11,-27.5 62.11,-31 62.11,-24"/>
</g>
<!-- Node4 -->
<g id="node2" class="node">
<title>Node4</title>
<g id="a_node2"><a xlink:href="group__HDMItypes.html" target="_top" xlink:title=" ">
<polygon fill="white" stroke="black" points="270,-56 199,-56 199,-37 270,-37 270,-56"/>
<text text-anchor="middle" x="234.5" y="-44" font-family="Helvetica,sans-Serif" font-size="10.00">Data Types</text>
</a>
</g>
</g>
<!-- Node1&#45;&gt;Node4 -->
<g id="edge3" class="edge">
<title>Node1&#45;&gt;Node4</title>
<path fill="none" stroke="black" d="M173.06,-35.77C181.75,-37.31 190.69,-38.9 198.94,-40.36"/>
<polygon fill="black" stroke="black" points="173.48,-32.29 163.02,-33.99 172.26,-39.18 173.48,-32.29"/>
</g>
<!-- Node3 -->
<g id="node4" class="node">
<title>Node3</title>
<g id="a_node4"><a xlink:href="group__HDMIapi.html" target="_top" xlink:title=" ">
<polygon fill="white" stroke="black" points="250.5,-19 218.5,-19 218.5,0 250.5,0 250.5,-19"/>
<text text-anchor="middle" x="234.5" y="-7" font-family="Helvetica,sans-Serif" font-size="10.00">API</text>
</a>
</g>
</g>
<!-- Node1&#45;&gt;Node3 -->
<g id="edge2" class="edge">
<title>Node1&#45;&gt;Node3</title>
<path fill="none" stroke="black" d="M172.99,-19.68C189.26,-16.94 206.42,-14.06 218.29,-12.06"/>
<polygon fill="black" stroke="black" points="172.3,-16.25 163.02,-21.36 173.47,-23.15 172.3,-16.25"/>
</g>
</g>
</svg>
