<?xml version="1.0" encoding="UTF-8" standalone="no"?>
<!DOCTYPE svg PUBLIC "-//W3C//DTD SVG 1.1//EN"
 "http://www.w3.org/Graphics/SVG/1.1/DTD/svg11.dtd">
<!-- Generated by graphviz version 2.43.0 (0)
 -->
<!-- Title: Device Condifurator Public function definitions (control) Pages: 1 -->
<svg width="341pt" height="86pt"
 viewBox="0.00 0.00 341.00 86.00" xmlns="http://www.w3.org/2000/svg" xmlns:xlink="http://www.w3.org/1999/xlink">
<g id="graph0" class="graph" transform="scale(1 1) rotate(0) translate(4 82)">
<title>Device Condifurator Public function definitions (control)</title>
<polygon fill="white" stroke="transparent" points="-4,4 -4,-82 337,-82 337,4 -4,4"/>
<!-- Node1 -->
<g id="node1" class="node">
<title>Node1</title>
<g id="a_node1"><a xlink:title=" ">
<polygon fill="#bfbfbf" stroke="black" points="333,-59.5 187,-59.5 187,-18.5 333,-18.5 333,-59.5"/>
<text text-anchor="start" x="195" y="-47.5" font-family="Helvetica,sans-Serif" font-size="10.00">Device Condifurator</text>
<text text-anchor="start" x="195" y="-36.5" font-family="Helvetica,sans-Serif" font-size="10.00"> Public function definitions</text>
<text text-anchor="middle" x="260" y="-25.5" font-family="Helvetica,sans-Serif" font-size="10.00"> (control)</text>
</a>
</g>
</g>
<!-- Node2 -->
<g id="node2" class="node">
<title>Node2</title>
<g id="a_node2"><a xlink:href="group__OSAL__WRAPPER__FREERTOS__DEV__CFG.html" target="_top" xlink:title=" ">
<polygon fill="white" stroke="black" points="151,-78 0,-78 0,-48 151,-48 151,-78"/>
<text text-anchor="start" x="8" y="-66" font-family="Helvetica,sans-Serif" font-size="10.00">OSAL Wrapper Device</text>
<text text-anchor="middle" x="75.5" y="-55" font-family="Helvetica,sans-Serif" font-size="10.00"> Configurator For FREERTOS</text>
</a>
</g>
</g>
<!-- Node2&#45;&gt;Node1 -->
<g id="edge1" class="edge">
<title>Node2&#45;&gt;Node1</title>
<path fill="none" stroke="black" d="M161.21,-51.86C169.74,-50.74 178.34,-49.61 186.72,-48.51"/>
<polygon fill="black" stroke="black" points="160.71,-48.39 151.26,-53.17 161.63,-55.34 160.71,-48.39"/>
</g>
<!-- Node3 -->
<g id="node3" class="node">
<title>Node3</title>
<g id="a_node3"><a xlink:href="group__OSAL__WRAPPER__AUTOSAR__DEV__CFG.html" target="_top" xlink:title=" ">
<polygon fill="white" stroke="black" points="147,-30 4,-30 4,0 147,0 147,-30"/>
<text text-anchor="start" x="12" y="-18" font-family="Helvetica,sans-Serif" font-size="10.00">OSAL Wrapper Device</text>
<text text-anchor="middle" x="75.5" y="-7" font-family="Helvetica,sans-Serif" font-size="10.00"> Configurator For AutoSAR</text>
</a>
</g>
</g>
<!-- Node3&#45;&gt;Node1 -->
<g id="edge2" class="edge">
<title>Node3&#45;&gt;Node1</title>
<path fill="none" stroke="black" d="M157.24,-25.62C167.09,-26.91 177.11,-28.23 186.82,-29.51"/>
<polygon fill="black" stroke="black" points="157.43,-22.11 147.06,-24.28 156.52,-29.05 157.43,-22.11"/>
</g>
</g>
</svg>
