<?xml version="1.0" encoding="UTF-8" standalone="no"?>
<!DOCTYPE svg PUBLIC "-//W3C//DTD SVG 1.1//EN"
 "http://www.w3.org/Graphics/SVG/1.1/DTD/svg11.dtd">
<!-- Generated by graphviz version 2.43.0 (0)
 -->
<!-- Title: Definition Pages: 1 -->
<svg width="350pt" height="101pt"
 viewBox="0.00 0.00 350.00 101.00" xmlns="http://www.w3.org/2000/svg" xmlns:xlink="http://www.w3.org/1999/xlink">
<g id="graph0" class="graph" transform="scale(1 1) rotate(0) translate(4 97)">
<title>Definition</title>
<polygon fill="white" stroke="transparent" points="-4,4 -4,-97 346,-97 346,4 -4,4"/>
<!-- Node2 -->
<g id="node1" class="node">
<title>Node2</title>
<g id="a_node1"><a xlink:href="group__osal.html" target="_top" xlink:title=" ">
<polygon fill="white" stroke="black" points="43,-56 0,-56 0,-37 43,-37 43,-56"/>
<text text-anchor="middle" x="21.5" y="-44" font-family="Helvetica,sans-Serif" font-size="10.00">OSAL</text>
</a>
</g>
</g>
<!-- Node1 -->
<g id="node3" class="node">
<title>Node1</title>
<g id="a_node3"><a xlink:title=" ">
<polygon fill="#bfbfbf" stroke="black" points="143,-56 79,-56 79,-37 143,-37 143,-56"/>
<text text-anchor="middle" x="111" y="-44" font-family="Helvetica,sans-Serif" font-size="10.00">Definition</text>
</a>
</g>
</g>
<!-- Node2&#45;&gt;Node1 -->
<g id="edge1" class="edge">
<title>Node2&#45;&gt;Node1</title>
<path fill="none" stroke="black" d="M53.26,-46.5C61.53,-46.5 70.49,-46.5 78.79,-46.5"/>
<polygon fill="black" stroke="black" points="53.24,-43 43.24,-46.5 53.24,-50 53.24,-43"/>
</g>
<!-- Node3 -->
<g id="node2" class="node">
<title>Node3</title>
<g id="a_node2"><a xlink:href="group__OSAL__GENERIC__ENUM.html" target="_top" xlink:title=" ">
<polygon fill="white" stroke="black" points="335,-93 186,-93 186,-74 335,-74 335,-93"/>
<text text-anchor="middle" x="260.5" y="-81" font-family="Helvetica,sans-Serif" font-size="10.00">OSAL Generic Enumeration</text>
</a>
</g>
</g>
<!-- Node1&#45;&gt;Node3 -->
<g id="edge2" class="edge">
<title>Node1&#45;&gt;Node3</title>
<path fill="none" stroke="black" d="M153.05,-58.54C161.6,-60.93 170.58,-63.37 179,-65.5 190.52,-68.42 203.03,-71.34 214.68,-73.95"/>
<polygon fill="black" stroke="black" points="153.84,-55.12 143.26,-55.76 151.93,-61.86 153.84,-55.12"/>
</g>
<!-- Node5 -->
<g id="node4" class="node">
<title>Node5</title>
<g id="a_node4"><a xlink:href="group__macro__definitions.html" target="_top" xlink:title=" ">
<polygon fill="white" stroke="black" points="311,-56 210,-56 210,-37 311,-37 311,-56"/>
<text text-anchor="middle" x="260.5" y="-44" font-family="Helvetica,sans-Serif" font-size="10.00">macro definitions</text>
</a>
</g>
</g>
<!-- Node1&#45;&gt;Node5 -->
<g id="edge4" class="edge">
<title>Node1&#45;&gt;Node5</title>
<path fill="none" stroke="black" d="M153.74,-46.5C171.24,-46.5 191.73,-46.5 209.98,-46.5"/>
<polygon fill="black" stroke="black" points="153.28,-43 143.28,-46.5 153.28,-50 153.28,-43"/>
</g>
<!-- Node4 -->
<g id="node5" class="node">
<title>Node4</title>
<g id="a_node5"><a xlink:href="group__OSAL__GENERIC__TYPES.html" target="_top" xlink:title=" ">
<polygon fill="white" stroke="black" points="342,-19 179,-19 179,0 342,0 342,-19"/>
<text text-anchor="middle" x="260.5" y="-7" font-family="Helvetica,sans-Serif" font-size="10.00">OSAL Generic Type definitions</text>
</a>
</g>
</g>
<!-- Node1&#45;&gt;Node4 -->
<g id="edge3" class="edge">
<title>Node1&#45;&gt;Node4</title>
<path fill="none" stroke="black" d="M153.09,-35.25C161.64,-32.97 170.61,-30.62 179,-28.5 191.67,-25.3 205.5,-21.98 218.07,-19.02"/>
<polygon fill="black" stroke="black" points="152.06,-31.9 143.31,-37.88 153.87,-38.66 152.06,-31.9"/>
</g>
</g>
</svg>
