<?xml version="1.0" encoding="UTF-8" standalone="no"?>
<!DOCTYPE svg PUBLIC "-//W3C//DTD SVG 1.1//EN"
 "http://www.w3.org/Graphics/SVG/1.1/DTD/svg11.dtd">
<!-- Generated by graphviz version 2.43.0 (0)
 -->
<!-- Title: WM User Bridge functions Pages: 1 -->
<svg width="462pt" height="27pt"
 viewBox="0.00 0.00 462.00 27.00" xmlns="http://www.w3.org/2000/svg" xmlns:xlink="http://www.w3.org/1999/xlink">
<g id="graph0" class="graph" transform="scale(1 1) rotate(0) translate(4 23)">
<title>WM User Bridge functions</title>
<polygon fill="white" stroke="transparent" points="-4,4 -4,-23 458,-23 458,4 -4,4"/>
<!-- Node2 -->
<g id="node1" class="node">
<title>Node2</title>
<g id="a_node1"><a xlink:href="group__PrivDef.html" target="_top" xlink:title="WM internal types and APIs.">
<polygon fill="white" stroke="black" points="95,-19 0,-19 0,0 95,0 95,-19"/>
<text text-anchor="middle" x="47.5" y="-7" font-family="Helvetica,sans-Serif" font-size="10.00">WM User Bridge</text>
</a>
</g>
</g>
<!-- Node1 -->
<g id="node3" class="node">
<title>Node1</title>
<g id="a_node3"><a xlink:title="WM internal functions.">
<polygon fill="#bfbfbf" stroke="black" points="274,-19 131,-19 131,0 274,0 274,-19"/>
<text text-anchor="middle" x="202.5" y="-7" font-family="Helvetica,sans-Serif" font-size="10.00">WM User Bridge functions</text>
</a>
</g>
</g>
<!-- Node2&#45;&gt;Node1 -->
<g id="edge1" class="edge">
<title>Node2&#45;&gt;Node1</title>
<path fill="none" stroke="black" d="M105.49,-9.5C113.75,-9.5 122.33,-9.5 130.82,-9.5"/>
<polygon fill="black" stroke="black" points="105.24,-6 95.24,-9.5 105.24,-13 105.24,-6"/>
</g>
<!-- Node3 -->
<g id="node2" class="node">
<title>Node3</title>
<g id="a_node2"><a xlink:href="group__WMMsgFn.html" target="_top" xlink:title="Functions handling the communication with the WM driver.">
<polygon fill="white" stroke="black" points="454,-19 310,-19 310,0 454,0 454,-19"/>
<text text-anchor="middle" x="382" y="-7" font-family="Helvetica,sans-Serif" font-size="10.00">WM Private Msg functions</text>
</a>
</g>
</g>
<!-- Node1&#45;&gt;Node3 -->
<g id="edge2" class="edge">
<title>Node1&#45;&gt;Node3</title>
<path fill="none" stroke="black" d="M284.4,-9.5C292.84,-9.5 301.38,-9.5 309.71,-9.5"/>
<polygon fill="black" stroke="black" points="284.16,-6 274.16,-9.5 284.16,-13 284.16,-6"/>
</g>
</g>
</svg>
