<?xml version="1.0" encoding="UTF-8" standalone="no"?>
<!DOCTYPE svg PUBLIC "-//W3C//DTD SVG 1.1//EN"
 "http://www.w3.org/Graphics/SVG/1.1/DTD/svg11.dtd">
<!-- Generated by graphviz version 2.43.0 (0)
 -->
<!-- Title: Window Manager Driver Pages: 1 -->
<svg width="434pt" height="249pt"
 viewBox="0.00 0.00 434.00 249.00" xmlns="http://www.w3.org/2000/svg" xmlns:xlink="http://www.w3.org/1999/xlink">
<g id="graph0" class="graph" transform="scale(1 1) rotate(0) translate(4 245)">
<title>Window Manager Driver</title>
<polygon fill="white" stroke="transparent" points="-4,4 -4,-245 430,-245 430,4 -4,4"/>
<!-- Node4 -->
<g id="node1" class="node">
<title>Node4</title>
<g id="a_node1"><a xlink:href="group__Connect.html" target="_top" xlink:title="Declaration of the connection functions for the CIO WM device.">
<polygon fill="white" stroke="black" points="401,-241 303,-241 303,-222 401,-222 401,-241"/>
<text text-anchor="middle" x="352" y="-229" font-family="Helvetica,sans-Serif" font-size="10.00">WM Connections</text>
</a>
</g>
</g>
<!-- Node7 -->
<g id="node2" class="node">
<title>Node7</title>
<g id="a_node2"><a xlink:href="group__Status.html" target="_top" xlink:title="Declaration of the CIO WM device Status function.">
<polygon fill="white" stroke="black" points="413,-204 291,-204 291,-185 413,-185 413,-204"/>
<text text-anchor="middle" x="352" y="-192" font-family="Helvetica,sans-Serif" font-size="10.00">WM device status API</text>
</a>
</g>
</g>
<!-- Node3 -->
<g id="node3" class="node">
<title>Node3</title>
<g id="a_node3"><a xlink:href="group__group1__wm.html" target="_top" xlink:title="Bridge for the CIO server.">
<polygon fill="white" stroke="black" points="426,-167 278,-167 278,-148 426,-148 426,-167"/>
<text text-anchor="middle" x="352" y="-155" font-family="Helvetica,sans-Serif" font-size="10.00">CIO WM Driver Declaration</text>
</a>
</g>
</g>
<!-- Node9 -->
<g id="node4" class="node">
<title>Node9</title>
<g id="a_node4"><a xlink:href="group__Write.html" target="_top" xlink:title="Declaration of the CIO WM device write function.">
<polygon fill="white" stroke="black" points="393,-130 311,-130 311,-111 393,-111 393,-130"/>
<text text-anchor="middle" x="352" y="-118" font-family="Helvetica,sans-Serif" font-size="10.00">WM write API</text>
</a>
</g>
</g>
<!-- Node6 -->
<g id="node5" class="node">
<title>Node6</title>
<g id="a_node5"><a xlink:href="group__Read.html" target="_top" xlink:title=" ">
<polygon fill="white" stroke="black" points="409,-93 295,-93 295,-74 409,-74 409,-93"/>
<text text-anchor="middle" x="352" y="-81" font-family="Helvetica,sans-Serif" font-size="10.00">WM device read API</text>
</a>
</g>
</g>
<!-- Node2 -->
<g id="node6" class="node">
<title>Node2</title>
<g id="a_node6"><a xlink:href="group__cio__drivers.html" target="_top" xlink:title=" ">
<polygon fill="white" stroke="black" points="72,-130 0,-130 0,-111 72,-111 72,-130"/>
<text text-anchor="middle" x="36" y="-118" font-family="Helvetica,sans-Serif" font-size="10.00">CIO Drivers</text>
</a>
</g>
</g>
<!-- Node1 -->
<g id="node7" class="node">
<title>Node1</title>
<g id="a_node7"><a xlink:title=" ">
<polygon fill="#bfbfbf" stroke="black" points="242,-130 108,-130 108,-111 242,-111 242,-130"/>
<text text-anchor="middle" x="175" y="-118" font-family="Helvetica,sans-Serif" font-size="10.00">Window Manager Driver</text>
</a>
</g>
</g>
<!-- Node2&#45;&gt;Node1 -->
<g id="edge1" class="edge">
<title>Node2&#45;&gt;Node1</title>
<path fill="none" stroke="black" d="M82.38,-120.5C90.59,-120.5 99.31,-120.5 107.98,-120.5"/>
<polygon fill="black" stroke="black" points="82.28,-117 72.28,-120.5 82.28,-124 82.28,-117"/>
</g>
<!-- Node1&#45;&gt;Node4 -->
<g id="edge3" class="edge">
<title>Node1&#45;&gt;Node4</title>
<path fill="none" stroke="black" d="M190.19,-137.92C208.33,-159.03 241.77,-194.15 278,-213.5 285.71,-217.62 294.39,-220.82 303,-223.29"/>
<polygon fill="black" stroke="black" points="192.71,-135.48 183.59,-130.07 187.35,-139.98 192.71,-135.48"/>
</g>
<!-- Node1&#45;&gt;Node7 -->
<g id="edge6" class="edge">
<title>Node1&#45;&gt;Node7</title>
<path fill="none" stroke="black" d="M199.1,-135.47C219.24,-147.95 249.6,-165.42 278,-176.5 286.39,-179.77 295.56,-182.59 304.48,-184.96"/>
<polygon fill="black" stroke="black" points="200.94,-132.49 190.61,-130.12 197.21,-138.41 200.94,-132.49"/>
</g>
<!-- Node1&#45;&gt;Node3 -->
<g id="edge2" class="edge">
<title>Node1&#45;&gt;Node3</title>
<path fill="none" stroke="black" d="M231.11,-132.15C255.15,-137.23 282.99,-143.12 305.78,-147.94"/>
<polygon fill="black" stroke="black" points="231.57,-128.67 221.07,-130.03 230.13,-135.52 231.57,-128.67"/>
</g>
<!-- Node1&#45;&gt;Node9 -->
<g id="edge8" class="edge">
<title>Node1&#45;&gt;Node9</title>
<path fill="none" stroke="black" d="M252.3,-120.5C272.49,-120.5 293.49,-120.5 310.9,-120.5"/>
<polygon fill="black" stroke="black" points="252.16,-117 242.16,-120.5 252.16,-124 252.16,-117"/>
</g>
<!-- Node1&#45;&gt;Node6 -->
<g id="edge5" class="edge">
<title>Node1&#45;&gt;Node6</title>
<path fill="none" stroke="black" d="M231.11,-108.85C255.15,-103.77 282.99,-97.88 305.78,-93.06"/>
<polygon fill="black" stroke="black" points="230.13,-105.48 221.07,-110.97 231.57,-112.33 230.13,-105.48"/>
</g>
<!-- Node5 -->
<g id="node8" class="node">
<title>Node5</title>
<g id="a_node8"><a xlink:href="group__IOCTL.html" target="_top" xlink:title="CIO Window Manager device ioctl header.">
<polygon fill="white" stroke="black" points="385.5,-56 318.5,-56 318.5,-37 385.5,-37 385.5,-56"/>
<text text-anchor="middle" x="352" y="-44" font-family="Helvetica,sans-Serif" font-size="10.00">WM IOCTL</text>
</a>
</g>
</g>
<!-- Node1&#45;&gt;Node5 -->
<g id="edge4" class="edge">
<title>Node1&#45;&gt;Node5</title>
<path fill="none" stroke="black" d="M199.1,-105.53C219.24,-93.05 249.6,-75.58 278,-64.5 290.89,-59.47 305.62,-55.52 318.46,-52.62"/>
<polygon fill="black" stroke="black" points="197.21,-102.59 190.61,-110.88 200.94,-108.51 197.21,-102.59"/>
</g>
<!-- Node8 -->
<g id="node9" class="node">
<title>Node8</title>
<g id="a_node9"><a xlink:href="group__Main.html" target="_top" xlink:title="Definition of the functions initialising and de&#45;initialising the the CIO WM device.">
<polygon fill="white" stroke="black" points="393,-19 311,-19 311,0 393,0 393,-19"/>
<text text-anchor="middle" x="352" y="-7" font-family="Helvetica,sans-Serif" font-size="10.00">WM main API</text>
</a>
</g>
</g>
<!-- Node1&#45;&gt;Node8 -->
<g id="edge7" class="edge">
<title>Node1&#45;&gt;Node8</title>
<path fill="none" stroke="black" d="M190.19,-103.08C208.33,-81.97 241.77,-46.85 278,-27.5 288.02,-22.15 299.66,-18.36 310.66,-15.68"/>
<polygon fill="black" stroke="black" points="187.35,-101.02 183.59,-110.93 192.71,-105.52 187.35,-101.02"/>
</g>
</g>
</svg>
