<?xml version="1.0" encoding="UTF-8" standalone="no"?>
<!DOCTYPE svg PUBLIC "-//W3C//DTD SVG 1.1//EN"
 "http://www.w3.org/Graphics/SVG/1.1/DTD/svg11.dtd">
<!-- Generated by graphviz version 2.43.0 (0)
 -->
<!-- Title: Drivers Pages: 1 -->
<svg width="203pt" height="582pt"
 viewBox="0.00 0.00 203.00 582.00" xmlns="http://www.w3.org/2000/svg" xmlns:xlink="http://www.w3.org/1999/xlink">
<g id="graph0" class="graph" transform="scale(1 1) rotate(0) translate(4 578)">
<title>Drivers</title>
<polygon fill="white" stroke="transparent" points="-4,4 -4,-578 199,-578 199,4 -4,4"/>
<!-- Node7 -->
<g id="node1" class="node">
<title>Node7</title>
<g id="a_node1"><a xlink:href="group__DUgroup.html" target="_top" xlink:title="Declaration of the DU(Display Unit) driver APIs.">
<polygon fill="white" stroke="black" points="173,-574 110,-574 110,-555 173,-555 173,-574"/>
<text text-anchor="middle" x="141.5" y="-562" font-family="Helvetica,sans-Serif" font-size="10.00">DU driver</text>
</a>
</g>
</g>
<!-- Node12 -->
<g id="node2" class="node">
<title>Node12</title>
<g id="a_node2"><a xlink:href="group__LVDSgroup.html" target="_top" xlink:title="LVDS driver interface for R&#45;Car E3.">
<polygon fill="white" stroke="black" points="178,-537 105,-537 105,-518 178,-518 178,-537"/>
<text text-anchor="middle" x="141.5" y="-525" font-family="Helvetica,sans-Serif" font-size="10.00">LVDS driver</text>
</a>
</g>
</g>
<!-- Node15 -->
<g id="node3" class="node">
<title>Node15</title>
<g id="a_node3"><a xlink:href="group__Tickgroup.html" target="_top" xlink:title="Tick driver interface.">
<polygon fill="white" stroke="black" points="175.5,-500 107.5,-500 107.5,-481 175.5,-481 175.5,-500"/>
<text text-anchor="middle" x="141.5" y="-488" font-family="Helvetica,sans-Serif" font-size="10.00">Tick driver</text>
</a>
</g>
</g>
<!-- Node6 -->
<g id="node4" class="node">
<title>Node6</title>
<g id="a_node4"><a xlink:href="group__DOCgroup.html" target="_top" xlink:title="DOC(Display Output Checker) driver interface.">
<polygon fill="white" stroke="black" points="176.5,-463 106.5,-463 106.5,-444 176.5,-444 176.5,-463"/>
<text text-anchor="middle" x="141.5" y="-451" font-family="Helvetica,sans-Serif" font-size="10.00">DOC driver</text>
</a>
</g>
</g>
<!-- Node1 -->
<g id="node5" class="node">
<title>Node1</title>
<g id="a_node5"><a xlink:title=" ">
<polygon fill="#bfbfbf" stroke="black" points="52,-296 0,-296 0,-277 52,-277 52,-296"/>
<text text-anchor="middle" x="26" y="-284" font-family="Helvetica,sans-Serif" font-size="10.00">Drivers</text>
</a>
</g>
</g>
<!-- Node1&#45;&gt;Node7 -->
<g id="edge6" class="edge">
<title>Node1&#45;&gt;Node7</title>
<path fill="none" stroke="black" d="M29.16,-306.21C35.47,-360.51 55.55,-510.63 88,-546.5 93.75,-552.86 101.85,-556.97 109.97,-559.63"/>
<polygon fill="black" stroke="black" points="32.62,-305.69 28.02,-296.15 25.67,-306.48 32.62,-305.69"/>
</g>
<!-- Node1&#45;&gt;Node12 -->
<g id="edge11" class="edge">
<title>Node1&#45;&gt;Node12</title>
<path fill="none" stroke="black" d="M26.6,-306.23C26.81,-349.05 33.4,-451.33 88,-509.5 92.62,-514.42 98.63,-517.99 104.94,-520.59"/>
<polygon fill="black" stroke="black" points="30.1,-306.05 26.67,-296.03 23.1,-306 30.1,-306.05"/>
</g>
<!-- Node1&#45;&gt;Node15 -->
<g id="edge14" class="edge">
<title>Node1&#45;&gt;Node15</title>
<path fill="none" stroke="black" d="M27.89,-306.25C30.65,-343.78 41.93,-425.8 88,-472.5 93.28,-477.85 100.21,-481.61 107.31,-484.25"/>
<polygon fill="black" stroke="black" points="31.38,-305.89 27.28,-296.12 24.39,-306.31 31.38,-305.89"/>
</g>
<!-- Node1&#45;&gt;Node6 -->
<g id="edge5" class="edge">
<title>Node1&#45;&gt;Node6</title>
<path fill="none" stroke="black" d="M29.77,-306.21C35.24,-337.84 50.33,-399.97 88,-435.5 93.19,-440.39 99.76,-443.96 106.49,-446.56"/>
<polygon fill="black" stroke="black" points="33.18,-305.38 28.17,-296.04 26.27,-306.47 33.18,-305.38"/>
</g>
<!-- Node11 -->
<g id="node6" class="node">
<title>Node11</title>
<g id="a_node6"><a xlink:href="group__IMRgroup.html" target="_top" xlink:title="IMR API driver interface.">
<polygon fill="white" stroke="black" points="175,-426 108,-426 108,-407 175,-407 175,-426"/>
<text text-anchor="middle" x="141.5" y="-414" font-family="Helvetica,sans-Serif" font-size="10.00">IMR driver</text>
</a>
</g>
</g>
<!-- Node1&#45;&gt;Node11 -->
<g id="edge10" class="edge">
<title>Node1&#45;&gt;Node11</title>
<path fill="none" stroke="black" d="M32.67,-305.87C40.92,-330.73 58.53,-373.61 88,-398.5 93.74,-403.35 100.86,-406.91 107.98,-409.53"/>
<polygon fill="black" stroke="black" points="35.95,-304.63 29.62,-296.13 29.27,-306.72 35.95,-304.63"/>
</g>
<!-- Node2 -->
<g id="node7" class="node">
<title>Node2</title>
<g id="a_node7"><a xlink:href="group__AUDIOgroup.html" target="_top" xlink:title="Audio driver interface.">
<polygon fill="white" stroke="black" points="179.5,-389 103.5,-389 103.5,-370 179.5,-370 179.5,-389"/>
<text text-anchor="middle" x="141.5" y="-377" font-family="Helvetica,sans-Serif" font-size="10.00">Audio driver</text>
</a>
</g>
</g>
<!-- Node1&#45;&gt;Node2 -->
<g id="edge1" class="edge">
<title>Node1&#45;&gt;Node2</title>
<path fill="none" stroke="black" d="M37.93,-305.2C48.69,-322.11 66.6,-346.57 88,-361.5 92.82,-364.86 98.32,-367.65 103.91,-369.93"/>
<polygon fill="black" stroke="black" points="40.65,-302.95 32.45,-296.25 34.68,-306.61 40.65,-302.95"/>
</g>
<!-- Node4 -->
<g id="node8" class="node">
<title>Node4</title>
<g id="a_node8"><a xlink:href="group__CSI2group.html" target="_top" xlink:title="CSI2(Camera Serial Interface 2) driver interface.">
<polygon fill="white" stroke="black" points="176.5,-352 106.5,-352 106.5,-333 176.5,-333 176.5,-352"/>
<text text-anchor="middle" x="141.5" y="-340" font-family="Helvetica,sans-Serif" font-size="10.00">CSI2 driver</text>
</a>
</g>
</g>
<!-- Node1&#45;&gt;Node4 -->
<g id="edge3" class="edge">
<title>Node1&#45;&gt;Node4</title>
<path fill="none" stroke="black" d="M48.92,-301.85C60.24,-309.33 74.48,-318.08 88,-324.5 94.61,-327.64 101.93,-330.51 108.94,-332.98"/>
<polygon fill="black" stroke="black" points="50.79,-298.88 40.54,-296.19 46.87,-304.68 50.79,-298.88"/>
</g>
<!-- Node5 -->
<g id="node9" class="node">
<title>Node5</title>
<g id="a_node9"><a xlink:href="group__DCUgroup.html" target="_top" xlink:title="DCU(DeCompression Unit) driver interface.">
<polygon fill="white" stroke="black" points="176.5,-315 106.5,-315 106.5,-296 176.5,-296 176.5,-315"/>
<text text-anchor="middle" x="141.5" y="-303" font-family="Helvetica,sans-Serif" font-size="10.00">DCU driver</text>
</a>
</g>
</g>
<!-- Node1&#45;&gt;Node5 -->
<g id="edge4" class="edge">
<title>Node1&#45;&gt;Node5</title>
<path fill="none" stroke="black" d="M62.43,-292.43C76.44,-294.78 92.46,-297.46 106.34,-299.78"/>
<polygon fill="black" stroke="black" points="62.63,-288.92 52.19,-290.72 61.47,-295.82 62.63,-288.92"/>
</g>
<!-- Node13 -->
<g id="node10" class="node">
<title>Node13</title>
<g id="a_node10"><a xlink:href="group__PRRgroup.html" target="_top" xlink:title="Product Read Register (PRR) driver interface.">
<polygon fill="white" stroke="black" points="175.5,-278 107.5,-278 107.5,-259 175.5,-259 175.5,-278"/>
<text text-anchor="middle" x="141.5" y="-266" font-family="Helvetica,sans-Serif" font-size="10.00">PRR driver</text>
</a>
</g>
</g>
<!-- Node1&#45;&gt;Node13 -->
<g id="edge12" class="edge">
<title>Node1&#45;&gt;Node13</title>
<path fill="none" stroke="black" d="M62.19,-280.92C76.54,-278.64 93.05,-276.03 107.19,-273.78"/>
<polygon fill="black" stroke="black" points="61.52,-277.48 52.19,-282.51 62.61,-284.4 61.52,-277.48"/>
</g>
<!-- Node8 -->
<g id="node11" class="node">
<title>Node8</title>
<g id="a_node11"><a xlink:href="group__gpiogroup.html" target="_top" xlink:title=" ">
<polygon fill="white" stroke="black" points="177.5,-241 105.5,-241 105.5,-222 177.5,-222 177.5,-241"/>
<text text-anchor="middle" x="141.5" y="-229" font-family="Helvetica,sans-Serif" font-size="10.00">GPIO driver</text>
</a>
</g>
</g>
<!-- Node1&#45;&gt;Node8 -->
<g id="edge7" class="edge">
<title>Node1&#45;&gt;Node8</title>
<path fill="none" stroke="black" d="M50.31,-271.36C61.45,-264.49 75.14,-256.56 88,-250.5 95.37,-247.03 103.55,-243.79 111.22,-241.01"/>
<polygon fill="black" stroke="black" points="48.22,-268.54 41.62,-276.83 51.95,-274.47 48.22,-268.54"/>
</g>
<!-- Node16 -->
<g id="node12" class="node">
<title>Node16</title>
<g id="a_node12"><a xlink:href="group__VINgroup.html" target="_top" xlink:title="Video Input driver interface.">
<polygon fill="white" stroke="black" points="174,-204 109,-204 109,-185 174,-185 174,-204"/>
<text text-anchor="middle" x="141.5" y="-192" font-family="Helvetica,sans-Serif" font-size="10.00">VIN driver</text>
</a>
</g>
</g>
<!-- Node1&#45;&gt;Node16 -->
<g id="edge15" class="edge">
<title>Node1&#45;&gt;Node16</title>
<path fill="none" stroke="black" d="M38.45,-267.86C49.37,-251.49 67.19,-228.07 88,-213.5 94.27,-209.11 101.67,-205.62 108.91,-202.89"/>
<polygon fill="black" stroke="black" points="35.32,-266.26 32.85,-276.56 41.21,-270.04 35.32,-266.26"/>
</g>
<!-- Node3 -->
<g id="node13" class="node">
<title>Node3</title>
<g id="a_node13"><a xlink:href="group__CPGgroup.html" target="_top" xlink:title="CPG API (Clock Pulse Generator)">
<polygon fill="white" stroke="black" points="175.5,-167 107.5,-167 107.5,-148 175.5,-148 175.5,-167"/>
<text text-anchor="middle" x="141.5" y="-155" font-family="Helvetica,sans-Serif" font-size="10.00">CPG driver</text>
</a>
</g>
</g>
<!-- Node1&#45;&gt;Node3 -->
<g id="edge2" class="edge">
<title>Node1&#45;&gt;Node3</title>
<path fill="none" stroke="black" d="M32.96,-267.18C41.43,-242.79 59.19,-201.06 88,-176.5 93.61,-171.72 100.51,-168.11 107.45,-165.38"/>
<polygon fill="black" stroke="black" points="29.61,-266.17 29.81,-276.76 36.26,-268.36 29.61,-266.17"/>
</g>
<!-- Node17 -->
<g id="node14" class="node">
<title>Node17</title>
<g id="a_node14"><a xlink:href="group__VSPgroup.html" target="_top" xlink:title="Video Signal Processor (VSP2) driver interface.">
<polygon fill="white" stroke="black" points="178,-130 105,-130 105,-111 178,-111 178,-130"/>
<text text-anchor="middle" x="141.5" y="-118" font-family="Helvetica,sans-Serif" font-size="10.00">VSP2 driver</text>
</a>
</g>
</g>
<!-- Node1&#45;&gt;Node17 -->
<g id="edge16" class="edge">
<title>Node1&#45;&gt;Node17</title>
<path fill="none" stroke="black" d="M30,-266.67C35.74,-235.43 51.16,-174.68 88,-139.5 92.77,-134.95 98.71,-131.47 104.86,-128.83"/>
<polygon fill="black" stroke="black" points="26.52,-266.3 28.3,-276.75 33.42,-267.47 26.52,-266.3"/>
</g>
<!-- Node9 -->
<g id="node15" class="node">
<title>Node9</title>
<g id="a_node15"><a xlink:href="group__HDMIgroup.html" target="_top" xlink:title="HDMI driver interface for R&#45;Car H3, M3, and M3N.">
<polygon fill="white" stroke="black" points="179,-93 104,-93 104,-74 179,-74 179,-93"/>
<text text-anchor="middle" x="141.5" y="-81" font-family="Helvetica,sans-Serif" font-size="10.00">HDMI driver</text>
</a>
</g>
</g>
<!-- Node1&#45;&gt;Node9 -->
<g id="edge8" class="edge">
<title>Node1&#45;&gt;Node9</title>
<path fill="none" stroke="black" d="M28.08,-266.51C31.14,-229.26 42.9,-148.84 88,-102.5 92.39,-97.98 97.94,-94.54 103.77,-91.91"/>
<polygon fill="black" stroke="black" points="24.58,-266.38 27.38,-276.59 31.56,-266.86 24.58,-266.38"/>
</g>
<!-- Node10 -->
<g id="node16" class="node">
<title>Node10</title>
<g id="a_node16"><a xlink:href="group__I2CMaingroup.html" target="_top" xlink:title="I2C driver interface and related decoder drivers.">
<polygon fill="white" stroke="black" points="195,-56 88,-56 88,-37 195,-37 195,-56"/>
<text text-anchor="middle" x="141.5" y="-44" font-family="Helvetica,sans-Serif" font-size="10.00">I2C related drivers</text>
</a>
</g>
</g>
<!-- Node1&#45;&gt;Node10 -->
<g id="edge9" class="edge">
<title>Node1&#45;&gt;Node10</title>
<path fill="none" stroke="black" d="M26.74,-266.43C27.27,-223.78 34.52,-123.31 88,-65.5 91.62,-61.59 96.11,-58.48 100.92,-56.01"/>
<polygon fill="black" stroke="black" points="23.24,-266.62 26.73,-276.62 30.24,-266.63 23.24,-266.62"/>
</g>
<!-- Node14 -->
<g id="node17" class="node">
<title>Node14</title>
<g id="a_node17"><a xlink:href="group__SYSCgroup.html" target="_top" xlink:title="SYSC driver interface.">
<polygon fill="white" stroke="black" points="178,-19 105,-19 105,0 178,0 178,-19"/>
<text text-anchor="middle" x="141.5" y="-7" font-family="Helvetica,sans-Serif" font-size="10.00">SYSC driver</text>
</a>
</g>
</g>
<!-- Node1&#45;&gt;Node14 -->
<g id="edge13" class="edge">
<title>Node1&#45;&gt;Node14</title>
<path fill="none" stroke="black" d="M29.21,-266.97C35.66,-213.16 56.05,-64.35 88,-28.5 92.51,-23.43 98.48,-19.72 104.78,-16.99"/>
<polygon fill="black" stroke="black" points="25.73,-266.6 28.05,-276.94 32.68,-267.41 25.73,-266.6"/>
</g>
</g>
</svg>
