<?xml version="1.0" encoding="UTF-8" standalone="no"?>
<!DOCTYPE svg PUBLIC "-//W3C//DTD SVG 1.1//EN"
 "http://www.w3.org/Graphics/SVG/1.1/DTD/svg11.dtd">
<!-- Generated by graphviz version 2.43.0 (0)
 -->
<!-- Title: User Condifurator Public function definitions (control) Pages: 1 -->
<svg width="355pt" height="49pt"
 viewBox="0.00 0.00 355.00 49.00" xmlns="http://www.w3.org/2000/svg" xmlns:xlink="http://www.w3.org/1999/xlink">
<g id="graph0" class="graph" transform="scale(1 1) rotate(0) translate(4 45)">
<title>User Condifurator Public function definitions (control)</title>
<polygon fill="white" stroke="transparent" points="-4,4 -4,-45 351,-45 351,4 -4,4"/>
<!-- Node2 -->
<g id="node1" class="node">
<title>Node2</title>
<g id="a_node1"><a xlink:href="group__OSAL__WRAPPER__FREERTOS__USR__CFG.html" target="_top" xlink:title=" ">
<polygon fill="white" stroke="black" points="176,-35.5 0,-35.5 0,-5.5 176,-5.5 176,-35.5"/>
<text text-anchor="start" x="8" y="-23.5" font-family="Helvetica,sans-Serif" font-size="10.00">OSAL Wrapper User Configurator</text>
<text text-anchor="middle" x="88" y="-12.5" font-family="Helvetica,sans-Serif" font-size="10.00"> For FREERTOS</text>
</a>
</g>
</g>
<!-- Node1 -->
<g id="node2" class="node">
<title>Node1</title>
<g id="a_node2"><a xlink:title=" ">
<polygon fill="#bfbfbf" stroke="black" points="347,-41 212,-41 212,0 347,0 347,-41"/>
<text text-anchor="start" x="220" y="-29" font-family="Helvetica,sans-Serif" font-size="10.00">User Condifurator Public</text>
<text text-anchor="start" x="220" y="-18" font-family="Helvetica,sans-Serif" font-size="10.00"> function definitions </text>
<text text-anchor="middle" x="279.5" y="-7" font-family="Helvetica,sans-Serif" font-size="10.00">(control)</text>
</a>
</g>
</g>
<!-- Node2&#45;&gt;Node1 -->
<g id="edge1" class="edge">
<title>Node2&#45;&gt;Node1</title>
<path fill="none" stroke="black" d="M186.36,-20.5C194.97,-20.5 203.55,-20.5 211.82,-20.5"/>
<polygon fill="black" stroke="black" points="186.26,-17 176.26,-20.5 186.26,-24 186.26,-17"/>
</g>
</g>
</svg>
