<?xml version="1.0" encoding="UTF-8" standalone="no"?>
<!DOCTYPE svg PUBLIC "-//W3C//DTD SVG 1.1//EN"
 "http://www.w3.org/Graphics/SVG/1.1/DTD/svg11.dtd">
<!-- Generated by graphviz version 2.43.0 (0)
 -->
<!-- Title: CAN&#45;FD Driver main Pages: 1 -->
<svg width="424pt" height="138pt"
 viewBox="0.00 0.00 424.00 138.00" xmlns="http://www.w3.org/2000/svg" xmlns:xlink="http://www.w3.org/1999/xlink">
<g id="graph0" class="graph" transform="scale(1 1) rotate(0) translate(4 134)">
<title>CAN&#45;FD Driver main</title>
<polygon fill="white" stroke="transparent" points="-4,4 -4,-134 420,-134 420,4 -4,4"/>
<!-- Node1 -->
<g id="node1" class="node">
<title>Node1</title>
<g id="a_node1"><a xlink:title="CIO CAN&#45;FD Driver main module.">
<polygon fill="#bfbfbf" stroke="black" points="240,-74 124,-74 124,-55 240,-55 240,-74"/>
<text text-anchor="middle" x="182" y="-62" font-family="Helvetica,sans-Serif" font-size="10.00">CAN&#45;FD Driver main</text>
</a>
</g>
</g>
<!-- Node4 -->
<g id="node3" class="node">
<title>Node4</title>
<g id="a_node3"><a xlink:href="group__canfdmain2.html" target="_top" xlink:title="General bit and register access macros.">
<polygon fill="white" stroke="black" points="413,-130 279,-130 279,-111 413,-111 413,-130"/>
<text text-anchor="middle" x="346" y="-118" font-family="Helvetica,sans-Serif" font-size="10.00">CAN&#45;FD Register access</text>
</a>
</g>
</g>
<!-- Node1&#45;&gt;Node4 -->
<g id="edge3" class="edge">
<title>Node1&#45;&gt;Node4</title>
<path fill="none" stroke="black" d="M213.51,-78.16C231.48,-85.91 254.78,-95.43 276,-102.5 285.16,-105.55 295.15,-108.41 304.6,-110.92"/>
<polygon fill="black" stroke="black" points="214.69,-74.86 204.12,-74.07 211.89,-81.28 214.69,-74.86"/>
</g>
<!-- Node5 -->
<g id="node4" class="node">
<title>Node5</title>
<g id="a_node4"><a xlink:href="group__canfdmain3.html" target="_top" xlink:title="Defines and helpers to get the correct register addres for a given instance and channel.">
<polygon fill="white" stroke="black" points="398,-93 294,-93 294,-74 398,-74 398,-93"/>
<text text-anchor="middle" x="346" y="-81" font-family="Helvetica,sans-Serif" font-size="10.00">CAN&#45;FD Registers</text>
</a>
</g>
</g>
<!-- Node1&#45;&gt;Node5 -->
<g id="edge4" class="edge">
<title>Node1&#45;&gt;Node5</title>
<path fill="none" stroke="black" d="M250.1,-72.37C264.7,-74.08 279.93,-75.87 293.8,-77.49"/>
<polygon fill="black" stroke="black" points="250.45,-68.89 240.12,-71.2 249.64,-75.84 250.45,-68.89"/>
</g>
<!-- Node6 -->
<g id="node5" class="node">
<title>Node6</title>
<g id="a_node5"><a xlink:href="group__canfdmain4.html" target="_top" xlink:title="Macro defines for accessing selected bits of CAN&#45;FD registers.">
<polygon fill="white" stroke="black" points="408.5,-56 283.5,-56 283.5,-37 408.5,-37 408.5,-56"/>
<text text-anchor="middle" x="346" y="-44" font-family="Helvetica,sans-Serif" font-size="10.00">CAN&#45;FD Regsister Bits</text>
</a>
</g>
</g>
<!-- Node1&#45;&gt;Node6 -->
<g id="edge5" class="edge">
<title>Node1&#45;&gt;Node6</title>
<path fill="none" stroke="black" d="M250.13,-57.04C261.17,-55.81 272.56,-54.55 283.45,-53.34"/>
<polygon fill="black" stroke="black" points="249.67,-53.57 240.12,-58.15 250.44,-60.53 249.67,-53.57"/>
</g>
<!-- Node3 -->
<g id="node6" class="node">
<title>Node3</title>
<g id="a_node6"><a xlink:href="group__canfdmain5.html" target="_top" xlink:title="CAN&#45;FD driver configuration.">
<polygon fill="white" stroke="black" points="416,-19 276,-19 276,0 416,0 416,-19"/>
<text text-anchor="middle" x="346" y="-7" font-family="Helvetica,sans-Serif" font-size="10.00">CAN&#45;FD Driver Constants</text>
</a>
</g>
</g>
<!-- Node1&#45;&gt;Node3 -->
<g id="edge2" class="edge">
<title>Node1&#45;&gt;Node3</title>
<path fill="none" stroke="black" d="M214.26,-50.94C232.14,-43.47 255.1,-34.35 276,-27.5 285.29,-24.45 295.42,-21.57 304.98,-19.04"/>
<polygon fill="black" stroke="black" points="212.74,-47.79 204.89,-54.9 215.46,-54.23 212.74,-47.79"/>
</g>
<!-- Node2 -->
<g id="node2" class="node">
<title>Node2</title>
<g id="a_node2"><a xlink:href="group__cio__canfd__driver.html" target="_top" xlink:title=" ">
<polygon fill="white" stroke="black" points="88,-74 0,-74 0,-55 88,-55 88,-74"/>
<text text-anchor="middle" x="44" y="-62" font-family="Helvetica,sans-Serif" font-size="10.00">CAN&#45;FD Driver</text>
</a>
</g>
</g>
<!-- Node2&#45;&gt;Node1 -->
<g id="edge1" class="edge">
<title>Node2&#45;&gt;Node1</title>
<path fill="none" stroke="black" d="M98.12,-64.5C106.55,-64.5 115.3,-64.5 123.82,-64.5"/>
<polygon fill="black" stroke="black" points="98.03,-61 88.03,-64.5 98.03,-68 98.03,-61"/>
</g>
</g>
</svg>
