<?xml version="1.0" encoding="UTF-8" standalone="no"?>
<!DOCTYPE svg PUBLIC "-//W3C//DTD SVG 1.1//EN"
 "http://www.w3.org/Graphics/SVG/1.1/DTD/svg11.dtd">
<!-- Generated by graphviz version 2.43.0 (0)
 -->
<!-- Title: OSAL API Pages: 1 -->
<svg width="346pt" height="372pt"
 viewBox="0.00 0.00 346.00 372.00" xmlns="http://www.w3.org/2000/svg" xmlns:xlink="http://www.w3.org/1999/xlink">
<g id="graph0" class="graph" transform="scale(1 1) rotate(0) translate(4 368)">
<title>OSAL API</title>
<polygon fill="white" stroke="transparent" points="-4,4 -4,-368 342,-368 342,4 -4,4"/>
<!-- Node4 -->
<g id="node1" class="node">
<title>Node4</title>
<g id="a_node1"><a xlink:href="group__OSAL__Clock__Time__Manager.html" target="_top" xlink:title=" ">
<polygon fill="white" stroke="black" points="336,-364 179,-364 179,-345 336,-345 336,-364"/>
<text text-anchor="middle" x="257.5" y="-352" font-family="Helvetica,sans-Serif" font-size="10.00">OSAL Clock &amp; Time Manager</text>
</a>
</g>
</g>
<!-- Node10 -->
<g id="node2" class="node">
<title>Node10</title>
<g id="a_node2"><a xlink:href="group__OSAL__Thread__Manager.html" target="_top" xlink:title=" ">
<polygon fill="white" stroke="black" points="320,-327 195,-327 195,-308 320,-308 320,-327"/>
<text text-anchor="middle" x="257.5" y="-315" font-family="Helvetica,sans-Serif" font-size="10.00">OSAL Thread Manager</text>
</a>
</g>
</g>
<!-- Node1 -->
<g id="node3" class="node">
<title>Node1</title>
<g id="a_node3"><a xlink:title=" ">
<polygon fill="#bfbfbf" stroke="black" points="141,-185 79,-185 79,-166 141,-166 141,-185"/>
<text text-anchor="middle" x="110" y="-173" font-family="Helvetica,sans-Serif" font-size="10.00">OSAL API</text>
</a>
</g>
</g>
<!-- Node1&#45;&gt;Node4 -->
<g id="edge3" class="edge">
<title>Node1&#45;&gt;Node4</title>
<path fill="none" stroke="black" d="M113.27,-195.41C118.26,-229.69 133.49,-299.69 177,-336.5 181,-339.88 185.5,-342.66 190.28,-344.94"/>
<polygon fill="black" stroke="black" points="116.7,-194.72 111.94,-185.26 109.76,-195.63 116.7,-194.72"/>
</g>
<!-- Node1&#45;&gt;Node10 -->
<g id="edge9" class="edge">
<title>Node1&#45;&gt;Node10</title>
<path fill="none" stroke="black" d="M116.07,-195.27C124.18,-222.76 142.75,-272.11 177,-298.5 182.28,-302.57 188.31,-305.79 194.62,-308.33"/>
<polygon fill="black" stroke="black" points="119.35,-193.98 113.3,-185.27 112.6,-195.84 119.35,-193.98"/>
</g>
<!-- Node12 -->
<g id="node4" class="node">
<title>Node12</title>
<g id="a_node4"><a xlink:href="group__OSAL__Message__Queue__Manager.html" target="_top" xlink:title=" ">
<polygon fill="white" stroke="black" points="321.5,-289.5 193.5,-289.5 193.5,-259.5 321.5,-259.5 321.5,-289.5"/>
<text text-anchor="start" x="201.5" y="-277.5" font-family="Helvetica,sans-Serif" font-size="10.00">OSAL_Message_Queue</text>
<text text-anchor="middle" x="257.5" y="-266.5" font-family="Helvetica,sans-Serif" font-size="10.00">_Manager</text>
</a>
</g>
</g>
<!-- Node1&#45;&gt;Node12 -->
<g id="edge11" class="edge">
<title>Node1&#45;&gt;Node12</title>
<path fill="none" stroke="black" d="M122.52,-193.62C134.26,-210.66 153.98,-235.71 177,-250.5 182.34,-253.93 188.19,-256.89 194.22,-259.44"/>
<polygon fill="black" stroke="black" points="125.3,-191.48 116.85,-185.09 119.48,-195.35 125.3,-191.48"/>
</g>
<!-- Node5 -->
<g id="node5" class="node">
<title>Node5</title>
<g id="a_node5"><a xlink:href="group__OSAL__Common__Function.html" target="_top" xlink:title=" ">
<polygon fill="white" stroke="black" points="324.5,-241 190.5,-241 190.5,-222 324.5,-222 324.5,-241"/>
<text text-anchor="middle" x="257.5" y="-229" font-family="Helvetica,sans-Serif" font-size="10.00">OSAL Common Function</text>
</a>
</g>
</g>
<!-- Node1&#45;&gt;Node5 -->
<g id="edge4" class="edge">
<title>Node1&#45;&gt;Node5</title>
<path fill="none" stroke="black" d="M133.51,-190.72C145.89,-198.5 161.79,-207.56 177,-213.5 185.57,-216.85 194.91,-219.66 204.08,-221.98"/>
<polygon fill="black" stroke="black" points="135.1,-187.58 124.8,-185.09 131.3,-193.46 135.1,-187.58"/>
</g>
<!-- Node9 -->
<g id="node6" class="node">
<title>Node9</title>
<g id="a_node6"><a xlink:href="group__OSAL__Power__Manager.html" target="_top" xlink:title=" ">
<polygon fill="white" stroke="black" points="318.5,-204 196.5,-204 196.5,-185 318.5,-185 318.5,-204"/>
<text text-anchor="middle" x="257.5" y="-192" font-family="Helvetica,sans-Serif" font-size="10.00">OSAL Power Manager</text>
</a>
</g>
</g>
<!-- Node1&#45;&gt;Node9 -->
<g id="edge8" class="edge">
<title>Node1&#45;&gt;Node9</title>
<path fill="none" stroke="black" d="M151.37,-180.77C165.29,-182.59 181.21,-184.67 196.37,-186.65"/>
<polygon fill="black" stroke="black" points="151.52,-177.26 141.15,-179.44 150.61,-184.2 151.52,-177.26"/>
</g>
<!-- Node3 -->
<g id="node8" class="node">
<title>Node3</title>
<g id="a_node8"><a xlink:href="group__group7.html" target="_top" xlink:title=" ">
<polygon fill="white" stroke="black" points="319.5,-167 195.5,-167 195.5,-148 319.5,-148 319.5,-167"/>
<text text-anchor="middle" x="257.5" y="-155" font-family="Helvetica,sans-Serif" font-size="10.00">OSAL Cache functions</text>
</a>
</g>
</g>
<!-- Node1&#45;&gt;Node3 -->
<g id="edge2" class="edge">
<title>Node1&#45;&gt;Node3</title>
<path fill="none" stroke="black" d="M151.2,-170.53C164.89,-168.83 180.53,-166.9 195.48,-165.05"/>
<polygon fill="black" stroke="black" points="150.64,-167.07 141.15,-171.77 151.5,-174.02 150.64,-167.07"/>
</g>
<!-- Node8 -->
<g id="node9" class="node">
<title>Node8</title>
<g id="a_node9"><a xlink:href="group__OSAL__Memory__Manager.html" target="_top" xlink:title=" ">
<polygon fill="white" stroke="black" points="323.5,-130 191.5,-130 191.5,-111 323.5,-111 323.5,-130"/>
<text text-anchor="middle" x="257.5" y="-118" font-family="Helvetica,sans-Serif" font-size="10.00">OSAL Memory Manager</text>
</a>
</g>
</g>
<!-- Node1&#45;&gt;Node8 -->
<g id="edge7" class="edge">
<title>Node1&#45;&gt;Node8</title>
<path fill="none" stroke="black" d="M134.05,-160.41C146.37,-152.91 162.05,-144.24 177,-138.5 185.59,-135.2 194.94,-132.42 204.11,-130.1"/>
<polygon fill="black" stroke="black" points="131.97,-157.58 125.34,-165.85 135.68,-163.52 131.97,-157.58"/>
</g>
<!-- Node11 -->
<g id="node10" class="node">
<title>Node11</title>
<g id="a_node10"><a xlink:href="group__OSAL__Thread__Synchronization.html" target="_top" xlink:title=" ">
<polygon fill="white" stroke="black" points="338,-93 177,-93 177,-74 338,-74 338,-93"/>
<text text-anchor="middle" x="257.5" y="-81" font-family="Helvetica,sans-Serif" font-size="10.00">OSAL Thread Synchronization</text>
</a>
</g>
</g>
<!-- Node1&#45;&gt;Node11 -->
<g id="edge10" class="edge">
<title>Node1&#45;&gt;Node11</title>
<path fill="none" stroke="black" d="M122.36,-157.27C133.97,-140.19 153.6,-115.29 177,-101.5 182.85,-98.05 189.3,-95.26 195.93,-93.01"/>
<polygon fill="black" stroke="black" points="119.3,-155.55 116.76,-165.83 125.16,-159.38 119.3,-155.55"/>
</g>
<!-- Node7 -->
<g id="node11" class="node">
<title>Node7</title>
<g id="a_node11"><a xlink:href="group__OSAL__Interrupt__Manager.html" target="_top" xlink:title=" ">
<polygon fill="white" stroke="black" points="324.5,-56 190.5,-56 190.5,-37 324.5,-37 324.5,-56"/>
<text text-anchor="middle" x="257.5" y="-44" font-family="Helvetica,sans-Serif" font-size="10.00">OSAL Interrupt Manager</text>
</a>
</g>
</g>
<!-- Node1&#45;&gt;Node7 -->
<g id="edge6" class="edge">
<title>Node1&#45;&gt;Node7</title>
<path fill="none" stroke="black" d="M116.98,-156.5C125.88,-131.4 145.1,-87.68 177,-64.5 181.69,-61.09 186.92,-58.31 192.4,-56.04"/>
<polygon fill="black" stroke="black" points="113.65,-155.41 113.78,-166 120.29,-157.64 113.65,-155.41"/>
</g>
<!-- Node6 -->
<g id="node12" class="node">
<title>Node6</title>
<g id="a_node12"><a xlink:href="group__OSAL__IO__Manager.html" target="_top" xlink:title=" ">
<polygon fill="white" stroke="black" points="310,-19 205,-19 205,0 310,0 310,-19"/>
<text text-anchor="middle" x="257.5" y="-7" font-family="Helvetica,sans-Serif" font-size="10.00">OSAL I/O Manager</text>
</a>
</g>
</g>
<!-- Node1&#45;&gt;Node6 -->
<g id="edge5" class="edge">
<title>Node1&#45;&gt;Node6</title>
<path fill="none" stroke="black" d="M114.02,-155.83C120.02,-123.82 136.53,-60.7 177,-27.5 184.99,-20.95 194.88,-16.67 204.95,-13.9"/>
<polygon fill="black" stroke="black" points="110.56,-155.31 112.32,-165.76 117.46,-156.49 110.56,-155.31"/>
</g>
<!-- Node2 -->
<g id="node7" class="node">
<title>Node2</title>
<g id="a_node7"><a xlink:href="group__osal.html" target="_top" xlink:title=" ">
<polygon fill="white" stroke="black" points="43,-185 0,-185 0,-166 43,-166 43,-185"/>
<text text-anchor="middle" x="21.5" y="-173" font-family="Helvetica,sans-Serif" font-size="10.00">OSAL</text>
</a>
</g>
</g>
<!-- Node2&#45;&gt;Node1 -->
<g id="edge1" class="edge">
<title>Node2&#45;&gt;Node1</title>
<path fill="none" stroke="black" d="M53.7,-175.5C61.87,-175.5 70.66,-175.5 78.77,-175.5"/>
<polygon fill="black" stroke="black" points="53.44,-172 43.44,-175.5 53.44,-179 53.44,-172"/>
</g>
</g>
</svg>
