<?xml version="1.0" encoding="UTF-8" standalone="no"?>
<!DOCTYPE svg PUBLIC "-//W3C//DTD SVG 1.1//EN"
 "http://www.w3.org/Graphics/SVG/1.1/DTD/svg11.dtd">
<!-- Generated by graphviz version 2.43.0 (0)
 -->
<!-- Title: Middleware Pages: 1 -->
<svg width="219pt" height="64pt"
 viewBox="0.00 0.00 219.00 64.00" xmlns="http://www.w3.org/2000/svg" xmlns:xlink="http://www.w3.org/1999/xlink">
<g id="graph0" class="graph" transform="scale(1 1) rotate(0) translate(4 60)">
<title>Middleware</title>
<polygon fill="white" stroke="transparent" points="-4,4 -4,-60 215,-60 215,4 -4,4"/>
<!-- Node2 -->
<g id="node1" class="node">
<title>Node2</title>
<g id="a_node1"><a xlink:href="group__middleware__libraries.html" target="_top" xlink:title=" ">
<polygon fill="white" stroke="black" points="190,-56 131,-56 131,-37 190,-37 190,-56"/>
<text text-anchor="middle" x="160.5" y="-44" font-family="Helvetica,sans-Serif" font-size="10.00">Libraries</text>
</a>
</g>
</g>
<!-- Node3 -->
<g id="node2" class="node">
<title>Node3</title>
<g id="a_node2"><a xlink:href="group__middleware__wm.html" target="_top" xlink:title=" ">
<polygon fill="white" stroke="black" points="211,-19 110,-19 110,0 211,0 211,-19"/>
<text text-anchor="middle" x="160.5" y="-7" font-family="Helvetica,sans-Serif" font-size="10.00">Window Manager</text>
</a>
</g>
</g>
<!-- Node1 -->
<g id="node3" class="node">
<title>Node1</title>
<g id="a_node3"><a xlink:title=" ">
<polygon fill="#bfbfbf" stroke="black" points="74,-37 0,-37 0,-18 74,-18 74,-37"/>
<text text-anchor="middle" x="37" y="-25" font-family="Helvetica,sans-Serif" font-size="10.00">Middleware</text>
</a>
</g>
</g>
<!-- Node1&#45;&gt;Node2 -->
<g id="edge1" class="edge">
<title>Node1&#45;&gt;Node2</title>
<path fill="none" stroke="black" d="M84.14,-34.72C99.76,-37.16 116.75,-39.82 130.64,-41.99"/>
<polygon fill="black" stroke="black" points="84.55,-31.24 74.13,-33.15 83.46,-38.15 84.55,-31.24"/>
</g>
<!-- Node1&#45;&gt;Node3 -->
<g id="edge2" class="edge">
<title>Node1&#45;&gt;Node3</title>
<path fill="none" stroke="black" d="M84.12,-20.67C92.51,-19.42 101.3,-18.12 109.8,-16.86"/>
<polygon fill="black" stroke="black" points="83.5,-17.22 74.13,-22.15 84.53,-24.14 83.5,-17.22"/>
</g>
</g>
</svg>
