<?xml version="1.0" encoding="UTF-8" standalone="no"?>
<!DOCTYPE svg PUBLIC "-//W3C//DTD SVG 1.1//EN"
 "http://www.w3.org/Graphics/SVG/1.1/DTD/svg11.dtd">
<!-- Generated by graphviz version 2.43.0 (0)
 -->
<!-- Title: WM User Mode Lib Pages: 1 -->
<svg width="410pt" height="64pt"
 viewBox="0.00 0.00 410.00 64.00" xmlns="http://www.w3.org/2000/svg" xmlns:xlink="http://www.w3.org/1999/xlink">
<g id="graph0" class="graph" transform="scale(1 1) rotate(0) translate(4 60)">
<title>WM User Mode Lib</title>
<polygon fill="white" stroke="transparent" points="-4,4 -4,-60 406,-60 406,4 -4,4"/>
<!-- Node1 -->
<g id="node1" class="node">
<title>Node1</title>
<g id="a_node1"><a xlink:title="Description of the WM public types and User API.">
<polygon fill="#bfbfbf" stroke="black" points="245,-37 137,-37 137,-18 245,-18 245,-37"/>
<text text-anchor="middle" x="191" y="-25" font-family="Helvetica,sans-Serif" font-size="10.00">WM User Mode Lib</text>
</a>
</g>
</g>
<!-- Node3 -->
<g id="node2" class="node">
<title>Node3</title>
<g id="a_node2"><a xlink:href="group__PublicFunc.html" target="_top" xlink:title="WM User API descriptions.">
<polygon fill="white" stroke="black" points="381.5,-56 301.5,-56 301.5,-37 381.5,-37 381.5,-56"/>
<text text-anchor="middle" x="341.5" y="-44" font-family="Helvetica,sans-Serif" font-size="10.00">WM User API</text>
</a>
</g>
</g>
<!-- Node1&#45;&gt;Node3 -->
<g id="edge2" class="edge">
<title>Node1&#45;&gt;Node3</title>
<path fill="none" stroke="black" d="M255.31,-35.6C270.89,-37.59 287.12,-39.67 301.19,-41.47"/>
<polygon fill="black" stroke="black" points="255.56,-32.1 245.19,-34.31 254.67,-39.05 255.56,-32.1"/>
</g>
<!-- Node4 -->
<g id="node3" class="node">
<title>Node4</title>
<g id="a_node3"><a xlink:href="group__PublicTypes.html" target="_top" xlink:title="Wm Public Type definitions.">
<polygon fill="white" stroke="black" points="402,-19 281,-19 281,0 402,0 402,-19"/>
<text text-anchor="middle" x="341.5" y="-7" font-family="Helvetica,sans-Serif" font-size="10.00">WM User Mode types</text>
</a>
</g>
</g>
<!-- Node1&#45;&gt;Node4 -->
<g id="edge3" class="edge">
<title>Node1&#45;&gt;Node4</title>
<path fill="none" stroke="black" d="M255.38,-19.82C263.84,-18.79 272.48,-17.74 280.87,-16.73"/>
<polygon fill="black" stroke="black" points="254.7,-16.37 245.19,-21.05 255.54,-23.32 254.7,-16.37"/>
</g>
<!-- Node2 -->
<g id="node4" class="node">
<title>Node2</title>
<g id="a_node4"><a xlink:href="group__middleware__wm.html" target="_top" xlink:title=" ">
<polygon fill="white" stroke="black" points="101,-37 0,-37 0,-18 101,-18 101,-37"/>
<text text-anchor="middle" x="50.5" y="-25" font-family="Helvetica,sans-Serif" font-size="10.00">Window Manager</text>
</a>
</g>
</g>
<!-- Node2&#45;&gt;Node1 -->
<g id="edge1" class="edge">
<title>Node2&#45;&gt;Node1</title>
<path fill="none" stroke="black" d="M111.37,-27.5C119.9,-27.5 128.61,-27.5 136.99,-27.5"/>
<polygon fill="black" stroke="black" points="111.11,-24 101.11,-27.5 111.11,-31 111.11,-24"/>
</g>
</g>
</svg>
