<?xml version="1.0" encoding="UTF-8" standalone="no"?>
<!DOCTYPE svg PUBLIC "-//W3C//DTD SVG 1.1//EN"
 "http://www.w3.org/Graphics/SVG/1.1/DTD/svg11.dtd">
<!-- Generated by graphviz version 2.43.0 (0)
 -->
<!-- Title: WM driver API Pages: 1 -->
<svg width="382pt" height="64pt"
 viewBox="0.00 0.00 382.00 64.00" xmlns="http://www.w3.org/2000/svg" xmlns:xlink="http://www.w3.org/1999/xlink">
<g id="graph0" class="graph" transform="scale(1 1) rotate(0) translate(4 60)">
<title>WM driver API</title>
<polygon fill="white" stroke="transparent" points="-4,4 -4,-60 378,-60 378,4 -4,4"/>
<!-- Node3 -->
<g id="node1" class="node">
<title>Node3</title>
<g id="a_node1"><a xlink:href="group__WMDrvfn.html" target="_top" xlink:title="WM driver API functions.">
<polygon fill="white" stroke="black" points="374,-56 259,-56 259,-37 374,-37 374,-56"/>
<text text-anchor="middle" x="316.5" y="-44" font-family="Helvetica,sans-Serif" font-size="10.00">WM driver functions</text>
</a>
</g>
</g>
<!-- Node1 -->
<g id="node2" class="node">
<title>Node1</title>
<g id="a_node2"><a xlink:title="WM Driver public interface.">
<polygon fill="#bfbfbf" stroke="black" points="223,-37 137,-37 137,-18 223,-18 223,-37"/>
<text text-anchor="middle" x="180" y="-25" font-family="Helvetica,sans-Serif" font-size="10.00">WM driver API</text>
</a>
</g>
</g>
<!-- Node1&#45;&gt;Node3 -->
<g id="edge2" class="edge">
<title>Node1&#45;&gt;Node3</title>
<path fill="none" stroke="black" d="M233.18,-34.87C241.53,-36.05 250.21,-37.28 258.67,-38.47"/>
<polygon fill="black" stroke="black" points="233.58,-31.39 223.19,-33.46 232.6,-38.32 233.58,-31.39"/>
</g>
<!-- Node4 -->
<g id="node3" class="node">
<title>Node4</title>
<g id="a_node3"><a xlink:href="group__WMDrvTypes.html" target="_top" xlink:title="Types and macros of the WM Driver lib.">
<polygon fill="white" stroke="black" points="365,-19 268,-19 268,0 365,0 365,-19"/>
<text text-anchor="middle" x="316.5" y="-7" font-family="Helvetica,sans-Serif" font-size="10.00">WM driver types</text>
</a>
</g>
</g>
<!-- Node1&#45;&gt;Node4 -->
<g id="edge3" class="edge">
<title>Node1&#45;&gt;Node4</title>
<path fill="none" stroke="black" d="M233.4,-20.49C244.75,-18.97 256.69,-17.37 267.84,-15.88"/>
<polygon fill="black" stroke="black" points="232.63,-17.06 223.19,-21.85 233.56,-24 232.63,-17.06"/>
</g>
<!-- Node2 -->
<g id="node4" class="node">
<title>Node2</title>
<g id="a_node4"><a xlink:href="group__middleware__wm.html" target="_top" xlink:title=" ">
<polygon fill="white" stroke="black" points="101,-37 0,-37 0,-18 101,-18 101,-37"/>
<text text-anchor="middle" x="50.5" y="-25" font-family="Helvetica,sans-Serif" font-size="10.00">Window Manager</text>
</a>
</g>
</g>
<!-- Node2&#45;&gt;Node1 -->
<g id="edge1" class="edge">
<title>Node2&#45;&gt;Node1</title>
<path fill="none" stroke="black" d="M111.19,-27.5C119.81,-27.5 128.53,-27.5 136.71,-27.5"/>
<polygon fill="black" stroke="black" points="111.16,-24 101.16,-27.5 111.16,-31 111.16,-24"/>
</g>
</g>
</svg>
