<?xml version="1.0" encoding="UTF-8" standalone="no"?>
<!DOCTYPE svg PUBLIC "-//W3C//DTD SVG 1.1//EN"
 "http://www.w3.org/Graphics/SVG/1.1/DTD/svg11.dtd">
<!-- Generated by graphviz version 2.43.0 (0)
 -->
<!-- Title: TAURUS Pages: 1 -->
<svg width="267pt" height="354pt"
 viewBox="0.00 0.00 267.00 354.00" xmlns="http://www.w3.org/2000/svg" xmlns:xlink="http://www.w3.org/1999/xlink">
<g id="graph0" class="graph" transform="scale(1 1) rotate(0) translate(4 350)">
<title>TAURUS</title>
<polygon fill="white" stroke="transparent" points="-4,4 -4,-350 263,-350 263,4 -4,4"/>
<!-- Node1 -->
<g id="node1" class="node">
<title>Node1</title>
<g id="a_node1"><a xlink:title=" ">
<polygon fill="#bfbfbf" stroke="black" points="56,-182.5 0,-182.5 0,-163.5 56,-163.5 56,-182.5"/>
<text text-anchor="middle" x="28" y="-170.5" font-family="Helvetica,sans-Serif" font-size="10.00">TAURUS</text>
</a>
</g>
</g>
<!-- Node2 -->
<g id="node2" class="node">
<title>Node2</title>
<g id="a_node2"><a xlink:href="group__group2__taurus__can.html" target="_top" xlink:title=" ">
<polygon fill="white" stroke="black" points="248.5,-346 102.5,-346 102.5,-316 248.5,-316 248.5,-346"/>
<text text-anchor="start" x="110.5" y="-334" font-family="Helvetica,sans-Serif" font-size="10.00">Taurus CAN server internal</text>
<text text-anchor="middle" x="175.5" y="-323" font-family="Helvetica,sans-Serif" font-size="10.00"> protocol commands</text>
</a>
</g>
</g>
<!-- Node1&#45;&gt;Node2 -->
<g id="edge1" class="edge">
<title>Node1&#45;&gt;Node2</title>
<path fill="none" stroke="black" d="M32.86,-192.6C39.64,-221.83 56.48,-276.64 92,-307 95.97,-310.39 100.39,-313.31 105.08,-315.81"/>
<polygon fill="black" stroke="black" points="36.26,-191.8 30.74,-182.76 29.42,-193.27 36.26,-191.8"/>
</g>
<!-- Node6 -->
<g id="node3" class="node">
<title>Node6</title>
<g id="a_node3"><a xlink:href="group__group1__taurus__camera.html" target="_top" xlink:title="This Cortex&#45;R7 Taurus Camera server is a part of the Taurus firmware.">
<polygon fill="white" stroke="black" points="237,-298 114,-298 114,-268 237,-268 237,-298"/>
<text text-anchor="start" x="122" y="-286" font-family="Helvetica,sans-Serif" font-size="10.00">Taurus Camera server</text>
<text text-anchor="middle" x="175.5" y="-275" font-family="Helvetica,sans-Serif" font-size="10.00"> public library API</text>
</a>
</g>
</g>
<!-- Node1&#45;&gt;Node6 -->
<g id="edge5" class="edge">
<title>Node1&#45;&gt;Node6</title>
<path fill="none" stroke="black" d="M38.02,-191.77C48.39,-211.38 67.21,-241.64 92,-259 98.6,-263.62 106.08,-267.36 113.79,-270.38"/>
<polygon fill="black" stroke="black" points="41.03,-189.96 33.39,-182.62 34.78,-193.12 41.03,-189.96"/>
</g>
<!-- Node3 -->
<g id="node4" class="node">
<title>Node3</title>
<g id="a_node4"><a xlink:href="group__group3.html" target="_top" xlink:title=" ">
<polygon fill="white" stroke="black" points="259,-249.5 92,-249.5 92,-230.5 259,-230.5 259,-249.5"/>
<text text-anchor="middle" x="175.5" y="-237.5" font-family="Helvetica,sans-Serif" font-size="10.00">Taurus CAN server protocol API</text>
</a>
</g>
</g>
<!-- Node1&#45;&gt;Node3 -->
<g id="edge2" class="edge">
<title>Node1&#45;&gt;Node3</title>
<path fill="none" stroke="black" d="M46.26,-189.4C58.23,-199.91 75.01,-213.03 92,-221 100.25,-224.87 109.34,-227.98 118.39,-230.47"/>
<polygon fill="black" stroke="black" points="48.56,-186.76 38.8,-182.64 43.86,-191.95 48.56,-186.76"/>
</g>
<!-- Node7 -->
<g id="node5" class="node">
<title>Node7</title>
<g id="a_node5"><a xlink:href="group__group1__taurus__eth.html" target="_top" xlink:title="This Cortex&#45;R7 Taurus ETHER server is a part of the Taurus firmware.">
<polygon fill="white" stroke="black" points="234,-212 117,-212 117,-182 234,-182 234,-212"/>
<text text-anchor="start" x="125" y="-200" font-family="Helvetica,sans-Serif" font-size="10.00">Taurus ETHER server</text>
<text text-anchor="middle" x="175.5" y="-189" font-family="Helvetica,sans-Serif" font-size="10.00"> public library API</text>
</a>
</g>
</g>
<!-- Node1&#45;&gt;Node7 -->
<g id="edge6" class="edge">
<title>Node1&#45;&gt;Node7</title>
<path fill="none" stroke="black" d="M66.19,-179.13C81.59,-181.68 99.82,-184.68 116.88,-187.5"/>
<polygon fill="black" stroke="black" points="66.46,-175.63 56.03,-177.46 65.32,-182.54 66.46,-175.63"/>
</g>
<!-- Node5 -->
<g id="node6" class="node">
<title>Node5</title>
<g id="a_node6"><a xlink:href="group__group2__taurus__camera.html" target="_top" xlink:title=" ">
<polygon fill="white" stroke="black" points="254,-164 97,-164 97,-134 254,-134 254,-164"/>
<text text-anchor="start" x="105" y="-152" font-family="Helvetica,sans-Serif" font-size="10.00">Taurus Camera server</text>
<text text-anchor="middle" x="175.5" y="-141" font-family="Helvetica,sans-Serif" font-size="10.00"> internal protocol commands</text>
</a>
</g>
</g>
<!-- Node1&#45;&gt;Node5 -->
<g id="edge4" class="edge">
<title>Node1&#45;&gt;Node5</title>
<path fill="none" stroke="black" d="M65.91,-166.91C75.46,-165.34 86.11,-163.58 96.9,-161.8"/>
<polygon fill="black" stroke="black" points="65.32,-163.46 56.03,-168.54 66.46,-170.37 65.32,-163.46"/>
</g>
<!-- Node8 -->
<g id="node7" class="node">
<title>Node8</title>
<g id="a_node7"><a xlink:href="group__taurus__protocol.html" target="_top" xlink:title=" ">
<polygon fill="white" stroke="black" points="230.5,-115.5 120.5,-115.5 120.5,-96.5 230.5,-96.5 230.5,-115.5"/>
<text text-anchor="middle" x="175.5" y="-103.5" font-family="Helvetica,sans-Serif" font-size="10.00">Taurus Protocol IDs</text>
</a>
</g>
</g>
<!-- Node1&#45;&gt;Node8 -->
<g id="edge7" class="edge">
<title>Node1&#45;&gt;Node8</title>
<path fill="none" stroke="black" d="M46.26,-156.6C58.23,-146.09 75.01,-132.97 92,-125 100.78,-120.88 110.52,-117.62 120.14,-115.05"/>
<polygon fill="black" stroke="black" points="43.86,-154.05 38.8,-163.36 48.56,-159.24 43.86,-154.05"/>
</g>
<!-- Node4 -->
<g id="node8" class="node">
<title>Node4</title>
<g id="a_node8"><a xlink:href="group__group1__taurus__can.html" target="_top" xlink:title="This Cortex&#45;R7 Taurus CAN server is a part of the Taurus firmware.">
<polygon fill="white" stroke="black" points="244.5,-78 106.5,-78 106.5,-48 244.5,-48 244.5,-78"/>
<text text-anchor="start" x="114.5" y="-66" font-family="Helvetica,sans-Serif" font-size="10.00">Taurus CAN server public</text>
<text text-anchor="middle" x="175.5" y="-55" font-family="Helvetica,sans-Serif" font-size="10.00"> library API</text>
</a>
</g>
</g>
<!-- Node1&#45;&gt;Node4 -->
<g id="edge3" class="edge">
<title>Node1&#45;&gt;Node4</title>
<path fill="none" stroke="black" d="M38.28,-154.2C48.76,-134.86 67.57,-105.2 92,-88 97.51,-84.12 103.63,-80.83 109.97,-78.05"/>
<polygon fill="black" stroke="black" points="35.08,-152.76 33.57,-163.25 41.29,-155.99 35.08,-152.76"/>
</g>
<!-- Node9 -->
<g id="node9" class="node">
<title>Node9</title>
<g id="a_node9"><a xlink:href="group__group1__taurus__rvgc.html" target="_top" xlink:title="This Cortex&#45;R7 Taurus RVGC server is a part of the Taurus firmware.">
<polygon fill="white" stroke="black" points="232,-30 119,-30 119,0 232,0 232,-30"/>
<text text-anchor="start" x="127" y="-18" font-family="Helvetica,sans-Serif" font-size="10.00">Taurus RVGC server</text>
<text text-anchor="middle" x="175.5" y="-7" font-family="Helvetica,sans-Serif" font-size="10.00"> public library API</text>
</a>
</g>
</g>
<!-- Node1&#45;&gt;Node9 -->
<g id="edge8" class="edge">
<title>Node1&#45;&gt;Node9</title>
<path fill="none" stroke="black" d="M32.86,-153.4C39.64,-124.17 56.48,-69.36 92,-39 99.71,-32.41 109.15,-27.63 118.85,-24.16"/>
<polygon fill="black" stroke="black" points="29.42,-152.73 30.74,-163.24 36.26,-154.2 29.42,-152.73"/>
</g>
</g>
</svg>
