<?xml version="1.0" encoding="UTF-8" standalone="no"?>
<!DOCTYPE svg PUBLIC "-//W3C//DTD SVG 1.1//EN"
 "http://www.w3.org/Graphics/SVG/1.1/DTD/svg11.dtd">
<!-- Generated by graphviz version 2.43.0 (0)
 -->
<!-- Title: User Configurator Public type definitions (control) Pages: 1 -->
<svg width="671pt" height="91pt"
 viewBox="0.00 0.00 671.00 91.00" xmlns="http://www.w3.org/2000/svg" xmlns:xlink="http://www.w3.org/1999/xlink">
<g id="graph0" class="graph" transform="scale(1 1) rotate(0) translate(4 87)">
<title>User Configurator Public type definitions (control)</title>
<polygon fill="white" stroke="transparent" points="-4,4 -4,-87 667,-87 667,4 -4,4"/>
<!-- Node2 -->
<g id="node1" class="node">
<title>Node2</title>
<g id="a_node1"><a xlink:href="group__OSAL__WRAPPER__FREERTOS__USR__CFG.html" target="_top" xlink:title=" ">
<polygon fill="white" stroke="black" points="176,-78 0,-78 0,-48 176,-48 176,-78"/>
<text text-anchor="start" x="8" y="-66" font-family="Helvetica,sans-Serif" font-size="10.00">OSAL Wrapper User Configurator</text>
<text text-anchor="middle" x="88" y="-55" font-family="Helvetica,sans-Serif" font-size="10.00"> For FREERTOS</text>
</a>
</g>
</g>
<!-- Node1 -->
<g id="node3" class="node">
<title>Node1</title>
<g id="a_node3"><a xlink:title=" ">
<polygon fill="#bfbfbf" stroke="black" points="353,-54 213,-54 213,-24 353,-24 353,-54"/>
<text text-anchor="start" x="221" y="-42" font-family="Helvetica,sans-Serif" font-size="10.00">User Configurator Public</text>
<text text-anchor="middle" x="283" y="-31" font-family="Helvetica,sans-Serif" font-size="10.00"> type definitions (control)</text>
</a>
</g>
</g>
<!-- Node2&#45;&gt;Node1 -->
<g id="edge1" class="edge">
<title>Node2&#45;&gt;Node1</title>
<path fill="none" stroke="black" d="M186.29,-50.9C195.26,-49.79 204.21,-48.67 212.85,-47.6"/>
<polygon fill="black" stroke="black" points="185.67,-47.45 176.18,-52.16 186.54,-54.4 185.67,-47.45"/>
</g>
<!-- Node3 -->
<g id="node2" class="node">
<title>Node3</title>
<g id="a_node2"><a xlink:href="group__OSAL__WRAPPER__AUTOSAR__USR__CFG.html" target="_top" xlink:title=" ">
<polygon fill="white" stroke="black" points="176,-30 0,-30 0,0 176,0 176,-30"/>
<text text-anchor="start" x="8" y="-18" font-family="Helvetica,sans-Serif" font-size="10.00">OSAL Wrapper User Configurator</text>
<text text-anchor="middle" x="88" y="-7" font-family="Helvetica,sans-Serif" font-size="10.00"> For AUTOSAR</text>
</a>
</g>
</g>
<!-- Node3&#45;&gt;Node1 -->
<g id="edge2" class="edge">
<title>Node3&#45;&gt;Node1</title>
<path fill="none" stroke="black" d="M186.29,-27.1C195.26,-28.21 204.21,-29.33 212.85,-30.4"/>
<polygon fill="black" stroke="black" points="186.54,-23.6 176.18,-25.84 185.67,-30.55 186.54,-23.6"/>
</g>
<!-- Node4 -->
<g id="node4" class="node">
<title>Node4</title>
<g id="a_node4"><a xlink:href="group__OSAL__GENERIC__TYPES.html" target="_top" xlink:title=" ">
<polygon fill="white" stroke="black" points="663,-48.5 500,-48.5 500,-29.5 663,-29.5 663,-48.5"/>
<text text-anchor="middle" x="581.5" y="-36.5" font-family="Helvetica,sans-Serif" font-size="10.00">OSAL Generic Type definitions</text>
</a>
</g>
</g>
<!-- Node1&#45;&gt;Node4 -->
<g id="edge3" class="edge">
<title>Node1&#45;&gt;Node4</title>
<path fill="none" stroke="orange" stroke-dasharray="5,2" d="M353.14,-39C397.03,-39 454.01,-39 499.94,-39"/>
<text text-anchor="middle" x="426.5" y="-75" font-family="Helvetica,sans-Serif" font-size="10.00">st_osal_thread_control</text>
<text text-anchor="middle" x="426.5" y="-64" font-family="Helvetica,sans-Serif" font-size="10.00">st_osal_mutex_control</text>
<text text-anchor="middle" x="426.5" y="-53" font-family="Helvetica,sans-Serif" font-size="10.00">st_osal_cond_control</text>
<text text-anchor="middle" x="426.5" y="-42" font-family="Helvetica,sans-Serif" font-size="10.00">st_osal_mq_control</text>
</g>
</g>
</svg>
