<?xml version="1.0" encoding="UTF-8" standalone="no"?>
<!DOCTYPE svg PUBLIC "-//W3C//DTD SVG 1.1//EN"
 "http://www.w3.org/Graphics/SVG/1.1/DTD/svg11.dtd">
<!-- Generated by graphviz version 2.43.0 (0)
 -->
<!-- Title: Device Configurator Public Enumration (info) Pages: 1 -->
<svg width="332pt" height="86pt"
 viewBox="0.00 0.00 332.00 86.00" xmlns="http://www.w3.org/2000/svg" xmlns:xlink="http://www.w3.org/1999/xlink">
<g id="graph0" class="graph" transform="scale(1 1) rotate(0) translate(4 82)">
<title>Device Configurator Public Enumration (info)</title>
<polygon fill="white" stroke="transparent" points="-4,4 -4,-82 328,-82 328,4 -4,4"/>
<!-- Node2 -->
<g id="node1" class="node">
<title>Node2</title>
<g id="a_node1"><a xlink:href="group__OSAL__WRAPPER__FREERTOS__DEV__CFG.html" target="_top" xlink:title=" ">
<polygon fill="white" stroke="black" points="151,-78 0,-78 0,-48 151,-48 151,-78"/>
<text text-anchor="start" x="8" y="-66" font-family="Helvetica,sans-Serif" font-size="10.00">OSAL Wrapper Device</text>
<text text-anchor="middle" x="75.5" y="-55" font-family="Helvetica,sans-Serif" font-size="10.00"> Configurator For FREERTOS</text>
</a>
</g>
</g>
<!-- Node1 -->
<g id="node2" class="node">
<title>Node1</title>
<g id="a_node2"><a xlink:title=" ">
<polygon fill="#bfbfbf" stroke="black" points="324,-54 187,-54 187,-24 324,-24 324,-54"/>
<text text-anchor="start" x="195" y="-42" font-family="Helvetica,sans-Serif" font-size="10.00">Device Configurator</text>
<text text-anchor="middle" x="255.5" y="-31" font-family="Helvetica,sans-Serif" font-size="10.00"> Public Enumration (info)</text>
</a>
</g>
</g>
<!-- Node2&#45;&gt;Node1 -->
<g id="edge1" class="edge">
<title>Node2&#45;&gt;Node1</title>
<path fill="none" stroke="black" d="M161.23,-51.58C169.8,-50.42 178.42,-49.26 186.78,-48.13"/>
<polygon fill="black" stroke="black" points="160.66,-48.12 151.21,-52.93 161.59,-55.06 160.66,-48.12"/>
</g>
<!-- Node3 -->
<g id="node3" class="node">
<title>Node3</title>
<g id="a_node3"><a xlink:href="group__OSAL__WRAPPER__AUTOSAR__DEV__CFG.html" target="_top" xlink:title=" ">
<polygon fill="white" stroke="black" points="147,-30 4,-30 4,0 147,0 147,-30"/>
<text text-anchor="start" x="12" y="-18" font-family="Helvetica,sans-Serif" font-size="10.00">OSAL Wrapper Device</text>
<text text-anchor="middle" x="75.5" y="-7" font-family="Helvetica,sans-Serif" font-size="10.00"> Configurator For AutoSAR</text>
</a>
</g>
</g>
<!-- Node3&#45;&gt;Node1 -->
<g id="edge2" class="edge">
<title>Node3&#45;&gt;Node1</title>
<path fill="none" stroke="black" d="M157.02,-25.86C167,-27.2 177.12,-28.57 186.88,-29.88"/>
<polygon fill="black" stroke="black" points="157.48,-22.39 147.11,-24.52 156.55,-29.32 157.48,-22.39"/>
</g>
</g>
</svg>
