<?xml version="1.0" encoding="UTF-8" standalone="no"?>
<!DOCTYPE svg PUBLIC "-//W3C//DTD SVG 1.1//EN"
 "http://www.w3.org/Graphics/SVG/1.1/DTD/svg11.dtd">
<!-- Generated by graphviz version 2.43.0 (0)
 -->
<!-- Title: IMR driver Pages: 1 -->
<svg width="270pt" height="101pt"
 viewBox="0.00 0.00 270.00 101.00" xmlns="http://www.w3.org/2000/svg" xmlns:xlink="http://www.w3.org/1999/xlink">
<g id="graph0" class="graph" transform="scale(1 1) rotate(0) translate(4 97)">
<title>IMR driver</title>
<polygon fill="white" stroke="transparent" points="-4,4 -4,-97 266,-97 266,4 -4,4"/>
<!-- Node5 -->
<g id="node1" class="node">
<title>Node5</title>
<g id="a_node1"><a xlink:href="group__IMRtypes.html" target="_top" xlink:title=" ">
<polygon fill="white" stroke="black" points="262,-93 191,-93 191,-74 262,-74 262,-93"/>
<text text-anchor="middle" x="226.5" y="-81" font-family="Helvetica,sans-Serif" font-size="10.00">Data Types</text>
</a>
</g>
</g>
<!-- Node2 -->
<g id="node2" class="node">
<title>Node2</title>
<g id="a_node2"><a xlink:href="group__drivers.html" target="_top" xlink:title=" ">
<polygon fill="white" stroke="black" points="52,-56 0,-56 0,-37 52,-37 52,-56"/>
<text text-anchor="middle" x="26" y="-44" font-family="Helvetica,sans-Serif" font-size="10.00">Drivers</text>
</a>
</g>
</g>
<!-- Node1 -->
<g id="node3" class="node">
<title>Node1</title>
<g id="a_node3"><a xlink:title="IMR API driver interface.">
<polygon fill="#bfbfbf" stroke="black" points="155,-56 88,-56 88,-37 155,-37 155,-56"/>
<text text-anchor="middle" x="121.5" y="-44" font-family="Helvetica,sans-Serif" font-size="10.00">IMR driver</text>
</a>
</g>
</g>
<!-- Node2&#45;&gt;Node1 -->
<g id="edge1" class="edge">
<title>Node2&#45;&gt;Node1</title>
<path fill="none" stroke="black" d="M62.06,-46.5C70.56,-46.5 79.6,-46.5 87.97,-46.5"/>
<polygon fill="black" stroke="black" points="62.06,-43 52.06,-46.5 62.06,-50 62.06,-43"/>
</g>
<!-- Node1&#45;&gt;Node5 -->
<g id="edge4" class="edge">
<title>Node1&#45;&gt;Node5</title>
<path fill="none" stroke="black" d="M158.74,-59.52C171.89,-64.24 186.51,-69.49 198.71,-73.88"/>
<polygon fill="black" stroke="black" points="159.62,-56.12 149.03,-56.03 157.25,-62.7 159.62,-56.12"/>
</g>
<!-- Node4 -->
<g id="node4" class="node">
<title>Node4</title>
<g id="a_node4"><a xlink:href="group__IMRconsts.html" target="_top" xlink:title=" ">
<polygon fill="white" stroke="black" points="259,-56 194,-56 194,-37 259,-37 259,-56"/>
<text text-anchor="middle" x="226.5" y="-44" font-family="Helvetica,sans-Serif" font-size="10.00">Constants</text>
</a>
</g>
</g>
<!-- Node1&#45;&gt;Node4 -->
<g id="edge3" class="edge">
<title>Node1&#45;&gt;Node4</title>
<path fill="none" stroke="black" d="M165.25,-46.5C174.82,-46.5 184.8,-46.5 193.83,-46.5"/>
<polygon fill="black" stroke="black" points="165.09,-43 155.09,-46.5 165.09,-50 165.09,-43"/>
</g>
<!-- Node3 -->
<g id="node5" class="node">
<title>Node3</title>
<g id="a_node5"><a xlink:href="group__IMRapi.html" target="_top" xlink:title=" ">
<polygon fill="white" stroke="black" points="242.5,-19 210.5,-19 210.5,0 242.5,0 242.5,-19"/>
<text text-anchor="middle" x="226.5" y="-7" font-family="Helvetica,sans-Serif" font-size="10.00">API</text>
</a>
</g>
</g>
<!-- Node1&#45;&gt;Node3 -->
<g id="edge2" class="edge">
<title>Node1&#45;&gt;Node3</title>
<path fill="none" stroke="black" d="M158.53,-33.56C176.25,-27.19 196.66,-19.86 210.25,-14.98"/>
<polygon fill="black" stroke="black" points="157.25,-30.3 149.03,-36.97 159.62,-36.88 157.25,-30.3"/>
</g>
</g>
</svg>
