<?xml version="1.0" encoding="UTF-8" standalone="no"?>
<!DOCTYPE svg PUBLIC "-//W3C//DTD SVG 1.1//EN"
 "http://www.w3.org/Graphics/SVG/1.1/DTD/svg11.dtd">
<!-- Generated by graphviz version 2.43.0 (0)
 -->
<!-- Title: OSAL Wrapper User Configurator For FREERTOS Pages: 1 -->
<svg width="492pt" height="386pt"
 viewBox="0.00 0.00 492.00 385.50" xmlns="http://www.w3.org/2000/svg" xmlns:xlink="http://www.w3.org/1999/xlink">
<g id="graph0" class="graph" transform="scale(1 1) rotate(0) translate(4 381.5)">
<title>OSAL Wrapper User Configurator For FREERTOS</title>
<polygon fill="white" stroke="transparent" points="-4,4 -4,-381.5 488,-381.5 488,4 -4,4"/>
<!-- Node3 -->
<g id="node1" class="node">
<title>Node3</title>
<g id="a_node1"><a xlink:href="group__OSAL__Private__Defines__Static__Variables__UsrConfig.html" target="_top" xlink:title=" ">
<polygon fill="white" stroke="black" points="479.5,-377.5 339.5,-377.5 339.5,-347.5 479.5,-347.5 479.5,-377.5"/>
<text text-anchor="start" x="347.5" y="-365.5" font-family="Helvetica,sans-Serif" font-size="10.00">User Condifurator Private</text>
<text text-anchor="middle" x="409.5" y="-354.5" font-family="Helvetica,sans-Serif" font-size="10.00"> static variables</text>
</a>
</g>
</g>
<!-- Node2 -->
<g id="node2" class="node">
<title>Node2</title>
<g id="a_node2"><a xlink:href="group__osal__wrapper.html" target="_top" xlink:title=" ">
<polygon fill="white" stroke="black" points="87,-204 0,-204 0,-185 87,-185 87,-204"/>
<text text-anchor="middle" x="43.5" y="-192" font-family="Helvetica,sans-Serif" font-size="10.00">OSAL Wrapper</text>
</a>
</g>
</g>
<!-- Node1 -->
<g id="node3" class="node">
<title>Node1</title>
<g id="a_node3"><a xlink:title=" ">
<polygon fill="#bfbfbf" stroke="black" points="299,-209.5 123,-209.5 123,-179.5 299,-179.5 299,-209.5"/>
<text text-anchor="start" x="131" y="-197.5" font-family="Helvetica,sans-Serif" font-size="10.00">OSAL Wrapper User Configurator</text>
<text text-anchor="middle" x="211" y="-186.5" font-family="Helvetica,sans-Serif" font-size="10.00"> For FREERTOS</text>
</a>
</g>
</g>
<!-- Node2&#45;&gt;Node1 -->
<g id="edge1" class="edge">
<title>Node2&#45;&gt;Node1</title>
<path fill="none" stroke="black" d="M97.23,-194.5C105.43,-194.5 114.08,-194.5 122.8,-194.5"/>
<polygon fill="black" stroke="black" points="97.12,-191 87.12,-194.5 97.12,-198 97.12,-191"/>
</g>
<!-- Node1&#45;&gt;Node3 -->
<g id="edge2" class="edge">
<title>Node1&#45;&gt;Node3</title>
<path fill="none" stroke="black" d="M226.24,-218.16C246.55,-249.96 286.75,-306.21 335,-338.5 340.13,-341.93 345.79,-344.91 351.63,-347.48"/>
<polygon fill="black" stroke="black" points="229.09,-216.12 220.82,-209.51 223.16,-219.84 229.09,-216.12"/>
</g>
<!-- Node7 -->
<g id="node4" class="node">
<title>Node7</title>
<g id="a_node4"><a xlink:href="group__OSAL__Public__Defines__UsrConfig__control.html" target="_top" xlink:title=" ">
<polygon fill="white" stroke="black" points="484,-329.5 335,-329.5 335,-299.5 484,-299.5 484,-329.5"/>
<text text-anchor="start" x="343" y="-317.5" font-family="Helvetica,sans-Serif" font-size="10.00">User Configurator Public</text>
<text text-anchor="middle" x="409.5" y="-306.5" font-family="Helvetica,sans-Serif" font-size="10.00"> macro definitions (control)</text>
</a>
</g>
</g>
<!-- Node1&#45;&gt;Node7 -->
<g id="edge6" class="edge">
<title>Node1&#45;&gt;Node7</title>
<path fill="none" stroke="black" d="M235.21,-216.68C258.73,-238.12 296.98,-270.26 335,-290.5 341.28,-293.84 348.11,-296.83 354.99,-299.47"/>
<polygon fill="black" stroke="black" points="237.54,-214.06 227.82,-209.85 232.79,-219.2 237.54,-214.06"/>
</g>
<!-- Node5 -->
<g id="node5" class="node">
<title>Node5</title>
<g id="a_node5"><a xlink:href="group__OSAL__Private__Defines__UsrConfig.html" target="_top" xlink:title=" ">
<polygon fill="white" stroke="black" points="479.5,-281.5 339.5,-281.5 339.5,-251.5 479.5,-251.5 479.5,-281.5"/>
<text text-anchor="start" x="347.5" y="-269.5" font-family="Helvetica,sans-Serif" font-size="10.00">User Configurator Private</text>
<text text-anchor="middle" x="409.5" y="-258.5" font-family="Helvetica,sans-Serif" font-size="10.00"> macro definitions</text>
</a>
</g>
</g>
<!-- Node1&#45;&gt;Node5 -->
<g id="edge4" class="edge">
<title>Node1&#45;&gt;Node5</title>
<path fill="none" stroke="black" d="M258.42,-213.33C281.35,-222.45 309.51,-233.37 335,-242.5 343.34,-245.49 352.27,-248.53 360.92,-251.4"/>
<polygon fill="black" stroke="black" points="259.52,-210 248.93,-209.54 256.92,-216.5 259.52,-210"/>
</g>
<!-- Node6 -->
<g id="node6" class="node">
<title>Node6</title>
<g id="a_node6"><a xlink:href="group__OSAL__Public__Defines__Extern__Variables__UsrConfig.html" target="_top" xlink:title=" ">
<polygon fill="white" stroke="black" points="476.5,-233.5 342.5,-233.5 342.5,-203.5 476.5,-203.5 476.5,-233.5"/>
<text text-anchor="start" x="350.5" y="-221.5" font-family="Helvetica,sans-Serif" font-size="10.00">User Configurator Public</text>
<text text-anchor="middle" x="409.5" y="-210.5" font-family="Helvetica,sans-Serif" font-size="10.00"> extern variables (info)</text>
</a>
</g>
</g>
<!-- Node1&#45;&gt;Node6 -->
<g id="edge5" class="edge">
<title>Node1&#45;&gt;Node6</title>
<path fill="none" stroke="black" d="M308.99,-206.35C320.33,-207.73 331.69,-209.12 342.47,-210.44"/>
<polygon fill="black" stroke="black" points="309.4,-202.87 299.05,-205.13 308.55,-209.82 309.4,-202.87"/>
</g>
<!-- Node8 -->
<g id="node7" class="node">
<title>Node8</title>
<g id="a_node7"><a xlink:href="group__OSAL__Public__Defines__UsrConfig__info.html" target="_top" xlink:title=" ">
<polygon fill="white" stroke="black" points="476.5,-185.5 342.5,-185.5 342.5,-155.5 476.5,-155.5 476.5,-185.5"/>
<text text-anchor="start" x="350.5" y="-173.5" font-family="Helvetica,sans-Serif" font-size="10.00">User Configurator Public</text>
<text text-anchor="middle" x="409.5" y="-162.5" font-family="Helvetica,sans-Serif" font-size="10.00"> macro definitions (info)</text>
</a>
</g>
</g>
<!-- Node1&#45;&gt;Node8 -->
<g id="edge7" class="edge">
<title>Node1&#45;&gt;Node8</title>
<path fill="none" stroke="black" d="M308.99,-182.65C320.33,-181.27 331.69,-179.88 342.47,-178.56"/>
<polygon fill="black" stroke="black" points="308.55,-179.18 299.05,-183.87 309.4,-186.13 308.55,-179.18"/>
</g>
<!-- Node10 -->
<g id="node8" class="node">
<title>Node10</title>
<g id="a_node8"><a xlink:href="group__OSAL__Public__Type__UsrConfig__info.html" target="_top" xlink:title=" ">
<polygon fill="white" stroke="black" points="476.5,-137.5 342.5,-137.5 342.5,-107.5 476.5,-107.5 476.5,-137.5"/>
<text text-anchor="start" x="350.5" y="-125.5" font-family="Helvetica,sans-Serif" font-size="10.00">User Configurator Public</text>
<text text-anchor="middle" x="409.5" y="-114.5" font-family="Helvetica,sans-Serif" font-size="10.00"> type definitions (info)</text>
</a>
</g>
</g>
<!-- Node1&#45;&gt;Node10 -->
<g id="edge9" class="edge">
<title>Node1&#45;&gt;Node10</title>
<path fill="none" stroke="black" d="M258.42,-175.67C281.35,-166.55 309.51,-155.63 335,-146.5 343.34,-143.51 352.27,-140.47 360.92,-137.6"/>
<polygon fill="black" stroke="black" points="256.92,-172.5 248.93,-179.46 259.52,-179 256.92,-172.5"/>
</g>
<!-- Node9 -->
<g id="node9" class="node">
<title>Node9</title>
<g id="a_node9"><a xlink:href="group__OSAL__Public__Type__UsrConfig__control.html" target="_top" xlink:title=" ">
<polygon fill="white" stroke="black" points="479.5,-89.5 339.5,-89.5 339.5,-59.5 479.5,-59.5 479.5,-89.5"/>
<text text-anchor="start" x="347.5" y="-77.5" font-family="Helvetica,sans-Serif" font-size="10.00">User Configurator Public</text>
<text text-anchor="middle" x="409.5" y="-66.5" font-family="Helvetica,sans-Serif" font-size="10.00"> type definitions (control)</text>
</a>
</g>
</g>
<!-- Node1&#45;&gt;Node9 -->
<g id="edge8" class="edge">
<title>Node1&#45;&gt;Node9</title>
<path fill="none" stroke="black" d="M235.21,-172.32C258.73,-150.88 296.98,-118.74 335,-98.5 341.28,-95.16 348.11,-92.17 354.99,-89.53"/>
<polygon fill="black" stroke="black" points="232.79,-169.8 227.82,-179.15 237.54,-174.94 232.79,-169.8"/>
</g>
<!-- Node4 -->
<g id="node10" class="node">
<title>Node4</title>
<g id="a_node10"><a xlink:href="group__OSAL__Public__Function__UsrConfig.html" target="_top" xlink:title=" ">
<polygon fill="white" stroke="black" points="477,-41 342,-41 342,0 477,0 477,-41"/>
<text text-anchor="start" x="350" y="-29" font-family="Helvetica,sans-Serif" font-size="10.00">User Condifurator Public</text>
<text text-anchor="start" x="350" y="-18" font-family="Helvetica,sans-Serif" font-size="10.00"> function definitions </text>
<text text-anchor="middle" x="409.5" y="-7" font-family="Helvetica,sans-Serif" font-size="10.00">(control)</text>
</a>
</g>
</g>
<!-- Node1&#45;&gt;Node4 -->
<g id="edge3" class="edge">
<title>Node1&#45;&gt;Node4</title>
<path fill="none" stroke="black" d="M226.91,-170.85C247.71,-139.53 288.19,-84.33 335,-50.5 339.8,-47.03 345.07,-43.88 350.5,-41.04"/>
<polygon fill="black" stroke="black" points="223.87,-169.09 221.34,-179.38 229.73,-172.92 223.87,-169.09"/>
</g>
</g>
</svg>
