<?xml version="1.0" encoding="UTF-8" standalone="no"?>
<!DOCTYPE svg PUBLIC "-//W3C//DTD SVG 1.1//EN"
 "http://www.w3.org/Graphics/SVG/1.1/DTD/svg11.dtd">
<!-- Generated by graphviz version 2.43.0 (0)
 -->
<!-- Title: ADV7482 driver Pages: 1 -->
<svg width="351pt" height="101pt"
 viewBox="0.00 0.00 351.00 101.00" xmlns="http://www.w3.org/2000/svg" xmlns:xlink="http://www.w3.org/1999/xlink">
<g id="graph0" class="graph" transform="scale(1 1) rotate(0) translate(4 97)">
<title>ADV7482 driver</title>
<polygon fill="white" stroke="transparent" points="-4,4 -4,-97 347,-97 347,4 -4,4"/>
<!-- Node4 -->
<g id="node1" class="node">
<title>Node4</title>
<g id="a_node1"><a xlink:href="group__ADV7482consts.html" target="_top" xlink:title=" ">
<polygon fill="white" stroke="black" points="340,-93 275,-93 275,-74 340,-74 340,-93"/>
<text text-anchor="middle" x="307.5" y="-81" font-family="Helvetica,sans-Serif" font-size="10.00">Constants</text>
</a>
</g>
</g>
<!-- Node1 -->
<g id="node2" class="node">
<title>Node1</title>
<g id="a_node2"><a xlink:title="ADV7482 driver interface.">
<polygon fill="#bfbfbf" stroke="black" points="236,-56 143,-56 143,-37 236,-37 236,-56"/>
<text text-anchor="middle" x="189.5" y="-44" font-family="Helvetica,sans-Serif" font-size="10.00">ADV7482 driver</text>
</a>
</g>
</g>
<!-- Node1&#45;&gt;Node4 -->
<g id="edge3" class="edge">
<title>Node1&#45;&gt;Node4</title>
<path fill="none" stroke="black" d="M230.01,-59.1C245.16,-63.93 262.19,-69.37 276.33,-73.88"/>
<polygon fill="black" stroke="black" points="230.96,-55.73 220.37,-56.03 228.84,-62.4 230.96,-55.73"/>
</g>
<!-- Node3 -->
<g id="node4" class="node">
<title>Node3</title>
<g id="a_node4"><a xlink:href="group__ADV7482api.html" target="_top" xlink:title=" ">
<polygon fill="white" stroke="black" points="323.5,-56 291.5,-56 291.5,-37 323.5,-37 323.5,-56"/>
<text text-anchor="middle" x="307.5" y="-44" font-family="Helvetica,sans-Serif" font-size="10.00">API</text>
</a>
</g>
</g>
<!-- Node1&#45;&gt;Node3 -->
<g id="edge2" class="edge">
<title>Node1&#45;&gt;Node3</title>
<path fill="none" stroke="black" d="M246.29,-46.5C262.92,-46.5 279.79,-46.5 291.43,-46.5"/>
<polygon fill="black" stroke="black" points="246.01,-43 236.01,-46.5 246.01,-50 246.01,-43"/>
</g>
<!-- Node5 -->
<g id="node5" class="node">
<title>Node5</title>
<g id="a_node5"><a xlink:href="group__ADV7482types.html" target="_top" xlink:title=" ">
<polygon fill="white" stroke="black" points="343,-19 272,-19 272,0 343,0 343,-19"/>
<text text-anchor="middle" x="307.5" y="-7" font-family="Helvetica,sans-Serif" font-size="10.00">Data Types</text>
</a>
</g>
</g>
<!-- Node1&#45;&gt;Node5 -->
<g id="edge4" class="edge">
<title>Node1&#45;&gt;Node5</title>
<path fill="none" stroke="black" d="M230.01,-33.9C245.16,-29.07 262.19,-23.63 276.33,-19.12"/>
<polygon fill="black" stroke="black" points="228.84,-30.6 220.37,-36.97 230.96,-37.27 228.84,-30.6"/>
</g>
<!-- Node2 -->
<g id="node3" class="node">
<title>Node2</title>
<g id="a_node3"><a xlink:href="group__I2CMaingroup.html" target="_top" xlink:title="I2C driver interface and related decoder drivers.">
<polygon fill="white" stroke="black" points="107,-56 0,-56 0,-37 107,-37 107,-56"/>
<text text-anchor="middle" x="53.5" y="-44" font-family="Helvetica,sans-Serif" font-size="10.00">I2C related drivers</text>
</a>
</g>
</g>
<!-- Node2&#45;&gt;Node1 -->
<g id="edge1" class="edge">
<title>Node2&#45;&gt;Node1</title>
<path fill="none" stroke="black" d="M117.09,-46.5C125.68,-46.5 134.37,-46.5 142.6,-46.5"/>
<polygon fill="black" stroke="black" points="117.08,-43 107.08,-46.5 117.08,-50 117.08,-43"/>
</g>
</g>
</svg>
