<?xml version="1.0" encoding="UTF-8" standalone="no"?>
<!DOCTYPE svg PUBLIC "-//W3C//DTD SVG 1.1//EN"
 "http://www.w3.org/Graphics/SVG/1.1/DTD/svg11.dtd">
<!-- Generated by graphviz version 2.43.0 (0)
 -->
<!-- Title: WM User Bridge Pages: 1 -->
<svg width="419pt" height="64pt"
 viewBox="0.00 0.00 419.00 64.00" xmlns="http://www.w3.org/2000/svg" xmlns:xlink="http://www.w3.org/1999/xlink">
<g id="graph0" class="graph" transform="scale(1 1) rotate(0) translate(4 60)">
<title>WM User Bridge</title>
<polygon fill="white" stroke="transparent" points="-4,4 -4,-60 415,-60 415,4 -4,4"/>
<!-- Node1 -->
<g id="node1" class="node">
<title>Node1</title>
<g id="a_node1"><a xlink:title="WM internal types and APIs.">
<polygon fill="#bfbfbf" stroke="black" points="232,-37 137,-37 137,-18 232,-18 232,-37"/>
<text text-anchor="middle" x="184.5" y="-25" font-family="Helvetica,sans-Serif" font-size="10.00">WM User Bridge</text>
</a>
</g>
</g>
<!-- Node4 -->
<g id="node2" class="node">
<title>Node4</title>
<g id="a_node2"><a xlink:href="group__PrivTypes.html" target="_top" xlink:title="WM internal types.">
<polygon fill="white" stroke="black" points="393,-56 286,-56 286,-37 393,-37 393,-56"/>
<text text-anchor="middle" x="339.5" y="-44" font-family="Helvetica,sans-Serif" font-size="10.00">WM internal Types</text>
</a>
</g>
</g>
<!-- Node1&#45;&gt;Node4 -->
<g id="edge3" class="edge">
<title>Node1&#45;&gt;Node4</title>
<path fill="none" stroke="black" d="M242.41,-34.57C256.66,-36.34 271.88,-38.23 285.9,-39.97"/>
<polygon fill="black" stroke="black" points="242.59,-31.06 232.24,-33.3 241.73,-38.01 242.59,-31.06"/>
</g>
<!-- Node3 -->
<g id="node4" class="node">
<title>Node3</title>
<g id="a_node4"><a xlink:href="group__PrivFn.html" target="_top" xlink:title="WM internal functions.">
<polygon fill="white" stroke="black" points="411,-19 268,-19 268,0 411,0 411,-19"/>
<text text-anchor="middle" x="339.5" y="-7" font-family="Helvetica,sans-Serif" font-size="10.00">WM User Bridge functions</text>
</a>
</g>
</g>
<!-- Node1&#45;&gt;Node3 -->
<g id="edge2" class="edge">
<title>Node1&#45;&gt;Node3</title>
<path fill="none" stroke="black" d="M242.22,-20.83C250.56,-19.85 259.24,-18.82 267.82,-17.82"/>
<polygon fill="black" stroke="black" points="241.76,-17.36 232.24,-22 242.58,-24.31 241.76,-17.36"/>
</g>
<!-- Node2 -->
<g id="node3" class="node">
<title>Node2</title>
<g id="a_node3"><a xlink:href="group__middleware__wm.html" target="_top" xlink:title=" ">
<polygon fill="white" stroke="black" points="101,-37 0,-37 0,-18 101,-18 101,-37"/>
<text text-anchor="middle" x="50.5" y="-25" font-family="Helvetica,sans-Serif" font-size="10.00">Window Manager</text>
</a>
</g>
</g>
<!-- Node2&#45;&gt;Node1 -->
<g id="edge1" class="edge">
<title>Node2&#45;&gt;Node1</title>
<path fill="none" stroke="black" d="M111.04,-27.5C119.66,-27.5 128.43,-27.5 136.75,-27.5"/>
<polygon fill="black" stroke="black" points="111.03,-24 101.03,-27.5 111.03,-31 111.03,-24"/>
</g>
</g>
</svg>
