<?xml version="1.0" encoding="UTF-8" standalone="no"?>
<!DOCTYPE svg PUBLIC "-//W3C//DTD SVG 1.1//EN"
 "http://www.w3.org/Graphics/SVG/1.1/DTD/svg11.dtd">
<!-- Generated by graphviz version 2.43.0 (0)
 -->
<!-- Title: Libraries Pages: 1 -->
<svg width="353pt" height="27pt"
 viewBox="0.00 0.00 353.00 27.00" xmlns="http://www.w3.org/2000/svg" xmlns:xlink="http://www.w3.org/1999/xlink">
<g id="graph0" class="graph" transform="scale(1 1) rotate(0) translate(4 23)">
<title>Libraries</title>
<polygon fill="white" stroke="transparent" points="-4,4 -4,-23 349,-23 349,4 -4,4"/>
<!-- Node3 -->
<g id="node1" class="node">
<title>Node3</title>
<g id="a_node1"><a xlink:href="group__middleware__memalloc.html" target="_top" xlink:title=" ">
<polygon fill="white" stroke="black" points="345,-19 205,-19 205,0 345,0 345,-19"/>
<text text-anchor="middle" x="275" y="-7" font-family="Helvetica,sans-Serif" font-size="10.00">Memory Allocator Library</text>
</a>
</g>
</g>
<!-- Node1 -->
<g id="node2" class="node">
<title>Node1</title>
<g id="a_node2"><a xlink:title=" ">
<polygon fill="#bfbfbf" stroke="black" points="169,-19 110,-19 110,0 169,0 169,-19"/>
<text text-anchor="middle" x="139.5" y="-7" font-family="Helvetica,sans-Serif" font-size="10.00">Libraries</text>
</a>
</g>
</g>
<!-- Node1&#45;&gt;Node3 -->
<g id="edge2" class="edge">
<title>Node1&#45;&gt;Node3</title>
<path fill="none" stroke="black" d="M179.29,-9.5C187.33,-9.5 196.04,-9.5 204.81,-9.5"/>
<polygon fill="black" stroke="black" points="179.14,-6 169.14,-9.5 179.14,-13 179.14,-6"/>
</g>
<!-- Node2 -->
<g id="node3" class="node">
<title>Node2</title>
<g id="a_node3"><a xlink:href="group__middleware.html" target="_top" xlink:title=" ">
<polygon fill="white" stroke="black" points="74,-19 0,-19 0,0 74,0 74,-19"/>
<text text-anchor="middle" x="37" y="-7" font-family="Helvetica,sans-Serif" font-size="10.00">Middleware</text>
</a>
</g>
</g>
<!-- Node2&#45;&gt;Node1 -->
<g id="edge1" class="edge">
<title>Node2&#45;&gt;Node1</title>
<path fill="none" stroke="black" d="M84.35,-9.5C93.04,-9.5 101.88,-9.5 109.84,-9.5"/>
<polygon fill="black" stroke="black" points="84.28,-6 74.28,-9.5 84.28,-13 84.28,-6"/>
</g>
</g>
</svg>
