<?xml version="1.0" encoding="UTF-8" standalone="no"?>
<!DOCTYPE svg PUBLIC "-//W3C//DTD SVG 1.1//EN"
 "http://www.w3.org/Graphics/SVG/1.1/DTD/svg11.dtd">
<!-- Generated by graphviz version 2.43.0 (0)
 -->
<!-- Title: Window Manager Pages: 1 -->
<svg width="363pt" height="138pt"
 viewBox="0.00 0.00 363.00 138.00" xmlns="http://www.w3.org/2000/svg" xmlns:xlink="http://www.w3.org/1999/xlink">
<g id="graph0" class="graph" transform="scale(1 1) rotate(0) translate(4 134)">
<title>Window Manager</title>
<polygon fill="white" stroke="transparent" points="-4,4 -4,-134 359,-134 359,4 -4,4"/>
<!-- Node4 -->
<g id="node1" class="node">
<title>Node4</title>
<g id="a_node1"><a xlink:href="group__PublicDef.html" target="_top" xlink:title="Description of the WM public types and User API.">
<polygon fill="white" stroke="black" points="355,-130 247,-130 247,-111 355,-111 355,-130"/>
<text text-anchor="middle" x="301" y="-118" font-family="Helvetica,sans-Serif" font-size="10.00">WM User Mode Lib</text>
</a>
</g>
</g>
<!-- Node3 -->
<g id="node2" class="node">
<title>Node3</title>
<g id="a_node2"><a xlink:href="group__PrivDef.html" target="_top" xlink:title="WM internal types and APIs.">
<polygon fill="white" stroke="black" points="348.5,-93 253.5,-93 253.5,-74 348.5,-74 348.5,-93"/>
<text text-anchor="middle" x="301" y="-81" font-family="Helvetica,sans-Serif" font-size="10.00">WM User Bridge</text>
</a>
</g>
</g>
<!-- Node5 -->
<g id="node3" class="node">
<title>Node5</title>
<g id="a_node3"><a xlink:href="group__WmDrvPublic.html" target="_top" xlink:title="WM Driver public interface.">
<polygon fill="white" stroke="black" points="344,-56 258,-56 258,-37 344,-37 344,-56"/>
<text text-anchor="middle" x="301" y="-44" font-family="Helvetica,sans-Serif" font-size="10.00">WM driver API</text>
</a>
</g>
</g>
<!-- Node6 -->
<g id="node4" class="node">
<title>Node6</title>
<g id="a_node4"><a xlink:href="group__WMDrvSys.html" target="_top" xlink:title="WM Driver system dependent interface.">
<polygon fill="white" stroke="black" points="354,-19 248,-19 248,0 354,0 354,-19"/>
<text text-anchor="middle" x="301" y="-7" font-family="Helvetica,sans-Serif" font-size="10.00">WM driver Sys API</text>
</a>
</g>
</g>
<!-- Node1 -->
<g id="node5" class="node">
<title>Node1</title>
<g id="a_node5"><a xlink:title=" ">
<polygon fill="#bfbfbf" stroke="black" points="211,-74 110,-74 110,-55 211,-55 211,-74"/>
<text text-anchor="middle" x="160.5" y="-62" font-family="Helvetica,sans-Serif" font-size="10.00">Window Manager</text>
</a>
</g>
</g>
<!-- Node1&#45;&gt;Node4 -->
<g id="edge3" class="edge">
<title>Node1&#45;&gt;Node4</title>
<path fill="none" stroke="black" d="M190.74,-78.29C207.13,-85.81 228.03,-95.08 247,-102.5 254.51,-105.44 262.72,-108.36 270.39,-110.97"/>
<polygon fill="black" stroke="black" points="192.21,-75.11 181.67,-74.09 189.27,-81.46 192.21,-75.11"/>
</g>
<!-- Node1&#45;&gt;Node3 -->
<g id="edge2" class="edge">
<title>Node1&#45;&gt;Node3</title>
<path fill="none" stroke="black" d="M221.2,-72.69C231.85,-74.15 242.82,-75.66 253.05,-77.06"/>
<polygon fill="black" stroke="black" points="221.49,-69.2 211.11,-71.31 220.54,-76.13 221.49,-69.2"/>
</g>
<!-- Node1&#45;&gt;Node5 -->
<g id="edge4" class="edge">
<title>Node1&#45;&gt;Node5</title>
<path fill="none" stroke="black" d="M221.26,-56.73C233.49,-55.14 246.13,-53.5 257.6,-52.01"/>
<polygon fill="black" stroke="black" points="220.58,-53.29 211.11,-58.05 221.48,-60.23 220.58,-53.29"/>
</g>
<!-- Node1&#45;&gt;Node6 -->
<g id="edge5" class="edge">
<title>Node1&#45;&gt;Node6</title>
<path fill="none" stroke="black" d="M191.9,-50.63C208.12,-43.41 228.5,-34.63 247,-27.5 254.53,-24.6 262.74,-21.69 270.41,-19.08"/>
<polygon fill="black" stroke="black" points="190.08,-47.61 182.39,-54.9 192.94,-54 190.08,-47.61"/>
</g>
<!-- Node2 -->
<g id="node6" class="node">
<title>Node2</title>
<g id="a_node6"><a xlink:href="group__middleware.html" target="_top" xlink:title=" ">
<polygon fill="white" stroke="black" points="74,-74 0,-74 0,-55 74,-55 74,-74"/>
<text text-anchor="middle" x="37" y="-62" font-family="Helvetica,sans-Serif" font-size="10.00">Middleware</text>
</a>
</g>
</g>
<!-- Node2&#45;&gt;Node1 -->
<g id="edge1" class="edge">
<title>Node2&#45;&gt;Node1</title>
<path fill="none" stroke="black" d="M84.4,-64.5C92.71,-64.5 101.4,-64.5 109.8,-64.5"/>
<polygon fill="black" stroke="black" points="84.13,-61 74.13,-64.5 84.13,-68 84.13,-61"/>
</g>
</g>
</svg>
