<?xml version="1.0" encoding="UTF-8" standalone="no"?>
<!DOCTYPE svg PUBLIC "-//W3C//DTD SVG 1.1//EN"
 "http://www.w3.org/Graphics/SVG/1.1/DTD/svg11.dtd">
<!-- Generated by graphviz version 2.43.0 (0)
 -->
<!-- Title: Device Condifurator Private static variables Pages: 1 -->
<svg width="327pt" height="86pt"
 viewBox="0.00 0.00 327.00 86.00" xmlns="http://www.w3.org/2000/svg" xmlns:xlink="http://www.w3.org/1999/xlink">
<g id="graph0" class="graph" transform="scale(1 1) rotate(0) translate(4 82)">
<title>Device Condifurator Private static variables</title>
<polygon fill="white" stroke="transparent" points="-4,4 -4,-82 323,-82 323,4 -4,4"/>
<!-- Node1 -->
<g id="node1" class="node">
<title>Node1</title>
<g id="a_node1"><a xlink:title=" ">
<polygon fill="#bfbfbf" stroke="black" points="319,-54 187,-54 187,-24 319,-24 319,-54"/>
<text text-anchor="start" x="195" y="-42" font-family="Helvetica,sans-Serif" font-size="10.00">Device Condifurator</text>
<text text-anchor="middle" x="253" y="-31" font-family="Helvetica,sans-Serif" font-size="10.00"> Private static variables</text>
</a>
</g>
</g>
<!-- Node2 -->
<g id="node2" class="node">
<title>Node2</title>
<g id="a_node2"><a xlink:href="group__OSAL__WRAPPER__FREERTOS__DEV__CFG.html" target="_top" xlink:title=" ">
<polygon fill="white" stroke="black" points="151,-78 0,-78 0,-48 151,-48 151,-78"/>
<text text-anchor="start" x="8" y="-66" font-family="Helvetica,sans-Serif" font-size="10.00">OSAL Wrapper Device</text>
<text text-anchor="middle" x="75.5" y="-55" font-family="Helvetica,sans-Serif" font-size="10.00"> Configurator For FREERTOS</text>
</a>
</g>
</g>
<!-- Node2&#45;&gt;Node1 -->
<g id="edge1" class="edge">
<title>Node2&#45;&gt;Node1</title>
<path fill="none" stroke="black" d="M161.24,-51.41C169.83,-50.24 178.47,-49.06 186.81,-47.91"/>
<polygon fill="black" stroke="black" points="160.62,-47.96 151.18,-52.79 161.56,-54.9 160.62,-47.96"/>
</g>
<!-- Node3 -->
<g id="node3" class="node">
<title>Node3</title>
<g id="a_node3"><a xlink:href="group__OSAL__WRAPPER__AUTOSAR__DEV__CFG.html" target="_top" xlink:title=" ">
<polygon fill="white" stroke="black" points="147,-30 4,-30 4,0 147,0 147,-30"/>
<text text-anchor="start" x="12" y="-18" font-family="Helvetica,sans-Serif" font-size="10.00">OSAL Wrapper Device</text>
<text text-anchor="middle" x="75.5" y="-7" font-family="Helvetica,sans-Serif" font-size="10.00"> Configurator For AutoSAR</text>
</a>
</g>
</g>
<!-- Node3&#45;&gt;Node1 -->
<g id="edge2" class="edge">
<title>Node3&#45;&gt;Node1</title>
<path fill="none" stroke="black" d="M157.06,-26.02C167.06,-27.38 177.19,-28.77 186.91,-30.1"/>
<polygon fill="black" stroke="black" points="157.51,-22.55 147.12,-24.66 156.56,-29.48 157.51,-22.55"/>
</g>
</g>
</svg>
