<?xml version="1.0" encoding="UTF-8" standalone="no"?>
<!DOCTYPE svg PUBLIC "-//W3C//DTD SVG 1.1//EN"
 "http://www.w3.org/Graphics/SVG/1.1/DTD/svg11.dtd">
<!-- Generated by graphviz version 2.43.0 (0)
 -->
<!-- Title: CIO Pages: 1 -->
<svg width="215pt" height="138pt"
 viewBox="0.00 0.00 215.00 138.00" xmlns="http://www.w3.org/2000/svg" xmlns:xlink="http://www.w3.org/1999/xlink">
<g id="graph0" class="graph" transform="scale(1 1) rotate(0) translate(4 134)">
<title>CIO</title>
<polygon fill="white" stroke="transparent" points="-4,4 -4,-134 211,-134 211,4 -4,4"/>
<!-- Node5 -->
<g id="node1" class="node">
<title>Node5</title>
<g id="a_node1"><a xlink:href="group__cio__um__library__api.html" target="_top" xlink:title=" ">
<polygon fill="white" stroke="black" points="183.5,-130 93.5,-130 93.5,-111 183.5,-111 183.5,-130"/>
<text text-anchor="middle" x="138.5" y="-118" font-family="Helvetica,sans-Serif" font-size="10.00">CIO UM Library</text>
</a>
</g>
</g>
<!-- Node3 -->
<g id="node2" class="node">
<title>Node3</title>
<g id="a_node2"><a xlink:href="group__cio__bridge.html" target="_top" xlink:title=" ">
<polygon fill="white" stroke="black" points="172.5,-93 104.5,-93 104.5,-74 172.5,-74 172.5,-93"/>
<text text-anchor="middle" x="138.5" y="-81" font-family="Helvetica,sans-Serif" font-size="10.00">CIO Bridge</text>
</a>
</g>
</g>
<!-- Node2 -->
<g id="node3" class="node">
<title>Node2</title>
<g id="a_node3"><a xlink:href="group__cio__bsp.html" target="_top" xlink:title=" ">
<polygon fill="white" stroke="black" points="207,-56 70,-56 70,-37 207,-37 207,-56"/>
<text text-anchor="middle" x="138.5" y="-44" font-family="Helvetica,sans-Serif" font-size="10.00">CIO BSP User Interaction</text>
</a>
</g>
</g>
<!-- Node4 -->
<g id="node4" class="node">
<title>Node4</title>
<g id="a_node4"><a xlink:href="group__cio__drivers.html" target="_top" xlink:title=" ">
<polygon fill="white" stroke="black" points="174.5,-19 102.5,-19 102.5,0 174.5,0 174.5,-19"/>
<text text-anchor="middle" x="138.5" y="-7" font-family="Helvetica,sans-Serif" font-size="10.00">CIO Drivers</text>
</a>
</g>
</g>
<!-- Node1 -->
<g id="node5" class="node">
<title>Node1</title>
<g id="a_node5"><a xlink:title=" ">
<polygon fill="#bfbfbf" stroke="black" points="34,-74 0,-74 0,-55 34,-55 34,-74"/>
<text text-anchor="middle" x="17" y="-62" font-family="Helvetica,sans-Serif" font-size="10.00">CIO</text>
</a>
</g>
</g>
<!-- Node1&#45;&gt;Node5 -->
<g id="edge4" class="edge">
<title>Node1&#45;&gt;Node5</title>
<path fill="none" stroke="black" d="M36.69,-80.78C46.14,-88.31 58.11,-96.82 70,-102.5 77.33,-106 85.45,-108.91 93.44,-111.28"/>
<polygon fill="black" stroke="black" points="38.73,-77.93 28.79,-74.25 34.27,-83.32 38.73,-77.93"/>
</g>
<!-- Node1&#45;&gt;Node3 -->
<g id="edge2" class="edge">
<title>Node1&#45;&gt;Node3</title>
<path fill="none" stroke="black" d="M44.23,-68.67C61.82,-71.47 85.13,-75.17 104.04,-78.18"/>
<polygon fill="black" stroke="black" points="44.54,-65.18 34.12,-67.06 43.44,-72.09 44.54,-65.18"/>
</g>
<!-- Node1&#45;&gt;Node2 -->
<g id="edge1" class="edge">
<title>Node1&#45;&gt;Node2</title>
<path fill="none" stroke="black" d="M44.27,-60.54C53.28,-59.19 63.78,-57.6 74.43,-56"/>
<polygon fill="black" stroke="black" points="43.48,-57.12 34.12,-62.07 44.53,-64.04 43.48,-57.12"/>
</g>
<!-- Node1&#45;&gt;Node4 -->
<g id="edge3" class="edge">
<title>Node1&#45;&gt;Node4</title>
<path fill="none" stroke="black" d="M37.88,-48.42C47.19,-41.51 58.71,-33.82 70,-28.5 80.13,-23.73 91.7,-19.93 102.36,-17.03"/>
<polygon fill="black" stroke="black" points="35.5,-45.83 29.7,-54.7 39.76,-51.39 35.5,-45.83"/>
</g>
</g>
</svg>
