<?xml version="1.0" encoding="UTF-8" standalone="no"?>
<!DOCTYPE svg PUBLIC "-//W3C//DTD SVG 1.1//EN"
 "http://www.w3.org/Graphics/SVG/1.1/DTD/svg11.dtd">
<!-- Generated by graphviz version 2.43.0 (0)
 -->
<!-- Title: I2C related drivers Pages: 1 -->
<svg width="351pt" height="101pt"
 viewBox="0.00 0.00 351.00 101.00" xmlns="http://www.w3.org/2000/svg" xmlns:xlink="http://www.w3.org/1999/xlink">
<g id="graph0" class="graph" transform="scale(1 1) rotate(0) translate(4 97)">
<title>I2C related drivers</title>
<polygon fill="white" stroke="transparent" points="-4,4 -4,-97 347,-97 347,4 -4,4"/>
<!-- Node2 -->
<g id="node1" class="node">
<title>Node2</title>
<g id="a_node1"><a xlink:href="group__drivers.html" target="_top" xlink:title=" ">
<polygon fill="white" stroke="black" points="52,-56 0,-56 0,-37 52,-37 52,-56"/>
<text text-anchor="middle" x="26" y="-44" font-family="Helvetica,sans-Serif" font-size="10.00">Drivers</text>
</a>
</g>
</g>
<!-- Node1 -->
<g id="node4" class="node">
<title>Node1</title>
<g id="a_node4"><a xlink:title="I2C driver interface and related decoder drivers.">
<polygon fill="#bfbfbf" stroke="black" points="195,-56 88,-56 88,-37 195,-37 195,-56"/>
<text text-anchor="middle" x="141.5" y="-44" font-family="Helvetica,sans-Serif" font-size="10.00">I2C related drivers</text>
</a>
</g>
</g>
<!-- Node2&#45;&gt;Node1 -->
<g id="edge1" class="edge">
<title>Node2&#45;&gt;Node1</title>
<path fill="none" stroke="black" d="M62.39,-46.5C70.5,-46.5 79.29,-46.5 87.95,-46.5"/>
<polygon fill="black" stroke="black" points="62.19,-43 52.19,-46.5 62.19,-50 62.19,-43"/>
</g>
<!-- Node4 -->
<g id="node2" class="node">
<title>Node4</title>
<g id="a_node2"><a xlink:href="group__ADV7511group.html" target="_top" xlink:title="ADV7511 driver interface.">
<polygon fill="white" stroke="black" points="343,-93 231,-93 231,-74 343,-74 343,-93"/>
<text text-anchor="middle" x="287" y="-81" font-family="Helvetica,sans-Serif" font-size="10.00">ADV7511 driver API</text>
</a>
</g>
</g>
<!-- Node3 -->
<g id="node3" class="node">
<title>Node3</title>
<g id="a_node3"><a xlink:href="group__ADV7482group.html" target="_top" xlink:title="ADV7482 driver interface.">
<polygon fill="white" stroke="black" points="333.5,-56 240.5,-56 240.5,-37 333.5,-37 333.5,-56"/>
<text text-anchor="middle" x="287" y="-44" font-family="Helvetica,sans-Serif" font-size="10.00">ADV7482 driver</text>
</a>
</g>
</g>
<!-- Node1&#45;&gt;Node4 -->
<g id="edge3" class="edge">
<title>Node1&#45;&gt;Node4</title>
<path fill="none" stroke="black" d="M189.24,-58.55C208.5,-63.52 230.52,-69.19 248.67,-73.88"/>
<polygon fill="black" stroke="black" points="190.01,-55.14 179.45,-56.03 188.26,-61.91 190.01,-55.14"/>
</g>
<!-- Node1&#45;&gt;Node3 -->
<g id="edge2" class="edge">
<title>Node1&#45;&gt;Node3</title>
<path fill="none" stroke="black" d="M205.38,-46.5C217.19,-46.5 229.33,-46.5 240.48,-46.5"/>
<polygon fill="black" stroke="black" points="205.12,-43 195.12,-46.5 205.12,-50 205.12,-43"/>
</g>
<!-- Node5 -->
<g id="node5" class="node">
<title>Node5</title>
<g id="a_node5"><a xlink:href="group__I2Cgroup.html" target="_top" xlink:title="I2C driver interface.">
<polygon fill="white" stroke="black" points="319,-19 255,-19 255,0 319,0 319,-19"/>
<text text-anchor="middle" x="287" y="-7" font-family="Helvetica,sans-Serif" font-size="10.00">I2C driver</text>
</a>
</g>
</g>
<!-- Node1&#45;&gt;Node5 -->
<g id="edge4" class="edge">
<title>Node1&#45;&gt;Node5</title>
<path fill="none" stroke="black" d="M189.39,-34.41C210.92,-28.86 235.85,-22.43 254.99,-17.49"/>
<polygon fill="black" stroke="black" points="188.26,-31.09 179.45,-36.97 190.01,-37.86 188.26,-31.09"/>
</g>
</g>
</svg>
