<?xml version="1.0" encoding="UTF-8" standalone="no"?>
<!DOCTYPE svg PUBLIC "-//W3C//DTD SVG 1.1//EN"
 "http://www.w3.org/Graphics/SVG/1.1/DTD/svg11.dtd">
<!-- Generated by graphviz version 2.43.0 (0)
 -->
<!-- Title: WM User API Pages: 1 -->
<svg width="393pt" height="101pt"
 viewBox="0.00 0.00 393.00 101.00" xmlns="http://www.w3.org/2000/svg" xmlns:xlink="http://www.w3.org/1999/xlink">
<g id="graph0" class="graph" transform="scale(1 1) rotate(0) translate(4 97)">
<title>WM User API</title>
<polygon fill="white" stroke="transparent" points="-4,4 -4,-97 389,-97 389,4 -4,4"/>
<!-- Node2 -->
<g id="node1" class="node">
<title>Node2</title>
<g id="a_node1"><a xlink:href="group__PublicDef.html" target="_top" xlink:title="Description of the WM public types and User API.">
<polygon fill="white" stroke="black" points="108,-56 0,-56 0,-37 108,-37 108,-56"/>
<text text-anchor="middle" x="54" y="-44" font-family="Helvetica,sans-Serif" font-size="10.00">WM User Mode Lib</text>
</a>
</g>
</g>
<!-- Node1 -->
<g id="node3" class="node">
<title>Node1</title>
<g id="a_node3"><a xlink:title="WM User API descriptions.">
<polygon fill="#bfbfbf" stroke="black" points="224,-56 144,-56 144,-37 224,-37 224,-56"/>
<text text-anchor="middle" x="184" y="-44" font-family="Helvetica,sans-Serif" font-size="10.00">WM User API</text>
</a>
</g>
</g>
<!-- Node2&#45;&gt;Node1 -->
<g id="edge1" class="edge">
<title>Node2&#45;&gt;Node1</title>
<path fill="none" stroke="black" d="M118.34,-46.5C127.04,-46.5 135.76,-46.5 143.85,-46.5"/>
<polygon fill="black" stroke="black" points="118.17,-43 108.17,-46.5 118.17,-50 118.17,-43"/>
</g>
<!-- Node3 -->
<g id="node2" class="node">
<title>Node3</title>
<g id="a_node2"><a xlink:href="group__WMDev.html" target="_top" xlink:title="WM functions related to the WM device.">
<polygon fill="white" stroke="black" points="383.5,-93 261.5,-93 261.5,-74 383.5,-74 383.5,-93"/>
<text text-anchor="middle" x="322.5" y="-81" font-family="Helvetica,sans-Serif" font-size="10.00">WM Device Functions</text>
</a>
</g>
</g>
<!-- Node1&#45;&gt;Node3 -->
<g id="edge2" class="edge">
<title>Node1&#45;&gt;Node3</title>
<path fill="none" stroke="black" d="M229.97,-58.69C248.17,-63.62 268.88,-69.24 285.99,-73.88"/>
<polygon fill="black" stroke="black" points="230.72,-55.27 220.15,-56.03 228.89,-62.02 230.72,-55.27"/>
</g>
<!-- Node5 -->
<g id="node4" class="node">
<title>Node5</title>
<g id="a_node4"><a xlink:href="group__WmSurf.html" target="_top" xlink:title="WM functions related to Surfaces.">
<polygon fill="white" stroke="black" points="385,-56 260,-56 260,-37 385,-37 385,-56"/>
<text text-anchor="middle" x="322.5" y="-44" font-family="Helvetica,sans-Serif" font-size="10.00">WM Surface Functions</text>
</a>
</g>
</g>
<!-- Node1&#45;&gt;Node5 -->
<g id="edge4" class="edge">
<title>Node1&#45;&gt;Node5</title>
<path fill="none" stroke="black" d="M234.38,-46.5C242.68,-46.5 251.39,-46.5 259.96,-46.5"/>
<polygon fill="black" stroke="black" points="234.12,-43 224.12,-46.5 234.12,-50 234.12,-43"/>
</g>
<!-- Node4 -->
<g id="node5" class="node">
<title>Node4</title>
<g id="a_node5"><a xlink:href="group__WMScreen.html" target="_top" xlink:title="WM functions handling the screen configuration.">
<polygon fill="white" stroke="black" points="383,-19 262,-19 262,0 383,0 383,-19"/>
<text text-anchor="middle" x="322.5" y="-7" font-family="Helvetica,sans-Serif" font-size="10.00">WM Screen Functions</text>
</a>
</g>
</g>
<!-- Node1&#45;&gt;Node4 -->
<g id="edge3" class="edge">
<title>Node1&#45;&gt;Node4</title>
<path fill="none" stroke="black" d="M229.97,-34.31C248.17,-29.38 268.88,-23.76 285.99,-19.12"/>
<polygon fill="black" stroke="black" points="228.89,-30.98 220.15,-36.97 230.72,-37.73 228.89,-30.98"/>
</g>
</g>
</svg>
