<?xml version="1.0" encoding="UTF-8" standalone="no"?>
<!DOCTYPE svg PUBLIC "-//W3C//DTD SVG 1.1//EN"
 "http://www.w3.org/Graphics/SVG/1.1/DTD/svg11.dtd">
<!-- Generated by graphviz version 2.43.0 (0)
 -->
<!-- Title: Audio driver Pages: 1 -->
<svg width="279pt" height="101pt"
 viewBox="0.00 0.00 279.00 101.00" xmlns="http://www.w3.org/2000/svg" xmlns:xlink="http://www.w3.org/1999/xlink">
<g id="graph0" class="graph" transform="scale(1 1) rotate(0) translate(4 97)">
<title>Audio driver</title>
<polygon fill="white" stroke="transparent" points="-4,4 -4,-97 275,-97 275,4 -4,4"/>
<!-- Node2 -->
<g id="node1" class="node">
<title>Node2</title>
<g id="a_node1"><a xlink:href="group__drivers.html" target="_top" xlink:title=" ">
<polygon fill="white" stroke="black" points="52,-56 0,-56 0,-37 52,-37 52,-56"/>
<text text-anchor="middle" x="26" y="-44" font-family="Helvetica,sans-Serif" font-size="10.00">Drivers</text>
</a>
</g>
</g>
<!-- Node1 -->
<g id="node2" class="node">
<title>Node1</title>
<g id="a_node2"><a xlink:title="Audio driver interface.">
<polygon fill="#bfbfbf" stroke="black" points="164,-56 88,-56 88,-37 164,-37 164,-56"/>
<text text-anchor="middle" x="126" y="-44" font-family="Helvetica,sans-Serif" font-size="10.00">Audio driver</text>
</a>
</g>
</g>
<!-- Node2&#45;&gt;Node1 -->
<g id="edge1" class="edge">
<title>Node2&#45;&gt;Node1</title>
<path fill="none" stroke="black" d="M62.29,-46.5C70.53,-46.5 79.32,-46.5 87.65,-46.5"/>
<polygon fill="black" stroke="black" points="62.24,-43 52.24,-46.5 62.24,-50 62.24,-43"/>
</g>
<!-- Node3 -->
<g id="node3" class="node">
<title>Node3</title>
<g id="a_node3"><a xlink:href="group__AUDIOapi.html" target="_top" xlink:title=" ">
<polygon fill="white" stroke="black" points="251.5,-93 219.5,-93 219.5,-74 251.5,-74 251.5,-93"/>
<text text-anchor="middle" x="235.5" y="-81" font-family="Helvetica,sans-Serif" font-size="10.00">API</text>
</a>
</g>
</g>
<!-- Node1&#45;&gt;Node3 -->
<g id="edge2" class="edge">
<title>Node1&#45;&gt;Node3</title>
<path fill="none" stroke="black" d="M164.27,-59.33C183.24,-65.86 205.25,-73.43 219.5,-78.34"/>
<polygon fill="black" stroke="black" points="165.28,-55.97 154.68,-56.03 163,-62.59 165.28,-55.97"/>
</g>
<!-- Node4 -->
<g id="node4" class="node">
<title>Node4</title>
<g id="a_node4"><a xlink:href="group__AUDIOconst.html" target="_top" xlink:title=" ">
<polygon fill="white" stroke="black" points="268,-56 203,-56 203,-37 268,-37 268,-56"/>
<text text-anchor="middle" x="235.5" y="-44" font-family="Helvetica,sans-Serif" font-size="10.00">Constants</text>
</a>
</g>
</g>
<!-- Node1&#45;&gt;Node4 -->
<g id="edge3" class="edge">
<title>Node1&#45;&gt;Node4</title>
<path fill="none" stroke="black" d="M174.57,-46.5C184.19,-46.5 194.08,-46.5 202.98,-46.5"/>
<polygon fill="black" stroke="black" points="174.3,-43 164.3,-46.5 174.3,-50 174.3,-43"/>
</g>
<!-- Node5 -->
<g id="node5" class="node">
<title>Node5</title>
<g id="a_node5"><a xlink:href="group__AUDIOtypes.html" target="_top" xlink:title=" ">
<polygon fill="white" stroke="black" points="271,-19 200,-19 200,0 271,0 271,-19"/>
<text text-anchor="middle" x="235.5" y="-7" font-family="Helvetica,sans-Serif" font-size="10.00">Data Types</text>
</a>
</g>
</g>
<!-- Node1&#45;&gt;Node5 -->
<g id="edge4" class="edge">
<title>Node1&#45;&gt;Node5</title>
<path fill="none" stroke="black" d="M164.42,-33.62C178.25,-28.86 193.68,-23.55 206.54,-19.12"/>
<polygon fill="black" stroke="black" points="163,-30.41 154.68,-36.97 165.28,-37.03 163,-30.41"/>
</g>
</g>
</svg>
