<?xml version="1.0" encoding="UTF-8" standalone="no"?>
<!DOCTYPE svg PUBLIC "-//W3C//DTD SVG 1.1//EN"
 "http://www.w3.org/Graphics/SVG/1.1/DTD/svg11.dtd">
<!-- Generated by graphviz version 2.43.0 (0)
 -->
<!-- Title: VIN driver Pages: 1 -->
<svg width="268pt" height="101pt"
 viewBox="0.00 0.00 268.00 101.00" xmlns="http://www.w3.org/2000/svg" xmlns:xlink="http://www.w3.org/1999/xlink">
<g id="graph0" class="graph" transform="scale(1 1) rotate(0) translate(4 97)">
<title>VIN driver</title>
<polygon fill="white" stroke="transparent" points="-4,4 -4,-97 264,-97 264,4 -4,4"/>
<!-- Node2 -->
<g id="node1" class="node">
<title>Node2</title>
<g id="a_node1"><a xlink:href="group__drivers.html" target="_top" xlink:title=" ">
<polygon fill="white" stroke="black" points="52,-56 0,-56 0,-37 52,-37 52,-56"/>
<text text-anchor="middle" x="26" y="-44" font-family="Helvetica,sans-Serif" font-size="10.00">Drivers</text>
</a>
</g>
</g>
<!-- Node1 -->
<g id="node4" class="node">
<title>Node1</title>
<g id="a_node4"><a xlink:title="Video Input driver interface.">
<polygon fill="#bfbfbf" stroke="black" points="153,-56 88,-56 88,-37 153,-37 153,-56"/>
<text text-anchor="middle" x="120.5" y="-44" font-family="Helvetica,sans-Serif" font-size="10.00">VIN driver</text>
</a>
</g>
</g>
<!-- Node2&#45;&gt;Node1 -->
<g id="edge1" class="edge">
<title>Node2&#45;&gt;Node1</title>
<path fill="none" stroke="black" d="M62.53,-46.5C70.91,-46.5 79.79,-46.5 87.97,-46.5"/>
<polygon fill="black" stroke="black" points="62.28,-43 52.28,-46.5 62.28,-50 62.28,-43"/>
</g>
<!-- Node4 -->
<g id="node2" class="node">
<title>Node4</title>
<g id="a_node2"><a xlink:href="group__VINconsts.html" target="_top" xlink:title=" ">
<polygon fill="white" stroke="black" points="257,-93 192,-93 192,-74 257,-74 257,-93"/>
<text text-anchor="middle" x="224.5" y="-81" font-family="Helvetica,sans-Serif" font-size="10.00">Constants</text>
</a>
</g>
</g>
<!-- Node5 -->
<g id="node3" class="node">
<title>Node5</title>
<g id="a_node3"><a xlink:href="group__VINtypes.html" target="_top" xlink:title=" ">
<polygon fill="white" stroke="black" points="260,-56 189,-56 189,-37 260,-37 260,-56"/>
<text text-anchor="middle" x="224.5" y="-44" font-family="Helvetica,sans-Serif" font-size="10.00">Data Types</text>
</a>
</g>
</g>
<!-- Node1&#45;&gt;Node4 -->
<g id="edge3" class="edge">
<title>Node1&#45;&gt;Node4</title>
<path fill="none" stroke="black" d="M157.39,-59.52C170.41,-64.24 184.89,-69.49 196.97,-73.88"/>
<polygon fill="black" stroke="black" points="158.36,-56.15 147.77,-56.03 155.97,-62.73 158.36,-56.15"/>
</g>
<!-- Node1&#45;&gt;Node5 -->
<g id="edge4" class="edge">
<title>Node1&#45;&gt;Node5</title>
<path fill="none" stroke="black" d="M163.36,-46.5C171.88,-46.5 180.74,-46.5 188.97,-46.5"/>
<polygon fill="black" stroke="black" points="163.21,-43 153.21,-46.5 163.21,-50 163.21,-43"/>
</g>
<!-- Node3 -->
<g id="node5" class="node">
<title>Node3</title>
<g id="a_node5"><a xlink:href="group__VINapi.html" target="_top" xlink:title=" ">
<polygon fill="white" stroke="black" points="240.5,-19 208.5,-19 208.5,0 240.5,0 240.5,-19"/>
<text text-anchor="middle" x="224.5" y="-7" font-family="Helvetica,sans-Serif" font-size="10.00">API</text>
</a>
</g>
</g>
<!-- Node1&#45;&gt;Node3 -->
<g id="edge2" class="edge">
<title>Node1&#45;&gt;Node3</title>
<path fill="none" stroke="black" d="M157.18,-33.56C174.73,-27.19 194.94,-19.86 208.4,-14.98"/>
<polygon fill="black" stroke="black" points="155.97,-30.27 147.77,-36.97 158.36,-36.85 155.97,-30.27"/>
</g>
</g>
</svg>
