<?xml version="1.0" encoding="UTF-8" standalone="no"?>
<!DOCTYPE svg PUBLIC "-//W3C//DTD SVG 1.1//EN"
 "http://www.w3.org/Graphics/SVG/1.1/DTD/svg11.dtd">
<!-- Generated by graphviz version 2.43.0 (0)
 -->
<!-- Title: CIO Drivers Pages: 1 -->
<svg width="320pt" height="138pt"
 viewBox="0.00 0.00 320.00 138.00" xmlns="http://www.w3.org/2000/svg" xmlns:xlink="http://www.w3.org/1999/xlink">
<g id="graph0" class="graph" transform="scale(1 1) rotate(0) translate(4 134)">
<title>CIO Drivers</title>
<polygon fill="white" stroke="transparent" points="-4,4 -4,-134 316,-134 316,4 -4,4"/>
<!-- Node4 -->
<g id="node1" class="node">
<title>Node4</title>
<g id="a_node1"><a xlink:href="group__cio__eth__driver.html" target="_top" xlink:title=" ">
<polygon fill="white" stroke="black" points="290.5,-130 199.5,-130 199.5,-111 290.5,-111 290.5,-130"/>
<text text-anchor="middle" x="245" y="-118" font-family="Helvetica,sans-Serif" font-size="10.00">Ethernet Driver</text>
</a>
</g>
</g>
<!-- Node1 -->
<g id="node2" class="node">
<title>Node1</title>
<g id="a_node2"><a xlink:title=" ">
<polygon fill="#bfbfbf" stroke="black" points="142,-74 70,-74 70,-55 142,-55 142,-74"/>
<text text-anchor="middle" x="106" y="-62" font-family="Helvetica,sans-Serif" font-size="10.00">CIO Drivers</text>
</a>
</g>
</g>
<!-- Node1&#45;&gt;Node4 -->
<g id="edge3" class="edge">
<title>Node1&#45;&gt;Node4</title>
<path fill="none" stroke="black" d="M131.22,-79.22C144.65,-86.93 161.85,-96.07 178,-102.5 186.06,-105.71 194.88,-108.55 203.39,-110.97"/>
<polygon fill="black" stroke="black" points="132.98,-76.19 122.58,-74.16 129.44,-82.24 132.98,-76.19"/>
</g>
<!-- Node6 -->
<g id="node3" class="node">
<title>Node6</title>
<g id="a_node3"><a xlink:href="group__cio__wm__driver.html" target="_top" xlink:title=" ">
<polygon fill="white" stroke="black" points="312,-93 178,-93 178,-74 312,-74 312,-93"/>
<text text-anchor="middle" x="245" y="-81" font-family="Helvetica,sans-Serif" font-size="10.00">Window Manager Driver</text>
</a>
</g>
</g>
<!-- Node1&#45;&gt;Node6 -->
<g id="edge5" class="edge">
<title>Node1&#45;&gt;Node6</title>
<path fill="none" stroke="black" d="M152.38,-70.79C160.59,-71.93 169.31,-73.14 177.98,-74.34"/>
<polygon fill="black" stroke="black" points="152.67,-67.3 142.28,-69.39 151.71,-74.23 152.67,-67.3"/>
</g>
<!-- Node5 -->
<g id="node4" class="node">
<title>Node5</title>
<g id="a_node4"><a xlink:href="group__cio__vin__driver.html" target="_top" xlink:title=" ">
<polygon fill="white" stroke="black" points="278.5,-56 211.5,-56 211.5,-37 278.5,-37 278.5,-56"/>
<text text-anchor="middle" x="245" y="-44" font-family="Helvetica,sans-Serif" font-size="10.00">VIN Driver</text>
</a>
</g>
</g>
<!-- Node1&#45;&gt;Node5 -->
<g id="edge4" class="edge">
<title>Node1&#45;&gt;Node5</title>
<path fill="none" stroke="black" d="M152.34,-58.54C171.58,-56.02 193.57,-53.13 211.19,-50.81"/>
<polygon fill="black" stroke="black" points="151.74,-55.09 142.28,-59.86 152.65,-62.03 151.74,-55.09"/>
</g>
<!-- Node3 -->
<g id="node5" class="node">
<title>Node3</title>
<g id="a_node5"><a xlink:href="group__cio__canfd__driver.html" target="_top" xlink:title=" ">
<polygon fill="white" stroke="black" points="289,-19 201,-19 201,0 289,0 289,-19"/>
<text text-anchor="middle" x="245" y="-7" font-family="Helvetica,sans-Serif" font-size="10.00">CAN&#45;FD Driver</text>
</a>
</g>
</g>
<!-- Node1&#45;&gt;Node3 -->
<g id="edge2" class="edge">
<title>Node1&#45;&gt;Node3</title>
<path fill="none" stroke="black" d="M131.91,-49.84C145.26,-42.42 162.17,-33.7 178,-27.5 186.07,-24.34 194.91,-21.52 203.42,-19.1"/>
<polygon fill="black" stroke="black" points="129.86,-46.98 122.89,-54.96 133.32,-53.07 129.86,-46.98"/>
</g>
<!-- Node2 -->
<g id="node6" class="node">
<title>Node2</title>
<g id="a_node6"><a xlink:href="group__cio.html" target="_top" xlink:title=" ">
<polygon fill="white" stroke="black" points="34,-74 0,-74 0,-55 34,-55 34,-74"/>
<text text-anchor="middle" x="17" y="-62" font-family="Helvetica,sans-Serif" font-size="10.00">CIO</text>
</a>
</g>
</g>
<!-- Node2&#45;&gt;Node1 -->
<g id="edge1" class="edge">
<title>Node2&#45;&gt;Node1</title>
<path fill="none" stroke="black" d="M44.59,-64.5C52.6,-64.5 61.51,-64.5 69.97,-64.5"/>
<polygon fill="black" stroke="black" points="44.36,-61 34.36,-64.5 44.36,-68 44.36,-61"/>
</g>
</g>
</svg>
