<?xml version="1.0" encoding="UTF-8" standalone="no"?>
<!DOCTYPE svg PUBLIC "-//W3C//DTD SVG 1.1//EN"
 "http://www.w3.org/Graphics/SVG/1.1/DTD/svg11.dtd">
<!-- Generated by graphviz version 2.43.0 (0)
 -->
<!-- Title: OSAL Wrapper Pages: 1 -->
<svg width="386pt" height="182pt"
 viewBox="0.00 0.00 386.00 182.00" xmlns="http://www.w3.org/2000/svg" xmlns:xlink="http://www.w3.org/1999/xlink">
<g id="graph0" class="graph" transform="scale(1 1) rotate(0) translate(4 178)">
<title>OSAL Wrapper</title>
<polygon fill="white" stroke="transparent" points="-4,4 -4,-178 382,-178 382,4 -4,4"/>
<!-- Node1 -->
<g id="node1" class="node">
<title>Node1</title>
<g id="a_node1"><a xlink:title=" ">
<polygon fill="#bfbfbf" stroke="black" points="166,-96.5 79,-96.5 79,-77.5 166,-77.5 166,-96.5"/>
<text text-anchor="middle" x="122.5" y="-84.5" font-family="Helvetica,sans-Serif" font-size="10.00">OSAL Wrapper</text>
</a>
</g>
</g>
<!-- Node4 -->
<g id="node2" class="node">
<title>Node4</title>
<g id="a_node2"><a xlink:href="group__OSAL__WRAPPER__FREERTOS__DEV__CFG.html" target="_top" xlink:title=" ">
<polygon fill="white" stroke="black" points="365.5,-174 214.5,-174 214.5,-144 365.5,-144 365.5,-174"/>
<text text-anchor="start" x="222.5" y="-162" font-family="Helvetica,sans-Serif" font-size="10.00">OSAL Wrapper Device</text>
<text text-anchor="middle" x="290" y="-151" font-family="Helvetica,sans-Serif" font-size="10.00"> Configurator For FREERTOS</text>
</a>
</g>
</g>
<!-- Node1&#45;&gt;Node4 -->
<g id="edge3" class="edge">
<title>Node1&#45;&gt;Node4</title>
<path fill="none" stroke="black" d="M144.74,-102.25C160.05,-112.66 181.54,-126.13 202,-135 209.62,-138.3 217.81,-141.27 226.02,-143.89"/>
<polygon fill="black" stroke="black" points="146.7,-99.35 136.49,-96.52 142.71,-105.1 146.7,-99.35"/>
</g>
<!-- Node6 -->
<g id="node3" class="node">
<title>Node6</title>
<g id="a_node3"><a xlink:href="group__OSAL__WRAPPER__FREERTOS__USR__CFG.html" target="_top" xlink:title=" ">
<polygon fill="white" stroke="black" points="378,-126 202,-126 202,-96 378,-96 378,-126"/>
<text text-anchor="start" x="210" y="-114" font-family="Helvetica,sans-Serif" font-size="10.00">OSAL Wrapper User Configurator</text>
<text text-anchor="middle" x="290" y="-103" font-family="Helvetica,sans-Serif" font-size="10.00"> For FREERTOS</text>
</a>
</g>
</g>
<!-- Node1&#45;&gt;Node6 -->
<g id="edge5" class="edge">
<title>Node1&#45;&gt;Node6</title>
<path fill="none" stroke="black" d="M176.23,-94.65C184.43,-95.84 193.08,-97.09 201.8,-98.35"/>
<polygon fill="black" stroke="black" points="176.52,-91.15 166.12,-93.18 175.51,-98.08 176.52,-91.15"/>
</g>
<!-- Node5 -->
<g id="node4" class="node">
<title>Node5</title>
<g id="a_node4"><a xlink:href="group__OSAL__WRAPPER__AUTOSAR__USR__CFG.html" target="_top" xlink:title=" ">
<polygon fill="white" stroke="black" points="378,-78 202,-78 202,-48 378,-48 378,-78"/>
<text text-anchor="start" x="210" y="-66" font-family="Helvetica,sans-Serif" font-size="10.00">OSAL Wrapper User Configurator</text>
<text text-anchor="middle" x="290" y="-55" font-family="Helvetica,sans-Serif" font-size="10.00"> For AUTOSAR</text>
</a>
</g>
</g>
<!-- Node1&#45;&gt;Node5 -->
<g id="edge4" class="edge">
<title>Node1&#45;&gt;Node5</title>
<path fill="none" stroke="black" d="M176.23,-79.35C184.43,-78.16 193.08,-76.91 201.8,-75.65"/>
<polygon fill="black" stroke="black" points="175.51,-75.92 166.12,-80.82 176.52,-82.85 175.51,-75.92"/>
</g>
<!-- Node3 -->
<g id="node6" class="node">
<title>Node3</title>
<g id="a_node6"><a xlink:href="group__OSAL__WRAPPER__AUTOSAR__DEV__CFG.html" target="_top" xlink:title=" ">
<polygon fill="white" stroke="black" points="361.5,-30 218.5,-30 218.5,0 361.5,0 361.5,-30"/>
<text text-anchor="start" x="226.5" y="-18" font-family="Helvetica,sans-Serif" font-size="10.00">OSAL Wrapper Device</text>
<text text-anchor="middle" x="290" y="-7" font-family="Helvetica,sans-Serif" font-size="10.00"> Configurator For AutoSAR</text>
</a>
</g>
</g>
<!-- Node1&#45;&gt;Node3 -->
<g id="edge2" class="edge">
<title>Node1&#45;&gt;Node3</title>
<path fill="none" stroke="black" d="M144.74,-71.75C160.05,-61.34 181.54,-47.87 202,-39 209.62,-35.7 217.81,-32.73 226.02,-30.11"/>
<polygon fill="black" stroke="black" points="142.71,-68.9 136.49,-77.48 146.7,-74.65 142.71,-68.9"/>
</g>
<!-- Node2 -->
<g id="node5" class="node">
<title>Node2</title>
<g id="a_node5"><a xlink:href="group__osal.html" target="_top" xlink:title=" ">
<polygon fill="white" stroke="black" points="43,-96.5 0,-96.5 0,-77.5 43,-77.5 43,-96.5"/>
<text text-anchor="middle" x="21.5" y="-84.5" font-family="Helvetica,sans-Serif" font-size="10.00">OSAL</text>
</a>
</g>
</g>
<!-- Node2&#45;&gt;Node1 -->
<g id="edge1" class="edge">
<title>Node2&#45;&gt;Node1</title>
<path fill="none" stroke="black" d="M53.18,-87C61.34,-87 70.3,-87 78.97,-87"/>
<polygon fill="black" stroke="black" points="53.01,-83.5 43.01,-87 53.01,-90.5 53.01,-83.5"/>
</g>
</g>
</svg>
