<?xml version="1.0" encoding="UTF-8" standalone="no"?>
<!DOCTYPE svg PUBLIC "-//W3C//DTD SVG 1.1//EN"
 "http://www.w3.org/Graphics/SVG/1.1/DTD/svg11.dtd">
<!-- Generated by graphviz version 2.43.0 (0)
 -->
<!-- Title: WM User Mode types Pages: 1 -->
<svg width="411pt" height="27pt"
 viewBox="0.00 0.00 411.00 27.00" xmlns="http://www.w3.org/2000/svg" xmlns:xlink="http://www.w3.org/1999/xlink">
<g id="graph0" class="graph" transform="scale(1 1) rotate(0) translate(4 23)">
<title>WM User Mode types</title>
<polygon fill="white" stroke="transparent" points="-4,4 -4,-23 407,-23 407,4 -4,4"/>
<!-- Node3 -->
<g id="node1" class="node">
<title>Node3</title>
<g id="a_node1"><a xlink:href="group__WMCfg.html" target="_top" xlink:title="Types and defines that are device specific.">
<polygon fill="white" stroke="black" points="403,-19 301,-19 301,0 403,0 403,-19"/>
<text text-anchor="middle" x="352" y="-7" font-family="Helvetica,sans-Serif" font-size="10.00">WM configuration</text>
</a>
</g>
</g>
<!-- Node2 -->
<g id="node2" class="node">
<title>Node2</title>
<g id="a_node2"><a xlink:href="group__PublicDef.html" target="_top" xlink:title="Description of the WM public types and User API.">
<polygon fill="white" stroke="black" points="108,-19 0,-19 0,0 108,0 108,-19"/>
<text text-anchor="middle" x="54" y="-7" font-family="Helvetica,sans-Serif" font-size="10.00">WM User Mode Lib</text>
</a>
</g>
</g>
<!-- Node1 -->
<g id="node3" class="node">
<title>Node1</title>
<g id="a_node3"><a xlink:title="Wm Public Type definitions.">
<polygon fill="#bfbfbf" stroke="black" points="265,-19 144,-19 144,0 265,0 265,-19"/>
<text text-anchor="middle" x="204.5" y="-7" font-family="Helvetica,sans-Serif" font-size="10.00">WM User Mode types</text>
</a>
</g>
</g>
<!-- Node2&#45;&gt;Node1 -->
<g id="edge1" class="edge">
<title>Node2&#45;&gt;Node1</title>
<path fill="none" stroke="black" d="M118.38,-9.5C126.84,-9.5 135.48,-9.5 143.87,-9.5"/>
<polygon fill="black" stroke="black" points="118.19,-6 108.19,-9.5 118.19,-13 118.19,-6"/>
</g>
<!-- Node1&#45;&gt;Node3 -->
<g id="edge2" class="edge">
<title>Node1&#45;&gt;Node3</title>
<path fill="none" stroke="black" d="M275.12,-9.5C283.7,-9.5 292.34,-9.5 300.55,-9.5"/>
<polygon fill="black" stroke="black" points="275.1,-6 265.1,-9.5 275.1,-13 275.1,-6"/>
</g>
</g>
</svg>
