<?xml version="1.0" encoding="UTF-8" standalone="no"?>
<!DOCTYPE svg PUBLIC "-//W3C//DTD SVG 1.1//EN"
 "http://www.w3.org/Graphics/SVG/1.1/DTD/svg11.dtd">
<!-- Generated by graphviz version 2.43.0 (0)
 -->
<!-- Title: Device Configurator Public type definitions (control) Pages: 1 -->
<svg width="635pt" height="86pt"
 viewBox="0.00 0.00 635.00 86.00" xmlns="http://www.w3.org/2000/svg" xmlns:xlink="http://www.w3.org/1999/xlink">
<g id="graph0" class="graph" transform="scale(1 1) rotate(0) translate(4 82)">
<title>Device Configurator Public type definitions (control)</title>
<polygon fill="white" stroke="transparent" points="-4,4 -4,-82 631,-82 631,4 -4,4"/>
<!-- Node2 -->
<g id="node1" class="node">
<title>Node2</title>
<g id="a_node1"><a xlink:href="group__OSAL__WRAPPER__FREERTOS__DEV__CFG.html" target="_top" xlink:title=" ">
<polygon fill="white" stroke="black" points="151,-78 0,-78 0,-48 151,-48 151,-78"/>
<text text-anchor="start" x="8" y="-66" font-family="Helvetica,sans-Serif" font-size="10.00">OSAL Wrapper Device</text>
<text text-anchor="middle" x="75.5" y="-55" font-family="Helvetica,sans-Serif" font-size="10.00"> Configurator For FREERTOS</text>
</a>
</g>
</g>
<!-- Node1 -->
<g id="node3" class="node">
<title>Node1</title>
<g id="a_node3"><a xlink:title=" ">
<polygon fill="#bfbfbf" stroke="black" points="316,-59.5 188,-59.5 188,-18.5 316,-18.5 316,-59.5"/>
<text text-anchor="start" x="196" y="-47.5" font-family="Helvetica,sans-Serif" font-size="10.00">Device Configurator</text>
<text text-anchor="start" x="196" y="-36.5" font-family="Helvetica,sans-Serif" font-size="10.00"> Public type definitions</text>
<text text-anchor="middle" x="252" y="-25.5" font-family="Helvetica,sans-Serif" font-size="10.00"> (control)</text>
</a>
</g>
</g>
<!-- Node2&#45;&gt;Node1 -->
<g id="edge1" class="edge">
<title>Node2&#45;&gt;Node1</title>
<path fill="none" stroke="black" d="M161.17,-51.35C170.21,-50.11 179.28,-48.86 188,-47.66"/>
<polygon fill="black" stroke="black" points="160.44,-47.92 151.01,-52.75 161.39,-54.86 160.44,-47.92"/>
</g>
<!-- Node3 -->
<g id="node2" class="node">
<title>Node3</title>
<g id="a_node2"><a xlink:href="group__OSAL__WRAPPER__AUTOSAR__DEV__CFG.html" target="_top" xlink:title=" ">
<polygon fill="white" stroke="black" points="147,-30 4,-30 4,0 147,0 147,-30"/>
<text text-anchor="start" x="12" y="-18" font-family="Helvetica,sans-Serif" font-size="10.00">OSAL Wrapper Device</text>
<text text-anchor="middle" x="75.5" y="-7" font-family="Helvetica,sans-Serif" font-size="10.00"> Configurator For AutoSAR</text>
</a>
</g>
</g>
<!-- Node3&#45;&gt;Node1 -->
<g id="edge2" class="edge">
<title>Node3&#45;&gt;Node1</title>
<path fill="none" stroke="black" d="M157.37,-26.12C167.57,-27.53 177.89,-28.94 187.76,-30.3"/>
<polygon fill="black" stroke="black" points="157.61,-22.62 147.22,-24.73 156.65,-29.56 157.61,-22.62"/>
</g>
<!-- Node4 -->
<g id="node4" class="node">
<title>Node4</title>
<g id="a_node4"><a xlink:href="group__OSAL__GENERIC__TYPES.html" target="_top" xlink:title=" ">
<polygon fill="white" stroke="black" points="627,-48.5 464,-48.5 464,-29.5 627,-29.5 627,-48.5"/>
<text text-anchor="middle" x="545.5" y="-36.5" font-family="Helvetica,sans-Serif" font-size="10.00">OSAL Generic Type definitions</text>
</a>
</g>
</g>
<!-- Node1&#45;&gt;Node4 -->
<g id="edge3" class="edge">
<title>Node1&#45;&gt;Node4</title>
<path fill="none" stroke="orange" stroke-dasharray="5,2" d="M316.25,-39C359.54,-39 417.3,-39 463.88,-39"/>
<text text-anchor="middle" x="390" y="-42" font-family="Helvetica,sans-Serif" font-size="10.00">st_osal_device_control</text>
</g>
</g>
</svg>
