<?xml version="1.0" encoding="UTF-8" standalone="no"?>
<!DOCTYPE svg PUBLIC "-//W3C//DTD SVG 1.1//EN"
 "http://www.w3.org/Graphics/SVG/1.1/DTD/svg11.dtd">
<!-- Generated by graphviz version 2.43.0 (0)
 -->
<!-- Title: Ethernet Driver Pages: 1 -->
<svg width="404pt" height="284pt"
 viewBox="0.00 0.00 404.00 284.00" xmlns="http://www.w3.org/2000/svg" xmlns:xlink="http://www.w3.org/1999/xlink">
<g id="graph0" class="graph" transform="scale(1 1) rotate(0) translate(4 280)">
<title>Ethernet Driver</title>
<polygon fill="white" stroke="transparent" points="-4,4 -4,-280 400,-280 400,4 -4,4"/>
<!-- Node6 -->
<g id="node1" class="node">
<title>Node6</title>
<g id="a_node1"><a xlink:href="group__etherread.html" target="_top" xlink:title="Read from the Ether drivers&#39;s receive buffer.">
<polygon fill="white" stroke="black" points="378,-276 253,-276 253,-257 378,-257 378,-276"/>
<text text-anchor="middle" x="315.5" y="-264" font-family="Helvetica,sans-Serif" font-size="10.00">Ether Driver data read</text>
</a>
</g>
</g>
<!-- Node8 -->
<g id="node2" class="node">
<title>Node8</title>
<g id="a_node2"><a xlink:href="group__group5__ether.html" target="_top" xlink:title="Init and deinit interrupt handling for the CIO server.">
<polygon fill="white" stroke="black" points="378,-238.5 253,-238.5 253,-208.5 378,-208.5 378,-238.5"/>
<text text-anchor="start" x="261" y="-226.5" font-family="Helvetica,sans-Serif" font-size="10.00">Ether Driver interrupt</text>
<text text-anchor="middle" x="315.5" y="-215.5" font-family="Helvetica,sans-Serif" font-size="10.00"> intialization functions</text>
</a>
</g>
</g>
<!-- Node1 -->
<g id="node3" class="node">
<title>Node1</title>
<g id="a_node3"><a xlink:title=" ">
<polygon fill="#bfbfbf" stroke="black" points="199,-153 108,-153 108,-134 199,-134 199,-153"/>
<text text-anchor="middle" x="153.5" y="-141" font-family="Helvetica,sans-Serif" font-size="10.00">Ethernet Driver</text>
</a>
</g>
</g>
<!-- Node1&#45;&gt;Node6 -->
<g id="edge5" class="edge">
<title>Node1&#45;&gt;Node6</title>
<path fill="none" stroke="black" d="M163.69,-161.99C176.39,-185.59 201.6,-225.93 235,-247.5 240.96,-251.35 247.63,-254.42 254.49,-256.87"/>
<polygon fill="black" stroke="black" points="166.73,-160.27 159.02,-153.01 160.52,-163.49 166.73,-160.27"/>
</g>
<!-- Node1&#45;&gt;Node8 -->
<g id="edge7" class="edge">
<title>Node1&#45;&gt;Node8</title>
<path fill="none" stroke="black" d="M173.66,-159.43C189.33,-171.8 212.5,-188.62 235,-199.5 241.88,-202.83 249.32,-205.81 256.79,-208.44"/>
<polygon fill="black" stroke="black" points="175.76,-156.63 165.78,-153.09 171.37,-162.08 175.76,-156.63"/>
</g>
<!-- Node3 -->
<g id="node4" class="node">
<title>Node3</title>
<g id="a_node4"><a xlink:href="group__group1__ether.html" target="_top" xlink:title="Bridge for the CIO server.">
<polygon fill="white" stroke="black" points="396,-190 235,-190 235,-171 396,-171 396,-190"/>
<text text-anchor="middle" x="315.5" y="-178" font-family="Helvetica,sans-Serif" font-size="10.00">CIO ETHER Driver Declaration</text>
</a>
</g>
</g>
<!-- Node1&#45;&gt;Node3 -->
<g id="edge2" class="edge">
<title>Node1&#45;&gt;Node3</title>
<path fill="none" stroke="black" d="M204.51,-155.38C214.6,-157.75 225.14,-160.22 235,-162.5 247,-165.27 260.02,-168.24 271.99,-170.95"/>
<polygon fill="black" stroke="black" points="205.15,-151.93 194.61,-153.04 203.54,-158.75 205.15,-151.93"/>
</g>
<!-- Node7 -->
<g id="node6" class="node">
<title>Node7</title>
<g id="a_node6"><a xlink:href="group__etherwrite.html" target="_top" xlink:title="Write data to the Ether drivers&#39;s trasmit buffer.">
<polygon fill="white" stroke="black" points="387.5,-153 243.5,-153 243.5,-134 387.5,-134 387.5,-153"/>
<text text-anchor="middle" x="315.5" y="-141" font-family="Helvetica,sans-Serif" font-size="10.00">Ether Driver data transmit</text>
</a>
</g>
</g>
<!-- Node1&#45;&gt;Node7 -->
<g id="edge6" class="edge">
<title>Node1&#45;&gt;Node7</title>
<path fill="none" stroke="black" d="M209.36,-143.5C220.35,-143.5 232.04,-143.5 243.48,-143.5"/>
<polygon fill="black" stroke="black" points="209.07,-140 199.07,-143.5 209.07,-147 209.07,-140"/>
</g>
<!-- Node4 -->
<g id="node7" class="node">
<title>Node4</title>
<g id="a_node7"><a xlink:href="group__group4__ether.html" target="_top" xlink:title="Provide a CIO interface to pass different configuartion parameter to the driver.">
<polygon fill="white" stroke="black" points="387,-115.5 244,-115.5 244,-85.5 387,-85.5 387,-115.5"/>
<text text-anchor="start" x="252" y="-103.5" font-family="Helvetica,sans-Serif" font-size="10.00">Ether Driver Configuration</text>
<text text-anchor="middle" x="315.5" y="-92.5" font-family="Helvetica,sans-Serif" font-size="10.00"> Function</text>
</a>
</g>
</g>
<!-- Node1&#45;&gt;Node4 -->
<g id="edge3" class="edge">
<title>Node1&#45;&gt;Node4</title>
<path fill="none" stroke="black" d="M199.83,-131.32C218.13,-126.4 239.42,-120.68 258.66,-115.51"/>
<polygon fill="black" stroke="black" points="198.76,-127.98 190.01,-133.96 200.57,-134.74 198.76,-127.98"/>
</g>
<!-- Node5 -->
<g id="node8" class="node">
<title>Node5</title>
<g id="a_node8"><a xlink:href="group__group2__ether.html" target="_top" xlink:title="Methods used by the CIO Server to initiate or finish communicatrion with the Ether module.">
<polygon fill="white" stroke="black" points="374.5,-67.5 256.5,-67.5 256.5,-37.5 374.5,-37.5 374.5,-67.5"/>
<text text-anchor="start" x="264.5" y="-55.5" font-family="Helvetica,sans-Serif" font-size="10.00">Ether Driver Connect</text>
<text text-anchor="middle" x="315.5" y="-44.5" font-family="Helvetica,sans-Serif" font-size="10.00"> Functions</text>
</a>
</g>
</g>
<!-- Node1&#45;&gt;Node5 -->
<g id="edge4" class="edge">
<title>Node1&#45;&gt;Node5</title>
<path fill="none" stroke="black" d="M170.62,-126.67C185.91,-111.6 210.18,-89.85 235,-76.5 241.6,-72.95 248.8,-69.85 256.08,-67.16"/>
<polygon fill="black" stroke="black" points="168.04,-124.31 163.49,-133.87 173.01,-129.23 168.04,-124.31"/>
</g>
<!-- Node9 -->
<g id="node9" class="node">
<title>Node9</title>
<g id="a_node9"><a xlink:href="group__ethermain1.html" target="_top" xlink:title="CIO Ether Driver main module.">
<polygon fill="white" stroke="black" points="367,-19 264,-19 264,0 367,0 367,-19"/>
<text text-anchor="middle" x="315.5" y="-7" font-family="Helvetica,sans-Serif" font-size="10.00">Ether Driver main</text>
</a>
</g>
</g>
<!-- Node1&#45;&gt;Node9 -->
<g id="edge8" class="edge">
<title>Node1&#45;&gt;Node9</title>
<path fill="none" stroke="black" d="M162.65,-124.19C174.6,-98.27 199.4,-52.71 235,-28.5 243.57,-22.67 253.71,-18.63 263.84,-15.81"/>
<polygon fill="black" stroke="black" points="159.29,-123.11 158.44,-133.67 165.69,-125.95 159.29,-123.11"/>
</g>
<!-- Node2 -->
<g id="node5" class="node">
<title>Node2</title>
<g id="a_node5"><a xlink:href="group__cio__drivers.html" target="_top" xlink:title=" ">
<polygon fill="white" stroke="black" points="72,-153 0,-153 0,-134 72,-134 72,-153"/>
<text text-anchor="middle" x="36" y="-141" font-family="Helvetica,sans-Serif" font-size="10.00">CIO Drivers</text>
</a>
</g>
</g>
<!-- Node2&#45;&gt;Node1 -->
<g id="edge1" class="edge">
<title>Node2&#45;&gt;Node1</title>
<path fill="none" stroke="black" d="M82.5,-143.5C90.76,-143.5 99.37,-143.5 107.62,-143.5"/>
<polygon fill="black" stroke="black" points="82.28,-140 72.28,-143.5 82.28,-147 82.28,-140"/>
</g>
</g>
</svg>
