<?xml version="1.0" encoding="UTF-8" standalone="no"?>
<!DOCTYPE svg PUBLIC "-//W3C//DTD SVG 1.1//EN"
 "http://www.w3.org/Graphics/SVG/1.1/DTD/svg11.dtd">
<!-- Generated by graphviz version 2.43.0 (0)
 -->
<!-- Title: VIN Driver Pages: 1 -->
<svg width="365pt" height="321pt"
 viewBox="0.00 0.00 365.00 320.50" xmlns="http://www.w3.org/2000/svg" xmlns:xlink="http://www.w3.org/1999/xlink">
<g id="graph0" class="graph" transform="scale(1 1) rotate(0) translate(4 316.5)">
<title>VIN Driver</title>
<polygon fill="white" stroke="transparent" points="-4,4 -4,-316.5 361,-316.5 361,4 -4,4"/>
<!-- Node5 -->
<g id="node1" class="node">
<title>Node5</title>
<g id="a_node1"><a xlink:href="group__group2__vin.html" target="_top" xlink:title="Methods used by the CIO Server to initiate or finish communicatrion with the VIN module.">
<polygon fill="white" stroke="black" points="339,-312.5 229,-312.5 229,-282.5 339,-282.5 339,-312.5"/>
<text text-anchor="start" x="237" y="-300.5" font-family="Helvetica,sans-Serif" font-size="10.00">VIN Driver Connect</text>
<text text-anchor="middle" x="284" y="-289.5" font-family="Helvetica,sans-Serif" font-size="10.00"> Functions</text>
</a>
</g>
</g>
<!-- Node2 -->
<g id="node2" class="node">
<title>Node2</title>
<g id="a_node2"><a xlink:href="group__cio__drivers.html" target="_top" xlink:title=" ">
<polygon fill="white" stroke="black" points="72,-171 0,-171 0,-152 72,-152 72,-171"/>
<text text-anchor="middle" x="36" y="-159" font-family="Helvetica,sans-Serif" font-size="10.00">CIO Drivers</text>
</a>
</g>
</g>
<!-- Node1 -->
<g id="node7" class="node">
<title>Node1</title>
<g id="a_node7"><a xlink:title=" ">
<polygon fill="#bfbfbf" stroke="black" points="175,-171 108,-171 108,-152 175,-152 175,-171"/>
<text text-anchor="middle" x="141.5" y="-159" font-family="Helvetica,sans-Serif" font-size="10.00">VIN Driver</text>
</a>
</g>
</g>
<!-- Node2&#45;&gt;Node1 -->
<g id="edge1" class="edge">
<title>Node2&#45;&gt;Node1</title>
<path fill="none" stroke="black" d="M82.08,-161.5C90.78,-161.5 99.73,-161.5 107.94,-161.5"/>
<polygon fill="black" stroke="black" points="82.04,-158 72.04,-161.5 82.04,-165 82.04,-158"/>
</g>
<!-- Node3 -->
<g id="node3" class="node">
<title>Node3</title>
<g id="a_node3"><a xlink:href="group__group1__vin.html" target="_top" xlink:title="Bridge for the CIO server.">
<polygon fill="white" stroke="black" points="357,-264 211,-264 211,-245 357,-245 357,-264"/>
<text text-anchor="middle" x="284" y="-252" font-family="Helvetica,sans-Serif" font-size="10.00">CIO VIN Driver Declaration</text>
</a>
</g>
</g>
<!-- Node7 -->
<g id="node4" class="node">
<title>Node7</title>
<g id="a_node4"><a xlink:href="group__write__vin.html" target="_top" xlink:title="Write data to the VIN drivers&#39;s trasmit buffer.">
<polygon fill="white" stroke="black" points="352,-227 216,-227 216,-208 352,-208 352,-227"/>
<text text-anchor="middle" x="284" y="-215" font-family="Helvetica,sans-Serif" font-size="10.00">VIN Driver data transmit</text>
</a>
</g>
</g>
<!-- Node6 -->
<g id="node5" class="node">
<title>Node6</title>
<g id="a_node5"><a xlink:href="group__vinread.html" target="_top" xlink:title="Read from the VIN drivers&#39;s receive buffer.">
<polygon fill="white" stroke="black" points="342,-190 226,-190 226,-171 342,-171 342,-190"/>
<text text-anchor="middle" x="284" y="-178" font-family="Helvetica,sans-Serif" font-size="10.00">VIN Driver data read</text>
</a>
</g>
</g>
<!-- Node10 -->
<g id="node6" class="node">
<title>Node10</title>
<g id="a_node6"><a xlink:href="group__status__vin.html" target="_top" xlink:title=" ">
<polygon fill="white" stroke="black" points="334,-153 234,-153 234,-134 334,-134 334,-153"/>
<text text-anchor="middle" x="284" y="-141" font-family="Helvetica,sans-Serif" font-size="10.00">VIN Driver status</text>
</a>
</g>
</g>
<!-- Node1&#45;&gt;Node5 -->
<g id="edge4" class="edge">
<title>Node1&#45;&gt;Node5</title>
<path fill="none" stroke="black" d="M149.36,-180.59C159.23,-205.45 179.78,-248.67 211,-273.5 216.36,-277.76 222.52,-281.29 228.92,-284.19"/>
<polygon fill="black" stroke="black" points="152.6,-179.27 145.78,-171.16 146.06,-181.75 152.6,-179.27"/>
</g>
<!-- Node1&#45;&gt;Node3 -->
<g id="edge2" class="edge">
<title>Node1&#45;&gt;Node3</title>
<path fill="none" stroke="black" d="M154.46,-179.85C166.64,-197.07 187.1,-222.25 211,-236.5 216.75,-239.93 223.14,-242.71 229.67,-244.96"/>
<polygon fill="black" stroke="black" points="157.1,-177.52 148.57,-171.23 151.32,-181.46 157.1,-177.52"/>
</g>
<!-- Node1&#45;&gt;Node7 -->
<g id="edge6" class="edge">
<title>Node1&#45;&gt;Node7</title>
<path fill="none" stroke="black" d="M165.87,-176.47C178.77,-184.21 195.32,-193.32 211,-199.5 219.27,-202.76 228.31,-205.57 237.11,-207.94"/>
<polygon fill="black" stroke="black" points="167.53,-173.38 157.18,-171.13 163.87,-179.35 167.53,-173.38"/>
</g>
<!-- Node1&#45;&gt;Node6 -->
<g id="edge5" class="edge">
<title>Node1&#45;&gt;Node6</title>
<path fill="none" stroke="black" d="M185.03,-167.25C197.86,-168.99 212.17,-170.92 225.8,-172.77"/>
<polygon fill="black" stroke="black" points="185.47,-163.78 175.09,-165.91 184.53,-170.72 185.47,-163.78"/>
</g>
<!-- Node1&#45;&gt;Node10 -->
<g id="edge9" class="edge">
<title>Node1&#45;&gt;Node10</title>
<path fill="none" stroke="black" d="M185.31,-156.02C200.61,-154.05 217.98,-151.83 233.79,-149.81"/>
<polygon fill="black" stroke="black" points="184.56,-152.58 175.09,-157.33 185.45,-159.53 184.56,-152.58"/>
</g>
<!-- Node4 -->
<g id="node8" class="node">
<title>Node4</title>
<g id="a_node8"><a xlink:href="group__group4__vin.html" target="_top" xlink:title="Provide a CIO interface to pass different configuartion parameter to the driver.">
<polygon fill="white" stroke="black" points="351.5,-115.5 216.5,-115.5 216.5,-85.5 351.5,-85.5 351.5,-115.5"/>
<text text-anchor="start" x="224.5" y="-103.5" font-family="Helvetica,sans-Serif" font-size="10.00">VIN Driver Configuration</text>
<text text-anchor="middle" x="284" y="-92.5" font-family="Helvetica,sans-Serif" font-size="10.00"> Function</text>
</a>
</g>
</g>
<!-- Node1&#45;&gt;Node4 -->
<g id="edge3" class="edge">
<title>Node1&#45;&gt;Node4</title>
<path fill="none" stroke="black" d="M167.13,-146.85C179.95,-139.58 196.03,-130.98 211,-124.5 218.38,-121.31 226.33,-118.27 234.16,-115.5"/>
<polygon fill="black" stroke="black" points="165.35,-143.84 158.44,-151.86 168.85,-149.9 165.35,-143.84"/>
</g>
<!-- Node8 -->
<g id="node9" class="node">
<title>Node8</title>
<g id="a_node9"><a xlink:href="group__group5__vin.html" target="_top" xlink:title="Init and deinit interrupt handling for the CIO server.">
<polygon fill="white" stroke="black" points="346.5,-67.5 221.5,-67.5 221.5,-37.5 346.5,-37.5 346.5,-67.5"/>
<text text-anchor="start" x="229.5" y="-55.5" font-family="Helvetica,sans-Serif" font-size="10.00">VIN Driver interrupt</text>
<text text-anchor="middle" x="284" y="-44.5" font-family="Helvetica,sans-Serif" font-size="10.00"> intialization functions</text>
</a>
</g>
</g>
<!-- Node1&#45;&gt;Node8 -->
<g id="edge7" class="edge">
<title>Node1&#45;&gt;Node8</title>
<path fill="none" stroke="black" d="M152.92,-143.11C164.69,-123.91 185.57,-94.17 211,-76.5 215.87,-73.12 221.25,-70.18 226.82,-67.64"/>
<polygon fill="black" stroke="black" points="149.84,-141.45 147.76,-151.84 155.86,-145.02 149.84,-141.45"/>
</g>
<!-- Node9 -->
<g id="node10" class="node">
<title>Node9</title>
<g id="a_node10"><a xlink:href="group__vinmain1.html" target="_top" xlink:title="CIO VIN Driver main module.">
<polygon fill="white" stroke="black" points="331.5,-19 236.5,-19 236.5,0 331.5,0 331.5,-19"/>
<text text-anchor="middle" x="284" y="-7" font-family="Helvetica,sans-Serif" font-size="10.00">VIN Driver main</text>
</a>
</g>
</g>
<!-- Node1&#45;&gt;Node9 -->
<g id="edge8" class="edge">
<title>Node1&#45;&gt;Node9</title>
<path fill="none" stroke="black" d="M147.15,-141.9C155.12,-112.7 174.19,-58.06 211,-28.5 218.26,-22.67 227.13,-18.62 236.13,-15.8"/>
<polygon fill="black" stroke="black" points="143.72,-141.18 144.63,-151.74 150.5,-142.92 143.72,-141.18"/>
</g>
</g>
</svg>
