<?xml version="1.0" encoding="UTF-8" standalone="no"?>
<!DOCTYPE svg PUBLIC "-//W3C//DTD SVG 1.1//EN"
 "http://www.w3.org/Graphics/SVG/1.1/DTD/svg11.dtd">
<!-- Generated by graphviz version 2.43.0 (0)
 -->
<!-- Title: CIO Bridge Pages: 1 -->
<svg width="332pt" height="175pt"
 viewBox="0.00 0.00 332.00 175.00" xmlns="http://www.w3.org/2000/svg" xmlns:xlink="http://www.w3.org/1999/xlink">
<g id="graph0" class="graph" transform="scale(1 1) rotate(0) translate(4 171)">
<title>CIO Bridge</title>
<polygon fill="white" stroke="transparent" points="-4,4 -4,-171 328,-171 328,4 -4,4"/>
<!-- Node3 -->
<g id="node1" class="node">
<title>Node3</title>
<g id="a_node1"><a xlink:href="group__cio__can.html" target="_top" xlink:title="Type defintions neccessary to for the user application to interact with the CIO CAN driver.">
<polygon fill="white" stroke="black" points="318.5,-167 179.5,-167 179.5,-148 318.5,-148 318.5,-167"/>
<text text-anchor="middle" x="249" y="-155" font-family="Helvetica,sans-Serif" font-size="10.00">CIO CAN User interaction</text>
</a>
</g>
</g>
<!-- Node1 -->
<g id="node2" class="node">
<title>Node1</title>
<g id="a_node2"><a xlink:title=" ">
<polygon fill="#bfbfbf" stroke="black" points="138,-93 70,-93 70,-74 138,-74 138,-93"/>
<text text-anchor="middle" x="104" y="-81" font-family="Helvetica,sans-Serif" font-size="10.00">CIO Bridge</text>
</a>
</g>
</g>
<!-- Node1&#45;&gt;Node3 -->
<g id="edge2" class="edge">
<title>Node1&#45;&gt;Node3</title>
<path fill="none" stroke="black" d="M121.61,-100.59C134.73,-113.13 154.08,-129.63 174,-139.5 180.87,-142.91 188.43,-145.69 196,-147.97"/>
<polygon fill="black" stroke="black" points="123.88,-97.91 114.3,-93.39 118.97,-102.9 123.88,-97.91"/>
</g>
<!-- Node4 -->
<g id="node3" class="node">
<title>Node4</title>
<g id="a_node3"><a xlink:href="group__etherif.html" target="_top" xlink:title="Type defintions neccessary to for the user application to interact with the CIO ETHER driver.">
<polygon fill="white" stroke="black" points="324,-130 174,-130 174,-111 324,-111 324,-130"/>
<text text-anchor="middle" x="249" y="-118" font-family="Helvetica,sans-Serif" font-size="10.00">CIO ETHER User interaction</text>
</a>
</g>
</g>
<!-- Node1&#45;&gt;Node4 -->
<g id="edge3" class="edge">
<title>Node1&#45;&gt;Node4</title>
<path fill="none" stroke="black" d="M148.11,-95.59C156.68,-97.93 165.61,-100.33 174,-102.5 184.88,-105.32 196.69,-108.25 207.62,-110.91"/>
<polygon fill="black" stroke="black" points="148.86,-92.16 138.29,-92.88 147,-98.91 148.86,-92.16"/>
</g>
<!-- Node7 -->
<g id="node4" class="node">
<title>Node7</title>
<g id="a_node4"><a xlink:href="group__cio__bridge__types.html" target="_top" xlink:title=" ">
<polygon fill="white" stroke="black" points="284.5,-93 213.5,-93 213.5,-74 284.5,-74 284.5,-93"/>
<text text-anchor="middle" x="249" y="-81" font-family="Helvetica,sans-Serif" font-size="10.00">Data Types</text>
</a>
</g>
</g>
<!-- Node1&#45;&gt;Node7 -->
<g id="edge6" class="edge">
<title>Node1&#45;&gt;Node7</title>
<path fill="none" stroke="black" d="M148.3,-83.5C169.02,-83.5 193.5,-83.5 213.02,-83.5"/>
<polygon fill="black" stroke="black" points="148.17,-80 138.17,-83.5 148.17,-87 148.17,-80"/>
</g>
<!-- Node6 -->
<g id="node5" class="node">
<title>Node6</title>
<g id="a_node5"><a xlink:href="group__cio__bridge__constants.html" target="_top" xlink:title=" ">
<polygon fill="white" stroke="black" points="281.5,-56 216.5,-56 216.5,-37 281.5,-37 281.5,-56"/>
<text text-anchor="middle" x="249" y="-44" font-family="Helvetica,sans-Serif" font-size="10.00">Constants</text>
</a>
</g>
</g>
<!-- Node1&#45;&gt;Node6 -->
<g id="edge5" class="edge">
<title>Node1&#45;&gt;Node6</title>
<path fill="none" stroke="black" d="M148.11,-71.41C156.68,-69.07 165.61,-66.67 174,-64.5 187.82,-60.92 203.15,-57.15 216.26,-54"/>
<polygon fill="black" stroke="black" points="147,-68.09 138.29,-74.12 148.86,-74.84 147,-68.09"/>
</g>
<!-- Node5 -->
<g id="node7" class="node">
<title>Node5</title>
<g id="a_node7"><a xlink:href="group__cio__vin.html" target="_top" xlink:title=" ">
<polygon fill="white" stroke="black" points="316.5,-19 181.5,-19 181.5,0 316.5,0 316.5,-19"/>
<text text-anchor="middle" x="249" y="-7" font-family="Helvetica,sans-Serif" font-size="10.00">CIO VIN User Interaction</text>
</a>
</g>
</g>
<!-- Node1&#45;&gt;Node5 -->
<g id="edge4" class="edge">
<title>Node1&#45;&gt;Node5</title>
<path fill="none" stroke="black" d="M121.61,-66.41C134.73,-53.87 154.08,-37.37 174,-27.5 180.87,-24.09 188.43,-21.31 196,-19.03"/>
<polygon fill="black" stroke="black" points="118.97,-64.1 114.3,-73.61 123.88,-69.09 118.97,-64.1"/>
</g>
<!-- Node2 -->
<g id="node6" class="node">
<title>Node2</title>
<g id="a_node6"><a xlink:href="group__cio.html" target="_top" xlink:title=" ">
<polygon fill="white" stroke="black" points="34,-93 0,-93 0,-74 34,-74 34,-93"/>
<text text-anchor="middle" x="17" y="-81" font-family="Helvetica,sans-Serif" font-size="10.00">CIO</text>
</a>
</g>
</g>
<!-- Node2&#45;&gt;Node1 -->
<g id="edge1" class="edge">
<title>Node2&#45;&gt;Node1</title>
<path fill="none" stroke="black" d="M44.6,-83.5C52.57,-83.5 61.42,-83.5 69.77,-83.5"/>
<polygon fill="black" stroke="black" points="44.39,-80 34.39,-83.5 44.39,-87 44.39,-80"/>
</g>
</g>
</svg>
