<?xml version="1.0" encoding="UTF-8" standalone="no"?>
<!DOCTYPE svg PUBLIC "-//W3C//DTD SVG 1.1//EN"
 "http://www.w3.org/Graphics/SVG/1.1/DTD/svg11.dtd">
<!-- Generated by graphviz version 2.43.0 (0)
 -->
<!-- Title: VSPD specific API Pages: 1 -->
<svg width="286pt" height="27pt"
 viewBox="0.00 0.00 286.00 27.00" xmlns="http://www.w3.org/2000/svg" xmlns:xlink="http://www.w3.org/1999/xlink">
<g id="graph0" class="graph" transform="scale(1 1) rotate(0) translate(4 23)">
<title>VSPD specific API</title>
<polygon fill="white" stroke="transparent" points="-4,4 -4,-23 282,-23 282,4 -4,4"/>
<!-- Node1 -->
<g id="node1" class="node">
<title>Node1</title>
<g id="a_node1"><a xlink:title="VSPD driver interface.">
<polygon fill="#bfbfbf" stroke="black" points="210,-19 109,-19 109,0 210,0 210,-19"/>
<text text-anchor="middle" x="159.5" y="-7" font-family="Helvetica,sans-Serif" font-size="10.00">VSPD specific API</text>
</a>
</g>
</g>
<!-- Node3 -->
<g id="node2" class="node">
<title>Node3</title>
<g id="a_node2"><a xlink:href="group__VSPDapi.html" target="_top" xlink:title=" ">
<polygon fill="white" stroke="black" points="278,-19 246,-19 246,0 278,0 278,-19"/>
<text text-anchor="middle" x="262" y="-7" font-family="Helvetica,sans-Serif" font-size="10.00">API</text>
</a>
</g>
</g>
<!-- Node1&#45;&gt;Node3 -->
<g id="edge2" class="edge">
<title>Node1&#45;&gt;Node3</title>
<path fill="none" stroke="black" d="M220.21,-9.5C229.74,-9.5 238.81,-9.5 245.96,-9.5"/>
<polygon fill="black" stroke="black" points="220.16,-6 210.16,-9.5 220.16,-13 220.16,-6"/>
</g>
<!-- Node2 -->
<g id="node3" class="node">
<title>Node2</title>
<g id="a_node3"><a xlink:href="group__VSPgroup.html" target="_top" xlink:title="Video Signal Processor (VSP2) driver interface.">
<polygon fill="white" stroke="black" points="73,-19 0,-19 0,0 73,0 73,-19"/>
<text text-anchor="middle" x="36.5" y="-7" font-family="Helvetica,sans-Serif" font-size="10.00">VSP2 driver</text>
</a>
</g>
</g>
<!-- Node2&#45;&gt;Node1 -->
<g id="edge1" class="edge">
<title>Node2&#45;&gt;Node1</title>
<path fill="none" stroke="black" d="M83.39,-9.5C91.68,-9.5 100.37,-9.5 108.76,-9.5"/>
<polygon fill="black" stroke="black" points="83.15,-6 73.15,-9.5 83.15,-13 83.15,-6"/>
</g>
</g>
</svg>
