<?xml version="1.0" encoding="UTF-8" standalone="no"?>
<!DOCTYPE svg PUBLIC "-//W3C//DTD SVG 1.1//EN"
 "http://www.w3.org/Graphics/SVG/1.1/DTD/svg11.dtd">
<!-- Generated by graphviz version 2.43.0 (0)
 -->
<!-- Title: OSAL Generic Type definitions Pages: 1 -->
<svg width="560pt" height="111pt"
 viewBox="0.00 0.00 560.00 110.50" xmlns="http://www.w3.org/2000/svg" xmlns:xlink="http://www.w3.org/1999/xlink">
<g id="graph0" class="graph" transform="scale(1 1) rotate(0) translate(4 106.5)">
<title>OSAL Generic Type definitions</title>
<polygon fill="white" stroke="transparent" points="-4,4 -4,-106.5 556,-106.5 556,4 -4,4"/>
<!-- Node2 -->
<g id="node1" class="node">
<title>Node2</title>
<g id="a_node1"><a xlink:href="group__OSAL__Defines.html" target="_top" xlink:title=" ">
<polygon fill="white" stroke="black" points="64,-57.5 0,-57.5 0,-38.5 64,-38.5 64,-57.5"/>
<text text-anchor="middle" x="32" y="-45.5" font-family="Helvetica,sans-Serif" font-size="10.00">Definition</text>
</a>
</g>
</g>
<!-- Node1 -->
<g id="node4" class="node">
<title>Node1</title>
<g id="a_node4"><a xlink:title=" ">
<polygon fill="#bfbfbf" stroke="black" points="264,-57.5 101,-57.5 101,-38.5 264,-38.5 264,-57.5"/>
<text text-anchor="middle" x="182.5" y="-45.5" font-family="Helvetica,sans-Serif" font-size="10.00">OSAL Generic Type definitions</text>
</a>
</g>
</g>
<!-- Node2&#45;&gt;Node1 -->
<g id="edge1" class="edge">
<title>Node2&#45;&gt;Node1</title>
<path fill="none" stroke="black" d="M74.28,-48C82.63,-48 91.67,-48 100.84,-48"/>
<polygon fill="black" stroke="black" points="74.13,-44.5 64.13,-48 74.13,-51.5 74.13,-44.5"/>
</g>
<!-- Node4 -->
<g id="node2" class="node">
<title>Node4</title>
<g id="a_node2"><a xlink:href="group__OSAL__Public__Types__DevConfig__control.html" target="_top" xlink:title=" ">
<polygon fill="white" stroke="black" points="546,-102.5 418,-102.5 418,-61.5 546,-61.5 546,-102.5"/>
<text text-anchor="start" x="426" y="-90.5" font-family="Helvetica,sans-Serif" font-size="10.00">Device Configurator</text>
<text text-anchor="start" x="426" y="-79.5" font-family="Helvetica,sans-Serif" font-size="10.00"> Public type definitions</text>
<text text-anchor="middle" x="482" y="-68.5" font-family="Helvetica,sans-Serif" font-size="10.00"> (control)</text>
</a>
</g>
</g>
<!-- Node3 -->
<g id="node3" class="node">
<title>Node3</title>
<g id="a_node3"><a xlink:href="group__OSAL__Public__Type__UsrConfig__control.html" target="_top" xlink:title=" ">
<polygon fill="white" stroke="black" points="552,-30 412,-30 412,0 552,0 552,-30"/>
<text text-anchor="start" x="420" y="-18" font-family="Helvetica,sans-Serif" font-size="10.00">User Configurator Public</text>
<text text-anchor="middle" x="482" y="-7" font-family="Helvetica,sans-Serif" font-size="10.00"> type definitions (control)</text>
</a>
</g>
</g>
<!-- Node1&#45;&gt;Node4 -->
<g id="edge3" class="edge">
<title>Node1&#45;&gt;Node4</title>
<path fill="none" stroke="orange" stroke-dasharray="5,2" d="M260.92,-57.51C268.04,-58.37 275.16,-59.2 282,-60 327.4,-65.28 378.67,-70.94 417.8,-75.19"/>
<text text-anchor="middle" x="338" y="-75" font-family="Helvetica,sans-Serif" font-size="10.00">st_osal_device_control</text>
</g>
<!-- Node1&#45;&gt;Node3 -->
<g id="edge2" class="edge">
<title>Node1&#45;&gt;Node3</title>
<path fill="none" stroke="orange" stroke-dasharray="5,2" d="M206.09,-38.44C225.74,-30.67 255.19,-20.31 282,-16 324.81,-9.11 373.47,-8.74 411.96,-10.14"/>
<text text-anchor="middle" x="338" y="-52" font-family="Helvetica,sans-Serif" font-size="10.00">st_osal_thread_control</text>
<text text-anchor="middle" x="338" y="-41" font-family="Helvetica,sans-Serif" font-size="10.00">st_osal_mutex_control</text>
<text text-anchor="middle" x="338" y="-30" font-family="Helvetica,sans-Serif" font-size="10.00">st_osal_cond_control</text>
<text text-anchor="middle" x="338" y="-19" font-family="Helvetica,sans-Serif" font-size="10.00">st_osal_mq_control</text>
</g>
</g>
</svg>
