<?xml version="1.0" encoding="UTF-8" standalone="no"?>
<!DOCTYPE svg PUBLIC "-//W3C//DTD SVG 1.1//EN"
 "http://www.w3.org/Graphics/SVG/1.1/DTD/svg11.dtd">
<!-- Generated by graphviz version 2.43.0 (0)
 -->
<!-- Title: DU driver Pages: 1 -->
<svg width="266pt" height="101pt"
 viewBox="0.00 0.00 266.00 101.00" xmlns="http://www.w3.org/2000/svg" xmlns:xlink="http://www.w3.org/1999/xlink">
<g id="graph0" class="graph" transform="scale(1 1) rotate(0) translate(4 97)">
<title>DU driver</title>
<polygon fill="white" stroke="transparent" points="-4,4 -4,-97 262,-97 262,4 -4,4"/>
<!-- Node1 -->
<g id="node1" class="node">
<title>Node1</title>
<g id="a_node1"><a xlink:title="Declaration of the DU(Display Unit) driver APIs.">
<polygon fill="#bfbfbf" stroke="black" points="151,-56 88,-56 88,-37 151,-37 151,-56"/>
<text text-anchor="middle" x="119.5" y="-44" font-family="Helvetica,sans-Serif" font-size="10.00">DU driver</text>
</a>
</g>
</g>
<!-- Node4 -->
<g id="node2" class="node">
<title>Node4</title>
<g id="a_node2"><a xlink:href="group__DUconsts.html" target="_top" xlink:title=" ">
<polygon fill="white" stroke="black" points="255,-93 190,-93 190,-74 255,-74 255,-93"/>
<text text-anchor="middle" x="222.5" y="-81" font-family="Helvetica,sans-Serif" font-size="10.00">Constants</text>
</a>
</g>
</g>
<!-- Node1&#45;&gt;Node4 -->
<g id="edge3" class="edge">
<title>Node1&#45;&gt;Node4</title>
<path fill="none" stroke="black" d="M156.03,-59.52C168.93,-64.24 183.27,-69.49 195.23,-73.88"/>
<polygon fill="black" stroke="black" points="157.1,-56.18 146.51,-56.03 154.7,-62.75 157.1,-56.18"/>
</g>
<!-- Node3 -->
<g id="node3" class="node">
<title>Node3</title>
<g id="a_node3"><a xlink:href="group__DUapi.html" target="_top" xlink:title=" ">
<polygon fill="white" stroke="black" points="238.5,-56 206.5,-56 206.5,-37 238.5,-37 238.5,-56"/>
<text text-anchor="middle" x="222.5" y="-44" font-family="Helvetica,sans-Serif" font-size="10.00">API</text>
</a>
</g>
</g>
<!-- Node1&#45;&gt;Node3 -->
<g id="edge2" class="edge">
<title>Node1&#45;&gt;Node3</title>
<path fill="none" stroke="black" d="M161.24,-46.5C177.09,-46.5 194.28,-46.5 206.23,-46.5"/>
<polygon fill="black" stroke="black" points="161.08,-43 151.08,-46.5 161.08,-50 161.08,-43"/>
</g>
<!-- Node5 -->
<g id="node5" class="node">
<title>Node5</title>
<g id="a_node5"><a xlink:href="group__DUtypes.html" target="_top" xlink:title=" ">
<polygon fill="white" stroke="black" points="258,-19 187,-19 187,0 258,0 258,-19"/>
<text text-anchor="middle" x="222.5" y="-7" font-family="Helvetica,sans-Serif" font-size="10.00">Data Types</text>
</a>
</g>
</g>
<!-- Node1&#45;&gt;Node5 -->
<g id="edge4" class="edge">
<title>Node1&#45;&gt;Node5</title>
<path fill="none" stroke="black" d="M156.03,-33.48C168.93,-28.76 183.27,-23.51 195.23,-19.12"/>
<polygon fill="black" stroke="black" points="154.7,-30.25 146.51,-36.97 157.1,-36.82 154.7,-30.25"/>
</g>
<!-- Node2 -->
<g id="node4" class="node">
<title>Node2</title>
<g id="a_node4"><a xlink:href="group__drivers.html" target="_top" xlink:title=" ">
<polygon fill="white" stroke="black" points="52,-56 0,-56 0,-37 52,-37 52,-56"/>
<text text-anchor="middle" x="26" y="-44" font-family="Helvetica,sans-Serif" font-size="10.00">Drivers</text>
</a>
</g>
</g>
<!-- Node2&#45;&gt;Node1 -->
<g id="edge1" class="edge">
<title>Node2&#45;&gt;Node1</title>
<path fill="none" stroke="black" d="M62.07,-46.5C70.61,-46.5 79.68,-46.5 87.98,-46.5"/>
<polygon fill="black" stroke="black" points="62,-43 52,-46.5 62,-50 62,-43"/>
</g>
</g>
</svg>
