<?xml version="1.0" encoding="UTF-8" standalone="no"?>
<!DOCTYPE svg PUBLIC "-//W3C//DTD SVG 1.1//EN"
 "http://www.w3.org/Graphics/SVG/1.1/DTD/svg11.dtd">
<!-- Generated by graphviz version 2.43.0 (0)
 -->
<!-- Title: OSAL Pages: 1 -->
<svg width="174pt" height="101pt"
 viewBox="0.00 0.00 174.00 101.00" xmlns="http://www.w3.org/2000/svg" xmlns:xlink="http://www.w3.org/1999/xlink">
<g id="graph0" class="graph" transform="scale(1 1) rotate(0) translate(4 97)">
<title>OSAL</title>
<polygon fill="white" stroke="transparent" points="-4,4 -4,-97 170,-97 170,4 -4,4"/>
<!-- Node3 -->
<g id="node1" class="node">
<title>Node3</title>
<g id="a_node1"><a xlink:href="group__OSAL__API.html" target="_top" xlink:title=" ">
<polygon fill="white" stroke="black" points="153.5,-93 91.5,-93 91.5,-74 153.5,-74 153.5,-93"/>
<text text-anchor="middle" x="122.5" y="-81" font-family="Helvetica,sans-Serif" font-size="10.00">OSAL API</text>
</a>
</g>
</g>
<!-- Node4 -->
<g id="node2" class="node">
<title>Node4</title>
<g id="a_node2"><a xlink:href="group__osal__wrapper.html" target="_top" xlink:title=" ">
<polygon fill="white" stroke="black" points="166,-56 79,-56 79,-37 166,-37 166,-56"/>
<text text-anchor="middle" x="122.5" y="-44" font-family="Helvetica,sans-Serif" font-size="10.00">OSAL Wrapper</text>
</a>
</g>
</g>
<!-- Node1 -->
<g id="node3" class="node">
<title>Node1</title>
<g id="a_node3"><a xlink:title=" ">
<polygon fill="#bfbfbf" stroke="black" points="43,-56 0,-56 0,-37 43,-37 43,-56"/>
<text text-anchor="middle" x="21.5" y="-44" font-family="Helvetica,sans-Serif" font-size="10.00">OSAL</text>
</a>
</g>
</g>
<!-- Node1&#45;&gt;Node3 -->
<g id="edge2" class="edge">
<title>Node1&#45;&gt;Node3</title>
<path fill="none" stroke="black" d="M52.55,-57.73C66.33,-62.88 82.5,-68.93 95.72,-73.87"/>
<polygon fill="black" stroke="black" points="53.61,-54.39 43.01,-54.17 51.15,-60.95 53.61,-54.39"/>
</g>
<!-- Node1&#45;&gt;Node4 -->
<g id="edge3" class="edge">
<title>Node1&#45;&gt;Node4</title>
<path fill="none" stroke="black" d="M53.18,-46.5C61.34,-46.5 70.3,-46.5 78.97,-46.5"/>
<polygon fill="black" stroke="black" points="53.01,-43 43.01,-46.5 53.01,-50 53.01,-43"/>
</g>
<!-- Node2 -->
<g id="node4" class="node">
<title>Node2</title>
<g id="a_node4"><a xlink:href="group__OSAL__Defines.html" target="_top" xlink:title=" ">
<polygon fill="white" stroke="black" points="154.5,-19 90.5,-19 90.5,0 154.5,0 154.5,-19"/>
<text text-anchor="middle" x="122.5" y="-7" font-family="Helvetica,sans-Serif" font-size="10.00">Definition</text>
</a>
</g>
</g>
<!-- Node1&#45;&gt;Node2 -->
<g id="edge1" class="edge">
<title>Node1&#45;&gt;Node2</title>
<path fill="none" stroke="black" d="M52.55,-35.27C66.33,-30.12 82.5,-24.07 95.72,-19.13"/>
<polygon fill="black" stroke="black" points="51.15,-32.05 43.01,-38.83 53.61,-38.61 51.15,-32.05"/>
</g>
</g>
</svg>
