<?xml version="1.0" encoding="UTF-8" standalone="no"?>
<!DOCTYPE svg PUBLIC "-//W3C//DTD SVG 1.1//EN"
 "http://www.w3.org/Graphics/SVG/1.1/DTD/svg11.dtd">
<!-- Generated by graphviz version 2.43.0 (0)
 -->
<!-- Title: PRR driver Pages: 1 -->
<svg width="271pt" height="64pt"
 viewBox="0.00 0.00 271.00 64.00" xmlns="http://www.w3.org/2000/svg" xmlns:xlink="http://www.w3.org/1999/xlink">
<g id="graph0" class="graph" transform="scale(1 1) rotate(0) translate(4 60)">
<title>PRR driver</title>
<polygon fill="white" stroke="transparent" points="-4,4 -4,-60 267,-60 267,4 -4,4"/>
<!-- Node3 -->
<g id="node1" class="node">
<title>Node3</title>
<g id="a_node1"><a xlink:href="group__PRRapi.html" target="_top" xlink:title=" ">
<polygon fill="white" stroke="black" points="243.5,-56 211.5,-56 211.5,-37 243.5,-37 243.5,-56"/>
<text text-anchor="middle" x="227.5" y="-44" font-family="Helvetica,sans-Serif" font-size="10.00">API</text>
</a>
</g>
</g>
<!-- Node2 -->
<g id="node2" class="node">
<title>Node2</title>
<g id="a_node2"><a xlink:href="group__drivers.html" target="_top" xlink:title=" ">
<polygon fill="white" stroke="black" points="52,-37 0,-37 0,-18 52,-18 52,-37"/>
<text text-anchor="middle" x="26" y="-25" font-family="Helvetica,sans-Serif" font-size="10.00">Drivers</text>
</a>
</g>
</g>
<!-- Node1 -->
<g id="node4" class="node">
<title>Node1</title>
<g id="a_node4"><a xlink:title="Product Read Register (PRR) driver interface.">
<polygon fill="#bfbfbf" stroke="black" points="156,-37 88,-37 88,-18 156,-18 156,-37"/>
<text text-anchor="middle" x="122" y="-25" font-family="Helvetica,sans-Serif" font-size="10.00">PRR driver</text>
</a>
</g>
</g>
<!-- Node2&#45;&gt;Node1 -->
<g id="edge1" class="edge">
<title>Node2&#45;&gt;Node1</title>
<path fill="none" stroke="black" d="M62.43,-27.5C70.8,-27.5 79.69,-27.5 87.95,-27.5"/>
<polygon fill="black" stroke="black" points="62.19,-24 52.19,-27.5 62.19,-31 62.19,-24"/>
</g>
<!-- Node4 -->
<g id="node3" class="node">
<title>Node4</title>
<g id="a_node3"><a xlink:href="group__PRRtypes.html" target="_top" xlink:title=" ">
<polygon fill="white" stroke="black" points="263,-19 192,-19 192,0 263,0 263,-19"/>
<text text-anchor="middle" x="227.5" y="-7" font-family="Helvetica,sans-Serif" font-size="10.00">Data Types</text>
</a>
</g>
</g>
<!-- Node1&#45;&gt;Node3 -->
<g id="edge2" class="edge">
<title>Node1&#45;&gt;Node3</title>
<path fill="none" stroke="black" d="M165.88,-35.37C182.04,-38.34 199.39,-41.52 211.37,-43.72"/>
<polygon fill="black" stroke="black" points="166.5,-31.93 156.03,-33.56 165.24,-38.81 166.5,-31.93"/>
</g>
<!-- Node1&#45;&gt;Node4 -->
<g id="edge3" class="edge">
<title>Node1&#45;&gt;Node4</title>
<path fill="none" stroke="black" d="M165.99,-20.02C174.66,-18.52 183.67,-16.95 192,-15.5"/>
<polygon fill="black" stroke="black" points="165.29,-16.59 156.03,-21.76 166.48,-23.49 165.29,-16.59"/>
</g>
</g>
</svg>
