<?xml version="1.0" encoding="UTF-8" standalone="no"?>
<!DOCTYPE svg PUBLIC "-//W3C//DTD SVG 1.1//EN"
 "http://www.w3.org/Graphics/SVG/1.1/DTD/svg11.dtd">
<!-- Generated by graphviz version 2.43.0 (0)
 -->
<!-- Title: DOC driver Pages: 1 -->
<svg width="273pt" height="64pt"
 viewBox="0.00 0.00 273.00 64.00" xmlns="http://www.w3.org/2000/svg" xmlns:xlink="http://www.w3.org/1999/xlink">
<g id="graph0" class="graph" transform="scale(1 1) rotate(0) translate(4 60)">
<title>DOC driver</title>
<polygon fill="white" stroke="transparent" points="-4,4 -4,-60 269,-60 269,4 -4,4"/>
<!-- Node1 -->
<g id="node1" class="node">
<title>Node1</title>
<g id="a_node1"><a xlink:title="DOC(Display Output Checker) driver interface.">
<polygon fill="#bfbfbf" stroke="black" points="158,-37 88,-37 88,-18 158,-18 158,-37"/>
<text text-anchor="middle" x="123" y="-25" font-family="Helvetica,sans-Serif" font-size="10.00">DOC driver</text>
</a>
</g>
</g>
<!-- Node3 -->
<g id="node3" class="node">
<title>Node3</title>
<g id="a_node3"><a xlink:href="group__DOCapi.html" target="_top" xlink:title=" ">
<polygon fill="white" stroke="black" points="245.5,-56 213.5,-56 213.5,-37 245.5,-37 245.5,-56"/>
<text text-anchor="middle" x="229.5" y="-44" font-family="Helvetica,sans-Serif" font-size="10.00">API</text>
</a>
</g>
</g>
<!-- Node1&#45;&gt;Node3 -->
<g id="edge2" class="edge">
<title>Node1&#45;&gt;Node3</title>
<path fill="none" stroke="black" d="M168.11,-35.52C184.31,-38.47 201.58,-41.61 213.48,-43.77"/>
<polygon fill="black" stroke="black" points="168.68,-32.07 158.22,-33.72 167.43,-38.95 168.68,-32.07"/>
</g>
<!-- Node4 -->
<g id="node4" class="node">
<title>Node4</title>
<g id="a_node4"><a xlink:href="group__DOCtypes.html" target="_top" xlink:title=" ">
<polygon fill="white" stroke="black" points="265,-19 194,-19 194,0 265,0 265,-19"/>
<text text-anchor="middle" x="229.5" y="-7" font-family="Helvetica,sans-Serif" font-size="10.00">Data Types</text>
</a>
</g>
</g>
<!-- Node1&#45;&gt;Node4 -->
<g id="edge3" class="edge">
<title>Node1&#45;&gt;Node4</title>
<path fill="none" stroke="black" d="M168.11,-19.9C176.71,-18.42 185.61,-16.89 193.85,-15.47"/>
<polygon fill="black" stroke="black" points="167.48,-16.46 158.22,-21.61 168.67,-23.36 167.48,-16.46"/>
</g>
<!-- Node2 -->
<g id="node2" class="node">
<title>Node2</title>
<g id="a_node2"><a xlink:href="group__drivers.html" target="_top" xlink:title=" ">
<polygon fill="white" stroke="black" points="52,-37 0,-37 0,-18 52,-18 52,-37"/>
<text text-anchor="middle" x="26" y="-25" font-family="Helvetica,sans-Serif" font-size="10.00">Drivers</text>
</a>
</g>
</g>
<!-- Node2&#45;&gt;Node1 -->
<g id="edge1" class="edge">
<title>Node2&#45;&gt;Node1</title>
<path fill="none" stroke="black" d="M62.59,-27.5C70.88,-27.5 79.68,-27.5 87.89,-27.5"/>
<polygon fill="black" stroke="black" points="62.46,-24 52.46,-27.5 62.46,-31 62.46,-24"/>
</g>
</g>
</svg>
