<?xml version="1.0" encoding="UTF-8" standalone="no"?>
<!DOCTYPE svg PUBLIC "-//W3C//DTD SVG 1.1//EN"
 "http://www.w3.org/Graphics/SVG/1.1/DTD/svg11.dtd">
<!-- Generated by graphviz version 2.43.0 (0)
 -->
<!-- Title: LVDS driver Pages: 1 -->
<svg width="237pt" height="27pt"
 viewBox="0.00 0.00 237.00 27.00" xmlns="http://www.w3.org/2000/svg" xmlns:xlink="http://www.w3.org/1999/xlink">
<g id="graph0" class="graph" transform="scale(1 1) rotate(0) translate(4 23)">
<title>LVDS driver</title>
<polygon fill="white" stroke="transparent" points="-4,4 -4,-23 233,-23 233,4 -4,4"/>
<!-- Node1 -->
<g id="node1" class="node">
<title>Node1</title>
<g id="a_node1"><a xlink:title="LVDS driver interface for R&#45;Car E3.">
<polygon fill="#bfbfbf" stroke="black" points="161,-19 88,-19 88,0 161,0 161,-19"/>
<text text-anchor="middle" x="124.5" y="-7" font-family="Helvetica,sans-Serif" font-size="10.00">LVDS driver</text>
</a>
</g>
</g>
<!-- Node3 -->
<g id="node3" class="node">
<title>Node3</title>
<g id="a_node3"><a xlink:href="group__LVDSapi.html" target="_top" xlink:title=" ">
<polygon fill="white" stroke="black" points="229,-19 197,-19 197,0 229,0 229,-19"/>
<text text-anchor="middle" x="213" y="-7" font-family="Helvetica,sans-Serif" font-size="10.00">API</text>
</a>
</g>
</g>
<!-- Node1&#45;&gt;Node3 -->
<g id="edge2" class="edge">
<title>Node1&#45;&gt;Node3</title>
<path fill="none" stroke="black" d="M171.22,-9.5C180.5,-9.5 189.62,-9.5 196.87,-9.5"/>
<polygon fill="black" stroke="black" points="171.18,-6 161.18,-9.5 171.18,-13 171.18,-6"/>
</g>
<!-- Node2 -->
<g id="node2" class="node">
<title>Node2</title>
<g id="a_node2"><a xlink:href="group__drivers.html" target="_top" xlink:title=" ">
<polygon fill="white" stroke="black" points="52,-19 0,-19 0,0 52,0 52,-19"/>
<text text-anchor="middle" x="26" y="-7" font-family="Helvetica,sans-Serif" font-size="10.00">Drivers</text>
</a>
</g>
</g>
<!-- Node2&#45;&gt;Node1 -->
<g id="edge1" class="edge">
<title>Node2&#45;&gt;Node1</title>
<path fill="none" stroke="black" d="M62.32,-9.5C70.69,-9.5 79.61,-9.5 87.99,-9.5"/>
<polygon fill="black" stroke="black" points="62.1,-6 52.1,-9.5 62.1,-13 62.1,-6"/>
</g>
</g>
</svg>
