<?xml version="1.0" encoding="us-ascii" standalone="no"?><svg xmlns="http://www.w3.org/2000/svg" xmlns:xlink="http://www.w3.org/1999/xlink" contentStyleType="text/css" height="605px" preserveAspectRatio="none" style="width:1177px;height:605px;background:#FFFFFF;" version="1.1" viewBox="0 0 1177 605" width="1177px" zoomAndPan="magnify"><defs/><g><rect fill="none" height="252.7969" style="stroke:#000000;stroke-width:1.5;" width="917.5" x="254" y="213.125"/><line style="stroke:#181818;stroke-width:0.5;stroke-dasharray:5.0,5.0;" x1="42" x2="42" y1="52.5938" y2="554.1875"/><line style="stroke:#181818;stroke-width:0.5;stroke-dasharray:5.0,5.0;" x1="171" x2="171" y1="52.5938" y2="554.1875"/><line style="stroke:#181818;stroke-width:0.5;stroke-dasharray:5.0,5.0;" x1="337" x2="337" y1="52.5938" y2="554.1875"/><line style="stroke:#181818;stroke-width:0.5;stroke-dasharray:5.0,5.0;" x1="577" x2="577" y1="52.5938" y2="554.1875"/><line style="stroke:#181818;stroke-width:0.5;stroke-dasharray:5.0,5.0;" x1="733.5" x2="733.5" y1="52.5938" y2="554.1875"/><line style="stroke:#181818;stroke-width:0.5;stroke-dasharray:5.0,5.0;" x1="825.5" x2="825.5" y1="52.5938" y2="554.1875"/><line style="stroke:#181818;stroke-width:0.5;stroke-dasharray:5.0,5.0;" x1="931.5" x2="931.5" y1="52.5938" y2="554.1875"/><line style="stroke:#181818;stroke-width:0.5;stroke-dasharray:5.0,5.0;" x1="1029.5" x2="1029.5" y1="52.5938" y2="554.1875"/><line style="stroke:#181818;stroke-width:0.5;stroke-dasharray:5.0,5.0;" x1="1121.5" x2="1121.5" y1="52.5938" y2="554.1875"/><rect fill="#E2E2F0" height="30.2969" rx="2.5" ry="2.5" style="stroke:#181818;stroke-width:0.5;" width="74" x="5" y="21.2969"/><text fill="#000000" font-family="sans-serif" font-size="14" lengthAdjust="spacing" textLength="60" x="12" y="41.292">CR7 App</text><rect fill="#E2E2F0" height="30.2969" rx="2.5" ry="2.5" style="stroke:#181818;stroke-width:0.5;" width="74" x="5" y="553.1875"/><text fill="#000000" font-family="sans-serif" font-size="14" lengthAdjust="spacing" textLength="60" x="12" y="573.1826">CR7 App</text><rect fill="#E2E2F0" height="46.5938" rx="2.5" ry="2.5" style="stroke:#181818;stroke-width:0.5;" width="165" x="89" y="5"/><text fill="#000000" font-family="sans-serif" font-size="14" lengthAdjust="spacing" textLength="85" x="127" y="24.9951">Taurus Task</text><text fill="#000000" font-family="sans-serif" font-size="14" lengthAdjust="spacing" textLength="151" x="96" y="41.292">(loc_TaurusMainLoop)</text><rect fill="#E2E2F0" height="46.5938" rx="2.5" ry="2.5" style="stroke:#181818;stroke-width:0.5;" width="165" x="89" y="553.1875"/><text fill="#000000" font-family="sans-serif" font-size="14" lengthAdjust="spacing" textLength="85" x="127" y="573.1826">Taurus Task</text><text fill="#000000" font-family="sans-serif" font-size="14" lengthAdjust="spacing" textLength="151" x="96" y="589.4795">(loc_TaurusMainLoop)</text><rect fill="#E2E2F0" height="46.5938" rx="2.5" ry="2.5" style="stroke:#181818;stroke-width:0.5;" width="147" x="264" y="5"/><text fill="#000000" font-family="sans-serif" font-size="14" lengthAdjust="spacing" textLength="113" x="279" y="24.9951">COM Sever Task</text><text fill="#000000" font-family="sans-serif" font-size="14" lengthAdjust="spacing" textLength="133" x="271" y="41.292">(locComServerApp)</text><rect fill="#E2E2F0" height="46.5938" rx="2.5" ry="2.5" style="stroke:#181818;stroke-width:0.5;" width="147" x="264" y="553.1875"/><text fill="#000000" font-family="sans-serif" font-size="14" lengthAdjust="spacing" textLength="113" x="279" y="573.1826">COM Sever Task</text><text fill="#000000" font-family="sans-serif" font-size="14" lengthAdjust="spacing" textLength="133" x="271" y="589.4795">(locComServerApp)</text><rect fill="#E2E2F0" height="30.2969" rx="2.5" ry="2.5" style="stroke:#181818;stroke-width:0.5;" width="63" x="546" y="21.2969"/><text fill="#000000" font-family="sans-serif" font-size="14" lengthAdjust="spacing" textLength="49" x="553" y="41.292">COMAL</text><rect fill="#E2E2F0" height="30.2969" rx="2.5" ry="2.5" style="stroke:#181818;stroke-width:0.5;" width="63" x="546" y="553.1875"/><text fill="#000000" font-family="sans-serif" font-size="14" lengthAdjust="spacing" textLength="49" x="553" y="573.1826">COMAL</text><rect fill="#E2E2F0" height="30.2969" rx="2.5" ry="2.5" style="stroke:#181818;stroke-width:0.5;" width="62" x="702.5" y="21.2969"/><text fill="#000000" font-family="sans-serif" font-size="14" lengthAdjust="spacing" textLength="48" x="709.5" y="41.292">RPMsg</text><rect fill="#E2E2F0" height="30.2969" rx="2.5" ry="2.5" style="stroke:#181818;stroke-width:0.5;" width="62" x="702.5" y="553.1875"/><text fill="#000000" font-family="sans-serif" font-size="14" lengthAdjust="spacing" textLength="48" x="709.5" y="573.1826">RPMsg</text><rect fill="#E2E2F0" height="30.2969" rx="2.5" ry="2.5" style="stroke:#181818;stroke-width:0.5;" width="102" x="774.5" y="21.2969"/><text fill="#000000" font-family="sans-serif" font-size="14" lengthAdjust="spacing" textLength="88" x="781.5" y="41.292">RVGC Server</text><rect fill="#E2E2F0" height="30.2969" rx="2.5" ry="2.5" style="stroke:#181818;stroke-width:0.5;" width="102" x="774.5" y="553.1875"/><text fill="#000000" font-family="sans-serif" font-size="14" lengthAdjust="spacing" textLength="88" x="781.5" y="573.1826">RVGC Server</text><rect fill="#E2E2F0" height="30.2969" rx="2.5" ry="2.5" style="stroke:#181818;stroke-width:0.5;" width="91" x="886.5" y="21.2969"/><text fill="#000000" font-family="sans-serif" font-size="14" lengthAdjust="spacing" textLength="77" x="893.5" y="41.292">CAN Server</text><rect fill="#E2E2F0" height="30.2969" rx="2.5" ry="2.5" style="stroke:#181818;stroke-width:0.5;" width="91" x="886.5" y="553.1875"/><text fill="#000000" font-family="sans-serif" font-size="14" lengthAdjust="spacing" textLength="77" x="893.5" y="573.1826">CAN Server</text><rect fill="#E2E2F0" height="30.2969" rx="2.5" ry="2.5" style="stroke:#181818;stroke-width:0.5;" width="84" x="987.5" y="21.2969"/><text fill="#000000" font-family="sans-serif" font-size="14" lengthAdjust="spacing" textLength="70" x="994.5" y="41.292">VIN Server</text><rect fill="#E2E2F0" height="30.2969" rx="2.5" ry="2.5" style="stroke:#181818;stroke-width:0.5;" width="84" x="987.5" y="553.1875"/><text fill="#000000" font-family="sans-serif" font-size="14" lengthAdjust="spacing" textLength="70" x="994.5" y="573.1826">VIN Server</text><rect fill="#E2E2F0" height="30.2969" rx="2.5" ry="2.5" style="stroke:#181818;stroke-width:0.5;" width="80" x="1081.5" y="21.2969"/><text fill="#000000" font-family="sans-serif" font-size="14" lengthAdjust="spacing" textLength="66" x="1088.5" y="41.292">CA5x App</text><rect fill="#E2E2F0" height="30.2969" rx="2.5" ry="2.5" style="stroke:#181818;stroke-width:0.5;" width="80" x="1081.5" y="553.1875"/><text fill="#000000" font-family="sans-serif" font-size="14" lengthAdjust="spacing" textLength="66" x="1088.5" y="573.1826">CA5x App</text><polygon fill="#181818" points="159.5,79.7266,169.5,83.7266,159.5,87.7266,163.5,83.7266" style="stroke:#181818;stroke-width:1.0;"/><line style="stroke:#181818;stroke-width:1.0;" x1="42" x2="165.5" y1="83.7266" y2="83.7266"/><text fill="#000000" font-family="sans-serif" font-size="13" lengthAdjust="spacing" textLength="90" x="49" y="78.6606">taurus_main()</text><polygon fill="#181818" points="325.5,108.8594,335.5,112.8594,325.5,116.8594,329.5,112.8594" style="stroke:#181818;stroke-width:1.0;"/><line style="stroke:#181818;stroke-width:1.0;" x1="171.5" x2="331.5" y1="112.8594" y2="112.8594"/><text fill="#000000" font-family="sans-serif" font-size="13" lengthAdjust="spacing" textLength="99" x="178.5" y="107.7935">R_COMSV_Init()</text><polygon fill="#181818" points="565.5,137.9922,575.5,141.9922,565.5,145.9922,569.5,141.9922" style="stroke:#181818;stroke-width:1.0;"/><line style="stroke:#181818;stroke-width:1.0;" x1="337.5" x2="571.5" y1="141.9922" y2="141.9922"/><text fill="#000000" font-family="sans-serif" font-size="13" lengthAdjust="spacing" textLength="127" x="344.5" y="136.9263">R_RTE_COMAL_Init()</text><line style="stroke:#181818;stroke-width:1.0;" x1="577.5" x2="619.5" y1="171.125" y2="171.125"/><line style="stroke:#181818;stroke-width:1.0;" x1="619.5" x2="619.5" y1="171.125" y2="184.125"/><line style="stroke:#181818;stroke-width:1.0;" x1="578.5" x2="619.5" y1="184.125" y2="184.125"/><polygon fill="#181818" points="588.5,180.125,578.5,184.125,588.5,188.125,584.5,184.125" style="stroke:#181818;stroke-width:1.0;"/><text fill="#000000" font-family="sans-serif" font-size="13" lengthAdjust="spacing" textLength="142" x="584.5" y="166.0591">Wait for CA5x virtio OK</text><ellipse cx="577" cy="197.375" fill="none" rx="4" ry="4" style="stroke:#0000FF;stroke-width:1.5;"/><polygon fill="#0000FF" points="594,194.125,584,198.125,594,202.125,590,198.125" style="stroke:#0000FF;stroke-width:1.0;"/><line style="stroke:#0000FF;stroke-width:1.0;stroke-dasharray:2.0,2.0;" x1="592" x2="1120.5" y1="198.125" y2="198.125"/><path d="M254,213.125 L331,213.125 L331,220.2578 L321,230.2578 L254,230.2578 L254,213.125 " fill="#EEEEEE" style="stroke:#000000;stroke-width:1.5;"/><rect fill="none" height="252.7969" style="stroke:#000000;stroke-width:1.5;" width="917.5" x="254" y="213.125"/><text fill="#000000" font-family="sans-serif" font-size="13" font-weight="bold" lengthAdjust="spacing" textLength="32" x="269" y="226.1919">loop</text><polygon fill="#181818" points="721.5,247.3906,731.5,251.3906,721.5,255.3906,725.5,251.3906" style="stroke:#181818;stroke-width:1.0;"/><line style="stroke:#181818;stroke-width:1.0;" x1="337.5" x2="727.5" y1="251.3906" y2="251.3906"/><text fill="#000000" font-family="sans-serif" font-size="13" lengthAdjust="spacing" textLength="170" x="344.5" y="246.3247">R_RTE_COMAL_ReadCmd()</text><ellipse cx="733" cy="264.6406" fill="none" rx="4" ry="4" style="stroke:#0000FF;stroke-width:1.5;"/><polygon fill="#0000FF" points="750,261.3906,740,265.3906,750,269.3906,746,265.3906" style="stroke:#0000FF;stroke-width:1.0;"/><line style="stroke:#0000FF;stroke-width:1.0;stroke-dasharray:2.0,2.0;" x1="748" x2="1120.5" y1="265.3906" y2="265.3906"/><polygon fill="#181818" points="588.5,275.3906,578.5,279.3906,588.5,283.3906,584.5,279.3906" style="stroke:#181818;stroke-width:1.0;"/><line style="stroke:#181818;stroke-width:1.0;stroke-dasharray:2.0,2.0;" x1="582.5" x2="732.5" y1="279.3906" y2="279.3906"/><polygon fill="#181818" points="348.5,289.3906,338.5,293.3906,348.5,297.3906,344.5,293.3906" style="stroke:#181818;stroke-width:1.0;"/><line style="stroke:#181818;stroke-width:1.0;stroke-dasharray:2.0,2.0;" x1="342.5" x2="576.5" y1="293.3906" y2="293.3906"/><polygon fill="#181818" points="565.5,318.5234,575.5,322.5234,565.5,326.5234,569.5,322.5234" style="stroke:#181818;stroke-width:1.0;"/><line style="stroke:#181818;stroke-width:1.0;" x1="337.5" x2="571.5" y1="322.5234" y2="322.5234"/><text fill="#000000" font-family="sans-serif" font-size="13" lengthAdjust="spacing" textLength="206" x="344.5" y="317.4575">R_RTE_COMAL_SendResult(ACK)</text><polygon fill="#181818" points="721.5,332.5234,731.5,336.5234,721.5,340.5234,725.5,336.5234" style="stroke:#181818;stroke-width:1.0;"/><line style="stroke:#181818;stroke-width:1.0;" x1="577.5" x2="727.5" y1="336.5234" y2="336.5234"/><polygon fill="#181818" points="813.5,372.2227,823.5,376.2227,813.5,380.2227,817.5,376.2227" style="stroke:#181818;stroke-width:1.0;"/><line style="stroke:#181818;stroke-width:1.0;" x1="337.5" x2="819.5" y1="376.2227" y2="376.2227"/><text fill="#000000" font-family="sans-serif" font-size="13" lengthAdjust="spacing" textLength="61" x="344.5" y="371.1567">Execute()</text><path d="M830,349.5234 L830,389.5234 L1044,389.5234 L1044,359.5234 L1034,349.5234 L830,349.5234 " fill="#FEFFDD" style="stroke:#181818;stroke-width:0.5;"/><path d="M1034,349.5234 L1034,359.5234 L1044,359.5234 L1034,349.5234 " fill="#FEFFDD" style="stroke:#181818;stroke-width:0.5;"/><text fill="#000000" font-family="sans-serif" font-size="13" lengthAdjust="spacing" textLength="189" x="836" y="366.5903">The target server depends on</text><text fill="#000000" font-family="sans-serif" font-size="13" lengthAdjust="spacing" textLength="191" x="836" y="381.7231">the contents of the command</text><polygon fill="#181818" points="348.5,396.7891,338.5,400.7891,348.5,404.7891,344.5,400.7891" style="stroke:#181818;stroke-width:1.0;"/><line style="stroke:#181818;stroke-width:1.0;stroke-dasharray:2.0,2.0;" x1="342.5" x2="824.5" y1="400.7891" y2="400.7891"/><polygon fill="#181818" points="565.5,425.9219,575.5,429.9219,565.5,433.9219,569.5,429.9219" style="stroke:#181818;stroke-width:1.0;"/><line style="stroke:#181818;stroke-width:1.0;" x1="337.5" x2="571.5" y1="429.9219" y2="429.9219"/><text fill="#000000" font-family="sans-serif" font-size="13" lengthAdjust="spacing" textLength="216" x="344.5" y="424.856">R_RTE_COMAL_SendResult(result)</text><polygon fill="#181818" points="721.5,439.9219,731.5,443.9219,721.5,447.9219,725.5,443.9219" style="stroke:#181818;stroke-width:1.0;"/><line style="stroke:#181818;stroke-width:1.0;" x1="577.5" x2="727.5" y1="443.9219" y2="443.9219"/><ellipse cx="733" cy="457.1719" fill="none" rx="4" ry="4" style="stroke:#0000FF;stroke-width:1.5;"/><polygon fill="#0000FF" points="1109.5,453.9219,1119.5,457.9219,1109.5,461.9219,1113.5,457.9219" style="stroke:#0000FF;stroke-width:1.0;"/><line style="stroke:#0000FF;stroke-width:1.0;stroke-dasharray:2.0,2.0;" x1="737.5" x2="1115.5" y1="457.9219" y2="457.9219"/><line style="stroke:#181818;stroke-width:1.0;" x1="171.5" x2="213.5" y1="494.0547" y2="494.0547"/><line style="stroke:#181818;stroke-width:1.0;" x1="213.5" x2="213.5" y1="494.0547" y2="507.0547"/><line style="stroke:#181818;stroke-width:1.0;" x1="172.5" x2="213.5" y1="507.0547" y2="507.0547"/><polygon fill="#181818" points="182.5,503.0547,172.5,507.0547,182.5,511.0547,178.5,507.0547" style="stroke:#181818;stroke-width:1.0;"/><text fill="#000000" font-family="sans-serif" font-size="13" lengthAdjust="spacing" textLength="103" x="178.5" y="488.9888">Wait for quit flag</text><polygon fill="#181818" points="325.5,532.1875,335.5,536.1875,325.5,540.1875,329.5,536.1875" style="stroke:#181818;stroke-width:1.0;"/><line style="stroke:#181818;stroke-width:1.0;" x1="171.5" x2="331.5" y1="536.1875" y2="536.1875"/><text fill="#000000" font-family="sans-serif" font-size="13" lengthAdjust="spacing" textLength="117" x="178.5" y="531.1216">R_COMSV_DeInit()</text><!--SRC=[jLHDRu905BppArxQYnuuzCFQ6cD2g6cCMXiWzj0sP0ihai8kNHRZp-_k0Wfe6aZQ4-vxCxFZy1u02M8yzC844GuNfZK48qakW38VCxZIeDvtKCQo51oKVi4xwKNKS_FI4eLaGMdIBwdNJQgvMeADTw9LOPiqjZ4JHN7fWNfpXceiokvjiskzBDEWx0vEkkid4_8xIipTYRxnt80Ccv3rh0cvFrKPxAlXFMYQW1mZrIVjyXi1LoKt5hLUNsgqeKdvDXcFm785pbwxCnBoNByDhz2NBq9AMCxKLSUwZ6pNaAyevB2X35Gykr04Hc4rhy3fM7-x_8mo_A5NGfJP1Onc2KJY_ub3Uvjg81ecBOnyC_QLJpZEpFchoykakx6kb_3s9XGf5-Za_7p0DYQ-XTCiuZt3dFThzYIfgpl5gQx52APxx6KS5_4GoZ6mCDXoTGHmjbWC9GimXrHnmCU9S9K29L1WkC1ub71Ck2XlYdCS8-8hX80huOufLet-RPPCFNwFivoJmvXCwdCYrBGk2zfk_myxyvt97n4A_kyZy8Zp_Vq1]--></g></svg>