<?xml version="1.0" encoding="us-ascii" standalone="no"?><svg xmlns="http://www.w3.org/2000/svg" xmlns:xlink="http://www.w3.org/1999/xlink" contentStyleType="text/css" height="468px" preserveAspectRatio="none" style="width:1142px;height:468px;background:#FFFFFF;" version="1.1" viewBox="0 0 1142 468" width="1142px" zoomAndPan="magnify"><defs/><g><rect fill="none" height="220.1953" style="stroke:#000000;stroke-width:1.5;" width="812" x="79" y="179.2578"/><line style="stroke:#181818;stroke-width:0.5;stroke-dasharray:5.0,5.0;" x1="42" x2="42" y1="52.5938" y2="416.4531"/><line style="stroke:#181818;stroke-width:0.5;stroke-dasharray:5.0,5.0;" x1="158" x2="158" y1="52.5938" y2="416.4531"/><line style="stroke:#181818;stroke-width:0.5;stroke-dasharray:5.0,5.0;" x1="460.5" x2="460.5" y1="52.5938" y2="416.4531"/><line style="stroke:#181818;stroke-width:0.5;stroke-dasharray:5.0,5.0;" x1="635.5" x2="635.5" y1="52.5938" y2="416.4531"/><line style="stroke:#181818;stroke-width:0.5;stroke-dasharray:5.0,5.0;" x1="810.5" x2="810.5" y1="52.5938" y2="416.4531"/><line style="stroke:#181818;stroke-width:0.5;stroke-dasharray:5.0,5.0;" x1="955.5" x2="955.5" y1="52.5938" y2="416.4531"/><line style="stroke:#181818;stroke-width:0.5;stroke-dasharray:5.0,5.0;" x1="1085.5" x2="1085.5" y1="52.5938" y2="416.4531"/><rect fill="#E2E2F0" height="30.2969" rx="2.5" ry="2.5" style="stroke:#181818;stroke-width:0.5;" width="74" x="5" y="21.2969"/><text fill="#000000" font-family="sans-serif" font-size="14" lengthAdjust="spacing" textLength="60" x="12" y="41.292">CR7 App</text><rect fill="#E2E2F0" height="30.2969" rx="2.5" ry="2.5" style="stroke:#181818;stroke-width:0.5;" width="74" x="5" y="415.4531"/><text fill="#000000" font-family="sans-serif" font-size="14" lengthAdjust="spacing" textLength="60" x="12" y="435.4482">CR7 App</text><rect fill="#E2E2F0" height="46.5938" rx="2.5" ry="2.5" style="stroke:#181818;stroke-width:0.5;" width="139" x="89" y="5"/><text fill="#000000" font-family="sans-serif" font-size="14" lengthAdjust="spacing" textLength="97" x="108" y="24.9951">CIO Main Task</text><text fill="#000000" font-family="sans-serif" font-size="14" lengthAdjust="spacing" textLength="125" x="96" y="41.292">(loc_CioMainLoop)</text><rect fill="#E2E2F0" height="46.5938" rx="2.5" ry="2.5" style="stroke:#181818;stroke-width:0.5;" width="139" x="89" y="415.4531"/><text fill="#000000" font-family="sans-serif" font-size="14" lengthAdjust="spacing" textLength="97" x="108" y="435.4482">CIO Main Task</text><text fill="#000000" font-family="sans-serif" font-size="14" lengthAdjust="spacing" textLength="125" x="96" y="451.7451">(loc_CioMainLoop)</text><path d="M398.5,26.2969 L522.5,26.2969 C527.5,26.2969 527.5,39.4453 527.5,39.4453 C527.5,39.4453 527.5,52.5938 522.5,52.5938 L398.5,52.5938 C393.5,52.5938 393.5,39.4453 393.5,39.4453 C393.5,39.4453 393.5,26.2969 398.5,26.2969 " fill="#E2E2F0" style="stroke:#181818;stroke-width:0.5;"/><path d="M522.5,26.2969 C517.5,26.2969 517.5,39.4453 517.5,39.4453 C517.5,52.5938 522.5,52.5938 522.5,52.5938 " fill="none" style="stroke:#181818;stroke-width:0.5;"/><text fill="#000000" font-family="sans-serif" font-size="14" lengthAdjust="spacing" textLength="114" x="398.5" y="44.292">Message Queue</text><path d="M398.5,415.4531 L522.5,415.4531 C527.5,415.4531 527.5,428.6016 527.5,428.6016 C527.5,428.6016 527.5,441.75 522.5,441.75 L398.5,441.75 C393.5,441.75 393.5,428.6016 393.5,428.6016 C393.5,428.6016 393.5,415.4531 398.5,415.4531 " fill="#E2E2F0" style="stroke:#181818;stroke-width:0.5;"/><path d="M522.5,415.4531 C517.5,415.4531 517.5,428.6016 517.5,428.6016 C517.5,441.75 522.5,441.75 522.5,441.75 " fill="none" style="stroke:#181818;stroke-width:0.5;"/><text fill="#000000" font-family="sans-serif" font-size="14" lengthAdjust="spacing" textLength="114" x="398.5" y="433.4482">Message Queue</text><rect fill="#E2E2F0" height="30.2969" rx="2.5" ry="2.5" style="stroke:#181818;stroke-width:0.5;" width="197" x="537.5" y="21.2969"/><text fill="#000000" font-family="sans-serif" font-size="14" lengthAdjust="spacing" textLength="183" x="544.5" y="41.292">CIO Window Manager Task</text><rect fill="#E2E2F0" height="30.2969" rx="2.5" ry="2.5" style="stroke:#181818;stroke-width:0.5;" width="197" x="537.5" y="415.4531"/><text fill="#000000" font-family="sans-serif" font-size="14" lengthAdjust="spacing" textLength="183" x="544.5" y="435.4482">CIO Window Manager Task</text><rect fill="#E2E2F0" height="30.2969" rx="2.5" ry="2.5" style="stroke:#181818;stroke-width:0.5;" width="132" x="744.5" y="21.2969"/><text fill="#000000" font-family="sans-serif" font-size="14" lengthAdjust="spacing" textLength="118" x="751.5" y="41.292">CIO CAN-FD Task</text><rect fill="#E2E2F0" height="30.2969" rx="2.5" ry="2.5" style="stroke:#181818;stroke-width:0.5;" width="132" x="744.5" y="415.4531"/><text fill="#000000" font-family="sans-serif" font-size="14" lengthAdjust="spacing" textLength="118" x="751.5" y="435.4482">CIO CAN-FD Task</text><rect fill="#E2E2F0" height="30.2969" rx="2.5" ry="2.5" style="stroke:#181818;stroke-width:0.5;" width="139" x="886.5" y="21.2969"/><text fill="#000000" font-family="sans-serif" font-size="14" lengthAdjust="spacing" textLength="125" x="893.5" y="41.292">CIO Ethernet Task</text><rect fill="#E2E2F0" height="30.2969" rx="2.5" ry="2.5" style="stroke:#181818;stroke-width:0.5;" width="139" x="886.5" y="415.4531"/><text fill="#000000" font-family="sans-serif" font-size="14" lengthAdjust="spacing" textLength="125" x="893.5" y="435.4482">CIO Ethernet Task</text><rect fill="#E2E2F0" height="30.2969" rx="2.5" ry="2.5" style="stroke:#181818;stroke-width:0.5;" width="101" x="1035.5" y="21.2969"/><text fill="#000000" font-family="sans-serif" font-size="14" lengthAdjust="spacing" textLength="87" x="1042.5" y="41.292">CIO VIN Task</text><rect fill="#E2E2F0" height="30.2969" rx="2.5" ry="2.5" style="stroke:#181818;stroke-width:0.5;" width="101" x="1035.5" y="415.4531"/><text fill="#000000" font-family="sans-serif" font-size="14" lengthAdjust="spacing" textLength="87" x="1042.5" y="435.4482">CIO VIN Task</text><polygon fill="#181818" points="146.5,79.7266,156.5,83.7266,146.5,87.7266,150.5,83.7266" style="stroke:#181818;stroke-width:1.0;"/><line style="stroke:#181818;stroke-width:1.0;" x1="42" x2="152.5" y1="83.7266" y2="83.7266"/><text fill="#000000" font-family="sans-serif" font-size="13" lengthAdjust="spacing" textLength="67" x="49" y="78.6606">cio_main()</text><line style="stroke:#181818;stroke-width:1.0;" x1="158.5" x2="200.5" y1="132.0586" y2="132.0586"/><line style="stroke:#181818;stroke-width:1.0;" x1="200.5" x2="200.5" y1="132.0586" y2="145.0586"/><line style="stroke:#181818;stroke-width:1.0;" x1="159.5" x2="200.5" y1="145.0586" y2="145.0586"/><polygon fill="#181818" points="169.5,141.0586,159.5,145.0586,169.5,149.0586,165.5,145.0586" style="stroke:#181818;stroke-width:1.0;"/><text fill="#000000" font-family="sans-serif" font-size="13" lengthAdjust="spacing" textLength="106" x="165.5" y="126.9927">R_CIO_BSP_Init()</text><path d="M283,96.7266 L283,166.7266 L385,166.7266 L385,106.7266 L375,96.7266 L283,96.7266 " fill="#FEFFDD" style="stroke:#181818;stroke-width:0.5;"/><path d="M375,96.7266 L375,106.7266 L385,106.7266 L375,96.7266 " fill="#FEFFDD" style="stroke:#181818;stroke-width:0.5;"/><text fill="#000000" font-family="sans-serif" font-size="13" lengthAdjust="spacing" textLength="81" x="289" y="113.7935">Pin functions</text><text fill="#000000" font-family="sans-serif" font-size="13" lengthAdjust="spacing" textLength="51" x="289" y="128.9263">CAN init</text><text fill="#000000" font-family="sans-serif" font-size="13" lengthAdjust="spacing" textLength="45" x="289" y="144.0591">VIN init</text><text fill="#000000" font-family="sans-serif" font-size="13" lengthAdjust="spacing" textLength="20" x="289" y="159.1919">etc</text><path d="M79,179.2578 L156,179.2578 L156,186.3906 L146,196.3906 L79,196.3906 L79,179.2578 " fill="#EEEEEE" style="stroke:#000000;stroke-width:1.5;"/><rect fill="none" height="220.1953" style="stroke:#000000;stroke-width:1.5;" width="812" x="79" y="179.2578"/><text fill="#000000" font-family="sans-serif" font-size="13" font-weight="bold" lengthAdjust="spacing" textLength="32" x="94" y="192.3247">loop</text><polygon fill="#181818" points="448.5,224.0898,458.5,228.0898,448.5,232.0898,452.5,228.0898" style="stroke:#181818;stroke-width:1.0;"/><line style="stroke:#181818;stroke-width:1.0;" x1="158.5" x2="454.5" y1="228.0898" y2="228.0898"/><text fill="#000000" font-family="sans-serif" font-size="13" lengthAdjust="spacing" textLength="226" x="165.5" y="223.0239">R_OSAL_MqReceiveForTimePeriod()</text><path d="M465,201.3906 L465,241.3906 L726,241.3906 L726,211.3906 L716,201.3906 L465,201.3906 " fill="#FEFFDD" style="stroke:#181818;stroke-width:0.5;"/><path d="M716,201.3906 L716,211.3906 L726,211.3906 L716,201.3906 " fill="#FEFFDD" style="stroke:#181818;stroke-width:0.5;"/><text fill="#000000" font-family="sans-serif" font-size="13" lengthAdjust="spacing" textLength="240" x="471" y="218.4575">Wait for command from another task:</text><text fill="#000000" font-family="sans-serif" font-size="13" lengthAdjust="spacing" textLength="230" x="479" y="233.5903">CMD_NOP, CMD_OPEN or CMD_EXIT</text><polygon fill="#0000FF" points="169.5,263.7891,159.5,267.7891,169.5,271.7891,165.5,267.7891" style="stroke:#0000FF;stroke-width:1.0;"/><line style="stroke:#0000FF;stroke-width:1.0;stroke-dasharray:2.0,2.0;" x1="163.5" x2="459.5" y1="267.7891" y2="267.7891"/><text fill="#000000" font-family="sans-serif" font-size="13" lengthAdjust="spacing" textLength="134" x="175.5" y="262.7231">Received CMD_OPEN</text><polygon fill="#181818" points="448.5,292.9219,458.5,296.9219,448.5,300.9219,452.5,296.9219" style="stroke:#181818;stroke-width:1.0;"/><line style="stroke:#181818;stroke-width:1.0;" x1="158.5" x2="454.5" y1="296.9219" y2="296.9219"/><text fill="#000000" font-family="sans-serif" font-size="13" lengthAdjust="spacing" textLength="236" x="165.5" y="291.856">R_OSAL_MqSendForTimePeriod(ACK)</text><polygon fill="#181818" points="624,340.1875,634,344.1875,624,348.1875,628,344.1875" style="stroke:#181818;stroke-width:1.0;"/><line style="stroke:#181818;stroke-width:1.0;" x1="158.5" x2="630" y1="344.1875" y2="344.1875"/><text fill="#000000" font-family="sans-serif" font-size="13" lengthAdjust="spacing" textLength="86" x="165.5" y="339.1216">ServerOpen()</text><path d="M641,309.9219 L641,364.9219 L876,364.9219 L876,319.9219 L866,309.9219 L641,309.9219 " fill="#FEFFDD" style="stroke:#181818;stroke-width:0.5;"/><path d="M866,309.9219 L866,319.9219 L876,319.9219 L866,309.9219 " fill="#FEFFDD" style="stroke:#181818;stroke-width:0.5;"/><text fill="#000000" font-family="sans-serif" font-size="13" lengthAdjust="spacing" textLength="168" x="647" y="326.9888">Start server task for driver</text><text fill="#000000" font-family="sans-serif" font-size="13" lengthAdjust="spacing" textLength="214" x="647" y="342.1216">depending on message contents,</text><text fill="#000000" font-family="sans-serif" font-size="13" lengthAdjust="spacing" textLength="155" x="647" y="357.2544">or exit loop on EXIT CMD</text><polygon fill="#181818" points="448.5,387.4531,458.5,391.4531,448.5,395.4531,452.5,391.4531" style="stroke:#181818;stroke-width:1.0;"/><line style="stroke:#181818;stroke-width:1.0;" x1="158.5" x2="454.5" y1="391.4531" y2="391.4531"/><text fill="#000000" font-family="sans-serif" font-size="13" lengthAdjust="spacing" textLength="278" x="165.5" y="386.3872">R_OSAL_MqSendForTimePeriod(COMPLETE)</text><!--SRC=[hPFRJi9048RlUOe9ta025vuJOaombeH8QQL4JTGqjHrW8zqfswtw-Cuk1uFMYCQhxkn-Cpl_Frk0F5PQ92AFfOQwCpg5RfxNWLIA2lPhyEcyxuCN2mdZk7Y61zcOKn8vWipUW2XlhZCFE7DHOebGzx0euYd2jGdNvuTLbM-5JEcLBv3CAtl7cZ-guftkiDsxtEAEgpXNpr19r5laIHLvqnzkGQSrfZvSQP_lP4474a5HnXkDfit_EMNdogE8iUWY3AA-5DhMbwGHb9ZED0S00LUOb3BHWcHXTzWd44pRm4ZS1AWJ_g9CRH4ZTggep67ErrbWrzu_3TdqwOVTGUGjHfYWUC4UgR78C40bABLjVsaSu3OM6YQa8A4iYxchYQ8COkPuWA2vWywAP57UPJJqWvPT-84xv97PjNlN7o_5hMNjAkIiVR_tD2_niLqbQAaZtTptJ_w4tEQsELtdglchuj_-Enq8KRsWydEKttaUQlu9eB2SjTWE85N2n2icHIwG2Za5af2jf2GaDKfTj5OGP-4Rpy-y7SEPEHYp_ZQBtvhc-5umSCTk4s3vejy1]--></g></svg>