<?xml version="1.0" encoding="us-ascii" standalone="no"?><svg xmlns="http://www.w3.org/2000/svg" xmlns:xlink="http://www.w3.org/1999/xlink" contentStyleType="text/css" height="1369px" preserveAspectRatio="none" style="width:903px;height:1369px;background:#FFFFFF;" version="1.1" viewBox="0 0 903 1369" width="903px" zoomAndPan="magnify"><defs/><g><rect fill="none" height="221.0625" style="stroke:#000000;stroke-width:1.5;" width="877" x="20" y="69.5938"/><rect fill="none" height="191.9297" style="stroke:#000000;stroke-width:1.5;" width="877" x="20" y="304.6563"/><rect fill="none" height="191.9297" style="stroke:#000000;stroke-width:1.5;" width="877" x="20" y="552.7188"/><rect fill="none" height="191.9297" style="stroke:#000000;stroke-width:1.5;" width="877" x="20" y="758.6484"/><rect fill="none" height="336.4609" style="stroke:#000000;stroke-width:1.5;" width="784" x="10" y="964.5781"/><rect fill="none" height="191.9297" style="stroke:#000000;stroke-width:1.5;" width="764" x="20" y="1017.8438"/><line style="stroke:#181818;stroke-width:0.5;stroke-dasharray:5.0,5.0;" x1="84" x2="84" y1="52.5938" y2="1318.0391"/><line style="stroke:#181818;stroke-width:0.5;stroke-dasharray:5.0,5.0;" x1="402.5" x2="402.5" y1="52.5938" y2="1318.0391"/><line style="stroke:#181818;stroke-width:0.5;stroke-dasharray:5.0,5.0;" x1="704" x2="704" y1="52.5938" y2="1318.0391"/><line style="stroke:#181818;stroke-width:0.5;stroke-dasharray:5.0,5.0;" x1="836" x2="836" y1="52.5938" y2="1318.0391"/><rect fill="#E2E2F0" height="46.5938" rx="2.5" ry="2.5" style="stroke:#181818;stroke-width:0.5;" width="109" x="30" y="5"/><text fill="#000000" font-family="sans-serif" font-size="14" lengthAdjust="spacing" textLength="86" x="39.5" y="24.9951">Camera task</text><text fill="#000000" font-family="sans-serif" font-size="14" lengthAdjust="spacing" textLength="95" x="37" y="41.292">(loc_RvcTask)</text><rect fill="#E2E2F0" height="46.5938" rx="2.5" ry="2.5" style="stroke:#181818;stroke-width:0.5;" width="109" x="30" y="1317.0391"/><text fill="#000000" font-family="sans-serif" font-size="14" lengthAdjust="spacing" textLength="86" x="39.5" y="1337.0342">Camera task</text><text fill="#000000" font-family="sans-serif" font-size="14" lengthAdjust="spacing" textLength="95" x="37" y="1353.3311">(loc_RvcTask)</text><path d="M340.5,26.2969 L464.5,26.2969 C469.5,26.2969 469.5,39.4453 469.5,39.4453 C469.5,39.4453 469.5,52.5938 464.5,52.5938 L340.5,52.5938 C335.5,52.5938 335.5,39.4453 335.5,39.4453 C335.5,39.4453 335.5,26.2969 340.5,26.2969 " fill="#E2E2F0" style="stroke:#181818;stroke-width:0.5;"/><path d="M464.5,26.2969 C459.5,26.2969 459.5,39.4453 459.5,39.4453 C459.5,52.5938 464.5,52.5938 464.5,52.5938 " fill="none" style="stroke:#181818;stroke-width:0.5;"/><text fill="#000000" font-family="sans-serif" font-size="14" lengthAdjust="spacing" textLength="114" x="340.5" y="44.292">Message Queue</text><path d="M340.5,1317.0391 L464.5,1317.0391 C469.5,1317.0391 469.5,1330.1875 469.5,1330.1875 C469.5,1330.1875 469.5,1343.3359 464.5,1343.3359 L340.5,1343.3359 C335.5,1343.3359 335.5,1330.1875 335.5,1330.1875 C335.5,1330.1875 335.5,1317.0391 340.5,1317.0391 " fill="#E2E2F0" style="stroke:#181818;stroke-width:0.5;"/><path d="M464.5,1317.0391 C459.5,1317.0391 459.5,1330.1875 459.5,1330.1875 C459.5,1343.3359 464.5,1343.3359 464.5,1343.3359 " fill="none" style="stroke:#181818;stroke-width:0.5;"/><text fill="#000000" font-family="sans-serif" font-size="14" lengthAdjust="spacing" textLength="114" x="340.5" y="1335.0342">Message Queue</text><rect fill="#E2E2F0" height="46.5938" rx="2.5" ry="2.5" style="stroke:#181818;stroke-width:0.5;" width="139" x="635" y="5"/><text fill="#000000" font-family="sans-serif" font-size="14" lengthAdjust="spacing" textLength="97" x="654" y="24.9951">CIO Main Task</text><text fill="#000000" font-family="sans-serif" font-size="14" lengthAdjust="spacing" textLength="125" x="642" y="41.292">(loc_CioMainLoop)</text><rect fill="#E2E2F0" height="46.5938" rx="2.5" ry="2.5" style="stroke:#181818;stroke-width:0.5;" width="139" x="635" y="1317.0391"/><text fill="#000000" font-family="sans-serif" font-size="14" lengthAdjust="spacing" textLength="97" x="654" y="1337.0342">CIO Main Task</text><text fill="#000000" font-family="sans-serif" font-size="14" lengthAdjust="spacing" textLength="125" x="642" y="1353.3311">(loc_CioMainLoop)</text><rect fill="#E2E2F0" height="30.2969" rx="2.5" ry="2.5" style="stroke:#181818;stroke-width:0.5;" width="101" x="786" y="21.2969"/><text fill="#000000" font-family="sans-serif" font-size="14" lengthAdjust="spacing" textLength="87" x="793" y="41.292">CIO VIN Task</text><rect fill="#E2E2F0" height="30.2969" rx="2.5" ry="2.5" style="stroke:#181818;stroke-width:0.5;" width="101" x="786" y="1317.0391"/><text fill="#000000" font-family="sans-serif" font-size="14" lengthAdjust="spacing" textLength="87" x="793" y="1337.0342">CIO VIN Task</text><path d="M20,69.5938 L165,69.5938 L165,76.7266 L155,86.7266 L20,86.7266 L20,69.5938 " fill="#EEEEEE" style="stroke:#000000;stroke-width:1.5;"/><rect fill="none" height="221.0625" style="stroke:#000000;stroke-width:1.5;" width="877" x="20" y="69.5938"/><text fill="#000000" font-family="sans-serif" font-size="13" font-weight="bold" lengthAdjust="spacing" textLength="100" x="35" y="82.6606">R_CIO_Open()</text><polygon fill="#181818" points="390.5,103.8594,400.5,107.8594,390.5,111.8594,394.5,107.8594" style="stroke:#181818;stroke-width:1.0;"/><line style="stroke:#181818;stroke-width:1.0;" x1="84.5" x2="396.5" y1="107.8594" y2="107.8594"/><text fill="#000000" font-family="sans-serif" font-size="13" lengthAdjust="spacing" textLength="246" x="91.5" y="102.7935">R_OSAL_MqSendForTimePeriod(OPEN)</text><polygon fill="#181818" points="413.5,132.9922,403.5,136.9922,413.5,140.9922,409.5,136.9922" style="stroke:#181818;stroke-width:1.0;"/><line style="stroke:#181818;stroke-width:1.0;" x1="407.5" x2="703.5" y1="136.9922" y2="136.9922"/><text fill="#000000" font-family="sans-serif" font-size="13" lengthAdjust="spacing" textLength="262" x="419.5" y="131.9263">R_OSAL_MqReceiveForTimePeriod(OPEN)</text><polygon fill="#181818" points="824.5,162.125,834.5,166.125,824.5,170.125,828.5,166.125" style="stroke:#181818;stroke-width:1.0;"/><line style="stroke:#181818;stroke-width:1.0;" x1="704.5" x2="830.5" y1="166.125" y2="166.125"/><text fill="#000000" font-family="sans-serif" font-size="13" lengthAdjust="spacing" textLength="108" x="711.5" y="161.0591">ServerOpen(VIN)</text><polygon fill="#181818" points="413.5,191.2578,403.5,195.2578,413.5,199.2578,409.5,195.2578" style="stroke:#181818;stroke-width:1.0;"/><line style="stroke:#181818;stroke-width:1.0;" x1="407.5" x2="703.5" y1="195.2578" y2="195.2578"/><text fill="#000000" font-family="sans-serif" font-size="13" lengthAdjust="spacing" textLength="236" x="419.5" y="190.1919">R_OSAL_MqSendForTimePeriod(ACK)</text><polygon fill="#181818" points="413.5,220.3906,403.5,224.3906,413.5,228.3906,409.5,224.3906" style="stroke:#181818;stroke-width:1.0;"/><line style="stroke:#181818;stroke-width:1.0;" x1="407.5" x2="703.5" y1="224.3906" y2="224.3906"/><text fill="#000000" font-family="sans-serif" font-size="13" lengthAdjust="spacing" textLength="278" x="419.5" y="219.3247">R_OSAL_MqSendForTimePeriod(COMPLETE)</text><polygon fill="#181818" points="390.5,249.5234,400.5,253.5234,390.5,257.5234,394.5,253.5234" style="stroke:#181818;stroke-width:1.0;"/><line style="stroke:#181818;stroke-width:1.0;" x1="84.5" x2="396.5" y1="253.5234" y2="253.5234"/><text fill="#000000" font-family="sans-serif" font-size="13" lengthAdjust="spacing" textLength="252" x="91.5" y="248.4575">R_OSAL_MqReceiveForTimePeriod(ACK)</text><polygon fill="#181818" points="390.5,278.6563,400.5,282.6563,390.5,286.6563,394.5,282.6563" style="stroke:#181818;stroke-width:1.0;"/><line style="stroke:#181818;stroke-width:1.0;" x1="84.5" x2="396.5" y1="282.6563" y2="282.6563"/><text fill="#000000" font-family="sans-serif" font-size="13" lengthAdjust="spacing" textLength="294" x="91.5" y="277.5903">R_OSAL_MqReceiveForTimePeriod(COMPLETE)</text><path d="M20,304.6563 L328,304.6563 L328,311.7891 L318,321.7891 L20,321.7891 L20,304.6563 " fill="#EEEEEE" style="stroke:#000000;stroke-width:1.5;"/><rect fill="none" height="191.9297" style="stroke:#000000;stroke-width:1.5;" width="877" x="20" y="304.6563"/><text fill="#000000" font-family="sans-serif" font-size="13" font-weight="bold" lengthAdjust="spacing" textLength="263" x="35" y="317.7231">R_CIO_IoCtl(R_CIO_VIN_IOC_CONFIG)</text><polygon fill="#181818" points="390.5,338.9219,400.5,342.9219,390.5,346.9219,394.5,342.9219" style="stroke:#181818;stroke-width:1.0;"/><line style="stroke:#181818;stroke-width:1.0;" x1="84.5" x2="396.5" y1="342.9219" y2="342.9219"/><text fill="#000000" font-family="sans-serif" font-size="13" lengthAdjust="spacing" textLength="246" x="91.5" y="337.856">R_OSAL_MqSendForTimePeriod(IOCTL)</text><polygon fill="#181818" points="413.5,368.0547,403.5,372.0547,413.5,376.0547,409.5,372.0547" style="stroke:#181818;stroke-width:1.0;"/><line style="stroke:#181818;stroke-width:1.0;" x1="407.5" x2="835.5" y1="372.0547" y2="372.0547"/><text fill="#000000" font-family="sans-serif" font-size="13" lengthAdjust="spacing" textLength="262" x="419.5" y="366.9888">R_OSAL_MqReceiveForTimePeriod(IOCTL)</text><polygon fill="#181818" points="413.5,397.1875,403.5,401.1875,413.5,405.1875,409.5,401.1875" style="stroke:#181818;stroke-width:1.0;"/><line style="stroke:#181818;stroke-width:1.0;" x1="407.5" x2="835.5" y1="401.1875" y2="401.1875"/><text fill="#000000" font-family="sans-serif" font-size="13" lengthAdjust="spacing" textLength="236" x="419.5" y="396.1216">R_OSAL_MqSendForTimePeriod(ACK)</text><polygon fill="#181818" points="413.5,426.3203,403.5,430.3203,413.5,434.3203,409.5,430.3203" style="stroke:#181818;stroke-width:1.0;"/><line style="stroke:#181818;stroke-width:1.0;" x1="407.5" x2="835.5" y1="430.3203" y2="430.3203"/><text fill="#000000" font-family="sans-serif" font-size="13" lengthAdjust="spacing" textLength="278" x="419.5" y="425.2544">R_OSAL_MqSendForTimePeriod(COMPLETE)</text><polygon fill="#181818" points="390.5,455.4531,400.5,459.4531,390.5,463.4531,394.5,459.4531" style="stroke:#181818;stroke-width:1.0;"/><line style="stroke:#181818;stroke-width:1.0;" x1="84.5" x2="396.5" y1="459.4531" y2="459.4531"/><text fill="#000000" font-family="sans-serif" font-size="13" lengthAdjust="spacing" textLength="252" x="91.5" y="454.3872">R_OSAL_MqReceiveForTimePeriod(ACK)</text><polygon fill="#181818" points="390.5,484.5859,400.5,488.5859,390.5,492.5859,394.5,488.5859" style="stroke:#181818;stroke-width:1.0;"/><line style="stroke:#181818;stroke-width:1.0;" x1="84.5" x2="396.5" y1="488.5859" y2="488.5859"/><text fill="#000000" font-family="sans-serif" font-size="13" lengthAdjust="spacing" textLength="294" x="91.5" y="483.52">R_OSAL_MqReceiveForTimePeriod(COMPLETE)</text><line style="stroke:#181818;stroke-width:1.0;" x1="84.5" x2="126.5" y1="524.7188" y2="524.7188"/><line style="stroke:#181818;stroke-width:1.0;" x1="126.5" x2="126.5" y1="524.7188" y2="537.7188"/><line style="stroke:#181818;stroke-width:1.0;" x1="85.5" x2="126.5" y1="537.7188" y2="537.7188"/><polygon fill="#181818" points="95.5,533.7188,85.5,537.7188,95.5,541.7188,91.5,537.7188" style="stroke:#181818;stroke-width:1.0;"/><text fill="#000000" font-family="sans-serif" font-size="13" lengthAdjust="spacing" textLength="82" x="91.5" y="519.6528">Display_Init()</text><path d="M20,552.7188 L491,552.7188 L491,559.8516 L481,569.8516 L20,569.8516 L20,552.7188 " fill="#EEEEEE" style="stroke:#000000;stroke-width:1.5;"/><rect fill="none" height="191.9297" style="stroke:#000000;stroke-width:1.5;" width="877" x="20" y="552.7188"/><text fill="#000000" font-family="sans-serif" font-size="13" font-weight="bold" lengthAdjust="spacing" textLength="426" x="35" y="565.7856">R_CIO_IoCtl(R_CIO_VIN_IOC_REGISTER_FRAME_READY_EVT)</text><polygon fill="#181818" points="390.5,586.9844,400.5,590.9844,390.5,594.9844,394.5,590.9844" style="stroke:#181818;stroke-width:1.0;"/><line style="stroke:#181818;stroke-width:1.0;" x1="84.5" x2="396.5" y1="590.9844" y2="590.9844"/><text fill="#000000" font-family="sans-serif" font-size="13" lengthAdjust="spacing" textLength="246" x="91.5" y="585.9185">R_OSAL_MqSendForTimePeriod(IOCTL)</text><polygon fill="#181818" points="413.5,616.1172,403.5,620.1172,413.5,624.1172,409.5,620.1172" style="stroke:#181818;stroke-width:1.0;"/><line style="stroke:#181818;stroke-width:1.0;" x1="407.5" x2="835.5" y1="620.1172" y2="620.1172"/><text fill="#000000" font-family="sans-serif" font-size="13" lengthAdjust="spacing" textLength="262" x="419.5" y="615.0513">R_OSAL_MqReceiveForTimePeriod(IOCTL)</text><polygon fill="#181818" points="413.5,645.25,403.5,649.25,413.5,653.25,409.5,649.25" style="stroke:#181818;stroke-width:1.0;"/><line style="stroke:#181818;stroke-width:1.0;" x1="407.5" x2="835.5" y1="649.25" y2="649.25"/><text fill="#000000" font-family="sans-serif" font-size="13" lengthAdjust="spacing" textLength="236" x="419.5" y="644.1841">R_OSAL_MqSendForTimePeriod(ACK)</text><polygon fill="#181818" points="413.5,674.3828,403.5,678.3828,413.5,682.3828,409.5,678.3828" style="stroke:#181818;stroke-width:1.0;"/><line style="stroke:#181818;stroke-width:1.0;" x1="407.5" x2="835.5" y1="678.3828" y2="678.3828"/><text fill="#000000" font-family="sans-serif" font-size="13" lengthAdjust="spacing" textLength="278" x="419.5" y="673.3169">R_OSAL_MqSendForTimePeriod(COMPLETE)</text><polygon fill="#181818" points="390.5,703.5156,400.5,707.5156,390.5,711.5156,394.5,707.5156" style="stroke:#181818;stroke-width:1.0;"/><line style="stroke:#181818;stroke-width:1.0;" x1="84.5" x2="396.5" y1="707.5156" y2="707.5156"/><text fill="#000000" font-family="sans-serif" font-size="13" lengthAdjust="spacing" textLength="252" x="91.5" y="702.4497">R_OSAL_MqReceiveForTimePeriod(ACK)</text><polygon fill="#181818" points="390.5,732.6484,400.5,736.6484,390.5,740.6484,394.5,736.6484" style="stroke:#181818;stroke-width:1.0;"/><line style="stroke:#181818;stroke-width:1.0;" x1="84.5" x2="396.5" y1="736.6484" y2="736.6484"/><text fill="#000000" font-family="sans-serif" font-size="13" lengthAdjust="spacing" textLength="294" x="91.5" y="731.5825">R_OSAL_MqReceiveForTimePeriod(COMPLETE)</text><path d="M20,758.6484 L391,758.6484 L391,765.7813 L381,775.7813 L20,775.7813 L20,758.6484 " fill="#EEEEEE" style="stroke:#000000;stroke-width:1.5;"/><rect fill="none" height="191.9297" style="stroke:#000000;stroke-width:1.5;" width="877" x="20" y="758.6484"/><text fill="#000000" font-family="sans-serif" font-size="13" font-weight="bold" lengthAdjust="spacing" textLength="326" x="35" y="771.7153">R_CIO_IoCtl(R_CIO_VIN_IOC_START_CAPTURE)</text><polygon fill="#181818" points="390.5,792.9141,400.5,796.9141,390.5,800.9141,394.5,796.9141" style="stroke:#181818;stroke-width:1.0;"/><line style="stroke:#181818;stroke-width:1.0;" x1="84.5" x2="396.5" y1="796.9141" y2="796.9141"/><text fill="#000000" font-family="sans-serif" font-size="13" lengthAdjust="spacing" textLength="246" x="91.5" y="791.8481">R_OSAL_MqSendForTimePeriod(IOCTL)</text><polygon fill="#181818" points="413.5,822.0469,403.5,826.0469,413.5,830.0469,409.5,826.0469" style="stroke:#181818;stroke-width:1.0;"/><line style="stroke:#181818;stroke-width:1.0;" x1="407.5" x2="835.5" y1="826.0469" y2="826.0469"/><text fill="#000000" font-family="sans-serif" font-size="13" lengthAdjust="spacing" textLength="262" x="419.5" y="820.981">R_OSAL_MqReceiveForTimePeriod(IOCTL)</text><polygon fill="#181818" points="413.5,851.1797,403.5,855.1797,413.5,859.1797,409.5,855.1797" style="stroke:#181818;stroke-width:1.0;"/><line style="stroke:#181818;stroke-width:1.0;" x1="407.5" x2="835.5" y1="855.1797" y2="855.1797"/><text fill="#000000" font-family="sans-serif" font-size="13" lengthAdjust="spacing" textLength="236" x="419.5" y="850.1138">R_OSAL_MqSendForTimePeriod(ACK)</text><polygon fill="#181818" points="413.5,880.3125,403.5,884.3125,413.5,888.3125,409.5,884.3125" style="stroke:#181818;stroke-width:1.0;"/><line style="stroke:#181818;stroke-width:1.0;" x1="407.5" x2="835.5" y1="884.3125" y2="884.3125"/><text fill="#000000" font-family="sans-serif" font-size="13" lengthAdjust="spacing" textLength="278" x="419.5" y="879.2466">R_OSAL_MqSendForTimePeriod(COMPLETE)</text><polygon fill="#181818" points="390.5,909.4453,400.5,913.4453,390.5,917.4453,394.5,913.4453" style="stroke:#181818;stroke-width:1.0;"/><line style="stroke:#181818;stroke-width:1.0;" x1="84.5" x2="396.5" y1="913.4453" y2="913.4453"/><text fill="#000000" font-family="sans-serif" font-size="13" lengthAdjust="spacing" textLength="252" x="91.5" y="908.3794">R_OSAL_MqReceiveForTimePeriod(ACK)</text><polygon fill="#181818" points="390.5,938.5781,400.5,942.5781,390.5,946.5781,394.5,942.5781" style="stroke:#181818;stroke-width:1.0;"/><line style="stroke:#181818;stroke-width:1.0;" x1="84.5" x2="396.5" y1="942.5781" y2="942.5781"/><text fill="#000000" font-family="sans-serif" font-size="13" lengthAdjust="spacing" textLength="294" x="91.5" y="937.5122">R_OSAL_MqReceiveForTimePeriod(COMPLETE)</text><path d="M10,964.5781 L87,964.5781 L87,971.7109 L77,981.7109 L10,981.7109 L10,964.5781 " fill="#EEEEEE" style="stroke:#000000;stroke-width:1.5;"/><rect fill="none" height="336.4609" style="stroke:#000000;stroke-width:1.5;" width="784" x="10" y="964.5781"/><text fill="#000000" font-family="sans-serif" font-size="13" font-weight="bold" lengthAdjust="spacing" textLength="32" x="25" y="977.645">loop</text><polygon fill="#181818" points="390.5,998.8438,400.5,1002.8438,390.5,1006.8438,394.5,1002.8438" style="stroke:#181818;stroke-width:1.0;"/><line style="stroke:#181818;stroke-width:1.0;" x1="84.5" x2="396.5" y1="1002.8438" y2="1002.8438"/><text fill="#000000" font-family="sans-serif" font-size="13" lengthAdjust="spacing" textLength="255" x="91.5" y="997.7778">R_OSAL_MqRecieveForTimePeriod(data)</text><path d="M20,1017.8438 L408,1017.8438 L408,1024.9766 L398,1034.9766 L20,1034.9766 L20,1017.8438 " fill="#EEEEEE" style="stroke:#000000;stroke-width:1.5;"/><rect fill="none" height="191.9297" style="stroke:#000000;stroke-width:1.5;" width="764" x="20" y="1017.8438"/><text fill="#000000" font-family="sans-serif" font-size="13" font-weight="bold" lengthAdjust="spacing" textLength="343" x="35" y="1030.9106">R_CIO_IoCtl(R_CIO_VIN_IOC_GET_VALID_FRAME)</text><polygon fill="#181818" points="390.5,1052.1094,400.5,1056.1094,390.5,1060.1094,394.5,1056.1094" style="stroke:#181818;stroke-width:1.0;"/><line style="stroke:#181818;stroke-width:1.0;" x1="84.5" x2="396.5" y1="1056.1094" y2="1056.1094"/><text fill="#000000" font-family="sans-serif" font-size="13" lengthAdjust="spacing" textLength="246" x="91.5" y="1051.0435">R_OSAL_MqSendForTimePeriod(IOCTL)</text><polygon fill="#181818" points="413.5,1081.2422,403.5,1085.2422,413.5,1089.2422,409.5,1085.2422" style="stroke:#181818;stroke-width:1.0;"/><line style="stroke:#181818;stroke-width:1.0;" x1="407.5" x2="703.5" y1="1085.2422" y2="1085.2422"/><text fill="#000000" font-family="sans-serif" font-size="13" lengthAdjust="spacing" textLength="262" x="419.5" y="1080.1763">R_OSAL_MqReceiveForTimePeriod(IOCTL)</text><polygon fill="#181818" points="413.5,1110.375,403.5,1114.375,413.5,1118.375,409.5,1114.375" style="stroke:#181818;stroke-width:1.0;"/><line style="stroke:#181818;stroke-width:1.0;" x1="407.5" x2="703.5" y1="1114.375" y2="1114.375"/><text fill="#000000" font-family="sans-serif" font-size="13" lengthAdjust="spacing" textLength="236" x="419.5" y="1109.3091">R_OSAL_MqSendForTimePeriod(ACK)</text><polygon fill="#181818" points="413.5,1139.5078,403.5,1143.5078,413.5,1147.5078,409.5,1143.5078" style="stroke:#181818;stroke-width:1.0;"/><line style="stroke:#181818;stroke-width:1.0;" x1="407.5" x2="703.5" y1="1143.5078" y2="1143.5078"/><text fill="#000000" font-family="sans-serif" font-size="13" lengthAdjust="spacing" textLength="278" x="419.5" y="1138.4419">R_OSAL_MqSendForTimePeriod(COMPLETE)</text><polygon fill="#181818" points="390.5,1168.6406,400.5,1172.6406,390.5,1176.6406,394.5,1172.6406" style="stroke:#181818;stroke-width:1.0;"/><line style="stroke:#181818;stroke-width:1.0;" x1="84.5" x2="396.5" y1="1172.6406" y2="1172.6406"/><text fill="#000000" font-family="sans-serif" font-size="13" lengthAdjust="spacing" textLength="252" x="91.5" y="1167.5747">R_OSAL_MqReceiveForTimePeriod(ACK)</text><polygon fill="#181818" points="390.5,1197.7734,400.5,1201.7734,390.5,1205.7734,394.5,1201.7734" style="stroke:#181818;stroke-width:1.0;"/><line style="stroke:#181818;stroke-width:1.0;" x1="84.5" x2="396.5" y1="1201.7734" y2="1201.7734"/><text fill="#000000" font-family="sans-serif" font-size="13" lengthAdjust="spacing" textLength="294" x="91.5" y="1196.7075">R_OSAL_MqReceiveForTimePeriod(COMPLETE)</text><line style="stroke:#181818;stroke-width:1.0;" x1="84.5" x2="126.5" y1="1237.9063" y2="1237.9063"/><line style="stroke:#181818;stroke-width:1.0;" x1="126.5" x2="126.5" y1="1237.9063" y2="1250.9063"/><line style="stroke:#181818;stroke-width:1.0;" x1="85.5" x2="126.5" y1="1250.9063" y2="1250.9063"/><polygon fill="#181818" points="95.5,1246.9063,85.5,1250.9063,95.5,1254.9063,91.5,1250.9063" style="stroke:#181818;stroke-width:1.0;"/><text fill="#000000" font-family="sans-serif" font-size="13" lengthAdjust="spacing" textLength="131" x="91.5" y="1232.8403">Display_FlushLayer()</text><line style="stroke:#181818;stroke-width:1.0;" x1="84.5" x2="126.5" y1="1280.0391" y2="1280.0391"/><line style="stroke:#181818;stroke-width:1.0;" x1="126.5" x2="126.5" y1="1280.0391" y2="1293.0391"/><line style="stroke:#181818;stroke-width:1.0;" x1="85.5" x2="126.5" y1="1293.0391" y2="1293.0391"/><polygon fill="#181818" points="95.5,1289.0391,85.5,1293.0391,95.5,1297.0391,91.5,1293.0391" style="stroke:#181818;stroke-width:1.0;"/><text fill="#000000" font-family="sans-serif" font-size="13" lengthAdjust="spacing" textLength="140" x="91.5" y="1274.9731">Display_ToggleLayer()</text><!--SRC=[xPTRRu8m5CVV_HGdFk737dPvCiiIWiMGWJZeJ9OiQHezOSsGOa4Jl_sgp7cT4WTxs7mXj3tdVoxzXHQ0bAjS34NAanoQ5X-Zuf3px1rU4oEMGnRCXbGFMqsGQeGAhXi0aobE4PeUPXcF49uMmzNwZLxVrdHyyBX8W6weMa8kvbmfqo_bsqEU0wUtT5mPtJMqLQJaD8M0QGFcfvWOBJq99zA_UjZBkAqr_D1qcJS9CHdPKb4nnZug8KU6toUzJzqTj_khKbLjg0SuH373RmEKK5kalzsGDeIePgYM7T3JLIMxtmhJUgnFtFAzlaie-VaU7kpoElUgbJSJrrNfvmwQZhJos2ZUzVumnxUOvVTifri7hrgTkiUtQPETuxMTAtO6EoLr_WmcZJ8nZXgqeIEoDEPpvYGYNtxyIf0NaAuJKX8mEp0zeeTcvuMH0Rsm-AzPF8LDICs0Ciliq-U0N5Yvi0AnFjIh22bmD-I8vxoevXILNKBPm7ITJl4rAvng9BEsIs35COvm_1ktjpe1hndnrHskmjFPZgVPcyldg4h_e9HKfZAAObnBwzG_0000]--></g></svg>