<?xml version="1.0" encoding="UTF-8" standalone="no"?>
<!DOCTYPE svg PUBLIC "-//W3C//DTD SVG 1.1//EN"
 "http://www.w3.org/Graphics/SVG/1.1/DTD/svg11.dtd">
<!-- Generated by graphviz version 2.43.0 (0)
 -->
<!-- Title: r_wm_Surface_t Pages: 1 -->
<svg width="1317pt" height="521pt"
 viewBox="0.00 0.00 1317.00 521.00" xmlns="http://www.w3.org/2000/svg" xmlns:xlink="http://www.w3.org/1999/xlink">
<g id="graph0" class="graph" transform="scale(1 1) rotate(0) translate(4 517)">
<title>r_wm_Surface_t</title>
<polygon fill="white" stroke="transparent" points="-4,4 -4,-517 1313,-517 1313,4 -4,4"/>
<!-- Node1 -->
<g id="node1" class="node">
<title>Node1</title>
<g id="a_node1"><a xlink:title=" ">
<polygon fill="#bfbfbf" stroke="black" points="253,-0.5 253,-19.5 348,-19.5 348,-0.5 253,-0.5"/>
<text text-anchor="middle" x="300.5" y="-7.5" font-family="Helvetica,sans-Serif" font-size="10.00">r_wm_Surface_t</text>
</a>
</g>
</g>
<!-- Node2 -->
<g id="node2" class="node">
<title>Node2</title>
<g id="a_node2"><a xlink:title=" ">
<polygon fill="white" stroke="#bfbfbf" points="0,-89.5 0,-108.5 103,-108.5 103,-89.5 0,-89.5"/>
<text text-anchor="middle" x="51.5" y="-96.5" font-family="Helvetica,sans-Serif" font-size="10.00">r_wm_ColorFmt_t</text>
</a>
</g>
</g>
<!-- Node2&#45;&gt;Node1 -->
<g id="edge1" class="edge">
<title>Node2&#45;&gt;Node1</title>
<path fill="none" stroke="#9a32cd" stroke-dasharray="5,2" d="M64.7,-81.43C76.85,-67.43 96.17,-48.1 117.5,-38 160.31,-17.73 214.54,-11.86 252.82,-10.52"/>
<polygon fill="#9a32cd" stroke="#9a32cd" points="61.83,-79.4 58.11,-89.32 67.21,-83.89 61.83,-79.4"/>
<text text-anchor="middle" x="129" y="-52" font-family="Helvetica,sans-Serif" font-size="10.00"> Fmt</text>
</g>
<!-- Node3 -->
<g id="node3" class="node">
<title>Node3</title>
<g id="a_node3"><a xlink:title=" ">
<polygon fill="white" stroke="#bfbfbf" points="121.5,-89.5 121.5,-108.5 177.5,-108.5 177.5,-89.5 121.5,-89.5"/>
<text text-anchor="middle" x="149.5" y="-96.5" font-family="Helvetica,sans-Serif" font-size="10.00">uint16_t</text>
</a>
</g>
</g>
<!-- Node3&#45;&gt;Node1 -->
<g id="edge2" class="edge">
<title>Node3&#45;&gt;Node1</title>
<path fill="none" stroke="#9a32cd" stroke-dasharray="5,2" d="M144.95,-79.58C142.88,-66.42 142.72,-49.15 152.5,-38 165.5,-23.18 214.66,-16.45 252.79,-13.42"/>
<polygon fill="#9a32cd" stroke="#9a32cd" points="141.54,-80.34 146.97,-89.43 148.39,-78.94 141.54,-80.34"/>
<text text-anchor="middle" x="172" y="-57.5" font-family="Helvetica,sans-Serif" font-size="10.00"> StrideC</text>
<text text-anchor="middle" x="172" y="-46.5" font-family="Helvetica,sans-Serif" font-size="10.00">StrideY</text>
</g>
<!-- Node4 -->
<g id="node4" class="node">
<title>Node4</title>
<g id="a_node4"><a xlink:title=" ">
<polygon fill="white" stroke="#bfbfbf" points="642.5,-415.5 642.5,-434.5 698.5,-434.5 698.5,-415.5 642.5,-415.5"/>
<text text-anchor="middle" x="670.5" y="-422.5" font-family="Helvetica,sans-Serif" font-size="10.00">uint32_t</text>
</a>
</g>
</g>
<!-- Node4&#45;&gt;Node1 -->
<g id="edge3" class="edge">
<title>Node4&#45;&gt;Node1</title>
<path fill="none" stroke="#9a32cd" stroke-dasharray="5,2" d="M632.02,-423.43C552.97,-421.87 374.89,-416.26 317.5,-397 261.4,-378.17 205.5,-384.18 205.5,-325 205.5,-325 205.5,-325 205.5,-98 205.5,-58.64 250.4,-32.28 278.47,-19.65"/>
<polygon fill="#9a32cd" stroke="#9a32cd" points="632.43,-426.94 642.5,-423.62 632.56,-419.94 632.43,-426.94"/>
<text text-anchor="middle" x="223.5" y="-203" font-family="Helvetica,sans-Serif" font-size="10.00"> Height</text>
<text text-anchor="middle" x="223.5" y="-192" font-family="Helvetica,sans-Serif" font-size="10.00">PosX</text>
<text text-anchor="middle" x="223.5" y="-181" font-family="Helvetica,sans-Serif" font-size="10.00">PosY</text>
<text text-anchor="middle" x="223.5" y="-170" font-family="Helvetica,sans-Serif" font-size="10.00">PosZ</text>
<text text-anchor="middle" x="223.5" y="-159" font-family="Helvetica,sans-Serif" font-size="10.00">Width</text>
</g>
<!-- Node5 -->
<g id="node5" class="node">
<title>Node5</title>
<g id="a_node5"><a xlink:href="structr__wm__Discom__t.html" target="_top" xlink:title=" ">
<polygon fill="white" stroke="black" points="253,-89.5 253,-108.5 348,-108.5 348,-89.5 253,-89.5"/>
<text text-anchor="middle" x="300.5" y="-96.5" font-family="Helvetica,sans-Serif" font-size="10.00">r_wm_Discom_t</text>
</a>
</g>
</g>
<!-- Node4&#45;&gt;Node5 -->
<g id="edge5" class="edge">
<title>Node4&#45;&gt;Node5</title>
<path fill="none" stroke="#9a32cd" stroke-dasharray="5,2" d="M631.99,-423.86C587.08,-422.66 511.16,-417.42 449.5,-397 362.58,-368.22 316.51,-374.17 270.5,-295 233.5,-231.33 279.81,-137.06 295.59,-108.5"/>
<polygon fill="#9a32cd" stroke="#9a32cd" points="632.09,-427.36 642.17,-424.07 632.24,-420.36 632.09,-427.36"/>
<text text-anchor="middle" x="293.5" y="-287" font-family="Helvetica,sans-Serif" font-size="10.00"> Callback</text>
<text text-anchor="middle" x="293.5" y="-276" font-family="Helvetica,sans-Serif" font-size="10.00">Crc</text>
<text text-anchor="middle" x="293.5" y="-265" font-family="Helvetica,sans-Serif" font-size="10.00">Height</text>
<text text-anchor="middle" x="293.5" y="-254" font-family="Helvetica,sans-Serif" font-size="10.00">PosX</text>
<text text-anchor="middle" x="293.5" y="-243" font-family="Helvetica,sans-Serif" font-size="10.00">PosY</text>
<text text-anchor="middle" x="293.5" y="-232" font-family="Helvetica,sans-Serif" font-size="10.00">Width</text>
</g>
<!-- Node8 -->
<g id="node8" class="node">
<title>Node8</title>
<g id="a_node8"><a xlink:href="structr__wm__Doc__t.html" target="_top" xlink:title=" ">
<polygon fill="white" stroke="black" points="452,-89.5 452,-108.5 529,-108.5 529,-89.5 452,-89.5"/>
<text text-anchor="middle" x="490.5" y="-96.5" font-family="Helvetica,sans-Serif" font-size="10.00">r_wm_Doc_t</text>
</a>
</g>
</g>
<!-- Node4&#45;&gt;Node8 -->
<g id="edge10" class="edge">
<title>Node4&#45;&gt;Node8</title>
<path fill="none" stroke="#9a32cd" stroke-dasharray="5,2" d="M632.13,-419.33C569.32,-409.34 446.53,-379.46 396.5,-295 381.55,-269.76 382.24,-254.63 396.5,-229 403.87,-215.74 414.91,-221.86 425.5,-211 456.83,-178.85 479.03,-128.76 487.13,-108.72"/>
<polygon fill="#9a32cd" stroke="#9a32cd" points="632,-422.84 642.41,-420.87 633.04,-415.92 632,-422.84"/>
<text text-anchor="middle" x="443.5" y="-265" font-family="Helvetica,sans-Serif" font-size="10.00"> ActMonLowerTime</text>
<text text-anchor="middle" x="443.5" y="-254" font-family="Helvetica,sans-Serif" font-size="10.00">ActMonUpperTime</text>
</g>
<!-- Node10 -->
<g id="node10" class="node">
<title>Node10</title>
<g id="a_node10"><a xlink:href="structr__wm__DOC__Status__t.html" target="_top" xlink:title=" ">
<polygon fill="white" stroke="black" points="721.5,-174 721.5,-193 837.5,-193 837.5,-174 721.5,-174"/>
<text text-anchor="middle" x="779.5" y="-181" font-family="Helvetica,sans-Serif" font-size="10.00">r_wm_DOC_Status_t</text>
</a>
</g>
</g>
<!-- Node4&#45;&gt;Node10 -->
<g id="edge13" class="edge">
<title>Node4&#45;&gt;Node10</title>
<path fill="none" stroke="#9a32cd" stroke-dasharray="5,2" d="M660.92,-406.02C642.24,-368.2 606.44,-279.73 650.5,-229 669.31,-207.34 685.35,-220.29 712.5,-211 728.48,-205.53 746.24,-198.46 759.45,-193"/>
<polygon fill="#9a32cd" stroke="#9a32cd" points="657.99,-407.96 665.66,-415.27 664.22,-404.77 657.99,-407.96"/>
<text text-anchor="middle" x="663" y="-321.5" font-family="Helvetica,sans-Serif" font-size="10.00"> VocSelMon</text>
</g>
<!-- Node11 -->
<g id="node11" class="node">
<title>Node11</title>
<g id="a_node11"><a xlink:href="structr__wm__Doc__DUParam__t.html" target="_top" xlink:title="Data Structure containing the used DU parameters by DOC.">
<polygon fill="white" stroke="black" points="659.5,-252.5 659.5,-271.5 787.5,-271.5 787.5,-252.5 659.5,-252.5"/>
<text text-anchor="middle" x="723.5" y="-259.5" font-family="Helvetica,sans-Serif" font-size="10.00">r_wm_Doc_DUParam_t</text>
</a>
</g>
</g>
<!-- Node4&#45;&gt;Node11 -->
<g id="edge16" class="edge">
<title>Node4&#45;&gt;Node11</title>
<path fill="none" stroke="#9a32cd" stroke-dasharray="5,2" d="M676.57,-405.56C688,-370.83 712.31,-296.98 720.64,-271.7"/>
<polygon fill="#9a32cd" stroke="#9a32cd" points="673.15,-404.75 673.35,-415.34 679.8,-406.94 673.15,-404.75"/>
<text text-anchor="middle" x="739" y="-389" font-family="Helvetica,sans-Serif" font-size="10.00"> HbackPorchOffset</text>
<text text-anchor="middle" x="739" y="-378" font-family="Helvetica,sans-Serif" font-size="10.00">ScreenHeight</text>
<text text-anchor="middle" x="739" y="-367" font-family="Helvetica,sans-Serif" font-size="10.00">ScreenWidth</text>
<text text-anchor="middle" x="739" y="-356" font-family="Helvetica,sans-Serif" font-size="10.00">VbackPorchOffset</text>
</g>
<!-- Node12 -->
<g id="node12" class="node">
<title>Node12</title>
<g id="a_node12"><a xlink:href="structr__wm__Doc__MonitorParam__t.html" target="_top" xlink:title="Data Structure containing the DOC configuration.">
<polygon fill="white" stroke="black" points="939.5,-174 939.5,-193 1089.5,-193 1089.5,-174 939.5,-174"/>
<text text-anchor="middle" x="1014.5" y="-181" font-family="Helvetica,sans-Serif" font-size="10.00">r_wm_Doc_MonitorParam_t</text>
</a>
</g>
</g>
<!-- Node4&#45;&gt;Node12 -->
<g id="edge27" class="edge">
<title>Node4&#45;&gt;Node12</title>
<path fill="none" stroke="#9a32cd" stroke-dasharray="5,2" d="M709.23,-423.86C734.39,-421.84 766.48,-415.38 788.5,-397 819.69,-370.98 801.43,-346.43 824.5,-313 855.02,-268.76 866.77,-258.81 911.5,-229 935.49,-213.01 966.17,-200.64 987.78,-193.04"/>
<polygon fill="#9a32cd" stroke="#9a32cd" points="708.7,-420.38 698.93,-424.47 709.12,-427.37 708.7,-420.38"/>
<text text-anchor="middle" x="849" y="-327" font-family="Helvetica,sans-Serif" font-size="10.00"> threshold</text>
<text text-anchor="middle" x="849" y="-316" font-family="Helvetica,sans-Serif" font-size="10.00">vom_num</text>
</g>
<!-- Node14 -->
<g id="node14" class="node">
<title>Node14</title>
<g id="a_node14"><a xlink:href="structr__wm__DOC__rect.html" target="_top" xlink:title="structure describing the DOC Rectangle configuration">
<polygon fill="white" stroke="black" points="945,-314.5 945,-333.5 1040,-333.5 1040,-314.5 945,-314.5"/>
<text text-anchor="middle" x="992.5" y="-321.5" font-family="Helvetica,sans-Serif" font-size="10.00">r_wm_DOC_rect</text>
</a>
</g>
</g>
<!-- Node4&#45;&gt;Node14 -->
<g id="edge21" class="edge">
<title>Node4&#45;&gt;Node14</title>
<path fill="none" stroke="#9a32cd" stroke-dasharray="5,2" d="M708.57,-420.22C741.16,-416.35 789.09,-409.15 829.5,-397 885.79,-380.08 948.31,-348.61 976.81,-333.51"/>
<polygon fill="#9a32cd" stroke="#9a32cd" points="708.09,-416.75 698.55,-421.36 708.89,-423.71 708.09,-416.75"/>
<text text-anchor="middle" x="952.5" y="-378" font-family="Helvetica,sans-Serif" font-size="10.00"> height</text>
<text text-anchor="middle" x="952.5" y="-367" font-family="Helvetica,sans-Serif" font-size="10.00">width</text>
</g>
<!-- Node18 -->
<g id="node18" class="node">
<title>Node18</title>
<g id="a_node18"><a xlink:href="structr__wm__DOC__pos.html" target="_top" xlink:title="structure describing the DOC Position configuration">
<polygon fill="white" stroke="black" points="1216,-314.5 1216,-333.5 1309,-333.5 1309,-314.5 1216,-314.5"/>
<text text-anchor="middle" x="1262.5" y="-321.5" font-family="Helvetica,sans-Serif" font-size="10.00">r_wm_DOC_pos</text>
</a>
</g>
</g>
<!-- Node4&#45;&gt;Node18 -->
<g id="edge26" class="edge">
<title>Node4&#45;&gt;Node18</title>
<path fill="none" stroke="#9a32cd" stroke-dasharray="5,2" d="M709.05,-423.11C830.53,-420.18 1198.69,-410.25 1220.5,-397 1244.25,-382.57 1256,-349.29 1260.39,-333.55"/>
<polygon fill="#9a32cd" stroke="#9a32cd" points="708.65,-419.62 698.74,-423.36 708.82,-426.62 708.65,-419.62"/>
<text text-anchor="middle" x="1268.5" y="-378" font-family="Helvetica,sans-Serif" font-size="10.00"> pos_x</text>
<text text-anchor="middle" x="1268.5" y="-367" font-family="Helvetica,sans-Serif" font-size="10.00">pos_y</text>
</g>
<!-- Node5&#45;&gt;Node1 -->
<g id="edge4" class="edge">
<title>Node5&#45;&gt;Node1</title>
<path fill="none" stroke="#9a32cd" stroke-dasharray="5,2" d="M300.5,-79.19C300.5,-60.74 300.5,-33.41 300.5,-19.62"/>
<polygon fill="#9a32cd" stroke="#9a32cd" points="297,-79.34 300.5,-89.34 304,-79.34 297,-79.34"/>
<text text-anchor="middle" x="320.5" y="-52" font-family="Helvetica,sans-Serif" font-size="10.00"> Discom</text>
</g>
<!-- Node6 -->
<g id="node6" class="node">
<title>Node6</title>
<g id="a_node6"><a xlink:title=" ">
<polygon fill="white" stroke="#bfbfbf" points="478.5,-314.5 478.5,-333.5 516.5,-333.5 516.5,-314.5 478.5,-314.5"/>
<text text-anchor="middle" x="497.5" y="-321.5" font-family="Helvetica,sans-Serif" font-size="10.00">bool</text>
</a>
</g>
</g>
<!-- Node6&#45;&gt;Node5 -->
<g id="edge6" class="edge">
<title>Node6&#45;&gt;Node5</title>
<path fill="none" stroke="#9a32cd" stroke-dasharray="5,2" d="M468.25,-323.75C439.52,-323 395.85,-317.73 366.5,-295 305.18,-247.52 300.39,-140.42 300.36,-108.89"/>
<polygon fill="#9a32cd" stroke="#9a32cd" points="468.44,-327.25 478.47,-323.84 468.5,-320.25 468.44,-327.25"/>
<text text-anchor="middle" x="332" y="-181" font-family="Helvetica,sans-Serif" font-size="10.00"> Enable</text>
</g>
<!-- Node6&#45;&gt;Node8 -->
<g id="edge11" class="edge">
<title>Node6&#45;&gt;Node8</title>
<path fill="none" stroke="#9a32cd" stroke-dasharray="5,2" d="M496.91,-304.21C495.47,-258.35 491.82,-142.04 490.78,-108.92"/>
<polygon fill="#9a32cd" stroke="#9a32cd" points="493.41,-304.37 497.23,-314.26 500.41,-304.15 493.41,-304.37"/>
<text text-anchor="middle" x="530" y="-186.5" font-family="Helvetica,sans-Serif" font-size="10.00"> ActMonEnable</text>
<text text-anchor="middle" x="530" y="-175.5" font-family="Helvetica,sans-Serif" font-size="10.00">Enable</text>
</g>
<!-- Node6&#45;&gt;Node10 -->
<g id="edge14" class="edge">
<title>Node6&#45;&gt;Node10</title>
<path fill="none" stroke="#9a32cd" stroke-dasharray="5,2" d="M504.83,-304.65C506.07,-301.45 507.34,-298.13 508.5,-295 519.29,-265.87 507.1,-248.22 531.5,-229 563.25,-203.99 673.22,-220.52 712.5,-211 729.76,-206.81 748.49,-199.12 761.74,-193.09"/>
<polygon fill="#9a32cd" stroke="#9a32cd" points="501.47,-303.62 501.06,-314.21 507.98,-306.19 501.47,-303.62"/>
<text text-anchor="middle" x="574.5" y="-287" font-family="Helvetica,sans-Serif" font-size="10.00"> ActMonError0</text>
<text text-anchor="middle" x="574.5" y="-276" font-family="Helvetica,sans-Serif" font-size="10.00">ActMonError1</text>
<text text-anchor="middle" x="574.5" y="-265" font-family="Helvetica,sans-Serif" font-size="10.00">MonitorStatus</text>
<text text-anchor="middle" x="574.5" y="-254" font-family="Helvetica,sans-Serif" font-size="10.00">ParameterError</text>
<text text-anchor="middle" x="574.5" y="-243" font-family="Helvetica,sans-Serif" font-size="10.00">VocMonitorStatus</text>
<text text-anchor="middle" x="574.5" y="-232" font-family="Helvetica,sans-Serif" font-size="10.00">VomError</text>
</g>
<!-- Node7 -->
<g id="node7" class="node">
<title>Node7</title>
<g id="a_node7"><a xlink:title=" ">
<polygon fill="white" stroke="#bfbfbf" points="370.5,-174 370.5,-193 416.5,-193 416.5,-174 370.5,-174"/>
<text text-anchor="middle" x="393.5" y="-181" font-family="Helvetica,sans-Serif" font-size="10.00">void *</text>
</a>
</g>
</g>
<!-- Node7&#45;&gt;Node1 -->
<g id="edge29" class="edge">
<title>Node7&#45;&gt;Node1</title>
<path fill="none" stroke="#9a32cd" stroke-dasharray="5,2" d="M391.24,-163.5C386.87,-133.84 374.85,-76.02 344.5,-38 338.24,-30.15 329.03,-24.01 320.66,-19.57"/>
<polygon fill="#9a32cd" stroke="#9a32cd" points="387.81,-164.26 392.6,-173.71 394.75,-163.33 387.81,-164.26"/>
<text text-anchor="middle" x="397.5" y="-96.5" font-family="Helvetica,sans-Serif" font-size="10.00"> Handle</text>
</g>
<!-- Node7&#45;&gt;Node5 -->
<g id="edge7" class="edge">
<title>Node7&#45;&gt;Node5</title>
<path fill="none" stroke="#9a32cd" stroke-dasharray="5,2" d="M373.47,-167.58C362.56,-159.21 348.98,-148.38 337.5,-138 326.98,-128.49 315.73,-116.67 308.43,-108.76"/>
<polygon fill="#9a32cd" stroke="#9a32cd" points="371.48,-170.46 381.56,-173.71 375.71,-164.88 371.48,-170.46"/>
<text text-anchor="middle" x="354" y="-130" font-family="Helvetica,sans-Serif" font-size="10.00"> CbArg</text>
</g>
<!-- Node7&#45;&gt;Node8 -->
<g id="edge17" class="edge">
<title>Node7&#45;&gt;Node8</title>
<path fill="none" stroke="#9a32cd" stroke-dasharray="5,2" d="M397.9,-163.9C401.59,-151.94 407.99,-136.85 418.5,-127 427.75,-118.33 440.05,-112.37 451.86,-108.31"/>
<polygon fill="#9a32cd" stroke="#9a32cd" points="394.46,-163.2 395.23,-173.77 401.22,-165.03 394.46,-163.2"/>
<text text-anchor="middle" x="435" y="-130" font-family="Helvetica,sans-Serif" font-size="10.00"> CbArg</text>
</g>
<!-- Node8&#45;&gt;Node1 -->
<g id="edge8" class="edge">
<title>Node8&#45;&gt;Node1</title>
<path fill="none" stroke="#9a32cd" stroke-dasharray="5,2" d="M471.42,-83.02C453.48,-69.57 425.44,-50.14 398.5,-38 380.8,-30.02 360.22,-23.92 342.5,-19.55"/>
<polygon fill="#9a32cd" stroke="#9a32cd" points="469.74,-86.14 479.81,-89.43 473.99,-80.58 469.74,-86.14"/>
<text text-anchor="middle" x="465.5" y="-52" font-family="Helvetica,sans-Serif" font-size="10.00"> Doc</text>
</g>
<!-- Node9 -->
<g id="node9" class="node">
<title>Node9</title>
<g id="a_node9"><a xlink:title=" ">
<polygon fill="white" stroke="#bfbfbf" points="582,-174 582,-193 703,-193 703,-174 582,-174"/>
<text text-anchor="middle" x="642.5" y="-181" font-family="Helvetica,sans-Serif" font-size="10.00">r_wm_Doc_DocUnit_t</text>
</a>
</g>
</g>
<!-- Node9&#45;&gt;Node8 -->
<g id="edge9" class="edge">
<title>Node9&#45;&gt;Node8</title>
<path fill="none" stroke="#9a32cd" stroke-dasharray="5,2" d="M617.8,-169.09C586.32,-152.01 532.83,-122.98 506.34,-108.6"/>
<polygon fill="#9a32cd" stroke="#9a32cd" points="616.35,-172.29 626.81,-173.98 619.69,-166.14 616.35,-172.29"/>
<text text-anchor="middle" x="578" y="-130" font-family="Helvetica,sans-Serif" font-size="10.00"> DocUnit</text>
</g>
<!-- Node10&#45;&gt;Node8 -->
<g id="edge12" class="edge">
<title>Node10&#45;&gt;Node8</title>
<path fill="none" stroke="#9a32cd" stroke-dasharray="5,2" d="M750.24,-170.07C738.61,-165.35 725.03,-160.13 712.5,-156 649.27,-135.16 573.74,-117.62 529.08,-107.98"/>
<polygon fill="#9a32cd" stroke="#9a32cd" points="748.91,-173.31 759.49,-173.88 751.58,-166.84 748.91,-173.31"/>
<text text-anchor="middle" x="674.5" y="-130" font-family="Helvetica,sans-Serif" font-size="10.00"> Callback</text>
</g>
<!-- Node11&#45;&gt;Node8 -->
<g id="edge15" class="edge">
<title>Node11&#45;&gt;Node8</title>
<path fill="none" stroke="#9a32cd" stroke-dasharray="5,2" d="M753.78,-248.51C768.22,-242.57 785.74,-235.39 801.5,-229 821.46,-220.91 834.42,-228.84 846.5,-211 860.2,-190.76 862,-174.9 846.5,-156 802.6,-102.46 606.98,-119.19 538.5,-109 535.48,-108.55 532.36,-108.05 529.23,-107.52"/>
<polygon fill="#9a32cd" stroke="#9a32cd" points="752.25,-245.35 744.34,-252.39 754.92,-251.82 752.25,-245.35"/>
<text text-anchor="middle" x="880.5" y="-181" font-family="Helvetica,sans-Serif" font-size="10.00"> DuParam</text>
</g>
<!-- Node12&#45;&gt;Node8 -->
<g id="edge18" class="edge">
<title>Node12&#45;&gt;Node8</title>
<path fill="none" stroke="#9a32cd" stroke-dasharray="5,2" d="M990.44,-168.84C965.55,-155.48 925.13,-135.88 887.5,-127 736.34,-91.32 692.73,-127.35 538.5,-109 535.47,-108.64 532.34,-108.2 529.2,-107.72"/>
<polygon fill="#9a32cd" stroke="#9a32cd" points="989.03,-172.06 999.48,-173.79 992.39,-165.92 989.03,-172.06"/>
<text text-anchor="middle" x="952" y="-130" font-family="Helvetica,sans-Serif" font-size="10.00"> DocMonitors</text>
</g>
<!-- Node13 -->
<g id="node13" class="node">
<title>Node13</title>
<g id="a_node13"><a xlink:title=" ">
<polygon fill="white" stroke="#bfbfbf" points="882.5,-314.5 882.5,-333.5 926.5,-333.5 926.5,-314.5 882.5,-314.5"/>
<text text-anchor="middle" x="904.5" y="-321.5" font-family="Helvetica,sans-Serif" font-size="10.00">_Bool</text>
</a>
</g>
</g>
<!-- Node13&#45;&gt;Node12 -->
<g id="edge19" class="edge">
<title>Node13&#45;&gt;Node12</title>
<path fill="none" stroke="#9a32cd" stroke-dasharray="5,2" d="M911.5,-305.03C919.89,-285 935.37,-252.38 955.5,-229 968.22,-214.22 986.64,-201.3 999.5,-193.25"/>
<polygon fill="#9a32cd" stroke="#9a32cd" points="908.18,-303.89 907.68,-314.47 914.67,-306.52 908.18,-303.89"/>
<text text-anchor="middle" x="974" y="-265" font-family="Helvetica,sans-Serif" font-size="10.00"> Enable</text>
<text text-anchor="middle" x="974" y="-254" font-family="Helvetica,sans-Serif" font-size="10.00">in_use</text>
</g>
<!-- Node14&#45;&gt;Node12 -->
<g id="edge20" class="edge">
<title>Node14&#45;&gt;Node12</title>
<path fill="none" stroke="#9a32cd" stroke-dasharray="5,2" d="M995.48,-304.23C1000.3,-273.88 1009.62,-215.21 1013.12,-193.16"/>
<polygon fill="#9a32cd" stroke="#9a32cd" points="991.99,-303.91 993.88,-314.34 998.9,-305.01 991.99,-303.91"/>
<text text-anchor="middle" x="1017.5" y="-259.5" font-family="Helvetica,sans-Serif" font-size="10.00"> rect</text>
</g>
<!-- Node15 -->
<g id="node15" class="node">
<title>Node15</title>
<g id="a_node15"><a xlink:href="structr__wm__DOC__Color.html" target="_top" xlink:title=" ">
<polygon fill="white" stroke="black" points="1058,-314.5 1058,-333.5 1159,-333.5 1159,-314.5 1058,-314.5"/>
<text text-anchor="middle" x="1108.5" y="-321.5" font-family="Helvetica,sans-Serif" font-size="10.00">r_wm_DOC_Color</text>
</a>
</g>
</g>
<!-- Node15&#45;&gt;Node12 -->
<g id="edge22" class="edge">
<title>Node15&#45;&gt;Node12</title>
<path fill="none" stroke="#9a32cd" stroke-dasharray="5,2" d="M1096.83,-305.8C1076.57,-275.96 1035.61,-215.6 1020.38,-193.16"/>
<polygon fill="#9a32cd" stroke="#9a32cd" points="1094.11,-308.03 1102.62,-314.34 1099.9,-304.1 1094.11,-308.03"/>
<text text-anchor="middle" x="1101.5" y="-259.5" font-family="Helvetica,sans-Serif" font-size="10.00"> color</text>
</g>
<!-- Node16 -->
<g id="node16" class="node">
<title>Node16</title>
<g id="a_node16"><a xlink:href="structr__wm__Doc__Threshold.html" target="_top" xlink:title=" ">
<polygon fill="white" stroke="black" points="1038,-415.5 1038,-434.5 1159,-434.5 1159,-415.5 1038,-415.5"/>
<text text-anchor="middle" x="1098.5" y="-422.5" font-family="Helvetica,sans-Serif" font-size="10.00">r_wm_Doc_Threshold</text>
</a>
</g>
</g>
<!-- Node16&#45;&gt;Node15 -->
<g id="edge23" class="edge">
<title>Node16&#45;&gt;Node15</title>
<path fill="none" stroke="#9a32cd" stroke-dasharray="5,2" d="M1100.42,-405.03C1102.59,-383.54 1106.03,-349.47 1107.63,-333.62"/>
<polygon fill="#9a32cd" stroke="#9a32cd" points="1096.91,-404.91 1099.39,-415.21 1103.87,-405.62 1096.91,-404.91"/>
<text text-anchor="middle" x="1119.5" y="-383.5" font-family="Helvetica,sans-Serif" font-size="10.00"> blue</text>
<text text-anchor="middle" x="1119.5" y="-372.5" font-family="Helvetica,sans-Serif" font-size="10.00">green</text>
<text text-anchor="middle" x="1119.5" y="-361.5" font-family="Helvetica,sans-Serif" font-size="10.00">red</text>
</g>
<!-- Node17 -->
<g id="node17" class="node">
<title>Node17</title>
<g id="a_node17"><a xlink:title=" ">
<polygon fill="white" stroke="#bfbfbf" points="1118.5,-493.5 1118.5,-512.5 1168.5,-512.5 1168.5,-493.5 1118.5,-493.5"/>
<text text-anchor="middle" x="1143.5" y="-500.5" font-family="Helvetica,sans-Serif" font-size="10.00">uint8_t</text>
</a>
</g>
</g>
<!-- Node17&#45;&gt;Node12 -->
<g id="edge28" class="edge">
<title>Node17&#45;&gt;Node12</title>
<path fill="none" stroke="#9a32cd" stroke-dasharray="5,2" d="M1155.63,-484.78C1157.47,-481.63 1159.19,-478.29 1160.5,-475 1187.22,-408.05 1187.31,-382.59 1168.5,-313 1157.22,-271.28 1151.94,-257.56 1119.5,-229 1099.44,-211.34 1071.33,-199.93 1049.25,-193.09"/>
<polygon fill="#9a32cd" stroke="#9a32cd" points="1152.52,-483.14 1150.03,-493.44 1158.4,-486.94 1152.52,-483.14"/>
<text text-anchor="middle" x="1196" y="-372.5" font-family="Helvetica,sans-Serif" font-size="10.00"> CLUT</text>
</g>
<!-- Node17&#45;&gt;Node16 -->
<g id="edge24" class="edge">
<title>Node17&#45;&gt;Node16</title>
<path fill="none" stroke="#9a32cd" stroke-dasharray="5,2" d="M1133.18,-484.57C1123.93,-468.95 1110.76,-446.7 1103.6,-434.62"/>
<polygon fill="#9a32cd" stroke="#9a32cd" points="1130.23,-486.46 1138.34,-493.28 1136.25,-482.89 1130.23,-486.46"/>
<text text-anchor="middle" x="1141" y="-467" font-family="Helvetica,sans-Serif" font-size="10.00"> lower</text>
<text text-anchor="middle" x="1141" y="-456" font-family="Helvetica,sans-Serif" font-size="10.00">upper</text>
</g>
<!-- Node18&#45;&gt;Node12 -->
<g id="edge25" class="edge">
<title>Node18&#45;&gt;Node12</title>
<path fill="none" stroke="#9a32cd" stroke-dasharray="5,2" d="M1255.66,-304.85C1246.61,-283.36 1228.56,-248.09 1201.5,-229 1168.91,-206.01 1126,-194.79 1089.51,-189.36"/>
<polygon fill="#9a32cd" stroke="#9a32cd" points="1252.52,-306.42 1259.48,-314.41 1259.02,-303.83 1252.52,-306.42"/>
<text text-anchor="middle" x="1261" y="-259.5" font-family="Helvetica,sans-Serif" font-size="10.00"> pos</text>
</g>
<!-- Node19 -->
<g id="node19" class="node">
<title>Node19</title>
<g id="a_node19"><a xlink:title=" ">
<polygon fill="white" stroke="#bfbfbf" points="547.5,-89.5 547.5,-108.5 605.5,-108.5 605.5,-89.5 547.5,-89.5"/>
<text text-anchor="middle" x="576.5" y="-96.5" font-family="Helvetica,sans-Serif" font-size="10.00">uintptr_t</text>
</a>
</g>
</g>
<!-- Node19&#45;&gt;Node1 -->
<g id="edge30" class="edge">
<title>Node19&#45;&gt;Node1</title>
<path fill="none" stroke="#9a32cd" stroke-dasharray="5,2" d="M557.92,-83.12C539.42,-69.12 509.65,-48.77 480.5,-38 437.37,-22.07 385.12,-15.53 348.05,-12.85"/>
<polygon fill="#9a32cd" stroke="#9a32cd" points="555.99,-86.05 566.04,-89.4 560.28,-80.52 555.99,-86.05"/>
<text text-anchor="middle" x="556.5" y="-63" font-family="Helvetica,sans-Serif" font-size="10.00"> FBuf</text>
<text text-anchor="middle" x="556.5" y="-52" font-family="Helvetica,sans-Serif" font-size="10.00">FBufC0</text>
<text text-anchor="middle" x="556.5" y="-41" font-family="Helvetica,sans-Serif" font-size="10.00">FBufC1</text>
</g>
</g>
</svg>
