<?xml version="1.0" encoding="UTF-8" standalone="no"?>
<!DOCTYPE svg PUBLIC "-//W3C//DTD SVG 1.1//EN"
 "http://www.w3.org/Graphics/SVG/1.1/DTD/svg11.dtd">
<!-- Generated by graphviz version 2.43.0 (0)
 -->
<!-- Title: taurus_rvgc_cmd_msg Pages: 1 -->
<svg width="544pt" height="758pt"
 viewBox="0.00 0.00 544.00 758.30" xmlns="http://www.w3.org/2000/svg" xmlns:xlink="http://www.w3.org/1999/xlink">
<g id="graph0" class="graph" transform="scale(1 1) rotate(0) translate(4 754.3)">
<title>taurus_rvgc_cmd_msg</title>
<polygon fill="white" stroke="transparent" points="-4,4 -4,-754.3 540,-754.3 540,4 -4,4"/>
<!-- Node1 -->
<g id="node1" class="node">
<title>Node1</title>
<g id="a_node1"><a xlink:title=" ">
<polygon fill="#bfbfbf" stroke="black" points="410,-404.8 410,-423.8 536,-423.8 536,-404.8 410,-404.8"/>
<text text-anchor="middle" x="473" y="-411.8" font-family="Helvetica,sans-Serif" font-size="10.00">taurus_rvgc_cmd_msg</text>
</a>
</g>
</g>
<!-- Node2 -->
<g id="node2" class="node">
<title>Node2</title>
<g id="a_node2"><a xlink:title=" ">
<polygon fill="white" stroke="#bfbfbf" points="147.5,-703.8 147.5,-722.8 260.5,-722.8 260.5,-703.8 147.5,-703.8"/>
<text text-anchor="middle" x="204" y="-710.8" font-family="Helvetica,sans-Serif" font-size="10.00">anonymous:params</text>
</a>
</g>
</g>
<!-- Node2&#45;&gt;Node1 -->
<g id="edge1" class="edge">
<title>Node2&#45;&gt;Node1</title>
<path fill="none" stroke="#9a32cd" stroke-dasharray="5,2" d="M270.56,-708.44C310.47,-702.17 359.79,-688.03 392,-656.3 460.72,-588.6 470.41,-460.71 471.78,-424.24"/>
<polygon fill="#9a32cd" stroke="#9a32cd" points="270.04,-704.98 260.64,-709.87 271.03,-711.9 270.04,-704.98"/>
<text text-anchor="middle" x="340.5" y="-707.3" font-family="Helvetica,sans-Serif" font-size="10.00"> params</text>
</g>
<!-- Node3 -->
<g id="node3" class="node">
<title>Node3</title>
<g id="a_node3"><a xlink:href="structtaurus__rvgc__ioc__display__init__in.html" target="_top" xlink:title=" ">
<polygon fill="white" stroke="black" points="137,-654.3 137,-684.3 271,-684.3 271,-654.3 137,-654.3"/>
<text text-anchor="start" x="145" y="-672.3" font-family="Helvetica,sans-Serif" font-size="10.00">taurus_rvgc_ioc_display</text>
<text text-anchor="middle" x="204" y="-661.3" font-family="Helvetica,sans-Serif" font-size="10.00">_init_in</text>
</a>
</g>
</g>
<!-- Node3&#45;&gt;Node1 -->
<g id="edge2" class="edge">
<title>Node3&#45;&gt;Node1</title>
<path fill="none" stroke="#9a32cd" stroke-dasharray="5,2" d="M269.36,-650.83C308.8,-636.81 358.05,-614.08 392,-580.3 439.62,-532.91 462.95,-451.56 469.79,-423.86"/>
<polygon fill="#9a32cd" stroke="#9a32cd" points="267.88,-647.64 259.56,-654.21 270.16,-654.26 267.88,-647.64"/>
<text text-anchor="middle" x="340.5" y="-644.3" font-family="Helvetica,sans-Serif" font-size="10.00"> ioc_display_init</text>
</g>
<!-- Node4 -->
<g id="node4" class="node">
<title>Node4</title>
<g id="a_node4"><a xlink:title=" ">
<polygon fill="white" stroke="#bfbfbf" points="0,-471.8 0,-490.8 56,-490.8 56,-471.8 0,-471.8"/>
<text text-anchor="middle" x="28" y="-478.8" font-family="Helvetica,sans-Serif" font-size="10.00">uint64_t</text>
</a>
</g>
</g>
<!-- Node4&#45;&gt;Node3 -->
<g id="edge3" class="edge">
<title>Node4&#45;&gt;Node3</title>
<path fill="none" stroke="#9a32cd" stroke-dasharray="5,2" d="M29.44,-501.09C31.08,-554.91 38.78,-701.85 74,-731.3 89.34,-744.13 102.04,-741.9 119,-731.3 134.5,-721.6 123.5,-706.63 137,-694.3 141.25,-690.41 146.17,-687.11 151.36,-684.31"/>
<polygon fill="#9a32cd" stroke="#9a32cd" points="32.93,-500.74 29.16,-490.83 25.93,-500.92 32.93,-500.74"/>
<text text-anchor="middle" x="96.5" y="-742.3" font-family="Helvetica,sans-Serif" font-size="10.00"> cookie</text>
</g>
<!-- Node6 -->
<g id="node6" class="node">
<title>Node6</title>
<g id="a_node6"><a xlink:href="structtaurus__rvgc__ioc__layer__reserve__in.html" target="_top" xlink:title=" ">
<polygon fill="white" stroke="black" points="142.5,-350.3 142.5,-380.3 265.5,-380.3 265.5,-350.3 142.5,-350.3"/>
<text text-anchor="start" x="150.5" y="-368.3" font-family="Helvetica,sans-Serif" font-size="10.00">taurus_rvgc_ioc_layer</text>
<text text-anchor="middle" x="204" y="-357.3" font-family="Helvetica,sans-Serif" font-size="10.00">_reserve_in</text>
</a>
</g>
</g>
<!-- Node4&#45;&gt;Node6 -->
<g id="edge6" class="edge">
<title>Node4&#45;&gt;Node6</title>
<path fill="none" stroke="#9a32cd" stroke-dasharray="5,2" d="M37.62,-462.44C45.28,-447.54 57.78,-427.19 74,-414.3 86.94,-404.01 123.41,-390.58 154.29,-380.38"/>
<polygon fill="#9a32cd" stroke="#9a32cd" points="34.33,-461.19 33.1,-471.72 40.63,-464.26 34.33,-461.19"/>
<text text-anchor="middle" x="96.5" y="-417.3" font-family="Helvetica,sans-Serif" font-size="10.00"> cookie</text>
</g>
<!-- Node7 -->
<g id="node7" class="node">
<title>Node7</title>
<g id="a_node7"><a xlink:href="structtaurus__rvgc__ioc__layer__set__size__in.html" target="_top" xlink:title=" ">
<polygon fill="white" stroke="black" points="142.5,-399.3 142.5,-429.3 265.5,-429.3 265.5,-399.3 142.5,-399.3"/>
<text text-anchor="start" x="150.5" y="-417.3" font-family="Helvetica,sans-Serif" font-size="10.00">taurus_rvgc_ioc_layer</text>
<text text-anchor="middle" x="204" y="-406.3" font-family="Helvetica,sans-Serif" font-size="10.00">_set_size_in</text>
</a>
</g>
</g>
<!-- Node4&#45;&gt;Node7 -->
<g id="edge9" class="edge">
<title>Node4&#45;&gt;Node7</title>
<path fill="none" stroke="#9a32cd" stroke-dasharray="5,2" d="M66.33,-477.27C83.31,-474.2 103.11,-468.8 119,-459.3 129.26,-453.16 127.13,-446.05 137,-439.3 142.46,-435.56 148.55,-432.29 154.77,-429.45"/>
<polygon fill="#9a32cd" stroke="#9a32cd" points="65.51,-473.86 56.19,-478.9 66.62,-480.77 65.51,-473.86"/>
<text text-anchor="middle" x="96.5" y="-478.3" font-family="Helvetica,sans-Serif" font-size="10.00"> cookie</text>
</g>
<!-- Node8 -->
<g id="node8" class="node">
<title>Node8</title>
<g id="a_node8"><a xlink:href="structtaurus__rvgc__ioc__layer__set__pos__in.html" target="_top" xlink:title=" ">
<polygon fill="white" stroke="black" points="142.5,-579.3 142.5,-609.3 265.5,-609.3 265.5,-579.3 142.5,-579.3"/>
<text text-anchor="start" x="150.5" y="-597.3" font-family="Helvetica,sans-Serif" font-size="10.00">taurus_rvgc_ioc_layer</text>
<text text-anchor="middle" x="204" y="-586.3" font-family="Helvetica,sans-Serif" font-size="10.00">_set_pos_in</text>
</a>
</g>
</g>
<!-- Node4&#45;&gt;Node8 -->
<g id="edge12" class="edge">
<title>Node4&#45;&gt;Node8</title>
<path fill="none" stroke="#9a32cd" stroke-dasharray="5,2" d="M29.85,-501.17C32.47,-551.39 42.22,-681.22 74,-707.3 89.46,-719.98 103.01,-719.31 119,-707.3 141.94,-690.07 120.85,-669.02 137,-645.3 147.02,-630.57 162.65,-618.23 176.18,-609.37"/>
<polygon fill="#9a32cd" stroke="#9a32cd" points="33.34,-500.79 29.37,-490.97 26.35,-501.13 33.34,-500.79"/>
<text text-anchor="middle" x="96.5" y="-719.3" font-family="Helvetica,sans-Serif" font-size="10.00"> cookie</text>
</g>
<!-- Node9 -->
<g id="node9" class="node">
<title>Node9</title>
<g id="a_node9"><a xlink:href="structtaurus__rvgc__ioc__display__flush__in.html" target="_top" xlink:title=" ">
<polygon fill="white" stroke="black" points="137,-500.3 137,-530.3 271,-530.3 271,-500.3 137,-500.3"/>
<text text-anchor="start" x="145" y="-518.3" font-family="Helvetica,sans-Serif" font-size="10.00">taurus_rvgc_ioc_display</text>
<text text-anchor="middle" x="204" y="-507.3" font-family="Helvetica,sans-Serif" font-size="10.00">_flush_in</text>
</a>
</g>
</g>
<!-- Node4&#45;&gt;Node9 -->
<g id="edge15" class="edge">
<title>Node4&#45;&gt;Node9</title>
<path fill="none" stroke="#9a32cd" stroke-dasharray="5,2" d="M31.69,-501.22C37.35,-539.83 51.83,-622.56 74,-639.3 89.96,-651.35 103.17,-651.52 119,-639.3 144.08,-619.92 120.01,-597.05 137,-570.3 147.31,-554.05 163.99,-540.21 178,-530.48"/>
<polygon fill="#9a32cd" stroke="#9a32cd" points="35.13,-500.59 30.27,-491.18 28.2,-501.57 35.13,-500.59"/>
<text text-anchor="middle" x="96.5" y="-651.3" font-family="Helvetica,sans-Serif" font-size="10.00"> cookie</text>
</g>
<!-- Node10 -->
<g id="node10" class="node">
<title>Node10</title>
<g id="a_node10"><a xlink:href="structtaurus__rvgc__ioc__layer__set__addr__in.html" target="_top" xlink:title=" ">
<polygon fill="white" stroke="black" points="142.5,-117.3 142.5,-147.3 265.5,-147.3 265.5,-117.3 142.5,-117.3"/>
<text text-anchor="start" x="150.5" y="-135.3" font-family="Helvetica,sans-Serif" font-size="10.00">taurus_rvgc_ioc_layer</text>
<text text-anchor="middle" x="204" y="-124.3" font-family="Helvetica,sans-Serif" font-size="10.00">_set_addr_in</text>
</a>
</g>
</g>
<!-- Node4&#45;&gt;Node10 -->
<g id="edge19" class="edge">
<title>Node4&#45;&gt;Node10</title>
<path fill="none" stroke="#9a32cd" stroke-dasharray="5,2" d="M32.96,-461.35C38.7,-431.91 49.37,-375.04 56,-326.3 61.51,-285.81 44.92,-172 74,-143.3 91.68,-125.85 118.13,-121.41 142.48,-122.01"/>
<polygon fill="#9a32cd" stroke="#9a32cd" points="29.46,-461.06 30.96,-471.54 36.32,-462.41 29.46,-461.06"/>
<text text-anchor="middle" x="96.5" y="-146.3" font-family="Helvetica,sans-Serif" font-size="10.00"> cookie</text>
</g>
<!-- Node11 -->
<g id="node11" class="node">
<title>Node11</title>
<g id="a_node11"><a xlink:href="structtaurus__rvgc__ioc__display__get__info__in.html" target="_top" xlink:title=" ">
<polygon fill="white" stroke="black" points="137,-448.3 137,-478.3 271,-478.3 271,-448.3 137,-448.3"/>
<text text-anchor="start" x="145" y="-466.3" font-family="Helvetica,sans-Serif" font-size="10.00">taurus_rvgc_ioc_display</text>
<text text-anchor="middle" x="204" y="-455.3" font-family="Helvetica,sans-Serif" font-size="10.00">_get_info_in</text>
</a>
</g>
</g>
<!-- Node4&#45;&gt;Node11 -->
<g id="edge22" class="edge">
<title>Node4&#45;&gt;Node11</title>
<path fill="none" stroke="#9a32cd" stroke-dasharray="5,2" d="M38.04,-500.15C45.6,-513.52 57.75,-530.42 74,-538.3 92,-547.02 102.52,-549.63 119,-538.3 137.43,-525.62 121.47,-507.39 137,-491.3 142.01,-486.1 148.14,-481.82 154.63,-478.31"/>
<polygon fill="#9a32cd" stroke="#9a32cd" points="41.11,-498.45 33.36,-491.22 34.91,-501.7 41.11,-498.45"/>
<text text-anchor="middle" x="96.5" y="-548.3" font-family="Helvetica,sans-Serif" font-size="10.00"> cookie</text>
</g>
<!-- Node12 -->
<g id="node12" class="node">
<title>Node12</title>
<g id="a_node12"><a xlink:href="structtaurus__rvgc__ioc__layer__release__in.html" target="_top" xlink:title=" ">
<polygon fill="white" stroke="black" points="142.5,-297.3 142.5,-327.3 265.5,-327.3 265.5,-297.3 142.5,-297.3"/>
<text text-anchor="start" x="150.5" y="-315.3" font-family="Helvetica,sans-Serif" font-size="10.00">taurus_rvgc_ioc_layer</text>
<text text-anchor="middle" x="204" y="-304.3" font-family="Helvetica,sans-Serif" font-size="10.00">_release_in</text>
</a>
</g>
</g>
<!-- Node4&#45;&gt;Node12 -->
<g id="edge25" class="edge">
<title>Node4&#45;&gt;Node12</title>
<path fill="none" stroke="#9a32cd" stroke-dasharray="5,2" d="M31.24,-461.56C36.31,-420.83 50.12,-329.68 74,-311.3 94.05,-295.86 121.54,-294.25 145.99,-297.26"/>
<polygon fill="#9a32cd" stroke="#9a32cd" points="27.75,-461.27 30.04,-471.62 34.7,-462.1 27.75,-461.27"/>
<text text-anchor="middle" x="96.5" y="-314.3" font-family="Helvetica,sans-Serif" font-size="10.00"> cookie</text>
</g>
<!-- Node13 -->
<g id="node13" class="node">
<title>Node13</title>
<g id="a_node13"><a xlink:href="structR__TAURUS__CmdMsg__t.html" target="_top" xlink:title=" ">
<polygon fill="white" stroke="black" points="141.5,-201.8 141.5,-220.8 266.5,-220.8 266.5,-201.8 141.5,-201.8"/>
<text text-anchor="middle" x="204" y="-208.8" font-family="Helvetica,sans-Serif" font-size="10.00">R_TAURUS_CmdMsg_t</text>
</a>
</g>
</g>
<!-- Node4&#45;&gt;Node13 -->
<g id="edge28" class="edge">
<title>Node4&#45;&gt;Node13</title>
<path fill="none" stroke="#9a32cd" stroke-dasharray="5,2" d="M32.48,-461.32C43.05,-400.76 74,-223.3 74,-223.3 91.85,-206.82 117.6,-202.11 141.4,-202.17"/>
<polygon fill="#9a32cd" stroke="#9a32cd" points="28.98,-461.05 30.71,-471.5 35.88,-462.25 28.98,-461.05"/>
<text text-anchor="middle" x="96.5" y="-248.3" font-family="Helvetica,sans-Serif" font-size="10.00"> Par1</text>
<text text-anchor="middle" x="96.5" y="-237.3" font-family="Helvetica,sans-Serif" font-size="10.00">Par2</text>
<text text-anchor="middle" x="96.5" y="-226.3" font-family="Helvetica,sans-Serif" font-size="10.00">Par3</text>
</g>
<!-- Node5 -->
<g id="node5" class="node">
<title>Node5</title>
<g id="a_node5"><a xlink:title=" ">
<polygon fill="white" stroke="#bfbfbf" points="0,-297.8 0,-316.8 56,-316.8 56,-297.8 0,-297.8"/>
<text text-anchor="middle" x="28" y="-304.8" font-family="Helvetica,sans-Serif" font-size="10.00">uint32_t</text>
</a>
</g>
</g>
<!-- Node5&#45;&gt;Node1 -->
<g id="edge17" class="edge">
<title>Node5&#45;&gt;Node1</title>
<path fill="none" stroke="#9a32cd" stroke-dasharray="5,2" d="M28.78,-287.26C28.59,-226.1 31.64,-43.78 74,-7.3 89.15,5.75 99.66,-2.22 119,-7.3 253.74,-42.68 304.22,-53.13 392,-161.3 455.28,-239.28 468.8,-367.91 471.42,-404.38"/>
<polygon fill="#9a32cd" stroke="#9a32cd" points="25.28,-287.53 28.85,-297.5 32.28,-287.48 25.28,-287.53"/>
<text text-anchor="middle" x="204" y="-59.3" font-family="Helvetica,sans-Serif" font-size="10.00"> type</text>
</g>
<!-- Node5&#45;&gt;Node3 -->
<g id="edge4" class="edge">
<title>Node5&#45;&gt;Node3</title>
<path fill="none" stroke="#9a32cd" stroke-dasharray="5,2" d="M33.02,-327.23C38.83,-356.67 49.58,-413.53 56,-462.3 58.93,-484.53 57.81,-647.79 74,-663.3 90.43,-679.04 114.11,-683.24 136.71,-682.58"/>
<polygon fill="#9a32cd" stroke="#9a32cd" points="36.38,-326.17 30.99,-317.05 29.51,-327.54 36.38,-326.17"/>
<text text-anchor="middle" x="96.5" y="-684.3" font-family="Helvetica,sans-Serif" font-size="10.00"> display</text>
</g>
<!-- Node5&#45;&gt;Node6 -->
<g id="edge7" class="edge">
<title>Node5&#45;&gt;Node6</title>
<path fill="none" stroke="#9a32cd" stroke-dasharray="5,2" d="M43.22,-290.21C51.27,-281.88 62.11,-272.73 74,-268.3 92.74,-261.31 103.17,-256.07 119,-268.3 144.08,-287.67 116.28,-313.31 137,-337.3 141.47,-342.48 147.07,-346.73 153.11,-350.2"/>
<polygon fill="#9a32cd" stroke="#9a32cd" points="40.51,-287.99 36.4,-297.75 45.7,-292.68 40.51,-287.99"/>
<text text-anchor="middle" x="96.5" y="-282.3" font-family="Helvetica,sans-Serif" font-size="10.00"> display</text>
<text text-anchor="middle" x="96.5" y="-271.3" font-family="Helvetica,sans-Serif" font-size="10.00">layer</text>
</g>
<!-- Node5&#45;&gt;Node7 -->
<g id="edge10" class="edge">
<title>Node5&#45;&gt;Node7</title>
<path fill="none" stroke="#9a32cd" stroke-dasharray="5,2" d="M62.63,-320.83C86.36,-330.62 114.66,-342.87 119,-347.3 133.49,-362.11 122.01,-376 137,-390.3 140.62,-393.75 144.77,-396.71 149.19,-399.25"/>
<polygon fill="#9a32cd" stroke="#9a32cd" points="63.74,-317.51 53.16,-316.96 61.09,-323.98 63.74,-317.51"/>
<text text-anchor="middle" x="96.5" y="-383.3" font-family="Helvetica,sans-Serif" font-size="10.00"> display</text>
<text text-anchor="middle" x="96.5" y="-372.3" font-family="Helvetica,sans-Serif" font-size="10.00">layer</text>
<text text-anchor="middle" x="96.5" y="-361.3" font-family="Helvetica,sans-Serif" font-size="10.00">size_h</text>
<text text-anchor="middle" x="96.5" y="-350.3" font-family="Helvetica,sans-Serif" font-size="10.00">size_w</text>
</g>
<!-- Node5&#45;&gt;Node8 -->
<g id="edge13" class="edge">
<title>Node5&#45;&gt;Node8</title>
<path fill="none" stroke="#9a32cd" stroke-dasharray="5,2" d="M32.4,-326.79C42.7,-385.9 73,-559.21 74,-560.3 91.42,-579.2 117.99,-588.11 142.49,-592.13"/>
<polygon fill="#9a32cd" stroke="#9a32cd" points="35.83,-326.11 30.67,-316.86 28.93,-327.31 35.83,-326.11"/>
<text text-anchor="middle" x="96.5" y="-621.3" font-family="Helvetica,sans-Serif" font-size="10.00"> display</text>
<text text-anchor="middle" x="96.5" y="-610.3" font-family="Helvetica,sans-Serif" font-size="10.00">layer</text>
<text text-anchor="middle" x="96.5" y="-599.3" font-family="Helvetica,sans-Serif" font-size="10.00">pos_x</text>
<text text-anchor="middle" x="96.5" y="-588.3" font-family="Helvetica,sans-Serif" font-size="10.00">pos_y</text>
</g>
<!-- Node5&#45;&gt;Node9 -->
<g id="edge16" class="edge">
<title>Node5&#45;&gt;Node9</title>
<path fill="none" stroke="#9a32cd" stroke-dasharray="5,2" d="M31.18,-327.01C36.28,-369.53 50.39,-467.83 74,-490.3 83.42,-499.26 110.03,-505.2 136.66,-509.03"/>
<polygon fill="#9a32cd" stroke="#9a32cd" points="34.65,-326.57 30.02,-317.04 27.7,-327.38 34.65,-326.57"/>
<text text-anchor="middle" x="96.5" y="-519.3" font-family="Helvetica,sans-Serif" font-size="10.00"> blocking</text>
<text text-anchor="middle" x="96.5" y="-508.3" font-family="Helvetica,sans-Serif" font-size="10.00">display</text>
</g>
<!-- Node5&#45;&gt;Node10 -->
<g id="edge20" class="edge">
<title>Node5&#45;&gt;Node10</title>
<path fill="none" stroke="#9a32cd" stroke-dasharray="5,2" d="M28.93,-287.36C29.2,-228.09 33.49,-54.95 74,-20.3 120.65,19.61 176.2,-78.25 195.76,-117.17"/>
<polygon fill="#9a32cd" stroke="#9a32cd" points="25.43,-287.62 28.92,-297.62 32.43,-287.62 25.43,-287.62"/>
<text text-anchor="middle" x="96.5" y="-45.3" font-family="Helvetica,sans-Serif" font-size="10.00"> display</text>
<text text-anchor="middle" x="96.5" y="-34.3" font-family="Helvetica,sans-Serif" font-size="10.00">layer</text>
<text text-anchor="middle" x="96.5" y="-23.3" font-family="Helvetica,sans-Serif" font-size="10.00">paddr</text>
</g>
<!-- Node5&#45;&gt;Node11 -->
<g id="edge23" class="edge">
<title>Node5&#45;&gt;Node11</title>
<path fill="none" stroke="#9a32cd" stroke-dasharray="5,2" d="M31.14,-327.01C35.03,-353.17 45.68,-399.1 74,-425.3 83.77,-434.33 110.42,-442.86 136.98,-449.53"/>
<polygon fill="#9a32cd" stroke="#9a32cd" points="34.58,-326.29 29.82,-316.82 27.63,-327.19 34.58,-326.29"/>
<text text-anchor="middle" x="96.5" y="-447.3" font-family="Helvetica,sans-Serif" font-size="10.00"> display</text>
</g>
<!-- Node5&#45;&gt;Node12 -->
<g id="edge26" class="edge">
<title>Node5&#45;&gt;Node12</title>
<path fill="none" stroke="#9a32cd" stroke-dasharray="5,2" d="M28.65,-287.51C29.31,-256.01 35.78,-195.16 74,-167.3 90.16,-155.52 103.03,-155.25 119,-167.3 142.25,-184.83 123.6,-204.44 137,-230.3 150.37,-256.1 172.59,-281.48 187.51,-297.01"/>
<polygon fill="#9a32cd" stroke="#9a32cd" points="25.15,-287.67 28.63,-297.68 32.15,-287.69 25.15,-287.67"/>
<text text-anchor="middle" x="96.5" y="-181.3" font-family="Helvetica,sans-Serif" font-size="10.00"> display</text>
<text text-anchor="middle" x="96.5" y="-170.3" font-family="Helvetica,sans-Serif" font-size="10.00">layer</text>
</g>
<!-- Node5&#45;&gt;Node13 -->
<g id="edge29" class="edge">
<title>Node5&#45;&gt;Node13</title>
<path fill="none" stroke="#9a32cd" stroke-dasharray="5,2" d="M29.58,-287.5C31.58,-235.04 40.06,-94.48 74,-66.3 89.39,-53.52 103.55,-53.6 119,-66.3 150.86,-92.47 115.8,-121.94 137,-157.3 148.73,-176.85 170.23,-192.42 185.5,-201.72"/>
<polygon fill="#9a32cd" stroke="#9a32cd" points="26.08,-287.44 29.24,-297.55 33.08,-287.68 26.08,-287.44"/>
<text text-anchor="middle" x="96.5" y="-102.3" font-family="Helvetica,sans-Serif" font-size="10.00"> Channel</text>
<text text-anchor="middle" x="96.5" y="-91.3" font-family="Helvetica,sans-Serif" font-size="10.00">Cmd</text>
<text text-anchor="middle" x="96.5" y="-80.3" font-family="Helvetica,sans-Serif" font-size="10.00">Id</text>
<text text-anchor="middle" x="96.5" y="-69.3" font-family="Helvetica,sans-Serif" font-size="10.00">Per</text>
</g>
<!-- Node6&#45;&gt;Node1 -->
<g id="edge5" class="edge">
<title>Node6&#45;&gt;Node1</title>
<path fill="none" stroke="#9a32cd" stroke-dasharray="5,2" d="M275.77,-378.07C310.76,-384.41 353.61,-392.21 392,-399.3 401.45,-401.04 411.52,-402.92 421.22,-404.73"/>
<polygon fill="#9a32cd" stroke="#9a32cd" points="276.12,-374.58 265.65,-376.24 274.87,-381.46 276.12,-374.58"/>
<text text-anchor="middle" x="340.5" y="-402.3" font-family="Helvetica,sans-Serif" font-size="10.00"> ioc_layer_reserve</text>
</g>
<!-- Node7&#45;&gt;Node1 -->
<g id="edge8" class="edge">
<title>Node7&#45;&gt;Node1</title>
<path fill="none" stroke="#9a32cd" stroke-dasharray="5,2" d="M275.67,-414.3C317.37,-414.3 369.67,-414.3 409.8,-414.3"/>
<polygon fill="#9a32cd" stroke="#9a32cd" points="275.59,-410.8 265.59,-414.3 275.59,-417.8 275.59,-410.8"/>
<text text-anchor="middle" x="340.5" y="-417.3" font-family="Helvetica,sans-Serif" font-size="10.00"> ioc_layer_set_size</text>
</g>
<!-- Node8&#45;&gt;Node1 -->
<g id="edge11" class="edge">
<title>Node8&#45;&gt;Node1</title>
<path fill="none" stroke="#9a32cd" stroke-dasharray="5,2" d="M263.56,-575.79C302.41,-561.72 353.19,-539.75 392,-510.3 425.53,-484.86 454.18,-442.84 466.1,-423.99"/>
<polygon fill="#9a32cd" stroke="#9a32cd" points="262.21,-572.56 253.96,-579.2 264.55,-579.16 262.21,-572.56"/>
<text text-anchor="middle" x="340.5" y="-568.3" font-family="Helvetica,sans-Serif" font-size="10.00"> ioc_layer_set_pos</text>
</g>
<!-- Node9&#45;&gt;Node1 -->
<g id="edge14" class="edge">
<title>Node9&#45;&gt;Node1</title>
<path fill="none" stroke="#9a32cd" stroke-dasharray="5,2" d="M281.4,-498.51C315.92,-489.7 356.77,-477.54 392,-462.3 416.68,-451.62 442.99,-434.61 458.44,-423.97"/>
<polygon fill="#9a32cd" stroke="#9a32cd" points="280.23,-495.2 271.38,-501.02 281.93,-501.99 280.23,-495.2"/>
<text text-anchor="middle" x="340.5" y="-498.3" font-family="Helvetica,sans-Serif" font-size="10.00"> ioc_display_flush</text>
</g>
<!-- Node10&#45;&gt;Node1 -->
<g id="edge18" class="edge">
<title>Node10&#45;&gt;Node1</title>
<path fill="none" stroke="#9a32cd" stroke-dasharray="5,2" d="M259.97,-151.16C300.93,-167.61 355.8,-195.03 392,-234.3 440.91,-287.35 463.54,-375.23 469.99,-404.48"/>
<polygon fill="#9a32cd" stroke="#9a32cd" points="261,-147.8 250.41,-147.41 258.44,-154.32 261,-147.8"/>
<text text-anchor="middle" x="340.5" y="-237.3" font-family="Helvetica,sans-Serif" font-size="10.00"> ioc_layer_set_addr</text>
</g>
<!-- Node11&#45;&gt;Node1 -->
<g id="edge21" class="edge">
<title>Node11&#45;&gt;Node1</title>
<path fill="none" stroke="#9a32cd" stroke-dasharray="5,2" d="M281.08,-449.56C315.03,-443.41 355.53,-436.03 392,-429.3 401.45,-427.55 411.52,-425.68 421.22,-423.86"/>
<polygon fill="#9a32cd" stroke="#9a32cd" points="280.44,-446.12 271.22,-451.35 281.69,-453.01 280.44,-446.12"/>
<text text-anchor="middle" x="340.5" y="-450.3" font-family="Helvetica,sans-Serif" font-size="10.00"> ioc_display_get_info</text>
</g>
<!-- Node12&#45;&gt;Node1 -->
<g id="edge24" class="edge">
<title>Node12&#45;&gt;Node1</title>
<path fill="none" stroke="#9a32cd" stroke-dasharray="5,2" d="M275.67,-327.48C311.36,-336.35 354.85,-349.02 392,-365.3 416.91,-376.21 443.37,-393.74 458.75,-404.61"/>
<polygon fill="#9a32cd" stroke="#9a32cd" points="276.37,-324.05 265.83,-325.08 274.71,-330.85 276.37,-324.05"/>
<text text-anchor="middle" x="340.5" y="-368.3" font-family="Helvetica,sans-Serif" font-size="10.00"> ioc_layer_release</text>
</g>
<!-- Node13&#45;&gt;Node1 -->
<g id="edge27" class="edge">
<title>Node13&#45;&gt;Node1</title>
<path fill="none" stroke="#9a32cd" stroke-dasharray="5,2" d="M237.35,-224.93C276.55,-242.42 343.39,-275.44 392,-316.3 424.62,-343.71 453.74,-385.86 465.94,-404.66"/>
<polygon fill="#9a32cd" stroke="#9a32cd" points="238.57,-221.64 228,-220.82 235.75,-228.05 238.57,-221.64"/>
<text text-anchor="middle" x="340.5" y="-319.3" font-family="Helvetica,sans-Serif" font-size="10.00"> hdr</text>
</g>
</g>
</svg>
