<?xml version="1.0" encoding="UTF-8" standalone="no"?>
<!DOCTYPE svg PUBLIC "-//W3C//DTD SVG 1.1//EN"
 "http://www.w3.org/Graphics/SVG/1.1/DTD/svg11.dtd">
<!-- Generated by graphviz version 2.43.0 (0)
 -->
<!-- Title: r_cio_ether_current_time Pages: 1 -->
<svg width="210pt" height="106pt"
 viewBox="0.00 0.00 209.50 106.00" xmlns="http://www.w3.org/2000/svg" xmlns:xlink="http://www.w3.org/1999/xlink">
<g id="graph0" class="graph" transform="scale(1 1) rotate(0) translate(4 102)">
<title>r_cio_ether_current_time</title>
<polygon fill="white" stroke="transparent" points="-4,4 -4,-102 205.5,-102 205.5,4 -4,4"/>
<!-- Node1 -->
<g id="node1" class="node">
<title>Node1</title>
<g id="a_node1"><a xlink:title=" ">
<polygon fill="#bfbfbf" stroke="black" points="53.5,-0.5 53.5,-19.5 191.5,-19.5 191.5,-0.5 53.5,-0.5"/>
<text text-anchor="middle" x="122.5" y="-7.5" font-family="Helvetica,sans-Serif" font-size="10.00">r_cio_ether_current_time</text>
</a>
</g>
</g>
<!-- Node2 -->
<g id="node2" class="node">
<title>Node2</title>
<g id="a_node2"><a xlink:title=" ">
<polygon fill="white" stroke="#bfbfbf" points="0,-78.5 0,-97.5 139,-97.5 139,-78.5 0,-78.5"/>
<text text-anchor="middle" x="69.5" y="-85.5" font-family="Helvetica,sans-Serif" font-size="10.00">Eth_TimeStampQualType</text>
</a>
</g>
</g>
<!-- Node2&#45;&gt;Node1 -->
<g id="edge1" class="edge">
<title>Node2&#45;&gt;Node1</title>
<path fill="none" stroke="#9a32cd" stroke-dasharray="5,2" d="M75.92,-69.01C79.87,-59.31 85.51,-47.42 92.5,-38 97.68,-31.02 104.88,-24.47 110.93,-19.57"/>
<polygon fill="#9a32cd" stroke="#9a32cd" points="72.61,-67.88 72.32,-78.47 79.15,-70.37 72.61,-67.88"/>
<text text-anchor="middle" x="123.5" y="-46.5" font-family="Helvetica,sans-Serif" font-size="10.00"> timeQualPtr</text>
</g>
<!-- Node3 -->
<g id="node3" class="node">
<title>Node3</title>
<g id="a_node3"><a xlink:title=" ">
<polygon fill="white" stroke="#bfbfbf" points="157.5,-78.5 157.5,-97.5 195.5,-97.5 195.5,-78.5 157.5,-78.5"/>
<text text-anchor="middle" x="176.5" y="-85.5" font-family="Helvetica,sans-Serif" font-size="10.00">char</text>
</a>
</g>
</g>
<!-- Node3&#45;&gt;Node1 -->
<g id="edge2" class="edge">
<title>Node3&#45;&gt;Node1</title>
<path fill="none" stroke="#9a32cd" stroke-dasharray="5,2" d="M170.61,-68.91C166.91,-59.18 161.51,-47.3 154.5,-38 149.16,-30.92 141.64,-24.45 135.24,-19.63"/>
<polygon fill="#9a32cd" stroke="#9a32cd" points="167.33,-70.14 173.95,-78.41 173.94,-67.82 167.33,-70.14"/>
<text text-anchor="middle" x="184" y="-52" font-family="Helvetica,sans-Serif" font-size="10.00"> BufIdx</text>
<text text-anchor="middle" x="184" y="-41" font-family="Helvetica,sans-Serif" font-size="10.00">CtrlIdx</text>
</g>
</g>
</svg>
