<?xml version="1.0" encoding="UTF-8" standalone="no"?>
<!DOCTYPE svg PUBLIC "-//W3C//DTD SVG 1.1//EN"
 "http://www.w3.org/Graphics/SVG/1.1/DTD/svg11.dtd">
<!-- Generated by graphviz version 2.43.0 (0)
 -->
<!-- Title: Eth_RateRatioType Pages: 1 -->
<svg width="222pt" height="251pt"
 viewBox="0.00 0.00 222.00 251.00" xmlns="http://www.w3.org/2000/svg" xmlns:xlink="http://www.w3.org/1999/xlink">
<g id="graph0" class="graph" transform="scale(1 1) rotate(0) translate(4 247)">
<title>Eth_RateRatioType</title>
<polygon fill="white" stroke="transparent" points="-4,4 -4,-247 218,-247 218,4 -4,4"/>
<!-- Node1 -->
<g id="node1" class="node">
<title>Node1</title>
<g id="a_node1"><a xlink:title=" ">
<polygon fill="#bfbfbf" stroke="black" points="3.5,-0.5 3.5,-19.5 111.5,-19.5 111.5,-0.5 3.5,-0.5"/>
<text text-anchor="middle" x="57.5" y="-7.5" font-family="Helvetica,sans-Serif" font-size="10.00">Eth_RateRatioType</text>
</a>
</g>
</g>
<!-- Node2 -->
<g id="node2" class="node">
<title>Node2</title>
<g id="a_node2"><a xlink:href="structEth__TimeIntDiffType.html" target="_top" xlink:title=" ">
<polygon fill="white" stroke="black" points="0,-78.5 0,-97.5 115,-97.5 115,-78.5 0,-78.5"/>
<text text-anchor="middle" x="57.5" y="-85.5" font-family="Helvetica,sans-Serif" font-size="10.00">Eth_TimeIntDiffType</text>
</a>
</g>
</g>
<!-- Node2&#45;&gt;Node1 -->
<g id="edge1" class="edge">
<title>Node2&#45;&gt;Node1</title>
<path fill="none" stroke="#9a32cd" stroke-dasharray="5,2" d="M57.5,-68.22C57.5,-52.7 57.5,-31.36 57.5,-19.62"/>
<polygon fill="#9a32cd" stroke="#9a32cd" points="54,-68.28 57.5,-78.28 61,-68.28 54,-68.28"/>
<text text-anchor="middle" x="118" y="-52" font-family="Helvetica,sans-Serif" font-size="10.00"> IngressTimeStampDelta</text>
<text text-anchor="middle" x="118" y="-41" font-family="Helvetica,sans-Serif" font-size="10.00">OriginTimeStampDelta</text>
</g>
<!-- Node3 -->
<g id="node3" class="node">
<title>Node3</title>
<g id="a_node3"><a xlink:title=" ">
<polygon fill="white" stroke="#bfbfbf" points="3.5,-145.5 3.5,-164.5 41.5,-164.5 41.5,-145.5 3.5,-145.5"/>
<text text-anchor="middle" x="22.5" y="-152.5" font-family="Helvetica,sans-Serif" font-size="10.00">char</text>
</a>
</g>
</g>
<!-- Node3&#45;&gt;Node2 -->
<g id="edge2" class="edge">
<title>Node3&#45;&gt;Node2</title>
<path fill="none" stroke="#9a32cd" stroke-dasharray="5,2" d="M32.1,-136.16C38.85,-123.63 47.59,-107.41 52.85,-97.63"/>
<polygon fill="#9a32cd" stroke="#9a32cd" points="28.88,-134.77 27.22,-145.23 35.04,-138.09 28.88,-134.77"/>
<text text-anchor="middle" x="54.5" y="-119" font-family="Helvetica,sans-Serif" font-size="10.00"> sign</text>
</g>
<!-- Node4 -->
<g id="node4" class="node">
<title>Node4</title>
<g id="a_node4"><a xlink:href="structEth__TimeStampType.html" target="_top" xlink:title=" ">
<polygon fill="white" stroke="black" points="59.5,-145.5 59.5,-164.5 175.5,-164.5 175.5,-145.5 59.5,-145.5"/>
<text text-anchor="middle" x="117.5" y="-152.5" font-family="Helvetica,sans-Serif" font-size="10.00">Eth_TimeStampType</text>
</a>
</g>
</g>
<!-- Node4&#45;&gt;Node2 -->
<g id="edge3" class="edge">
<title>Node4&#45;&gt;Node2</title>
<path fill="none" stroke="#9a32cd" stroke-dasharray="5,2" d="M102.39,-137.63C90.66,-124.92 74.85,-107.8 65.46,-97.63"/>
<polygon fill="#9a32cd" stroke="#9a32cd" points="100.05,-140.26 109.41,-145.23 105.2,-135.51 100.05,-140.26"/>
<text text-anchor="middle" x="100" y="-119" font-family="Helvetica,sans-Serif" font-size="10.00"> diff</text>
</g>
<!-- Node5 -->
<g id="node5" class="node">
<title>Node5</title>
<g id="a_node5"><a xlink:title=" ">
<polygon fill="white" stroke="#bfbfbf" points="22,-223.5 22,-242.5 107,-242.5 107,-223.5 22,-223.5"/>
<text text-anchor="middle" x="64.5" y="-230.5" font-family="Helvetica,sans-Serif" font-size="10.00">unsigned long</text>
</a>
</g>
</g>
<!-- Node5&#45;&gt;Node4 -->
<g id="edge4" class="edge">
<title>Node5&#45;&gt;Node4</title>
<path fill="none" stroke="#9a32cd" stroke-dasharray="5,2" d="M60.57,-213.38C59.52,-203.65 59.95,-191.93 65.5,-183 70.71,-174.62 79.44,-168.71 88.27,-164.61"/>
<polygon fill="#9a32cd" stroke="#9a32cd" points="57.12,-213.98 62.18,-223.29 64.03,-212.85 57.12,-213.98"/>
<text text-anchor="middle" x="99" y="-197" font-family="Helvetica,sans-Serif" font-size="10.00"> nanoseconds</text>
<text text-anchor="middle" x="99" y="-186" font-family="Helvetica,sans-Serif" font-size="10.00">seconds</text>
</g>
<!-- Node6 -->
<g id="node6" class="node">
<title>Node6</title>
<g id="a_node6"><a xlink:title=" ">
<polygon fill="white" stroke="#bfbfbf" points="125,-223.5 125,-242.5 214,-242.5 214,-223.5 125,-223.5"/>
<text text-anchor="middle" x="169.5" y="-230.5" font-family="Helvetica,sans-Serif" font-size="10.00">unsigned short</text>
</a>
</g>
</g>
<!-- Node6&#45;&gt;Node4 -->
<g id="edge5" class="edge">
<title>Node6&#45;&gt;Node4</title>
<path fill="none" stroke="#9a32cd" stroke-dasharray="5,2" d="M157.87,-215.01C147.17,-199.37 131.74,-176.81 123.4,-164.62"/>
<polygon fill="#9a32cd" stroke="#9a32cd" points="155,-217.01 163.53,-223.28 160.78,-213.05 155,-217.01"/>
<text text-anchor="middle" x="176.5" y="-191.5" font-family="Helvetica,sans-Serif" font-size="10.00"> secondsHi</text>
</g>
</g>
</svg>
