<?xml version="1.0" encoding="UTF-8" standalone="no"?>
<!DOCTYPE svg PUBLIC "-//W3C//DTD SVG 1.1//EN"
 "http://www.w3.org/Graphics/SVG/1.1/DTD/svg11.dtd">
<!-- Generated by graphviz version 2.43.0 (0)
 -->
<!-- Title: r_dcu_Config_t Pages: 1 -->
<svg width="359pt" height="117pt"
 viewBox="0.00 0.00 359.00 117.00" xmlns="http://www.w3.org/2000/svg" xmlns:xlink="http://www.w3.org/1999/xlink">
<g id="graph0" class="graph" transform="scale(1 1) rotate(0) translate(4 113)">
<title>r_dcu_Config_t</title>
<polygon fill="white" stroke="transparent" points="-4,4 -4,-113 355,-113 355,4 -4,4"/>
<!-- Node1 -->
<g id="node1" class="node">
<title>Node1</title>
<g id="a_node1"><a xlink:title="DCU configuration parameters.">
<polygon fill="#bfbfbf" stroke="black" points="161,-0.5 161,-19.5 249,-19.5 249,-0.5 161,-0.5"/>
<text text-anchor="middle" x="205" y="-7.5" font-family="Helvetica,sans-Serif" font-size="10.00">r_dcu_Config_t</text>
</a>
</g>
</g>
<!-- Node2 -->
<g id="node2" class="node">
<title>Node2</title>
<g id="a_node2"><a xlink:title=" ">
<polygon fill="white" stroke="#bfbfbf" points="0,-89.5 0,-108.5 102,-108.5 102,-89.5 0,-89.5"/>
<text text-anchor="middle" x="51" y="-96.5" font-family="Helvetica,sans-Serif" font-size="10.00">r_dcu_ColorFmt_t</text>
</a>
</g>
</g>
<!-- Node2&#45;&gt;Node1 -->
<g id="edge1" class="edge">
<title>Node2&#45;&gt;Node1</title>
<path fill="none" stroke="#9a32cd" stroke-dasharray="5,2" d="M72.82,-84.01C92.67,-71.47 122.91,-52.82 150,-38 161.94,-31.47 175.69,-24.72 186.46,-19.6"/>
<polygon fill="#9a32cd" stroke="#9a32cd" points="70.8,-81.15 64.23,-89.47 74.55,-87.06 70.8,-81.15"/>
<text text-anchor="middle" x="160.5" y="-52" font-family="Helvetica,sans-Serif" font-size="10.00"> fmt</text>
</g>
<!-- Node3 -->
<g id="node3" class="node">
<title>Node3</title>
<g id="a_node3"><a xlink:title=" ">
<polygon fill="white" stroke="#bfbfbf" points="120,-89.5 120,-108.5 210,-108.5 210,-89.5 120,-89.5"/>
<text text-anchor="middle" x="165" y="-96.5" font-family="Helvetica,sans-Serif" font-size="10.00">r_dcu_Length_t</text>
</a>
</g>
</g>
<!-- Node3&#45;&gt;Node1 -->
<g id="edge2" class="edge">
<title>Node3&#45;&gt;Node1</title>
<path fill="none" stroke="#9a32cd" stroke-dasharray="5,2" d="M171.42,-79.86C175.89,-67.79 182.25,-51.7 189,-38 192.08,-31.74 196.08,-24.99 199.31,-19.81"/>
<polygon fill="#9a32cd" stroke="#9a32cd" points="168.13,-78.68 168.01,-89.27 174.71,-81.06 168.13,-78.68"/>
<text text-anchor="middle" x="206" y="-52" font-family="Helvetica,sans-Serif" font-size="10.00"> length</text>
</g>
<!-- Node4 -->
<g id="node4" class="node">
<title>Node4</title>
<g id="a_node4"><a xlink:title=" ">
<polygon fill="white" stroke="#bfbfbf" points="228,-89.5 228,-108.5 284,-108.5 284,-89.5 228,-89.5"/>
<text text-anchor="middle" x="256" y="-96.5" font-family="Helvetica,sans-Serif" font-size="10.00">uint32_t</text>
</a>
</g>
</g>
<!-- Node4&#45;&gt;Node1 -->
<g id="edge3" class="edge">
<title>Node4&#45;&gt;Node1</title>
<path fill="none" stroke="#9a32cd" stroke-dasharray="5,2" d="M246.78,-80.32C240.37,-68.25 231.48,-51.97 223,-38 219.26,-31.84 214.76,-25.09 211.19,-19.88"/>
<polygon fill="#9a32cd" stroke="#9a32cd" points="243.77,-82.11 251.53,-89.32 249.97,-78.85 243.77,-82.11"/>
<text text-anchor="middle" x="270.5" y="-63" font-family="Helvetica,sans-Serif" font-size="10.00"> input_addr</text>
<text text-anchor="middle" x="270.5" y="-52" font-family="Helvetica,sans-Serif" font-size="10.00">input_size</text>
<text text-anchor="middle" x="270.5" y="-41" font-family="Helvetica,sans-Serif" font-size="10.00">output_addr</text>
</g>
<!-- Node5 -->
<g id="node5" class="node">
<title>Node5</title>
<g id="a_node5"><a xlink:title=" ">
<polygon fill="white" stroke="#bfbfbf" points="312.5,-89.5 312.5,-108.5 341.5,-108.5 341.5,-89.5 312.5,-89.5"/>
<text text-anchor="middle" x="327" y="-96.5" font-family="Helvetica,sans-Serif" font-size="10.00">int</text>
</a>
</g>
</g>
<!-- Node5&#45;&gt;Node1 -->
<g id="edge4" class="edge">
<title>Node5&#45;&gt;Node1</title>
<path fill="none" stroke="#9a32cd" stroke-dasharray="5,2" d="M324.38,-79.28C321.55,-65.97 315.76,-48.64 304,-38 289.07,-24.49 268.03,-17.65 249.19,-14.22"/>
<polygon fill="#9a32cd" stroke="#9a32cd" points="320.96,-80.02 326.12,-89.27 327.85,-78.82 320.96,-80.02"/>
<text text-anchor="middle" x="336.5" y="-52" font-family="Helvetica,sans-Serif" font-size="10.00"> swap</text>
</g>
</g>
</svg>
