<?xml version="1.0" encoding="UTF-8" standalone="no"?>
<!DOCTYPE svg PUBLIC "-//W3C//DTD SVG 1.1//EN"
 "http://www.w3.org/Graphics/SVG/1.1/DTD/svg11.dtd">
<!-- Generated by graphviz version 2.43.0 (0)
 -->
<!-- Title: st_osal_thread_config Pages: 1 -->
<svg width="397pt" height="106pt"
 viewBox="0.00 0.00 397.00 106.00" xmlns="http://www.w3.org/2000/svg" xmlns:xlink="http://www.w3.org/1999/xlink">
<g id="graph0" class="graph" transform="scale(1 1) rotate(0) translate(4 102)">
<title>st_osal_thread_config</title>
<polygon fill="white" stroke="transparent" points="-4,4 -4,-102 393,-102 393,4 -4,4"/>
<!-- Node1 -->
<g id="node1" class="node">
<title>Node1</title>
<g id="a_node1"><a xlink:title="configuration of thread.">
<polygon fill="#bfbfbf" stroke="black" points="173,-0.5 173,-19.5 295,-19.5 295,-0.5 173,-0.5"/>
<text text-anchor="middle" x="234" y="-7.5" font-family="Helvetica,sans-Serif" font-size="10.00">st_osal_thread_config</text>
</a>
</g>
</g>
<!-- Node2 -->
<g id="node2" class="node">
<title>Node2</title>
<g id="a_node2"><a xlink:title=" ">
<polygon fill="white" stroke="#bfbfbf" points="0,-67.5 0,-97.5 116,-97.5 116,-67.5 0,-67.5"/>
<text text-anchor="start" x="8" y="-85.5" font-family="Helvetica,sans-Serif" font-size="10.00">enum e_osal_thread</text>
<text text-anchor="middle" x="58" y="-74.5" font-family="Helvetica,sans-Serif" font-size="10.00">_priority</text>
</a>
</g>
</g>
<!-- Node2&#45;&gt;Node1 -->
<g id="edge1" class="edge">
<title>Node2&#45;&gt;Node1</title>
<path fill="none" stroke="#9a32cd" stroke-dasharray="5,2" d="M81.59,-61.03C92.13,-52.81 105.07,-43.9 118,-38 136.44,-29.59 157.76,-23.66 177.05,-19.55"/>
<polygon fill="#9a32cd" stroke="#9a32cd" points="79.28,-58.4 73.7,-67.4 83.68,-63.84 79.28,-58.4"/>
<text text-anchor="middle" x="137.5" y="-41" font-family="Helvetica,sans-Serif" font-size="10.00"> priority</text>
</g>
<!-- Node3 -->
<g id="node3" class="node">
<title>Node3</title>
<g id="a_node3"><a xlink:title=" ">
<polygon fill="white" stroke="#bfbfbf" points="134,-73 134,-92 172,-92 172,-73 134,-73"/>
<text text-anchor="middle" x="153" y="-80" font-family="Helvetica,sans-Serif" font-size="10.00">char</text>
</a>
</g>
</g>
<!-- Node3&#45;&gt;Node1 -->
<g id="edge2" class="edge">
<title>Node3&#45;&gt;Node1</title>
<path fill="none" stroke="#9a32cd" stroke-dasharray="5,2" d="M156.28,-62.9C158.6,-54.42 162.5,-44.78 169,-38 177.12,-29.54 188.29,-23.62 199.08,-19.54"/>
<polygon fill="#9a32cd" stroke="#9a32cd" points="152.85,-62.21 154.11,-72.72 159.68,-63.71 152.85,-62.21"/>
<text text-anchor="middle" x="198" y="-41" font-family="Helvetica,sans-Serif" font-size="10.00"> task_name</text>
</g>
<!-- Node4 -->
<g id="node4" class="node">
<title>Node4</title>
<g id="a_node4"><a xlink:title=" ">
<polygon fill="white" stroke="#bfbfbf" points="204,-73 204,-92 254,-92 254,-73 204,-73"/>
<text text-anchor="middle" x="229" y="-80" font-family="Helvetica,sans-Serif" font-size="10.00">int64_t</text>
</a>
</g>
</g>
<!-- Node4&#45;&gt;Node1 -->
<g id="edge3" class="edge">
<title>Node4&#45;&gt;Node1</title>
<path fill="none" stroke="#9a32cd" stroke-dasharray="5,2" d="M230.32,-62.86C231.31,-48.9 232.62,-30.43 233.38,-19.72"/>
<polygon fill="#9a32cd" stroke="#9a32cd" points="226.83,-62.63 229.61,-72.86 233.81,-63.13 226.83,-62.63"/>
<text text-anchor="middle" x="243.5" y="-41" font-family="Helvetica,sans-Serif" font-size="10.00"> func</text>
</g>
<!-- Node5 -->
<g id="node5" class="node">
<title>Node5</title>
<g id="a_node5"><a xlink:title=" ">
<polygon fill="white" stroke="#bfbfbf" points="272.5,-73 272.5,-92 317.5,-92 317.5,-73 272.5,-73"/>
<text text-anchor="middle" x="295" y="-80" font-family="Helvetica,sans-Serif" font-size="10.00">size_t</text>
</a>
</g>
</g>
<!-- Node5&#45;&gt;Node1 -->
<g id="edge4" class="edge">
<title>Node5&#45;&gt;Node1</title>
<path fill="none" stroke="#9a32cd" stroke-dasharray="5,2" d="M282.2,-64.89C275.72,-56.66 267.62,-46.65 260,-38 254.49,-31.75 247.99,-25 242.87,-19.81"/>
<polygon fill="#9a32cd" stroke="#9a32cd" points="279.6,-67.24 288.51,-72.98 285.12,-62.94 279.6,-67.24"/>
<text text-anchor="middle" x="295.5" y="-41" font-family="Helvetica,sans-Serif" font-size="10.00"> stack_size</text>
</g>
<!-- Node6 -->
<g id="node6" class="node">
<title>Node6</title>
<g id="a_node6"><a xlink:title=" ">
<polygon fill="white" stroke="#bfbfbf" points="343,-73 343,-92 389,-92 389,-73 343,-73"/>
<text text-anchor="middle" x="366" y="-80" font-family="Helvetica,sans-Serif" font-size="10.00">void *</text>
</a>
</g>
</g>
<!-- Node6&#45;&gt;Node1 -->
<g id="edge5" class="edge">
<title>Node6&#45;&gt;Node1</title>
<path fill="none" stroke="#9a32cd" stroke-dasharray="5,2" d="M354.41,-64.5C347.44,-55.45 337.82,-44.8 327,-38 313.48,-29.5 297.18,-23.59 282.04,-19.52"/>
<polygon fill="#9a32cd" stroke="#9a32cd" points="351.75,-66.79 360.46,-72.83 357.42,-62.68 351.75,-66.79"/>
<text text-anchor="middle" x="360" y="-41" font-family="Helvetica,sans-Serif" font-size="10.00"> userarg</text>
</g>
</g>
</svg>
