<?xml version="1.0" encoding="UTF-8" standalone="no"?>
<!DOCTYPE svg PUBLIC "-//W3C//DTD SVG 1.1//EN"
 "http://www.w3.org/Graphics/SVG/1.1/DTD/svg11.dtd">
<!-- Generated by graphviz version 2.43.0 (0)
 -->
<!-- Title: STag_Eth_TimeStampStoreType Pages: 1 -->
<svg width="211pt" height="106pt"
 viewBox="0.00 0.00 210.50 106.00" xmlns="http://www.w3.org/2000/svg" xmlns:xlink="http://www.w3.org/1999/xlink">
<g id="graph0" class="graph" transform="scale(1 1) rotate(0) translate(4 102)">
<title>STag_Eth_TimeStampStoreType</title>
<polygon fill="white" stroke="transparent" points="-4,4 -4,-102 206.5,-102 206.5,4 -4,4"/>
<!-- Node1 -->
<g id="node1" class="node">
<title>Node1</title>
<g id="a_node1"><a xlink:title=" ">
<polygon fill="#bfbfbf" stroke="black" points="9.5,-0.5 9.5,-19.5 179.5,-19.5 179.5,-0.5 9.5,-0.5"/>
<text text-anchor="middle" x="94.5" y="-7.5" font-family="Helvetica,sans-Serif" font-size="10.00">STag_Eth_TimeStampStoreType</text>
</a>
</g>
</g>
<!-- Node2 -->
<g id="node2" class="node">
<title>Node2</title>
<g id="a_node2"><a xlink:title=" ">
<polygon fill="white" stroke="#bfbfbf" points="0,-78.5 0,-97.5 85,-97.5 85,-78.5 0,-78.5"/>
<text text-anchor="middle" x="42.5" y="-85.5" font-family="Helvetica,sans-Serif" font-size="10.00">unsigned long</text>
</a>
</g>
</g>
<!-- Node2&#45;&gt;Node1 -->
<g id="edge1" class="edge">
<title>Node2&#45;&gt;Node1</title>
<path fill="none" stroke="#9a32cd" stroke-dasharray="5,2" d="M46.7,-68.5C49.52,-58.8 53.94,-47.07 60.5,-38 65.8,-30.67 73.6,-24.28 80.39,-19.56"/>
<polygon fill="#9a32cd" stroke="#9a32cd" points="43.27,-67.8 44.17,-78.35 50.05,-69.54 43.27,-67.8"/>
<text text-anchor="middle" x="93" y="-52" font-family="Helvetica,sans-Serif" font-size="10.00"> Timestamp0</text>
<text text-anchor="middle" x="93" y="-41" font-family="Helvetica,sans-Serif" font-size="10.00">Timestamp1</text>
</g>
<!-- Node3 -->
<g id="node3" class="node">
<title>Node3</title>
<g id="a_node3"><a xlink:title=" ">
<polygon fill="white" stroke="#bfbfbf" points="103,-78.5 103,-97.5 192,-97.5 192,-78.5 103,-78.5"/>
<text text-anchor="middle" x="147.5" y="-85.5" font-family="Helvetica,sans-Serif" font-size="10.00">unsigned short</text>
</a>
</g>
</g>
<!-- Node3&#45;&gt;Node1 -->
<g id="edge2" class="edge">
<title>Node3&#45;&gt;Node1</title>
<path fill="none" stroke="#9a32cd" stroke-dasharray="5,2" d="M141.55,-68.96C137.84,-59.23 132.43,-47.35 125.5,-38 120.31,-31.01 113.03,-24.55 106.83,-19.7"/>
<polygon fill="#9a32cd" stroke="#9a32cd" points="138.27,-70.18 144.92,-78.44 144.87,-67.84 138.27,-70.18"/>
<text text-anchor="middle" x="170" y="-46.5" font-family="Helvetica,sans-Serif" font-size="10.00"> Timestamp2</text>
</g>
</g>
</svg>
