<?xml version="1.0" encoding="UTF-8" standalone="no"?>
<!DOCTYPE svg PUBLIC "-//W3C//DTD SVG 1.1//EN"
 "http://www.w3.org/Graphics/SVG/1.1/DTD/svg11.dtd">
<!-- Generated by graphviz version 2.43.0 (0)
 -->
<!-- Title: r_wmdrv_Sys_DocInfo_t Pages: 1 -->
<svg width="293pt" height="230pt"
 viewBox="0.00 0.00 293.00 230.00" xmlns="http://www.w3.org/2000/svg" xmlns:xlink="http://www.w3.org/1999/xlink">
<g id="graph0" class="graph" transform="scale(1 1) rotate(0) translate(4 226)">
<title>r_wmdrv_Sys_DocInfo_t</title>
<polygon fill="white" stroke="transparent" points="-4,4 -4,-226 289,-226 289,4 -4,4"/>
<!-- Node1 -->
<g id="node1" class="node">
<title>Node1</title>
<g id="a_node1"><a xlink:title=" ">
<polygon fill="#bfbfbf" stroke="black" points="88,-0.5 88,-19.5 222,-19.5 222,-0.5 88,-0.5"/>
<text text-anchor="middle" x="155" y="-7.5" font-family="Helvetica,sans-Serif" font-size="10.00">r_wmdrv_Sys_DocInfo_t</text>
</a>
</g>
</g>
<!-- Node2 -->
<g id="node2" class="node">
<title>Node2</title>
<g id="a_node2"><a xlink:title=" ">
<polygon fill="white" stroke="#bfbfbf" points="0,-202.5 0,-221.5 56,-221.5 56,-202.5 0,-202.5"/>
<text text-anchor="middle" x="28" y="-209.5" font-family="Helvetica,sans-Serif" font-size="10.00">uint32_t</text>
</a>
</g>
</g>
<!-- Node2&#45;&gt;Node1 -->
<g id="edge1" class="edge">
<title>Node2&#45;&gt;Node1</title>
<path fill="none" stroke="#9a32cd" stroke-dasharray="5,2" d="M20.6,-192.92C9.95,-163.73 -5.76,-105.57 20,-67 37.4,-40.94 69.43,-26.99 97.93,-19.53"/>
<polygon fill="#9a32cd" stroke="#9a32cd" points="17.35,-194.21 24.21,-202.28 23.88,-191.69 17.35,-194.21"/>
<text text-anchor="middle" x="54" y="-92" font-family="Helvetica,sans-Serif" font-size="10.00"> DocUnit</text>
<text text-anchor="middle" x="54" y="-81" font-family="Helvetica,sans-Serif" font-size="10.00">EnableCnt</text>
<text text-anchor="middle" x="54" y="-70" font-family="Helvetica,sans-Serif" font-size="10.00">VideoChannel</text>
</g>
<!-- Node3 -->
<g id="node3" class="node">
<title>Node3</title>
<g id="a_node3"><a xlink:href="structr__wm__DOC__Status__t.html" target="_top" xlink:title=" ">
<polygon fill="white" stroke="black" points="97,-74 97,-93 213,-93 213,-74 97,-74"/>
<text text-anchor="middle" x="155" y="-81" font-family="Helvetica,sans-Serif" font-size="10.00">r_wm_DOC_Status_t</text>
</a>
</g>
</g>
<!-- Node2&#45;&gt;Node3 -->
<g id="edge3" class="edge">
<title>Node2&#45;&gt;Node3</title>
<path fill="none" stroke="#9a32cd" stroke-dasharray="5,2" d="M37.3,-193.31C48.58,-173.14 69.22,-140.09 94,-118 105.82,-107.47 121.51,-98.94 134.02,-93.13"/>
<polygon fill="#9a32cd" stroke="#9a32cd" points="34.1,-191.87 32.4,-202.32 40.25,-195.21 34.1,-191.87"/>
<text text-anchor="middle" x="122.5" y="-148.5" font-family="Helvetica,sans-Serif" font-size="10.00"> VocSelMon</text>
</g>
<!-- Node3&#45;&gt;Node1 -->
<g id="edge2" class="edge">
<title>Node3&#45;&gt;Node1</title>
<path fill="none" stroke="#9a32cd" stroke-dasharray="5,2" d="M155,-63.59C155,-49.43 155,-30.7 155,-19.84"/>
<polygon fill="#9a32cd" stroke="#9a32cd" points="151.5,-63.73 155,-73.73 158.5,-63.73 151.5,-63.73"/>
<text text-anchor="middle" x="187" y="-41" font-family="Helvetica,sans-Serif" font-size="10.00"> DocCallback</text>
</g>
<!-- Node4 -->
<g id="node4" class="node">
<title>Node4</title>
<g id="a_node4"><a xlink:title=" ">
<polygon fill="white" stroke="#bfbfbf" points="136,-202.5 136,-221.5 174,-221.5 174,-202.5 136,-202.5"/>
<text text-anchor="middle" x="155" y="-209.5" font-family="Helvetica,sans-Serif" font-size="10.00">bool</text>
</a>
</g>
</g>
<!-- Node4&#45;&gt;Node3 -->
<g id="edge4" class="edge">
<title>Node4&#45;&gt;Node3</title>
<path fill="none" stroke="#9a32cd" stroke-dasharray="5,2" d="M155,-191.94C155,-164.12 155,-113.54 155,-93.26"/>
<polygon fill="#9a32cd" stroke="#9a32cd" points="151.5,-192.31 155,-202.31 158.5,-192.31 151.5,-192.31"/>
<text text-anchor="middle" x="198" y="-176" font-family="Helvetica,sans-Serif" font-size="10.00"> ActMonError0</text>
<text text-anchor="middle" x="198" y="-165" font-family="Helvetica,sans-Serif" font-size="10.00">ActMonError1</text>
<text text-anchor="middle" x="198" y="-154" font-family="Helvetica,sans-Serif" font-size="10.00">MonitorStatus</text>
<text text-anchor="middle" x="198" y="-143" font-family="Helvetica,sans-Serif" font-size="10.00">ParameterError</text>
<text text-anchor="middle" x="198" y="-132" font-family="Helvetica,sans-Serif" font-size="10.00">VocMonitorStatus</text>
<text text-anchor="middle" x="198" y="-121" font-family="Helvetica,sans-Serif" font-size="10.00">VomError</text>
</g>
<!-- Node5 -->
<g id="node5" class="node">
<title>Node5</title>
<g id="a_node5"><a xlink:title=" ">
<polygon fill="white" stroke="#bfbfbf" points="231,-74 231,-93 277,-93 277,-74 231,-74"/>
<text text-anchor="middle" x="254" y="-81" font-family="Helvetica,sans-Serif" font-size="10.00">void *</text>
</a>
</g>
</g>
<!-- Node5&#45;&gt;Node1 -->
<g id="edge5" class="edge">
<title>Node5&#45;&gt;Node1</title>
<path fill="none" stroke="#9a32cd" stroke-dasharray="5,2" d="M244.99,-64.85C239.63,-55.81 232.1,-45.21 223,-38 212.65,-29.8 199.48,-23.8 187.5,-19.57"/>
<polygon fill="#9a32cd" stroke="#9a32cd" points="242.04,-66.75 249.92,-73.82 248.17,-63.37 242.04,-66.75"/>
<text text-anchor="middle" x="259" y="-41" font-family="Helvetica,sans-Serif" font-size="10.00"> DocCbArg</text>
</g>
</g>
</svg>
