<?xml version="1.0" encoding="UTF-8" standalone="no"?>
<!DOCTYPE svg PUBLIC "-//W3C//DTD SVG 1.1//EN"
 "http://www.w3.org/Graphics/SVG/1.1/DTD/svg11.dtd">
<!-- Generated by graphviz version 2.43.0 (0)
 -->
<!-- Title: HAL_MEMCARD_HW_CONF Pages: 1 -->
<svg width="347pt" height="117pt"
 viewBox="0.00 0.00 347.00 117.00" xmlns="http://www.w3.org/2000/svg" xmlns:xlink="http://www.w3.org/1999/xlink">
<g id="graph0" class="graph" transform="scale(1 1) rotate(0) translate(4 113)">
<title>HAL_MEMCARD_HW_CONF</title>
<polygon fill="white" stroke="transparent" points="-4,4 -4,-113 343,-113 343,4 -4,4"/>
<!-- Node1 -->
<g id="node1" class="node">
<title>Node1</title>
<g id="a_node1"><a xlink:title=" ">
<polygon fill="#bfbfbf" stroke="black" points="61.5,-0.5 61.5,-19.5 210.5,-19.5 210.5,-0.5 61.5,-0.5"/>
<text text-anchor="middle" x="136" y="-7.5" font-family="Helvetica,sans-Serif" font-size="10.00">HAL_MEMCARD_HW_CONF</text>
</a>
</g>
</g>
<!-- Node2 -->
<g id="node2" class="node">
<title>Node2</title>
<g id="a_node2"><a xlink:title=" ">
<polygon fill="white" stroke="#bfbfbf" points="0,-89.5 0,-108.5 56,-108.5 56,-89.5 0,-89.5"/>
<text text-anchor="middle" x="28" y="-96.5" font-family="Helvetica,sans-Serif" font-size="10.00">uint16_t</text>
</a>
</g>
</g>
<!-- Node2&#45;&gt;Node1 -->
<g id="edge1" class="edge">
<title>Node2&#45;&gt;Node1</title>
<path fill="none" stroke="#9a32cd" stroke-dasharray="5,2" d="M29.43,-79.04C31.4,-65.87 36.06,-48.81 47,-38 55.61,-29.49 66.82,-23.65 78.36,-19.64"/>
<polygon fill="#9a32cd" stroke="#9a32cd" points="25.91,-79.04 28.3,-89.36 32.87,-79.8 25.91,-79.04"/>
<text text-anchor="middle" x="89.5" y="-52" font-family="Helvetica,sans-Serif" font-size="10.00"> max_data_width</text>
</g>
<!-- Node3 -->
<g id="node3" class="node">
<title>Node3</title>
<g id="a_node3"><a xlink:title=" ">
<polygon fill="white" stroke="#bfbfbf" points="108,-89.5 108,-108.5 164,-108.5 164,-89.5 108,-89.5"/>
<text text-anchor="middle" x="136" y="-96.5" font-family="Helvetica,sans-Serif" font-size="10.00">uint32_t</text>
</a>
</g>
</g>
<!-- Node3&#45;&gt;Node1 -->
<g id="edge2" class="edge">
<title>Node3&#45;&gt;Node1</title>
<path fill="none" stroke="#9a32cd" stroke-dasharray="5,2" d="M136,-79.19C136,-60.74 136,-33.41 136,-19.62"/>
<polygon fill="#9a32cd" stroke="#9a32cd" points="132.5,-79.34 136,-89.34 139.5,-79.34 132.5,-79.34"/>
<text text-anchor="middle" x="179" y="-63" font-family="Helvetica,sans-Serif" font-size="10.00"> api_version</text>
<text text-anchor="middle" x="179" y="-52" font-family="Helvetica,sans-Serif" font-size="10.00">max_block_count</text>
<text text-anchor="middle" x="179" y="-41" font-family="Helvetica,sans-Serif" font-size="10.00">max_clock_freq</text>
</g>
<!-- Node4 -->
<g id="node4" class="node">
<title>Node4</title>
<g id="a_node4"><a xlink:title=" ">
<polygon fill="white" stroke="#bfbfbf" points="220,-89.5 220,-108.5 270,-108.5 270,-89.5 220,-89.5"/>
<text text-anchor="middle" x="245" y="-96.5" font-family="Helvetica,sans-Serif" font-size="10.00">uint8_t</text>
</a>
</g>
</g>
<!-- Node4&#45;&gt;Node1 -->
<g id="edge3" class="edge">
<title>Node4&#45;&gt;Node1</title>
<path fill="none" stroke="#9a32cd" stroke-dasharray="5,2" d="M242.6,-79.41C239.95,-66.17 234.43,-48.87 223,-38 213.95,-29.39 202.19,-23.52 190.27,-19.53"/>
<polygon fill="#9a32cd" stroke="#9a32cd" points="239.16,-80.04 244.22,-89.35 246.07,-78.91 239.16,-80.04"/>
<text text-anchor="middle" x="289.5" y="-57.5" font-family="Helvetica,sans-Serif" font-size="10.00"> card_removable</text>
<text text-anchor="middle" x="289.5" y="-46.5" font-family="Helvetica,sans-Serif" font-size="10.00">hs_mode_supported</text>
</g>
</g>
</svg>
