<?xml version="1.0" encoding="UTF-8" standalone="no"?>
<!DOCTYPE svg PUBLIC "-//W3C//DTD SVG 1.1//EN"
 "http://www.w3.org/Graphics/SVG/1.1/DTD/svg11.dtd">
<!-- Generated by graphviz version 2.43.0 (0)
 -->
<!-- Title: taurus_ether_ioc_mappings_set_in Pages: 1 -->
<svg width="159pt" height="128pt"
 viewBox="0.00 0.00 159.00 128.00" xmlns="http://www.w3.org/2000/svg" xmlns:xlink="http://www.w3.org/1999/xlink">
<g id="graph0" class="graph" transform="scale(1 1) rotate(0) translate(4 124)">
<title>taurus_ether_ioc_mappings_set_in</title>
<polygon fill="white" stroke="transparent" points="-4,4 -4,-124 155,-124 155,4 -4,4"/>
<!-- Node1 -->
<g id="node1" class="node">
<title>Node1</title>
<g id="a_node1"><a xlink:title=" ">
<polygon fill="#bfbfbf" stroke="black" points="0,-0.5 0,-30.5 151,-30.5 151,-0.5 0,-0.5"/>
<text text-anchor="start" x="8" y="-18.5" font-family="Helvetica,sans-Serif" font-size="10.00">taurus_ether_ioc_mappings</text>
<text text-anchor="middle" x="75.5" y="-7.5" font-family="Helvetica,sans-Serif" font-size="10.00">_set_in</text>
</a>
</g>
</g>
<!-- Node2 -->
<g id="node2" class="node">
<title>Node2</title>
<g id="a_node2"><a xlink:title=" ">
<polygon fill="white" stroke="#bfbfbf" points="10.5,-100.5 10.5,-119.5 66.5,-119.5 66.5,-100.5 10.5,-100.5"/>
<text text-anchor="middle" x="38.5" y="-107.5" font-family="Helvetica,sans-Serif" font-size="10.00">uint64_t</text>
</a>
</g>
</g>
<!-- Node2&#45;&gt;Node1 -->
<g id="edge1" class="edge">
<title>Node2&#45;&gt;Node1</title>
<path fill="none" stroke="#9a32cd" stroke-dasharray="5,2" d="M41.91,-90.31C44.49,-78.2 48.61,-62.28 54.5,-49 57.33,-42.61 61.33,-36.05 65.08,-30.51"/>
<polygon fill="#9a32cd" stroke="#9a32cd" points="38.46,-89.68 39.96,-100.17 45.33,-91.03 38.46,-89.68"/>
<text text-anchor="middle" x="72.5" y="-63" font-family="Helvetica,sans-Serif" font-size="10.00"> cookie</text>
</g>
<!-- Node3 -->
<g id="node3" class="node">
<title>Node3</title>
<g id="a_node3"><a xlink:title=" ">
<polygon fill="white" stroke="#bfbfbf" points="84.5,-100.5 84.5,-119.5 140.5,-119.5 140.5,-100.5 84.5,-100.5"/>
<text text-anchor="middle" x="112.5" y="-107.5" font-family="Helvetica,sans-Serif" font-size="10.00">uint32_t</text>
</a>
</g>
</g>
<!-- Node3&#45;&gt;Node1 -->
<g id="edge2" class="edge">
<title>Node3&#45;&gt;Node1</title>
<path fill="none" stroke="#9a32cd" stroke-dasharray="5,2" d="M106.21,-90.67C102,-78.71 96.21,-62.82 90.5,-49 87.98,-42.91 84.98,-36.29 82.32,-30.63"/>
<polygon fill="#9a32cd" stroke="#9a32cd" points="102.99,-92.07 109.58,-100.37 109.61,-89.78 102.99,-92.07"/>
<text text-anchor="middle" x="112.5" y="-74" font-family="Helvetica,sans-Serif" font-size="10.00"> ipa</text>
<text text-anchor="middle" x="112.5" y="-63" font-family="Helvetica,sans-Serif" font-size="10.00">pa</text>
<text text-anchor="middle" x="112.5" y="-52" font-family="Helvetica,sans-Serif" font-size="10.00">size</text>
</g>
</g>
</svg>
