<?xml version="1.0" encoding="UTF-8" standalone="no"?>
<!DOCTYPE svg PUBLIC "-//W3C//DTD SVG 1.1//EN"
 "http://www.w3.org/Graphics/SVG/1.1/DTD/svg11.dtd">
<!-- Generated by graphviz version 2.43.0 (0)
 -->
<!-- Title: st_osal_device_control Pages: 1 -->
<svg width="647pt" height="378pt"
 viewBox="0.00 0.00 647.00 378.00" xmlns="http://www.w3.org/2000/svg" xmlns:xlink="http://www.w3.org/1999/xlink">
<g id="graph0" class="graph" transform="scale(1 1) rotate(0) translate(4 374)">
<title>st_osal_device_control</title>
<polygon fill="white" stroke="transparent" points="-4,4 -4,-374 643,-374 643,4 -4,4"/>
<!-- Node1 -->
<g id="node1" class="node">
<title>Node1</title>
<g id="a_node1"><a xlink:title="control of device (Defined in OSAL Wrapper implementation files).">
<polygon fill="#bfbfbf" stroke="black" points="511,-214.5 511,-233.5 639,-233.5 639,-214.5 511,-214.5"/>
<text text-anchor="middle" x="575" y="-221.5" font-family="Helvetica,sans-Serif" font-size="10.00">st_osal_device_control</text>
</a>
</g>
</g>
<!-- Node2 -->
<g id="node2" class="node">
<title>Node2</title>
<g id="a_node2"><a xlink:title=" ">
<polygon fill="white" stroke="#bfbfbf" points="244,-348.5 244,-367.5 374,-367.5 374,-348.5 244,-348.5"/>
<text text-anchor="middle" x="309" y="-355.5" font-family="Helvetica,sans-Serif" font-size="10.00">enum e_osal_pm_state</text>
</a>
</g>
</g>
<!-- Node2&#45;&gt;Node1 -->
<g id="edge1" class="edge">
<title>Node2&#45;&gt;Node1</title>
<path fill="none" stroke="#9a32cd" stroke-dasharray="5,2" d="M384.32,-360.26C419.4,-358.24 460.57,-351.18 493,-332 533.34,-308.13 560.09,-255.64 569.86,-233.82"/>
<polygon fill="#9a32cd" stroke="#9a32cd" points="383.96,-356.77 374.12,-360.71 384.27,-363.76 383.96,-356.77"/>
<text text-anchor="middle" x="442.5" y="-362" font-family="Helvetica,sans-Serif" font-size="10.00"> lowest_power_state</text>
</g>
<!-- Node3 -->
<g id="node3" class="node">
<title>Node3</title>
<g id="a_node3"><a xlink:title=" ">
<polygon fill="white" stroke="#bfbfbf" points="259,-310.5 259,-329.5 359,-329.5 359,-310.5 259,-310.5"/>
<text text-anchor="middle" x="309" y="-317.5" font-family="Helvetica,sans-Serif" font-size="10.00">st_pma_handle_t</text>
</a>
</g>
</g>
<!-- Node3&#45;&gt;Node1 -->
<g id="edge2" class="edge">
<title>Node3&#45;&gt;Node1</title>
<path fill="none" stroke="#9a32cd" stroke-dasharray="5,2" d="M369.24,-320C406.28,-318 454.15,-311.67 493,-294 524.47,-279.69 552.97,-249.22 566.2,-233.63"/>
<polygon fill="#9a32cd" stroke="#9a32cd" points="368.93,-316.51 359.1,-320.46 369.24,-323.5 368.93,-316.51"/>
<text text-anchor="middle" x="442.5" y="-320" font-family="Helvetica,sans-Serif" font-size="10.00"> pma_handle</text>
</g>
<!-- Node4 -->
<g id="node4" class="node">
<title>Node4</title>
<g id="a_node4"><a xlink:title=" ">
<polygon fill="white" stroke="#bfbfbf" points="281,-269.5 281,-288.5 337,-288.5 337,-269.5 281,-269.5"/>
<text text-anchor="middle" x="309" y="-276.5" font-family="Helvetica,sans-Serif" font-size="10.00">uint64_t</text>
</a>
</g>
</g>
<!-- Node4&#45;&gt;Node1 -->
<g id="edge3" class="edge">
<title>Node4&#45;&gt;Node1</title>
<path fill="none" stroke="#9a32cd" stroke-dasharray="5,2" d="M347.61,-274.75C384.83,-270.15 443.3,-261.84 493,-250 511.53,-245.58 531.96,-239.02 547.66,-233.59"/>
<polygon fill="#9a32cd" stroke="#9a32cd" points="346.74,-271.33 337.23,-276.01 347.58,-278.28 346.74,-271.33"/>
<text text-anchor="middle" x="442.5" y="-282" font-family="Helvetica,sans-Serif" font-size="10.00"> axi_bus_id</text>
<text text-anchor="middle" x="442.5" y="-271" font-family="Helvetica,sans-Serif" font-size="10.00">handle_id</text>
</g>
<!-- Node5 -->
<g id="node5" class="node">
<title>Node5</title>
<g id="a_node5"><a xlink:title=" ">
<polygon fill="white" stroke="#bfbfbf" points="284,-231.5 284,-250.5 334,-250.5 334,-231.5 284,-231.5"/>
<text text-anchor="middle" x="309" y="-238.5" font-family="Helvetica,sans-Serif" font-size="10.00">int64_t</text>
</a>
</g>
</g>
<!-- Node5&#45;&gt;Node1 -->
<g id="edge4" class="edge">
<title>Node5&#45;&gt;Node1</title>
<path fill="none" stroke="#9a32cd" stroke-dasharray="5,2" d="M344.39,-238.79C386.49,-236.07 458.63,-231.43 510.83,-228.07"/>
<polygon fill="#9a32cd" stroke="#9a32cd" points="344.12,-235.3 334.36,-239.43 344.57,-242.28 344.12,-235.3"/>
<text text-anchor="middle" x="442.5" y="-238" font-family="Helvetica,sans-Serif" font-size="10.00"> inner_timeout</text>
</g>
<!-- Node6 -->
<g id="node6" class="node">
<title>Node6</title>
<g id="a_node6"><a xlink:title=" ">
<polygon fill="white" stroke="#bfbfbf" points="266,-193.5 266,-212.5 352,-212.5 352,-193.5 266,-193.5"/>
<text text-anchor="middle" x="309" y="-200.5" font-family="Helvetica,sans-Serif" font-size="10.00">base_mutex_t</text>
</a>
</g>
</g>
<!-- Node6&#45;&gt;Node1 -->
<g id="edge5" class="edge">
<title>Node6&#45;&gt;Node1</title>
<path fill="none" stroke="#9a32cd" stroke-dasharray="5,2" d="M362.65,-205.29C399.25,-207.09 449.15,-209.98 493,-214 498.79,-214.53 504.79,-215.15 510.81,-215.81"/>
<polygon fill="#9a32cd" stroke="#9a32cd" points="362.37,-201.77 352.21,-204.78 362.03,-208.76 362.37,-201.77"/>
<text text-anchor="middle" x="442.5" y="-217" font-family="Helvetica,sans-Serif" font-size="10.00"> inner_mtx</text>
</g>
<!-- Node7 -->
<g id="node7" class="node">
<title>Node7</title>
<g id="a_node7"><a xlink:title=" ">
<polygon fill="white" stroke="#bfbfbf" points="290,-131.5 290,-150.5 328,-150.5 328,-131.5 290,-131.5"/>
<text text-anchor="middle" x="309" y="-138.5" font-family="Helvetica,sans-Serif" font-size="10.00">bool</text>
</a>
</g>
</g>
<!-- Node7&#45;&gt;Node1 -->
<g id="edge6" class="edge">
<title>Node7&#45;&gt;Node1</title>
<path fill="none" stroke="#9a32cd" stroke-dasharray="5,2" d="M338.29,-138.66C375.31,-136.68 441.52,-136.95 493,-158 523.89,-170.63 552.22,-199.2 565.71,-214.27"/>
<polygon fill="#9a32cd" stroke="#9a32cd" points="337.99,-135.17 328.23,-139.29 338.43,-142.16 337.99,-135.17"/>
<text text-anchor="middle" x="442.5" y="-194" font-family="Helvetica,sans-Serif" font-size="10.00"> active</text>
<text text-anchor="middle" x="442.5" y="-183" font-family="Helvetica,sans-Serif" font-size="10.00">init_state</text>
<text text-anchor="middle" x="442.5" y="-172" font-family="Helvetica,sans-Serif" font-size="10.00">pm_wait_state</text>
<text text-anchor="middle" x="442.5" y="-161" font-family="Helvetica,sans-Serif" font-size="10.00">use</text>
</g>
<!-- Node8 -->
<g id="node8" class="node">
<title>Node8</title>
<g id="a_node8"><a xlink:href="structst__osal__device__info.html" target="_top" xlink:title=" ">
<polygon fill="white" stroke="black" points="252.5,-93.5 252.5,-112.5 365.5,-112.5 365.5,-93.5 252.5,-93.5"/>
<text text-anchor="middle" x="309" y="-100.5" font-family="Helvetica,sans-Serif" font-size="10.00">st_osal_device_info</text>
</a>
</g>
</g>
<!-- Node8&#45;&gt;Node1 -->
<g id="edge7" class="edge">
<title>Node8&#45;&gt;Node1</title>
<path fill="none" stroke="#9a32cd" stroke-dasharray="5,2" d="M375.81,-98.24C412.39,-98.43 457.53,-103.54 493,-123 532.21,-144.52 559.41,-193.61 569.57,-214.41"/>
<polygon fill="#9a32cd" stroke="#9a32cd" points="375.72,-94.75 365.74,-98.31 375.76,-101.75 375.72,-94.75"/>
<text text-anchor="middle" x="442.5" y="-126" font-family="Helvetica,sans-Serif" font-size="10.00"> dev_info</text>
</g>
<!-- Node9 -->
<g id="node9" class="node">
<title>Node9</title>
<g id="a_node9"><a xlink:title=" ">
<polygon fill="white" stroke="#bfbfbf" points="18,-211.5 18,-230.5 116,-230.5 116,-211.5 18,-211.5"/>
<text text-anchor="middle" x="67" y="-218.5" font-family="Helvetica,sans-Serif" font-size="10.00">e_pma_hwa_id_t</text>
</a>
</g>
</g>
<!-- Node9&#45;&gt;Node8 -->
<g id="edge8" class="edge">
<title>Node9&#45;&gt;Node8</title>
<path fill="none" stroke="#9a32cd" stroke-dasharray="5,2" d="M126.13,-227.9C159.33,-228.53 199.49,-223.19 226,-199 251.96,-175.31 219.89,-147.57 244,-122 247.66,-118.12 252.07,-115.02 256.84,-112.55"/>
<polygon fill="#9a32cd" stroke="#9a32cd" points="126.2,-224.4 116.08,-227.53 125.94,-231.4 126.2,-224.4"/>
<text text-anchor="middle" x="189" y="-229" font-family="Helvetica,sans-Serif" font-size="10.00"> pm_id</text>
</g>
<!-- Node10 -->
<g id="node10" class="node">
<title>Node10</title>
<g id="a_node10"><a xlink:title=" ">
<polygon fill="white" stroke="#bfbfbf" points="48,-155.5 48,-174.5 86,-174.5 86,-155.5 48,-155.5"/>
<text text-anchor="middle" x="67" y="-162.5" font-family="Helvetica,sans-Serif" font-size="10.00">char</text>
</a>
</g>
</g>
<!-- Node10&#45;&gt;Node8 -->
<g id="edge9" class="edge">
<title>Node10&#45;&gt;Node8</title>
<path fill="none" stroke="#9a32cd" stroke-dasharray="5,2" d="M96.61,-166.5C129.72,-167.01 184.94,-163.97 226,-142 236.54,-136.36 233.89,-128.39 244,-122 250.08,-118.16 256.96,-115.07 263.91,-112.59"/>
<polygon fill="#9a32cd" stroke="#9a32cd" points="96.38,-163 86.29,-166.22 96.19,-169.99 96.38,-163"/>
<text text-anchor="middle" x="189" y="-188" font-family="Helvetica,sans-Serif" font-size="10.00"> axi_bus_name</text>
<text text-anchor="middle" x="189" y="-177" font-family="Helvetica,sans-Serif" font-size="10.00">id</text>
<text text-anchor="middle" x="189" y="-166" font-family="Helvetica,sans-Serif" font-size="10.00">type</text>
</g>
<!-- Node11 -->
<g id="node11" class="node">
<title>Node11</title>
<g id="a_node11"><a xlink:title=" ">
<polygon fill="white" stroke="#bfbfbf" points="44.5,-114.5 44.5,-133.5 89.5,-133.5 89.5,-114.5 44.5,-114.5"/>
<text text-anchor="middle" x="67" y="-121.5" font-family="Helvetica,sans-Serif" font-size="10.00">size_t</text>
</a>
</g>
</g>
<!-- Node11&#45;&gt;Node8 -->
<g id="edge10" class="edge">
<title>Node11&#45;&gt;Node8</title>
<path fill="none" stroke="#9a32cd" stroke-dasharray="5,2" d="M99.89,-121.21C138.66,-117.82 204.76,-112.03 252.07,-107.89"/>
<polygon fill="#9a32cd" stroke="#9a32cd" points="99.38,-117.74 89.72,-122.1 99.99,-124.71 99.38,-117.74"/>
<text text-anchor="middle" x="189" y="-130" font-family="Helvetica,sans-Serif" font-size="10.00"> irq_channels</text>
<text text-anchor="middle" x="189" y="-119" font-family="Helvetica,sans-Serif" font-size="10.00">range</text>
</g>
<!-- Node12 -->
<g id="node12" class="node">
<title>Node12</title>
<g id="a_node12"><a xlink:title=" ">
<polygon fill="white" stroke="#bfbfbf" points="0,-76.5 0,-95.5 134,-95.5 134,-76.5 0,-76.5"/>
<text text-anchor="middle" x="67" y="-83.5" font-family="Helvetica,sans-Serif" font-size="10.00">enum e_osal_pm_policy</text>
</a>
</g>
</g>
<!-- Node12&#45;&gt;Node8 -->
<g id="edge11" class="edge">
<title>Node12&#45;&gt;Node8</title>
<path fill="none" stroke="#9a32cd" stroke-dasharray="5,2" d="M144.41,-83.62C170.36,-83.57 199.49,-84.35 226,-87 239.42,-88.34 253.91,-90.82 266.93,-93.43"/>
<polygon fill="#9a32cd" stroke="#9a32cd" points="144.24,-80.12 134.26,-83.68 144.28,-87.12 144.24,-80.12"/>
<text text-anchor="middle" x="189" y="-90" font-family="Helvetica,sans-Serif" font-size="10.00"> initial_policy</text>
</g>
<!-- Node13 -->
<g id="node13" class="node">
<title>Node13</title>
<g id="a_node13"><a xlink:href="structst__osal__interrupt__info__t.html" target="_top" xlink:title=" ">
<polygon fill="white" stroke="black" points="1.5,-38.5 1.5,-57.5 132.5,-57.5 132.5,-38.5 1.5,-38.5"/>
<text text-anchor="middle" x="67" y="-45.5" font-family="Helvetica,sans-Serif" font-size="10.00">st_osal_interrupt_info_t</text>
</a>
</g>
</g>
<!-- Node13&#45;&gt;Node8 -->
<g id="edge12" class="edge">
<title>Node13&#45;&gt;Node8</title>
<path fill="none" stroke="#9a32cd" stroke-dasharray="5,2" d="M142.88,-48.35C170.04,-50.8 200.33,-56.34 226,-68 235.75,-72.43 234.65,-78.8 244,-84 250.79,-87.77 258.4,-90.88 265.95,-93.4"/>
<polygon fill="#9a32cd" stroke="#9a32cd" points="142.89,-44.84 132.65,-47.55 142.35,-51.82 142.89,-44.84"/>
<text text-anchor="middle" x="189" y="-71" font-family="Helvetica,sans-Serif" font-size="10.00"> interrupt</text>
</g>
<!-- Node14 -->
<g id="node14" class="node">
<title>Node14</title>
<g id="a_node14"><a xlink:title=" ">
<polygon fill="white" stroke="#bfbfbf" points="38,-0.5 38,-19.5 96,-19.5 96,-0.5 38,-0.5"/>
<text text-anchor="middle" x="67" y="-7.5" font-family="Helvetica,sans-Serif" font-size="10.00">uintptr_t</text>
</a>
</g>
</g>
<!-- Node14&#45;&gt;Node8 -->
<g id="edge13" class="edge">
<title>Node14&#45;&gt;Node8</title>
<path fill="none" stroke="#9a32cd" stroke-dasharray="5,2" d="M106.56,-5.85C141.56,-4.25 192.65,-7.6 226,-35 243.93,-49.73 227.08,-68.12 244,-84 248.14,-87.89 253.04,-90.98 258.26,-93.44"/>
<polygon fill="#9a32cd" stroke="#9a32cd" points="106.02,-2.38 96.25,-6.49 106.45,-9.37 106.02,-2.38"/>
<text text-anchor="middle" x="189" y="-38" font-family="Helvetica,sans-Serif" font-size="10.00"> address</text>
</g>
<!-- Node15 -->
<g id="node15" class="node">
<title>Node15</title>
<g id="a_node15"><a xlink:title=" ">
<polygon fill="white" stroke="#bfbfbf" points="251,-55.5 251,-74.5 367,-74.5 367,-55.5 251,-55.5"/>
<text text-anchor="middle" x="309" y="-62.5" font-family="Helvetica,sans-Serif" font-size="10.00">SemaphoreHandle_t</text>
</a>
</g>
</g>
<!-- Node15&#45;&gt;Node1 -->
<g id="edge14" class="edge">
<title>Node15&#45;&gt;Node1</title>
<path fill="none" stroke="#9a32cd" stroke-dasharray="5,2" d="M377.38,-57.32C414.26,-56.46 459.18,-61.14 493,-83 542.32,-114.87 564.97,-188.03 571.73,-214.35"/>
<polygon fill="#9a32cd" stroke="#9a32cd" points="377.08,-53.83 367.21,-57.71 377.34,-60.83 377.08,-53.83"/>
<text text-anchor="middle" x="442.5" y="-86" font-family="Helvetica,sans-Serif" font-size="10.00"> inner_mtx</text>
</g>
</g>
</svg>
