<?xml version="1.0" encoding="UTF-8" standalone="no"?>
<!DOCTYPE svg PUBLIC "-//W3C//DTD SVG 1.1//EN"
 "http://www.w3.org/Graphics/SVG/1.1/DTD/svg11.dtd">
<!-- Generated by graphviz version 2.43.0 (0)
 -->
<!-- Title: st_imrdrv_triangle_mode_t Pages: 1 -->
<svg width="114pt" height="216pt"
 viewBox="0.00 0.00 114.00 216.00" xmlns="http://www.w3.org/2000/svg" xmlns:xlink="http://www.w3.org/1999/xlink">
<g id="graph0" class="graph" transform="scale(1 1) rotate(0) translate(4 212)">
<title>st_imrdrv_triangle_mode_t</title>
<polygon fill="white" stroke="transparent" points="-4,4 -4,-212 110,-212 110,4 -4,4"/>
<!-- Node1 -->
<g id="node1" class="node">
<title>Node1</title>
<g id="a_node1"><a xlink:title=" ">
<polygon fill="#bfbfbf" stroke="black" points="0,-0.5 0,-30.5 106,-30.5 106,-0.5 0,-0.5"/>
<text text-anchor="start" x="8" y="-18.5" font-family="Helvetica,sans-Serif" font-size="10.00">st_imrdrv_triangle</text>
<text text-anchor="middle" x="53" y="-7.5" font-family="Helvetica,sans-Serif" font-size="10.00">_mode_t</text>
</a>
</g>
</g>
<!-- Node2 -->
<g id="node2" class="node">
<title>Node2</title>
<g id="a_node2"><a xlink:title=" ">
<polygon fill="white" stroke="#bfbfbf" points="2,-188.5 2,-207.5 104,-207.5 104,-188.5 2,-188.5"/>
<text text-anchor="middle" x="53" y="-195.5" font-family="Helvetica,sans-Serif" font-size="10.00">e_imrdrv_mode_t</text>
</a>
</g>
</g>
<!-- Node2&#45;&gt;Node1 -->
<g id="edge1" class="edge">
<title>Node2&#45;&gt;Node1</title>
<path fill="none" stroke="#9a32cd" stroke-dasharray="5,2" d="M53,-178.09C53,-141.7 53,-62.69 53,-30.54"/>
<polygon fill="#9a32cd" stroke="#9a32cd" points="49.5,-178.29 53,-188.29 56.5,-178.29 49.5,-178.29"/>
<text text-anchor="middle" x="71.5" y="-162" font-family="Helvetica,sans-Serif" font-size="10.00"> autodg</text>
<text text-anchor="middle" x="71.5" y="-151" font-family="Helvetica,sans-Serif" font-size="10.00">autosg</text>
<text text-anchor="middle" x="71.5" y="-140" font-family="Helvetica,sans-Serif" font-size="10.00">bfe</text>
<text text-anchor="middle" x="71.5" y="-129" font-family="Helvetica,sans-Serif" font-size="10.00">rde</text>
<text text-anchor="middle" x="71.5" y="-118" font-family="Helvetica,sans-Serif" font-size="10.00">shfe</text>
<text text-anchor="middle" x="71.5" y="-107" font-family="Helvetica,sans-Serif" font-size="10.00">shfval</text>
<text text-anchor="middle" x="71.5" y="-96" font-family="Helvetica,sans-Serif" font-size="10.00">tcm</text>
<text text-anchor="middle" x="71.5" y="-85" font-family="Helvetica,sans-Serif" font-size="10.00">tfe</text>
<text text-anchor="middle" x="71.5" y="-74" font-family="Helvetica,sans-Serif" font-size="10.00">tme</text>
<text text-anchor="middle" x="71.5" y="-63" font-family="Helvetica,sans-Serif" font-size="10.00">uvshfe</text>
<text text-anchor="middle" x="71.5" y="-52" font-family="Helvetica,sans-Serif" font-size="10.00">...</text>
</g>
</g>
</svg>
