<?xml version="1.0" encoding="UTF-8" standalone="no"?>
<!DOCTYPE svg PUBLIC "-//W3C//DTD SVG 1.1//EN"
 "http://www.w3.org/Graphics/SVG/1.1/DTD/svg11.dtd">
<!-- Generated by graphviz version 2.43.0 (0)
 -->
<!-- Title: st_imrdrv_osal_mutex_area_t Pages: 1 -->
<svg width="539pt" height="262pt"
 viewBox="0.00 0.00 539.00 262.00" xmlns="http://www.w3.org/2000/svg" xmlns:xlink="http://www.w3.org/1999/xlink">
<g id="graph0" class="graph" transform="scale(1 1) rotate(0) translate(4 258)">
<title>st_imrdrv_osal_mutex_area_t</title>
<polygon fill="white" stroke="transparent" points="-4,4 -4,-258 535,-258 535,4 -4,4"/>
<!-- Node1 -->
<g id="node1" class="node">
<title>Node1</title>
<g id="a_node1"><a xlink:title=" ">
<polygon fill="#bfbfbf" stroke="black" points="312.5,-0.5 312.5,-30.5 437.5,-30.5 437.5,-0.5 312.5,-0.5"/>
<text text-anchor="start" x="320.5" y="-18.5" font-family="Helvetica,sans-Serif" font-size="10.00">st_imrdrv_osal_mutex</text>
<text text-anchor="middle" x="375" y="-7.5" font-family="Helvetica,sans-Serif" font-size="10.00">_area_t</text>
</a>
</g>
</g>
<!-- Node2 -->
<g id="node2" class="node">
<title>Node2</title>
<g id="a_node2"><a xlink:href="structst__osal__mutex__control.html" target="_top" xlink:title="control of mutex (Defined in OSAL Wrapper implementation files).">
<polygon fill="white" stroke="black" points="201.5,-78.5 201.5,-97.5 328.5,-97.5 328.5,-78.5 201.5,-78.5"/>
<text text-anchor="middle" x="265" y="-85.5" font-family="Helvetica,sans-Serif" font-size="10.00">st_osal_mutex_control</text>
</a>
</g>
</g>
<!-- Node2&#45;&gt;Node1 -->
<g id="edge1" class="edge">
<title>Node2&#45;&gt;Node1</title>
<path fill="none" stroke="#9a32cd" stroke-dasharray="5,2" d="M287.15,-72.8C306.33,-60.51 333.92,-42.83 353.04,-30.58"/>
<polygon fill="#9a32cd" stroke="#9a32cd" points="285.02,-70.01 278.49,-78.36 288.8,-75.91 285.02,-70.01"/>
<text text-anchor="middle" x="359.5" y="-52" font-family="Helvetica,sans-Serif" font-size="10.00"> mutex_handle</text>
</g>
<!-- Node3 -->
<g id="node3" class="node">
<title>Node3</title>
<g id="a_node3"><a xlink:title=" ">
<polygon fill="white" stroke="#bfbfbf" points="74,-234.5 74,-253.5 130,-253.5 130,-234.5 74,-234.5"/>
<text text-anchor="middle" x="102" y="-241.5" font-family="Helvetica,sans-Serif" font-size="10.00">uint64_t</text>
</a>
</g>
</g>
<!-- Node3&#45;&gt;Node2 -->
<g id="edge2" class="edge">
<title>Node3&#45;&gt;Node2</title>
<path fill="none" stroke="#9a32cd" stroke-dasharray="5,2" d="M110.19,-225.25C119.53,-206.42 136.23,-176.59 157,-156 183.64,-129.59 222.52,-108.71 245.64,-97.66"/>
<polygon fill="#9a32cd" stroke="#9a32cd" points="106.95,-223.93 105.78,-234.46 113.26,-226.95 106.95,-223.93"/>
<text text-anchor="middle" x="182.5" y="-169" font-family="Helvetica,sans-Serif" font-size="10.00"> handle_id</text>
</g>
<!-- Node4 -->
<g id="node4" class="node">
<title>Node4</title>
<g id="a_node4"><a xlink:href="structst__osal__rcfg__mutex__config.html" target="_top" xlink:title=" ">
<polygon fill="white" stroke="black" points="0,-156.5 0,-186.5 112,-186.5 112,-156.5 0,-156.5"/>
<text text-anchor="start" x="8" y="-174.5" font-family="Helvetica,sans-Serif" font-size="10.00">st_osal_rcfg_mutex</text>
<text text-anchor="middle" x="56" y="-163.5" font-family="Helvetica,sans-Serif" font-size="10.00">_config</text>
</a>
</g>
</g>
<!-- Node3&#45;&gt;Node4 -->
<g id="edge4" class="edge">
<title>Node3&#45;&gt;Node4</title>
<path fill="none" stroke="#9a32cd" stroke-dasharray="5,2" d="M90.7,-225.68C82.85,-213.65 72.53,-197.83 65.18,-186.58"/>
<polygon fill="#9a32cd" stroke="#9a32cd" points="87.96,-227.89 96.36,-234.36 93.83,-224.07 87.96,-227.89"/>
<text text-anchor="middle" x="90.5" y="-208" font-family="Helvetica,sans-Serif" font-size="10.00"> id</text>
</g>
<!-- Node4&#45;&gt;Node2 -->
<g id="edge3" class="edge">
<title>Node4&#45;&gt;Node2</title>
<path fill="none" stroke="#9a32cd" stroke-dasharray="5,2" d="M61.52,-146.12C65.23,-135.26 71.28,-123.29 81,-116 99.67,-102.01 155.88,-95.21 201.31,-91.94"/>
<polygon fill="#9a32cd" stroke="#9a32cd" points="58.07,-145.44 58.63,-156.02 64.79,-147.4 58.07,-145.44"/>
<text text-anchor="middle" x="107.5" y="-124.5" font-family="Helvetica,sans-Serif" font-size="10.00"> usr_config</text>
</g>
<!-- Node5 -->
<g id="node5" class="node">
<title>Node5</title>
<g id="a_node5"><a xlink:title=" ">
<polygon fill="white" stroke="#bfbfbf" points="419,-162 419,-181 469,-181 469,-162 419,-162"/>
<text text-anchor="middle" x="444" y="-169" font-family="Helvetica,sans-Serif" font-size="10.00">int64_t</text>
</a>
</g>
</g>
<!-- Node5&#45;&gt;Node1 -->
<g id="edge8" class="edge">
<title>Node5&#45;&gt;Node1</title>
<path fill="none" stroke="#9a32cd" stroke-dasharray="5,2" d="M445.69,-151.51C446.05,-140.85 445.51,-127.43 442,-116 431.47,-81.76 404.85,-48.62 388.51,-30.55"/>
<polygon fill="#9a32cd" stroke="#9a32cd" points="442.18,-151.58 445.04,-161.78 449.16,-152.01 442.18,-151.58"/>
<text text-anchor="middle" x="482.5" y="-85.5" font-family="Helvetica,sans-Serif" font-size="10.00"> mutex_wait_period</text>
</g>
<!-- Node5&#45;&gt;Node2 -->
<g id="edge5" class="edge">
<title>Node5&#45;&gt;Node2</title>
<path fill="none" stroke="#9a32cd" stroke-dasharray="5,2" d="M409.4,-158.24C396.51,-152.93 382.09,-146.07 370,-138 358.23,-130.15 359.13,-123.28 347,-116 333.38,-107.82 316.98,-101.79 302.44,-97.52"/>
<polygon fill="#9a32cd" stroke="#9a32cd" points="408.31,-161.57 418.89,-161.99 410.88,-155.06 408.31,-161.57"/>
<text text-anchor="middle" x="406" y="-124.5" font-family="Helvetica,sans-Serif" font-size="10.00"> inner_timeout</text>
</g>
<!-- Node6 -->
<g id="node6" class="node">
<title>Node6</title>
<g id="a_node6"><a xlink:title=" ">
<polygon fill="white" stroke="#bfbfbf" points="217,-162 217,-181 255,-181 255,-162 217,-162"/>
<text text-anchor="middle" x="236" y="-169" font-family="Helvetica,sans-Serif" font-size="10.00">bool</text>
</a>
</g>
</g>
<!-- Node6&#45;&gt;Node2 -->
<g id="edge6" class="edge">
<title>Node6&#45;&gt;Node2</title>
<path fill="none" stroke="#9a32cd" stroke-dasharray="5,2" d="M232.9,-151.87C231.91,-140.97 232.12,-127.2 237,-116 240.18,-108.69 246.38,-102.39 252.14,-97.71"/>
<polygon fill="#9a32cd" stroke="#9a32cd" points="229.45,-152.49 234.22,-161.95 236.39,-151.58 229.45,-152.49"/>
<text text-anchor="middle" x="254" y="-130" font-family="Helvetica,sans-Serif" font-size="10.00"> active</text>
<text text-anchor="middle" x="254" y="-119" font-family="Helvetica,sans-Serif" font-size="10.00">use</text>
</g>
<!-- Node7 -->
<g id="node7" class="node">
<title>Node7</title>
<g id="a_node7"><a xlink:title=" ">
<polygon fill="white" stroke="#bfbfbf" points="273,-162 273,-181 389,-181 389,-162 273,-162"/>
<text text-anchor="middle" x="331" y="-169" font-family="Helvetica,sans-Serif" font-size="10.00">SemaphoreHandle_t</text>
</a>
</g>
</g>
<!-- Node7&#45;&gt;Node2 -->
<g id="edge7" class="edge">
<title>Node7&#45;&gt;Node2</title>
<path fill="none" stroke="#9a32cd" stroke-dasharray="5,2" d="M311.63,-155.5C305.6,-150.32 299.18,-144.24 294,-138 283.4,-125.22 274.22,-108.11 269.17,-97.86"/>
<polygon fill="#9a32cd" stroke="#9a32cd" points="309.52,-158.29 319.46,-161.94 313.96,-152.89 309.52,-158.29"/>
<text text-anchor="middle" x="320.5" y="-130" font-family="Helvetica,sans-Serif" font-size="10.00"> inner_mtx</text>
<text text-anchor="middle" x="320.5" y="-119" font-family="Helvetica,sans-Serif" font-size="10.00">mtx</text>
</g>
</g>
</svg>
