<?xml version="1.0" encoding="UTF-8" standalone="no"?>
<!DOCTYPE svg PUBLIC "-//W3C//DTD SVG 1.1//EN"
 "http://www.w3.org/Graphics/SVG/1.1/DTD/svg11.dtd">
<!-- Generated by graphviz version 2.43.0 (0)
 -->
<!-- Title: R_AUDMAC_AllocateCh_t Pages: 1 -->
<svg width="187pt" height="95pt"
 viewBox="0.00 0.00 187.00 95.00" xmlns="http://www.w3.org/2000/svg" xmlns:xlink="http://www.w3.org/1999/xlink">
<g id="graph0" class="graph" transform="scale(1 1) rotate(0) translate(4 91)">
<title>R_AUDMAC_AllocateCh_t</title>
<polygon fill="white" stroke="transparent" points="-4,4 -4,-91 183,-91 183,4 -4,4"/>
<!-- Node1 -->
<g id="node1" class="node">
<title>Node1</title>
<g id="a_node1"><a xlink:title=" ">
<polygon fill="#bfbfbf" stroke="black" points="3,-0.5 3,-19.5 143,-19.5 143,-0.5 3,-0.5"/>
<text text-anchor="middle" x="73" y="-7.5" font-family="Helvetica,sans-Serif" font-size="10.00">R_AUDMAC_AllocateCh_t</text>
</a>
</g>
</g>
<!-- Node2 -->
<g id="node2" class="node">
<title>Node2</title>
<g id="a_node2"><a xlink:title=" ">
<polygon fill="white" stroke="#bfbfbf" points="0,-67.5 0,-86.5 50,-86.5 50,-67.5 0,-67.5"/>
<text text-anchor="middle" x="25" y="-74.5" font-family="Helvetica,sans-Serif" font-size="10.00">uint8_t</text>
</a>
</g>
</g>
<!-- Node2&#45;&gt;Node1 -->
<g id="edge1" class="edge">
<title>Node2&#45;&gt;Node1</title>
<path fill="none" stroke="#9a32cd" stroke-dasharray="5,2" d="M37.62,-58.9C46.95,-46.27 59.26,-29.6 66.63,-19.63"/>
<polygon fill="#9a32cd" stroke="#9a32cd" points="34.6,-57.11 31.47,-67.23 40.23,-61.27 34.6,-57.11"/>
<text text-anchor="middle" x="74.5" y="-41" font-family="Helvetica,sans-Serif" font-size="10.00"> mUseCh</text>
</g>
<!-- Node3 -->
<g id="node3" class="node">
<title>Node3</title>
<g id="a_node3"><a xlink:title=" ">
<polygon fill="white" stroke="#bfbfbf" points="68.5,-67.5 68.5,-86.5 175.5,-86.5 175.5,-67.5 68.5,-67.5"/>
<text text-anchor="middle" x="122" y="-74.5" font-family="Helvetica,sans-Serif" font-size="10.00">R_AUDMAC_Dev_t</text>
</a>
</g>
</g>
<!-- Node3&#45;&gt;Node1 -->
<g id="edge2" class="edge">
<title>Node3&#45;&gt;Node1</title>
<path fill="none" stroke="#9a32cd" stroke-dasharray="5,2" d="M113.14,-58.52C109.44,-51.85 104.87,-44.34 100,-38 94.91,-31.38 88.29,-24.73 82.88,-19.69"/>
<polygon fill="#9a32cd" stroke="#9a32cd" points="110.09,-60.25 117.87,-67.45 116.28,-56.98 110.09,-60.25"/>
<text text-anchor="middle" x="143" y="-41" font-family="Helvetica,sans-Serif" font-size="10.00"> mUseAudmac</text>
</g>
</g>
</svg>
