<?xml version="1.0" encoding="UTF-8" standalone="no"?>
<!DOCTYPE svg PUBLIC "-//W3C//DTD SVG 1.1//EN"
 "http://www.w3.org/Graphics/SVG/1.1/DTD/svg11.dtd">
<!-- Generated by graphviz version 2.43.0 (0)
 -->
<!-- Title: st_osal_cond_control Pages: 1 -->
<svg width="531pt" height="335pt"
 viewBox="0.00 0.00 531.00 335.00" xmlns="http://www.w3.org/2000/svg" xmlns:xlink="http://www.w3.org/1999/xlink">
<g id="graph0" class="graph" transform="scale(1 1) rotate(0) translate(4 331)">
<title>st_osal_cond_control</title>
<polygon fill="white" stroke="transparent" points="-4,4 -4,-331 527,-331 527,4 -4,4"/>
<!-- Node1 -->
<g id="node1" class="node">
<title>Node1</title>
<g id="a_node1"><a xlink:title="control of condition variable (Defined in OSAL Wrapper implementation files).">
<polygon fill="#bfbfbf" stroke="black" points="404,-136.5 404,-155.5 523,-155.5 523,-136.5 404,-136.5"/>
<text text-anchor="middle" x="463.5" y="-143.5" font-family="Helvetica,sans-Serif" font-size="10.00">st_osal_cond_control</text>
</a>
</g>
</g>
<!-- Node2 -->
<g id="node2" class="node">
<title>Node2</title>
<g id="a_node2"><a xlink:href="structst__osal__rcfg__cond__config.html" target="_top" xlink:title=" ">
<polygon fill="white" stroke="black" points="130,-257.5 130,-276.5 268,-276.5 268,-257.5 130,-257.5"/>
<text text-anchor="middle" x="199" y="-264.5" font-family="Helvetica,sans-Serif" font-size="10.00">st_osal_rcfg_cond_config</text>
</a>
</g>
</g>
<!-- Node2&#45;&gt;Node1 -->
<g id="edge1" class="edge">
<title>Node2&#45;&gt;Node1</title>
<path fill="none" stroke="#9a32cd" stroke-dasharray="5,2" d="M278.21,-261.91C312.98,-256.98 353.35,-247.43 386,-229 418.77,-210.51 445.41,-173.07 456.69,-155.5"/>
<polygon fill="#9a32cd" stroke="#9a32cd" points="277.54,-258.47 268.08,-263.24 278.45,-265.41 277.54,-258.47"/>
<text text-anchor="middle" x="336" y="-263" font-family="Helvetica,sans-Serif" font-size="10.00"> usr_config</text>
</g>
<!-- Node3 -->
<g id="node3" class="node">
<title>Node3</title>
<g id="a_node3"><a xlink:title=" ">
<polygon fill="white" stroke="#bfbfbf" points="8,-280.5 8,-299.5 64,-299.5 64,-280.5 8,-280.5"/>
<text text-anchor="middle" x="36" y="-287.5" font-family="Helvetica,sans-Serif" font-size="10.00">uint64_t</text>
</a>
</g>
</g>
<!-- Node3&#45;&gt;Node1 -->
<g id="edge3" class="edge">
<title>Node3&#45;&gt;Node1</title>
<path fill="none" stroke="#9a32cd" stroke-dasharray="5,2" d="M73.94,-299.53C141.74,-314.76 288.03,-337.01 386,-275 431.32,-246.32 453.24,-180.26 460.07,-155.56"/>
<polygon fill="#9a32cd" stroke="#9a32cd" points="74.67,-296.1 64.14,-297.25 73.09,-302.92 74.67,-296.1"/>
<text text-anchor="middle" x="199" y="-319" font-family="Helvetica,sans-Serif" font-size="10.00"> handle_id</text>
</g>
<!-- Node3&#45;&gt;Node2 -->
<g id="edge2" class="edge">
<title>Node3&#45;&gt;Node2</title>
<path fill="none" stroke="#9a32cd" stroke-dasharray="5,2" d="M74.35,-284.66C91.28,-282.25 111.84,-279.31 131.28,-276.53"/>
<polygon fill="#9a32cd" stroke="#9a32cd" points="73.72,-281.22 64.31,-286.1 74.71,-288.15 73.72,-281.22"/>
<text text-anchor="middle" x="101" y="-284" font-family="Helvetica,sans-Serif" font-size="10.00"> id</text>
</g>
<!-- Node4 -->
<g id="node4" class="node">
<title>Node4</title>
<g id="a_node4"><a xlink:href="structst__osal__event__list__t.html" target="_top" xlink:title=" ">
<polygon fill="white" stroke="black" points="142.5,-219.5 142.5,-238.5 255.5,-238.5 255.5,-219.5 142.5,-219.5"/>
<text text-anchor="middle" x="199" y="-226.5" font-family="Helvetica,sans-Serif" font-size="10.00">st_osal_event_list_t</text>
</a>
</g>
</g>
<!-- Node4&#45;&gt;Node1 -->
<g id="edge4" class="edge">
<title>Node4&#45;&gt;Node1</title>
<path fill="none" stroke="#9a32cd" stroke-dasharray="5,2" d="M244.7,-216.78C252.48,-214.57 260.49,-212.26 268,-210 327.92,-191.99 397.38,-168.49 434.94,-155.57"/>
<polygon fill="#9a32cd" stroke="#9a32cd" points="243.7,-213.42 235.02,-219.5 245.59,-220.16 243.7,-213.42"/>
<text text-anchor="middle" x="336" y="-217" font-family="Helvetica,sans-Serif" font-size="10.00"> empty_list</text>
<text text-anchor="middle" x="336" y="-206" font-family="Helvetica,sans-Serif" font-size="10.00">wait_list</text>
</g>
<!-- Node5 -->
<g id="node5" class="node">
<title>Node5</title>
<g id="a_node5"><a xlink:href="structst__osal__event__list.html" target="_top" xlink:title=" ">
<polygon fill="white" stroke="black" points="147,-152.5 147,-171.5 251,-171.5 251,-152.5 147,-152.5"/>
<text text-anchor="middle" x="199" y="-159.5" font-family="Helvetica,sans-Serif" font-size="10.00">st_osal_event_list</text>
</a>
</g>
</g>
<!-- Node5&#45;&gt;Node1 -->
<g id="edge5" class="edge">
<title>Node5&#45;&gt;Node1</title>
<path fill="none" stroke="#9a32cd" stroke-dasharray="5,2" d="M261.27,-158.27C304.19,-155.65 361.22,-152.17 403.6,-149.59"/>
<polygon fill="#9a32cd" stroke="#9a32cd" points="261,-154.78 251.24,-158.88 261.43,-161.76 261,-154.78"/>
<text text-anchor="middle" x="336" y="-160" font-family="Helvetica,sans-Serif" font-size="10.00"> bits_pattern</text>
</g>
<!-- Node5&#45;&gt;Node5 -->
<g id="edge6" class="edge">
<title>Node5&#45;&gt;Node5</title>
<path fill="none" stroke="#9a32cd" stroke-dasharray="5,2" d="M180.85,-181.4C182.06,-186.31 188.11,-190 199,-190 216.42,-190 221.45,-180.57 214.1,-171.76"/>
<polygon fill="#9a32cd" stroke="#9a32cd" points="184.22,-182.35 183.9,-171.76 177.55,-180.24 184.22,-182.35"/>
<text text-anchor="middle" x="199" y="-193" font-family="Helvetica,sans-Serif" font-size="10.00"> next</text>
</g>
<!-- Node6 -->
<g id="node6" class="node">
<title>Node6</title>
<g id="a_node6"><a xlink:title=" ">
<polygon fill="white" stroke="#bfbfbf" points="0,-152.5 0,-171.5 72,-171.5 72,-152.5 0,-152.5"/>
<text text-anchor="middle" x="36" y="-159.5" font-family="Helvetica,sans-Serif" font-size="10.00">EventBits_t</text>
</a>
</g>
</g>
<!-- Node6&#45;&gt;Node5 -->
<g id="edge7" class="edge">
<title>Node6&#45;&gt;Node5</title>
<path fill="none" stroke="#9a32cd" stroke-dasharray="5,2" d="M82.46,-162C102.52,-162 126.19,-162 146.86,-162"/>
<polygon fill="#9a32cd" stroke="#9a32cd" points="82.33,-158.5 72.33,-162 82.33,-165.5 82.33,-158.5"/>
<text text-anchor="middle" x="101" y="-165" font-family="Helvetica,sans-Serif" font-size="10.00"> bits</text>
</g>
<!-- Node7 -->
<g id="node7" class="node">
<title>Node7</title>
<g id="a_node7"><a xlink:title=" ">
<polygon fill="white" stroke="#bfbfbf" points="174,-114.5 174,-133.5 224,-133.5 224,-114.5 174,-114.5"/>
<text text-anchor="middle" x="199" y="-121.5" font-family="Helvetica,sans-Serif" font-size="10.00">int64_t</text>
</a>
</g>
</g>
<!-- Node7&#45;&gt;Node1 -->
<g id="edge8" class="edge">
<title>Node7&#45;&gt;Node1</title>
<path fill="none" stroke="#9a32cd" stroke-dasharray="5,2" d="M234.59,-121.49C272.09,-119.4 333.59,-117.79 386,-125 402.37,-127.25 420.21,-132.01 434.53,-136.42"/>
<polygon fill="#9a32cd" stroke="#9a32cd" points="233.99,-118.02 224.22,-122.12 234.41,-125.01 233.99,-118.02"/>
<text text-anchor="middle" x="336" y="-139" font-family="Helvetica,sans-Serif" font-size="10.00"> inner_cond_timeout</text>
<text text-anchor="middle" x="336" y="-128" font-family="Helvetica,sans-Serif" font-size="10.00">inner_timeout</text>
</g>
<!-- Node8 -->
<g id="node8" class="node">
<title>Node8</title>
<g id="a_node8"><a xlink:title=" ">
<polygon fill="white" stroke="#bfbfbf" points="180,-76.5 180,-95.5 218,-95.5 218,-76.5 180,-76.5"/>
<text text-anchor="middle" x="199" y="-83.5" font-family="Helvetica,sans-Serif" font-size="10.00">bool</text>
</a>
</g>
</g>
<!-- Node8&#45;&gt;Node1 -->
<g id="edge9" class="edge">
<title>Node8&#45;&gt;Node1</title>
<path fill="none" stroke="#9a32cd" stroke-dasharray="5,2" d="M228.21,-85.51C265.25,-85.63 331.9,-88.45 386,-105 409.34,-112.14 433.78,-126.66 448.57,-136.36"/>
<polygon fill="#9a32cd" stroke="#9a32cd" points="228.14,-82.01 218.15,-85.55 228.16,-89.01 228.14,-82.01"/>
<text text-anchor="middle" x="336" y="-108" font-family="Helvetica,sans-Serif" font-size="10.00"> active</text>
</g>
<!-- Node9 -->
<g id="node9" class="node">
<title>Node9</title>
<g id="a_node9"><a xlink:title=" ">
<polygon fill="white" stroke="#bfbfbf" points="140.5,-38.5 140.5,-57.5 257.5,-57.5 257.5,-38.5 140.5,-38.5"/>
<text text-anchor="middle" x="199" y="-45.5" font-family="Helvetica,sans-Serif" font-size="10.00">EventGroupHandle_t</text>
</a>
</g>
</g>
<!-- Node9&#45;&gt;Node1 -->
<g id="edge10" class="edge">
<title>Node9&#45;&gt;Node1</title>
<path fill="none" stroke="#9a32cd" stroke-dasharray="5,2" d="M267.63,-47.1C304.25,-49.02 349.36,-55.4 386,-73 417.11,-87.94 443.78,-120.31 455.76,-136.45"/>
<polygon fill="#9a32cd" stroke="#9a32cd" points="267.68,-43.6 257.54,-46.67 267.39,-50.59 267.68,-43.6"/>
<text text-anchor="middle" x="336" y="-76" font-family="Helvetica,sans-Serif" font-size="10.00"> event</text>
</g>
<!-- Node10 -->
<g id="node10" class="node">
<title>Node10</title>
<g id="a_node10"><a xlink:title=" ">
<polygon fill="white" stroke="#bfbfbf" points="141,-0.5 141,-19.5 257,-19.5 257,-0.5 141,-0.5"/>
<text text-anchor="middle" x="199" y="-7.5" font-family="Helvetica,sans-Serif" font-size="10.00">SemaphoreHandle_t</text>
</a>
</g>
</g>
<!-- Node10&#45;&gt;Node1 -->
<g id="edge11" class="edge">
<title>Node10&#45;&gt;Node1</title>
<path fill="none" stroke="#9a32cd" stroke-dasharray="5,2" d="M267.59,-5.68C304.99,-6.35 350.86,-12.46 386,-34 426.55,-58.86 450.74,-114.22 459.14,-136.47"/>
<polygon fill="#9a32cd" stroke="#9a32cd" points="267.3,-2.18 257.28,-5.63 267.27,-9.18 267.3,-2.18"/>
<text text-anchor="middle" x="336" y="-37" font-family="Helvetica,sans-Serif" font-size="10.00"> inner_mtx</text>
</g>
</g>
</svg>
