<?xml version="1.0" encoding="UTF-8" standalone="no"?>
<!DOCTYPE svg PUBLIC "-//W3C//DTD SVG 1.1//EN"
 "http://www.w3.org/Graphics/SVG/1.1/DTD/svg11.dtd">
<!-- Generated by graphviz version 2.43.0 (0)
 -->
<!-- Title: r_wmdrv_Sys_VspdInfo_t Pages: 1 -->
<svg width="934pt" height="570pt"
 viewBox="0.00 0.00 934.00 570.00" xmlns="http://www.w3.org/2000/svg" xmlns:xlink="http://www.w3.org/1999/xlink">
<g id="graph0" class="graph" transform="scale(1 1) rotate(0) translate(4 566)">
<title>r_wmdrv_Sys_VspdInfo_t</title>
<polygon fill="white" stroke="transparent" points="-4,4 -4,-566 930,-566 930,4 -4,4"/>
<!-- Node1 -->
<g id="node1" class="node">
<title>Node1</title>
<g id="a_node1"><a xlink:title=" ">
<polygon fill="#bfbfbf" stroke="black" points="787,-303.5 787,-322.5 926,-322.5 926,-303.5 787,-303.5"/>
<text text-anchor="middle" x="856.5" y="-310.5" font-family="Helvetica,sans-Serif" font-size="10.00">r_wmdrv_Sys_VspdInfo_t</text>
</a>
</g>
</g>
<!-- Node2 -->
<g id="node2" class="node">
<title>Node2</title>
<g id="a_node2"><a xlink:href="structst__osal__mutex__control.html" target="_top" xlink:title="control of mutex (Defined in OSAL Wrapper implementation files).">
<polygon fill="white" stroke="black" points="511.5,-484.5 511.5,-503.5 638.5,-503.5 638.5,-484.5 511.5,-484.5"/>
<text text-anchor="middle" x="575" y="-491.5" font-family="Helvetica,sans-Serif" font-size="10.00">st_osal_mutex_control</text>
</a>
</g>
</g>
<!-- Node2&#45;&gt;Node1 -->
<g id="edge1" class="edge">
<title>Node2&#45;&gt;Node1</title>
<path fill="none" stroke="#9a32cd" stroke-dasharray="5,2" d="M649.03,-497.32C687.7,-495.66 734.25,-487.9 769,-464 821.03,-428.22 845.76,-350.22 853.08,-322.78"/>
<polygon fill="#9a32cd" stroke="#9a32cd" points="648.75,-493.82 638.86,-497.62 648.96,-500.82 648.75,-493.82"/>
<text text-anchor="middle" x="713" y="-510" font-family="Helvetica,sans-Serif" font-size="10.00"> SemaVspd</text>
<text text-anchor="middle" x="713" y="-499" font-family="Helvetica,sans-Serif" font-size="10.00">SemaVspdDiscom</text>
</g>
<!-- Node3 -->
<g id="node3" class="node">
<title>Node3</title>
<g id="a_node3"><a xlink:title=" ">
<polygon fill="white" stroke="#bfbfbf" points="39,-504.5 39,-523.5 95,-523.5 95,-504.5 39,-504.5"/>
<text text-anchor="middle" x="67" y="-511.5" font-family="Helvetica,sans-Serif" font-size="10.00">uint64_t</text>
</a>
</g>
</g>
<!-- Node3&#45;&gt;Node2 -->
<g id="edge2" class="edge">
<title>Node3&#45;&gt;Node2</title>
<path fill="none" stroke="#9a32cd" stroke-dasharray="5,2" d="M105.31,-523.15C180.2,-539.92 353.58,-570.76 493,-535 518.04,-528.58 544.24,-513.56 559.84,-503.59"/>
<polygon fill="#9a32cd" stroke="#9a32cd" points="105.94,-519.7 95.41,-520.88 104.38,-526.52 105.94,-519.7"/>
<text text-anchor="middle" x="309" y="-554" font-family="Helvetica,sans-Serif" font-size="10.00"> handle_id</text>
</g>
<!-- Node4 -->
<g id="node4" class="node">
<title>Node4</title>
<g id="a_node4"><a xlink:href="structst__osal__rcfg__mutex__config.html" target="_top" xlink:title=" ">
<polygon fill="white" stroke="black" points="253,-499 253,-529 365,-529 365,-499 253,-499"/>
<text text-anchor="start" x="261" y="-517" font-family="Helvetica,sans-Serif" font-size="10.00">st_osal_rcfg_mutex</text>
<text text-anchor="middle" x="309" y="-506" font-family="Helvetica,sans-Serif" font-size="10.00">_config</text>
</a>
</g>
</g>
<!-- Node3&#45;&gt;Node4 -->
<g id="edge4" class="edge">
<title>Node3&#45;&gt;Node4</title>
<path fill="none" stroke="#9a32cd" stroke-dasharray="5,2" d="M105.07,-514C144.59,-514 207.61,-514 252.94,-514"/>
<polygon fill="#9a32cd" stroke="#9a32cd" points="105.06,-510.5 95.06,-514 105.06,-517.5 105.06,-510.5"/>
<text text-anchor="middle" x="189" y="-517" font-family="Helvetica,sans-Serif" font-size="10.00"> id</text>
</g>
<!-- Node11 -->
<g id="node11" class="node">
<title>Node11</title>
<g id="a_node11"><a xlink:href="structst__osal__device__control.html" target="_top" xlink:title="control of device (Defined in OSAL Wrapper implementation files).">
<polygon fill="white" stroke="black" points="511,-236.5 511,-255.5 639,-255.5 639,-236.5 511,-236.5"/>
<text text-anchor="middle" x="575" y="-243.5" font-family="Helvetica,sans-Serif" font-size="10.00">st_osal_device_control</text>
</a>
</g>
</g>
<!-- Node3&#45;&gt;Node11 -->
<g id="edge14" class="edge">
<title>Node3&#45;&gt;Node11</title>
<path fill="none" stroke="#9a32cd" stroke-dasharray="5,2" d="M75.25,-494.89C94.4,-447.39 151.34,-324.01 244,-272 288.16,-247.21 427.94,-244.23 510.73,-244.78"/>
<polygon fill="#9a32cd" stroke="#9a32cd" points="71.95,-493.72 71.55,-504.31 78.46,-496.28 71.95,-493.72"/>
<text text-anchor="middle" x="309" y="-286" font-family="Helvetica,sans-Serif" font-size="10.00"> axi_bus_id</text>
<text text-anchor="middle" x="309" y="-275" font-family="Helvetica,sans-Serif" font-size="10.00">handle_id</text>
</g>
<!-- Node4&#45;&gt;Node2 -->
<g id="edge3" class="edge">
<title>Node4&#45;&gt;Node2</title>
<path fill="none" stroke="#9a32cd" stroke-dasharray="5,2" d="M375.21,-519.23C410.27,-520.91 454.16,-521.18 493,-516 510.91,-513.61 530.47,-508.37 545.89,-503.61"/>
<polygon fill="#9a32cd" stroke="#9a32cd" points="375.27,-515.73 365.1,-518.7 374.9,-522.72 375.27,-515.73"/>
<text text-anchor="middle" x="442.5" y="-523" font-family="Helvetica,sans-Serif" font-size="10.00"> usr_config</text>
</g>
<!-- Node5 -->
<g id="node5" class="node">
<title>Node5</title>
<g id="a_node5"><a xlink:title=" ">
<polygon fill="white" stroke="#bfbfbf" points="284,-460.5 284,-479.5 334,-479.5 334,-460.5 284,-460.5"/>
<text text-anchor="middle" x="309" y="-467.5" font-family="Helvetica,sans-Serif" font-size="10.00">int64_t</text>
</a>
</g>
</g>
<!-- Node5&#45;&gt;Node2 -->
<g id="edge5" class="edge">
<title>Node5&#45;&gt;Node2</title>
<path fill="none" stroke="#9a32cd" stroke-dasharray="5,2" d="M344.46,-475.66C359.09,-477.91 376.34,-480.34 392,-482 431.52,-486.19 476.03,-489.15 511.14,-491.09"/>
<polygon fill="#9a32cd" stroke="#9a32cd" points="344.76,-472.17 334.33,-474.08 343.67,-479.08 344.76,-472.17"/>
<text text-anchor="middle" x="442.5" y="-492" font-family="Helvetica,sans-Serif" font-size="10.00"> inner_timeout</text>
</g>
<!-- Node5&#45;&gt;Node11 -->
<g id="edge15" class="edge">
<title>Node5&#45;&gt;Node11</title>
<path fill="none" stroke="#9a32cd" stroke-dasharray="5,2" d="M344.43,-468.15C394.56,-465.13 482.79,-458.39 493,-448 520.55,-419.95 487.5,-303.52 511,-272 516.45,-264.7 524.32,-259.43 532.66,-255.65"/>
<polygon fill="#9a32cd" stroke="#9a32cd" points="344.14,-464.67 334.36,-468.74 344.54,-471.65 344.14,-464.67"/>
<text text-anchor="middle" x="442.5" y="-467" font-family="Helvetica,sans-Serif" font-size="10.00"> inner_timeout</text>
</g>
<!-- Node6 -->
<g id="node6" class="node">
<title>Node6</title>
<g id="a_node6"><a xlink:title=" ">
<polygon fill="white" stroke="#bfbfbf" points="290,-382.5 290,-401.5 328,-401.5 328,-382.5 290,-382.5"/>
<text text-anchor="middle" x="309" y="-389.5" font-family="Helvetica,sans-Serif" font-size="10.00">bool</text>
</a>
</g>
</g>
<!-- Node6&#45;&gt;Node2 -->
<g id="edge6" class="edge">
<title>Node6&#45;&gt;Node2</title>
<path fill="none" stroke="#9a32cd" stroke-dasharray="5,2" d="M338.43,-395.81C386.78,-402.5 480.98,-416.56 493,-426 508.33,-438.04 497.18,-452.25 511,-466 519.23,-474.19 530.27,-480.19 540.8,-484.49"/>
<polygon fill="#9a32cd" stroke="#9a32cd" points="338.68,-392.31 328.3,-394.42 337.73,-399.25 338.68,-392.31"/>
<text text-anchor="middle" x="442.5" y="-440" font-family="Helvetica,sans-Serif" font-size="10.00"> active</text>
<text text-anchor="middle" x="442.5" y="-429" font-family="Helvetica,sans-Serif" font-size="10.00">use</text>
</g>
<!-- Node6&#45;&gt;Node11 -->
<g id="edge17" class="edge">
<title>Node6&#45;&gt;Node11</title>
<path fill="none" stroke="#9a32cd" stroke-dasharray="5,2" d="M337.24,-378.25C352.93,-370.79 373.21,-361.91 392,-356 435.65,-342.28 459.39,-367.06 493,-336 514.7,-315.94 491.37,-294.08 511,-272 517.53,-264.66 526.44,-259.35 535.51,-255.52"/>
<polygon fill="#9a32cd" stroke="#9a32cd" points="335.59,-375.16 328.12,-382.67 338.65,-381.46 335.59,-375.16"/>
<text text-anchor="middle" x="442.5" y="-392" font-family="Helvetica,sans-Serif" font-size="10.00"> active</text>
<text text-anchor="middle" x="442.5" y="-381" font-family="Helvetica,sans-Serif" font-size="10.00">init_state</text>
<text text-anchor="middle" x="442.5" y="-370" font-family="Helvetica,sans-Serif" font-size="10.00">pm_wait_state</text>
<text text-anchor="middle" x="442.5" y="-359" font-family="Helvetica,sans-Serif" font-size="10.00">use</text>
</g>
<!-- Node7 -->
<g id="node7" class="node">
<title>Node7</title>
<g id="a_node7"><a xlink:title=" ">
<polygon fill="white" stroke="#bfbfbf" points="251,-303.5 251,-322.5 367,-322.5 367,-303.5 251,-303.5"/>
<text text-anchor="middle" x="309" y="-310.5" font-family="Helvetica,sans-Serif" font-size="10.00">SemaphoreHandle_t</text>
</a>
</g>
</g>
<!-- Node7&#45;&gt;Node2 -->
<g id="edge7" class="edge">
<title>Node7&#45;&gt;Node2</title>
<path fill="none" stroke="#9a32cd" stroke-dasharray="5,2" d="M377.19,-302.74C422.22,-297.53 476.24,-295.06 493,-310 519.05,-333.22 490.34,-437.88 511,-466 517.17,-474.39 526.42,-480.31 535.94,-484.47"/>
<polygon fill="#9a32cd" stroke="#9a32cd" points="376.64,-299.28 367.14,-303.96 377.49,-306.23 376.64,-299.28"/>
<text text-anchor="middle" x="442.5" y="-324" font-family="Helvetica,sans-Serif" font-size="10.00"> inner_mtx</text>
<text text-anchor="middle" x="442.5" y="-313" font-family="Helvetica,sans-Serif" font-size="10.00">mtx</text>
</g>
<!-- Node7&#45;&gt;Node11 -->
<g id="edge25" class="edge">
<title>Node7&#45;&gt;Node11</title>
<path fill="none" stroke="#9a32cd" stroke-dasharray="5,2" d="M346.8,-299.95C355.77,-296.57 365.29,-292.8 374,-289 382.2,-285.42 383.52,-282.85 392,-280 414.01,-272.6 469.16,-262.72 513.03,-255.52"/>
<polygon fill="#9a32cd" stroke="#9a32cd" points="345.5,-296.7 337.34,-303.46 347.94,-303.26 345.5,-296.7"/>
<text text-anchor="middle" x="442.5" y="-283" font-family="Helvetica,sans-Serif" font-size="10.00"> inner_mtx</text>
</g>
<!-- Node8 -->
<g id="node8" class="node">
<title>Node8</title>
<g id="a_node8"><a xlink:title=" ">
<polygon fill="white" stroke="#bfbfbf" points="533.5,-437.5 533.5,-456.5 616.5,-456.5 616.5,-437.5 533.5,-437.5"/>
<text text-anchor="middle" x="575" y="-444.5" font-family="Helvetica,sans-Serif" font-size="10.00">r_vsp2_Unit_t</text>
</a>
</g>
</g>
<!-- Node8&#45;&gt;Node1 -->
<g id="edge8" class="edge">
<title>Node8&#45;&gt;Node1</title>
<path fill="none" stroke="#9a32cd" stroke-dasharray="5,2" d="M626.84,-450.17C667.77,-450.47 725.46,-445.63 769,-421 811.03,-397.23 840.38,-344.21 851.06,-322.52"/>
<polygon fill="#9a32cd" stroke="#9a32cd" points="626.88,-446.67 616.82,-450 626.75,-453.67 626.88,-446.67"/>
<text text-anchor="middle" x="713" y="-452" font-family="Helvetica,sans-Serif" font-size="10.00"> VspdUnit</text>
</g>
<!-- Node9 -->
<g id="node9" class="node">
<title>Node9</title>
<g id="a_node9"><a xlink:title=" ">
<polygon fill="white" stroke="#bfbfbf" points="547,-326.5 547,-345.5 603,-345.5 603,-326.5 547,-326.5"/>
<text text-anchor="middle" x="575" y="-333.5" font-family="Helvetica,sans-Serif" font-size="10.00">uint32_t</text>
</a>
</g>
</g>
<!-- Node9&#45;&gt;Node1 -->
<g id="edge9" class="edge">
<title>Node9&#45;&gt;Node1</title>
<path fill="none" stroke="#9a32cd" stroke-dasharray="5,2" d="M613.06,-332.95C657.21,-329.32 731.89,-323.17 786.72,-318.66"/>
<polygon fill="#9a32cd" stroke="#9a32cd" points="612.73,-329.47 603.05,-333.77 613.31,-336.44 612.73,-329.47"/>
<text text-anchor="middle" x="713" y="-409" font-family="Helvetica,sans-Serif" font-size="10.00"> DiscomCallback</text>
<text text-anchor="middle" x="713" y="-398" font-family="Helvetica,sans-Serif" font-size="10.00">InitFlag</text>
<text text-anchor="middle" x="713" y="-387" font-family="Helvetica,sans-Serif" font-size="10.00">IrqVspdDiscomNum</text>
<text text-anchor="middle" x="713" y="-376" font-family="Helvetica,sans-Serif" font-size="10.00">IrqVspdDiscomThread</text>
<text text-anchor="middle" x="713" y="-365" font-family="Helvetica,sans-Serif" font-size="10.00">IrqVspdNum</text>
<text text-anchor="middle" x="713" y="-354" font-family="Helvetica,sans-Serif" font-size="10.00">IrqVspdThread</text>
<text text-anchor="middle" x="713" y="-343" font-family="Helvetica,sans-Serif" font-size="10.00">Wpf0InUse</text>
<text text-anchor="middle" x="713" y="-332" font-family="Helvetica,sans-Serif" font-size="10.00">Wpf1InUse</text>
</g>
<!-- Node10 -->
<g id="node10" class="node">
<title>Node10</title>
<g id="a_node10"><a xlink:title=" ">
<polygon fill="white" stroke="#bfbfbf" points="560.5,-281.5 560.5,-300.5 589.5,-300.5 589.5,-281.5 560.5,-281.5"/>
<text text-anchor="middle" x="575" y="-288.5" font-family="Helvetica,sans-Serif" font-size="10.00">int</text>
</a>
</g>
</g>
<!-- Node10&#45;&gt;Node1 -->
<g id="edge10" class="edge">
<title>Node10&#45;&gt;Node1</title>
<path fill="none" stroke="#9a32cd" stroke-dasharray="5,2" d="M599.79,-289.35C636.33,-287.22 708.42,-284.59 769,-292 787.41,-294.25 807.56,-299.01 823.79,-303.42"/>
<polygon fill="#9a32cd" stroke="#9a32cd" points="599.4,-285.87 589.64,-289.99 599.84,-292.86 599.4,-285.87"/>
<text text-anchor="middle" x="713" y="-306" font-family="Helvetica,sans-Serif" font-size="10.00"> IrqVspdDiscomQuit</text>
<text text-anchor="middle" x="713" y="-295" font-family="Helvetica,sans-Serif" font-size="10.00">IrqVspdQuit</text>
</g>
<!-- Node11&#45;&gt;Node1 -->
<g id="edge11" class="edge">
<title>Node11&#45;&gt;Node1</title>
<path fill="none" stroke="#9a32cd" stroke-dasharray="5,2" d="M649.25,-243.81C685.97,-244.67 730.67,-248.75 769,-261 798.21,-270.34 827.9,-291.21 843.77,-303.48"/>
<polygon fill="#9a32cd" stroke="#9a32cd" points="649.17,-240.31 639.11,-243.65 649.06,-247.31 649.17,-240.31"/>
<text text-anchor="middle" x="713" y="-275" font-family="Helvetica,sans-Serif" font-size="10.00"> device_handle</text>
<text text-anchor="middle" x="713" y="-264" font-family="Helvetica,sans-Serif" font-size="10.00">discom_device_handle</text>
</g>
<!-- Node12 -->
<g id="node12" class="node">
<title>Node12</title>
<g id="a_node12"><a xlink:title=" ">
<polygon fill="white" stroke="#bfbfbf" points="244,-207.5 244,-226.5 374,-226.5 374,-207.5 244,-207.5"/>
<text text-anchor="middle" x="309" y="-214.5" font-family="Helvetica,sans-Serif" font-size="10.00">enum e_osal_pm_state</text>
</a>
</g>
</g>
<!-- Node12&#45;&gt;Node11 -->
<g id="edge12" class="edge">
<title>Node12&#45;&gt;Node11</title>
<path fill="none" stroke="#9a32cd" stroke-dasharray="5,2" d="M384.54,-213.6C417.94,-213.37 457.67,-214.87 493,-221 501.31,-222.44 502.96,-224.45 511,-227 520.91,-230.14 531.73,-233.45 541.57,-236.41"/>
<polygon fill="#9a32cd" stroke="#9a32cd" points="384.35,-210.1 374.4,-213.73 384.44,-217.1 384.35,-210.1"/>
<text text-anchor="middle" x="442.5" y="-224" font-family="Helvetica,sans-Serif" font-size="10.00"> lowest_power_state</text>
</g>
<!-- Node13 -->
<g id="node13" class="node">
<title>Node13</title>
<g id="a_node13"><a xlink:title=" ">
<polygon fill="white" stroke="#bfbfbf" points="259,-169.5 259,-188.5 359,-188.5 359,-169.5 259,-169.5"/>
<text text-anchor="middle" x="309" y="-176.5" font-family="Helvetica,sans-Serif" font-size="10.00">st_pma_handle_t</text>
</a>
</g>
</g>
<!-- Node13&#45;&gt;Node11 -->
<g id="edge13" class="edge">
<title>Node13&#45;&gt;Node11</title>
<path fill="none" stroke="#9a32cd" stroke-dasharray="5,2" d="M369.56,-172.96C407.55,-171.99 456.36,-176.32 493,-199 505.58,-206.79 499.19,-218.09 511,-227 516.11,-230.85 522,-233.93 528.08,-236.38"/>
<polygon fill="#9a32cd" stroke="#9a32cd" points="369.01,-169.48 359.15,-173.36 369.28,-176.47 369.01,-169.48"/>
<text text-anchor="middle" x="442.5" y="-202" font-family="Helvetica,sans-Serif" font-size="10.00"> pma_handle</text>
</g>
<!-- Node14 -->
<g id="node14" class="node">
<title>Node14</title>
<g id="a_node14"><a xlink:title=" ">
<polygon fill="white" stroke="#bfbfbf" points="266,-131.5 266,-150.5 352,-150.5 352,-131.5 266,-131.5"/>
<text text-anchor="middle" x="309" y="-138.5" font-family="Helvetica,sans-Serif" font-size="10.00">base_mutex_t</text>
</a>
</g>
</g>
<!-- Node14&#45;&gt;Node11 -->
<g id="edge16" class="edge">
<title>Node14&#45;&gt;Node11</title>
<path fill="none" stroke="#9a32cd" stroke-dasharray="5,2" d="M362.44,-131.41C402.77,-127.18 457.44,-128.74 493,-159 516.81,-179.26 489.27,-204.52 511,-227 514.73,-230.86 519.22,-233.94 524.05,-236.41"/>
<polygon fill="#9a32cd" stroke="#9a32cd" points="361.77,-127.96 352.26,-132.63 362.6,-134.91 361.77,-127.96"/>
<text text-anchor="middle" x="442.5" y="-162" font-family="Helvetica,sans-Serif" font-size="10.00"> inner_mtx</text>
</g>
<!-- Node15 -->
<g id="node15" class="node">
<title>Node15</title>
<g id="a_node15"><a xlink:href="structst__osal__device__info.html" target="_top" xlink:title=" ">
<polygon fill="white" stroke="black" points="252.5,-93.5 252.5,-112.5 365.5,-112.5 365.5,-93.5 252.5,-93.5"/>
<text text-anchor="middle" x="309" y="-100.5" font-family="Helvetica,sans-Serif" font-size="10.00">st_osal_device_info</text>
</a>
</g>
</g>
<!-- Node15&#45;&gt;Node11 -->
<g id="edge18" class="edge">
<title>Node15&#45;&gt;Node11</title>
<path fill="none" stroke="#9a32cd" stroke-dasharray="5,2" d="M356.4,-91.54C397.57,-84.37 456.64,-81.91 493,-115 530.28,-148.94 477.81,-189.05 511,-227 514.38,-230.87 518.53,-233.97 523.05,-236.44"/>
<polygon fill="#9a32cd" stroke="#9a32cd" points="355.52,-88.14 346.35,-93.44 356.83,-95.02 355.52,-88.14"/>
<text text-anchor="middle" x="442.5" y="-118" font-family="Helvetica,sans-Serif" font-size="10.00"> dev_info</text>
</g>
<!-- Node16 -->
<g id="node16" class="node">
<title>Node16</title>
<g id="a_node16"><a xlink:title=" ">
<polygon fill="white" stroke="#bfbfbf" points="18,-211.5 18,-230.5 116,-230.5 116,-211.5 18,-211.5"/>
<text text-anchor="middle" x="67" y="-218.5" font-family="Helvetica,sans-Serif" font-size="10.00">e_pma_hwa_id_t</text>
</a>
</g>
</g>
<!-- Node16&#45;&gt;Node15 -->
<g id="edge19" class="edge">
<title>Node16&#45;&gt;Node15</title>
<path fill="none" stroke="#9a32cd" stroke-dasharray="5,2" d="M126.13,-227.9C159.33,-228.53 199.49,-223.19 226,-199 251.96,-175.31 219.89,-147.57 244,-122 247.66,-118.12 252.07,-115.02 256.84,-112.55"/>
<polygon fill="#9a32cd" stroke="#9a32cd" points="126.2,-224.4 116.08,-227.53 125.94,-231.4 126.2,-224.4"/>
<text text-anchor="middle" x="189" y="-230" font-family="Helvetica,sans-Serif" font-size="10.00"> pm_id</text>
</g>
<!-- Node17 -->
<g id="node17" class="node">
<title>Node17</title>
<g id="a_node17"><a xlink:title=" ">
<polygon fill="white" stroke="#bfbfbf" points="48,-155.5 48,-174.5 86,-174.5 86,-155.5 48,-155.5"/>
<text text-anchor="middle" x="67" y="-162.5" font-family="Helvetica,sans-Serif" font-size="10.00">char</text>
</a>
</g>
</g>
<!-- Node17&#45;&gt;Node15 -->
<g id="edge20" class="edge">
<title>Node17&#45;&gt;Node15</title>
<path fill="none" stroke="#9a32cd" stroke-dasharray="5,2" d="M96.7,-166.9C129.88,-167.82 185.17,-165.32 226,-143 236.79,-137.1 233.69,-128.69 244,-122 249.93,-118.15 256.67,-115.06 263.49,-112.58"/>
<polygon fill="#9a32cd" stroke="#9a32cd" points="96.48,-163.39 86.34,-166.48 96.19,-170.38 96.48,-163.39"/>
<text text-anchor="middle" x="189" y="-190" font-family="Helvetica,sans-Serif" font-size="10.00"> axi_bus_name</text>
<text text-anchor="middle" x="189" y="-179" font-family="Helvetica,sans-Serif" font-size="10.00">id</text>
<text text-anchor="middle" x="189" y="-168" font-family="Helvetica,sans-Serif" font-size="10.00">type</text>
</g>
<!-- Node18 -->
<g id="node18" class="node">
<title>Node18</title>
<g id="a_node18"><a xlink:title=" ">
<polygon fill="white" stroke="#bfbfbf" points="44.5,-114.5 44.5,-133.5 89.5,-133.5 89.5,-114.5 44.5,-114.5"/>
<text text-anchor="middle" x="67" y="-121.5" font-family="Helvetica,sans-Serif" font-size="10.00">size_t</text>
</a>
</g>
</g>
<!-- Node18&#45;&gt;Node15 -->
<g id="edge21" class="edge">
<title>Node18&#45;&gt;Node15</title>
<path fill="none" stroke="#9a32cd" stroke-dasharray="5,2" d="M99.89,-121.21C138.66,-117.82 204.76,-112.03 252.07,-107.89"/>
<polygon fill="#9a32cd" stroke="#9a32cd" points="99.38,-117.74 89.72,-122.1 99.99,-124.71 99.38,-117.74"/>
<text text-anchor="middle" x="189" y="-131" font-family="Helvetica,sans-Serif" font-size="10.00"> irq_channels</text>
<text text-anchor="middle" x="189" y="-120" font-family="Helvetica,sans-Serif" font-size="10.00">range</text>
</g>
<!-- Node19 -->
<g id="node19" class="node">
<title>Node19</title>
<g id="a_node19"><a xlink:title=" ">
<polygon fill="white" stroke="#bfbfbf" points="0,-76.5 0,-95.5 134,-95.5 134,-76.5 0,-76.5"/>
<text text-anchor="middle" x="67" y="-83.5" font-family="Helvetica,sans-Serif" font-size="10.00">enum e_osal_pm_policy</text>
</a>
</g>
</g>
<!-- Node19&#45;&gt;Node15 -->
<g id="edge22" class="edge">
<title>Node19&#45;&gt;Node15</title>
<path fill="none" stroke="#9a32cd" stroke-dasharray="5,2" d="M144.41,-83.62C170.36,-83.57 199.49,-84.35 226,-87 239.42,-88.34 253.91,-90.82 266.93,-93.43"/>
<polygon fill="#9a32cd" stroke="#9a32cd" points="144.24,-80.12 134.26,-83.68 144.28,-87.12 144.24,-80.12"/>
<text text-anchor="middle" x="189" y="-90" font-family="Helvetica,sans-Serif" font-size="10.00"> initial_policy</text>
</g>
<!-- Node20 -->
<g id="node20" class="node">
<title>Node20</title>
<g id="a_node20"><a xlink:href="structst__osal__interrupt__info__t.html" target="_top" xlink:title=" ">
<polygon fill="white" stroke="black" points="1.5,-38.5 1.5,-57.5 132.5,-57.5 132.5,-38.5 1.5,-38.5"/>
<text text-anchor="middle" x="67" y="-45.5" font-family="Helvetica,sans-Serif" font-size="10.00">st_osal_interrupt_info_t</text>
</a>
</g>
</g>
<!-- Node20&#45;&gt;Node15 -->
<g id="edge23" class="edge">
<title>Node20&#45;&gt;Node15</title>
<path fill="none" stroke="#9a32cd" stroke-dasharray="5,2" d="M142.58,-53.87C169.2,-57.02 199.22,-61.8 226,-69 248.32,-75 272.64,-85.64 288.95,-93.43"/>
<polygon fill="#9a32cd" stroke="#9a32cd" points="142.89,-50.38 132.56,-52.74 142.1,-57.34 142.89,-50.38"/>
<text text-anchor="middle" x="189" y="-72" font-family="Helvetica,sans-Serif" font-size="10.00"> interrupt</text>
</g>
<!-- Node21 -->
<g id="node21" class="node">
<title>Node21</title>
<g id="a_node21"><a xlink:title=" ">
<polygon fill="white" stroke="#bfbfbf" points="38,-0.5 38,-19.5 96,-19.5 96,-0.5 38,-0.5"/>
<text text-anchor="middle" x="67" y="-7.5" font-family="Helvetica,sans-Serif" font-size="10.00">uintptr_t</text>
</a>
</g>
</g>
<!-- Node21&#45;&gt;Node15 -->
<g id="edge24" class="edge">
<title>Node21&#45;&gt;Node15</title>
<path fill="none" stroke="#9a32cd" stroke-dasharray="5,2" d="M106.4,-12.66C139.33,-16.06 187.43,-23.75 226,-41 255.33,-54.12 283.95,-79.44 298.36,-93.32"/>
<polygon fill="#9a32cd" stroke="#9a32cd" points="106.55,-9.16 96.27,-11.7 105.89,-16.13 106.55,-9.16"/>
<text text-anchor="middle" x="189" y="-44" font-family="Helvetica,sans-Serif" font-size="10.00"> address</text>
</g>
<!-- Node22 -->
<g id="node22" class="node">
<title>Node22</title>
<g id="a_node22"><a xlink:title=" ">
<polygon fill="white" stroke="#bfbfbf" points="552,-198.5 552,-217.5 598,-217.5 598,-198.5 552,-198.5"/>
<text text-anchor="middle" x="575" y="-205.5" font-family="Helvetica,sans-Serif" font-size="10.00">void *</text>
</a>
</g>
</g>
<!-- Node22&#45;&gt;Node1 -->
<g id="edge26" class="edge">
<title>Node22&#45;&gt;Node1</title>
<path fill="none" stroke="#9a32cd" stroke-dasharray="5,2" d="M608.23,-205.57C647.99,-203.9 716.71,-205.44 769,-230 805.36,-247.08 836.06,-285.58 848.97,-303.5"/>
<polygon fill="#9a32cd" stroke="#9a32cd" points="607.87,-202.08 598.06,-206.09 608.23,-209.07 607.87,-202.08"/>
<text text-anchor="middle" x="713" y="-233" font-family="Helvetica,sans-Serif" font-size="10.00"> DiscomCbArg</text>
</g>
</g>
</svg>
