<?xml version="1.0" encoding="UTF-8" standalone="no"?>
<!DOCTYPE svg PUBLIC "-//W3C//DTD SVG 1.1//EN"
 "http://www.w3.org/Graphics/SVG/1.1/DTD/svg11.dtd">
<!-- Generated by graphviz version 2.43.0 (0)
 -->
<!-- Title: st_imrdrv_os_config_t Pages: 1 -->
<svg width="295pt" height="106pt"
 viewBox="0.00 0.00 295.00 106.00" xmlns="http://www.w3.org/2000/svg" xmlns:xlink="http://www.w3.org/1999/xlink">
<g id="graph0" class="graph" transform="scale(1 1) rotate(0) translate(4 102)">
<title>st_imrdrv_os_config_t</title>
<polygon fill="white" stroke="transparent" points="-4,4 -4,-102 291,-102 291,4 -4,4"/>
<!-- Node1 -->
<g id="node1" class="node">
<title>Node1</title>
<g id="a_node1"><a xlink:title=" ">
<polygon fill="#bfbfbf" stroke="black" points="38.5,-0.5 38.5,-19.5 161.5,-19.5 161.5,-0.5 38.5,-0.5"/>
<text text-anchor="middle" x="100" y="-7.5" font-family="Helvetica,sans-Serif" font-size="10.00">st_imrdrv_os_config_t</text>
</a>
</g>
</g>
<!-- Node2 -->
<g id="node2" class="node">
<title>Node2</title>
<g id="a_node2"><a xlink:title=" ">
<polygon fill="white" stroke="#bfbfbf" points="0,-73 0,-92 56,-92 56,-73 0,-73"/>
<text text-anchor="middle" x="28" y="-80" font-family="Helvetica,sans-Serif" font-size="10.00">uint64_t</text>
</a>
</g>
</g>
<!-- Node2&#45;&gt;Node1 -->
<g id="edge1" class="edge">
<title>Node2&#45;&gt;Node1</title>
<path fill="none" stroke="#9a32cd" stroke-dasharray="5,2" d="M32.89,-63.1C35.87,-54.66 40.4,-45 47,-38 54.58,-29.96 65.08,-23.92 74.74,-19.62"/>
<polygon fill="#9a32cd" stroke="#9a32cd" points="29.49,-62.26 29.92,-72.84 36.19,-64.3 29.49,-62.26"/>
<text text-anchor="middle" x="71.5" y="-41" font-family="Helvetica,sans-Serif" font-size="10.00"> mutex_id</text>
</g>
<!-- Node3 -->
<g id="node3" class="node">
<title>Node3</title>
<g id="a_node3"><a xlink:title=" ">
<polygon fill="white" stroke="#bfbfbf" points="75,-73 75,-92 125,-92 125,-73 75,-73"/>
<text text-anchor="middle" x="100" y="-80" font-family="Helvetica,sans-Serif" font-size="10.00">int64_t</text>
</a>
</g>
</g>
<!-- Node3&#45;&gt;Node1 -->
<g id="edge2" class="edge">
<title>Node3&#45;&gt;Node1</title>
<path fill="none" stroke="#9a32cd" stroke-dasharray="5,2" d="M100,-62.44C100,-48.53 100,-30.32 100,-19.72"/>
<polygon fill="#9a32cd" stroke="#9a32cd" points="96.5,-62.86 100,-72.86 103.5,-62.86 96.5,-62.86"/>
<text text-anchor="middle" x="148.5" y="-41" font-family="Helvetica,sans-Serif" font-size="10.00"> mutex_wait_period</text>
</g>
<!-- Node4 -->
<g id="node4" class="node">
<title>Node4</title>
<g id="a_node4"><a xlink:title=" ">
<polygon fill="white" stroke="#bfbfbf" points="157,-67.5 157,-97.5 283,-97.5 283,-67.5 157,-67.5"/>
<text text-anchor="start" x="165" y="-85.5" font-family="Helvetica,sans-Serif" font-size="10.00">enum e_osal_interrupt</text>
<text text-anchor="middle" x="220" y="-74.5" font-family="Helvetica,sans-Serif" font-size="10.00">_priority</text>
</a>
</g>
</g>
<!-- Node4&#45;&gt;Node1 -->
<g id="edge3" class="edge">
<title>Node4&#45;&gt;Node1</title>
<path fill="none" stroke="#9a32cd" stroke-dasharray="5,2" d="M212.36,-57.85C208.98,-50.59 204.3,-43.16 198,-38 187.48,-29.4 174.43,-23.52 161.31,-19.52"/>
<polygon fill="#9a32cd" stroke="#9a32cd" points="209.22,-59.44 216.19,-67.42 215.72,-56.84 209.22,-59.44"/>
<text text-anchor="middle" x="247" y="-41" font-family="Helvetica,sans-Serif" font-size="10.00"> dev_irq_priority</text>
</g>
</g>
</svg>
