<?xml version="1.0" encoding="UTF-8" standalone="no"?>
<!DOCTYPE svg PUBLIC "-//W3C//DTD SVG 1.1//EN"
 "http://www.w3.org/Graphics/SVG/1.1/DTD/svg11.dtd">
<!-- Generated by graphviz version 2.43.0 (0)
 -->
<!-- Title: st_imrdrv_attr_mipmap_unit_t Pages: 1 -->
<svg width="235pt" height="195pt"
 viewBox="0.00 0.00 235.00 195.00" xmlns="http://www.w3.org/2000/svg" xmlns:xlink="http://www.w3.org/1999/xlink">
<g id="graph0" class="graph" transform="scale(1 1) rotate(0) translate(4 191)">
<title>st_imrdrv_attr_mipmap_unit_t</title>
<polygon fill="white" stroke="transparent" points="-4,4 -4,-191 231,-191 231,4 -4,4"/>
<!-- Node1 -->
<g id="node1" class="node">
<title>Node1</title>
<g id="a_node1"><a xlink:title=" ">
<polygon fill="#bfbfbf" stroke="black" points="0,-0.5 0,-30.5 131,-30.5 131,-0.5 0,-0.5"/>
<text text-anchor="start" x="8" y="-18.5" font-family="Helvetica,sans-Serif" font-size="10.00">st_imrdrv_attr_mipmap</text>
<text text-anchor="middle" x="65.5" y="-7.5" font-family="Helvetica,sans-Serif" font-size="10.00">_unit_t</text>
</a>
</g>
</g>
<!-- Node2 -->
<g id="node2" class="node">
<title>Node2</title>
<g id="a_node2"><a xlink:href="structst__imrdrv__attr__mipmap__unit__ex__t.html" target="_top" xlink:title=" ">
<polygon fill="white" stroke="black" points="96,-78.5 96,-108.5 227,-108.5 227,-78.5 96,-78.5"/>
<text text-anchor="start" x="104" y="-96.5" font-family="Helvetica,sans-Serif" font-size="10.00">st_imrdrv_attr_mipmap</text>
<text text-anchor="middle" x="161.5" y="-85.5" font-family="Helvetica,sans-Serif" font-size="10.00">_unit_ex_t</text>
</a>
</g>
</g>
<!-- Node2&#45;&gt;Node1 -->
<g id="edge1" class="edge">
<title>Node2&#45;&gt;Node1</title>
<path fill="none" stroke="#9a32cd" stroke-dasharray="5,2" d="M135.29,-71.75C118.85,-58.73 98.07,-42.28 83.48,-30.73"/>
<polygon fill="#9a32cd" stroke="#9a32cd" points="133.43,-74.74 143.44,-78.2 137.78,-69.25 133.43,-74.74"/>
<text text-anchor="middle" x="147.5" y="-52" font-family="Helvetica,sans-Serif" font-size="10.00"> extend_set</text>
</g>
<!-- Node3 -->
<g id="node3" class="node">
<title>Node3</title>
<g id="a_node3"><a xlink:title=" ">
<polygon fill="white" stroke="#bfbfbf" points="11.5,-167.5 11.5,-186.5 67.5,-186.5 67.5,-167.5 11.5,-167.5"/>
<text text-anchor="middle" x="39.5" y="-174.5" font-family="Helvetica,sans-Serif" font-size="10.00">uint32_t</text>
</a>
</g>
</g>
<!-- Node3&#45;&gt;Node1 -->
<g id="edge3" class="edge">
<title>Node3&#45;&gt;Node1</title>
<path fill="none" stroke="#9a32cd" stroke-dasharray="5,2" d="M35.14,-157.56C31.18,-137.64 26.87,-105.12 33.5,-78 37.73,-60.7 47.77,-42.85 55.48,-30.86"/>
<polygon fill="#9a32cd" stroke="#9a32cd" points="31.75,-158.43 37.3,-167.46 38.59,-156.94 31.75,-158.43"/>
<text text-anchor="middle" x="60.5" y="-96.5" font-family="Helvetica,sans-Serif" font-size="10.00"> phys_addr</text>
<text text-anchor="middle" x="60.5" y="-85.5" font-family="Helvetica,sans-Serif" font-size="10.00">stride</text>
</g>
<!-- Node3&#45;&gt;Node2 -->
<g id="edge2" class="edge">
<title>Node3&#45;&gt;Node2</title>
<path fill="none" stroke="#9a32cd" stroke-dasharray="5,2" d="M61.03,-161.62C83.4,-146.67 118.19,-123.44 140.4,-108.6"/>
<polygon fill="#9a32cd" stroke="#9a32cd" points="58.93,-158.81 52.56,-167.28 62.82,-164.63 58.93,-158.81"/>
<text text-anchor="middle" x="137.5" y="-141" font-family="Helvetica,sans-Serif" font-size="10.00"> phys_addr</text>
<text text-anchor="middle" x="137.5" y="-130" font-family="Helvetica,sans-Serif" font-size="10.00">stride</text>
</g>
</g>
</svg>
