<?xml version="1.0" encoding="UTF-8" standalone="no"?>
<!DOCTYPE svg PUBLIC "-//W3C//DTD SVG 1.1//EN"
 "http://www.w3.org/Graphics/SVG/1.1/DTD/svg11.dtd">
<!-- Generated by graphviz version 2.43.0 (0)
 -->
<!-- Title: taurus_camera_ioc_channel_init_in Pages: 1 -->
<svg width="284pt" height="184pt"
 viewBox="0.00 0.00 283.50 184.00" xmlns="http://www.w3.org/2000/svg" xmlns:xlink="http://www.w3.org/1999/xlink">
<g id="graph0" class="graph" transform="scale(1 1) rotate(0) translate(4 180)">
<title>taurus_camera_ioc_channel_init_in</title>
<polygon fill="white" stroke="transparent" points="-4,4 -4,-180 279.5,-180 279.5,4 -4,4"/>
<!-- Node1 -->
<g id="node1" class="node">
<title>Node1</title>
<g id="a_node1"><a xlink:title=" ">
<polygon fill="#bfbfbf" stroke="black" points="16,-0.5 16,-30.5 168,-30.5 168,-0.5 16,-0.5"/>
<text text-anchor="start" x="24" y="-18.5" font-family="Helvetica,sans-Serif" font-size="10.00">taurus_camera_ioc_channel</text>
<text text-anchor="middle" x="92" y="-7.5" font-family="Helvetica,sans-Serif" font-size="10.00">_init_in</text>
</a>
</g>
</g>
<!-- Node2 -->
<g id="node2" class="node">
<title>Node2</title>
<g id="a_node2"><a xlink:title=" ">
<polygon fill="white" stroke="#bfbfbf" points="0,-78.5 0,-97.5 56,-97.5 56,-78.5 0,-78.5"/>
<text text-anchor="middle" x="28" y="-85.5" font-family="Helvetica,sans-Serif" font-size="10.00">uint64_t</text>
</a>
</g>
</g>
<!-- Node2&#45;&gt;Node1 -->
<g id="edge1" class="edge">
<title>Node2&#45;&gt;Node1</title>
<path fill="none" stroke="#9a32cd" stroke-dasharray="5,2" d="M32.14,-68.7C34.29,-62.01 37.45,-54.7 42,-49 47.81,-41.72 55.72,-35.54 63.53,-30.59"/>
<polygon fill="#9a32cd" stroke="#9a32cd" points="28.76,-67.81 29.54,-78.37 35.52,-69.63 28.76,-67.81"/>
<text text-anchor="middle" x="60" y="-52" font-family="Helvetica,sans-Serif" font-size="10.00"> cookie</text>
</g>
<!-- Node3 -->
<g id="node3" class="node">
<title>Node3</title>
<g id="a_node3"><a xlink:href="structtaurus__camera__buffer.html" target="_top" xlink:title=" ">
<polygon fill="white" stroke="black" points="152.5,-78.5 152.5,-97.5 275.5,-97.5 275.5,-78.5 152.5,-78.5"/>
<text text-anchor="middle" x="214" y="-85.5" font-family="Helvetica,sans-Serif" font-size="10.00">taurus_camera_buffer</text>
</a>
</g>
</g>
<!-- Node3&#45;&gt;Node1 -->
<g id="edge2" class="edge">
<title>Node3&#45;&gt;Node1</title>
<path fill="none" stroke="#9a32cd" stroke-dasharray="5,2" d="M190.3,-73.3C169,-60.99 137.86,-43 116.36,-30.58"/>
<polygon fill="#9a32cd" stroke="#9a32cd" points="188.63,-76.38 199.04,-78.36 192.13,-70.32 188.63,-76.38"/>
<text text-anchor="middle" x="179" y="-52" font-family="Helvetica,sans-Serif" font-size="10.00"> buffer</text>
</g>
<!-- Node4 -->
<g id="node4" class="node">
<title>Node4</title>
<g id="a_node4"><a xlink:title=" ">
<polygon fill="white" stroke="#bfbfbf" points="80,-156.5 80,-175.5 136,-175.5 136,-156.5 80,-156.5"/>
<text text-anchor="middle" x="108" y="-163.5" font-family="Helvetica,sans-Serif" font-size="10.00">uint32_t</text>
</a>
</g>
</g>
<!-- Node4&#45;&gt;Node1 -->
<g id="edge4" class="edge">
<title>Node4&#45;&gt;Node1</title>
<path fill="none" stroke="#9a32cd" stroke-dasharray="5,2" d="M105.97,-146.13C102.73,-116.07 96.47,-57.96 93.56,-30.95"/>
<polygon fill="#9a32cd" stroke="#9a32cd" points="102.5,-146.59 107.05,-156.16 109.46,-145.84 102.5,-146.59"/>
<text text-anchor="middle" x="122" y="-85.5" font-family="Helvetica,sans-Serif" font-size="10.00"> channel</text>
</g>
<!-- Node4&#45;&gt;Node3 -->
<g id="edge3" class="edge">
<title>Node4&#45;&gt;Node3</title>
<path fill="none" stroke="#9a32cd" stroke-dasharray="5,2" d="M128.42,-150.36C150.24,-134.72 184.1,-110.44 201.98,-97.62"/>
<polygon fill="#9a32cd" stroke="#9a32cd" points="126.25,-147.61 120.16,-156.28 130.33,-153.3 126.25,-147.61"/>
<text text-anchor="middle" x="194" y="-130" font-family="Helvetica,sans-Serif" font-size="10.00"> address</text>
<text text-anchor="middle" x="194" y="-119" font-family="Helvetica,sans-Serif" font-size="10.00">index</text>
</g>
</g>
</svg>
