<?xml version="1.0" encoding="UTF-8" standalone="no"?>
<!DOCTYPE svg PUBLIC "-//W3C//DTD SVG 1.1//EN"
 "http://www.w3.org/Graphics/SVG/1.1/DTD/svg11.dtd">
<!-- Generated by graphviz version 2.43.0 (0)
 -->
<!-- Title: STag_Eth_MacConfigType Pages: 1 -->
<svg width="385pt" height="272pt"
 viewBox="0.00 0.00 385.00 272.00" xmlns="http://www.w3.org/2000/svg" xmlns:xlink="http://www.w3.org/1999/xlink">
<g id="graph0" class="graph" transform="scale(1 1) rotate(0) translate(4 268)">
<title>STag_Eth_MacConfigType</title>
<polygon fill="white" stroke="transparent" points="-4,4 -4,-268 381,-268 381,4 -4,4"/>
<!-- Node1 -->
<g id="node1" class="node">
<title>Node1</title>
<g id="a_node1"><a xlink:title=" ">
<polygon fill="#bfbfbf" stroke="black" points="101,-0.5 101,-19.5 240,-19.5 240,-0.5 101,-0.5"/>
<text text-anchor="middle" x="170.5" y="-7.5" font-family="Helvetica,sans-Serif" font-size="10.00">STag_Eth_MacConfigType</text>
</a>
</g>
</g>
<!-- Node2 -->
<g id="node2" class="node">
<title>Node2</title>
<g id="a_node2"><a xlink:title=" ">
<polygon fill="white" stroke="#bfbfbf" points="0,-67.5 0,-86.5 85,-86.5 85,-67.5 0,-67.5"/>
<text text-anchor="middle" x="42.5" y="-74.5" font-family="Helvetica,sans-Serif" font-size="10.00">unsigned long</text>
</a>
</g>
</g>
<!-- Node2&#45;&gt;Node1 -->
<g id="edge1" class="edge">
<title>Node2&#45;&gt;Node1</title>
<path fill="none" stroke="#9a32cd" stroke-dasharray="5,2" d="M59.9,-60.96C69.37,-53.33 81.56,-44.35 93.5,-38 107.88,-30.35 124.88,-24.12 139.24,-19.59"/>
<polygon fill="#9a32cd" stroke="#9a32cd" points="57.51,-58.39 52.06,-67.48 61.98,-63.78 57.51,-58.39"/>
<text text-anchor="middle" x="130" y="-41" font-family="Helvetica,sans-Serif" font-size="10.00"> MaxFrameLen</text>
</g>
<!-- Node3 -->
<g id="node3" class="node">
<title>Node3</title>
<g id="a_node3"><a xlink:href="structSTag__Eth__MacModeType.html" target="_top" xlink:title=" ">
<polygon fill="white" stroke="black" points="103,-67.5 103,-86.5 238,-86.5 238,-67.5 103,-67.5"/>
<text text-anchor="middle" x="170.5" y="-74.5" font-family="Helvetica,sans-Serif" font-size="10.00">STag_Eth_MacModeType</text>
</a>
</g>
</g>
<!-- Node3&#45;&gt;Node1 -->
<g id="edge2" class="edge">
<title>Node3&#45;&gt;Node1</title>
<path fill="none" stroke="#9a32cd" stroke-dasharray="5,2" d="M170.5,-57.04C170.5,-44.67 170.5,-29.12 170.5,-19.63"/>
<polygon fill="#9a32cd" stroke="#9a32cd" points="167,-57.23 170.5,-67.23 174,-57.23 167,-57.23"/>
<text text-anchor="middle" x="198.5" y="-41" font-family="Helvetica,sans-Serif" font-size="10.00"> Mac_Mode</text>
</g>
<!-- Node4 -->
<g id="node4" class="node">
<title>Node4</title>
<g id="a_node4"><a xlink:title=" ">
<polygon fill="white" stroke="#bfbfbf" points="223.5,-244.5 223.5,-263.5 261.5,-263.5 261.5,-244.5 223.5,-244.5"/>
<text text-anchor="middle" x="242.5" y="-251.5" font-family="Helvetica,sans-Serif" font-size="10.00">char</text>
</a>
</g>
</g>
<!-- Node4&#45;&gt;Node3 -->
<g id="edge3" class="edge">
<title>Node4&#45;&gt;Node3</title>
<path fill="none" stroke="#9a32cd" stroke-dasharray="5,2" d="M217.4,-238.48C212.89,-234.9 208.63,-230.72 205.5,-226 175.11,-180.25 171,-111.14 170.53,-86.83"/>
<polygon fill="#9a32cd" stroke="#9a32cd" points="215.42,-241.37 225.61,-244.26 219.45,-235.64 215.42,-241.37"/>
<text text-anchor="middle" x="244" y="-218" font-family="Helvetica,sans-Serif" font-size="10.00"> DPad</text>
<text text-anchor="middle" x="244" y="-207" font-family="Helvetica,sans-Serif" font-size="10.00">Duplex</text>
<text text-anchor="middle" x="244" y="-196" font-family="Helvetica,sans-Serif" font-size="10.00">MagicDection</text>
<text text-anchor="middle" x="244" y="-185" font-family="Helvetica,sans-Serif" font-size="10.00">PFrameRxMode</text>
<text text-anchor="middle" x="244" y="-174" font-family="Helvetica,sans-Serif" font-size="10.00">Re</text>
<text text-anchor="middle" x="244" y="-163" font-family="Helvetica,sans-Serif" font-size="10.00">RxCrcMode</text>
<text text-anchor="middle" x="244" y="-152" font-family="Helvetica,sans-Serif" font-size="10.00">RxFlowCtrl</text>
<text text-anchor="middle" x="244" y="-141" font-family="Helvetica,sans-Serif" font-size="10.00">Speed</text>
<text text-anchor="middle" x="244" y="-130" font-family="Helvetica,sans-Serif" font-size="10.00">Te</text>
<text text-anchor="middle" x="244" y="-119" font-family="Helvetica,sans-Serif" font-size="10.00">TxFlowCtrl</text>
<text text-anchor="middle" x="244" y="-108" font-family="Helvetica,sans-Serif" font-size="10.00">...</text>
</g>
<!-- Node5 -->
<g id="node5" class="node">
<title>Node5</title>
<g id="a_node5"><a xlink:href="structSTag__Eth__MacIntType.html" target="_top" xlink:title=" ">
<polygon fill="white" stroke="black" points="256,-67.5 256,-86.5 377,-86.5 377,-67.5 256,-67.5"/>
<text text-anchor="middle" x="316.5" y="-74.5" font-family="Helvetica,sans-Serif" font-size="10.00">STag_Eth_MacIntType</text>
</a>
</g>
</g>
<!-- Node4&#45;&gt;Node5 -->
<g id="edge5" class="edge">
<title>Node4&#45;&gt;Node5</title>
<path fill="none" stroke="#9a32cd" stroke-dasharray="5,2" d="M269.91,-238.61C274.69,-235.05 279.18,-230.84 282.5,-226 313.68,-180.57 316.61,-110.67 316.64,-86.54"/>
<polygon fill="#9a32cd" stroke="#9a32cd" points="267.63,-235.92 261.19,-244.33 271.47,-241.77 267.63,-235.92"/>
<text text-anchor="middle" x="332.5" y="-185" font-family="Helvetica,sans-Serif" font-size="10.00"> Icdip</text>
<text text-anchor="middle" x="332.5" y="-174" font-family="Helvetica,sans-Serif" font-size="10.00">Linkim</text>
<text text-anchor="middle" x="332.5" y="-163" font-family="Helvetica,sans-Serif" font-size="10.00">Mpdip</text>
<text text-anchor="middle" x="332.5" y="-152" font-family="Helvetica,sans-Serif" font-size="10.00">Pfrim</text>
<text text-anchor="middle" x="332.5" y="-141" font-family="Helvetica,sans-Serif" font-size="10.00">Phyim</text>
</g>
<!-- Node5&#45;&gt;Node1 -->
<g id="edge4" class="edge">
<title>Node5&#45;&gt;Node1</title>
<path fill="none" stroke="#9a32cd" stroke-dasharray="5,2" d="M287.93,-63.28C259.02,-50.41 215.1,-30.85 189.97,-19.67"/>
<polygon fill="#9a32cd" stroke="#9a32cd" points="286.55,-66.5 297.11,-67.37 289.4,-60.1 286.55,-66.5"/>
<text text-anchor="middle" x="289" y="-41" font-family="Helvetica,sans-Serif" font-size="10.00"> Mac_Int_Mask</text>
</g>
</g>
</svg>
