<?xml version="1.0" encoding="UTF-8" standalone="no"?>
<!DOCTYPE svg PUBLIC "-//W3C//DTD SVG 1.1//EN"
 "http://www.w3.org/Graphics/SVG/1.1/DTD/svg11.dtd">
<!-- Generated by graphviz version 2.43.0 (0)
 -->
<!-- Title: st_osal_rcfg_mq_config Pages: 1 -->
<svg width="196pt" height="173pt"
 viewBox="0.00 0.00 196.00 173.00" xmlns="http://www.w3.org/2000/svg" xmlns:xlink="http://www.w3.org/1999/xlink">
<g id="graph0" class="graph" transform="scale(1 1) rotate(0) translate(4 169)">
<title>st_osal_rcfg_mq_config</title>
<polygon fill="white" stroke="transparent" points="-4,4 -4,-169 192,-169 192,4 -4,4"/>
<!-- Node1 -->
<g id="node1" class="node">
<title>Node1</title>
<g id="a_node1"><a xlink:title=" ">
<polygon fill="#bfbfbf" stroke="black" points="0,-0.5 0,-19.5 131,-19.5 131,-0.5 0,-0.5"/>
<text text-anchor="middle" x="65.5" y="-7.5" font-family="Helvetica,sans-Serif" font-size="10.00">st_osal_rcfg_mq_config</text>
</a>
</g>
</g>
<!-- Node2 -->
<g id="node2" class="node">
<title>Node2</title>
<g id="a_node2"><a xlink:title=" ">
<polygon fill="white" stroke="#bfbfbf" points="37.5,-145.5 37.5,-164.5 93.5,-164.5 93.5,-145.5 37.5,-145.5"/>
<text text-anchor="middle" x="65.5" y="-152.5" font-family="Helvetica,sans-Serif" font-size="10.00">uint64_t</text>
</a>
</g>
</g>
<!-- Node2&#45;&gt;Node1 -->
<g id="edge1" class="edge">
<title>Node2&#45;&gt;Node1</title>
<path fill="none" stroke="#9a32cd" stroke-dasharray="5,2" d="M62.89,-135.29C60.74,-117.68 58.24,-90.56 59.5,-67 60.4,-50.21 62.8,-30.7 64.28,-19.71"/>
<polygon fill="#9a32cd" stroke="#9a32cd" points="59.44,-135.9 64.2,-145.36 66.38,-134.99 59.44,-135.9"/>
<text text-anchor="middle" x="66" y="-74.5" font-family="Helvetica,sans-Serif" font-size="10.00"> id</text>
</g>
<!-- Node3 -->
<g id="node3" class="node">
<title>Node3</title>
<g id="a_node3"><a xlink:href="structst__osal__mq__config.html" target="_top" xlink:title="configuration of message queue.">
<polygon fill="white" stroke="black" points="81,-67.5 81,-86.5 188,-86.5 188,-67.5 81,-67.5"/>
<text text-anchor="middle" x="134.5" y="-74.5" font-family="Helvetica,sans-Serif" font-size="10.00">st_osal_mq_config</text>
</a>
</g>
</g>
<!-- Node2&#45;&gt;Node3 -->
<g id="edge3" class="edge">
<title>Node2&#45;&gt;Node3</title>
<path fill="none" stroke="#9a32cd" stroke-dasharray="5,2" d="M80.14,-137.88C94.36,-122.22 115.4,-99.04 126.68,-86.62"/>
<polygon fill="#9a32cd" stroke="#9a32cd" points="77.55,-135.53 73.42,-145.28 82.73,-140.23 77.55,-135.53"/>
<text text-anchor="middle" x="147" y="-119" font-family="Helvetica,sans-Serif" font-size="10.00"> max_num_msg</text>
<text text-anchor="middle" x="147" y="-108" font-family="Helvetica,sans-Serif" font-size="10.00">msg_size</text>
</g>
<!-- Node3&#45;&gt;Node1 -->
<g id="edge2" class="edge">
<title>Node3&#45;&gt;Node1</title>
<path fill="none" stroke="#9a32cd" stroke-dasharray="5,2" d="M117.89,-60.36C104.33,-47.58 85.66,-29.99 74.66,-19.63"/>
<polygon fill="#9a32cd" stroke="#9a32cd" points="115.52,-62.92 125.19,-67.23 120.32,-57.83 115.52,-62.92"/>
<text text-anchor="middle" x="120" y="-41" font-family="Helvetica,sans-Serif" font-size="10.00"> config</text>
</g>
</g>
</svg>
