<?xml version="1.0" encoding="UTF-8" standalone="no"?>
<!DOCTYPE svg PUBLIC "-//W3C//DTD SVG 1.1//EN"
 "http://www.w3.org/Graphics/SVG/1.1/DTD/svg11.dtd">
<!-- Generated by graphviz version 2.43.0 (0)
 -->
<!-- Title: r_wmdrv_VOutInstance_t Pages: 1 -->
<svg width="750pt" height="585pt"
 viewBox="0.00 0.00 750.00 584.97" xmlns="http://www.w3.org/2000/svg" xmlns:xlink="http://www.w3.org/1999/xlink">
<g id="graph0" class="graph" transform="scale(1 1) rotate(0) translate(4 580.97)">
<title>r_wmdrv_VOutInstance_t</title>
<polygon fill="white" stroke="transparent" points="-4,4 -4,-580.97 746,-580.97 746,4 -4,4"/>
<!-- Node1 -->
<g id="node1" class="node">
<title>Node1</title>
<g id="a_node1"><a xlink:title=" ">
<polygon fill="#bfbfbf" stroke="black" points="603,-155.47 603,-174.47 742,-174.47 742,-155.47 603,-155.47"/>
<text text-anchor="middle" x="672.5" y="-162.47" font-family="Helvetica,sans-Serif" font-size="10.00">r_wmdrv_VOutInstance_t</text>
</a>
</g>
</g>
<!-- Node2 -->
<g id="node2" class="node">
<title>Node2</title>
<g id="a_node2"><a xlink:title=" ">
<polygon fill="white" stroke="#bfbfbf" points="383,-446.47 383,-465.47 486,-465.47 486,-446.47 383,-446.47"/>
<text text-anchor="middle" x="434.5" y="-453.47" font-family="Helvetica,sans-Serif" font-size="10.00">r_wm_ColorFmt_t</text>
</a>
</g>
</g>
<!-- Node2&#45;&gt;Node1 -->
<g id="edge1" class="edge">
<title>Node2&#45;&gt;Node1</title>
<path fill="none" stroke="#9a32cd" stroke-dasharray="5,2" d="M487.29,-442.65C491.02,-440.97 494.64,-439.08 498,-436.97 603.38,-370.97 656.47,-214.89 668.71,-174.6"/>
<polygon fill="#9a32cd" stroke="#9a32cd" points="485.83,-439.47 477.85,-446.44 488.44,-445.96 485.83,-439.47"/>
<text text-anchor="middle" x="550.5" y="-424.97" font-family="Helvetica,sans-Serif" font-size="10.00"> ColorFmt</text>
</g>
<!-- Node3 -->
<g id="node3" class="node">
<title>Node3</title>
<g id="a_node3"><a xlink:href="structst__osal__mutex__control.html" target="_top" xlink:title="control of mutex (Defined in OSAL Wrapper implementation files).">
<polygon fill="white" stroke="black" points="371,-408.47 371,-427.47 498,-427.47 498,-408.47 371,-408.47"/>
<text text-anchor="middle" x="434.5" y="-415.47" font-family="Helvetica,sans-Serif" font-size="10.00">st_osal_mutex_control</text>
</a>
</g>
</g>
<!-- Node3&#45;&gt;Node1 -->
<g id="edge2" class="edge">
<title>Node3&#45;&gt;Node1</title>
<path fill="none" stroke="#9a32cd" stroke-dasharray="5,2" d="M451.51,-400.81C497.2,-351.83 627.17,-212.49 662.53,-174.59"/>
<polygon fill="#9a32cd" stroke="#9a32cd" points="448.73,-398.66 444.46,-408.36 453.84,-403.44 448.73,-398.66"/>
<text text-anchor="middle" x="550.5" y="-330.97" font-family="Helvetica,sans-Serif" font-size="10.00"> MutexHandle</text>
</g>
<!-- Node4 -->
<g id="node4" class="node">
<title>Node4</title>
<g id="a_node4"><a xlink:title=" ">
<polygon fill="white" stroke="#bfbfbf" points="0,-447.47 0,-466.47 56,-466.47 56,-447.47 0,-447.47"/>
<text text-anchor="middle" x="28" y="-454.47" font-family="Helvetica,sans-Serif" font-size="10.00">uint64_t</text>
</a>
</g>
</g>
<!-- Node4&#45;&gt;Node3 -->
<g id="edge3" class="edge">
<title>Node4&#45;&gt;Node3</title>
<path fill="none" stroke="#9a32cd" stroke-dasharray="5,2" d="M66.42,-457.37C85.21,-457.37 108.32,-457.08 129,-455.97 228.94,-450.64 254.01,-447.68 353,-432.97 363.55,-431.41 374.82,-429.47 385.5,-427.52"/>
<polygon fill="#9a32cd" stroke="#9a32cd" points="66.19,-453.87 56.18,-457.34 66.17,-460.87 66.19,-453.87"/>
<text text-anchor="middle" x="205" y="-456.97" font-family="Helvetica,sans-Serif" font-size="10.00"> handle_id</text>
</g>
<!-- Node5 -->
<g id="node5" class="node">
<title>Node5</title>
<g id="a_node5"><a xlink:href="structst__osal__rcfg__mutex__config.html" target="_top" xlink:title=" ">
<polygon fill="white" stroke="black" points="149,-402.97 149,-432.97 261,-432.97 261,-402.97 149,-402.97"/>
<text text-anchor="start" x="157" y="-420.97" font-family="Helvetica,sans-Serif" font-size="10.00">st_osal_rcfg_mutex</text>
<text text-anchor="middle" x="205" y="-409.97" font-family="Helvetica,sans-Serif" font-size="10.00">_config</text>
</a>
</g>
</g>
<!-- Node4&#45;&gt;Node5 -->
<g id="edge5" class="edge">
<title>Node4&#45;&gt;Node5</title>
<path fill="none" stroke="#9a32cd" stroke-dasharray="5,2" d="M65.91,-446.95C68.64,-446.27 71.36,-445.6 74,-444.97 98.45,-439.18 125.65,-433.42 148.82,-428.73"/>
<polygon fill="#9a32cd" stroke="#9a32cd" points="64.87,-443.61 56.07,-449.49 66.62,-450.38 64.87,-443.61"/>
<text text-anchor="middle" x="101.5" y="-447.97" font-family="Helvetica,sans-Serif" font-size="10.00"> id</text>
</g>
<!-- Node5&#45;&gt;Node3 -->
<g id="edge4" class="edge">
<title>Node5&#45;&gt;Node3</title>
<path fill="none" stroke="#9a32cd" stroke-dasharray="5,2" d="M271.43,-417.97C302.72,-417.97 339.99,-417.97 370.9,-417.97"/>
<polygon fill="#9a32cd" stroke="#9a32cd" points="271.07,-414.47 261.07,-417.97 271.07,-421.47 271.07,-414.47"/>
<text text-anchor="middle" x="317" y="-420.97" font-family="Helvetica,sans-Serif" font-size="10.00"> usr_config</text>
</g>
<!-- Node6 -->
<g id="node6" class="node">
<title>Node6</title>
<g id="a_node6"><a xlink:title=" ">
<polygon fill="white" stroke="#bfbfbf" points="180,-364.47 180,-383.47 230,-383.47 230,-364.47 180,-364.47"/>
<text text-anchor="middle" x="205" y="-371.47" font-family="Helvetica,sans-Serif" font-size="10.00">int64_t</text>
</a>
</g>
</g>
<!-- Node6&#45;&gt;Node3 -->
<g id="edge6" class="edge">
<title>Node6&#45;&gt;Node3</title>
<path fill="none" stroke="#9a32cd" stroke-dasharray="5,2" d="M240.48,-380.64C278.75,-388.04 340.86,-400.05 384.25,-408.45"/>
<polygon fill="#9a32cd" stroke="#9a32cd" points="240.83,-377.14 230.35,-378.68 239.5,-384.02 240.83,-377.14"/>
<text text-anchor="middle" x="317" y="-403.97" font-family="Helvetica,sans-Serif" font-size="10.00"> inner_timeout</text>
</g>
<!-- Node7 -->
<g id="node7" class="node">
<title>Node7</title>
<g id="a_node7"><a xlink:title=" ">
<polygon fill="white" stroke="#bfbfbf" points="186,-541.47 186,-560.47 224,-560.47 224,-541.47 186,-541.47"/>
<text text-anchor="middle" x="205" y="-548.47" font-family="Helvetica,sans-Serif" font-size="10.00">bool</text>
</a>
</g>
</g>
<!-- Node7&#45;&gt;Node3 -->
<g id="edge7" class="edge">
<title>Node7&#45;&gt;Node3</title>
<path fill="none" stroke="#9a32cd" stroke-dasharray="5,2" d="M234.54,-555.29C267.6,-558.55 321.54,-558.2 353,-527.97 382.73,-499.41 343.34,-467.54 371,-436.97 374.5,-433.1 378.76,-430.01 383.39,-427.54"/>
<polygon fill="#9a32cd" stroke="#9a32cd" points="234.53,-551.77 224.19,-554.09 233.72,-558.72 234.53,-551.77"/>
<text text-anchor="middle" x="317" y="-568.97" font-family="Helvetica,sans-Serif" font-size="10.00"> active</text>
<text text-anchor="middle" x="317" y="-557.97" font-family="Helvetica,sans-Serif" font-size="10.00">use</text>
</g>
<!-- Node8 -->
<g id="node8" class="node">
<title>Node8</title>
<g id="a_node8"><a xlink:title=" ">
<polygon fill="white" stroke="#bfbfbf" points="147,-499.47 147,-518.47 263,-518.47 263,-499.47 147,-499.47"/>
<text text-anchor="middle" x="205" y="-506.47" font-family="Helvetica,sans-Serif" font-size="10.00">SemaphoreHandle_t</text>
</a>
</g>
</g>
<!-- Node8&#45;&gt;Node3 -->
<g id="edge8" class="edge">
<title>Node8&#45;&gt;Node3</title>
<path fill="none" stroke="#9a32cd" stroke-dasharray="5,2" d="M273.28,-503.98C305.88,-500.3 340.62,-494.12 353,-483.97 370.3,-469.79 354.63,-452.22 371,-436.97 375.15,-433.11 380.06,-430.03 385.28,-427.57"/>
<polygon fill="#9a32cd" stroke="#9a32cd" points="272.83,-500.51 263.26,-505.04 273.57,-507.47 272.83,-500.51"/>
<text text-anchor="middle" x="317" y="-515.97" font-family="Helvetica,sans-Serif" font-size="10.00"> inner_mtx</text>
<text text-anchor="middle" x="317" y="-504.97" font-family="Helvetica,sans-Serif" font-size="10.00">mtx</text>
</g>
<!-- Node9 -->
<g id="node9" class="node">
<title>Node9</title>
<g id="a_node9"><a xlink:title=" ">
<polygon fill="white" stroke="#bfbfbf" points="409.5,-193.47 409.5,-212.47 459.5,-212.47 459.5,-193.47 409.5,-193.47"/>
<text text-anchor="middle" x="434.5" y="-200.47" font-family="Helvetica,sans-Serif" font-size="10.00">int32_t</text>
</a>
</g>
</g>
<!-- Node9&#45;&gt;Node1 -->
<g id="edge9" class="edge">
<title>Node9&#45;&gt;Node1</title>
<path fill="none" stroke="#9a32cd" stroke-dasharray="5,2" d="M469.66,-197.91C499.98,-193.36 545.47,-186.44 585,-179.97 595.53,-178.25 606.77,-176.35 617.54,-174.49"/>
<polygon fill="#9a32cd" stroke="#9a32cd" points="468.98,-194.47 459.6,-199.41 470.01,-201.39 468.98,-194.47"/>
<text text-anchor="middle" x="550.5" y="-192.97" font-family="Helvetica,sans-Serif" font-size="10.00"> Enable</text>
</g>
<!-- Node10 -->
<g id="node10" class="node">
<title>Node10</title>
<g id="a_node10"><a xlink:title=" ">
<polygon fill="white" stroke="#bfbfbf" points="0,-112.47 0,-131.47 56,-131.47 56,-112.47 0,-112.47"/>
<text text-anchor="middle" x="28" y="-119.47" font-family="Helvetica,sans-Serif" font-size="10.00">uint32_t</text>
</a>
</g>
</g>
<!-- Node10&#45;&gt;Node1 -->
<g id="edge10" class="edge">
<title>Node10&#45;&gt;Node1</title>
<path fill="none" stroke="#9a32cd" stroke-dasharray="5,2" d="M66.54,-120.34C126.97,-118.08 249.49,-115.02 353,-121.97 446.53,-128.26 554.47,-144.81 617.62,-155.45"/>
<polygon fill="#9a32cd" stroke="#9a32cd" points="66.21,-116.85 56.35,-120.74 66.48,-123.85 66.21,-116.85"/>
<text text-anchor="middle" x="317" y="-135.97" font-family="Helvetica,sans-Serif" font-size="10.00"> BckgColor</text>
<text text-anchor="middle" x="317" y="-124.97" font-family="Helvetica,sans-Serif" font-size="10.00">InUseCnt</text>
</g>
<!-- Node11 -->
<g id="node11" class="node">
<title>Node11</title>
<g id="a_node11"><a xlink:href="structr__wmdrv__Event__t.html" target="_top" xlink:title=" ">
<polygon fill="white" stroke="black" points="384,-54.47 384,-73.47 485,-73.47 485,-54.47 384,-54.47"/>
<text text-anchor="middle" x="434.5" y="-61.47" font-family="Helvetica,sans-Serif" font-size="10.00">r_wmdrv_Event_t</text>
</a>
</g>
</g>
<!-- Node10&#45;&gt;Node11 -->
<g id="edge12" class="edge">
<title>Node10&#45;&gt;Node11</title>
<path fill="none" stroke="#9a32cd" stroke-dasharray="5,2" d="M46.88,-105.76C54.69,-99.54 64.27,-92.99 74,-88.97 104.33,-76.46 114.35,-81.22 147,-77.97 229.88,-69.72 326.75,-66.28 383.96,-64.88"/>
<polygon fill="#9a32cd" stroke="#9a32cd" points="44.59,-103.11 39.19,-112.23 49.1,-108.47 44.59,-103.11"/>
<text text-anchor="middle" x="205" y="-80.97" font-family="Helvetica,sans-Serif" font-size="10.00"> Pid</text>
</g>
<!-- Node13 -->
<g id="node13" class="node">
<title>Node13</title>
<g id="a_node13"><a xlink:href="structr__wm__DispTiming__t.html" target="_top" xlink:title=" ">
<polygon fill="white" stroke="black" points="378,-155.47 378,-174.47 491,-174.47 491,-155.47 378,-155.47"/>
<text text-anchor="middle" x="434.5" y="-162.47" font-family="Helvetica,sans-Serif" font-size="10.00">r_wm_DispTiming_t</text>
</a>
</g>
</g>
<!-- Node10&#45;&gt;Node13 -->
<g id="edge18" class="edge">
<title>Node10&#45;&gt;Node13</title>
<path fill="none" stroke="#9a32cd" stroke-dasharray="5,2" d="M36.3,-141.31C43.38,-157.2 55.76,-178.85 74,-189.97 126.97,-222.28 295.01,-222.02 353,-199.97 363,-196.17 361.66,-189.21 371,-183.97 377.73,-180.2 385.29,-177.09 392.77,-174.56"/>
<polygon fill="#9a32cd" stroke="#9a32cd" points="39.45,-139.77 32.4,-131.87 32.98,-142.44 39.45,-139.77"/>
<text text-anchor="middle" x="205" y="-327.97" font-family="Helvetica,sans-Serif" font-size="10.00"> CurrentDispClock</text>
<text text-anchor="middle" x="205" y="-316.97" font-family="Helvetica,sans-Serif" font-size="10.00">DotClkIn</text>
<text text-anchor="middle" x="205" y="-305.97" font-family="Helvetica,sans-Serif" font-size="10.00">Extal</text>
<text text-anchor="middle" x="205" y="-294.97" font-family="Helvetica,sans-Serif" font-size="10.00">HdmiPllCfg</text>
<text text-anchor="middle" x="205" y="-283.97" font-family="Helvetica,sans-Serif" font-size="10.00">HdmiPllCtrl</text>
<text text-anchor="middle" x="205" y="-272.97" font-family="Helvetica,sans-Serif" font-size="10.00">HdmiPllDivider</text>
<text text-anchor="middle" x="205" y="-261.97" font-family="Helvetica,sans-Serif" font-size="10.00">LvdsPllLvddiv</text>
<text text-anchor="middle" x="205" y="-250.97" font-family="Helvetica,sans-Serif" font-size="10.00">LvdsPllLvdpllcr</text>
<text text-anchor="middle" x="205" y="-239.97" font-family="Helvetica,sans-Serif" font-size="10.00">PixelClock</text>
<text text-anchor="middle" x="205" y="-228.97" font-family="Helvetica,sans-Serif" font-size="10.00">ScreenHeight</text>
<text text-anchor="middle" x="205" y="-217.97" font-family="Helvetica,sans-Serif" font-size="10.00">...</text>
</g>
<!-- Node14 -->
<g id="node14" class="node">
<title>Node14</title>
<g id="a_node14"><a xlink:href="structr__wm__SubTiming__t.html" target="_top" xlink:title=" ">
<polygon fill="white" stroke="black" points="150,-169.47 150,-188.47 260,-188.47 260,-169.47 150,-169.47"/>
<text text-anchor="middle" x="205" y="-176.47" font-family="Helvetica,sans-Serif" font-size="10.00">r_wm_SubTiming_t</text>
</a>
</g>
</g>
<!-- Node10&#45;&gt;Node14 -->
<g id="edge16" class="edge">
<title>Node10&#45;&gt;Node14</title>
<path fill="none" stroke="#9a32cd" stroke-dasharray="5,2" d="M65.92,-134C98.36,-144.56 144.91,-159.73 174.81,-169.46"/>
<polygon fill="#9a32cd" stroke="#9a32cd" points="66.94,-130.65 56.34,-130.88 64.77,-137.3 66.94,-130.65"/>
<text text-anchor="middle" x="101.5" y="-177.97" font-family="Helvetica,sans-Serif" font-size="10.00"> BackPorch</text>
<text text-anchor="middle" x="101.5" y="-166.97" font-family="Helvetica,sans-Serif" font-size="10.00">SyncWidth</text>
<text text-anchor="middle" x="101.5" y="-155.97" font-family="Helvetica,sans-Serif" font-size="10.00">TotalPixel</text>
</g>
<!-- Node11&#45;&gt;Node1 -->
<g id="edge11" class="edge">
<title>Node11&#45;&gt;Node1</title>
<path fill="none" stroke="#9a32cd" stroke-dasharray="5,2" d="M495.38,-60.36C523.75,-60.91 557.39,-64.95 585,-77.97 622.37,-95.6 652.78,-136.48 665.31,-155.24"/>
<polygon fill="#9a32cd" stroke="#9a32cd" points="495.21,-56.86 485.19,-60.31 495.17,-63.86 495.21,-56.86"/>
<text text-anchor="middle" x="550.5" y="-80.97" font-family="Helvetica,sans-Serif" font-size="10.00"> UserEvent</text>
</g>
<!-- Node12 -->
<g id="node12" class="node">
<title>Node12</title>
<g id="a_node12"><a xlink:title=" ">
<polygon fill="white" stroke="#bfbfbf" points="182,-2.47 182,-21.47 228,-21.47 228,-2.47 182,-2.47"/>
<text text-anchor="middle" x="205" y="-9.47" font-family="Helvetica,sans-Serif" font-size="10.00">void *</text>
</a>
</g>
</g>
<!-- Node12&#45;&gt;Node1 -->
<g id="edge19" class="edge">
<title>Node12&#45;&gt;Node1</title>
<path fill="none" stroke="#9a32cd" stroke-dasharray="5,2" d="M238.31,-6.95C308,2.1 475.05,14.07 585,-57.97 624.76,-84.03 654.97,-134.23 666.46,-155.3"/>
<polygon fill="#9a32cd" stroke="#9a32cd" points="237.8,-3.49 228.36,-8.31 238.75,-10.43 237.8,-3.49"/>
<text text-anchor="middle" x="434.5" y="-22.97" font-family="Helvetica,sans-Serif" font-size="10.00"> VoutConf</text>
</g>
<!-- Node12&#45;&gt;Node11 -->
<g id="edge13" class="edge">
<title>Node12&#45;&gt;Node11</title>
<path fill="none" stroke="#9a32cd" stroke-dasharray="5,2" d="M237.98,-16.72C267.91,-21.42 313.78,-29.32 353,-38.97 370.76,-43.35 390.37,-49.41 405.79,-54.47"/>
<polygon fill="#9a32cd" stroke="#9a32cd" points="238.51,-13.26 228.09,-15.19 237.44,-20.17 238.51,-13.26"/>
<text text-anchor="middle" x="317" y="-41.97" font-family="Helvetica,sans-Serif" font-size="10.00"> MqHandle</text>
</g>
<!-- Node13&#45;&gt;Node1 -->
<g id="edge14" class="edge">
<title>Node13&#45;&gt;Node1</title>
<path fill="none" stroke="#9a32cd" stroke-dasharray="5,2" d="M501.16,-164.97C532.79,-164.97 570.72,-164.97 602.74,-164.97"/>
<polygon fill="#9a32cd" stroke="#9a32cd" points="501.13,-161.47 491.13,-164.97 501.13,-168.47 501.13,-161.47"/>
<text text-anchor="middle" x="550.5" y="-167.97" font-family="Helvetica,sans-Serif" font-size="10.00"> Timings</text>
</g>
<!-- Node14&#45;&gt;Node13 -->
<g id="edge15" class="edge">
<title>Node14&#45;&gt;Node13</title>
<path fill="none" stroke="#9a32cd" stroke-dasharray="5,2" d="M270.45,-175.01C304.27,-172.93 345.3,-170.4 377.73,-168.4"/>
<polygon fill="#9a32cd" stroke="#9a32cd" points="269.97,-171.53 260.2,-175.64 270.4,-178.52 269.97,-171.53"/>
<text text-anchor="middle" x="317" y="-187.97" font-family="Helvetica,sans-Serif" font-size="10.00"> VoutH</text>
<text text-anchor="middle" x="317" y="-176.97" font-family="Helvetica,sans-Serif" font-size="10.00">VoutV</text>
</g>
<!-- Node15 -->
<g id="node15" class="node">
<title>Node15</title>
<g id="a_node15"><a xlink:title=" ">
<polygon fill="white" stroke="#bfbfbf" points="154,-131.47 154,-150.47 256,-150.47 256,-131.47 154,-131.47"/>
<text text-anchor="middle" x="205" y="-138.47" font-family="Helvetica,sans-Serif" font-size="10.00">r_wm_VoutType_t</text>
</a>
</g>
</g>
<!-- Node15&#45;&gt;Node13 -->
<g id="edge17" class="edge">
<title>Node15&#45;&gt;Node13</title>
<path fill="none" stroke="#9a32cd" stroke-dasharray="5,2" d="M266.35,-146.33C292.94,-148.79 324.54,-151.85 353,-154.97 360.98,-155.85 369.4,-156.83 377.66,-157.83"/>
<polygon fill="#9a32cd" stroke="#9a32cd" points="266.32,-142.81 256.04,-145.38 265.68,-149.78 266.32,-142.81"/>
<text text-anchor="middle" x="317" y="-157.97" font-family="Helvetica,sans-Serif" font-size="10.00"> VoutType</text>
</g>
</g>
</svg>
