<?xml version="1.0" encoding="UTF-8" standalone="no"?>
<!DOCTYPE svg PUBLIC "-//W3C//DTD SVG 1.1//EN"
 "http://www.w3.org/Graphics/SVG/1.1/DTD/svg11.dtd">
<!-- Generated by graphviz version 2.43.0 (0)
 -->
<!-- Title: taurus_rvgc_ioc_display_get_info_in Pages: 1 -->
<svg width="142pt" height="106pt"
 viewBox="0.00 0.00 142.00 106.00" xmlns="http://www.w3.org/2000/svg" xmlns:xlink="http://www.w3.org/1999/xlink">
<g id="graph0" class="graph" transform="scale(1 1) rotate(0) translate(4 102)">
<title>taurus_rvgc_ioc_display_get_info_in</title>
<polygon fill="white" stroke="transparent" points="-4,4 -4,-102 138,-102 138,4 -4,4"/>
<!-- Node1 -->
<g id="node1" class="node">
<title>Node1</title>
<g id="a_node1"><a xlink:title=" ">
<polygon fill="#bfbfbf" stroke="black" points="0,-0.5 0,-30.5 134,-30.5 134,-0.5 0,-0.5"/>
<text text-anchor="start" x="8" y="-18.5" font-family="Helvetica,sans-Serif" font-size="10.00">taurus_rvgc_ioc_display</text>
<text text-anchor="middle" x="67" y="-7.5" font-family="Helvetica,sans-Serif" font-size="10.00">_get_info_in</text>
</a>
</g>
</g>
<!-- Node2 -->
<g id="node2" class="node">
<title>Node2</title>
<g id="a_node2"><a xlink:title=" ">
<polygon fill="white" stroke="#bfbfbf" points="2,-78.5 2,-97.5 58,-97.5 58,-78.5 2,-78.5"/>
<text text-anchor="middle" x="30" y="-85.5" font-family="Helvetica,sans-Serif" font-size="10.00">uint64_t</text>
</a>
</g>
</g>
<!-- Node2&#45;&gt;Node1 -->
<g id="edge1" class="edge">
<title>Node2&#45;&gt;Node1</title>
<path fill="none" stroke="#9a32cd" stroke-dasharray="5,2" d="M36.96,-68.66C39.57,-62.32 42.7,-55.24 46,-49 49.26,-42.82 53.34,-36.3 57.03,-30.73"/>
<polygon fill="#9a32cd" stroke="#9a32cd" points="33.55,-67.76 33.14,-78.35 40.07,-70.33 33.55,-67.76"/>
<text text-anchor="middle" x="64" y="-52" font-family="Helvetica,sans-Serif" font-size="10.00"> cookie</text>
</g>
<!-- Node3 -->
<g id="node3" class="node">
<title>Node3</title>
<g id="a_node3"><a xlink:title=" ">
<polygon fill="white" stroke="#bfbfbf" points="76,-78.5 76,-97.5 132,-97.5 132,-78.5 76,-78.5"/>
<text text-anchor="middle" x="104" y="-85.5" font-family="Helvetica,sans-Serif" font-size="10.00">uint32_t</text>
</a>
</g>
</g>
<!-- Node3&#45;&gt;Node1 -->
<g id="edge2" class="edge">
<title>Node3&#45;&gt;Node1</title>
<path fill="none" stroke="#9a32cd" stroke-dasharray="5,2" d="M94.72,-69.32C88.43,-57.34 80.23,-41.72 74.39,-30.58"/>
<polygon fill="#9a32cd" stroke="#9a32cd" points="91.72,-71.13 99.46,-78.36 97.92,-67.87 91.72,-71.13"/>
<text text-anchor="middle" x="107.5" y="-52" font-family="Helvetica,sans-Serif" font-size="10.00"> display</text>
</g>
</g>
</svg>
