<?xml version="1.0" encoding="UTF-8" standalone="no"?>
<!DOCTYPE svg PUBLIC "-//W3C//DTD SVG 1.1//EN"
 "http://www.w3.org/Graphics/SVG/1.1/DTD/svg11.dtd">
<!-- Generated by graphviz version 2.43.0 (0)
 -->
<!-- Title: r_cio_ether_version_info Pages: 1 -->
<svg width="187pt" height="184pt"
 viewBox="0.00 0.00 186.50 184.00" xmlns="http://www.w3.org/2000/svg" xmlns:xlink="http://www.w3.org/1999/xlink">
<g id="graph0" class="graph" transform="scale(1 1) rotate(0) translate(4 180)">
<title>r_cio_ether_version_info</title>
<polygon fill="white" stroke="transparent" points="-4,4 -4,-180 182.5,-180 182.5,4 -4,4"/>
<!-- Node1 -->
<g id="node1" class="node">
<title>Node1</title>
<g id="a_node1"><a xlink:title=" ">
<polygon fill="#bfbfbf" stroke="black" points="8,-0.5 8,-19.5 144,-19.5 144,-0.5 8,-0.5"/>
<text text-anchor="middle" x="76" y="-7.5" font-family="Helvetica,sans-Serif" font-size="10.00">r_cio_ether_version_info</text>
</a>
</g>
</g>
<!-- Node2 -->
<g id="node2" class="node">
<title>Node2</title>
<g id="a_node2"><a xlink:href="structSTag__Std__VersionInfoType.html" target="_top" xlink:title=" ">
<polygon fill="white" stroke="black" points="4.5,-67.5 4.5,-86.5 147.5,-86.5 147.5,-67.5 4.5,-67.5"/>
<text text-anchor="middle" x="76" y="-74.5" font-family="Helvetica,sans-Serif" font-size="10.00">STag_Std_VersionInfoType</text>
</a>
</g>
</g>
<!-- Node2&#45;&gt;Node1 -->
<g id="edge1" class="edge">
<title>Node2&#45;&gt;Node1</title>
<path fill="none" stroke="#9a32cd" stroke-dasharray="5,2" d="M76,-57.04C76,-44.67 76,-29.12 76,-19.63"/>
<polygon fill="#9a32cd" stroke="#9a32cd" points="72.5,-57.23 76,-67.23 79.5,-57.23 72.5,-57.23"/>
<text text-anchor="middle" x="105" y="-41" font-family="Helvetica,sans-Serif" font-size="10.00"> versionInfo</text>
</g>
<!-- Node3 -->
<g id="node3" class="node">
<title>Node3</title>
<g id="a_node3"><a xlink:title=" ">
<polygon fill="white" stroke="#bfbfbf" points="0,-156.5 0,-175.5 38,-175.5 38,-156.5 0,-156.5"/>
<text text-anchor="middle" x="19" y="-163.5" font-family="Helvetica,sans-Serif" font-size="10.00">char</text>
</a>
</g>
</g>
<!-- Node3&#45;&gt;Node2 -->
<g id="edge2" class="edge">
<title>Node3&#45;&gt;Node2</title>
<path fill="none" stroke="#9a32cd" stroke-dasharray="5,2" d="M14.56,-146.56C12.57,-133.89 12.18,-117.22 20,-105 25.41,-96.54 34.28,-90.67 43.38,-86.62"/>
<polygon fill="#9a32cd" stroke="#9a32cd" points="11.14,-147.34 16.54,-156.45 18,-145.96 11.14,-147.34"/>
<text text-anchor="middle" x="66" y="-130" font-family="Helvetica,sans-Serif" font-size="10.00"> sw_major_version</text>
<text text-anchor="middle" x="66" y="-119" font-family="Helvetica,sans-Serif" font-size="10.00">sw_minor_version</text>
<text text-anchor="middle" x="66" y="-108" font-family="Helvetica,sans-Serif" font-size="10.00">sw_patch_version</text>
</g>
<!-- Node4 -->
<g id="node4" class="node">
<title>Node4</title>
<g id="a_node4"><a xlink:title=" ">
<polygon fill="white" stroke="#bfbfbf" points="89.5,-156.5 89.5,-175.5 178.5,-175.5 178.5,-156.5 89.5,-156.5"/>
<text text-anchor="middle" x="134" y="-163.5" font-family="Helvetica,sans-Serif" font-size="10.00">unsigned short</text>
</a>
</g>
</g>
<!-- Node4&#45;&gt;Node2 -->
<g id="edge3" class="edge">
<title>Node4&#45;&gt;Node2</title>
<path fill="none" stroke="#9a32cd" stroke-dasharray="5,2" d="M130.09,-146.25C126.79,-133.68 121.11,-117.26 112,-105 106.5,-97.6 98.42,-91.29 91.31,-86.63"/>
<polygon fill="#9a32cd" stroke="#9a32cd" points="126.71,-147.16 132.4,-156.1 133.52,-145.56 126.71,-147.16"/>
<text text-anchor="middle" x="152.5" y="-124.5" font-family="Helvetica,sans-Serif" font-size="10.00"> moduleID</text>
<text text-anchor="middle" x="152.5" y="-113.5" font-family="Helvetica,sans-Serif" font-size="10.00">vendorID</text>
</g>
</g>
</svg>
