<?xml version="1.0" encoding="UTF-8" standalone="no"?>
<!DOCTYPE svg PUBLIC "-//W3C//DTD SVG 1.1//EN"
 "http://www.w3.org/Graphics/SVG/1.1/DTD/svg11.dtd">
<!-- Generated by graphviz version 2.43.0 (0)
 -->
<!-- Title: taurus_ether_set_correction_time_in Pages: 1 -->
<svg width="435pt" height="161pt"
 viewBox="0.00 0.00 435.00 161.00" xmlns="http://www.w3.org/2000/svg" xmlns:xlink="http://www.w3.org/1999/xlink">
<g id="graph0" class="graph" transform="scale(1 1) rotate(0) translate(4 157)">
<title>taurus_ether_set_correction_time_in</title>
<polygon fill="white" stroke="transparent" points="-4,4 -4,-157 431,-157 431,4 -4,4"/>
<!-- Node1 -->
<g id="node1" class="node">
<title>Node1</title>
<g id="a_node1"><a xlink:title=" ">
<polygon fill="#bfbfbf" stroke="black" points="127,-0.5 127,-30.5 279,-30.5 279,-0.5 127,-0.5"/>
<text text-anchor="start" x="135" y="-18.5" font-family="Helvetica,sans-Serif" font-size="10.00">taurus_ether_set_correction</text>
<text text-anchor="middle" x="203" y="-7.5" font-family="Helvetica,sans-Serif" font-size="10.00">_time_in</text>
</a>
</g>
</g>
<!-- Node2 -->
<g id="node2" class="node">
<title>Node2</title>
<g id="a_node2"><a xlink:title=" ">
<polygon fill="white" stroke="#bfbfbf" points="0,-133.5 0,-152.5 56,-152.5 56,-133.5 0,-133.5"/>
<text text-anchor="middle" x="28" y="-140.5" font-family="Helvetica,sans-Serif" font-size="10.00">uint64_t</text>
</a>
</g>
</g>
<!-- Node2&#45;&gt;Node1 -->
<g id="edge1" class="edge">
<title>Node2&#45;&gt;Node1</title>
<path fill="none" stroke="#9a32cd" stroke-dasharray="5,2" d="M29.4,-123.31C32.02,-102.14 39.52,-68.12 61,-49 71.34,-39.79 98.82,-32.52 126.88,-27.2"/>
<polygon fill="#9a32cd" stroke="#9a32cd" points="25.92,-123.02 28.41,-133.32 32.88,-123.71 25.92,-123.02"/>
<text text-anchor="middle" x="79" y="-79.5" font-family="Helvetica,sans-Serif" font-size="10.00"> cookie</text>
</g>
<!-- Node3 -->
<g id="node3" class="node">
<title>Node3</title>
<g id="a_node3"><a xlink:title=" ">
<polygon fill="white" stroke="#bfbfbf" points="74,-133.5 74,-152.5 130,-152.5 130,-133.5 74,-133.5"/>
<text text-anchor="middle" x="102" y="-140.5" font-family="Helvetica,sans-Serif" font-size="10.00">uint16_t</text>
</a>
</g>
</g>
<!-- Node3&#45;&gt;Node1 -->
<g id="edge2" class="edge">
<title>Node3&#45;&gt;Node1</title>
<path fill="none" stroke="#9a32cd" stroke-dasharray="5,2" d="M100.88,-123.17C100.68,-102.63 103.49,-69.9 121,-49 127.59,-41.14 136.35,-35.16 145.69,-30.63"/>
<polygon fill="#9a32cd" stroke="#9a32cd" points="97.39,-123.55 101.24,-133.42 104.38,-123.3 97.39,-123.55"/>
<text text-anchor="middle" x="160" y="-90.5" font-family="Helvetica,sans-Serif" font-size="10.00"> InTs_secondsHi</text>
<text text-anchor="middle" x="160" y="-79.5" font-family="Helvetica,sans-Serif" font-size="10.00">OrTs_secondsHi</text>
<text text-anchor="middle" x="160" y="-68.5" font-family="Helvetica,sans-Serif" font-size="10.00">diff_secondsHi</text>
</g>
<!-- Node4 -->
<g id="node4" class="node">
<title>Node4</title>
<g id="a_node4"><a xlink:title=" ">
<polygon fill="white" stroke="#bfbfbf" points="175,-133.5 175,-152.5 231,-152.5 231,-133.5 175,-133.5"/>
<text text-anchor="middle" x="203" y="-140.5" font-family="Helvetica,sans-Serif" font-size="10.00">uint32_t</text>
</a>
</g>
</g>
<!-- Node4&#45;&gt;Node1 -->
<g id="edge3" class="edge">
<title>Node4&#45;&gt;Node1</title>
<path fill="none" stroke="#9a32cd" stroke-dasharray="5,2" d="M203,-123.26C203,-97.98 203,-53.52 203,-30.77"/>
<polygon fill="#9a32cd" stroke="#9a32cd" points="199.5,-123.37 203,-133.37 206.5,-123.37 199.5,-123.37"/>
<text text-anchor="middle" x="251.5" y="-107" font-family="Helvetica,sans-Serif" font-size="10.00"> InTs_nanosecounds</text>
<text text-anchor="middle" x="251.5" y="-96" font-family="Helvetica,sans-Serif" font-size="10.00">InTs_seconds</text>
<text text-anchor="middle" x="251.5" y="-85" font-family="Helvetica,sans-Serif" font-size="10.00">OrTs_nanoseconds</text>
<text text-anchor="middle" x="251.5" y="-74" font-family="Helvetica,sans-Serif" font-size="10.00">OrTs_seconds</text>
<text text-anchor="middle" x="251.5" y="-63" font-family="Helvetica,sans-Serif" font-size="10.00">diff_nanoseconds</text>
<text text-anchor="middle" x="251.5" y="-52" font-family="Helvetica,sans-Serif" font-size="10.00">diff_seconds</text>
</g>
<!-- Node5 -->
<g id="node5" class="node">
<title>Node5</title>
<g id="a_node5"><a xlink:title=" ">
<polygon fill="white" stroke="#bfbfbf" points="304,-133.5 304,-152.5 342,-152.5 342,-133.5 304,-133.5"/>
<text text-anchor="middle" x="323" y="-140.5" font-family="Helvetica,sans-Serif" font-size="10.00">bool</text>
</a>
</g>
</g>
<!-- Node5&#45;&gt;Node1 -->
<g id="edge4" class="edge">
<title>Node5&#45;&gt;Node1</title>
<path fill="none" stroke="#9a32cd" stroke-dasharray="5,2" d="M323.65,-123.21C323.34,-102.47 319.62,-69.34 301,-49 293.74,-41.07 284.49,-35.07 274.6,-30.53"/>
<polygon fill="#9a32cd" stroke="#9a32cd" points="320.15,-123.26 323.55,-133.3 327.15,-123.33 320.15,-123.26"/>
<text text-anchor="middle" x="345.5" y="-79.5" font-family="Helvetica,sans-Serif" font-size="10.00"> diff_sign</text>
</g>
<!-- Node6 -->
<g id="node6" class="node">
<title>Node6</title>
<g id="a_node6"><a xlink:title=" ">
<polygon fill="white" stroke="#bfbfbf" points="366,-133.5 366,-152.5 416,-152.5 416,-133.5 366,-133.5"/>
<text text-anchor="middle" x="391" y="-140.5" font-family="Helvetica,sans-Serif" font-size="10.00">uint8_t</text>
</a>
</g>
</g>
<!-- Node6&#45;&gt;Node1 -->
<g id="edge5" class="edge">
<title>Node6&#45;&gt;Node1</title>
<path fill="none" stroke="#9a32cd" stroke-dasharray="5,2" d="M392.11,-123.08C392.25,-101.96 388.98,-68.21 369,-49 355.88,-36.38 316.52,-28.36 279.42,-23.44"/>
<polygon fill="#9a32cd" stroke="#9a32cd" points="388.61,-123.24 391.77,-133.35 395.6,-123.47 388.61,-123.24"/>
<text text-anchor="middle" x="409" y="-79.5" font-family="Helvetica,sans-Serif" font-size="10.00"> CtrlIdx</text>
</g>
</g>
</svg>
