<?xml version="1.0" encoding="UTF-8" standalone="no"?>
<!DOCTYPE svg PUBLIC "-//W3C//DTD SVG 1.1//EN"
 "http://www.w3.org/Graphics/SVG/1.1/DTD/svg11.dtd">
<!-- Generated by graphviz version 2.43.0 (0)
 -->
<!-- Title: r_cio_ether_mode Pages: 1 -->
<svg width="152pt" height="95pt"
 viewBox="0.00 0.00 151.50 95.00" xmlns="http://www.w3.org/2000/svg" xmlns:xlink="http://www.w3.org/1999/xlink">
<g id="graph0" class="graph" transform="scale(1 1) rotate(0) translate(4 91)">
<title>r_cio_ether_mode</title>
<polygon fill="white" stroke="transparent" points="-4,4 -4,-91 147.5,-91 147.5,4 -4,4"/>
<!-- Node1 -->
<g id="node1" class="node">
<title>Node1</title>
<g id="a_node1"><a xlink:title=" ">
<polygon fill="#bfbfbf" stroke="black" points="7,-0.5 7,-19.5 111,-19.5 111,-0.5 7,-0.5"/>
<text text-anchor="middle" x="59" y="-7.5" font-family="Helvetica,sans-Serif" font-size="10.00">r_cio_ether_mode</text>
</a>
</g>
</g>
<!-- Node2 -->
<g id="node2" class="node">
<title>Node2</title>
<g id="a_node2"><a xlink:title=" ">
<polygon fill="white" stroke="#bfbfbf" points="0,-67.5 0,-86.5 38,-86.5 38,-67.5 0,-67.5"/>
<text text-anchor="middle" x="19" y="-74.5" font-family="Helvetica,sans-Serif" font-size="10.00">char</text>
</a>
</g>
</g>
<!-- Node2&#45;&gt;Node1 -->
<g id="edge1" class="edge">
<title>Node2&#45;&gt;Node1</title>
<path fill="none" stroke="#9a32cd" stroke-dasharray="5,2" d="M29.46,-58.58C33.37,-52.1 37.86,-44.7 42,-38 45.72,-31.97 49.97,-25.22 53.29,-19.98"/>
<polygon fill="#9a32cd" stroke="#9a32cd" points="26.41,-56.85 24.25,-67.22 32.41,-60.46 26.41,-56.85"/>
<text text-anchor="middle" x="60" y="-41" font-family="Helvetica,sans-Serif" font-size="10.00"> CtrlIdx</text>
</g>
<!-- Node3 -->
<g id="node3" class="node">
<title>Node3</title>
<g id="a_node3"><a xlink:title=" ">
<polygon fill="white" stroke="#bfbfbf" points="56.5,-67.5 56.5,-86.5 143.5,-86.5 143.5,-67.5 56.5,-67.5"/>
<text text-anchor="middle" x="100" y="-74.5" font-family="Helvetica,sans-Serif" font-size="10.00">Eth_ModeType</text>
</a>
</g>
</g>
<!-- Node3&#45;&gt;Node1 -->
<g id="edge2" class="edge">
<title>Node3&#45;&gt;Node1</title>
<path fill="none" stroke="#9a32cd" stroke-dasharray="5,2" d="M90.4,-58.68C86.66,-52.13 82.25,-44.64 78,-38 74.05,-31.82 69.3,-25.07 65.54,-19.86"/>
<polygon fill="#9a32cd" stroke="#9a32cd" points="87.36,-60.42 95.32,-67.42 93.47,-56.99 87.36,-60.42"/>
<text text-anchor="middle" x="108" y="-41" font-family="Helvetica,sans-Serif" font-size="10.00"> CtrlMode</text>
</g>
</g>
</svg>
