<?xml version="1.0" encoding="UTF-8" standalone="no"?>
<!DOCTYPE svg PUBLIC "-//W3C//DTD SVG 1.1//EN"
 "http://www.w3.org/Graphics/SVG/1.1/DTD/svg11.dtd">
<!-- Generated by graphviz version 2.43.0 (0)
 -->
<!-- Title: r_cio_ether_tx_buff Pages: 1 -->
<svg width="330pt" height="106pt"
 viewBox="0.00 0.00 330.00 106.00" xmlns="http://www.w3.org/2000/svg" xmlns:xlink="http://www.w3.org/1999/xlink">
<g id="graph0" class="graph" transform="scale(1 1) rotate(0) translate(4 102)">
<title>r_cio_ether_tx_buff</title>
<polygon fill="white" stroke="transparent" points="-4,4 -4,-102 326,-102 326,4 -4,4"/>
<!-- Node1 -->
<g id="node1" class="node">
<title>Node1</title>
<g id="a_node1"><a xlink:title=" ">
<polygon fill="#bfbfbf" stroke="black" points="108.5,-0.5 108.5,-19.5 218.5,-19.5 218.5,-0.5 108.5,-0.5"/>
<text text-anchor="middle" x="163.5" y="-7.5" font-family="Helvetica,sans-Serif" font-size="10.00">r_cio_ether_tx_buff</text>
</a>
</g>
</g>
<!-- Node2 -->
<g id="node2" class="node">
<title>Node2</title>
<g id="a_node2"><a xlink:title=" ">
<polygon fill="white" stroke="#bfbfbf" points="0,-78.5 0,-97.5 85,-97.5 85,-78.5 0,-78.5"/>
<text text-anchor="middle" x="42.5" y="-85.5" font-family="Helvetica,sans-Serif" font-size="10.00">unsigned long</text>
</a>
</g>
</g>
<!-- Node2&#45;&gt;Node1 -->
<g id="edge1" class="edge">
<title>Node2&#45;&gt;Node1</title>
<path fill="none" stroke="#9a32cd" stroke-dasharray="5,2" d="M52.61,-69.71C59.54,-59.21 69.61,-46.28 81.5,-38 93.55,-29.61 108.4,-23.68 122.12,-19.57"/>
<polygon fill="#9a32cd" stroke="#9a32cd" points="49.47,-68.13 47.16,-78.47 55.41,-71.82 49.47,-68.13"/>
<text text-anchor="middle" x="106" y="-46.5" font-family="Helvetica,sans-Serif" font-size="10.00"> BufIdxPtr</text>
</g>
<!-- Node3 -->
<g id="node3" class="node">
<title>Node3</title>
<g id="a_node3"><a xlink:title=" ">
<polygon fill="white" stroke="#bfbfbf" points="103.5,-78.5 103.5,-97.5 141.5,-97.5 141.5,-78.5 103.5,-78.5"/>
<text text-anchor="middle" x="122.5" y="-85.5" font-family="Helvetica,sans-Serif" font-size="10.00">char</text>
</a>
</g>
</g>
<!-- Node3&#45;&gt;Node1 -->
<g id="edge2" class="edge">
<title>Node3&#45;&gt;Node1</title>
<path fill="none" stroke="#9a32cd" stroke-dasharray="5,2" d="M130.73,-69.05C135.17,-59.68 140.88,-48.09 146.5,-38 149.95,-31.81 154.2,-25.06 157.59,-19.86"/>
<polygon fill="#9a32cd" stroke="#9a32cd" points="127.52,-67.64 126.47,-78.18 133.87,-70.6 127.52,-67.64"/>
<text text-anchor="middle" x="164.5" y="-52" font-family="Helvetica,sans-Serif" font-size="10.00"> CtrlIdx</text>
<text text-anchor="middle" x="164.5" y="-41" font-family="Helvetica,sans-Serif" font-size="10.00">Priority</text>
</g>
<!-- Node4 -->
<g id="node4" class="node">
<title>Node4</title>
<g id="a_node4"><a xlink:title=" ">
<polygon fill="white" stroke="#bfbfbf" points="160,-78.5 160,-97.5 249,-97.5 249,-78.5 160,-78.5"/>
<text text-anchor="middle" x="204.5" y="-85.5" font-family="Helvetica,sans-Serif" font-size="10.00">unsigned short</text>
</a>
</g>
</g>
<!-- Node4&#45;&gt;Node1 -->
<g id="edge3" class="edge">
<title>Node4&#45;&gt;Node1</title>
<path fill="none" stroke="#9a32cd" stroke-dasharray="5,2" d="M197.36,-68.92C193.39,-59.49 188.13,-47.89 182.5,-38 178.87,-31.62 174.12,-24.87 170.28,-19.72"/>
<polygon fill="#9a32cd" stroke="#9a32cd" points="194.22,-70.5 201.24,-78.44 200.71,-67.86 194.22,-70.5"/>
<text text-anchor="middle" x="221" y="-46.5" font-family="Helvetica,sans-Serif" font-size="10.00"> LenBytePtr</text>
</g>
<!-- Node5 -->
<g id="node5" class="node">
<title>Node5</title>
<g id="a_node5"><a xlink:title=" ">
<polygon fill="white" stroke="#bfbfbf" points="267,-78.5 267,-97.5 322,-97.5 322,-78.5 267,-78.5"/>
<text text-anchor="middle" x="294.5" y="-85.5" font-family="Helvetica,sans-Serif" font-size="10.00">uint8 **</text>
</a>
</g>
</g>
<!-- Node5&#45;&gt;Node1 -->
<g id="edge4" class="edge">
<title>Node5&#45;&gt;Node1</title>
<path fill="none" stroke="#9a32cd" stroke-dasharray="5,2" d="M283.99,-69.93C276.65,-59.33 265.96,-46.22 253.5,-38 240.7,-29.56 225.16,-23.68 210.63,-19.61"/>
<polygon fill="#9a32cd" stroke="#9a32cd" points="281.13,-71.95 289.54,-78.41 286.99,-68.12 281.13,-71.95"/>
<text text-anchor="middle" x="292.5" y="-46.5" font-family="Helvetica,sans-Serif" font-size="10.00"> BufPtr</text>
</g>
</g>
</svg>
