<?xml version="1.0" encoding="UTF-8" standalone="no"?>
<!DOCTYPE svg PUBLIC "-//W3C//DTD SVG 1.1//EN"
 "http://www.w3.org/Graphics/SVG/1.1/DTD/svg11.dtd">
<!-- Generated by graphviz version 2.43.0 (0)
 -->
<!-- Title: r_wmdrv_Sys_Vout_t Pages: 1 -->
<svg width="1149pt" height="881pt"
 viewBox="0.00 0.00 1149.00 881.00" xmlns="http://www.w3.org/2000/svg" xmlns:xlink="http://www.w3.org/1999/xlink">
<g id="graph0" class="graph" transform="scale(1 1) rotate(0) translate(4 877)">
<title>r_wmdrv_Sys_Vout_t</title>
<polygon fill="white" stroke="transparent" points="-4,4 -4,-877 1145,-877 1145,4 -4,4"/>
<!-- Node1 -->
<g id="node1" class="node">
<title>Node1</title>
<g id="a_node1"><a xlink:title=" ">
<polygon fill="#bfbfbf" stroke="black" points="1023,-560.5 1023,-579.5 1141,-579.5 1141,-560.5 1023,-560.5"/>
<text text-anchor="middle" x="1082" y="-567.5" font-family="Helvetica,sans-Serif" font-size="10.00">r_wmdrv_Sys_Vout_t</text>
</a>
</g>
</g>
<!-- Node2 -->
<g id="node2" class="node">
<title>Node2</title>
<g id="a_node2"><a xlink:href="structr__du__Plane__t.html" target="_top" xlink:title=" ">
<polygon fill="white" stroke="black" points="817,-760.5 817,-779.5 896,-779.5 896,-760.5 817,-760.5"/>
<text text-anchor="middle" x="856.5" y="-767.5" font-family="Helvetica,sans-Serif" font-size="10.00">r_du_Plane_t</text>
</a>
</g>
</g>
<!-- Node2&#45;&gt;Node1 -->
<g id="edge1" class="edge">
<title>Node2&#45;&gt;Node1</title>
<path fill="none" stroke="#9a32cd" stroke-dasharray="5,2" d="M880.65,-754.68C910.73,-734.27 964.21,-696.3 1005,-658 1032.81,-631.88 1060.98,-596.36 1073.82,-579.56"/>
<polygon fill="#9a32cd" stroke="#9a32cd" points="878.45,-751.94 872.11,-760.42 882.36,-757.75 878.45,-751.94"/>
<text text-anchor="middle" x="974.5" y="-710" font-family="Helvetica,sans-Serif" font-size="10.00"> DuPlaneCfg</text>
</g>
<!-- Node3 -->
<g id="node3" class="node">
<title>Node3</title>
<g id="a_node3"><a xlink:title=" ">
<polygon fill="white" stroke="#bfbfbf" points="514,-853.5 514,-872.5 636,-872.5 636,-853.5 514,-853.5"/>
<text text-anchor="middle" x="575" y="-860.5" font-family="Helvetica,sans-Serif" font-size="10.00">r_du_PlaneBlending_t</text>
</a>
</g>
</g>
<!-- Node3&#45;&gt;Node2 -->
<g id="edge2" class="edge">
<title>Node3&#45;&gt;Node2</title>
<path fill="none" stroke="#9a32cd" stroke-dasharray="5,2" d="M646.52,-854.37C683.83,-848.33 729.89,-838.49 769,-823 797.33,-811.78 826.87,-791.52 843.05,-779.56"/>
<polygon fill="#9a32cd" stroke="#9a32cd" points="645.58,-850.97 636.24,-855.97 646.66,-857.89 645.58,-850.97"/>
<text text-anchor="middle" x="713" y="-854" font-family="Helvetica,sans-Serif" font-size="10.00"> blending</text>
</g>
<!-- Node4 -->
<g id="node4" class="node">
<title>Node4</title>
<g id="a_node4"><a xlink:title=" ">
<polygon fill="white" stroke="#bfbfbf" points="547,-600.5 547,-619.5 603,-619.5 603,-600.5 547,-600.5"/>
<text text-anchor="middle" x="575" y="-607.5" font-family="Helvetica,sans-Serif" font-size="10.00">uint32_t</text>
</a>
</g>
</g>
<!-- Node4&#45;&gt;Node1 -->
<g id="edge32" class="edge">
<title>Node4&#45;&gt;Node1</title>
<path fill="none" stroke="#9a32cd" stroke-dasharray="5,2" d="M613.36,-607.04C700.57,-600.13 918.04,-582.91 1022.79,-574.61"/>
<polygon fill="#9a32cd" stroke="#9a32cd" points="612.84,-603.57 603.15,-607.85 613.4,-610.55 612.84,-603.57"/>
<text text-anchor="middle" x="856.5" y="-639" font-family="Helvetica,sans-Serif" font-size="10.00"> DocUnit</text>
<text text-anchor="middle" x="856.5" y="-628" font-family="Helvetica,sans-Serif" font-size="10.00">DuInUse</text>
<text text-anchor="middle" x="856.5" y="-617" font-family="Helvetica,sans-Serif" font-size="10.00">DuPlaneMsk</text>
<text text-anchor="middle" x="856.5" y="-606" font-family="Helvetica,sans-Serif" font-size="10.00">IrqDocThread</text>
<text text-anchor="middle" x="856.5" y="-595" font-family="Helvetica,sans-Serif" font-size="10.00">IrqDuNum</text>
</g>
<!-- Node4&#45;&gt;Node2 -->
<g id="edge3" class="edge">
<title>Node4&#45;&gt;Node2</title>
<path fill="none" stroke="#9a32cd" stroke-dasharray="5,2" d="M601.62,-624.67C657.97,-656.92 791.38,-733.29 838.59,-760.32"/>
<polygon fill="#9a32cd" stroke="#9a32cd" points="603.06,-621.46 592.65,-619.53 599.59,-627.54 603.06,-621.46"/>
<text text-anchor="middle" x="713" y="-765" font-family="Helvetica,sans-Serif" font-size="10.00"> pos_x</text>
<text text-anchor="middle" x="713" y="-754" font-family="Helvetica,sans-Serif" font-size="10.00">pos_y</text>
<text text-anchor="middle" x="713" y="-743" font-family="Helvetica,sans-Serif" font-size="10.00">size_h</text>
<text text-anchor="middle" x="713" y="-732" font-family="Helvetica,sans-Serif" font-size="10.00">size_w</text>
<text text-anchor="middle" x="713" y="-721" font-family="Helvetica,sans-Serif" font-size="10.00">vspd_unit</text>
</g>
<!-- Node6 -->
<g id="node6" class="node">
<title>Node6</title>
<g id="a_node6"><a xlink:href="structr__wmdrv__Sys__VspdInfo__t.html" target="_top" xlink:title=" ">
<polygon fill="white" stroke="black" points="787,-424.5 787,-443.5 926,-443.5 926,-424.5 787,-424.5"/>
<text text-anchor="middle" x="856.5" y="-431.5" font-family="Helvetica,sans-Serif" font-size="10.00">r_wmdrv_Sys_VspdInfo_t</text>
</a>
</g>
</g>
<!-- Node4&#45;&gt;Node6 -->
<g id="edge14" class="edge">
<title>Node4&#45;&gt;Node6</title>
<path fill="none" stroke="#9a32cd" stroke-dasharray="5,2" d="M583.76,-590.94C595.55,-564.51 620.5,-517.13 657,-492 699.18,-462.97 719.94,-479.66 769,-465 790.25,-458.65 813.92,-450.06 831.12,-443.53"/>
<polygon fill="#9a32cd" stroke="#9a32cd" points="580.49,-589.69 579.77,-600.26 586.93,-592.45 580.49,-589.69"/>
<text text-anchor="middle" x="713" y="-572" font-family="Helvetica,sans-Serif" font-size="10.00"> DiscomCallback</text>
<text text-anchor="middle" x="713" y="-561" font-family="Helvetica,sans-Serif" font-size="10.00">InitFlag</text>
<text text-anchor="middle" x="713" y="-550" font-family="Helvetica,sans-Serif" font-size="10.00">IrqVspdDiscomNum</text>
<text text-anchor="middle" x="713" y="-539" font-family="Helvetica,sans-Serif" font-size="10.00">IrqVspdDiscomThread</text>
<text text-anchor="middle" x="713" y="-528" font-family="Helvetica,sans-Serif" font-size="10.00">IrqVspdNum</text>
<text text-anchor="middle" x="713" y="-517" font-family="Helvetica,sans-Serif" font-size="10.00">IrqVspdThread</text>
<text text-anchor="middle" x="713" y="-506" font-family="Helvetica,sans-Serif" font-size="10.00">Wpf0InUse</text>
<text text-anchor="middle" x="713" y="-495" font-family="Helvetica,sans-Serif" font-size="10.00">Wpf1InUse</text>
</g>
<!-- Node28 -->
<g id="node28" class="node">
<title>Node28</title>
<g id="a_node28"><a xlink:href="structr__wm__DOC__Status__t.html" target="_top" xlink:title=" ">
<polygon fill="white" stroke="black" points="798.5,-667.5 798.5,-686.5 914.5,-686.5 914.5,-667.5 798.5,-667.5"/>
<text text-anchor="middle" x="856.5" y="-674.5" font-family="Helvetica,sans-Serif" font-size="10.00">r_wm_DOC_Status_t</text>
</a>
</g>
</g>
<!-- Node4&#45;&gt;Node28 -->
<g id="edge35" class="edge">
<title>Node4&#45;&gt;Node28</title>
<path fill="none" stroke="#9a32cd" stroke-dasharray="5,2" d="M613.17,-609.86C661.64,-610.29 743.29,-613.28 769,-628 780.88,-634.8 776.03,-644.8 787,-653 795.28,-659.19 805.28,-663.87 815.05,-667.38"/>
<polygon fill="#9a32cd" stroke="#9a32cd" points="613.09,-606.36 603.07,-609.81 613.05,-613.36 613.09,-606.36"/>
<text text-anchor="middle" x="713" y="-631" font-family="Helvetica,sans-Serif" font-size="10.00"> VocSelMon</text>
</g>
<!-- Node5 -->
<g id="node5" class="node">
<title>Node5</title>
<g id="a_node5"><a xlink:title=" ">
<polygon fill="white" stroke="#bfbfbf" points="518.5,-815.5 518.5,-834.5 631.5,-834.5 631.5,-815.5 518.5,-815.5"/>
<text text-anchor="middle" x="575" y="-822.5" font-family="Helvetica,sans-Serif" font-size="10.00">r_du_PlaneFormat_t</text>
</a>
</g>
</g>
<!-- Node5&#45;&gt;Node2 -->
<g id="edge4" class="edge">
<title>Node5&#45;&gt;Node2</title>
<path fill="none" stroke="#9a32cd" stroke-dasharray="5,2" d="M634.28,-813.53C689.03,-802.76 769.42,-786.94 816.72,-777.63"/>
<polygon fill="#9a32cd" stroke="#9a32cd" points="633.5,-810.12 624.37,-815.48 634.85,-816.99 633.5,-810.12"/>
<text text-anchor="middle" x="713" y="-811" font-family="Helvetica,sans-Serif" font-size="10.00"> format</text>
</g>
<!-- Node6&#45;&gt;Node1 -->
<g id="edge5" class="edge">
<title>Node6&#45;&gt;Node1</title>
<path fill="none" stroke="#9a32cd" stroke-dasharray="5,2" d="M881.97,-448.89C928.15,-476.99 1026.93,-537.1 1065.3,-560.45"/>
<polygon fill="#9a32cd" stroke="#9a32cd" points="883.58,-445.77 873.22,-443.56 879.94,-451.75 883.58,-445.77"/>
<text text-anchor="middle" x="974.5" y="-525" font-family="Helvetica,sans-Serif" font-size="10.00"> VspdConf</text>
</g>
<!-- Node7 -->
<g id="node7" class="node">
<title>Node7</title>
<g id="a_node7"><a xlink:href="structst__osal__mutex__control.html" target="_top" xlink:title="control of mutex (Defined in OSAL Wrapper implementation files).">
<polygon fill="white" stroke="black" points="511.5,-407.5 511.5,-426.5 638.5,-426.5 638.5,-407.5 511.5,-407.5"/>
<text text-anchor="middle" x="575" y="-414.5" font-family="Helvetica,sans-Serif" font-size="10.00">st_osal_mutex_control</text>
</a>
</g>
</g>
<!-- Node7&#45;&gt;Node6 -->
<g id="edge6" class="edge">
<title>Node7&#45;&gt;Node6</title>
<path fill="none" stroke="#9a32cd" stroke-dasharray="5,2" d="M648.8,-410.71C685.04,-408.79 729.46,-408.27 769,-413 787.57,-415.22 807.91,-420.03 824.2,-424.49"/>
<polygon fill="#9a32cd" stroke="#9a32cd" points="648.58,-407.22 638.8,-411.29 648.98,-414.21 648.58,-407.22"/>
<text text-anchor="middle" x="713" y="-427" font-family="Helvetica,sans-Serif" font-size="10.00"> SemaVspd</text>
<text text-anchor="middle" x="713" y="-416" font-family="Helvetica,sans-Serif" font-size="10.00">SemaVspdDiscom</text>
</g>
<!-- Node8 -->
<g id="node8" class="node">
<title>Node8</title>
<g id="a_node8"><a xlink:title=" ">
<polygon fill="white" stroke="#bfbfbf" points="39,-412.5 39,-431.5 95,-431.5 95,-412.5 39,-412.5"/>
<text text-anchor="middle" x="67" y="-419.5" font-family="Helvetica,sans-Serif" font-size="10.00">uint64_t</text>
</a>
</g>
</g>
<!-- Node8&#45;&gt;Node7 -->
<g id="edge7" class="edge">
<title>Node8&#45;&gt;Node7</title>
<path fill="none" stroke="#9a32cd" stroke-dasharray="5,2" d="M105.29,-429.22C119.83,-431.89 136.66,-434.8 152,-437 302.04,-458.52 343.63,-467.74 493,-442 503.22,-440.24 526.76,-432.83 545.84,-426.54"/>
<polygon fill="#9a32cd" stroke="#9a32cd" points="105.63,-425.73 95.16,-427.34 104.35,-432.61 105.63,-425.73"/>
<text text-anchor="middle" x="309" y="-460" font-family="Helvetica,sans-Serif" font-size="10.00"> handle_id</text>
</g>
<!-- Node9 -->
<g id="node9" class="node">
<title>Node9</title>
<g id="a_node9"><a xlink:href="structst__osal__rcfg__mutex__config.html" target="_top" xlink:title=" ">
<polygon fill="white" stroke="black" points="253,-407 253,-437 365,-437 365,-407 253,-407"/>
<text text-anchor="start" x="261" y="-425" font-family="Helvetica,sans-Serif" font-size="10.00">st_osal_rcfg_mutex</text>
<text text-anchor="middle" x="309" y="-414" font-family="Helvetica,sans-Serif" font-size="10.00">_config</text>
</a>
</g>
</g>
<!-- Node8&#45;&gt;Node9 -->
<g id="edge9" class="edge">
<title>Node8&#45;&gt;Node9</title>
<path fill="none" stroke="#9a32cd" stroke-dasharray="5,2" d="M105.07,-422C144.59,-422 207.61,-422 252.94,-422"/>
<polygon fill="#9a32cd" stroke="#9a32cd" points="105.06,-418.5 95.06,-422 105.06,-425.5 105.06,-418.5"/>
<text text-anchor="middle" x="189" y="-425" font-family="Helvetica,sans-Serif" font-size="10.00"> id</text>
</g>
<!-- Node15 -->
<g id="node15" class="node">
<title>Node15</title>
<g id="a_node15"><a xlink:href="structst__osal__device__control.html" target="_top" xlink:title="control of device (Defined in OSAL Wrapper implementation files).">
<polygon fill="white" stroke="black" points="511,-245.5 511,-264.5 639,-264.5 639,-245.5 511,-245.5"/>
<text text-anchor="middle" x="575" y="-252.5" font-family="Helvetica,sans-Serif" font-size="10.00">st_osal_device_control</text>
</a>
</g>
</g>
<!-- Node8&#45;&gt;Node15 -->
<g id="edge19" class="edge">
<title>Node8&#45;&gt;Node15</title>
<path fill="none" stroke="#9a32cd" stroke-dasharray="5,2" d="M85.53,-405.13C115.35,-377.54 179.06,-323.31 244,-298 332.28,-263.59 442.89,-255.62 510.98,-254.34"/>
<polygon fill="#9a32cd" stroke="#9a32cd" points="82.93,-402.76 78.04,-412.16 87.73,-407.86 82.93,-402.76"/>
<text text-anchor="middle" x="309" y="-312" font-family="Helvetica,sans-Serif" font-size="10.00"> axi_bus_id</text>
<text text-anchor="middle" x="309" y="-301" font-family="Helvetica,sans-Serif" font-size="10.00">handle_id</text>
</g>
<!-- Node9&#45;&gt;Node7 -->
<g id="edge8" class="edge">
<title>Node9&#45;&gt;Node7</title>
<path fill="none" stroke="#9a32cd" stroke-dasharray="5,2" d="M375.37,-425.87C410.29,-427.32 454.01,-428.16 493,-426 498.93,-425.67 505.1,-425.21 511.26,-424.66"/>
<polygon fill="#9a32cd" stroke="#9a32cd" points="375.44,-422.37 365.29,-425.43 375.13,-429.36 375.44,-422.37"/>
<text text-anchor="middle" x="442.5" y="-430" font-family="Helvetica,sans-Serif" font-size="10.00"> usr_config</text>
</g>
<!-- Node10 -->
<g id="node10" class="node">
<title>Node10</title>
<g id="a_node10"><a xlink:title=" ">
<polygon fill="white" stroke="#bfbfbf" points="284,-329.5 284,-348.5 334,-348.5 334,-329.5 284,-329.5"/>
<text text-anchor="middle" x="309" y="-336.5" font-family="Helvetica,sans-Serif" font-size="10.00">int64_t</text>
</a>
</g>
</g>
<!-- Node10&#45;&gt;Node7 -->
<g id="edge10" class="edge">
<title>Node10&#45;&gt;Node7</title>
<path fill="none" stroke="#9a32cd" stroke-dasharray="5,2" d="M344.14,-341.82C390.09,-346.14 468.87,-355.56 493,-371 504.84,-378.57 499.7,-388.65 511,-397 516.91,-401.36 523.8,-404.8 530.81,-407.49"/>
<polygon fill="#9a32cd" stroke="#9a32cd" points="344.32,-338.32 334.04,-340.9 343.69,-345.29 344.32,-338.32"/>
<text text-anchor="middle" x="442.5" y="-374" font-family="Helvetica,sans-Serif" font-size="10.00"> inner_timeout</text>
</g>
<!-- Node10&#45;&gt;Node15 -->
<g id="edge20" class="edge">
<title>Node10&#45;&gt;Node15</title>
<path fill="none" stroke="#9a32cd" stroke-dasharray="5,2" d="M343.82,-327.35C353.74,-323.52 364.48,-318.96 374,-314 382.53,-309.56 383.17,-305.8 392,-302 434.3,-283.82 448.46,-290.66 493,-279 509.74,-274.62 528.26,-269.18 543.36,-264.58"/>
<polygon fill="#9a32cd" stroke="#9a32cd" points="342.39,-324.15 334.25,-330.93 344.84,-330.71 342.39,-324.15"/>
<text text-anchor="middle" x="442.5" y="-305" font-family="Helvetica,sans-Serif" font-size="10.00"> inner_timeout</text>
</g>
<!-- Node11 -->
<g id="node11" class="node">
<title>Node11</title>
<g id="a_node11"><a xlink:title=" ">
<polygon fill="white" stroke="#bfbfbf" points="290,-564.5 290,-583.5 328,-583.5 328,-564.5 290,-564.5"/>
<text text-anchor="middle" x="309" y="-571.5" font-family="Helvetica,sans-Serif" font-size="10.00">bool</text>
</a>
</g>
</g>
<!-- Node11&#45;&gt;Node7 -->
<g id="edge11" class="edge">
<title>Node11&#45;&gt;Node7</title>
<path fill="none" stroke="#9a32cd" stroke-dasharray="5,2" d="M337.9,-579.91C377.97,-586.61 451.54,-591.95 493,-552 529.93,-516.41 477.84,-477.14 511,-438 515.1,-433.16 520.34,-429.43 526.05,-426.56"/>
<polygon fill="#9a32cd" stroke="#9a32cd" points="338.47,-576.46 328,-578.11 337.22,-583.35 338.47,-576.46"/>
<text text-anchor="middle" x="442.5" y="-598" font-family="Helvetica,sans-Serif" font-size="10.00"> active</text>
<text text-anchor="middle" x="442.5" y="-587" font-family="Helvetica,sans-Serif" font-size="10.00">use</text>
</g>
<!-- Node11&#45;&gt;Node15 -->
<g id="edge22" class="edge">
<title>Node11&#45;&gt;Node15</title>
<path fill="none" stroke="#9a32cd" stroke-dasharray="5,2" d="M327.8,-557.38C343.98,-542.63 368.79,-520.87 392,-504 434.6,-473.03 464.14,-486.06 493,-442 524.48,-393.95 484.53,-364.98 511,-314 522.05,-292.72 543.9,-274.99 558.73,-264.69"/>
<polygon fill="#9a32cd" stroke="#9a32cd" points="325.17,-555.05 320.18,-564.39 329.91,-560.2 325.17,-555.05"/>
<text text-anchor="middle" x="442.5" y="-540" font-family="Helvetica,sans-Serif" font-size="10.00"> active</text>
<text text-anchor="middle" x="442.5" y="-529" font-family="Helvetica,sans-Serif" font-size="10.00">init_state</text>
<text text-anchor="middle" x="442.5" y="-518" font-family="Helvetica,sans-Serif" font-size="10.00">pm_wait_state</text>
<text text-anchor="middle" x="442.5" y="-507" font-family="Helvetica,sans-Serif" font-size="10.00">use</text>
</g>
<!-- Node11&#45;&gt;Node28 -->
<g id="edge36" class="edge">
<title>Node11&#45;&gt;Node28</title>
<path fill="none" stroke="#9a32cd" stroke-dasharray="5,2" d="M335.42,-588.66C391.32,-619.93 530.02,-692.33 657,-717 705.86,-726.49 720.39,-727.7 769,-717 795.5,-711.17 823.55,-696.39 840.28,-686.53"/>
<polygon fill="#9a32cd" stroke="#9a32cd" points="337,-585.53 326.57,-583.66 333.56,-591.63 337,-585.53"/>
<text text-anchor="middle" x="575" y="-770" font-family="Helvetica,sans-Serif" font-size="10.00"> ActMonError0</text>
<text text-anchor="middle" x="575" y="-759" font-family="Helvetica,sans-Serif" font-size="10.00">ActMonError1</text>
<text text-anchor="middle" x="575" y="-748" font-family="Helvetica,sans-Serif" font-size="10.00">MonitorStatus</text>
<text text-anchor="middle" x="575" y="-737" font-family="Helvetica,sans-Serif" font-size="10.00">ParameterError</text>
<text text-anchor="middle" x="575" y="-726" font-family="Helvetica,sans-Serif" font-size="10.00">VocMonitorStatus</text>
<text text-anchor="middle" x="575" y="-715" font-family="Helvetica,sans-Serif" font-size="10.00">VomError</text>
</g>
<!-- Node12 -->
<g id="node12" class="node">
<title>Node12</title>
<g id="a_node12"><a xlink:title=" ">
<polygon fill="white" stroke="#bfbfbf" points="251,-368.5 251,-387.5 367,-387.5 367,-368.5 251,-368.5"/>
<text text-anchor="middle" x="309" y="-375.5" font-family="Helvetica,sans-Serif" font-size="10.00">SemaphoreHandle_t</text>
</a>
</g>
</g>
<!-- Node12&#45;&gt;Node7 -->
<g id="edge12" class="edge">
<title>Node12&#45;&gt;Node7</title>
<path fill="none" stroke="#9a32cd" stroke-dasharray="5,2" d="M377.08,-384.65C411.79,-388.44 454.78,-393.7 493,-400 505.76,-402.1 519.56,-404.83 532.09,-407.48"/>
<polygon fill="#9a32cd" stroke="#9a32cd" points="377.38,-381.16 367.06,-383.57 376.63,-388.12 377.38,-381.16"/>
<text text-anchor="middle" x="442.5" y="-414" font-family="Helvetica,sans-Serif" font-size="10.00"> inner_mtx</text>
<text text-anchor="middle" x="442.5" y="-403" font-family="Helvetica,sans-Serif" font-size="10.00">mtx</text>
</g>
<!-- Node12&#45;&gt;Node15 -->
<g id="edge30" class="edge">
<title>Node12&#45;&gt;Node15</title>
<path fill="none" stroke="#9a32cd" stroke-dasharray="5,2" d="M362.98,-364.43C366.85,-362.55 370.58,-360.42 374,-358 384.89,-350.31 380.75,-341.15 392,-334 430.7,-309.41 451.01,-331.41 493,-313 520.88,-300.78 548.71,-277.95 563.38,-264.87"/>
<polygon fill="#9a32cd" stroke="#9a32cd" points="361.55,-361.23 353.73,-368.38 364.3,-367.67 361.55,-361.23"/>
<text text-anchor="middle" x="442.5" y="-337" font-family="Helvetica,sans-Serif" font-size="10.00"> inner_mtx</text>
</g>
<!-- Node13 -->
<g id="node13" class="node">
<title>Node13</title>
<g id="a_node13"><a xlink:title=" ">
<polygon fill="white" stroke="#bfbfbf" points="533.5,-368.5 533.5,-387.5 616.5,-387.5 616.5,-368.5 533.5,-368.5"/>
<text text-anchor="middle" x="575" y="-375.5" font-family="Helvetica,sans-Serif" font-size="10.00">r_vsp2_Unit_t</text>
</a>
</g>
</g>
<!-- Node13&#45;&gt;Node6 -->
<g id="edge13" class="edge">
<title>Node13&#45;&gt;Node6</title>
<path fill="none" stroke="#9a32cd" stroke-dasharray="5,2" d="M627.08,-372.01C667.74,-369.57 724.93,-371.48 769,-394 779.95,-399.59 776.63,-408.4 787,-415 793.04,-418.84 799.86,-421.92 806.8,-424.38"/>
<polygon fill="#9a32cd" stroke="#9a32cd" points="626.58,-368.54 616.86,-372.73 627.08,-375.52 626.58,-368.54"/>
<text text-anchor="middle" x="713" y="-397" font-family="Helvetica,sans-Serif" font-size="10.00"> VspdUnit</text>
</g>
<!-- Node14 -->
<g id="node14" class="node">
<title>Node14</title>
<g id="a_node14"><a xlink:title=" ">
<polygon fill="white" stroke="#bfbfbf" points="560.5,-323.5 560.5,-342.5 589.5,-342.5 589.5,-323.5 560.5,-323.5"/>
<text text-anchor="middle" x="575" y="-330.5" font-family="Helvetica,sans-Serif" font-size="10.00">int</text>
</a>
</g>
</g>
<!-- Node14&#45;&gt;Node6 -->
<g id="edge15" class="edge">
<title>Node14&#45;&gt;Node6</title>
<path fill="none" stroke="#9a32cd" stroke-dasharray="5,2" d="M599.46,-326.55C639.25,-317.14 720.4,-304.84 769,-345 793.76,-365.46 764.5,-392.07 787,-415 790.8,-418.88 795.32,-421.98 800.2,-424.46"/>
<polygon fill="#9a32cd" stroke="#9a32cd" points="598.46,-323.19 589.61,-329.02 600.16,-329.98 598.46,-323.19"/>
<text text-anchor="middle" x="713" y="-359" font-family="Helvetica,sans-Serif" font-size="10.00"> IrqVspdDiscomQuit</text>
<text text-anchor="middle" x="713" y="-348" font-family="Helvetica,sans-Serif" font-size="10.00">IrqVspdQuit</text>
</g>
<!-- Node15&#45;&gt;Node1 -->
<g id="edge37" class="edge">
<title>Node15&#45;&gt;Node1</title>
<path fill="none" stroke="#9a32cd" stroke-dasharray="5,2" d="M649.3,-252.15C686.03,-252.75 730.73,-256.62 769,-269 887.47,-307.33 922.88,-326.39 1005,-420 1044.66,-465.21 1069.7,-534.79 1077.97,-560.24"/>
<polygon fill="#9a32cd" stroke="#9a32cd" points="649.19,-248.65 639.16,-252.06 649.13,-255.65 649.19,-248.65"/>
<text text-anchor="middle" x="856.5" y="-344" font-family="Helvetica,sans-Serif" font-size="10.00"> doc_device_handle</text>
</g>
<!-- Node15&#45;&gt;Node6 -->
<g id="edge16" class="edge">
<title>Node15&#45;&gt;Node6</title>
<path fill="none" stroke="#9a32cd" stroke-dasharray="5,2" d="M649.23,-264.89C700.19,-272.47 760.49,-283.1 769,-292 807.2,-331.92 750.45,-373.56 787,-415 790.35,-418.79 794.38,-421.86 798.79,-424.34"/>
<polygon fill="#9a32cd" stroke="#9a32cd" points="649.58,-261.41 639.18,-263.42 648.56,-268.33 649.58,-261.41"/>
<text text-anchor="middle" x="713" y="-306" font-family="Helvetica,sans-Serif" font-size="10.00"> device_handle</text>
<text text-anchor="middle" x="713" y="-295" font-family="Helvetica,sans-Serif" font-size="10.00">discom_device_handle</text>
</g>
<!-- Node16 -->
<g id="node16" class="node">
<title>Node16</title>
<g id="a_node16"><a xlink:title=" ">
<polygon fill="white" stroke="#bfbfbf" points="244,-232.5 244,-251.5 374,-251.5 374,-232.5 244,-232.5"/>
<text text-anchor="middle" x="309" y="-239.5" font-family="Helvetica,sans-Serif" font-size="10.00">enum e_osal_pm_state</text>
</a>
</g>
</g>
<!-- Node16&#45;&gt;Node15 -->
<g id="edge17" class="edge">
<title>Node16&#45;&gt;Node15</title>
<path fill="none" stroke="#9a32cd" stroke-dasharray="5,2" d="M384.15,-240.03C417.47,-239.75 457.26,-240.27 493,-243 500.65,-243.58 508.68,-244.46 516.59,-245.47"/>
<polygon fill="#9a32cd" stroke="#9a32cd" points="383.99,-236.53 374.03,-240.13 384.07,-243.53 383.99,-236.53"/>
<text text-anchor="middle" x="442.5" y="-246" font-family="Helvetica,sans-Serif" font-size="10.00"> lowest_power_state</text>
</g>
<!-- Node17 -->
<g id="node17" class="node">
<title>Node17</title>
<g id="a_node17"><a xlink:title=" ">
<polygon fill="white" stroke="#bfbfbf" points="259,-194.5 259,-213.5 359,-213.5 359,-194.5 259,-194.5"/>
<text text-anchor="middle" x="309" y="-201.5" font-family="Helvetica,sans-Serif" font-size="10.00">st_pma_handle_t</text>
</a>
</g>
</g>
<!-- Node17&#45;&gt;Node15 -->
<g id="edge18" class="edge">
<title>Node17&#45;&gt;Node15</title>
<path fill="none" stroke="#9a32cd" stroke-dasharray="5,2" d="M369.46,-207.19C405.57,-210.03 452.38,-215.3 493,-225 513.71,-229.95 536.37,-238.64 552.44,-245.39"/>
<polygon fill="#9a32cd" stroke="#9a32cd" points="369.33,-203.68 359.1,-206.42 368.82,-210.66 369.33,-203.68"/>
<text text-anchor="middle" x="442.5" y="-228" font-family="Helvetica,sans-Serif" font-size="10.00"> pma_handle</text>
</g>
<!-- Node18 -->
<g id="node18" class="node">
<title>Node18</title>
<g id="a_node18"><a xlink:title=" ">
<polygon fill="white" stroke="#bfbfbf" points="266,-156.5 266,-175.5 352,-175.5 352,-156.5 266,-156.5"/>
<text text-anchor="middle" x="309" y="-163.5" font-family="Helvetica,sans-Serif" font-size="10.00">base_mutex_t</text>
</a>
</g>
</g>
<!-- Node18&#45;&gt;Node15 -->
<g id="edge21" class="edge">
<title>Node18&#45;&gt;Node15</title>
<path fill="none" stroke="#9a32cd" stroke-dasharray="5,2" d="M362.48,-167.69C400.08,-170.46 451.25,-177.48 493,-195 522.05,-207.19 550.29,-231.9 564.5,-245.5"/>
<polygon fill="#9a32cd" stroke="#9a32cd" points="362.46,-164.18 352.25,-167.01 362,-171.16 362.46,-164.18"/>
<text text-anchor="middle" x="442.5" y="-198" font-family="Helvetica,sans-Serif" font-size="10.00"> inner_mtx</text>
</g>
<!-- Node19 -->
<g id="node19" class="node">
<title>Node19</title>
<g id="a_node19"><a xlink:href="structst__osal__device__info.html" target="_top" xlink:title=" ">
<polygon fill="white" stroke="black" points="252.5,-118.5 252.5,-137.5 365.5,-137.5 365.5,-118.5 252.5,-118.5"/>
<text text-anchor="middle" x="309" y="-125.5" font-family="Helvetica,sans-Serif" font-size="10.00">st_osal_device_info</text>
</a>
</g>
</g>
<!-- Node19&#45;&gt;Node15 -->
<g id="edge23" class="edge">
<title>Node19&#45;&gt;Node15</title>
<path fill="none" stroke="#9a32cd" stroke-dasharray="5,2" d="M375.89,-127.27C412.49,-129.5 457.63,-136.81 493,-157 530.77,-178.55 558.37,-224.97 569.09,-245.22"/>
<polygon fill="#9a32cd" stroke="#9a32cd" points="375.97,-123.77 365.81,-126.76 375.63,-130.76 375.97,-123.77"/>
<text text-anchor="middle" x="442.5" y="-160" font-family="Helvetica,sans-Serif" font-size="10.00"> dev_info</text>
</g>
<!-- Node20 -->
<g id="node20" class="node">
<title>Node20</title>
<g id="a_node20"><a xlink:title=" ">
<polygon fill="white" stroke="#bfbfbf" points="18,-97.5 18,-116.5 116,-116.5 116,-97.5 18,-97.5"/>
<text text-anchor="middle" x="67" y="-104.5" font-family="Helvetica,sans-Serif" font-size="10.00">e_pma_hwa_id_t</text>
</a>
</g>
</g>
<!-- Node20&#45;&gt;Node19 -->
<g id="edge24" class="edge">
<title>Node20&#45;&gt;Node19</title>
<path fill="none" stroke="#9a32cd" stroke-dasharray="5,2" d="M126.33,-110.96C156.17,-113.11 193.04,-115.94 226,-119 234.56,-119.79 243.61,-120.71 252.45,-121.65"/>
<polygon fill="#9a32cd" stroke="#9a32cd" points="126.31,-107.45 116.09,-110.23 125.82,-114.43 126.31,-107.45"/>
<text text-anchor="middle" x="189" y="-122" font-family="Helvetica,sans-Serif" font-size="10.00"> pm_id</text>
</g>
<!-- Node21 -->
<g id="node21" class="node">
<title>Node21</title>
<g id="a_node21"><a xlink:title=" ">
<polygon fill="white" stroke="#bfbfbf" points="48,-45.5 48,-64.5 86,-64.5 86,-45.5 48,-45.5"/>
<text text-anchor="middle" x="67" y="-52.5" font-family="Helvetica,sans-Serif" font-size="10.00">char</text>
</a>
</g>
</g>
<!-- Node21&#45;&gt;Node19 -->
<g id="edge25" class="edge">
<title>Node21&#45;&gt;Node19</title>
<path fill="none" stroke="#9a32cd" stroke-dasharray="5,2" d="M96.2,-55.12C128.49,-56.08 182.54,-60.2 226,-76 253.57,-86.02 281.54,-106.44 296.64,-118.5"/>
<polygon fill="#9a32cd" stroke="#9a32cd" points="96.2,-51.62 86.13,-54.91 96.05,-58.62 96.2,-51.62"/>
<text text-anchor="middle" x="189" y="-101" font-family="Helvetica,sans-Serif" font-size="10.00"> axi_bus_name</text>
<text text-anchor="middle" x="189" y="-90" font-family="Helvetica,sans-Serif" font-size="10.00">id</text>
<text text-anchor="middle" x="189" y="-79" font-family="Helvetica,sans-Serif" font-size="10.00">type</text>
</g>
<!-- Node22 -->
<g id="node22" class="node">
<title>Node22</title>
<g id="a_node22"><a xlink:title=" ">
<polygon fill="white" stroke="#bfbfbf" points="44.5,-0.5 44.5,-19.5 89.5,-19.5 89.5,-0.5 44.5,-0.5"/>
<text text-anchor="middle" x="67" y="-7.5" font-family="Helvetica,sans-Serif" font-size="10.00">size_t</text>
</a>
</g>
</g>
<!-- Node22&#45;&gt;Node19 -->
<g id="edge26" class="edge">
<title>Node22&#45;&gt;Node19</title>
<path fill="none" stroke="#9a32cd" stroke-dasharray="5,2" d="M99.79,-8.58C133.23,-8.46 186.39,-12.25 226,-34 263.21,-54.43 291.51,-98.68 302.73,-118.3"/>
<polygon fill="#9a32cd" stroke="#9a32cd" points="99.61,-5.09 89.67,-8.74 99.72,-12.08 99.61,-5.09"/>
<text text-anchor="middle" x="189" y="-48" font-family="Helvetica,sans-Serif" font-size="10.00"> irq_channels</text>
<text text-anchor="middle" x="189" y="-37" font-family="Helvetica,sans-Serif" font-size="10.00">range</text>
</g>
<!-- Node23 -->
<g id="node23" class="node">
<title>Node23</title>
<g id="a_node23"><a xlink:title=" ">
<polygon fill="white" stroke="#bfbfbf" points="0,-211.5 0,-230.5 134,-230.5 134,-211.5 0,-211.5"/>
<text text-anchor="middle" x="67" y="-218.5" font-family="Helvetica,sans-Serif" font-size="10.00">enum e_osal_pm_policy</text>
</a>
</g>
</g>
<!-- Node23&#45;&gt;Node19 -->
<g id="edge27" class="edge">
<title>Node23&#45;&gt;Node19</title>
<path fill="none" stroke="#9a32cd" stroke-dasharray="5,2" d="M144.44,-218.76C172.6,-214.51 203.17,-205.46 226,-187 241.16,-174.74 229.32,-159.83 244,-147 248.45,-143.11 253.67,-140.02 259.17,-137.55"/>
<polygon fill="#9a32cd" stroke="#9a32cd" points="143.64,-215.33 134.19,-220.12 144.56,-222.27 143.64,-215.33"/>
<text text-anchor="middle" x="189" y="-221" font-family="Helvetica,sans-Serif" font-size="10.00"> initial_policy</text>
</g>
<!-- Node24 -->
<g id="node24" class="node">
<title>Node24</title>
<g id="a_node24"><a xlink:href="structst__osal__interrupt__info__t.html" target="_top" xlink:title=" ">
<polygon fill="white" stroke="black" points="1.5,-173.5 1.5,-192.5 132.5,-192.5 132.5,-173.5 1.5,-173.5"/>
<text text-anchor="middle" x="67" y="-180.5" font-family="Helvetica,sans-Serif" font-size="10.00">st_osal_interrupt_info_t</text>
</a>
</g>
</g>
<!-- Node24&#45;&gt;Node19 -->
<g id="edge28" class="edge">
<title>Node24&#45;&gt;Node19</title>
<path fill="none" stroke="#9a32cd" stroke-dasharray="5,2" d="M142.67,-173.58C169.3,-169.23 199.31,-163.16 226,-155 234.37,-152.44 235.79,-150.03 244,-147 253.24,-143.59 263.4,-140.35 272.85,-137.54"/>
<polygon fill="#9a32cd" stroke="#9a32cd" points="141.97,-170.15 132.64,-175.17 143.07,-177.06 141.97,-170.15"/>
<text text-anchor="middle" x="189" y="-175" font-family="Helvetica,sans-Serif" font-size="10.00"> interrupt</text>
</g>
<!-- Node25 -->
<g id="node25" class="node">
<title>Node25</title>
<g id="a_node25"><a xlink:title=" ">
<polygon fill="white" stroke="#bfbfbf" points="38,-135.5 38,-154.5 96,-154.5 96,-135.5 38,-135.5"/>
<text text-anchor="middle" x="67" y="-142.5" font-family="Helvetica,sans-Serif" font-size="10.00">uintptr_t</text>
</a>
</g>
</g>
<!-- Node25&#45;&gt;Node19 -->
<g id="edge29" class="edge">
<title>Node25&#45;&gt;Node19</title>
<path fill="none" stroke="#9a32cd" stroke-dasharray="5,2" d="M106,-142.31C145.44,-139.51 207.53,-135.12 252.47,-131.93"/>
<polygon fill="#9a32cd" stroke="#9a32cd" points="105.73,-138.82 96,-143.02 106.22,-145.8 105.73,-138.82"/>
<text text-anchor="middle" x="189" y="-143" font-family="Helvetica,sans-Serif" font-size="10.00"> address</text>
</g>
<!-- Node26 -->
<g id="node26" class="node">
<title>Node26</title>
<g id="a_node26"><a xlink:title=" ">
<polygon fill="white" stroke="#bfbfbf" points="552,-447.5 552,-466.5 598,-466.5 598,-447.5 552,-447.5"/>
<text text-anchor="middle" x="575" y="-454.5" font-family="Helvetica,sans-Serif" font-size="10.00">void *</text>
</a>
</g>
</g>
<!-- Node26&#45;&gt;Node6 -->
<g id="edge31" class="edge">
<title>Node26&#45;&gt;Node6</title>
<path fill="none" stroke="#9a32cd" stroke-dasharray="5,2" d="M608.41,-454.33C651.87,-450.76 730.13,-444.32 786.96,-439.64"/>
<polygon fill="#9a32cd" stroke="#9a32cd" points="608.08,-450.85 598.4,-455.16 608.65,-457.82 608.08,-450.85"/>
<text text-anchor="middle" x="713" y="-453" font-family="Helvetica,sans-Serif" font-size="10.00"> DiscomCbArg</text>
</g>
<!-- Node27 -->
<g id="node27" class="node">
<title>Node27</title>
<g id="a_node27"><a xlink:title=" ">
<polygon fill="white" stroke="#bfbfbf" points="820.5,-386.5 820.5,-405.5 892.5,-405.5 892.5,-386.5 820.5,-386.5"/>
<text text-anchor="middle" x="856.5" y="-393.5" font-family="Helvetica,sans-Serif" font-size="10.00">r_du_Unit_t</text>
</a>
</g>
</g>
<!-- Node27&#45;&gt;Node1 -->
<g id="edge33" class="edge">
<title>Node27&#45;&gt;Node1</title>
<path fill="none" stroke="#9a32cd" stroke-dasharray="5,2" d="M902.3,-405.84C910.39,-408.34 918.6,-411.37 926,-415 965.34,-434.3 973.58,-443.45 1005,-474 1034.26,-502.45 1062.38,-542.23 1074.61,-560.33"/>
<polygon fill="#9a32cd" stroke="#9a32cd" points="903.14,-402.44 892.56,-403.06 901.22,-409.17 903.14,-402.44"/>
<text text-anchor="middle" x="974.5" y="-477" font-family="Helvetica,sans-Serif" font-size="10.00"> DuUnit</text>
</g>
<!-- Node28&#45;&gt;Node1 -->
<g id="edge34" class="edge">
<title>Node28&#45;&gt;Node1</title>
<path fill="none" stroke="#9a32cd" stroke-dasharray="5,2" d="M897.51,-664.15C906.96,-660.8 916.93,-656.99 926,-653 978.53,-629.9 1037.5,-595.96 1065.12,-579.57"/>
<polygon fill="#9a32cd" stroke="#9a32cd" points="896.21,-660.9 887.9,-667.47 898.49,-667.51 896.21,-660.9"/>
<text text-anchor="middle" x="974.5" y="-646" font-family="Helvetica,sans-Serif" font-size="10.00"> DocStatus</text>
</g>
</g>
</svg>
