<?xml version="1.0" encoding="UTF-8" standalone="no"?>
<!DOCTYPE svg PUBLIC "-//W3C//DTD SVG 1.1//EN"
 "http://www.w3.org/Graphics/SVG/1.1/DTD/svg11.dtd">
<!-- Generated by graphviz version 2.43.0 (0)
 -->
<!-- Title: taurus_rvgc_ioc_display_get_info_out Pages: 1 -->
<svg width="142pt" height="139pt"
 viewBox="0.00 0.00 142.00 139.00" xmlns="http://www.w3.org/2000/svg" xmlns:xlink="http://www.w3.org/1999/xlink">
<g id="graph0" class="graph" transform="scale(1 1) rotate(0) translate(4 135)">
<title>taurus_rvgc_ioc_display_get_info_out</title>
<polygon fill="white" stroke="transparent" points="-4,4 -4,-135 138,-135 138,4 -4,4"/>
<!-- Node1 -->
<g id="node1" class="node">
<title>Node1</title>
<g id="a_node1"><a xlink:title=" ">
<polygon fill="#bfbfbf" stroke="black" points="0,-0.5 0,-30.5 134,-30.5 134,-0.5 0,-0.5"/>
<text text-anchor="start" x="8" y="-18.5" font-family="Helvetica,sans-Serif" font-size="10.00">taurus_rvgc_ioc_display</text>
<text text-anchor="middle" x="67" y="-7.5" font-family="Helvetica,sans-Serif" font-size="10.00">_get_info_out</text>
</a>
</g>
</g>
<!-- Node2 -->
<g id="node2" class="node">
<title>Node2</title>
<g id="a_node2"><a xlink:title=" ">
<polygon fill="white" stroke="#bfbfbf" points="2,-111.5 2,-130.5 58,-130.5 58,-111.5 2,-111.5"/>
<text text-anchor="middle" x="30" y="-118.5" font-family="Helvetica,sans-Serif" font-size="10.00">uint64_t</text>
</a>
</g>
</g>
<!-- Node2&#45;&gt;Node1 -->
<g id="edge1" class="edge">
<title>Node2&#45;&gt;Node1</title>
<path fill="none" stroke="#9a32cd" stroke-dasharray="5,2" d="M32.4,-101.11C34.7,-86.48 38.9,-65.91 46,-49 48.65,-42.68 52.53,-36.24 56.23,-30.77"/>
<polygon fill="#9a32cd" stroke="#9a32cd" points="28.89,-101.01 30.95,-111.4 35.82,-101.99 28.89,-101.01"/>
<text text-anchor="middle" x="64" y="-74" font-family="Helvetica,sans-Serif" font-size="10.00"> cookie</text>
<text text-anchor="middle" x="64" y="-63" font-family="Helvetica,sans-Serif" font-size="10.00">res</text>
</g>
<!-- Node3 -->
<g id="node3" class="node">
<title>Node3</title>
<g id="a_node3"><a xlink:title=" ">
<polygon fill="white" stroke="#bfbfbf" points="76,-111.5 76,-130.5 132,-130.5 132,-111.5 76,-111.5"/>
<text text-anchor="middle" x="104" y="-118.5" font-family="Helvetica,sans-Serif" font-size="10.00">uint32_t</text>
</a>
</g>
</g>
<!-- Node3&#45;&gt;Node1 -->
<g id="edge2" class="edge">
<title>Node3&#45;&gt;Node1</title>
<path fill="none" stroke="#9a32cd" stroke-dasharray="5,2" d="M98.96,-101.39C94.87,-86.94 88.71,-66.47 82,-49 79.64,-42.85 76.66,-36.22 73.98,-30.56"/>
<polygon fill="#9a32cd" stroke="#9a32cd" points="95.62,-102.42 101.66,-111.13 102.36,-100.56 95.62,-102.42"/>
<text text-anchor="middle" x="113" y="-85" font-family="Helvetica,sans-Serif" font-size="10.00"> height</text>
<text text-anchor="middle" x="113" y="-74" font-family="Helvetica,sans-Serif" font-size="10.00">layers</text>
<text text-anchor="middle" x="113" y="-63" font-family="Helvetica,sans-Serif" font-size="10.00">pitch</text>
<text text-anchor="middle" x="113" y="-52" font-family="Helvetica,sans-Serif" font-size="10.00">width</text>
</g>
</g>
</svg>
