<?xml version="1.0" encoding="UTF-8" standalone="no"?>
<!DOCTYPE svg PUBLIC "-//W3C//DTD SVG 1.1//EN"
 "http://www.w3.org/Graphics/SVG/1.1/DTD/svg11.dtd">
<!-- Generated by graphviz version 2.43.0 (0)
 -->
<!-- Title: STag_Eth_RxSingleFrameType Pages: 1 -->
<svg width="325pt" height="175pt"
 viewBox="0.00 0.00 324.50 175.00" xmlns="http://www.w3.org/2000/svg" xmlns:xlink="http://www.w3.org/1999/xlink">
<g id="graph0" class="graph" transform="scale(1 1) rotate(0) translate(4 171)">
<title>STag_Eth_RxSingleFrameType</title>
<polygon fill="white" stroke="transparent" points="-4,4 -4,-171 320.5,-171 320.5,4 -4,4"/>
<!-- Node1 -->
<g id="node1" class="node">
<title>Node1</title>
<g id="a_node1"><a xlink:title=" ">
<polygon fill="#bfbfbf" stroke="black" points="0,-0.5 0,-19.5 161,-19.5 161,-0.5 0,-0.5"/>
<text text-anchor="middle" x="80.5" y="-7.5" font-family="Helvetica,sans-Serif" font-size="10.00">STag_Eth_RxSingleFrameType</text>
</a>
</g>
</g>
<!-- Node2 -->
<g id="node2" class="node">
<title>Node2</title>
<g id="a_node2"><a xlink:title=" ">
<polygon fill="white" stroke="#bfbfbf" points="53,-147.5 53,-166.5 138,-166.5 138,-147.5 53,-147.5"/>
<text text-anchor="middle" x="95.5" y="-154.5" font-family="Helvetica,sans-Serif" font-size="10.00">unsigned long</text>
</a>
</g>
</g>
<!-- Node2&#45;&gt;Node1 -->
<g id="edge1" class="edge">
<title>Node2&#45;&gt;Node1</title>
<path fill="none" stroke="#9a32cd" stroke-dasharray="5,2" d="M87.76,-137.75C82.57,-124.5 76.22,-105.98 73.5,-89 69.51,-64.03 75.01,-34.17 78.32,-19.71"/>
<polygon fill="#9a32cd" stroke="#9a32cd" points="84.56,-139.18 91.58,-147.12 91.05,-136.54 84.56,-139.18"/>
<text text-anchor="middle" x="105.5" y="-81" font-family="Helvetica,sans-Serif" font-size="10.00"> FrameAddr</text>
<text text-anchor="middle" x="105.5" y="-70" font-family="Helvetica,sans-Serif" font-size="10.00">FrameLength</text>
</g>
<!-- Node3 -->
<g id="node3" class="node">
<title>Node3</title>
<g id="a_node3"><a xlink:href="structSTag__Eth__TimeStampStoreType.html" target="_top" xlink:title=" ">
<polygon fill="white" stroke="black" points="146.5,-68.5 146.5,-87.5 316.5,-87.5 316.5,-68.5 146.5,-68.5"/>
<text text-anchor="middle" x="231.5" y="-75.5" font-family="Helvetica,sans-Serif" font-size="10.00">STag_Eth_TimeStampStoreType</text>
</a>
</g>
</g>
<!-- Node2&#45;&gt;Node3 -->
<g id="edge3" class="edge">
<title>Node2&#45;&gt;Node3</title>
<path fill="none" stroke="#9a32cd" stroke-dasharray="5,2" d="M113.97,-140.56C126.98,-130.19 145.11,-116.69 162.5,-107 176.39,-99.26 192.86,-92.49 206.23,-87.55"/>
<polygon fill="#9a32cd" stroke="#9a32cd" points="111.41,-138.14 105.86,-147.16 115.83,-143.57 111.41,-138.14"/>
<text text-anchor="middle" x="195" y="-121" font-family="Helvetica,sans-Serif" font-size="10.00"> Timestamp0</text>
<text text-anchor="middle" x="195" y="-110" font-family="Helvetica,sans-Serif" font-size="10.00">Timestamp1</text>
</g>
<!-- Node3&#45;&gt;Node1 -->
<g id="edge2" class="edge">
<title>Node3&#45;&gt;Node1</title>
<path fill="none" stroke="#9a32cd" stroke-dasharray="5,2" d="M202.23,-64.21C172.18,-51.07 126.25,-31 100.25,-19.63"/>
<polygon fill="#9a32cd" stroke="#9a32cd" points="201.19,-67.57 211.76,-68.37 204,-61.16 201.19,-67.57"/>
<text text-anchor="middle" x="194" y="-41" font-family="Helvetica,sans-Serif" font-size="10.00"> Timestamp</text>
</g>
<!-- Node4 -->
<g id="node4" class="node">
<title>Node4</title>
<g id="a_node4"><a xlink:title=" ">
<polygon fill="white" stroke="#bfbfbf" points="187,-147.5 187,-166.5 276,-166.5 276,-147.5 187,-147.5"/>
<text text-anchor="middle" x="231.5" y="-154.5" font-family="Helvetica,sans-Serif" font-size="10.00">unsigned short</text>
</a>
</g>
</g>
<!-- Node4&#45;&gt;Node3 -->
<g id="edge4" class="edge">
<title>Node4&#45;&gt;Node3</title>
<path fill="none" stroke="#9a32cd" stroke-dasharray="5,2" d="M231.5,-137.31C231.5,-121.59 231.5,-99.81 231.5,-87.81"/>
<polygon fill="#9a32cd" stroke="#9a32cd" points="228,-137.47 231.5,-147.47 235,-137.47 228,-137.47"/>
<text text-anchor="middle" x="264" y="-115.5" font-family="Helvetica,sans-Serif" font-size="10.00"> Timestamp2</text>
</g>
</g>
</svg>
