<?xml version="1.0" encoding="UTF-8" standalone="no"?>
<!DOCTYPE svg PUBLIC "-//W3C//DTD SVG 1.1//EN"
 "http://www.w3.org/Graphics/SVG/1.1/DTD/svg11.dtd">
<!-- Generated by graphviz version 2.43.0 (0)
 -->
<!-- Title: st_imrdrv_basic_mainctl_area_t Pages: 1 -->
<svg width="1065pt" height="364pt"
 viewBox="0.00 0.00 1065.00 364.06" xmlns="http://www.w3.org/2000/svg" xmlns:xlink="http://www.w3.org/1999/xlink">
<g id="graph0" class="graph" transform="scale(1 1) rotate(0) translate(4 360.06)">
<title>st_imrdrv_basic_mainctl_area_t</title>
<polygon fill="white" stroke="transparent" points="-4,4 -4,-360.06 1061,-360.06 1061,4 -4,4"/>
<!-- Node1 -->
<g id="node1" class="node">
<title>Node1</title>
<g id="a_node1"><a xlink:title=" ">
<polygon fill="#bfbfbf" stroke="black" points="921,-148.06 921,-178.06 1057,-178.06 1057,-148.06 921,-148.06"/>
<text text-anchor="start" x="929" y="-166.06" font-family="Helvetica,sans-Serif" font-size="10.00">st_imrdrv_basic_mainctl</text>
<text text-anchor="middle" x="989" y="-155.06" font-family="Helvetica,sans-Serif" font-size="10.00">_area_t</text>
</a>
</g>
</g>
<!-- Node2 -->
<g id="node2" class="node">
<title>Node2</title>
<g id="a_node2"><a xlink:href="structst__imrdrv__attr__param__t.html" target="_top" xlink:title=" ">
<polygon fill="white" stroke="black" points="674,-180.56 674,-199.56 805,-199.56 805,-180.56 674,-180.56"/>
<text text-anchor="middle" x="739.5" y="-187.56" font-family="Helvetica,sans-Serif" font-size="10.00">st_imrdrv_attr_param_t</text>
</a>
</g>
</g>
<!-- Node2&#45;&gt;Node1 -->
<g id="edge1" class="edge">
<title>Node2&#45;&gt;Node1</title>
<path fill="none" stroke="#9a32cd" stroke-dasharray="5,2" d="M815.4,-181.89C848.9,-178.23 888.09,-173.96 920.65,-170.4"/>
<polygon fill="#9a32cd" stroke="#9a32cd" points="814.77,-178.44 805.2,-183 815.53,-185.39 814.77,-178.44"/>
<text text-anchor="middle" x="863" y="-184.06" font-family="Helvetica,sans-Serif" font-size="10.00"> attr_param</text>
</g>
<!-- Node3 -->
<g id="node3" class="node">
<title>Node3</title>
<g id="a_node3"><a xlink:href="structst__imrdrv__triangle__mode__t.html" target="_top" xlink:title=" ">
<polygon fill="white" stroke="black" points="458,-220.06 458,-250.06 564,-250.06 564,-220.06 458,-220.06"/>
<text text-anchor="start" x="466" y="-238.06" font-family="Helvetica,sans-Serif" font-size="10.00">st_imrdrv_triangle</text>
<text text-anchor="middle" x="511" y="-227.06" font-family="Helvetica,sans-Serif" font-size="10.00">_mode_t</text>
</a>
</g>
</g>
<!-- Node3&#45;&gt;Node2 -->
<g id="edge2" class="edge">
<title>Node3&#45;&gt;Node2</title>
<path fill="none" stroke="#9a32cd" stroke-dasharray="5,2" d="M574.32,-222.68C610.94,-215.4 656.54,-206.34 690.38,-199.62"/>
<polygon fill="#9a32cd" stroke="#9a32cd" points="573.37,-219.3 564.25,-224.68 574.74,-226.16 573.37,-219.3"/>
<text text-anchor="middle" x="619" y="-224.06" font-family="Helvetica,sans-Serif" font-size="10.00"> triangle_mode</text>
</g>
<!-- Node4 -->
<g id="node4" class="node">
<title>Node4</title>
<g id="a_node4"><a xlink:title=" ">
<polygon fill="white" stroke="#bfbfbf" points="216.5,-225.56 216.5,-244.56 318.5,-244.56 318.5,-225.56 216.5,-225.56"/>
<text text-anchor="middle" x="267.5" y="-232.56" font-family="Helvetica,sans-Serif" font-size="10.00">e_imrdrv_mode_t</text>
</a>
</g>
</g>
<!-- Node4&#45;&gt;Node3 -->
<g id="edge3" class="edge">
<title>Node4&#45;&gt;Node3</title>
<path fill="none" stroke="#9a32cd" stroke-dasharray="5,2" d="M328.63,-235.06C368.38,-235.06 419.95,-235.06 457.94,-235.06"/>
<polygon fill="#9a32cd" stroke="#9a32cd" points="328.54,-231.56 318.54,-235.06 328.54,-238.56 328.54,-231.56"/>
<text text-anchor="middle" x="397" y="-348.06" font-family="Helvetica,sans-Serif" font-size="10.00"> autodg</text>
<text text-anchor="middle" x="397" y="-337.06" font-family="Helvetica,sans-Serif" font-size="10.00">autosg</text>
<text text-anchor="middle" x="397" y="-326.06" font-family="Helvetica,sans-Serif" font-size="10.00">bfe</text>
<text text-anchor="middle" x="397" y="-315.06" font-family="Helvetica,sans-Serif" font-size="10.00">rde</text>
<text text-anchor="middle" x="397" y="-304.06" font-family="Helvetica,sans-Serif" font-size="10.00">shfe</text>
<text text-anchor="middle" x="397" y="-293.06" font-family="Helvetica,sans-Serif" font-size="10.00">shfval</text>
<text text-anchor="middle" x="397" y="-282.06" font-family="Helvetica,sans-Serif" font-size="10.00">tcm</text>
<text text-anchor="middle" x="397" y="-271.06" font-family="Helvetica,sans-Serif" font-size="10.00">tfe</text>
<text text-anchor="middle" x="397" y="-260.06" font-family="Helvetica,sans-Serif" font-size="10.00">tme</text>
<text text-anchor="middle" x="397" y="-249.06" font-family="Helvetica,sans-Serif" font-size="10.00">uvshfe</text>
<text text-anchor="middle" x="397" y="-238.06" font-family="Helvetica,sans-Serif" font-size="10.00">...</text>
</g>
<!-- Node5 -->
<g id="node5" class="node">
<title>Node5</title>
<g id="a_node5"><a xlink:href="structst__imrdrv__data__t.html" target="_top" xlink:title=" ">
<polygon fill="white" stroke="black" points="461.5,-66.56 461.5,-85.56 560.5,-85.56 560.5,-66.56 461.5,-66.56"/>
<text text-anchor="middle" x="511" y="-73.56" font-family="Helvetica,sans-Serif" font-size="10.00">st_imrdrv_data_t</text>
</a>
</g>
</g>
<!-- Node5&#45;&gt;Node2 -->
<g id="edge4" class="edge">
<title>Node5&#45;&gt;Node2</title>
<path fill="none" stroke="#9a32cd" stroke-dasharray="5,2" d="M542.52,-90.04C572.51,-104.36 619.03,-128.13 656,-154.06 664.76,-160.2 664.68,-164.8 674,-170.06 681.45,-174.26 689.9,-177.7 698.17,-180.46"/>
<polygon fill="#9a32cd" stroke="#9a32cd" points="543.93,-86.84 533.4,-85.73 540.94,-93.17 543.93,-86.84"/>
<text text-anchor="middle" x="619" y="-168.06" font-family="Helvetica,sans-Serif" font-size="10.00"> dst_data</text>
<text text-anchor="middle" x="619" y="-157.06" font-family="Helvetica,sans-Serif" font-size="10.00">src_data</text>
</g>
<!-- Node6 -->
<g id="node6" class="node">
<title>Node6</title>
<g id="a_node6"><a xlink:title=" ">
<polygon fill="white" stroke="#bfbfbf" points="18,-112.56 18,-131.56 74,-131.56 74,-112.56 18,-112.56"/>
<text text-anchor="middle" x="46" y="-119.56" font-family="Helvetica,sans-Serif" font-size="10.00">uint32_t</text>
</a>
</g>
</g>
<!-- Node6&#45;&gt;Node5 -->
<g id="edge5" class="edge">
<title>Node6&#45;&gt;Node5</title>
<path fill="none" stroke="#9a32cd" stroke-dasharray="5,2" d="M84.4,-120.76C154.47,-117.95 310.2,-110 440,-91.06 449.72,-89.64 460.1,-87.67 469.82,-85.62"/>
<polygon fill="#9a32cd" stroke="#9a32cd" points="84.15,-117.26 74.3,-121.15 84.42,-124.26 84.15,-117.26"/>
<text text-anchor="middle" x="267.5" y="-151.06" font-family="Helvetica,sans-Serif" font-size="10.00"> height</text>
<text text-anchor="middle" x="267.5" y="-140.06" font-family="Helvetica,sans-Serif" font-size="10.00">phys_addr</text>
<text text-anchor="middle" x="267.5" y="-129.06" font-family="Helvetica,sans-Serif" font-size="10.00">stride</text>
<text text-anchor="middle" x="267.5" y="-118.06" font-family="Helvetica,sans-Serif" font-size="10.00">width</text>
</g>
<!-- Node7 -->
<g id="node7" class="node">
<title>Node7</title>
<g id="a_node7"><a xlink:href="structst__imrdrv__uv__setting__t.html" target="_top" xlink:title=" ">
<polygon fill="white" stroke="black" points="203.5,-28.56 203.5,-47.56 331.5,-47.56 331.5,-28.56 203.5,-28.56"/>
<text text-anchor="middle" x="267.5" y="-35.56" font-family="Helvetica,sans-Serif" font-size="10.00">st_imrdrv_uv_setting_t</text>
</a>
</g>
</g>
<!-- Node6&#45;&gt;Node7 -->
<g id="edge7" class="edge">
<title>Node6&#45;&gt;Node7</title>
<path fill="none" stroke="#9a32cd" stroke-dasharray="5,2" d="M70.46,-107.13C82.07,-100.14 96.46,-92.06 110,-86.06 148.07,-69.19 193.82,-55.91 225.99,-47.63"/>
<polygon fill="#9a32cd" stroke="#9a32cd" points="68.51,-104.22 61.82,-112.43 72.18,-110.18 68.51,-104.22"/>
<text text-anchor="middle" x="145.5" y="-100.06" font-family="Helvetica,sans-Serif" font-size="10.00"> uv_phys_addr</text>
<text text-anchor="middle" x="145.5" y="-89.06" font-family="Helvetica,sans-Serif" font-size="10.00">uv_stride</text>
</g>
<!-- Node10 -->
<g id="node10" class="node">
<title>Node10</title>
<g id="a_node10"><a xlink:href="structst__imrdrv__dl__t.html" target="_top" xlink:title=" ">
<polygon fill="white" stroke="black" points="354,-182.56 354,-201.56 440,-201.56 440,-182.56 354,-182.56"/>
<text text-anchor="middle" x="397" y="-189.56" font-family="Helvetica,sans-Serif" font-size="10.00">st_imrdrv_dl_t</text>
</a>
</g>
</g>
<!-- Node6&#45;&gt;Node10 -->
<g id="edge12" class="edge">
<title>Node6&#45;&gt;Node10</title>
<path fill="none" stroke="#9a32cd" stroke-dasharray="5,2" d="M81.6,-135.11C112.08,-146.09 157.89,-161.36 199,-170.06 251.69,-181.21 313.58,-186.95 353.73,-189.72"/>
<polygon fill="#9a32cd" stroke="#9a32cd" points="82.47,-131.7 71.88,-131.57 80.08,-138.28 82.47,-131.7"/>
<text text-anchor="middle" x="145.5" y="-169.06" font-family="Helvetica,sans-Serif" font-size="10.00"> phys_addr</text>
</g>
<!-- Node7&#45;&gt;Node5 -->
<g id="edge6" class="edge">
<title>Node7&#45;&gt;Node5</title>
<path fill="none" stroke="#9a32cd" stroke-dasharray="5,2" d="M341.91,-46.63C372.35,-50.51 407.96,-55.48 440,-61.06 449.06,-62.63 458.73,-64.55 467.9,-66.48"/>
<polygon fill="#9a32cd" stroke="#9a32cd" points="342.16,-43.13 331.8,-45.35 341.29,-50.08 342.16,-43.13"/>
<text text-anchor="middle" x="397" y="-64.06" font-family="Helvetica,sans-Serif" font-size="10.00"> uv_set</text>
</g>
<!-- Node8 -->
<g id="node8" class="node">
<title>Node8</title>
<g id="a_node8"><a xlink:title=" ">
<polygon fill="white" stroke="#bfbfbf" points="0,-7.56 0,-26.56 92,-26.56 92,-7.56 0,-7.56"/>
<text text-anchor="middle" x="46" y="-14.56" font-family="Helvetica,sans-Serif" font-size="10.00">e_imrdrv_bpp_t</text>
</a>
</g>
</g>
<!-- Node8&#45;&gt;Node5 -->
<g id="edge10" class="edge">
<title>Node8&#45;&gt;Node5</title>
<path fill="none" stroke="#9a32cd" stroke-dasharray="5,2" d="M102.59,-8.75C161.12,-1.53 255.74,5.79 336,-8.06 396.09,-18.43 461.76,-50.24 492.41,-66.41"/>
<polygon fill="#9a32cd" stroke="#9a32cd" points="101.92,-5.31 92.45,-10.04 102.81,-12.25 101.92,-5.31"/>
<text text-anchor="middle" x="267.5" y="-11.06" font-family="Helvetica,sans-Serif" font-size="10.00"> bpp</text>
</g>
<!-- Node8&#45;&gt;Node7 -->
<g id="edge8" class="edge">
<title>Node8&#45;&gt;Node7</title>
<path fill="none" stroke="#9a32cd" stroke-dasharray="5,2" d="M102.34,-22.35C133.11,-25.3 171.52,-28.97 203.45,-32.03"/>
<polygon fill="#9a32cd" stroke="#9a32cd" points="102.5,-18.85 92.21,-21.38 101.84,-25.82 102.5,-18.85"/>
<text text-anchor="middle" x="145.5" y="-33.06" font-family="Helvetica,sans-Serif" font-size="10.00"> uv_bpp</text>
</g>
<!-- Node9 -->
<g id="node9" class="node">
<title>Node9</title>
<g id="a_node9"><a xlink:title=" ">
<polygon fill="white" stroke="#bfbfbf" points="199,-66.56 199,-85.56 336,-85.56 336,-66.56 199,-66.56"/>
<text text-anchor="middle" x="267.5" y="-73.56" font-family="Helvetica,sans-Serif" font-size="10.00">e_imrdrv_color_format_t</text>
</a>
</g>
</g>
<!-- Node9&#45;&gt;Node5 -->
<g id="edge9" class="edge">
<title>Node9&#45;&gt;Node5</title>
<path fill="none" stroke="#9a32cd" stroke-dasharray="5,2" d="M346.54,-76.06C384.25,-76.06 428.33,-76.06 461.21,-76.06"/>
<polygon fill="#9a32cd" stroke="#9a32cd" points="346.09,-72.56 336.09,-76.06 346.09,-79.56 346.09,-72.56"/>
<text text-anchor="middle" x="397" y="-79.06" font-family="Helvetica,sans-Serif" font-size="10.00"> color_format</text>
</g>
<!-- Node10&#45;&gt;Node2 -->
<g id="edge11" class="edge">
<title>Node10&#45;&gt;Node2</title>
<path fill="none" stroke="#9a32cd" stroke-dasharray="5,2" d="M450.11,-191.75C510.17,-191.4 608.91,-190.82 673.82,-190.44"/>
<polygon fill="#9a32cd" stroke="#9a32cd" points="450.07,-188.25 440.09,-191.81 450.11,-195.25 450.07,-188.25"/>
<text text-anchor="middle" x="511" y="-195.06" font-family="Helvetica,sans-Serif" font-size="10.00"> dl_data</text>
</g>
<!-- Node11 -->
<g id="node11" class="node">
<title>Node11</title>
<g id="a_node11"><a xlink:title=" ">
<polygon fill="white" stroke="#bfbfbf" points="676.5,-131.06 676.5,-161.06 802.5,-161.06 802.5,-131.06 676.5,-131.06"/>
<text text-anchor="start" x="684.5" y="-149.06" font-family="Helvetica,sans-Serif" font-size="10.00">enum e_osal_interrupt</text>
<text text-anchor="middle" x="739.5" y="-138.06" font-family="Helvetica,sans-Serif" font-size="10.00">_priority</text>
</a>
</g>
</g>
<!-- Node11&#45;&gt;Node1 -->
<g id="edge13" class="edge">
<title>Node11&#45;&gt;Node1</title>
<path fill="none" stroke="#9a32cd" stroke-dasharray="5,2" d="M812.86,-147.31C841.03,-148.17 873.56,-149.61 903,-152.06 908.78,-152.54 914.78,-153.13 920.78,-153.78"/>
<polygon fill="#9a32cd" stroke="#9a32cd" points="812.79,-143.8 802.7,-147.02 812.59,-150.8 812.79,-143.8"/>
<text text-anchor="middle" x="863" y="-155.06" font-family="Helvetica,sans-Serif" font-size="10.00"> dev_irq_priority</text>
</g>
</g>
</svg>
