<?xml version="1.0" encoding="UTF-8" standalone="no"?>
<!DOCTYPE svg PUBLIC "-//W3C//DTD SVG 1.1//EN"
 "http://www.w3.org/Graphics/SVG/1.1/DTD/svg11.dtd">
<!-- Generated by graphviz version 2.43.0 (0)
 -->
<!-- Title: R_TAURUS_CmdMsg_t Pages: 1 -->
<svg width="145pt" height="128pt"
 viewBox="0.00 0.00 145.00 128.00" xmlns="http://www.w3.org/2000/svg" xmlns:xlink="http://www.w3.org/1999/xlink">
<g id="graph0" class="graph" transform="scale(1 1) rotate(0) translate(4 124)">
<title>R_TAURUS_CmdMsg_t</title>
<polygon fill="white" stroke="transparent" points="-4,4 -4,-124 141,-124 141,4 -4,4"/>
<!-- Node1 -->
<g id="node1" class="node">
<title>Node1</title>
<g id="a_node1"><a xlink:title=" ">
<polygon fill="#bfbfbf" stroke="black" points="2.5,-0.5 2.5,-19.5 127.5,-19.5 127.5,-0.5 2.5,-0.5"/>
<text text-anchor="middle" x="65" y="-7.5" font-family="Helvetica,sans-Serif" font-size="10.00">R_TAURUS_CmdMsg_t</text>
</a>
</g>
</g>
<!-- Node2 -->
<g id="node2" class="node">
<title>Node2</title>
<g id="a_node2"><a xlink:title=" ">
<polygon fill="white" stroke="#bfbfbf" points="0,-100.5 0,-119.5 56,-119.5 56,-100.5 0,-100.5"/>
<text text-anchor="middle" x="28" y="-107.5" font-family="Helvetica,sans-Serif" font-size="10.00">uint64_t</text>
</a>
</g>
</g>
<!-- Node2&#45;&gt;Node1 -->
<g id="edge1" class="edge">
<title>Node2&#45;&gt;Node1</title>
<path fill="none" stroke="#9a32cd" stroke-dasharray="5,2" d="M34.87,-90.81C42.89,-69.57 55.8,-35.36 61.78,-19.54"/>
<polygon fill="#9a32cd" stroke="#9a32cd" points="31.54,-89.71 31.28,-100.3 38.09,-92.18 31.54,-89.71"/>
<text text-anchor="middle" x="66.5" y="-68.5" font-family="Helvetica,sans-Serif" font-size="10.00"> Par1</text>
<text text-anchor="middle" x="66.5" y="-57.5" font-family="Helvetica,sans-Serif" font-size="10.00">Par2</text>
<text text-anchor="middle" x="66.5" y="-46.5" font-family="Helvetica,sans-Serif" font-size="10.00">Par3</text>
</g>
<!-- Node3 -->
<g id="node3" class="node">
<title>Node3</title>
<g id="a_node3"><a xlink:title=" ">
<polygon fill="white" stroke="#bfbfbf" points="74,-100.5 74,-119.5 130,-119.5 130,-100.5 74,-100.5"/>
<text text-anchor="middle" x="102" y="-107.5" font-family="Helvetica,sans-Serif" font-size="10.00">uint32_t</text>
</a>
</g>
</g>
<!-- Node3&#45;&gt;Node1 -->
<g id="edge2" class="edge">
<title>Node3&#45;&gt;Node1</title>
<path fill="none" stroke="#9a32cd" stroke-dasharray="5,2" d="M97.46,-90.72C93.57,-76.16 87.43,-55.4 80,-38 77.3,-31.69 73.55,-24.94 70.48,-19.77"/>
<polygon fill="#9a32cd" stroke="#9a32cd" points="94.09,-91.68 99.97,-100.49 100.87,-89.93 94.09,-91.68"/>
<text text-anchor="middle" x="115.5" y="-74" font-family="Helvetica,sans-Serif" font-size="10.00"> Channel</text>
<text text-anchor="middle" x="115.5" y="-63" font-family="Helvetica,sans-Serif" font-size="10.00">Cmd</text>
<text text-anchor="middle" x="115.5" y="-52" font-family="Helvetica,sans-Serif" font-size="10.00">Id</text>
<text text-anchor="middle" x="115.5" y="-41" font-family="Helvetica,sans-Serif" font-size="10.00">Per</text>
</g>
</g>
</svg>
