<?xml version="1.0" encoding="UTF-8" standalone="no"?>
<!DOCTYPE svg PUBLIC "-//W3C//DTD SVG 1.1//EN"
 "http://www.w3.org/Graphics/SVG/1.1/DTD/svg11.dtd">
<!-- Generated by graphviz version 2.43.0 (0)
 -->
<!-- Title: r_wm_DOC_Color Pages: 1 -->
<svg width="129pt" height="195pt"
 viewBox="0.00 0.00 129.00 195.00" xmlns="http://www.w3.org/2000/svg" xmlns:xlink="http://www.w3.org/1999/xlink">
<g id="graph0" class="graph" transform="scale(1 1) rotate(0) translate(4 191)">
<title>r_wm_DOC_Color</title>
<polygon fill="white" stroke="transparent" points="-4,4 -4,-191 125,-191 125,4 -4,4"/>
<!-- Node1 -->
<g id="node1" class="node">
<title>Node1</title>
<g id="a_node1"><a xlink:title=" ">
<polygon fill="#bfbfbf" stroke="black" points="10,-0.5 10,-19.5 111,-19.5 111,-0.5 10,-0.5"/>
<text text-anchor="middle" x="60.5" y="-7.5" font-family="Helvetica,sans-Serif" font-size="10.00">r_wm_DOC_Color</text>
</a>
</g>
</g>
<!-- Node2 -->
<g id="node2" class="node">
<title>Node2</title>
<g id="a_node2"><a xlink:href="structr__wm__Doc__Threshold.html" target="_top" xlink:title=" ">
<polygon fill="white" stroke="black" points="0,-89.5 0,-108.5 121,-108.5 121,-89.5 0,-89.5"/>
<text text-anchor="middle" x="60.5" y="-96.5" font-family="Helvetica,sans-Serif" font-size="10.00">r_wm_Doc_Threshold</text>
</a>
</g>
</g>
<!-- Node2&#45;&gt;Node1 -->
<g id="edge1" class="edge">
<title>Node2&#45;&gt;Node1</title>
<path fill="none" stroke="#9a32cd" stroke-dasharray="5,2" d="M60.5,-79.19C60.5,-60.74 60.5,-33.41 60.5,-19.62"/>
<polygon fill="#9a32cd" stroke="#9a32cd" points="57,-79.34 60.5,-89.34 64,-79.34 57,-79.34"/>
<text text-anchor="middle" x="74.5" y="-63" font-family="Helvetica,sans-Serif" font-size="10.00"> blue</text>
<text text-anchor="middle" x="74.5" y="-52" font-family="Helvetica,sans-Serif" font-size="10.00">green</text>
<text text-anchor="middle" x="74.5" y="-41" font-family="Helvetica,sans-Serif" font-size="10.00">red</text>
</g>
<!-- Node3 -->
<g id="node3" class="node">
<title>Node3</title>
<g id="a_node3"><a xlink:title=" ">
<polygon fill="white" stroke="#bfbfbf" points="35.5,-167.5 35.5,-186.5 85.5,-186.5 85.5,-167.5 35.5,-167.5"/>
<text text-anchor="middle" x="60.5" y="-174.5" font-family="Helvetica,sans-Serif" font-size="10.00">uint8_t</text>
</a>
</g>
</g>
<!-- Node3&#45;&gt;Node2 -->
<g id="edge2" class="edge">
<title>Node3&#45;&gt;Node2</title>
<path fill="none" stroke="#9a32cd" stroke-dasharray="5,2" d="M60.5,-157.22C60.5,-141.7 60.5,-120.36 60.5,-108.62"/>
<polygon fill="#9a32cd" stroke="#9a32cd" points="57,-157.28 60.5,-167.28 64,-157.28 57,-157.28"/>
<text text-anchor="middle" x="76" y="-141" font-family="Helvetica,sans-Serif" font-size="10.00"> lower</text>
<text text-anchor="middle" x="76" y="-130" font-family="Helvetica,sans-Serif" font-size="10.00">upper</text>
</g>
</g>
</svg>
