<?xml version="1.0" encoding="UTF-8" standalone="no"?>
<!DOCTYPE svg PUBLIC "-//W3C//DTD SVG 1.1//EN"
 "http://www.w3.org/Graphics/SVG/1.1/DTD/svg11.dtd">
<!-- Generated by graphviz version 2.43.0 (0)
 -->
<!-- Title: r_cio_ether_get_ether_stats Pages: 1 -->
<svg width="152pt" height="106pt"
 viewBox="0.00 0.00 151.50 106.00" xmlns="http://www.w3.org/2000/svg" xmlns:xlink="http://www.w3.org/1999/xlink">
<g id="graph0" class="graph" transform="scale(1 1) rotate(0) translate(4 102)">
<title>r_cio_ether_get_ether_stats</title>
<polygon fill="white" stroke="transparent" points="-4,4 -4,-102 147.5,-102 147.5,4 -4,4"/>
<!-- Node1 -->
<g id="node1" class="node">
<title>Node1</title>
<g id="a_node1"><a xlink:title=" ">
<polygon fill="#bfbfbf" stroke="black" points="21.5,-0.5 21.5,-30.5 143.5,-30.5 143.5,-0.5 21.5,-0.5"/>
<text text-anchor="start" x="29.5" y="-18.5" font-family="Helvetica,sans-Serif" font-size="10.00">r_cio_ether_get_ether</text>
<text text-anchor="middle" x="82.5" y="-7.5" font-family="Helvetica,sans-Serif" font-size="10.00">_stats</text>
</a>
</g>
</g>
<!-- Node2 -->
<g id="node2" class="node">
<title>Node2</title>
<g id="a_node2"><a xlink:title=" ">
<polygon fill="white" stroke="#bfbfbf" points="0,-78.5 0,-97.5 85,-97.5 85,-78.5 0,-78.5"/>
<text text-anchor="middle" x="42.5" y="-85.5" font-family="Helvetica,sans-Serif" font-size="10.00">unsigned long</text>
</a>
</g>
</g>
<!-- Node2&#45;&gt;Node1 -->
<g id="edge1" class="edge">
<title>Node2&#45;&gt;Node1</title>
<path fill="none" stroke="#9a32cd" stroke-dasharray="5,2" d="M41.83,-67.97C42.29,-61.65 43.57,-54.76 46.5,-49 50.09,-41.95 55.9,-35.69 61.81,-30.6"/>
<polygon fill="#9a32cd" stroke="#9a32cd" points="38.32,-68.32 41.71,-78.36 45.32,-68.4 38.32,-68.32"/>
<text text-anchor="middle" x="73.5" y="-52" font-family="Helvetica,sans-Serif" font-size="10.00"> etherStats</text>
</g>
<!-- Node3 -->
<g id="node3" class="node">
<title>Node3</title>
<g id="a_node3"><a xlink:title=" ">
<polygon fill="white" stroke="#bfbfbf" points="103.5,-78.5 103.5,-97.5 141.5,-97.5 141.5,-78.5 103.5,-78.5"/>
<text text-anchor="middle" x="122.5" y="-85.5" font-family="Helvetica,sans-Serif" font-size="10.00">char</text>
</a>
</g>
</g>
<!-- Node3&#45;&gt;Node1 -->
<g id="edge2" class="edge">
<title>Node3&#45;&gt;Node1</title>
<path fill="none" stroke="#9a32cd" stroke-dasharray="5,2" d="M112.47,-69.32C105.67,-57.34 96.81,-41.72 90.49,-30.58"/>
<polygon fill="#9a32cd" stroke="#9a32cd" points="109.62,-71.38 117.6,-78.36 115.7,-67.93 109.62,-71.38"/>
<text text-anchor="middle" x="123.5" y="-52" font-family="Helvetica,sans-Serif" font-size="10.00"> CtrlIdx</text>
</g>
</g>
</svg>
