<?xml version="1.0" encoding="UTF-8" standalone="no"?>
<!DOCTYPE svg PUBLIC "-//W3C//DTD SVG 1.1//EN"
 "http://www.w3.org/Graphics/SVG/1.1/DTD/svg11.dtd">
<!-- Generated by graphviz version 2.43.0 (0)
 -->
<!-- Title: st_imrdrv_attr_param_t Pages: 1 -->
<svg width="813pt" height="364pt"
 viewBox="0.00 0.00 813.00 363.82" xmlns="http://www.w3.org/2000/svg" xmlns:xlink="http://www.w3.org/1999/xlink">
<g id="graph0" class="graph" transform="scale(1 1) rotate(0) translate(4 359.82)">
<title>st_imrdrv_attr_param_t</title>
<polygon fill="white" stroke="transparent" points="-4,4 -4,-359.82 809,-359.82 809,4 -4,4"/>
<!-- Node1 -->
<g id="node1" class="node">
<title>Node1</title>
<g id="a_node1"><a xlink:title=" ">
<polygon fill="#bfbfbf" stroke="black" points="674,-180.32 674,-199.32 805,-199.32 805,-180.32 674,-180.32"/>
<text text-anchor="middle" x="739.5" y="-187.32" font-family="Helvetica,sans-Serif" font-size="10.00">st_imrdrv_attr_param_t</text>
</a>
</g>
</g>
<!-- Node2 -->
<g id="node2" class="node">
<title>Node2</title>
<g id="a_node2"><a xlink:href="structst__imrdrv__triangle__mode__t.html" target="_top" xlink:title=" ">
<polygon fill="white" stroke="black" points="458,-219.82 458,-249.82 564,-249.82 564,-219.82 458,-219.82"/>
<text text-anchor="start" x="466" y="-237.82" font-family="Helvetica,sans-Serif" font-size="10.00">st_imrdrv_triangle</text>
<text text-anchor="middle" x="511" y="-226.82" font-family="Helvetica,sans-Serif" font-size="10.00">_mode_t</text>
</a>
</g>
</g>
<!-- Node2&#45;&gt;Node1 -->
<g id="edge1" class="edge">
<title>Node2&#45;&gt;Node1</title>
<path fill="none" stroke="#9a32cd" stroke-dasharray="5,2" d="M574.32,-222.44C610.94,-215.16 656.54,-206.1 690.38,-199.38"/>
<polygon fill="#9a32cd" stroke="#9a32cd" points="573.37,-219.06 564.25,-224.44 574.74,-225.92 573.37,-219.06"/>
<text text-anchor="middle" x="619" y="-222.82" font-family="Helvetica,sans-Serif" font-size="10.00"> triangle_mode</text>
</g>
<!-- Node3 -->
<g id="node3" class="node">
<title>Node3</title>
<g id="a_node3"><a xlink:title=" ">
<polygon fill="white" stroke="#bfbfbf" points="216.5,-225.32 216.5,-244.32 318.5,-244.32 318.5,-225.32 216.5,-225.32"/>
<text text-anchor="middle" x="267.5" y="-232.32" font-family="Helvetica,sans-Serif" font-size="10.00">e_imrdrv_mode_t</text>
</a>
</g>
</g>
<!-- Node3&#45;&gt;Node2 -->
<g id="edge2" class="edge">
<title>Node3&#45;&gt;Node2</title>
<path fill="none" stroke="#9a32cd" stroke-dasharray="5,2" d="M328.63,-234.82C368.38,-234.82 419.95,-234.82 457.94,-234.82"/>
<polygon fill="#9a32cd" stroke="#9a32cd" points="328.54,-231.32 318.54,-234.82 328.54,-238.32 328.54,-231.32"/>
<text text-anchor="middle" x="397" y="-347.82" font-family="Helvetica,sans-Serif" font-size="10.00"> autodg</text>
<text text-anchor="middle" x="397" y="-336.82" font-family="Helvetica,sans-Serif" font-size="10.00">autosg</text>
<text text-anchor="middle" x="397" y="-325.82" font-family="Helvetica,sans-Serif" font-size="10.00">bfe</text>
<text text-anchor="middle" x="397" y="-314.82" font-family="Helvetica,sans-Serif" font-size="10.00">rde</text>
<text text-anchor="middle" x="397" y="-303.82" font-family="Helvetica,sans-Serif" font-size="10.00">shfe</text>
<text text-anchor="middle" x="397" y="-292.82" font-family="Helvetica,sans-Serif" font-size="10.00">shfval</text>
<text text-anchor="middle" x="397" y="-281.82" font-family="Helvetica,sans-Serif" font-size="10.00">tcm</text>
<text text-anchor="middle" x="397" y="-270.82" font-family="Helvetica,sans-Serif" font-size="10.00">tfe</text>
<text text-anchor="middle" x="397" y="-259.82" font-family="Helvetica,sans-Serif" font-size="10.00">tme</text>
<text text-anchor="middle" x="397" y="-248.82" font-family="Helvetica,sans-Serif" font-size="10.00">uvshfe</text>
<text text-anchor="middle" x="397" y="-237.82" font-family="Helvetica,sans-Serif" font-size="10.00">...</text>
</g>
<!-- Node4 -->
<g id="node4" class="node">
<title>Node4</title>
<g id="a_node4"><a xlink:href="structst__imrdrv__data__t.html" target="_top" xlink:title=" ">
<polygon fill="white" stroke="black" points="461.5,-66.32 461.5,-85.32 560.5,-85.32 560.5,-66.32 461.5,-66.32"/>
<text text-anchor="middle" x="511" y="-73.32" font-family="Helvetica,sans-Serif" font-size="10.00">st_imrdrv_data_t</text>
</a>
</g>
</g>
<!-- Node4&#45;&gt;Node1 -->
<g id="edge3" class="edge">
<title>Node4&#45;&gt;Node1</title>
<path fill="none" stroke="#9a32cd" stroke-dasharray="5,2" d="M539.89,-89.86C586.61,-113.37 679.49,-160.12 719.47,-180.24"/>
<polygon fill="#9a32cd" stroke="#9a32cd" points="541.43,-86.71 530.92,-85.34 538.28,-92.97 541.43,-86.71"/>
<text text-anchor="middle" x="619" y="-159.82" font-family="Helvetica,sans-Serif" font-size="10.00"> dst_data</text>
<text text-anchor="middle" x="619" y="-148.82" font-family="Helvetica,sans-Serif" font-size="10.00">src_data</text>
</g>
<!-- Node5 -->
<g id="node5" class="node">
<title>Node5</title>
<g id="a_node5"><a xlink:title=" ">
<polygon fill="white" stroke="#bfbfbf" points="18,-112.32 18,-131.32 74,-131.32 74,-112.32 18,-112.32"/>
<text text-anchor="middle" x="46" y="-119.32" font-family="Helvetica,sans-Serif" font-size="10.00">uint32_t</text>
</a>
</g>
</g>
<!-- Node5&#45;&gt;Node4 -->
<g id="edge4" class="edge">
<title>Node5&#45;&gt;Node4</title>
<path fill="none" stroke="#9a32cd" stroke-dasharray="5,2" d="M84.4,-120.52C154.47,-117.72 310.2,-109.76 440,-90.82 449.72,-89.4 460.1,-87.43 469.82,-85.38"/>
<polygon fill="#9a32cd" stroke="#9a32cd" points="84.15,-117.03 74.3,-120.91 84.42,-124.02 84.15,-117.03"/>
<text text-anchor="middle" x="267.5" y="-149.82" font-family="Helvetica,sans-Serif" font-size="10.00"> height</text>
<text text-anchor="middle" x="267.5" y="-138.82" font-family="Helvetica,sans-Serif" font-size="10.00">phys_addr</text>
<text text-anchor="middle" x="267.5" y="-127.82" font-family="Helvetica,sans-Serif" font-size="10.00">stride</text>
<text text-anchor="middle" x="267.5" y="-116.82" font-family="Helvetica,sans-Serif" font-size="10.00">width</text>
</g>
<!-- Node6 -->
<g id="node6" class="node">
<title>Node6</title>
<g id="a_node6"><a xlink:href="structst__imrdrv__uv__setting__t.html" target="_top" xlink:title=" ">
<polygon fill="white" stroke="black" points="203.5,-28.32 203.5,-47.32 331.5,-47.32 331.5,-28.32 203.5,-28.32"/>
<text text-anchor="middle" x="267.5" y="-35.32" font-family="Helvetica,sans-Serif" font-size="10.00">st_imrdrv_uv_setting_t</text>
</a>
</g>
</g>
<!-- Node5&#45;&gt;Node6 -->
<g id="edge6" class="edge">
<title>Node5&#45;&gt;Node6</title>
<path fill="none" stroke="#9a32cd" stroke-dasharray="5,2" d="M70.46,-106.89C82.07,-99.9 96.46,-91.82 110,-85.82 148.07,-68.95 193.82,-55.67 225.99,-47.4"/>
<polygon fill="#9a32cd" stroke="#9a32cd" points="68.51,-103.98 61.82,-112.19 72.18,-109.94 68.51,-103.98"/>
<text text-anchor="middle" x="145.5" y="-99.82" font-family="Helvetica,sans-Serif" font-size="10.00"> uv_phys_addr</text>
<text text-anchor="middle" x="145.5" y="-88.82" font-family="Helvetica,sans-Serif" font-size="10.00">uv_stride</text>
</g>
<!-- Node9 -->
<g id="node9" class="node">
<title>Node9</title>
<g id="a_node9"><a xlink:href="structst__imrdrv__dl__t.html" target="_top" xlink:title=" ">
<polygon fill="white" stroke="black" points="354,-182.32 354,-201.32 440,-201.32 440,-182.32 354,-182.32"/>
<text text-anchor="middle" x="397" y="-189.32" font-family="Helvetica,sans-Serif" font-size="10.00">st_imrdrv_dl_t</text>
</a>
</g>
</g>
<!-- Node5&#45;&gt;Node9 -->
<g id="edge11" class="edge">
<title>Node5&#45;&gt;Node9</title>
<path fill="none" stroke="#9a32cd" stroke-dasharray="5,2" d="M81.6,-134.87C112.08,-145.86 157.89,-161.12 199,-169.82 251.69,-180.97 313.58,-186.71 353.73,-189.49"/>
<polygon fill="#9a32cd" stroke="#9a32cd" points="82.47,-131.47 71.88,-131.33 80.08,-138.04 82.47,-131.47"/>
<text text-anchor="middle" x="145.5" y="-167.82" font-family="Helvetica,sans-Serif" font-size="10.00"> phys_addr</text>
</g>
<!-- Node6&#45;&gt;Node4 -->
<g id="edge5" class="edge">
<title>Node6&#45;&gt;Node4</title>
<path fill="none" stroke="#9a32cd" stroke-dasharray="5,2" d="M341.91,-46.39C372.35,-50.27 407.96,-55.25 440,-60.82 449.06,-62.4 458.73,-64.31 467.9,-66.25"/>
<polygon fill="#9a32cd" stroke="#9a32cd" points="342.16,-42.89 331.8,-45.12 341.29,-49.84 342.16,-42.89"/>
<text text-anchor="middle" x="397" y="-63.82" font-family="Helvetica,sans-Serif" font-size="10.00"> uv_set</text>
</g>
<!-- Node7 -->
<g id="node7" class="node">
<title>Node7</title>
<g id="a_node7"><a xlink:title=" ">
<polygon fill="white" stroke="#bfbfbf" points="0,-7.32 0,-26.32 92,-26.32 92,-7.32 0,-7.32"/>
<text text-anchor="middle" x="46" y="-14.32" font-family="Helvetica,sans-Serif" font-size="10.00">e_imrdrv_bpp_t</text>
</a>
</g>
</g>
<!-- Node7&#45;&gt;Node4 -->
<g id="edge9" class="edge">
<title>Node7&#45;&gt;Node4</title>
<path fill="none" stroke="#9a32cd" stroke-dasharray="5,2" d="M102.56,-8.65C161.08,-1.54 255.68,5.69 336,-7.82 396.13,-17.93 461.78,-49.87 492.42,-66.12"/>
<polygon fill="#9a32cd" stroke="#9a32cd" points="101.91,-5.2 92.43,-9.92 102.78,-12.15 101.91,-5.2"/>
<text text-anchor="middle" x="267.5" y="-10.82" font-family="Helvetica,sans-Serif" font-size="10.00"> bpp</text>
</g>
<!-- Node7&#45;&gt;Node6 -->
<g id="edge7" class="edge">
<title>Node7&#45;&gt;Node6</title>
<path fill="none" stroke="#9a32cd" stroke-dasharray="5,2" d="M102.34,-22.11C133.11,-25.06 171.52,-28.73 203.45,-31.79"/>
<polygon fill="#9a32cd" stroke="#9a32cd" points="102.5,-18.61 92.21,-21.15 101.84,-25.58 102.5,-18.61"/>
<text text-anchor="middle" x="145.5" y="-31.82" font-family="Helvetica,sans-Serif" font-size="10.00"> uv_bpp</text>
</g>
<!-- Node8 -->
<g id="node8" class="node">
<title>Node8</title>
<g id="a_node8"><a xlink:title=" ">
<polygon fill="white" stroke="#bfbfbf" points="199,-66.32 199,-85.32 336,-85.32 336,-66.32 199,-66.32"/>
<text text-anchor="middle" x="267.5" y="-73.32" font-family="Helvetica,sans-Serif" font-size="10.00">e_imrdrv_color_format_t</text>
</a>
</g>
</g>
<!-- Node8&#45;&gt;Node4 -->
<g id="edge8" class="edge">
<title>Node8&#45;&gt;Node4</title>
<path fill="none" stroke="#9a32cd" stroke-dasharray="5,2" d="M346.54,-75.82C384.25,-75.82 428.33,-75.82 461.21,-75.82"/>
<polygon fill="#9a32cd" stroke="#9a32cd" points="346.09,-72.32 336.09,-75.82 346.09,-79.32 346.09,-72.32"/>
<text text-anchor="middle" x="397" y="-78.82" font-family="Helvetica,sans-Serif" font-size="10.00"> color_format</text>
</g>
<!-- Node9&#45;&gt;Node1 -->
<g id="edge10" class="edge">
<title>Node9&#45;&gt;Node1</title>
<path fill="none" stroke="#9a32cd" stroke-dasharray="5,2" d="M450.11,-191.51C510.17,-191.16 608.91,-190.58 673.82,-190.2"/>
<polygon fill="#9a32cd" stroke="#9a32cd" points="450.07,-188.01 440.09,-191.57 450.11,-195.01 450.07,-188.01"/>
<text text-anchor="middle" x="511" y="-193.82" font-family="Helvetica,sans-Serif" font-size="10.00"> dl_data</text>
</g>
</g>
</svg>
