<?xml version="1.0" encoding="UTF-8" standalone="no"?>
<!DOCTYPE svg PUBLIC "-//W3C//DTD SVG 1.1//EN"
 "http://www.w3.org/Graphics/SVG/1.1/DTD/svg11.dtd">
<!-- Generated by graphviz version 2.43.0 (0)
 -->
<!-- Title: taurus_can_res_msg Pages: 1 -->
<svg width="659pt" height="562pt"
 viewBox="0.00 0.00 659.00 562.00" xmlns="http://www.w3.org/2000/svg" xmlns:xlink="http://www.w3.org/1999/xlink">
<g id="graph0" class="graph" transform="scale(1 1) rotate(0) translate(4 558)">
<title>taurus_can_res_msg</title>
<polygon fill="white" stroke="transparent" points="-4,4 -4,-558 655,-558 655,4 -4,4"/>
<!-- Node1 -->
<g id="node1" class="node">
<title>Node1</title>
<g id="a_node1"><a xlink:title=" ">
<polygon fill="#bfbfbf" stroke="black" points="535,-152.5 535,-171.5 651,-171.5 651,-152.5 535,-152.5"/>
<text text-anchor="middle" x="593" y="-159.5" font-family="Helvetica,sans-Serif" font-size="10.00">taurus_can_res_msg</text>
</a>
</g>
</g>
<!-- Node2 -->
<g id="node2" class="node">
<title>Node2</title>
<g id="a_node2"><a xlink:href="structR__TAURUS__ResultMsg__t.html" target="_top" xlink:title=" ">
<polygon fill="white" stroke="black" points="324,-416.5 324,-435.5 458,-435.5 458,-416.5 324,-416.5"/>
<text text-anchor="middle" x="391" y="-423.5" font-family="Helvetica,sans-Serif" font-size="10.00">R_TAURUS_ResultMsg_t</text>
</a>
</g>
</g>
<!-- Node2&#45;&gt;Node1 -->
<g id="edge1" class="edge">
<title>Node2&#45;&gt;Node1</title>
<path fill="none" stroke="#9a32cd" stroke-dasharray="5,2" d="M468.14,-423.84C485.89,-420.03 503.53,-413.11 517,-401 587.84,-337.34 592.36,-207.69 592.19,-171.55"/>
<polygon fill="#9a32cd" stroke="#9a32cd" points="467.48,-420.4 458.28,-425.65 468.75,-427.29 467.48,-420.4"/>
<text text-anchor="middle" x="496.5" y="-424" font-family="Helvetica,sans-Serif" font-size="10.00"> hdr</text>
</g>
<!-- Node3 -->
<g id="node3" class="node">
<title>Node3</title>
<g id="a_node3"><a xlink:title=" ">
<polygon fill="white" stroke="#bfbfbf" points="153.5,-150.5 153.5,-169.5 209.5,-169.5 209.5,-150.5 153.5,-150.5"/>
<text text-anchor="middle" x="181.5" y="-157.5" font-family="Helvetica,sans-Serif" font-size="10.00">uint64_t</text>
</a>
</g>
</g>
<!-- Node3&#45;&gt;Node2 -->
<g id="edge2" class="edge">
<title>Node3&#45;&gt;Node2</title>
<path fill="none" stroke="#9a32cd" stroke-dasharray="5,2" d="M194.81,-177.99C207.74,-197.08 228.44,-228.27 245,-256 253.56,-270.34 253.25,-275.44 263,-289 300.68,-341.4 356.52,-395.12 379.52,-416.44"/>
<polygon fill="#9a32cd" stroke="#9a32cd" points="197.66,-175.95 189.14,-169.65 191.87,-179.89 197.66,-175.95"/>
<text text-anchor="middle" x="284.5" y="-343" font-family="Helvetica,sans-Serif" font-size="10.00"> Aux</text>
</g>
<!-- Node7 -->
<g id="node7" class="node">
<title>Node7</title>
<g id="a_node7"><a xlink:href="structtaurus__can__read__out.html" target="_top" xlink:title=" ">
<polygon fill="white" stroke="black" points="332,-263.5 332,-282.5 450,-282.5 450,-263.5 332,-263.5"/>
<text text-anchor="middle" x="391" y="-270.5" font-family="Helvetica,sans-Serif" font-size="10.00">taurus_can_read_out</text>
</a>
</g>
</g>
<!-- Node3&#45;&gt;Node7 -->
<g id="edge8" class="edge">
<title>Node3&#45;&gt;Node7</title>
<path fill="none" stroke="#9a32cd" stroke-dasharray="5,2" d="M202.55,-175.92C218.4,-188.07 241.38,-204.74 263,-217 296.75,-236.13 338.28,-253.35 364.46,-263.49"/>
<polygon fill="#9a32cd" stroke="#9a32cd" points="204.58,-173.06 194.54,-169.69 200.29,-178.59 204.58,-173.06"/>
<text text-anchor="middle" x="284.5" y="-251" font-family="Helvetica,sans-Serif" font-size="10.00"> cookie</text>
<text text-anchor="middle" x="284.5" y="-240" font-family="Helvetica,sans-Serif" font-size="10.00">res</text>
</g>
<!-- Node9 -->
<g id="node9" class="node">
<title>Node9</title>
<g id="a_node9"><a xlink:href="structtaurus__can__ioc__op1__out.html" target="_top" xlink:title=" ">
<polygon fill="white" stroke="black" points="324,-193.5 324,-212.5 458,-212.5 458,-193.5 324,-193.5"/>
<text text-anchor="middle" x="391" y="-200.5" font-family="Helvetica,sans-Serif" font-size="10.00">taurus_can_ioc_op1_out</text>
</a>
</g>
</g>
<!-- Node3&#45;&gt;Node9 -->
<g id="edge12" class="edge">
<title>Node3&#45;&gt;Node9</title>
<path fill="none" stroke="#9a32cd" stroke-dasharray="5,2" d="M219.77,-171.68C233.29,-175.64 248.75,-179.85 263,-183 282.62,-187.33 304.14,-191.09 323.8,-194.14"/>
<polygon fill="#9a32cd" stroke="#9a32cd" points="220.44,-168.22 209.86,-168.72 218.44,-174.93 220.44,-168.22"/>
<text text-anchor="middle" x="284.5" y="-205" font-family="Helvetica,sans-Serif" font-size="10.00"> cookie</text>
<text text-anchor="middle" x="284.5" y="-194" font-family="Helvetica,sans-Serif" font-size="10.00">res</text>
</g>
<!-- Node10 -->
<g id="node10" class="node">
<title>Node10</title>
<g id="a_node10"><a xlink:href="structtaurus__can__close__out.html" target="_top" xlink:title=" ">
<polygon fill="white" stroke="black" points="330,-152.5 330,-171.5 452,-171.5 452,-152.5 330,-152.5"/>
<text text-anchor="middle" x="391" y="-159.5" font-family="Helvetica,sans-Serif" font-size="10.00">taurus_can_close_out</text>
</a>
</g>
</g>
<!-- Node3&#45;&gt;Node10 -->
<g id="edge14" class="edge">
<title>Node3&#45;&gt;Node10</title>
<path fill="none" stroke="#9a32cd" stroke-dasharray="5,2" d="M220.26,-160.27C244.71,-160.45 277.24,-160.71 306,-161 313.73,-161.08 321.86,-161.17 329.89,-161.26"/>
<polygon fill="#9a32cd" stroke="#9a32cd" points="219.99,-156.77 209.97,-160.19 219.94,-163.77 219.99,-156.77"/>
<text text-anchor="middle" x="284.5" y="-175" font-family="Helvetica,sans-Serif" font-size="10.00"> cookie</text>
<text text-anchor="middle" x="284.5" y="-164" font-family="Helvetica,sans-Serif" font-size="10.00">res</text>
</g>
<!-- Node11 -->
<g id="node11" class="node">
<title>Node11</title>
<g id="a_node11"><a xlink:href="structtaurus__can__ioc__op2__out.html" target="_top" xlink:title=" ">
<polygon fill="white" stroke="black" points="324,-114.5 324,-133.5 458,-133.5 458,-114.5 324,-114.5"/>
<text text-anchor="middle" x="391" y="-121.5" font-family="Helvetica,sans-Serif" font-size="10.00">taurus_can_ioc_op2_out</text>
</a>
</g>
</g>
<!-- Node3&#45;&gt;Node11 -->
<g id="edge16" class="edge">
<title>Node3&#45;&gt;Node11</title>
<path fill="none" stroke="#9a32cd" stroke-dasharray="5,2" d="M216.89,-146.93C230.99,-142.1 247.58,-137.05 263,-134 282.53,-130.13 304.02,-127.75 323.68,-126.28"/>
<polygon fill="#9a32cd" stroke="#9a32cd" points="215.38,-143.76 207.12,-150.39 217.72,-150.35 215.38,-143.76"/>
<text text-anchor="middle" x="284.5" y="-148" font-family="Helvetica,sans-Serif" font-size="10.00"> cookie</text>
<text text-anchor="middle" x="284.5" y="-137" font-family="Helvetica,sans-Serif" font-size="10.00">res</text>
</g>
<!-- Node12 -->
<g id="node12" class="node">
<title>Node12</title>
<g id="a_node12"><a xlink:href="structtaurus__can__write__out.html" target="_top" xlink:title=" ">
<polygon fill="white" stroke="black" points="330.5,-76.5 330.5,-95.5 451.5,-95.5 451.5,-76.5 330.5,-76.5"/>
<text text-anchor="middle" x="391" y="-83.5" font-family="Helvetica,sans-Serif" font-size="10.00">taurus_can_write_out</text>
</a>
</g>
</g>
<!-- Node3&#45;&gt;Node12 -->
<g id="edge18" class="edge">
<title>Node3&#45;&gt;Node12</title>
<path fill="none" stroke="#9a32cd" stroke-dasharray="5,2" d="M199.98,-142.98C215.28,-129.19 238.79,-110.53 263,-101 284.07,-92.7 308.51,-88.64 330.29,-86.75"/>
<polygon fill="#9a32cd" stroke="#9a32cd" points="197.31,-140.68 192.37,-150.05 202.08,-145.81 197.31,-140.68"/>
<text text-anchor="middle" x="284.5" y="-115" font-family="Helvetica,sans-Serif" font-size="10.00"> cookie</text>
<text text-anchor="middle" x="284.5" y="-104" font-family="Helvetica,sans-Serif" font-size="10.00">res</text>
</g>
<!-- Node13 -->
<g id="node13" class="node">
<title>Node13</title>
<g id="a_node13"><a xlink:href="structtaurus__can__open__out.html" target="_top" xlink:title=" ">
<polygon fill="white" stroke="black" points="331,-38.5 331,-57.5 451,-57.5 451,-38.5 331,-38.5"/>
<text text-anchor="middle" x="391" y="-45.5" font-family="Helvetica,sans-Serif" font-size="10.00">taurus_can_open_out</text>
</a>
</g>
</g>
<!-- Node3&#45;&gt;Node13 -->
<g id="edge20" class="edge">
<title>Node3&#45;&gt;Node13</title>
<path fill="none" stroke="#9a32cd" stroke-dasharray="5,2" d="M192.29,-141.4C205.22,-118.92 230.23,-81.87 263,-64 283.49,-52.83 308.53,-48.13 330.95,-46.47"/>
<polygon fill="#9a32cd" stroke="#9a32cd" points="189.14,-139.88 187.36,-150.32 195.26,-143.26 189.14,-139.88"/>
<text text-anchor="middle" x="284.5" y="-78" font-family="Helvetica,sans-Serif" font-size="10.00"> cookie</text>
<text text-anchor="middle" x="284.5" y="-67" font-family="Helvetica,sans-Serif" font-size="10.00">res</text>
</g>
<!-- Node4 -->
<g id="node4" class="node">
<title>Node4</title>
<g id="a_node4"><a xlink:href="structR__TAURUS__Eth__Data__t.html" target="_top" xlink:title=" ">
<polygon fill="white" stroke="black" points="118,-534.5 118,-553.5 245,-553.5 245,-534.5 118,-534.5"/>
<text text-anchor="middle" x="181.5" y="-541.5" font-family="Helvetica,sans-Serif" font-size="10.00">R_TAURUS_Eth_Data_t</text>
</a>
</g>
</g>
<!-- Node4&#45;&gt;Node2 -->
<g id="edge3" class="edge">
<title>Node4&#45;&gt;Node2</title>
<path fill="none" stroke="#9a32cd" stroke-dasharray="5,2" d="M219.3,-530.87C227.84,-527.55 236.82,-523.83 245,-520 273.11,-506.85 279.78,-502.6 306,-486 332.2,-469.42 361.35,-447.85 377.5,-435.6"/>
<polygon fill="#9a32cd" stroke="#9a32cd" points="218.03,-527.61 209.92,-534.43 220.51,-534.15 218.03,-527.61"/>
<text text-anchor="middle" x="284.5" y="-514" font-family="Helvetica,sans-Serif" font-size="10.00"> Eth_Aux</text>
</g>
<!-- Node5 -->
<g id="node5" class="node">
<title>Node5</title>
<g id="a_node5"><a xlink:title=" ">
<polygon fill="white" stroke="#bfbfbf" points="0,-420.5 0,-439.5 56,-439.5 56,-420.5 0,-420.5"/>
<text text-anchor="middle" x="28" y="-427.5" font-family="Helvetica,sans-Serif" font-size="10.00">uint32_t</text>
</a>
</g>
</g>
<!-- Node5&#45;&gt;Node1 -->
<g id="edge21" class="edge">
<title>Node5&#45;&gt;Node1</title>
<path fill="none" stroke="#9a32cd" stroke-dasharray="5,2" d="M66.04,-420.42C126.62,-404.75 240.63,-375.25 245,-374 342.55,-346.18 372.18,-346.09 458,-292 513.94,-256.74 565.82,-195.13 584.58,-171.55"/>
<polygon fill="#9a32cd" stroke="#9a32cd" points="64.9,-417.1 56.1,-422.99 66.65,-423.88 64.9,-417.1"/>
<text text-anchor="middle" x="284.5" y="-371" font-family="Helvetica,sans-Serif" font-size="10.00"> type</text>
</g>
<!-- Node5&#45;&gt;Node2 -->
<g id="edge5" class="edge">
<title>Node5&#45;&gt;Node2</title>
<path fill="none" stroke="#9a32cd" stroke-dasharray="5,2" d="M66.1,-437.68C82,-440.6 100.84,-443.56 118,-445 201.28,-451.97 223.04,-451.1 306,-441 317.62,-439.59 330.06,-437.62 341.72,-435.57"/>
<polygon fill="#9a32cd" stroke="#9a32cd" points="66.59,-434.21 56.12,-435.78 65.29,-441.08 66.59,-434.21"/>
<text text-anchor="middle" x="181.5" y="-485" font-family="Helvetica,sans-Serif" font-size="10.00"> Channel</text>
<text text-anchor="middle" x="181.5" y="-474" font-family="Helvetica,sans-Serif" font-size="10.00">Id</text>
<text text-anchor="middle" x="181.5" y="-463" font-family="Helvetica,sans-Serif" font-size="10.00">Per</text>
<text text-anchor="middle" x="181.5" y="-452" font-family="Helvetica,sans-Serif" font-size="10.00">Result</text>
</g>
<!-- Node5&#45;&gt;Node4 -->
<g id="edge4" class="edge">
<title>Node5&#45;&gt;Node4</title>
<path fill="none" stroke="#9a32cd" stroke-dasharray="5,2" d="M41.76,-448.02C50.28,-459.47 62.06,-474.28 74,-486 91.64,-503.31 96.46,-507.89 118,-520 128.13,-525.7 139.88,-530.61 150.45,-534.47"/>
<polygon fill="#9a32cd" stroke="#9a32cd" points="44.41,-445.71 35.7,-439.69 38.75,-449.83 44.41,-445.71"/>
<text text-anchor="middle" x="87" y="-522" font-family="Helvetica,sans-Serif" font-size="10.00"> Addr</text>
<text text-anchor="middle" x="87" y="-511" font-family="Helvetica,sans-Serif" font-size="10.00">Size</text>
</g>
<!-- Node5&#45;&gt;Node7 -->
<g id="edge10" class="edge">
<title>Node5&#45;&gt;Node7</title>
<path fill="none" stroke="#9a32cd" stroke-dasharray="5,2" d="M41.06,-411.97C56.26,-390.92 84.48,-356.95 118,-341 157.5,-322.2 275.63,-296.28 342.5,-282.5"/>
<polygon fill="#9a32cd" stroke="#9a32cd" points="38.06,-410.17 35.2,-420.37 43.79,-414.17 38.06,-410.17"/>
<text text-anchor="middle" x="181.5" y="-366" font-family="Helvetica,sans-Serif" font-size="10.00"> can_ch</text>
<text text-anchor="middle" x="181.5" y="-355" font-family="Helvetica,sans-Serif" font-size="10.00">data_len</text>
<text text-anchor="middle" x="181.5" y="-344" font-family="Helvetica,sans-Serif" font-size="10.00">node_id</text>
</g>
<!-- Node6 -->
<g id="node6" class="node">
<title>Node6</title>
<g id="a_node6"><a xlink:title=" ">
<polygon fill="white" stroke="#bfbfbf" points="135.5,-416.5 135.5,-435.5 227.5,-435.5 227.5,-416.5 135.5,-416.5"/>
<text text-anchor="middle" x="181.5" y="-423.5" font-family="Helvetica,sans-Serif" font-size="10.00">anonymous:@1</text>
</a>
</g>
</g>
<!-- Node6&#45;&gt;Node2 -->
<g id="edge6" class="edge">
<title>Node6&#45;&gt;Node2</title>
<path fill="none" stroke="#9a32cd" stroke-dasharray="5,2" d="M237.75,-426C264.19,-426 296.05,-426 323.78,-426"/>
<polygon fill="#9a32cd" stroke="#9a32cd" points="237.52,-422.5 227.52,-426 237.52,-429.5 237.52,-422.5"/>
<text text-anchor="middle" x="284.5" y="-429" font-family="Helvetica,sans-Serif" font-size="10.00"> @1</text>
</g>
<!-- Node7&#45;&gt;Node1 -->
<g id="edge7" class="edge">
<title>Node7&#45;&gt;Node1</title>
<path fill="none" stroke="#9a32cd" stroke-dasharray="5,2" d="M418.39,-258.35C460.01,-235.25 539.76,-190.99 574.78,-171.55"/>
<polygon fill="#9a32cd" stroke="#9a32cd" points="416.44,-255.43 409.4,-263.34 419.84,-261.55 416.44,-255.43"/>
<text text-anchor="middle" x="496.5" y="-227" font-family="Helvetica,sans-Serif" font-size="10.00"> read</text>
</g>
<!-- Node8 -->
<g id="node8" class="node">
<title>Node8</title>
<g id="a_node8"><a xlink:title=" ">
<polygon fill="white" stroke="#bfbfbf" points="162.5,-265.5 162.5,-284.5 200.5,-284.5 200.5,-265.5 162.5,-265.5"/>
<text text-anchor="middle" x="181.5" y="-272.5" font-family="Helvetica,sans-Serif" font-size="10.00">char</text>
</a>
</g>
</g>
<!-- Node8&#45;&gt;Node7 -->
<g id="edge9" class="edge">
<title>Node8&#45;&gt;Node7</title>
<path fill="none" stroke="#9a32cd" stroke-dasharray="5,2" d="M210.65,-274.73C241.65,-274.43 292.37,-273.94 331.98,-273.56"/>
<polygon fill="#9a32cd" stroke="#9a32cd" points="210.52,-271.23 200.55,-274.83 210.58,-278.23 210.52,-271.23"/>
<text text-anchor="middle" x="284.5" y="-277" font-family="Helvetica,sans-Serif" font-size="10.00"> data</text>
</g>
<!-- Node9&#45;&gt;Node1 -->
<g id="edge11" class="edge">
<title>Node9&#45;&gt;Node1</title>
<path fill="none" stroke="#9a32cd" stroke-dasharray="5,2" d="M448.5,-191.42C479.15,-185.13 516.58,-177.46 545.52,-171.53"/>
<polygon fill="#9a32cd" stroke="#9a32cd" points="447.48,-188.05 438.39,-193.49 448.89,-194.91 447.48,-188.05"/>
<text text-anchor="middle" x="496.5" y="-187" font-family="Helvetica,sans-Serif" font-size="10.00"> ioc_op1</text>
</g>
<!-- Node10&#45;&gt;Node1 -->
<g id="edge13" class="edge">
<title>Node10&#45;&gt;Node1</title>
<path fill="none" stroke="#9a32cd" stroke-dasharray="5,2" d="M462.03,-162C485.82,-162 512.11,-162 534.78,-162"/>
<polygon fill="#9a32cd" stroke="#9a32cd" points="462.01,-158.5 452.01,-162 462.01,-165.5 462.01,-158.5"/>
<text text-anchor="middle" x="496.5" y="-165" font-family="Helvetica,sans-Serif" font-size="10.00"> close</text>
</g>
<!-- Node11&#45;&gt;Node1 -->
<g id="edge15" class="edge">
<title>Node11&#45;&gt;Node1</title>
<path fill="none" stroke="#9a32cd" stroke-dasharray="5,2" d="M454.55,-135.31C474.52,-138.98 496.7,-143.1 517,-147 526,-148.73 535.59,-150.61 544.81,-152.45"/>
<polygon fill="#9a32cd" stroke="#9a32cd" points="455.11,-131.86 444.64,-133.5 453.85,-138.74 455.11,-131.86"/>
<text text-anchor="middle" x="496.5" y="-150" font-family="Helvetica,sans-Serif" font-size="10.00"> ioc_op2</text>
</g>
<!-- Node12&#45;&gt;Node1 -->
<g id="edge17" class="edge">
<title>Node12&#45;&gt;Node1</title>
<path fill="none" stroke="#9a32cd" stroke-dasharray="5,2" d="M435.63,-98.35C443.1,-100.53 450.78,-102.8 458,-105 484.35,-113.03 491.52,-113.52 517,-124 537.52,-132.44 560.11,-144.25 575.08,-152.46"/>
<polygon fill="#9a32cd" stroke="#9a32cd" points="436.55,-94.98 425.98,-95.56 434.61,-101.7 436.55,-94.98"/>
<text text-anchor="middle" x="496.5" y="-127" font-family="Helvetica,sans-Serif" font-size="10.00"> write</text>
</g>
<!-- Node13&#45;&gt;Node1 -->
<g id="edge19" class="edge">
<title>Node13&#45;&gt;Node1</title>
<path fill="none" stroke="#9a32cd" stroke-dasharray="5,2" d="M439.01,-60.51C445.45,-62.52 451.93,-64.7 458,-67 485.15,-77.27 492.82,-78.95 517,-95 543.18,-112.38 569.62,-138.45 583.02,-152.39"/>
<polygon fill="#9a32cd" stroke="#9a32cd" points="439.59,-57.03 429,-57.51 437.57,-63.73 439.59,-57.03"/>
<text text-anchor="middle" x="496.5" y="-98" font-family="Helvetica,sans-Serif" font-size="10.00"> open</text>
</g>
<!-- Node14 -->
<g id="node14" class="node">
<title>Node14</title>
<g id="a_node14"><a xlink:title=" ">
<polygon fill="white" stroke="#bfbfbf" points="334.5,-0.5 334.5,-19.5 447.5,-19.5 447.5,-0.5 334.5,-0.5"/>
<text text-anchor="middle" x="391" y="-7.5" font-family="Helvetica,sans-Serif" font-size="10.00">anonymous:params</text>
</a>
</g>
</g>
<!-- Node14&#45;&gt;Node1 -->
<g id="edge22" class="edge">
<title>Node14&#45;&gt;Node1</title>
<path fill="none" stroke="#9a32cd" stroke-dasharray="5,2" d="M445.61,-22.45C469.45,-30.02 496.65,-41.66 517,-59 549.99,-87.13 576.43,-132.56 587.01,-152.31"/>
<polygon fill="#9a32cd" stroke="#9a32cd" points="446.56,-19.08 435.98,-19.55 444.55,-25.79 446.56,-19.08"/>
<text text-anchor="middle" x="496.5" y="-62" font-family="Helvetica,sans-Serif" font-size="10.00"> params</text>
</g>
</g>
</svg>
