<?xml version="1.0" encoding="UTF-8" standalone="no"?>
<!DOCTYPE svg PUBLIC "-//W3C//DTD SVG 1.1//EN"
 "http://www.w3.org/Graphics/SVG/1.1/DTD/svg11.dtd">
<!-- Generated by graphviz version 2.43.0 (0)
 -->
<!-- Title: cr7_resource_table Pages: 1 -->
<svg width="600pt" height="343pt"
 viewBox="0.00 0.00 599.50 343.00" xmlns="http://www.w3.org/2000/svg" xmlns:xlink="http://www.w3.org/1999/xlink">
<g id="graph0" class="graph" transform="scale(1 1) rotate(0) translate(4 339)">
<title>cr7_resource_table</title>
<polygon fill="white" stroke="transparent" points="-4,4 -4,-339 595.5,-339 595.5,4 -4,4"/>
<!-- Node1 -->
<g id="node1" class="node">
<title>Node1</title>
<g id="a_node1"><a xlink:title=" ">
<polygon fill="#bfbfbf" stroke="black" points="188,-0.5 188,-19.5 297,-19.5 297,-0.5 188,-0.5"/>
<text text-anchor="middle" x="242.5" y="-7.5" font-family="Helvetica,sans-Serif" font-size="10.00">cr7_resource_table</text>
</a>
</g>
</g>
<!-- Node2 -->
<g id="node2" class="node">
<title>Node2</title>
<g id="a_node2"><a xlink:href="structfw__rsc__vdev.html" target="_top" xlink:title=" ">
<polygon fill="white" stroke="black" points="112,-79.5 112,-98.5 189,-98.5 189,-79.5 112,-79.5"/>
<text text-anchor="middle" x="150.5" y="-86.5" font-family="Helvetica,sans-Serif" font-size="10.00">fw_rsc_vdev</text>
</a>
</g>
</g>
<!-- Node2&#45;&gt;Node1 -->
<g id="edge1" class="edge">
<title>Node2&#45;&gt;Node1</title>
<path fill="none" stroke="#9a32cd" stroke-dasharray="5,2" d="M151.15,-69.26C152.45,-58.87 155.71,-46.4 163.5,-38 171.48,-29.39 182.33,-23.53 193.42,-19.54"/>
<polygon fill="#9a32cd" stroke="#9a32cd" points="147.65,-69.18 150.38,-79.42 154.63,-69.71 147.65,-69.18"/>
<text text-anchor="middle" x="183.5" y="-46.5" font-family="Helvetica,sans-Serif" font-size="10.00"> rpmsg1</text>
</g>
<!-- Node3 -->
<g id="node3" class="node">
<title>Node3</title>
<g id="a_node3"><a xlink:href="structfw__rsc__vdev__vring.html" target="_top" xlink:title=" ">
<polygon fill="white" stroke="black" points="0,-187 0,-206 107,-206 107,-187 0,-187"/>
<text text-anchor="middle" x="53.5" y="-194" font-family="Helvetica,sans-Serif" font-size="10.00">fw_rsc_vdev_vring</text>
</a>
</g>
</g>
<!-- Node3&#45;&gt;Node1 -->
<g id="edge6" class="edge">
<title>Node3&#45;&gt;Node1</title>
<path fill="none" stroke="#9a32cd" stroke-dasharray="5,2" d="M41.72,-178.32C26.51,-153.79 4.46,-108.35 26.5,-78 62.96,-27.81 136.69,-14.05 187.8,-10.87"/>
<polygon fill="#9a32cd" stroke="#9a32cd" points="38.91,-180.42 47.3,-186.9 44.78,-176.61 38.91,-180.42"/>
<text text-anchor="middle" x="64.5" y="-92" font-family="Helvetica,sans-Serif" font-size="10.00"> rpmsg1_vring0</text>
<text text-anchor="middle" x="64.5" y="-81" font-family="Helvetica,sans-Serif" font-size="10.00">rpmsg1_vring1</text>
</g>
<!-- Node3&#45;&gt;Node2 -->
<g id="edge2" class="edge">
<title>Node3&#45;&gt;Node2</title>
<path fill="none" stroke="#9a32cd" stroke-dasharray="5,2" d="M61.41,-177.55C69.56,-160.61 83.58,-135.29 101.5,-118 109.82,-109.97 120.88,-103.39 130.39,-98.64"/>
<polygon fill="#9a32cd" stroke="#9a32cd" points="58.12,-176.32 57.11,-186.87 64.48,-179.25 58.12,-176.32"/>
<text text-anchor="middle" x="115.5" y="-132" font-family="Helvetica,sans-Serif" font-size="10.00"> vring</text>
</g>
<!-- Node4 -->
<g id="node4" class="node">
<title>Node4</title>
<g id="a_node4"><a xlink:title=" ">
<polygon fill="white" stroke="#bfbfbf" points="232.5,-315.5 232.5,-334.5 288.5,-334.5 288.5,-315.5 232.5,-315.5"/>
<text text-anchor="middle" x="260.5" y="-322.5" font-family="Helvetica,sans-Serif" font-size="10.00">uint32_t</text>
</a>
</g>
</g>
<!-- Node4&#45;&gt;Node1 -->
<g id="edge12" class="edge">
<title>Node4&#45;&gt;Node1</title>
<path fill="none" stroke="#9a32cd" stroke-dasharray="5,2" d="M251.9,-305.98C235.92,-270.42 204.11,-188.52 213.5,-118 218.48,-80.61 232.83,-37.75 239.29,-19.72"/>
<polygon fill="#9a32cd" stroke="#9a32cd" points="248.91,-307.86 256.28,-315.47 255.26,-304.92 248.91,-307.86"/>
<text text-anchor="middle" x="232" y="-132" font-family="Helvetica,sans-Serif" font-size="10.00"> offsets</text>
</g>
<!-- Node4&#45;&gt;Node2 -->
<g id="edge4" class="edge">
<title>Node4&#45;&gt;Node2</title>
<path fill="none" stroke="#9a32cd" stroke-dasharray="5,2" d="M230.45,-310.6C223.5,-306.76 216.42,-302.18 210.5,-297 180.33,-270.59 170.87,-261.8 157.5,-224 141.65,-179.2 146.61,-120.71 149.29,-98.79"/>
<polygon fill="#9a32cd" stroke="#9a32cd" points="229.23,-313.9 239.72,-315.37 232.43,-307.68 229.23,-313.9"/>
<text text-anchor="middle" x="184" y="-216" font-family="Helvetica,sans-Serif" font-size="10.00"> config_len</text>
<text text-anchor="middle" x="184" y="-205" font-family="Helvetica,sans-Serif" font-size="10.00">dfeatures</text>
<text text-anchor="middle" x="184" y="-194" font-family="Helvetica,sans-Serif" font-size="10.00">gfeatures</text>
<text text-anchor="middle" x="184" y="-183" font-family="Helvetica,sans-Serif" font-size="10.00">id</text>
<text text-anchor="middle" x="184" y="-172" font-family="Helvetica,sans-Serif" font-size="10.00">notifyid</text>
</g>
<!-- Node4&#45;&gt;Node3 -->
<g id="edge3" class="edge">
<title>Node4&#45;&gt;Node3</title>
<path fill="none" stroke="#9a32cd" stroke-dasharray="5,2" d="M222.26,-322.19C178.97,-319.42 111.94,-312.67 92.5,-297 63.46,-273.6 55.98,-225.61 54.11,-206.06"/>
<polygon fill="#9a32cd" stroke="#9a32cd" points="222.25,-325.7 232.44,-322.8 222.67,-318.71 222.25,-325.7"/>
<text text-anchor="middle" x="111" y="-289" font-family="Helvetica,sans-Serif" font-size="10.00"> align</text>
<text text-anchor="middle" x="111" y="-278" font-family="Helvetica,sans-Serif" font-size="10.00">da</text>
<text text-anchor="middle" x="111" y="-267" font-family="Helvetica,sans-Serif" font-size="10.00">notifyid</text>
<text text-anchor="middle" x="111" y="-256" font-family="Helvetica,sans-Serif" font-size="10.00">num</text>
<text text-anchor="middle" x="111" y="-245" font-family="Helvetica,sans-Serif" font-size="10.00">pa</text>
</g>
<!-- Node6 -->
<g id="node6" class="node">
<title>Node6</title>
<g id="a_node6"><a xlink:href="structresource__table.html" target="_top" xlink:title=" ">
<polygon fill="white" stroke="black" points="260,-125 260,-144 349,-144 349,-125 260,-125"/>
<text text-anchor="middle" x="304.5" y="-132" font-family="Helvetica,sans-Serif" font-size="10.00">resource_table</text>
</a>
</g>
</g>
<!-- Node4&#45;&gt;Node6 -->
<g id="edge8" class="edge">
<title>Node4&#45;&gt;Node6</title>
<path fill="none" stroke="#9a32cd" stroke-dasharray="5,2" d="M264.83,-305.45C274.14,-265.55 295.78,-172.86 302.48,-144.14"/>
<polygon fill="#9a32cd" stroke="#9a32cd" points="261.37,-304.88 262.5,-315.41 268.19,-306.47 261.37,-304.88"/>
<text text-anchor="middle" x="301" y="-283.5" font-family="Helvetica,sans-Serif" font-size="10.00"> num</text>
<text text-anchor="middle" x="301" y="-272.5" font-family="Helvetica,sans-Serif" font-size="10.00">offset</text>
<text text-anchor="middle" x="301" y="-261.5" font-family="Helvetica,sans-Serif" font-size="10.00">reserved</text>
<text text-anchor="middle" x="301" y="-250.5" font-family="Helvetica,sans-Serif" font-size="10.00">ver</text>
</g>
<!-- Node7 -->
<g id="node7" class="node">
<title>Node7</title>
<g id="a_node7"><a xlink:href="structfw__rsc__carveout.html" target="_top" xlink:title=" ">
<polygon fill="white" stroke="black" points="316,-79.5 316,-98.5 411,-98.5 411,-79.5 316,-79.5"/>
<text text-anchor="middle" x="363.5" y="-86.5" font-family="Helvetica,sans-Serif" font-size="10.00">fw_rsc_carveout</text>
</a>
</g>
</g>
<!-- Node4&#45;&gt;Node7 -->
<g id="edge10" class="edge">
<title>Node4&#45;&gt;Node7</title>
<path fill="none" stroke="#9a32cd" stroke-dasharray="5,2" d="M298.28,-315.85C308.83,-311.82 319.35,-305.85 326.5,-297 376.29,-235.38 368.26,-129.49 364.65,-98.66"/>
<polygon fill="#9a32cd" stroke="#9a32cd" points="297.08,-312.56 288.68,-319.02 299.28,-319.2 297.08,-312.56"/>
<text text-anchor="middle" x="389" y="-216" font-family="Helvetica,sans-Serif" font-size="10.00"> da</text>
<text text-anchor="middle" x="389" y="-205" font-family="Helvetica,sans-Serif" font-size="10.00">flags</text>
<text text-anchor="middle" x="389" y="-194" font-family="Helvetica,sans-Serif" font-size="10.00">len</text>
<text text-anchor="middle" x="389" y="-183" font-family="Helvetica,sans-Serif" font-size="10.00">pa</text>
<text text-anchor="middle" x="389" y="-172" font-family="Helvetica,sans-Serif" font-size="10.00">reserved</text>
</g>
<!-- Node8 -->
<g id="node8" class="node">
<title>Node8</title>
<g id="a_node8"><a xlink:href="structfw__rsc__hdr.html" target="_top" xlink:title=" ">
<polygon fill="white" stroke="black" points="515.5,-79.5 515.5,-98.5 583.5,-98.5 583.5,-79.5 515.5,-79.5"/>
<text text-anchor="middle" x="549.5" y="-86.5" font-family="Helvetica,sans-Serif" font-size="10.00">fw_rsc_hdr</text>
</a>
</g>
</g>
<!-- Node4&#45;&gt;Node8 -->
<g id="edge14" class="edge">
<title>Node4&#45;&gt;Node8</title>
<path fill="none" stroke="#9a32cd" stroke-dasharray="5,2" d="M298.68,-318.75C355.29,-309.18 462.04,-284.02 529.5,-224 557.3,-199.26 561.08,-187 570.5,-151 574.21,-136.81 575.14,-131.91 570.5,-118 568.12,-110.85 563.12,-104.06 558.59,-98.95"/>
<polygon fill="#9a32cd" stroke="#9a32cd" points="298.03,-315.31 288.72,-320.36 299.15,-322.22 298.03,-315.31"/>
<text text-anchor="middle" x="579" y="-194" font-family="Helvetica,sans-Serif" font-size="10.00"> type</text>
</g>
<!-- Node5 -->
<g id="node5" class="node">
<title>Node5</title>
<g id="a_node5"><a xlink:title=" ">
<polygon fill="white" stroke="#bfbfbf" points="470.5,-187 470.5,-206 520.5,-206 520.5,-187 470.5,-187"/>
<text text-anchor="middle" x="495.5" y="-194" font-family="Helvetica,sans-Serif" font-size="10.00">uint8_t</text>
</a>
</g>
</g>
<!-- Node5&#45;&gt;Node2 -->
<g id="edge5" class="edge">
<title>Node5&#45;&gt;Node2</title>
<path fill="none" stroke="#9a32cd" stroke-dasharray="5,2" d="M460.89,-183.68C440.44,-175.91 414.52,-164.67 393.5,-151 375.3,-139.17 377.15,-127.21 357.5,-118 342.6,-111.02 244.78,-99.86 189.1,-93.96"/>
<polygon fill="#9a32cd" stroke="#9a32cd" points="459.85,-187.03 470.44,-187.21 462.27,-180.46 459.85,-187.03"/>
<text text-anchor="middle" x="431.5" y="-143" font-family="Helvetica,sans-Serif" font-size="10.00"> num_of_vrings</text>
<text text-anchor="middle" x="431.5" y="-132" font-family="Helvetica,sans-Serif" font-size="10.00">reserved</text>
<text text-anchor="middle" x="431.5" y="-121" font-family="Helvetica,sans-Serif" font-size="10.00">status</text>
</g>
<!-- Node5&#45;&gt;Node7 -->
<g id="edge11" class="edge">
<title>Node5&#45;&gt;Node7</title>
<path fill="none" stroke="#9a32cd" stroke-dasharray="5,2" d="M495.25,-176.73C493.98,-159.16 489.29,-133.36 473.5,-118 457.05,-101.99 432.79,-94.75 411.23,-91.62"/>
<polygon fill="#9a32cd" stroke="#9a32cd" points="491.76,-177.06 495.67,-186.9 498.75,-176.76 491.76,-177.06"/>
<text text-anchor="middle" x="507" y="-132" font-family="Helvetica,sans-Serif" font-size="10.00"> name</text>
</g>
<!-- Node5&#45;&gt;Node8 -->
<g id="edge15" class="edge">
<title>Node5&#45;&gt;Node8</title>
<path fill="none" stroke="#9a32cd" stroke-dasharray="5,2" d="M509.12,-178.9C515.3,-170.82 522.35,-160.77 527.5,-151 536.84,-133.27 543.83,-110.7 547.22,-98.6"/>
<polygon fill="#9a32cd" stroke="#9a32cd" points="506.35,-176.76 502.9,-186.78 511.84,-181.1 506.35,-176.76"/>
<text text-anchor="middle" x="554" y="-132" font-family="Helvetica,sans-Serif" font-size="10.00"> data</text>
</g>
<!-- Node6&#45;&gt;Node1 -->
<g id="edge7" class="edge">
<title>Node6&#45;&gt;Node1</title>
<path fill="none" stroke="#9a32cd" stroke-dasharray="5,2" d="M290.8,-116.84C286.87,-111.63 282.77,-105.74 279.5,-100 263.6,-72.08 250.74,-35.98 245.3,-19.67"/>
<polygon fill="#9a32cd" stroke="#9a32cd" points="288.14,-119.12 297.08,-124.81 293.64,-114.79 288.14,-119.12"/>
<text text-anchor="middle" x="293" y="-86.5" font-family="Helvetica,sans-Serif" font-size="10.00"> base</text>
</g>
<!-- Node7&#45;&gt;Node1 -->
<g id="edge9" class="edge">
<title>Node7&#45;&gt;Node1</title>
<path fill="none" stroke="#9a32cd" stroke-dasharray="5,2" d="M341.65,-74.09C316.72,-58.23 276.72,-32.78 255.97,-19.57"/>
<polygon fill="#9a32cd" stroke="#9a32cd" points="339.77,-77.05 350.09,-79.47 343.53,-71.14 339.77,-77.05"/>
<text text-anchor="middle" x="343.5" y="-46.5" font-family="Helvetica,sans-Serif" font-size="10.00"> carveout1</text>
</g>
<!-- Node8&#45;&gt;Node1 -->
<g id="edge13" class="edge">
<title>Node8&#45;&gt;Node1</title>
<path fill="none" stroke="#9a32cd" stroke-dasharray="5,2" d="M512.01,-76.48C476.52,-65.79 421.66,-49.79 373.5,-38 345.31,-31.1 313.41,-24.5 288.15,-19.55"/>
<polygon fill="#9a32cd" stroke="#9a32cd" points="511.34,-79.94 521.93,-79.49 513.37,-73.24 511.34,-79.94"/>
<text text-anchor="middle" x="502" y="-52" font-family="Helvetica,sans-Serif" font-size="10.00"> carveout1_header</text>
<text text-anchor="middle" x="502" y="-41" font-family="Helvetica,sans-Serif" font-size="10.00">rpmsg1_header</text>
</g>
</g>
</svg>
