<?xml version="1.0" encoding="UTF-8" standalone="no"?>
<!DOCTYPE svg PUBLIC "-//W3C//DTD SVG 1.1//EN"
 "http://www.w3.org/Graphics/SVG/1.1/DTD/svg11.dtd">
<!-- Generated by graphviz version 2.43.0 (0)
 -->
<!-- Title: r_wm_Msg_Surf_Buf_t Pages: 1 -->
<svg width="204pt" height="117pt"
 viewBox="0.00 0.00 204.00 117.00" xmlns="http://www.w3.org/2000/svg" xmlns:xlink="http://www.w3.org/1999/xlink">
<g id="graph0" class="graph" transform="scale(1 1) rotate(0) translate(4 113)">
<title>r_wm_Msg_Surf_Buf_t</title>
<polygon fill="white" stroke="transparent" points="-4,4 -4,-113 200,-113 200,4 -4,4"/>
<!-- Node1 -->
<g id="node1" class="node">
<title>Node1</title>
<g id="a_node1"><a xlink:title=" ">
<polygon fill="#bfbfbf" stroke="black" points="34.5,-0.5 34.5,-19.5 159.5,-19.5 159.5,-0.5 34.5,-0.5"/>
<text text-anchor="middle" x="97" y="-7.5" font-family="Helvetica,sans-Serif" font-size="10.00">r_wm_Msg_Surf_Buf_t</text>
</a>
</g>
</g>
<!-- Node2 -->
<g id="node2" class="node">
<title>Node2</title>
<g id="a_node2"><a xlink:title=" ">
<polygon fill="white" stroke="#bfbfbf" points="0,-89.5 0,-108.5 56,-108.5 56,-89.5 0,-89.5"/>
<text text-anchor="middle" x="28" y="-96.5" font-family="Helvetica,sans-Serif" font-size="10.00">uint32_t</text>
</a>
</g>
</g>
<!-- Node2&#45;&gt;Node1 -->
<g id="edge1" class="edge">
<title>Node2&#45;&gt;Node1</title>
<path fill="none" stroke="#9a32cd" stroke-dasharray="5,2" d="M40.61,-81.07C49.73,-68.95 62.43,-52.32 74,-38 78.95,-31.87 84.7,-25.12 89.22,-19.9"/>
<polygon fill="#9a32cd" stroke="#9a32cd" points="37.61,-79.25 34.41,-89.35 43.21,-83.44 37.61,-79.25"/>
<text text-anchor="middle" x="83.5" y="-52" font-family="Helvetica,sans-Serif" font-size="10.00"> Pid</text>
</g>
<!-- Node3 -->
<g id="node3" class="node">
<title>Node3</title>
<g id="a_node3"><a xlink:title=" ">
<polygon fill="white" stroke="#bfbfbf" points="74,-89.5 74,-108.5 120,-108.5 120,-89.5 74,-89.5"/>
<text text-anchor="middle" x="97" y="-96.5" font-family="Helvetica,sans-Serif" font-size="10.00">void *</text>
</a>
</g>
</g>
<!-- Node3&#45;&gt;Node1 -->
<g id="edge2" class="edge">
<title>Node3&#45;&gt;Node1</title>
<path fill="none" stroke="#9a32cd" stroke-dasharray="5,2" d="M97,-79.19C97,-60.74 97,-33.41 97,-19.62"/>
<polygon fill="#9a32cd" stroke="#9a32cd" points="93.5,-79.34 97,-89.34 100.5,-79.34 93.5,-79.34"/>
<text text-anchor="middle" x="116" y="-52" font-family="Helvetica,sans-Serif" font-size="10.00"> Handle</text>
</g>
<!-- Node4 -->
<g id="node4" class="node">
<title>Node4</title>
<g id="a_node4"><a xlink:title=" ">
<polygon fill="white" stroke="#bfbfbf" points="138,-89.5 138,-108.5 196,-108.5 196,-89.5 138,-89.5"/>
<text text-anchor="middle" x="167" y="-96.5" font-family="Helvetica,sans-Serif" font-size="10.00">uintptr_t</text>
</a>
</g>
</g>
<!-- Node4&#45;&gt;Node1 -->
<g id="edge3" class="edge">
<title>Node4&#45;&gt;Node1</title>
<path fill="none" stroke="#9a32cd" stroke-dasharray="5,2" d="M161.55,-79.84C157.04,-67.08 149.64,-50.17 139,-38 132.38,-30.43 123.14,-24.17 115.01,-19.6"/>
<polygon fill="#9a32cd" stroke="#9a32cd" points="158.23,-80.97 164.66,-89.4 164.89,-78.8 158.23,-80.97"/>
<text text-anchor="middle" x="165" y="-63" font-family="Helvetica,sans-Serif" font-size="10.00"> C0</text>
<text text-anchor="middle" x="165" y="-52" font-family="Helvetica,sans-Serif" font-size="10.00">C1</text>
<text text-anchor="middle" x="165" y="-41" font-family="Helvetica,sans-Serif" font-size="10.00">Fb</text>
</g>
</g>
</svg>
