<?xml version="1.0" encoding="UTF-8" standalone="no"?>
<!DOCTYPE svg PUBLIC "-//W3C//DTD SVG 1.1//EN"
 "http://www.w3.org/Graphics/SVG/1.1/DTD/svg11.dtd">
<!-- Generated by graphviz version 2.43.0 (0)
 -->
<!-- Title: taurus_ether_init_in Pages: 1 -->
<svg width="735pt" height="419pt"
 viewBox="0.00 0.00 735.00 419.00" xmlns="http://www.w3.org/2000/svg" xmlns:xlink="http://www.w3.org/1999/xlink">
<g id="graph0" class="graph" transform="scale(1 1) rotate(0) translate(4 415)">
<title>taurus_ether_init_in</title>
<polygon fill="white" stroke="transparent" points="-4,4 -4,-415 731,-415 731,4 -4,4"/>
<!-- Node1 -->
<g id="node1" class="node">
<title>Node1</title>
<g id="a_node1"><a xlink:title=" ">
<polygon fill="#bfbfbf" stroke="black" points="614,-239.5 614,-258.5 727,-258.5 727,-239.5 614,-239.5"/>
<text text-anchor="middle" x="670.5" y="-246.5" font-family="Helvetica,sans-Serif" font-size="10.00">taurus_ether_init_in</text>
</a>
</g>
</g>
<!-- Node2 -->
<g id="node2" class="node">
<title>Node2</title>
<g id="a_node2"><a xlink:href="structSTag__Eth__TxCBSType.html" target="_top" xlink:title=" ">
<polygon fill="white" stroke="black" points="320.5,-307.5 320.5,-326.5 439.5,-326.5 439.5,-307.5 320.5,-307.5"/>
<text text-anchor="middle" x="380" y="-314.5" font-family="Helvetica,sans-Serif" font-size="10.00">STag_Eth_TxCBSType</text>
</a>
</g>
</g>
<!-- Node2&#45;&gt;Node1 -->
<g id="edge1" class="edge">
<title>Node2&#45;&gt;Node1</title>
<path fill="none" stroke="#9a32cd" stroke-dasharray="5,2" d="M449.72,-313.35C492.58,-309.63 548.45,-302.12 596,-287 617.49,-280.17 640.27,-267.42 654.67,-258.59"/>
<polygon fill="#9a32cd" stroke="#9a32cd" points="449.35,-309.87 439.67,-314.17 449.92,-316.84 449.35,-309.87"/>
<text text-anchor="middle" x="534.5" y="-313" font-family="Helvetica,sans-Serif" font-size="10.00"> stTxConfig</text>
</g>
<!-- Node3 -->
<g id="node3" class="node">
<title>Node3</title>
<g id="a_node3"><a xlink:title=" ">
<polygon fill="white" stroke="#bfbfbf" points="3,-378.5 3,-397.5 160,-397.5 160,-378.5 3,-378.5"/>
<text text-anchor="middle" x="81.5" y="-385.5" font-family="Helvetica,sans-Serif" font-size="10.00">enum ETag_Eth_TxQPrioType</text>
</a>
</g>
</g>
<!-- Node3&#45;&gt;Node2 -->
<g id="edge2" class="edge">
<title>Node3&#45;&gt;Node2</title>
<path fill="none" stroke="#9a32cd" stroke-dasharray="5,2" d="M170.44,-395.43C208.89,-394.61 252.89,-387.8 287,-366 300.1,-357.63 292.54,-345.3 305,-336 310.21,-332.11 316.14,-329.02 322.31,-326.56"/>
<polygon fill="#9a32cd" stroke="#9a32cd" points="170.25,-391.93 160.28,-395.51 170.31,-398.93 170.25,-391.93"/>
<text text-anchor="middle" x="234" y="-398" font-family="Helvetica,sans-Serif" font-size="10.00"> Tqp</text>
</g>
<!-- Node4 -->
<g id="node4" class="node">
<title>Node4</title>
<g id="a_node4"><a xlink:title=" ">
<polygon fill="white" stroke="#bfbfbf" points="62.5,-210.5 62.5,-229.5 100.5,-229.5 100.5,-210.5 62.5,-210.5"/>
<text text-anchor="middle" x="81.5" y="-217.5" font-family="Helvetica,sans-Serif" font-size="10.00">char</text>
</a>
</g>
</g>
<!-- Node4&#45;&gt;Node2 -->
<g id="edge3" class="edge">
<title>Node4&#45;&gt;Node2</title>
<path fill="none" stroke="#9a32cd" stroke-dasharray="5,2" d="M102.61,-235.96C121.68,-250.27 151.71,-270.69 181,-282 225.94,-299.35 279.97,-308.16 320.22,-312.6"/>
<polygon fill="#9a32cd" stroke="#9a32cd" points="104.48,-232.99 94.42,-229.69 100.23,-238.55 104.48,-232.99"/>
<text text-anchor="middle" x="234" y="-311" font-family="Helvetica,sans-Serif" font-size="10.00"> Ecbs</text>
</g>
<!-- Node6 -->
<g id="node6" class="node">
<title>Node6</title>
<g id="a_node6"><a xlink:href="structSTag__Eth__CtrlPriorityType.html" target="_top" xlink:title=" ">
<polygon fill="white" stroke="black" points="310,-383.5 310,-402.5 450,-402.5 450,-383.5 310,-383.5"/>
<text text-anchor="middle" x="380" y="-390.5" font-family="Helvetica,sans-Serif" font-size="10.00">STag_Eth_CtrlPriorityType</text>
</a>
</g>
</g>
<!-- Node4&#45;&gt;Node6 -->
<g id="edge6" class="edge">
<title>Node4&#45;&gt;Node6</title>
<path fill="none" stroke="#9a32cd" stroke-dasharray="5,2" d="M94.53,-237.98C111.08,-261.19 143.18,-300.94 181,-321 223.28,-343.43 248.34,-311.78 287,-340 300.81,-350.08 291.57,-363.41 305,-374 309.9,-377.86 315.49,-380.94 321.36,-383.4"/>
<polygon fill="#9a32cd" stroke="#9a32cd" points="97.36,-235.92 88.78,-229.7 91.61,-239.92 97.36,-235.92"/>
<text text-anchor="middle" x="234" y="-354" font-family="Helvetica,sans-Serif" font-size="10.00"> DflTxQueue</text>
<text text-anchor="middle" x="234" y="-343" font-family="Helvetica,sans-Serif" font-size="10.00">ucNumberOfPriorities</text>
</g>
<!-- Node8 -->
<g id="node8" class="node">
<title>Node8</title>
<g id="a_node8"><a xlink:href="structSTag__Eth__ComConfigType.html" target="_top" xlink:title=" ">
<polygon fill="white" stroke="black" points="309.5,-78.5 309.5,-97.5 450.5,-97.5 450.5,-78.5 309.5,-78.5"/>
<text text-anchor="middle" x="380" y="-85.5" font-family="Helvetica,sans-Serif" font-size="10.00">STag_Eth_ComConfigType</text>
</a>
</g>
</g>
<!-- Node4&#45;&gt;Node8 -->
<g id="edge9" class="edge">
<title>Node4&#45;&gt;Node8</title>
<path fill="none" stroke="#9a32cd" stroke-dasharray="5,2" d="M103.8,-204.58C123.06,-191.36 152.66,-172.79 181,-162 225.88,-144.91 248.47,-169.67 287,-141 300.72,-130.79 291.57,-117.59 305,-107 309.9,-103.14 315.49,-100.06 321.36,-97.6"/>
<polygon fill="#9a32cd" stroke="#9a32cd" points="101.66,-201.81 95.47,-210.41 105.67,-207.55 101.66,-201.81"/>
<text text-anchor="middle" x="234" y="-165" font-family="Helvetica,sans-Serif" font-size="10.00"> Lbme</text>
</g>
<!-- Node11 -->
<g id="node11" class="node">
<title>Node11</title>
<g id="a_node11"><a xlink:href="structSTag__Eth__QueueConfigType.html" target="_top" xlink:title=" ">
<polygon fill="white" stroke="black" points="305,-231.5 305,-250.5 455,-250.5 455,-231.5 305,-231.5"/>
<text text-anchor="middle" x="380" y="-238.5" font-family="Helvetica,sans-Serif" font-size="10.00">STag_Eth_QueueConfigType</text>
</a>
</g>
</g>
<!-- Node4&#45;&gt;Node11 -->
<g id="edge13" class="edge">
<title>Node4&#45;&gt;Node11</title>
<path fill="none" stroke="#9a32cd" stroke-dasharray="5,2" d="M110.62,-221.99C154.81,-225.12 241.96,-231.29 304.98,-235.76"/>
<polygon fill="#9a32cd" stroke="#9a32cd" points="110.82,-218.5 100.6,-221.28 110.33,-225.48 110.82,-218.5"/>
<text text-anchor="middle" x="234" y="-270" font-family="Helvetica,sans-Serif" font-size="10.00"> ucFirstRxQueueIdx</text>
<text text-anchor="middle" x="234" y="-259" font-family="Helvetica,sans-Serif" font-size="10.00">ucLastRxQueueIdx</text>
<text text-anchor="middle" x="234" y="-248" font-family="Helvetica,sans-Serif" font-size="10.00">ucNumberOfRxQueue</text>
<text text-anchor="middle" x="234" y="-237" font-family="Helvetica,sans-Serif" font-size="10.00">ucNumberOfTxQueue</text>
</g>
<!-- Node12 -->
<g id="node12" class="node">
<title>Node12</title>
<g id="a_node12"><a xlink:href="structSTag__Eth__ClockDelayType.html" target="_top" xlink:title=" ">
<polygon fill="white" stroke="black" points="308.5,-116.5 308.5,-135.5 451.5,-135.5 451.5,-116.5 308.5,-116.5"/>
<text text-anchor="middle" x="380" y="-123.5" font-family="Helvetica,sans-Serif" font-size="10.00">STag_Eth_ClockDelayType</text>
</a>
</g>
</g>
<!-- Node4&#45;&gt;Node12 -->
<g id="edge15" class="edge">
<title>Node4&#45;&gt;Node12</title>
<path fill="none" stroke="#9a32cd" stroke-dasharray="5,2" d="M110.57,-214.43C164.92,-203.58 279.81,-180.17 287,-175 299.62,-165.92 292.54,-154.3 305,-145 310.21,-141.11 316.14,-138.02 322.31,-135.56"/>
<polygon fill="#9a32cd" stroke="#9a32cd" points="109.69,-211.04 100.56,-216.43 111.05,-217.91 109.69,-211.04"/>
<text text-anchor="middle" x="234" y="-214" font-family="Helvetica,sans-Serif" font-size="10.00"> Rdm</text>
<text text-anchor="middle" x="234" y="-203" font-family="Helvetica,sans-Serif" font-size="10.00">Tdm</text>
</g>
<!-- Node13 -->
<g id="node13" class="node">
<title>Node13</title>
<g id="a_node13"><a xlink:href="structSTag__Eth__RxConfigType.html" target="_top" xlink:title=" ">
<polygon fill="white" stroke="black" points="314.5,-39.5 314.5,-58.5 445.5,-58.5 445.5,-39.5 314.5,-39.5"/>
<text text-anchor="middle" x="380" y="-46.5" font-family="Helvetica,sans-Serif" font-size="10.00">STag_Eth_RxConfigType</text>
</a>
</g>
</g>
<!-- Node4&#45;&gt;Node13 -->
<g id="edge19" class="edge">
<title>Node4&#45;&gt;Node13</title>
<path fill="none" stroke="#9a32cd" stroke-dasharray="5,2" d="M94.11,-201.66C110.4,-177.59 142.41,-135.95 181,-115 223.06,-92.17 246.97,-122.23 287,-96 299.06,-88.1 293.29,-77.42 305,-69 311.05,-64.65 318,-61.25 325.15,-58.58"/>
<polygon fill="#9a32cd" stroke="#9a32cd" points="91.04,-199.95 88.47,-210.23 96.89,-203.8 91.04,-199.95"/>
<text text-anchor="middle" x="234" y="-129" font-family="Helvetica,sans-Serif" font-size="10.00"> Effs</text>
<text text-anchor="middle" x="234" y="-118" font-family="Helvetica,sans-Serif" font-size="10.00">Encf</text>
</g>
<!-- Node5 -->
<g id="node5" class="node">
<title>Node5</title>
<g id="a_node5"><a xlink:title=" ">
<polygon fill="white" stroke="#bfbfbf" points="352,-345.5 352,-364.5 408,-364.5 408,-345.5 352,-345.5"/>
<text text-anchor="middle" x="380" y="-352.5" font-family="Helvetica,sans-Serif" font-size="10.00">uint64_t</text>
</a>
</g>
</g>
<!-- Node5&#45;&gt;Node1 -->
<g id="edge4" class="edge">
<title>Node5&#45;&gt;Node1</title>
<path fill="none" stroke="#9a32cd" stroke-dasharray="5,2" d="M418.25,-356.95C462.92,-357.73 538.93,-354.02 596,-325 626.92,-309.28 652.25,-275.35 663.39,-258.66"/>
<polygon fill="#9a32cd" stroke="#9a32cd" points="418.22,-353.45 408.13,-356.69 418.04,-360.45 418.22,-353.45"/>
<text text-anchor="middle" x="534.5" y="-357" font-family="Helvetica,sans-Serif" font-size="10.00"> cookie</text>
</g>
<!-- Node6&#45;&gt;Node1 -->
<g id="edge5" class="edge">
<title>Node6&#45;&gt;Node1</title>
<path fill="none" stroke="#9a32cd" stroke-dasharray="5,2" d="M460.22,-400.36C503.43,-400.59 556.09,-394.37 596,-369 638.06,-342.27 659.76,-281.94 666.84,-258.53"/>
<polygon fill="#9a32cd" stroke="#9a32cd" points="460.08,-396.86 450.02,-400.19 459.96,-403.85 460.08,-396.86"/>
<text text-anchor="middle" x="534.5" y="-403" font-family="Helvetica,sans-Serif" font-size="10.00"> stEthPriority</text>
</g>
<!-- Node7 -->
<g id="node7" class="node">
<title>Node7</title>
<g id="a_node7"><a xlink:title=" ">
<polygon fill="white" stroke="#bfbfbf" points="352,-269.5 352,-288.5 408,-288.5 408,-269.5 352,-269.5"/>
<text text-anchor="middle" x="380" y="-276.5" font-family="Helvetica,sans-Serif" font-size="10.00">uint32_t</text>
</a>
</g>
</g>
<!-- Node7&#45;&gt;Node1 -->
<g id="edge7" class="edge">
<title>Node7&#45;&gt;Node1</title>
<path fill="none" stroke="#9a32cd" stroke-dasharray="5,2" d="M418.21,-276.77C461.15,-274 533.84,-268.66 596,-261 601.9,-260.27 608.06,-259.42 614.18,-258.51"/>
<polygon fill="#9a32cd" stroke="#9a32cd" points="417.98,-273.28 408.22,-277.41 418.42,-280.27 417.98,-273.28"/>
<text text-anchor="middle" x="534.5" y="-275" font-family="Helvetica,sans-Serif" font-size="10.00"> ulStartOfDbToc</text>
</g>
<!-- Node8&#45;&gt;Node1 -->
<g id="edge8" class="edge">
<title>Node8&#45;&gt;Node1</title>
<path fill="none" stroke="#9a32cd" stroke-dasharray="5,2" d="M429.79,-76.69C476.41,-68.76 546.69,-64.61 596,-97 647.45,-130.79 663.95,-211.43 668.22,-239.31"/>
<polygon fill="#9a32cd" stroke="#9a32cd" points="429.14,-73.25 419.92,-78.48 430.39,-80.14 429.14,-73.25"/>
<text text-anchor="middle" x="534.5" y="-100" font-family="Helvetica,sans-Serif" font-size="10.00"> stComConfig</text>
</g>
<!-- Node9 -->
<g id="node9" class="node">
<title>Node9</title>
<g id="a_node9"><a xlink:title=" ">
<polygon fill="white" stroke="#bfbfbf" points="2.5,-76.5 2.5,-95.5 160.5,-95.5 160.5,-76.5 2.5,-76.5"/>
<text text-anchor="middle" x="81.5" y="-83.5" font-family="Helvetica,sans-Serif" font-size="10.00">enum ETag_Eth_GPtpClkType</text>
</a>
</g>
</g>
<!-- Node9&#45;&gt;Node8 -->
<g id="edge10" class="edge">
<title>Node9&#45;&gt;Node8</title>
<path fill="none" stroke="#9a32cd" stroke-dasharray="5,2" d="M170.68,-84.75C206.74,-84.45 248.87,-84.38 287,-85 294.19,-85.12 301.7,-85.29 309.18,-85.48"/>
<polygon fill="#9a32cd" stroke="#9a32cd" points="170.64,-81.25 160.68,-84.84 170.71,-88.25 170.64,-81.25"/>
<text text-anchor="middle" x="234" y="-88" font-family="Helvetica,sans-Serif" font-size="10.00"> Csel</text>
</g>
<!-- Node10 -->
<g id="node10" class="node">
<title>Node10</title>
<g id="a_node10"><a xlink:title=" ">
<polygon fill="white" stroke="#bfbfbf" points="355,-154.5 355,-173.5 405,-173.5 405,-154.5 355,-154.5"/>
<text text-anchor="middle" x="380" y="-161.5" font-family="Helvetica,sans-Serif" font-size="10.00">uint8_t</text>
</a>
</g>
</g>
<!-- Node10&#45;&gt;Node1 -->
<g id="edge11" class="edge">
<title>Node10&#45;&gt;Node1</title>
<path fill="none" stroke="#9a32cd" stroke-dasharray="5,2" d="M415.11,-157.94C459.06,-151.76 536.84,-146.44 596,-173 627.82,-187.28 652.89,-222.23 663.71,-239.3"/>
<polygon fill="#9a32cd" stroke="#9a32cd" points="414.59,-154.48 405.22,-159.43 415.63,-161.4 414.59,-154.48"/>
<text text-anchor="middle" x="534.5" y="-231" font-family="Helvetica,sans-Serif" font-size="10.00"> ucEthDuplex</text>
<text text-anchor="middle" x="534.5" y="-220" font-family="Helvetica,sans-Serif" font-size="10.00">ucEthMACAddr</text>
<text text-anchor="middle" x="534.5" y="-209" font-family="Helvetica,sans-Serif" font-size="10.00">ucEthMagicDection</text>
<text text-anchor="middle" x="534.5" y="-198" font-family="Helvetica,sans-Serif" font-size="10.00">ucEthPHYInterface</text>
<text text-anchor="middle" x="534.5" y="-187" font-family="Helvetica,sans-Serif" font-size="10.00">ucEthSpeed</text>
<text text-anchor="middle" x="534.5" y="-176" font-family="Helvetica,sans-Serif" font-size="10.00">ucStartOfPayloadCrcArea</text>
</g>
<!-- Node11&#45;&gt;Node1 -->
<g id="edge12" class="edge">
<title>Node11&#45;&gt;Node1</title>
<path fill="none" stroke="#9a32cd" stroke-dasharray="5,2" d="M465.32,-243.34C513.11,-244.66 571.58,-246.28 613.68,-247.45"/>
<polygon fill="#9a32cd" stroke="#9a32cd" points="465.39,-239.84 455.3,-243.06 465.2,-246.84 465.39,-239.84"/>
<text text-anchor="middle" x="534.5" y="-249" font-family="Helvetica,sans-Serif" font-size="10.00"> Eth_QueueConfig</text>
</g>
<!-- Node12&#45;&gt;Node1 -->
<g id="edge14" class="edge">
<title>Node12&#45;&gt;Node1</title>
<path fill="none" stroke="#9a32cd" stroke-dasharray="5,2" d="M440.66,-115.21C486.23,-110.1 548.97,-110.04 596,-137 636.76,-160.37 658.96,-216.59 666.51,-239.27"/>
<polygon fill="#9a32cd" stroke="#9a32cd" points="440.13,-111.75 430.63,-116.45 440.99,-118.7 440.13,-111.75"/>
<text text-anchor="middle" x="534.5" y="-140" font-family="Helvetica,sans-Serif" font-size="10.00"> stClkDelayConfig</text>
</g>
<!-- Node13&#45;&gt;Node1 -->
<g id="edge16" class="edge">
<title>Node13&#45;&gt;Node1</title>
<path fill="none" stroke="#9a32cd" stroke-dasharray="5,2" d="M425.05,-37.27C471.96,-27.56 546.15,-20.43 596,-56 658.75,-100.77 667.94,-206.47 669.28,-239.18"/>
<polygon fill="#9a32cd" stroke="#9a32cd" points="424.21,-33.88 415.19,-39.44 425.71,-40.71 424.21,-33.88"/>
<text text-anchor="middle" x="534.5" y="-59" font-family="Helvetica,sans-Serif" font-size="10.00"> stRxConfig</text>
</g>
<!-- Node14 -->
<g id="node14" class="node">
<title>Node14</title>
<g id="a_node14"><a xlink:title=" ">
<polygon fill="white" stroke="#bfbfbf" points="39,-0.5 39,-19.5 124,-19.5 124,-0.5 39,-0.5"/>
<text text-anchor="middle" x="81.5" y="-7.5" font-family="Helvetica,sans-Serif" font-size="10.00">unsigned long</text>
</a>
</g>
</g>
<!-- Node14&#45;&gt;Node13 -->
<g id="edge17" class="edge">
<title>Node14&#45;&gt;Node13</title>
<path fill="none" stroke="#9a32cd" stroke-dasharray="5,2" d="M134.2,-15.42C175.6,-19.92 235.11,-26.73 287,-34 298.7,-35.64 311.21,-37.56 323.11,-39.48"/>
<polygon fill="#9a32cd" stroke="#9a32cd" points="134.4,-11.92 124.09,-14.33 133.65,-18.88 134.4,-11.92"/>
<text text-anchor="middle" x="234" y="-37" font-family="Helvetica,sans-Serif" font-size="10.00"> Rfcl</text>
</g>
<!-- Node15 -->
<g id="node15" class="node">
<title>Node15</title>
<g id="a_node15"><a xlink:title=" ">
<polygon fill="white" stroke="#bfbfbf" points="0,-38.5 0,-57.5 163,-57.5 163,-38.5 0,-38.5"/>
<text text-anchor="middle" x="81.5" y="-45.5" font-family="Helvetica,sans-Serif" font-size="10.00">enum ETag_Eth_SFOptionType</text>
</a>
</g>
</g>
<!-- Node15&#45;&gt;Node13 -->
<g id="edge18" class="edge">
<title>Node15&#45;&gt;Node13</title>
<path fill="none" stroke="#9a32cd" stroke-dasharray="5,2" d="M173.31,-48.31C218.89,-48.46 273.04,-48.64 314.34,-48.78"/>
<polygon fill="#9a32cd" stroke="#9a32cd" points="173.14,-44.81 163.13,-48.27 173.12,-51.81 173.14,-44.81"/>
<text text-anchor="middle" x="234" y="-52" font-family="Helvetica,sans-Serif" font-size="10.00"> Esf</text>
</g>
</g>
</svg>
