<?xml version="1.0" encoding="UTF-8" standalone="no"?>
<!DOCTYPE svg PUBLIC "-//W3C//DTD SVG 1.1//EN"
 "http://www.w3.org/Graphics/SVG/1.1/DTD/svg11.dtd">
<!-- Generated by graphviz version 2.43.0 (0)
 -->
<!-- Title: st_osal_mem_mmngr_ptr_self Pages: 1 -->
<svg width="810pt" height="686pt"
 viewBox="0.00 0.00 810.00 686.33" xmlns="http://www.w3.org/2000/svg" xmlns:xlink="http://www.w3.org/1999/xlink">
<g id="graph0" class="graph" transform="scale(1 1) rotate(0) translate(4 682.33)">
<title>st_osal_mem_mmngr_ptr_self</title>
<polygon fill="white" stroke="transparent" points="-4,4 -4,-682.33 806,-682.33 806,4 -4,4"/>
<!-- Node1 -->
<g id="node1" class="node">
<title>Node1</title>
<g id="a_node1"><a xlink:title=" ">
<polygon fill="#bfbfbf" stroke="black" points="638,-393.33 638,-412.33 802,-412.33 802,-393.33 638,-393.33"/>
<text text-anchor="middle" x="720" y="-400.33" font-family="Helvetica,sans-Serif" font-size="10.00">st_osal_mem_mmngr_ptr_self</text>
</a>
</g>
</g>
<!-- Node2 -->
<g id="node2" class="node">
<title>Node2</title>
<g id="a_node2"><a xlink:href="structst__osal__mem__monitor__desc__t.html" target="_top" xlink:title=" ">
<polygon fill="white" stroke="black" points="384,-647.83 384,-677.83 509,-677.83 509,-647.83 384,-647.83"/>
<text text-anchor="start" x="392" y="-665.83" font-family="Helvetica,sans-Serif" font-size="10.00">st_osal_mem_monitor</text>
<text text-anchor="middle" x="446.5" y="-654.83" font-family="Helvetica,sans-Serif" font-size="10.00">_desc_t</text>
</a>
</g>
</g>
<!-- Node2&#45;&gt;Node1 -->
<g id="edge1" class="edge">
<title>Node2&#45;&gt;Node1</title>
<path fill="none" stroke="#9a32cd" stroke-dasharray="5,2" d="M519.57,-660.06C553.27,-655.43 592.03,-644.91 620,-621.83 689.84,-564.21 712.41,-446.92 717.67,-412.52"/>
<polygon fill="#9a32cd" stroke="#9a32cd" points="518.8,-656.63 509.3,-661.32 519.65,-663.58 518.8,-656.63"/>
<text text-anchor="middle" x="584" y="-656.83" font-family="Helvetica,sans-Serif" font-size="10.00"> p_monitor</text>
</g>
<!-- Node3 -->
<g id="node3" class="node">
<title>Node3</title>
<g id="a_node3"><a xlink:title=" ">
<polygon fill="white" stroke="#bfbfbf" points="418.5,-609.33 418.5,-628.33 474.5,-628.33 474.5,-609.33 418.5,-609.33"/>
<text text-anchor="middle" x="446.5" y="-616.33" font-family="Helvetica,sans-Serif" font-size="10.00">uint64_t</text>
</a>
</g>
</g>
<!-- Node3&#45;&gt;Node1 -->
<g id="edge2" class="edge">
<title>Node3&#45;&gt;Node1</title>
<path fill="none" stroke="#9a32cd" stroke-dasharray="5,2" d="M484.63,-618C522.3,-615.37 580.54,-606.2 620,-575.83 678.14,-531.09 707.88,-441.81 716.38,-412.44"/>
<polygon fill="#9a32cd" stroke="#9a32cd" points="484.37,-614.51 474.58,-618.58 484.77,-621.49 484.37,-614.51"/>
<text text-anchor="middle" x="584" y="-609.83" font-family="Helvetica,sans-Serif" font-size="10.00"> handle_id</text>
</g>
<!-- Node4 -->
<g id="node4" class="node">
<title>Node4</title>
<g id="a_node4"><a xlink:title=" ">
<polygon fill="white" stroke="#bfbfbf" points="421.5,-571.33 421.5,-590.33 471.5,-590.33 471.5,-571.33 421.5,-571.33"/>
<text text-anchor="middle" x="446.5" y="-578.33" font-family="Helvetica,sans-Serif" font-size="10.00">int64_t</text>
</a>
</g>
</g>
<!-- Node4&#45;&gt;Node1 -->
<g id="edge3" class="edge">
<title>Node4&#45;&gt;Node1</title>
<path fill="none" stroke="#9a32cd" stroke-dasharray="5,2" d="M482.06,-576.76C519.2,-570.95 578.46,-557.37 620,-526.83 664.83,-493.87 700.55,-435.72 713.63,-412.66"/>
<polygon fill="#9a32cd" stroke="#9a32cd" points="481.14,-573.36 471.75,-578.27 482.15,-580.29 481.14,-573.36"/>
<text text-anchor="middle" x="584" y="-563.83" font-family="Helvetica,sans-Serif" font-size="10.00"> inner_timeout</text>
</g>
<!-- Node5 -->
<g id="node5" class="node">
<title>Node5</title>
<g id="a_node5"><a xlink:title=" ">
<polygon fill="white" stroke="#bfbfbf" points="403.5,-533.33 403.5,-552.33 489.5,-552.33 489.5,-533.33 403.5,-533.33"/>
<text text-anchor="middle" x="446.5" y="-540.33" font-family="Helvetica,sans-Serif" font-size="10.00">base_mutex_t</text>
</a>
</g>
</g>
<!-- Node5&#45;&gt;Node1 -->
<g id="edge4" class="edge">
<title>Node5&#45;&gt;Node1</title>
<path fill="none" stroke="#9a32cd" stroke-dasharray="5,2" d="M492.59,-530.4C504.79,-526.85 517.95,-522.85 530,-518.83 570.56,-505.29 583.03,-506.32 620,-484.83 656.47,-463.64 693.05,-429.04 709.7,-412.39"/>
<polygon fill="#9a32cd" stroke="#9a32cd" points="491.26,-527.15 482.61,-533.27 493.19,-533.87 491.26,-527.15"/>
<text text-anchor="middle" x="584" y="-514.83" font-family="Helvetica,sans-Serif" font-size="10.00"> inner_mtx</text>
</g>
<!-- Node6 -->
<g id="node6" class="node">
<title>Node6</title>
<g id="a_node6"><a xlink:title=" ">
<polygon fill="white" stroke="#bfbfbf" points="77.5,-491.33 77.5,-510.33 122.5,-510.33 122.5,-491.33 77.5,-491.33"/>
<text text-anchor="middle" x="100" y="-498.33" font-family="Helvetica,sans-Serif" font-size="10.00">size_t</text>
</a>
</g>
</g>
<!-- Node6&#45;&gt;Node1 -->
<g id="edge5" class="edge">
<title>Node6&#45;&gt;Node1</title>
<path fill="none" stroke="#9a32cd" stroke-dasharray="5,2" d="M132.67,-502.14C179.61,-503.39 270.18,-503.1 345,-486.83 353.39,-485.01 354.75,-482.2 363,-479.83 474.76,-447.74 506.84,-457.57 620,-430.83 642.95,-425.41 668.55,-418.14 687.97,-412.36"/>
<polygon fill="#9a32cd" stroke="#9a32cd" points="132.62,-498.64 122.52,-501.83 132.4,-505.64 132.62,-498.64"/>
<text text-anchor="middle" x="446.5" y="-515.83" font-family="Helvetica,sans-Serif" font-size="10.00"> num_buffers</text>
<text text-anchor="middle" x="446.5" y="-504.83" font-family="Helvetica,sans-Serif" font-size="10.00">num_monitor</text>
<text text-anchor="middle" x="446.5" y="-493.83" font-family="Helvetica,sans-Serif" font-size="10.00">size</text>
<text text-anchor="middle" x="446.5" y="-482.83" font-family="Helvetica,sans-Serif" font-size="10.00">use_buffer_total</text>
</g>
<!-- Node7 -->
<g id="node7" class="node">
<title>Node7</title>
<g id="a_node7"><a xlink:href="structst__osal__mmngr__config.html" target="_top" xlink:title="configuration of Memory Manager.">
<polygon fill="white" stroke="black" points="383.5,-415.33 383.5,-434.33 509.5,-434.33 509.5,-415.33 383.5,-415.33"/>
<text text-anchor="middle" x="446.5" y="-422.33" font-family="Helvetica,sans-Serif" font-size="10.00">st_osal_mmngr_config</text>
</a>
</g>
</g>
<!-- Node6&#45;&gt;Node7 -->
<g id="edge8" class="edge">
<title>Node6&#45;&gt;Node7</title>
<path fill="none" stroke="#9a32cd" stroke-dasharray="5,2" d="M132.71,-501.92C153.8,-501.06 181.02,-496.69 200,-481.83 215.03,-470.07 202.34,-453.75 218,-442.83 243.84,-424.82 325.34,-422.24 383.4,-422.87"/>
<polygon fill="#9a32cd" stroke="#9a32cd" points="132.55,-498.43 122.61,-502.1 132.67,-505.43 132.55,-498.43"/>
<text text-anchor="middle" x="281.5" y="-478.83" font-family="Helvetica,sans-Serif" font-size="10.00"> max_allowed_allocations</text>
<text text-anchor="start" x="218" y="-467.83" font-family="Helvetica,sans-Serif" font-size="10.00">max_registered_monitors</text>
<text text-anchor="middle" x="281.5" y="-456.83" font-family="Helvetica,sans-Serif" font-size="10.00">_cbs</text>
<text text-anchor="middle" x="281.5" y="-445.83" font-family="Helvetica,sans-Serif" font-size="10.00">memory_limit</text>
</g>
<!-- Node7&#45;&gt;Node1 -->
<g id="edge6" class="edge">
<title>Node7&#45;&gt;Node1</title>
<path fill="none" stroke="#9a32cd" stroke-dasharray="5,2" d="M519.83,-418.97C556.2,-416.02 600.42,-412.44 637.94,-409.4"/>
<polygon fill="#9a32cd" stroke="#9a32cd" points="519.47,-415.49 509.79,-419.78 520.04,-422.46 519.47,-415.49"/>
<text text-anchor="middle" x="584" y="-418.83" font-family="Helvetica,sans-Serif" font-size="10.00"> config</text>
</g>
<!-- Node8 -->
<g id="node8" class="node">
<title>Node8</title>
<g id="a_node8"><a xlink:title=" ">
<polygon fill="white" stroke="#bfbfbf" points="0,-453.33 0,-472.33 200,-472.33 200,-453.33 0,-453.33"/>
<text text-anchor="middle" x="100" y="-460.33" font-family="Helvetica,sans-Serif" font-size="10.00">enum e_osal_mmngr_allocator_mode</text>
</a>
</g>
</g>
<!-- Node8&#45;&gt;Node7 -->
<g id="edge7" class="edge">
<title>Node8&#45;&gt;Node7</title>
<path fill="none" stroke="#9a32cd" stroke-dasharray="5,2" d="M192.58,-448.7C195.15,-447.22 197.64,-445.6 200,-443.83 214,-433.35 203.07,-417.94 218,-408.83 266.18,-379.43 288.73,-404.38 345,-408.83 361.56,-410.14 379.5,-412.65 395.59,-415.29"/>
<polygon fill="#9a32cd" stroke="#9a32cd" points="190.9,-445.63 183.5,-453.22 194.02,-451.9 190.9,-445.63"/>
<text text-anchor="middle" x="281.5" y="-411.83" font-family="Helvetica,sans-Serif" font-size="10.00"> mode</text>
</g>
<!-- Node9 -->
<g id="node9" class="node">
<title>Node9</title>
<g id="a_node9"><a xlink:href="structst__osal__mem__buf__ptr__self__t.html" target="_top" xlink:title=" ">
<polygon fill="white" stroke="black" points="385.5,-365.83 385.5,-395.83 507.5,-395.83 507.5,-365.83 385.5,-365.83"/>
<text text-anchor="start" x="393.5" y="-383.83" font-family="Helvetica,sans-Serif" font-size="10.00">st_osal_mem_buf_ptr</text>
<text text-anchor="middle" x="446.5" y="-372.83" font-family="Helvetica,sans-Serif" font-size="10.00">_self_t</text>
</a>
</g>
</g>
<!-- Node9&#45;&gt;Node1 -->
<g id="edge9" class="edge">
<title>Node9&#45;&gt;Node1</title>
<path fill="none" stroke="#9a32cd" stroke-dasharray="5,2" d="M517.87,-386.53C554.56,-389.51 599.63,-393.16 637.8,-396.25"/>
<polygon fill="#9a32cd" stroke="#9a32cd" points="518,-383.03 507.75,-385.71 517.44,-390.01 518,-383.03"/>
<text text-anchor="middle" x="584" y="-396.83" font-family="Helvetica,sans-Serif" font-size="10.00"> p_buffers</text>
</g>
<!-- Node10 -->
<g id="node10" class="node">
<title>Node10</title>
<g id="a_node10"><a xlink:title=" ">
<polygon fill="white" stroke="#bfbfbf" points="390,-327.33 390,-346.33 503,-346.33 503,-327.33 390,-327.33"/>
<text text-anchor="middle" x="446.5" y="-334.33" font-family="Helvetica,sans-Serif" font-size="10.00">st_meml_manage_t</text>
</a>
</g>
</g>
<!-- Node10&#45;&gt;Node1 -->
<g id="edge10" class="edge">
<title>Node10&#45;&gt;Node1</title>
<path fill="none" stroke="#9a32cd" stroke-dasharray="5,2" d="M506.85,-348.44C540.24,-355.25 582.6,-364.36 620,-373.83 643.09,-379.68 668.91,-387.28 688.39,-393.23"/>
<polygon fill="#9a32cd" stroke="#9a32cd" points="507.29,-344.96 496.8,-346.4 505.9,-351.82 507.29,-344.96"/>
<text text-anchor="middle" x="584" y="-376.83" font-family="Helvetica,sans-Serif" font-size="10.00"> meml_handle</text>
</g>
<!-- Node11 -->
<g id="node11" class="node">
<title>Node11</title>
<g id="a_node11"><a xlink:href="structst__osal__memory__manager__obj.html" target="_top" xlink:title="memory manager object.">
<polygon fill="white" stroke="black" points="363,-244.33 363,-263.33 530,-263.33 530,-244.33 363,-244.33"/>
<text text-anchor="middle" x="446.5" y="-251.33" font-family="Helvetica,sans-Serif" font-size="10.00">st_osal_memory_manager_obj</text>
</a>
</g>
</g>
<!-- Node11&#45;&gt;Node1 -->
<g id="edge11" class="edge">
<title>Node11&#45;&gt;Node1</title>
<path fill="none" stroke="#9a32cd" stroke-dasharray="5,2" d="M476.5,-267.74C511.09,-284.53 570.44,-313.98 620,-341.83 650.45,-358.94 684.95,-380.78 704.13,-393.15"/>
<polygon fill="#9a32cd" stroke="#9a32cd" points="477.96,-264.56 467.43,-263.35 474.91,-270.86 477.96,-264.56"/>
<text text-anchor="middle" x="584" y="-344.83" font-family="Helvetica,sans-Serif" font-size="10.00"> mmngr_obj</text>
</g>
<!-- Node12 -->
<g id="node12" class="node">
<title>Node12</title>
<g id="a_node12"><a xlink:title=" ">
<polygon fill="white" stroke="#bfbfbf" points="28,-381.83 28,-433.83 172,-433.83 172,-381.83 28,-381.83"/>
<text text-anchor="start" x="36" y="-421.83" font-family="Helvetica,sans-Serif" font-size="10.00">e_osal_return_t(*)</text>
<text text-anchor="start" x="36" y="-410.83" font-family="Helvetica,sans-Serif" font-size="10.00">(void *p_ptr_self, osal</text>
<text text-anchor="start" x="36" y="-399.83" font-family="Helvetica,sans-Serif" font-size="10.00">_memory_buffer_handle_t</text>
<text text-anchor="middle" x="100" y="-388.83" font-family="Helvetica,sans-Serif" font-size="10.00"> buffer_obj)</text>
</a>
</g>
</g>
<!-- Node12&#45;&gt;Node11 -->
<g id="edge12" class="edge">
<title>Node12&#45;&gt;Node11</title>
<path fill="none" stroke="#9a32cd" stroke-dasharray="5,2" d="M181.82,-378.5C187.97,-376.25 194.09,-374.01 200,-371.83 264.54,-348.08 283.43,-348.47 345,-317.83 377.96,-301.43 413.67,-276.89 432.38,-263.47"/>
<polygon fill="#9a32cd" stroke="#9a32cd" points="180.33,-375.32 172.14,-382.04 182.73,-381.89 180.33,-375.32"/>
<text text-anchor="middle" x="281.5" y="-367.83" font-family="Helvetica,sans-Serif" font-size="10.00"> p_deallocate</text>
</g>
<!-- Node13 -->
<g id="node13" class="node">
<title>Node13</title>
<g id="a_node13"><a xlink:title=" ">
<polygon fill="white" stroke="#bfbfbf" points="21,-299.33 21,-362.33 179,-362.33 179,-299.33 21,-299.33"/>
<text text-anchor="start" x="29" y="-350.33" font-family="Helvetica,sans-Serif" font-size="10.00">e_osal_return_t(*)</text>
<text text-anchor="start" x="29" y="-339.33" font-family="Helvetica,sans-Serif" font-size="10.00">(void *p_ptr_self, size</text>
<text text-anchor="start" x="29" y="-328.33" font-family="Helvetica,sans-Serif" font-size="10.00">_t bytes, size_t alignment,</text>
<text text-anchor="start" x="29" y="-317.33" font-family="Helvetica,sans-Serif" font-size="10.00"> osal_memory_buffer_handle</text>
<text text-anchor="middle" x="100" y="-306.33" font-family="Helvetica,sans-Serif" font-size="10.00">_t *const p_buffer_obj)</text>
</a>
</g>
</g>
<!-- Node13&#45;&gt;Node11 -->
<g id="edge13" class="edge">
<title>Node13&#45;&gt;Node11</title>
<path fill="none" stroke="#9a32cd" stroke-dasharray="5,2" d="M189.1,-311.14C257.6,-295.83 349.64,-275.26 402.77,-263.38"/>
<polygon fill="#9a32cd" stroke="#9a32cd" points="188.17,-307.76 179.17,-313.36 189.7,-314.59 188.17,-307.76"/>
<text text-anchor="middle" x="281.5" y="-305.83" font-family="Helvetica,sans-Serif" font-size="10.00"> p_allocate</text>
</g>
<!-- Node14 -->
<g id="node14" class="node">
<title>Node14</title>
<g id="a_node14"><a xlink:title=" ">
<polygon fill="white" stroke="#bfbfbf" points="31,-227.83 31,-279.83 169,-279.83 169,-227.83 31,-227.83"/>
<text text-anchor="start" x="39" y="-267.83" font-family="Helvetica,sans-Serif" font-size="10.00">e_osal_return_t(*)</text>
<text text-anchor="start" x="39" y="-256.83" font-family="Helvetica,sans-Serif" font-size="10.00">(const void *p_ptr_self,</text>
<text text-anchor="start" x="39" y="-245.83" font-family="Helvetica,sans-Serif" font-size="10.00"> st_osal_mmngr_config_t</text>
<text text-anchor="middle" x="100" y="-234.83" font-family="Helvetica,sans-Serif" font-size="10.00"> *const p_config)</text>
</a>
</g>
</g>
<!-- Node14&#45;&gt;Node11 -->
<g id="edge14" class="edge">
<title>Node14&#45;&gt;Node11</title>
<path fill="none" stroke="#9a32cd" stroke-dasharray="5,2" d="M179.08,-253.83C233.94,-253.83 307.19,-253.83 363,-253.83"/>
<polygon fill="#9a32cd" stroke="#9a32cd" points="179.06,-250.33 169.06,-253.83 179.06,-257.33 179.06,-250.33"/>
<text text-anchor="middle" x="281.5" y="-256.83" font-family="Helvetica,sans-Serif" font-size="10.00"> p_getConfig</text>
</g>
<!-- Node15 -->
<g id="node15" class="node">
<title>Node15</title>
<g id="a_node15"><a xlink:title=" ">
<polygon fill="white" stroke="#bfbfbf" points="11,-134.83 11,-208.83 189,-208.83 189,-134.83 11,-134.83"/>
<text text-anchor="start" x="19" y="-196.83" font-family="Helvetica,sans-Serif" font-size="10.00">e_osal_return_t(*)</text>
<text text-anchor="start" x="19" y="-185.83" font-family="Helvetica,sans-Serif" font-size="10.00">(void *p_ptr_self, e</text>
<text text-anchor="start" x="19" y="-174.83" font-family="Helvetica,sans-Serif" font-size="10.00">_osal_mmngr_event_t monitored</text>
<text text-anchor="start" x="19" y="-163.83" font-family="Helvetica,sans-Serif" font-size="10.00">_event, fp_osal_memory_mngr</text>
<text text-anchor="start" x="19" y="-152.83" font-family="Helvetica,sans-Serif" font-size="10.00">_cb_t monitor_handler, void</text>
<text text-anchor="middle" x="100" y="-141.83" font-family="Helvetica,sans-Serif" font-size="10.00"> *p_monitor_handler_user_arg)</text>
</a>
</g>
</g>
<!-- Node15&#45;&gt;Node11 -->
<g id="edge15" class="edge">
<title>Node15&#45;&gt;Node11</title>
<path fill="none" stroke="#9a32cd" stroke-dasharray="5,2" d="M199.21,-195.21C267.55,-211.47 355.09,-232.31 405.28,-244.26"/>
<polygon fill="#9a32cd" stroke="#9a32cd" points="199.81,-191.75 189.27,-192.84 198.19,-198.56 199.81,-191.75"/>
<text text-anchor="middle" x="281.5" y="-231.83" font-family="Helvetica,sans-Serif" font-size="10.00"> p_registerMonitor</text>
</g>
<!-- Node16 -->
<g id="node16" class="node">
<title>Node16</title>
<g id="a_node16"><a xlink:title=" ">
<polygon fill="white" stroke="#bfbfbf" points="35,-74.33 35,-115.33 165,-115.33 165,-74.33 35,-74.33"/>
<text text-anchor="start" x="43" y="-103.33" font-family="Helvetica,sans-Serif" font-size="10.00">e_osal_return_t(*)</text>
<text text-anchor="start" x="43" y="-92.33" font-family="Helvetica,sans-Serif" font-size="10.00">(const void *p_ptr_self,</text>
<text text-anchor="middle" x="100" y="-81.33" font-family="Helvetica,sans-Serif" font-size="10.00"> FILE *p_output)</text>
</a>
</g>
</g>
<!-- Node16&#45;&gt;Node11 -->
<g id="edge16" class="edge">
<title>Node16&#45;&gt;Node11</title>
<path fill="none" stroke="#9a32cd" stroke-dasharray="5,2" d="M174.68,-114.65C183.41,-117.94 192.03,-121.66 200,-125.83 208.98,-130.53 209.11,-134.97 218,-139.83 270.53,-168.58 291.64,-157.65 345,-184.83 379.32,-202.31 415.64,-229.81 433.77,-244.25"/>
<polygon fill="#9a32cd" stroke="#9a32cd" points="175.8,-111.33 165.2,-111.24 173.43,-117.91 175.8,-111.33"/>
<text text-anchor="middle" x="281.5" y="-187.83" font-family="Helvetica,sans-Serif" font-size="10.00"> p_print</text>
</g>
<!-- Node17 -->
<g id="node17" class="node">
<title>Node17</title>
<g id="a_node17"><a xlink:title=" ">
<polygon fill="white" stroke="#bfbfbf" points="77,-36.33 77,-55.33 123,-55.33 123,-36.33 77,-36.33"/>
<text text-anchor="middle" x="100" y="-43.33" font-family="Helvetica,sans-Serif" font-size="10.00">void *</text>
</a>
</g>
</g>
<!-- Node17&#45;&gt;Node1 -->
<g id="edge18" class="edge">
<title>Node17&#45;&gt;Node1</title>
<path fill="none" stroke="#9a32cd" stroke-dasharray="5,2" d="M133.12,-50.49C180.94,-58.23 272.94,-76.18 345,-108.83 480.55,-170.24 511.45,-198.05 620,-299.83 654.92,-332.57 693.46,-374.49 710.31,-393.14"/>
<polygon fill="#9a32cd" stroke="#9a32cd" points="133.48,-47.01 123.06,-48.91 132.4,-53.92 133.48,-47.01"/>
<text text-anchor="middle" x="446.5" y="-218.83" font-family="Helvetica,sans-Serif" font-size="10.00"> p_virtual_addr</text>
</g>
<!-- Node17&#45;&gt;Node11 -->
<g id="edge17" class="edge">
<title>Node17&#45;&gt;Node11</title>
<path fill="none" stroke="#9a32cd" stroke-dasharray="5,2" d="M133.2,-44.64C154.27,-45.5 181.27,-49.89 200,-64.83 215.56,-77.24 202.28,-93.62 218,-105.83 263.18,-140.93 295.71,-97.78 345,-126.83 394.66,-156.1 429.23,-219.93 441.04,-244.2"/>
<polygon fill="#9a32cd" stroke="#9a32cd" points="133.15,-41.14 123.09,-44.48 133.03,-48.14 133.15,-41.14"/>
<text text-anchor="middle" x="281.5" y="-129.83" font-family="Helvetica,sans-Serif" font-size="10.00"> p_ptr_self</text>
</g>
<!-- Node18 -->
<g id="node18" class="node">
<title>Node18</title>
<g id="a_node18"><a xlink:title=" ">
<polygon fill="white" stroke="#bfbfbf" points="417.5,-39.33 417.5,-58.33 475.5,-58.33 475.5,-39.33 417.5,-39.33"/>
<text text-anchor="middle" x="446.5" y="-46.33" font-family="Helvetica,sans-Serif" font-size="10.00">uintptr_t</text>
</a>
</g>
</g>
<!-- Node18&#45;&gt;Node1 -->
<g id="edge19" class="edge">
<title>Node18&#45;&gt;Node1</title>
<path fill="none" stroke="#9a32cd" stroke-dasharray="5,2" d="M485.9,-42.4C524.33,-38.26 582.93,-38.51 620,-69.83 672.41,-114.11 709.85,-342.67 717.54,-393.01"/>
<polygon fill="#9a32cd" stroke="#9a32cd" points="485.12,-38.97 475.63,-43.66 485.98,-45.92 485.12,-38.97"/>
<text text-anchor="middle" x="584" y="-72.83" font-family="Helvetica,sans-Serif" font-size="10.00"> physical_addr</text>
</g>
<!-- Node19 -->
<g id="node19" class="node">
<title>Node19</title>
<g id="a_node19"><a xlink:title=" ">
<polygon fill="white" stroke="#bfbfbf" points="388.5,-1.33 388.5,-20.33 504.5,-20.33 504.5,-1.33 388.5,-1.33"/>
<text text-anchor="middle" x="446.5" y="-8.33" font-family="Helvetica,sans-Serif" font-size="10.00">SemaphoreHandle_t</text>
</a>
</g>
</g>
<!-- Node19&#45;&gt;Node1 -->
<g id="edge20" class="edge">
<title>Node19&#45;&gt;Node1</title>
<path fill="none" stroke="#9a32cd" stroke-dasharray="5,2" d="M512.24,-0.57C547.94,1.35 590.81,-2.97 620,-27.83 678.82,-77.93 711.74,-339.58 717.93,-393.22"/>
<polygon fill="#9a32cd" stroke="#9a32cd" points="511.62,2.89 501.9,-1.31 512.12,-4.09 511.62,2.89"/>
<text text-anchor="middle" x="584" y="-30.83" font-family="Helvetica,sans-Serif" font-size="10.00"> inner_mtx</text>
</g>
</g>
</svg>
