<?xml version="1.0" encoding="UTF-8" standalone="no"?>
<!DOCTYPE svg PUBLIC "-//W3C//DTD SVG 1.1//EN"
 "http://www.w3.org/Graphics/SVG/1.1/DTD/svg11.dtd">
<!-- Generated by graphviz version 2.43.0 (0)
 -->
<!-- Title: r_doc_Ref_Colors_t Pages: 1 -->
<svg width="118pt" height="195pt"
 viewBox="0.00 0.00 118.00 195.00" xmlns="http://www.w3.org/2000/svg" xmlns:xlink="http://www.w3.org/1999/xlink">
<g id="graph0" class="graph" transform="scale(1 1) rotate(0) translate(4 191)">
<title>r_doc_Ref_Colors_t</title>
<polygon fill="white" stroke="transparent" points="-4,4 -4,-191 114,-191 114,4 -4,4"/>
<!-- Node1 -->
<g id="node1" class="node">
<title>Node1</title>
<g id="a_node1"><a xlink:title="Structure containing upper and lower thresholds for colors.">
<polygon fill="#bfbfbf" stroke="black" points="0,-0.5 0,-19.5 110,-19.5 110,-0.5 0,-0.5"/>
<text text-anchor="middle" x="55" y="-7.5" font-family="Helvetica,sans-Serif" font-size="10.00">r_doc_Ref_Colors_t</text>
</a>
</g>
</g>
<!-- Node2 -->
<g id="node2" class="node">
<title>Node2</title>
<g id="a_node2"><a xlink:href="structr__doc__Threshold__t.html" target="_top" xlink:title="threshold of DOC">
<polygon fill="white" stroke="black" points="2.5,-89.5 2.5,-108.5 107.5,-108.5 107.5,-89.5 2.5,-89.5"/>
<text text-anchor="middle" x="55" y="-96.5" font-family="Helvetica,sans-Serif" font-size="10.00">r_doc_Threshold_t</text>
</a>
</g>
</g>
<!-- Node2&#45;&gt;Node1 -->
<g id="edge1" class="edge">
<title>Node2&#45;&gt;Node1</title>
<path fill="none" stroke="#9a32cd" stroke-dasharray="5,2" d="M55,-79.19C55,-60.74 55,-33.41 55,-19.62"/>
<polygon fill="#9a32cd" stroke="#9a32cd" points="51.5,-79.34 55,-89.34 58.5,-79.34 51.5,-79.34"/>
<text text-anchor="middle" x="69" y="-63" font-family="Helvetica,sans-Serif" font-size="10.00"> blue</text>
<text text-anchor="middle" x="69" y="-52" font-family="Helvetica,sans-Serif" font-size="10.00">green</text>
<text text-anchor="middle" x="69" y="-41" font-family="Helvetica,sans-Serif" font-size="10.00">red</text>
</g>
<!-- Node3 -->
<g id="node3" class="node">
<title>Node3</title>
<g id="a_node3"><a xlink:title=" ">
<polygon fill="white" stroke="#bfbfbf" points="30,-167.5 30,-186.5 80,-186.5 80,-167.5 30,-167.5"/>
<text text-anchor="middle" x="55" y="-174.5" font-family="Helvetica,sans-Serif" font-size="10.00">uint8_t</text>
</a>
</g>
</g>
<!-- Node3&#45;&gt;Node2 -->
<g id="edge2" class="edge">
<title>Node3&#45;&gt;Node2</title>
<path fill="none" stroke="#9a32cd" stroke-dasharray="5,2" d="M55,-157.22C55,-141.7 55,-120.36 55,-108.62"/>
<polygon fill="#9a32cd" stroke="#9a32cd" points="51.5,-157.28 55,-167.28 58.5,-157.28 51.5,-157.28"/>
<text text-anchor="middle" x="70.5" y="-141" font-family="Helvetica,sans-Serif" font-size="10.00"> lower</text>
<text text-anchor="middle" x="70.5" y="-130" font-family="Helvetica,sans-Serif" font-size="10.00">upper</text>
</g>
</g>
</svg>
