<?xml version="1.0" encoding="UTF-8" standalone="no"?>
<!DOCTYPE svg PUBLIC "-//W3C//DTD SVG 1.1//EN"
 "http://www.w3.org/Graphics/SVG/1.1/DTD/svg11.dtd">
<!-- Generated by graphviz version 2.43.0 (0)
 -->
<!-- Title: st_osal_event_list Pages: 1 -->
<svg width="155pt" height="95pt"
 viewBox="0.00 0.00 155.00 95.00" xmlns="http://www.w3.org/2000/svg" xmlns:xlink="http://www.w3.org/1999/xlink">
<g id="graph0" class="graph" transform="scale(1 1) rotate(0) translate(4 91)">
<title>st_osal_event_list</title>
<polygon fill="white" stroke="transparent" points="-4,4 -4,-91 151,-91 151,4 -4,4"/>
<!-- Node1 -->
<g id="node1" class="node">
<title>Node1</title>
<g id="a_node1"><a xlink:title=" ">
<polygon fill="#bfbfbf" stroke="black" points="0,-0.5 0,-19.5 104,-19.5 104,-0.5 0,-0.5"/>
<text text-anchor="middle" x="52" y="-7.5" font-family="Helvetica,sans-Serif" font-size="10.00">st_osal_event_list</text>
</a>
</g>
</g>
<!-- Node1&#45;&gt;Node1 -->
<g id="edge1" class="edge">
<title>Node1&#45;&gt;Node1</title>
<path fill="none" stroke="#9a32cd" stroke-dasharray="5,2" d="M114.4,-14.49C119.11,-13.49 122,-11.99 122,-10 122,-6.81 114.59,-4.9 104.2,-4.25"/>
<polygon fill="#9a32cd" stroke="#9a32cd" points="113.7,-11.05 104.2,-15.75 114.56,-18 113.7,-11.05"/>
<text text-anchor="middle" x="134.5" y="-7.5" font-family="Helvetica,sans-Serif" font-size="10.00"> next</text>
</g>
<!-- Node2 -->
<g id="node2" class="node">
<title>Node2</title>
<g id="a_node2"><a xlink:title=" ">
<polygon fill="white" stroke="#bfbfbf" points="16,-67.5 16,-86.5 88,-86.5 88,-67.5 16,-67.5"/>
<text text-anchor="middle" x="52" y="-74.5" font-family="Helvetica,sans-Serif" font-size="10.00">EventBits_t</text>
</a>
</g>
</g>
<!-- Node2&#45;&gt;Node1 -->
<g id="edge2" class="edge">
<title>Node2&#45;&gt;Node1</title>
<path fill="none" stroke="#9a32cd" stroke-dasharray="5,2" d="M52,-57.04C52,-44.67 52,-29.12 52,-19.63"/>
<polygon fill="#9a32cd" stroke="#9a32cd" points="48.5,-57.23 52,-67.23 55.5,-57.23 48.5,-57.23"/>
<text text-anchor="middle" x="63" y="-41" font-family="Helvetica,sans-Serif" font-size="10.00"> bits</text>
</g>
</g>
</svg>
