<?xml version="1.0" encoding="UTF-8" standalone="no"?>
<!DOCTYPE svg PUBLIC "-//W3C//DTD SVG 1.1//EN"
 "http://www.w3.org/Graphics/SVG/1.1/DTD/svg11.dtd">
<!-- Generated by graphviz version 2.43.0 (0)
 -->
<!-- Title: STag_Eth_MacModeType Pages: 1 -->
<svg width="153pt" height="205pt"
 viewBox="0.00 0.00 152.50 205.00" xmlns="http://www.w3.org/2000/svg" xmlns:xlink="http://www.w3.org/1999/xlink">
<g id="graph0" class="graph" transform="scale(1 1) rotate(0) translate(4 201)">
<title>STag_Eth_MacModeType</title>
<polygon fill="white" stroke="transparent" points="-4,4 -4,-201 148.5,-201 148.5,4 -4,4"/>
<!-- Node1 -->
<g id="node1" class="node">
<title>Node1</title>
<g id="a_node1"><a xlink:title=" ">
<polygon fill="#bfbfbf" stroke="black" points="0,-0.5 0,-19.5 135,-19.5 135,-0.5 0,-0.5"/>
<text text-anchor="middle" x="67.5" y="-7.5" font-family="Helvetica,sans-Serif" font-size="10.00">STag_Eth_MacModeType</text>
</a>
</g>
</g>
<!-- Node2 -->
<g id="node2" class="node">
<title>Node2</title>
<g id="a_node2"><a xlink:title=" ">
<polygon fill="white" stroke="#bfbfbf" points="48.5,-177.5 48.5,-196.5 86.5,-196.5 86.5,-177.5 48.5,-177.5"/>
<text text-anchor="middle" x="67.5" y="-184.5" font-family="Helvetica,sans-Serif" font-size="10.00">char</text>
</a>
</g>
</g>
<!-- Node2&#45;&gt;Node1 -->
<g id="edge1" class="edge">
<title>Node2&#45;&gt;Node1</title>
<path fill="none" stroke="#9a32cd" stroke-dasharray="5,2" d="M67.5,-166.95C67.5,-129.3 67.5,-46.65 67.5,-19.69"/>
<polygon fill="#9a32cd" stroke="#9a32cd" points="64,-167.08 67.5,-177.08 71,-167.08 64,-167.08"/>
<text text-anchor="middle" x="106" y="-151" font-family="Helvetica,sans-Serif" font-size="10.00"> DPad</text>
<text text-anchor="middle" x="106" y="-140" font-family="Helvetica,sans-Serif" font-size="10.00">Duplex</text>
<text text-anchor="middle" x="106" y="-129" font-family="Helvetica,sans-Serif" font-size="10.00">MagicDection</text>
<text text-anchor="middle" x="106" y="-118" font-family="Helvetica,sans-Serif" font-size="10.00">PFrameRxMode</text>
<text text-anchor="middle" x="106" y="-107" font-family="Helvetica,sans-Serif" font-size="10.00">Re</text>
<text text-anchor="middle" x="106" y="-96" font-family="Helvetica,sans-Serif" font-size="10.00">RxCrcMode</text>
<text text-anchor="middle" x="106" y="-85" font-family="Helvetica,sans-Serif" font-size="10.00">RxFlowCtrl</text>
<text text-anchor="middle" x="106" y="-74" font-family="Helvetica,sans-Serif" font-size="10.00">Speed</text>
<text text-anchor="middle" x="106" y="-63" font-family="Helvetica,sans-Serif" font-size="10.00">Te</text>
<text text-anchor="middle" x="106" y="-52" font-family="Helvetica,sans-Serif" font-size="10.00">TxFlowCtrl</text>
<text text-anchor="middle" x="106" y="-41" font-family="Helvetica,sans-Serif" font-size="10.00">...</text>
</g>
</g>
</svg>
