<?xml version="1.0" encoding="UTF-8" standalone="no"?>
<!DOCTYPE svg PUBLIC "-//W3C//DTD SVG 1.1//EN"
 "http://www.w3.org/Graphics/SVG/1.1/DTD/svg11.dtd">
<!-- Generated by graphviz version 2.43.0 (0)
 -->
<!-- Title: st_osal_interrupt_config Pages: 1 -->
<svg width="281pt" height="106pt"
 viewBox="0.00 0.00 281.00 106.00" xmlns="http://www.w3.org/2000/svg" xmlns:xlink="http://www.w3.org/1999/xlink">
<g id="graph0" class="graph" transform="scale(1 1) rotate(0) translate(4 102)">
<title>st_osal_interrupt_config</title>
<polygon fill="white" stroke="transparent" points="-4,4 -4,-102 277,-102 277,4 -4,4"/>
<!-- Node1 -->
<g id="node1" class="node">
<title>Node1</title>
<g id="a_node1"><a xlink:title=" ">
<polygon fill="#bfbfbf" stroke="black" points="43.5,-0.5 43.5,-19.5 176.5,-19.5 176.5,-0.5 43.5,-0.5"/>
<text text-anchor="middle" x="110" y="-7.5" font-family="Helvetica,sans-Serif" font-size="10.00">st_osal_interrupt_config</text>
</a>
</g>
</g>
<!-- Node2 -->
<g id="node2" class="node">
<title>Node2</title>
<g id="a_node2"><a xlink:title=" ">
<polygon fill="white" stroke="#bfbfbf" points="0,-73 0,-92 56,-92 56,-73 0,-73"/>
<text text-anchor="middle" x="28" y="-80" font-family="Helvetica,sans-Serif" font-size="10.00">uint64_t</text>
</a>
</g>
</g>
<!-- Node2&#45;&gt;Node1 -->
<g id="edge1" class="edge">
<title>Node2&#45;&gt;Node1</title>
<path fill="none" stroke="#9a32cd" stroke-dasharray="5,2" d="M32.69,-62.9C35.62,-54.42 40.17,-44.78 47,-38 55.44,-29.61 66.9,-23.66 77.73,-19.52"/>
<polygon fill="#9a32cd" stroke="#9a32cd" points="29.27,-62.14 29.79,-72.73 35.98,-64.12 29.27,-62.14"/>
<text text-anchor="middle" x="76.5" y="-41" font-family="Helvetica,sans-Serif" font-size="10.00"> irq_number</text>
</g>
<!-- Node3 -->
<g id="node3" class="node">
<title>Node3</title>
<g id="a_node3"><a xlink:title=" ">
<polygon fill="white" stroke="#bfbfbf" points="91,-73 91,-92 129,-92 129,-73 91,-73"/>
<text text-anchor="middle" x="110" y="-80" font-family="Helvetica,sans-Serif" font-size="10.00">char</text>
</a>
</g>
</g>
<!-- Node3&#45;&gt;Node1 -->
<g id="edge2" class="edge">
<title>Node3&#45;&gt;Node1</title>
<path fill="none" stroke="#9a32cd" stroke-dasharray="5,2" d="M110,-62.44C110,-48.53 110,-30.32 110,-19.72"/>
<polygon fill="#9a32cd" stroke="#9a32cd" points="106.5,-62.86 110,-72.86 113.5,-62.86 106.5,-62.86"/>
<text text-anchor="middle" x="116.5" y="-41" font-family="Helvetica,sans-Serif" font-size="10.00"> id</text>
</g>
<!-- Node4 -->
<g id="node4" class="node">
<title>Node4</title>
<g id="a_node4"><a xlink:title=" ">
<polygon fill="white" stroke="#bfbfbf" points="147,-67.5 147,-97.5 273,-97.5 273,-67.5 147,-67.5"/>
<text text-anchor="start" x="155" y="-85.5" font-family="Helvetica,sans-Serif" font-size="10.00">enum e_osal_interrupt</text>
<text text-anchor="middle" x="210" y="-74.5" font-family="Helvetica,sans-Serif" font-size="10.00">_priority</text>
</a>
</g>
</g>
<!-- Node4&#45;&gt;Node1 -->
<g id="edge3" class="edge">
<title>Node4&#45;&gt;Node1</title>
<path fill="none" stroke="#9a32cd" stroke-dasharray="5,2" d="M181.49,-61.4C161.95,-47.62 136.99,-30.03 122.33,-19.69"/>
<polygon fill="#9a32cd" stroke="#9a32cd" points="179.57,-64.33 189.76,-67.23 183.61,-58.61 179.57,-64.33"/>
<text text-anchor="middle" x="190.5" y="-41" font-family="Helvetica,sans-Serif" font-size="10.00"> int_priority</text>
</g>
</g>
</svg>
