<?xml version="1.0" encoding="UTF-8" standalone="no"?>
<!DOCTYPE svg PUBLIC "-//W3C//DTD SVG 1.1//EN"
 "http://www.w3.org/Graphics/SVG/1.1/DTD/svg11.dtd">
<!-- Generated by graphviz version 2.43.0 (0)
 -->
<!-- Title: r_vsp2_BruBlendRopUnit_t Pages: 1 -->
<svg width="320pt" height="106pt"
 viewBox="0.00 0.00 320.00 106.00" xmlns="http://www.w3.org/2000/svg" xmlns:xlink="http://www.w3.org/1999/xlink">
<g id="graph0" class="graph" transform="scale(1 1) rotate(0) translate(4 102)">
<title>r_vsp2_BruBlendRopUnit_t</title>
<polygon fill="white" stroke="transparent" points="-4,4 -4,-102 316,-102 316,4 -4,4"/>
<!-- Node1 -->
<g id="node1" class="node">
<title>Node1</title>
<g id="a_node1"><a xlink:title=" ">
<polygon fill="#bfbfbf" stroke="black" points="59,-0.5 59,-19.5 205,-19.5 205,-0.5 59,-0.5"/>
<text text-anchor="middle" x="132" y="-7.5" font-family="Helvetica,sans-Serif" font-size="10.00">r_vsp2_BruBlendRopUnit_t</text>
</a>
</g>
</g>
<!-- Node2 -->
<g id="node2" class="node">
<title>Node2</title>
<g id="a_node2"><a xlink:title=" ">
<polygon fill="white" stroke="#bfbfbf" points="0,-78.5 0,-97.5 56,-97.5 56,-78.5 0,-78.5"/>
<text text-anchor="middle" x="28" y="-85.5" font-family="Helvetica,sans-Serif" font-size="10.00">uint32_t</text>
</a>
</g>
</g>
<!-- Node2&#45;&gt;Node1 -->
<g id="edge1" class="edge">
<title>Node2&#45;&gt;Node1</title>
<path fill="none" stroke="#9a32cd" stroke-dasharray="5,2" d="M32.67,-68.77C36.16,-58.46 41.93,-46.06 51,-38 60.64,-29.43 73.08,-23.57 85.31,-19.56"/>
<polygon fill="#9a32cd" stroke="#9a32cd" points="29.27,-67.9 29.81,-78.48 35.99,-69.88 29.27,-67.9"/>
<text text-anchor="middle" x="89.5" y="-46.5" font-family="Helvetica,sans-Serif" font-size="10.00"> operation_type</text>
</g>
<!-- Node3 -->
<g id="node3" class="node">
<title>Node3</title>
<g id="a_node3"><a xlink:title=" ">
<polygon fill="white" stroke="#bfbfbf" points="74,-78.5 74,-97.5 190,-97.5 190,-78.5 74,-78.5"/>
<text text-anchor="middle" x="132" y="-85.5" font-family="Helvetica,sans-Serif" font-size="10.00">r_vsp2_BruDataOp_t</text>
</a>
</g>
</g>
<!-- Node3&#45;&gt;Node1 -->
<g id="edge2" class="edge">
<title>Node3&#45;&gt;Node1</title>
<path fill="none" stroke="#9a32cd" stroke-dasharray="5,2" d="M132,-68.22C132,-52.7 132,-31.36 132,-19.62"/>
<polygon fill="#9a32cd" stroke="#9a32cd" points="128.5,-68.28 132,-78.28 135.5,-68.28 128.5,-68.28"/>
<text text-anchor="middle" x="169.5" y="-52" font-family="Helvetica,sans-Serif" font-size="10.00"> alpha_data_op</text>
<text text-anchor="middle" x="169.5" y="-41" font-family="Helvetica,sans-Serif" font-size="10.00">color_data_op</text>
</g>
<!-- Node4 -->
<g id="node4" class="node">
<title>Node4</title>
<g id="a_node4"><a xlink:title=" ">
<polygon fill="white" stroke="#bfbfbf" points="208,-78.5 208,-97.5 312,-97.5 312,-78.5 208,-78.5"/>
<text text-anchor="middle" x="260" y="-85.5" font-family="Helvetica,sans-Serif" font-size="10.00">r_vsp2_BruInput_t</text>
</a>
</g>
</g>
<!-- Node4&#45;&gt;Node1 -->
<g id="edge3" class="edge">
<title>Node4&#45;&gt;Node1</title>
<path fill="none" stroke="#9a32cd" stroke-dasharray="5,2" d="M246.89,-70.43C237.79,-59.89 224.86,-46.64 211,-38 197.96,-29.87 182.18,-23.85 168.15,-19.58"/>
<polygon fill="#9a32cd" stroke="#9a32cd" points="244.23,-72.71 253.31,-78.17 249.62,-68.24 244.23,-72.71"/>
<text text-anchor="middle" x="274" y="-52" font-family="Helvetica,sans-Serif" font-size="10.00"> dst_side_input</text>
<text text-anchor="middle" x="274" y="-41" font-family="Helvetica,sans-Serif" font-size="10.00">src_side_input</text>
</g>
</g>
</svg>
