<?xml version="1.0" encoding="UTF-8" standalone="no"?>
<!DOCTYPE svg PUBLIC "-//W3C//DTD SVG 1.1//EN"
 "http://www.w3.org/Graphics/SVG/1.1/DTD/svg11.dtd">
<!-- Generated by graphviz version 2.43.0 (0)
 -->
<!-- Title: r_cio_ResultMsg_t Pages: 1 -->
<svg width="205pt" height="95pt"
 viewBox="0.00 0.00 204.50 95.00" xmlns="http://www.w3.org/2000/svg" xmlns:xlink="http://www.w3.org/1999/xlink">
<g id="graph0" class="graph" transform="scale(1 1) rotate(0) translate(4 91)">
<title>r_cio_ResultMsg_t</title>
<polygon fill="white" stroke="transparent" points="-4,4 -4,-91 200.5,-91 200.5,4 -4,4"/>
<!-- Node1 -->
<g id="node1" class="node">
<title>Node1</title>
<g id="a_node1"><a xlink:title="CIO command message.">
<polygon fill="#bfbfbf" stroke="black" points="65,-0.5 65,-19.5 170,-19.5 170,-0.5 65,-0.5"/>
<text text-anchor="middle" x="117.5" y="-7.5" font-family="Helvetica,sans-Serif" font-size="10.00">r_cio_ResultMsg_t</text>
</a>
</g>
</g>
<!-- Node2 -->
<g id="node2" class="node">
<title>Node2</title>
<g id="a_node2"><a xlink:title=" ">
<polygon fill="white" stroke="#bfbfbf" points="0,-67.5 0,-86.5 85,-86.5 85,-67.5 0,-67.5"/>
<text text-anchor="middle" x="42.5" y="-74.5" font-family="Helvetica,sans-Serif" font-size="10.00">r_cio_Result_t</text>
</a>
</g>
</g>
<!-- Node2&#45;&gt;Node1 -->
<g id="edge1" class="edge">
<title>Node2&#45;&gt;Node1</title>
<path fill="none" stroke="#9a32cd" stroke-dasharray="5,2" d="M56.99,-59.85C63.59,-52.84 71.66,-44.72 79.5,-38 87.24,-31.37 96.57,-24.72 104.05,-19.68"/>
<polygon fill="#9a32cd" stroke="#9a32cd" points="54.23,-57.68 50.03,-67.41 59.38,-62.42 54.23,-57.68"/>
<text text-anchor="middle" x="96.5" y="-41" font-family="Helvetica,sans-Serif" font-size="10.00"> Result</text>
</g>
<!-- Node3 -->
<g id="node3" class="node">
<title>Node3</title>
<g id="a_node3"><a xlink:title=" ">
<polygon fill="white" stroke="#bfbfbf" points="103,-67.5 103,-86.5 132,-86.5 132,-67.5 103,-67.5"/>
<text text-anchor="middle" x="117.5" y="-74.5" font-family="Helvetica,sans-Serif" font-size="10.00">int</text>
</a>
</g>
</g>
<!-- Node3&#45;&gt;Node1 -->
<g id="edge2" class="edge">
<title>Node3&#45;&gt;Node1</title>
<path fill="none" stroke="#9a32cd" stroke-dasharray="5,2" d="M117.5,-57.04C117.5,-44.67 117.5,-29.12 117.5,-19.63"/>
<polygon fill="#9a32cd" stroke="#9a32cd" points="114,-57.23 117.5,-67.23 121,-57.23 114,-57.23"/>
<text text-anchor="middle" x="124" y="-41" font-family="Helvetica,sans-Serif" font-size="10.00"> Id</text>
</g>
<!-- Node4 -->
<g id="node4" class="node">
<title>Node4</title>
<g id="a_node4"><a xlink:title=" ">
<polygon fill="white" stroke="#bfbfbf" points="150.5,-67.5 150.5,-86.5 196.5,-86.5 196.5,-67.5 150.5,-67.5"/>
<text text-anchor="middle" x="173.5" y="-74.5" font-family="Helvetica,sans-Serif" font-size="10.00">void *</text>
</a>
</g>
</g>
<!-- Node4&#45;&gt;Node1 -->
<g id="edge3" class="edge">
<title>Node4&#45;&gt;Node1</title>
<path fill="none" stroke="#9a32cd" stroke-dasharray="5,2" d="M159.4,-59.63C148.45,-46.92 133.7,-29.8 124.93,-19.63"/>
<polygon fill="#9a32cd" stroke="#9a32cd" points="156.77,-61.94 165.95,-67.23 162.07,-57.37 156.77,-61.94"/>
<text text-anchor="middle" x="159.5" y="-41" font-family="Helvetica,sans-Serif" font-size="10.00"> Aux</text>
</g>
</g>
</svg>
