<?xml version="1.0" encoding="UTF-8" standalone="no"?>
<!DOCTYPE svg PUBLIC "-//W3C//DTD SVG 1.1//EN"
 "http://www.w3.org/Graphics/SVG/1.1/DTD/svg11.dtd">
<!-- Generated by graphviz version 2.43.0 (0)
 -->
<!-- Title: st_imrdrv_attr_register_value_t Pages: 1 -->
<svg width="238pt" height="195pt"
 viewBox="0.00 0.00 237.50 195.00" xmlns="http://www.w3.org/2000/svg" xmlns:xlink="http://www.w3.org/1999/xlink">
<g id="graph0" class="graph" transform="scale(1 1) rotate(0) translate(4 191)">
<title>st_imrdrv_attr_register_value_t</title>
<polygon fill="white" stroke="transparent" points="-4,4 -4,-191 233.5,-191 233.5,4 -4,4"/>
<!-- Node1 -->
<g id="node1" class="node">
<title>Node1</title>
<g id="a_node1"><a xlink:title=" ">
<polygon fill="#bfbfbf" stroke="black" points="0,-0.5 0,-30.5 128,-30.5 128,-0.5 0,-0.5"/>
<text text-anchor="start" x="8" y="-18.5" font-family="Helvetica,sans-Serif" font-size="10.00">st_imrdrv_attr_register</text>
<text text-anchor="middle" x="64" y="-7.5" font-family="Helvetica,sans-Serif" font-size="10.00">_value_t</text>
</a>
</g>
</g>
<!-- Node2 -->
<g id="node2" class="node">
<title>Node2</title>
<g id="a_node2"><a xlink:title=" ">
<polygon fill="white" stroke="#bfbfbf" points="36,-167.5 36,-186.5 92,-186.5 92,-167.5 36,-167.5"/>
<text text-anchor="middle" x="64" y="-174.5" font-family="Helvetica,sans-Serif" font-size="10.00">uint32_t</text>
</a>
</g>
</g>
<!-- Node2&#45;&gt;Node1 -->
<g id="edge1" class="edge">
<title>Node2&#45;&gt;Node1</title>
<path fill="none" stroke="#9a32cd" stroke-dasharray="5,2" d="M61.63,-157.28C59.42,-137.57 56.66,-105.61 58,-78 58.79,-61.71 60.76,-43.09 62.23,-30.64"/>
<polygon fill="#9a32cd" stroke="#9a32cd" points="58.17,-157.84 62.83,-167.35 65.12,-157.01 58.17,-157.84"/>
<text text-anchor="middle" x="81" y="-91" font-family="Helvetica,sans-Serif" font-size="10.00"> set_num</text>
</g>
<!-- Node3 -->
<g id="node3" class="node">
<title>Node3</title>
<g id="a_node3"><a xlink:href="structst__imrdrv__reg__offset__val__t.html" target="_top" xlink:title=" ">
<polygon fill="white" stroke="black" points="112.5,-78.5 112.5,-108.5 229.5,-108.5 229.5,-78.5 112.5,-78.5"/>
<text text-anchor="start" x="120.5" y="-96.5" font-family="Helvetica,sans-Serif" font-size="10.00">st_imrdrv_reg_offset</text>
<text text-anchor="middle" x="171" y="-85.5" font-family="Helvetica,sans-Serif" font-size="10.00">_val_t</text>
</a>
</g>
</g>
<!-- Node2&#45;&gt;Node3 -->
<g id="edge3" class="edge">
<title>Node2&#45;&gt;Node3</title>
<path fill="none" stroke="#9a32cd" stroke-dasharray="5,2" d="M83.41,-161.22C103.05,-146.26 133.18,-123.3 152.49,-108.6"/>
<polygon fill="#9a32cd" stroke="#9a32cd" points="81.29,-158.43 75.45,-167.28 85.53,-164 81.29,-158.43"/>
<text text-anchor="middle" x="142.5" y="-141" font-family="Helvetica,sans-Serif" font-size="10.00"> offset</text>
<text text-anchor="middle" x="142.5" y="-130" font-family="Helvetica,sans-Serif" font-size="10.00">value</text>
</g>
<!-- Node3&#45;&gt;Node1 -->
<g id="edge2" class="edge">
<title>Node3&#45;&gt;Node1</title>
<path fill="none" stroke="#9a32cd" stroke-dasharray="5,2" d="M142.75,-72.43C124.17,-59.24 100.33,-42.3 83.77,-30.54"/>
<polygon fill="#9a32cd" stroke="#9a32cd" points="140.95,-75.45 151.12,-78.38 145,-69.74 140.95,-75.45"/>
<text text-anchor="middle" x="165.5" y="-52" font-family="Helvetica,sans-Serif" font-size="10.00"> reg_offset_value</text>
</g>
</g>
</svg>
