<?xml version="1.0" encoding="UTF-8" standalone="no"?>
<!DOCTYPE svg PUBLIC "-//W3C//DTD SVG 1.1//EN"
 "http://www.w3.org/Graphics/SVG/1.1/DTD/svg11.dtd">
<!-- Generated by graphviz version 2.43.0 (0)
 -->
<!-- Title: R_CIO_UM_Channel_t Pages: 1 -->
<svg width="1032pt" height="461pt"
 viewBox="0.00 0.00 1032.00 460.55" xmlns="http://www.w3.org/2000/svg" xmlns:xlink="http://www.w3.org/1999/xlink">
<g id="graph0" class="graph" transform="scale(1 1) rotate(0) translate(4 456.55)">
<title>R_CIO_UM_Channel_t</title>
<polygon fill="white" stroke="transparent" points="-4,4 -4,-456.55 1028,-456.55 1028,4 -4,4"/>
<!-- Node1 -->
<g id="node1" class="node">
<title>Node1</title>
<g id="a_node1"><a xlink:title=" ">
<polygon fill="#bfbfbf" stroke="black" points="902,-158.5 902,-177.5 1024,-177.5 1024,-158.5 902,-158.5"/>
<text text-anchor="middle" x="963" y="-165.5" font-family="Helvetica,sans-Serif" font-size="10.00">R_CIO_UM_Channel_t</text>
</a>
</g>
</g>
<!-- Node2 -->
<g id="node2" class="node">
<title>Node2</title>
<g id="a_node2"><a xlink:href="structst__osal__mutex__control.html" target="_top" xlink:title="control of mutex (Defined in OSAL Wrapper implementation files).">
<polygon fill="white" stroke="black" points="665,-356.5 665,-375.5 792,-375.5 792,-356.5 665,-356.5"/>
<text text-anchor="middle" x="728.5" y="-363.5" font-family="Helvetica,sans-Serif" font-size="10.00">st_osal_mutex_control</text>
</a>
</g>
</g>
<!-- Node2&#45;&gt;Node1 -->
<g id="edge1" class="edge">
<title>Node2&#45;&gt;Node1</title>
<path fill="none" stroke="#9a32cd" stroke-dasharray="5,2" d="M748.53,-349.8C795.04,-310.18 913.42,-209.37 950.63,-177.69"/>
<polygon fill="#9a32cd" stroke="#9a32cd" points="746.06,-347.3 740.71,-356.45 750.6,-352.63 746.06,-347.3"/>
<text text-anchor="middle" x="847" y="-299" font-family="Helvetica,sans-Serif" font-size="10.00"> ChannelMutex</text>
</g>
<!-- Node3 -->
<g id="node3" class="node">
<title>Node3</title>
<g id="a_node3"><a xlink:title=" ">
<polygon fill="white" stroke="#bfbfbf" points="0,-182.5 0,-201.5 56,-201.5 56,-182.5 0,-182.5"/>
<text text-anchor="middle" x="28" y="-189.5" font-family="Helvetica,sans-Serif" font-size="10.00">uint64_t</text>
</a>
</g>
</g>
<!-- Node3&#45;&gt;Node2 -->
<g id="edge2" class="edge">
<title>Node3&#45;&gt;Node2</title>
<path fill="none" stroke="#9a32cd" stroke-dasharray="5,2" d="M35.61,-211.2C42.77,-229.78 55.66,-257.86 74,-277 153.1,-359.56 188.11,-369.15 296,-407 443.3,-458.68 499.25,-470.4 647,-420 675.03,-410.44 702.57,-388.5 717.04,-375.72"/>
<polygon fill="#9a32cd" stroke="#9a32cd" points="38.87,-209.92 32.15,-201.74 32.3,-212.33 38.87,-209.92"/>
<text text-anchor="middle" x="352" y="-444" font-family="Helvetica,sans-Serif" font-size="10.00"> handle_id</text>
</g>
<!-- Node4 -->
<g id="node4" class="node">
<title>Node4</title>
<g id="a_node4"><a xlink:href="structst__osal__rcfg__mutex__config.html" target="_top" xlink:title=" ">
<polygon fill="white" stroke="black" points="296,-367 296,-397 408,-397 408,-367 296,-367"/>
<text text-anchor="start" x="304" y="-385" font-family="Helvetica,sans-Serif" font-size="10.00">st_osal_rcfg_mutex</text>
<text text-anchor="middle" x="352" y="-374" font-family="Helvetica,sans-Serif" font-size="10.00">_config</text>
</a>
</g>
</g>
<!-- Node3&#45;&gt;Node4 -->
<g id="edge4" class="edge">
<title>Node3&#45;&gt;Node4</title>
<path fill="none" stroke="#9a32cd" stroke-dasharray="5,2" d="M54.23,-206.89C114.19,-242.27 264.74,-331.1 325.24,-366.8"/>
<polygon fill="#9a32cd" stroke="#9a32cd" points="55.8,-203.75 45.41,-201.68 52.24,-209.78 55.8,-203.75"/>
<text text-anchor="middle" x="113.5" y="-265" font-family="Helvetica,sans-Serif" font-size="10.00"> id</text>
</g>
<!-- Node8 -->
<g id="node8" class="node">
<title>Node8</title>
<g id="a_node8"><a xlink:href="structst__osal__mq__control.html" target="_top" xlink:title="control of message queue (Defined in OSAL Wrapper implementation files).">
<polygon fill="white" stroke="black" points="673,-149.5 673,-168.5 784,-168.5 784,-149.5 673,-149.5"/>
<text text-anchor="middle" x="728.5" y="-156.5" font-family="Helvetica,sans-Serif" font-size="10.00">st_osal_mq_control</text>
</a>
</g>
</g>
<!-- Node3&#45;&gt;Node8 -->
<g id="edge13" class="edge">
<title>Node3&#45;&gt;Node8</title>
<path fill="none" stroke="#9a32cd" stroke-dasharray="5,2" d="M66.55,-190.23C182.65,-184.74 536.25,-168.04 672.85,-161.58"/>
<polygon fill="#9a32cd" stroke="#9a32cd" points="66.21,-186.74 56.38,-190.71 66.54,-193.73 66.21,-186.74"/>
<text text-anchor="middle" x="352" y="-182" font-family="Helvetica,sans-Serif" font-size="10.00"> handle_id</text>
</g>
<!-- Node9 -->
<g id="node9" class="node">
<title>Node9</title>
<g id="a_node9"><a xlink:href="structst__osal__rcfg__mq__config.html" target="_top" xlink:title=" ">
<polygon fill="white" stroke="black" points="426,-123.5 426,-142.5 557,-142.5 557,-123.5 426,-123.5"/>
<text text-anchor="middle" x="491.5" y="-130.5" font-family="Helvetica,sans-Serif" font-size="10.00">st_osal_rcfg_mq_config</text>
</a>
</g>
</g>
<!-- Node3&#45;&gt;Node9 -->
<g id="edge10" class="edge">
<title>Node3&#45;&gt;Node9</title>
<path fill="none" stroke="#9a32cd" stroke-dasharray="5,2" d="M66.03,-179.88C68.71,-179.19 71.39,-178.55 74,-178 116.46,-169.07 127.87,-171.74 171,-167 259.3,-157.3 361.38,-146.51 425.93,-139.74"/>
<polygon fill="#9a32cd" stroke="#9a32cd" points="65.07,-176.51 56.39,-182.58 66.96,-183.25 65.07,-176.51"/>
<text text-anchor="middle" x="224.5" y="-170" font-family="Helvetica,sans-Serif" font-size="10.00"> id</text>
</g>
<!-- Node10 -->
<g id="node10" class="node">
<title>Node10</title>
<g id="a_node10"><a xlink:href="structst__osal__mq__config.html" target="_top" xlink:title="configuration of message queue.">
<polygon fill="white" stroke="black" points="171,-97.5 171,-116.5 278,-116.5 278,-97.5 171,-97.5"/>
<text text-anchor="middle" x="224.5" y="-104.5" font-family="Helvetica,sans-Serif" font-size="10.00">st_osal_mq_config</text>
</a>
</g>
</g>
<!-- Node3&#45;&gt;Node10 -->
<g id="edge12" class="edge">
<title>Node3&#45;&gt;Node10</title>
<path fill="none" stroke="#9a32cd" stroke-dasharray="5,2" d="M34.83,-172.69C41.3,-154.91 53.63,-129.45 74,-117 102.63,-99.5 140.37,-97.1 170.77,-99.02"/>
<polygon fill="#9a32cd" stroke="#9a32cd" points="31.45,-171.76 31.6,-182.35 38.09,-173.98 31.45,-171.76"/>
<text text-anchor="middle" x="113.5" y="-131" font-family="Helvetica,sans-Serif" font-size="10.00"> max_num_msg</text>
<text text-anchor="middle" x="113.5" y="-120" font-family="Helvetica,sans-Serif" font-size="10.00">msg_size</text>
</g>
<!-- Node4&#45;&gt;Node2 -->
<g id="edge3" class="edge">
<title>Node4&#45;&gt;Node2</title>
<path fill="none" stroke="#9a32cd" stroke-dasharray="5,2" d="M418.29,-396.96C420.89,-397.35 423.46,-397.7 426,-398 523.55,-409.56 550.83,-421 647,-401 670.28,-396.16 695.08,-384.22 710.9,-375.63"/>
<polygon fill="#9a32cd" stroke="#9a32cd" points="418.65,-393.47 408.21,-395.29 417.5,-400.38 418.65,-393.47"/>
<text text-anchor="middle" x="491.5" y="-414" font-family="Helvetica,sans-Serif" font-size="10.00"> usr_config</text>
</g>
<!-- Node5 -->
<g id="node5" class="node">
<title>Node5</title>
<g id="a_node5"><a xlink:title=" ">
<polygon fill="white" stroke="#bfbfbf" points="466.5,-369.5 466.5,-388.5 516.5,-388.5 516.5,-369.5 466.5,-369.5"/>
<text text-anchor="middle" x="491.5" y="-376.5" font-family="Helvetica,sans-Serif" font-size="10.00">int64_t</text>
</a>
</g>
</g>
<!-- Node5&#45;&gt;Node2 -->
<g id="edge5" class="edge">
<title>Node5&#45;&gt;Node2</title>
<path fill="none" stroke="#9a32cd" stroke-dasharray="5,2" d="M526.65,-382.88C558.03,-385.79 605.78,-388.55 647,-384 662.09,-382.33 678.48,-378.96 692.52,-375.58"/>
<polygon fill="#9a32cd" stroke="#9a32cd" points="526.96,-379.39 516.67,-381.9 526.28,-386.36 526.96,-379.39"/>
<text text-anchor="middle" x="611" y="-389" font-family="Helvetica,sans-Serif" font-size="10.00"> inner_timeout</text>
</g>
<!-- Node5&#45;&gt;Node8 -->
<g id="edge15" class="edge">
<title>Node5&#45;&gt;Node8</title>
<path fill="none" stroke="#9a32cd" stroke-dasharray="5,2" d="M526.78,-376.33C566.53,-372.6 628.91,-364.59 647,-350 706.94,-301.65 722.92,-200.67 726.55,-168.83"/>
<polygon fill="#9a32cd" stroke="#9a32cd" points="526.36,-372.85 516.72,-377.23 526.99,-379.83 526.36,-372.85"/>
<text text-anchor="middle" x="611" y="-373" font-family="Helvetica,sans-Serif" font-size="10.00"> inner_timeout</text>
</g>
<!-- Node6 -->
<g id="node6" class="node">
<title>Node6</title>
<g id="a_node6"><a xlink:title=" ">
<polygon fill="white" stroke="#bfbfbf" points="472.5,-289.5 472.5,-308.5 510.5,-308.5 510.5,-289.5 472.5,-289.5"/>
<text text-anchor="middle" x="491.5" y="-296.5" font-family="Helvetica,sans-Serif" font-size="10.00">bool</text>
</a>
</g>
</g>
<!-- Node6&#45;&gt;Node2 -->
<g id="edge6" class="edge">
<title>Node6&#45;&gt;Node2</title>
<path fill="none" stroke="#9a32cd" stroke-dasharray="5,2" d="M521.18,-302.16C552.62,-306.13 604.27,-314.16 647,-328 669.79,-335.38 694.49,-347.76 710.44,-356.37"/>
<polygon fill="#9a32cd" stroke="#9a32cd" points="521.3,-298.65 510.95,-300.92 520.46,-305.59 521.3,-298.65"/>
<text text-anchor="middle" x="611" y="-342" font-family="Helvetica,sans-Serif" font-size="10.00"> active</text>
<text text-anchor="middle" x="611" y="-331" font-family="Helvetica,sans-Serif" font-size="10.00">use</text>
</g>
<!-- Node6&#45;&gt;Node8 -->
<g id="edge16" class="edge">
<title>Node6&#45;&gt;Node8</title>
<path fill="none" stroke="#9a32cd" stroke-dasharray="5,2" d="M520.49,-290.14C564.27,-276.27 644.26,-250.78 647,-249 680.91,-226.93 709.44,-186.98 721.43,-168.66"/>
<polygon fill="#9a32cd" stroke="#9a32cd" points="519.19,-286.88 510.72,-293.24 521.31,-293.56 519.19,-286.88"/>
<text text-anchor="middle" x="611" y="-296" font-family="Helvetica,sans-Serif" font-size="10.00"> active</text>
<text text-anchor="middle" x="611" y="-285" font-family="Helvetica,sans-Serif" font-size="10.00">receive_wait</text>
<text text-anchor="middle" x="611" y="-274" font-family="Helvetica,sans-Serif" font-size="10.00">send_wait</text>
</g>
<!-- Node7 -->
<g id="node7" class="node">
<title>Node7</title>
<g id="a_node7"><a xlink:title=" ">
<polygon fill="white" stroke="#bfbfbf" points="433.5,-215.5 433.5,-234.5 549.5,-234.5 549.5,-215.5 433.5,-215.5"/>
<text text-anchor="middle" x="491.5" y="-222.5" font-family="Helvetica,sans-Serif" font-size="10.00">SemaphoreHandle_t</text>
</a>
</g>
</g>
<!-- Node7&#45;&gt;Node2 -->
<g id="edge7" class="edge">
<title>Node7&#45;&gt;Node2</title>
<path fill="none" stroke="#9a32cd" stroke-dasharray="5,2" d="M535.02,-213.22C567.86,-206.65 613.25,-203.27 647,-223 698.4,-253.05 719.53,-329.35 725.55,-356.35"/>
<polygon fill="#9a32cd" stroke="#9a32cd" points="533.85,-209.9 524.83,-215.45 535.34,-216.74 533.85,-209.9"/>
<text text-anchor="middle" x="611" y="-237" font-family="Helvetica,sans-Serif" font-size="10.00"> inner_mtx</text>
<text text-anchor="middle" x="611" y="-226" font-family="Helvetica,sans-Serif" font-size="10.00">mtx</text>
</g>
<!-- Node7&#45;&gt;Node8 -->
<g id="edge19" class="edge">
<title>Node7&#45;&gt;Node8</title>
<path fill="none" stroke="#9a32cd" stroke-dasharray="5,2" d="M526.73,-211.74C536.51,-207.95 547.18,-203.81 557,-200 565,-196.89 566.79,-195.5 575,-193 607.96,-182.98 645.75,-174.53 675.46,-168.57"/>
<polygon fill="#9a32cd" stroke="#9a32cd" points="525.37,-208.51 517.31,-215.39 527.9,-215.04 525.37,-208.51"/>
<text text-anchor="middle" x="611" y="-196" font-family="Helvetica,sans-Serif" font-size="10.00"> inner_mtx</text>
</g>
<!-- Node8&#45;&gt;Node1 -->
<g id="edge8" class="edge">
<title>Node8&#45;&gt;Node1</title>
<path fill="none" stroke="#9a32cd" stroke-dasharray="5,2" d="M794.2,-161.5C827.85,-162.81 868.72,-164.39 901.7,-165.67"/>
<polygon fill="#9a32cd" stroke="#9a32cd" points="794.14,-158 784.01,-161.11 793.87,-164.99 794.14,-158"/>
<text text-anchor="middle" x="847" y="-178" font-family="Helvetica,sans-Serif" font-size="10.00"> MsgQueue</text>
<text text-anchor="middle" x="847" y="-167" font-family="Helvetica,sans-Serif" font-size="10.00">RetQueue</text>
</g>
<!-- Node9&#45;&gt;Node8 -->
<g id="edge9" class="edge">
<title>Node9&#45;&gt;Node8</title>
<path fill="none" stroke="#9a32cd" stroke-dasharray="5,2" d="M567.42,-129.07C592.81,-128.9 621.26,-130.01 647,-134 666.38,-137 687.53,-143.71 703.28,-149.42"/>
<polygon fill="#9a32cd" stroke="#9a32cd" points="567.06,-125.57 557.11,-129.2 567.15,-132.57 567.06,-125.57"/>
<text text-anchor="middle" x="611" y="-137" font-family="Helvetica,sans-Serif" font-size="10.00"> usr_config</text>
</g>
<!-- Node10&#45;&gt;Node8 -->
<g id="edge17" class="edge">
<title>Node10&#45;&gt;Node8</title>
<path fill="none" stroke="#9a32cd" stroke-dasharray="5,2" d="M288.63,-101.32C355.53,-96.44 464.11,-91.81 557,-103 597.88,-107.92 607.91,-112.06 647,-125 668.03,-131.96 691.25,-142.04 707.33,-149.42"/>
<polygon fill="#9a32cd" stroke="#9a32cd" points="287.97,-97.86 278.26,-102.1 288.5,-104.84 287.97,-97.86"/>
<text text-anchor="middle" x="491.5" y="-106" font-family="Helvetica,sans-Serif" font-size="10.00"> config</text>
</g>
<!-- Node10&#45;&gt;Node9 -->
<g id="edge11" class="edge">
<title>Node10&#45;&gt;Node9</title>
<path fill="none" stroke="#9a32cd" stroke-dasharray="5,2" d="M288.15,-113.15C329.62,-117.22 383.85,-122.54 425.74,-126.65"/>
<polygon fill="#9a32cd" stroke="#9a32cd" points="288.47,-109.66 278.17,-112.17 287.78,-116.63 288.47,-109.66"/>
<text text-anchor="middle" x="352" y="-127" font-family="Helvetica,sans-Serif" font-size="10.00"> config</text>
</g>
<!-- Node11 -->
<g id="node11" class="node">
<title>Node11</title>
<g id="a_node11"><a xlink:title=" ">
<polygon fill="white" stroke="#bfbfbf" points="472.5,-38.5 472.5,-57.5 510.5,-57.5 510.5,-38.5 472.5,-38.5"/>
<text text-anchor="middle" x="491.5" y="-45.5" font-family="Helvetica,sans-Serif" font-size="10.00">char</text>
</a>
</g>
</g>
<!-- Node11&#45;&gt;Node8 -->
<g id="edge14" class="edge">
<title>Node11&#45;&gt;Node8</title>
<path fill="none" stroke="#9a32cd" stroke-dasharray="5,2" d="M520.97,-43.38C555.09,-39.55 612.04,-38.85 647,-69 668.73,-87.74 646.16,-109.35 665,-131 672.18,-139.25 682.27,-145.19 692.25,-149.41"/>
<polygon fill="#9a32cd" stroke="#9a32cd" points="520.22,-39.95 510.75,-44.7 521.11,-46.89 520.22,-39.95"/>
<text text-anchor="middle" x="611" y="-72" font-family="Helvetica,sans-Serif" font-size="10.00"> buffer</text>
</g>
<!-- Node12 -->
<g id="node12" class="node">
<title>Node12</title>
<g id="a_node12"><a xlink:title=" ">
<polygon fill="white" stroke="#bfbfbf" points="445.5,-0.5 445.5,-19.5 537.5,-19.5 537.5,-0.5 445.5,-0.5"/>
<text text-anchor="middle" x="491.5" y="-7.5" font-family="Helvetica,sans-Serif" font-size="10.00">QueueHandle_t</text>
</a>
</g>
</g>
<!-- Node12&#45;&gt;Node8 -->
<g id="edge18" class="edge">
<title>Node12&#45;&gt;Node8</title>
<path fill="none" stroke="#9a32cd" stroke-dasharray="5,2" d="M548.08,-1.34C580.98,0.48 621.14,-3.57 647,-28 680.78,-59.91 636.46,-94.33 665,-131 671.5,-139.35 681.03,-145.28 690.71,-149.46"/>
<polygon fill="#9a32cd" stroke="#9a32cd" points="547.4,2.12 537.69,-2.12 547.92,-4.86 547.4,2.12"/>
<text text-anchor="middle" x="611" y="-31" font-family="Helvetica,sans-Serif" font-size="10.00"> mqd</text>
</g>
<!-- Node13 -->
<g id="node13" class="node">
<title>Node13</title>
<g id="a_node13"><a xlink:title=" ">
<polygon fill="white" stroke="#bfbfbf" points="714,-102.5 714,-121.5 743,-121.5 743,-102.5 714,-102.5"/>
<text text-anchor="middle" x="728.5" y="-109.5" font-family="Helvetica,sans-Serif" font-size="10.00">int</text>
</a>
</g>
</g>
<!-- Node13&#45;&gt;Node1 -->
<g id="edge20" class="edge">
<title>Node13&#45;&gt;Node1</title>
<path fill="none" stroke="#9a32cd" stroke-dasharray="5,2" d="M753.28,-110.97C784.11,-110.31 839.26,-111.46 884,-125 908.42,-132.39 933.76,-148.12 948.7,-158.36"/>
<polygon fill="#9a32cd" stroke="#9a32cd" points="752.97,-107.47 743.08,-111.27 753.18,-114.47 752.97,-107.47"/>
<text text-anchor="middle" x="847" y="-150" font-family="Helvetica,sans-Serif" font-size="10.00"> ChannelId</text>
<text text-anchor="middle" x="847" y="-139" font-family="Helvetica,sans-Serif" font-size="10.00">MsgId</text>
<text text-anchor="middle" x="847" y="-128" font-family="Helvetica,sans-Serif" font-size="10.00">QId</text>
</g>
</g>
</svg>
