<?xml version="1.0" encoding="UTF-8" standalone="no"?>
<!DOCTYPE svg PUBLIC "-//W3C//DTD SVG 1.1//EN"
 "http://www.w3.org/Graphics/SVG/1.1/DTD/svg11.dtd">
<!-- Generated by graphviz version 2.43.0 (0)
 -->
<!-- Title: r_wm_Msg_DiscomInfo_t Pages: 1 -->
<svg width="199pt" height="161pt"
 viewBox="0.00 0.00 199.00 161.00" xmlns="http://www.w3.org/2000/svg" xmlns:xlink="http://www.w3.org/1999/xlink">
<g id="graph0" class="graph" transform="scale(1 1) rotate(0) translate(4 157)">
<title>r_wm_Msg_DiscomInfo_t</title>
<polygon fill="white" stroke="transparent" points="-4,4 -4,-157 195,-157 195,4 -4,4"/>
<!-- Node1 -->
<g id="node1" class="node">
<title>Node1</title>
<g id="a_node1"><a xlink:title=" ">
<polygon fill="#bfbfbf" stroke="black" points="27.5,-0.5 27.5,-19.5 166.5,-19.5 166.5,-0.5 27.5,-0.5"/>
<text text-anchor="middle" x="97" y="-7.5" font-family="Helvetica,sans-Serif" font-size="10.00">r_wm_Msg_DiscomInfo_t</text>
</a>
</g>
</g>
<!-- Node2 -->
<g id="node2" class="node">
<title>Node2</title>
<g id="a_node2"><a xlink:title=" ">
<polygon fill="white" stroke="#bfbfbf" points="0,-133.5 0,-152.5 56,-152.5 56,-133.5 0,-133.5"/>
<text text-anchor="middle" x="28" y="-140.5" font-family="Helvetica,sans-Serif" font-size="10.00">uint32_t</text>
</a>
</g>
</g>
<!-- Node2&#45;&gt;Node1 -->
<g id="edge1" class="edge">
<title>Node2&#45;&gt;Node1</title>
<path fill="none" stroke="#9a32cd" stroke-dasharray="5,2" d="M26.78,-123.01C26.32,-100.59 28.72,-63.17 47,-38 52.97,-29.78 62.23,-23.8 71.17,-19.59"/>
<polygon fill="#9a32cd" stroke="#9a32cd" points="23.29,-123.38 27.21,-133.22 30.29,-123.08 23.29,-123.38"/>
<text text-anchor="middle" x="70" y="-107" font-family="Helvetica,sans-Serif" font-size="10.00"> Callback</text>
<text text-anchor="middle" x="70" y="-96" font-family="Helvetica,sans-Serif" font-size="10.00">Crc</text>
<text text-anchor="middle" x="70" y="-85" font-family="Helvetica,sans-Serif" font-size="10.00">Height</text>
<text text-anchor="middle" x="70" y="-74" font-family="Helvetica,sans-Serif" font-size="10.00">Pid</text>
<text text-anchor="middle" x="70" y="-63" font-family="Helvetica,sans-Serif" font-size="10.00">PosX</text>
<text text-anchor="middle" x="70" y="-52" font-family="Helvetica,sans-Serif" font-size="10.00">PosY</text>
<text text-anchor="middle" x="70" y="-41" font-family="Helvetica,sans-Serif" font-size="10.00">Width</text>
</g>
<!-- Node3 -->
<g id="node3" class="node">
<title>Node3</title>
<g id="a_node3"><a xlink:title=" ">
<polygon fill="white" stroke="#bfbfbf" points="78,-133.5 78,-152.5 116,-152.5 116,-133.5 78,-133.5"/>
<text text-anchor="middle" x="97" y="-140.5" font-family="Helvetica,sans-Serif" font-size="10.00">bool</text>
</a>
</g>
</g>
<!-- Node3&#45;&gt;Node1 -->
<g id="edge2" class="edge">
<title>Node3&#45;&gt;Node1</title>
<path fill="none" stroke="#9a32cd" stroke-dasharray="5,2" d="M97,-123.09C97,-94.36 97,-40.82 97,-19.8"/>
<polygon fill="#9a32cd" stroke="#9a32cd" points="93.5,-123.4 97,-133.4 100.5,-123.4 93.5,-123.4"/>
<text text-anchor="middle" x="115.5" y="-74" font-family="Helvetica,sans-Serif" font-size="10.00"> Enable</text>
</g>
<!-- Node4 -->
<g id="node4" class="node">
<title>Node4</title>
<g id="a_node4"><a xlink:title=" ">
<polygon fill="white" stroke="#bfbfbf" points="134,-133.5 134,-152.5 180,-152.5 180,-133.5 134,-133.5"/>
<text text-anchor="middle" x="157" y="-140.5" font-family="Helvetica,sans-Serif" font-size="10.00">void *</text>
</a>
</g>
</g>
<!-- Node4&#45;&gt;Node1 -->
<g id="edge3" class="edge">
<title>Node4&#45;&gt;Node1</title>
<path fill="none" stroke="#9a32cd" stroke-dasharray="5,2" d="M157.04,-123.35C156.24,-101.25 152.16,-64.15 135,-38 129.94,-30.29 121.85,-24.09 114.43,-19.59"/>
<polygon fill="#9a32cd" stroke="#9a32cd" points="153.54,-123.46 157.21,-133.39 160.54,-123.34 153.54,-123.46"/>
<text text-anchor="middle" x="173.5" y="-79.5" font-family="Helvetica,sans-Serif" font-size="10.00"> CbArg</text>
<text text-anchor="middle" x="173.5" y="-68.5" font-family="Helvetica,sans-Serif" font-size="10.00">Handle</text>
</g>
</g>
</svg>
