<?xml version="1.0" encoding="UTF-8" standalone="no"?>
<!DOCTYPE svg PUBLIC "-//W3C//DTD SVG 1.1//EN"
 "http://www.w3.org/Graphics/SVG/1.1/DTD/svg11.dtd">
<!-- Generated by graphviz version 2.43.0 (0)
 -->
<!-- Title: STag_Eth_ConfigType Pages: 1 -->
<svg width="706pt" height="461pt"
 viewBox="0.00 0.00 706.00 461.00" xmlns="http://www.w3.org/2000/svg" xmlns:xlink="http://www.w3.org/1999/xlink">
<g id="graph0" class="graph" transform="scale(1 1) rotate(0) translate(4 457)">
<title>STag_Eth_ConfigType</title>
<polygon fill="white" stroke="transparent" points="-4,4 -4,-457 702,-457 702,4 -4,4"/>
<!-- Node1 -->
<g id="node1" class="node">
<title>Node1</title>
<g id="a_node1"><a xlink:title=" ">
<polygon fill="#bfbfbf" stroke="black" points="579,-224.5 579,-243.5 698,-243.5 698,-224.5 579,-224.5"/>
<text text-anchor="middle" x="638.5" y="-231.5" font-family="Helvetica,sans-Serif" font-size="10.00">STag_Eth_ConfigType</text>
</a>
</g>
</g>
<!-- Node2 -->
<g id="node2" class="node">
<title>Node2</title>
<g id="a_node2"><a xlink:title=" ">
<polygon fill="white" stroke="#bfbfbf" points="39,-416.5 39,-435.5 124,-435.5 124,-416.5 39,-416.5"/>
<text text-anchor="middle" x="81.5" y="-423.5" font-family="Helvetica,sans-Serif" font-size="10.00">unsigned long</text>
</a>
</g>
</g>
<!-- Node2&#45;&gt;Node1 -->
<g id="edge1" class="edge">
<title>Node2&#45;&gt;Node1</title>
<path fill="none" stroke="#9a32cd" stroke-dasharray="5,2" d="M134.18,-434.6C228.63,-447.35 431.31,-460.61 561,-367 605.49,-334.88 627.92,-268.33 634.98,-243.56"/>
<polygon fill="#9a32cd" stroke="#9a32cd" points="134.41,-431.1 124.02,-433.17 133.44,-438.03 134.41,-431.1"/>
<text text-anchor="middle" x="380" y="-445" font-family="Helvetica,sans-Serif" font-size="10.00"> ulStartOfDbToc</text>
</g>
<!-- Node11 -->
<g id="node11" class="node">
<title>Node11</title>
<g id="a_node11"><a xlink:href="structSTag__Eth__RxConfigType.html" target="_top" xlink:title=" ">
<polygon fill="white" stroke="black" points="314.5,-358.5 314.5,-377.5 445.5,-377.5 445.5,-358.5 314.5,-358.5"/>
<text text-anchor="middle" x="380" y="-365.5" font-family="Helvetica,sans-Serif" font-size="10.00">STag_Eth_RxConfigType</text>
</a>
</g>
</g>
<!-- Node2&#45;&gt;Node11 -->
<g id="edge16" class="edge">
<title>Node2&#45;&gt;Node11</title>
<path fill="none" stroke="#9a32cd" stroke-dasharray="5,2" d="M133.94,-416.89C175.35,-409.44 235,-398.48 287,-388 303.18,-384.74 320.92,-380.94 336.46,-377.53"/>
<polygon fill="#9a32cd" stroke="#9a32cd" points="133.31,-413.44 124.09,-418.65 134.55,-420.33 133.31,-413.44"/>
<text text-anchor="middle" x="234" y="-411" font-family="Helvetica,sans-Serif" font-size="10.00"> Rfcl</text>
</g>
<!-- Node3 -->
<g id="node3" class="node">
<title>Node3</title>
<g id="a_node3"><a xlink:href="structSTag__Eth__TxCBSType.html" target="_top" xlink:title=" ">
<polygon fill="white" stroke="black" points="320.5,-93.5 320.5,-112.5 439.5,-112.5 439.5,-93.5 320.5,-93.5"/>
<text text-anchor="middle" x="380" y="-100.5" font-family="Helvetica,sans-Serif" font-size="10.00">STag_Eth_TxCBSType</text>
</a>
</g>
</g>
<!-- Node3&#45;&gt;Node1 -->
<g id="edge2" class="edge">
<title>Node3&#45;&gt;Node1</title>
<path fill="none" stroke="#9a32cd" stroke-dasharray="5,2" d="M449.88,-99.03C485.34,-100.02 527.94,-106.15 561,-126 600.59,-149.78 625.17,-202.8 633.91,-224.48"/>
<polygon fill="#9a32cd" stroke="#9a32cd" points="449.65,-95.53 439.6,-98.88 449.55,-102.53 449.65,-95.53"/>
<text text-anchor="middle" x="517" y="-129" font-family="Helvetica,sans-Serif" font-size="10.00"> stTxConfig</text>
</g>
<!-- Node4 -->
<g id="node4" class="node">
<title>Node4</title>
<g id="a_node4"><a xlink:title=" ">
<polygon fill="white" stroke="#bfbfbf" points="3,-38.5 3,-57.5 160,-57.5 160,-38.5 3,-38.5"/>
<text text-anchor="middle" x="81.5" y="-45.5" font-family="Helvetica,sans-Serif" font-size="10.00">enum ETag_Eth_TxQPrioType</text>
</a>
</g>
</g>
<!-- Node4&#45;&gt;Node3 -->
<g id="edge3" class="edge">
<title>Node4&#45;&gt;Node3</title>
<path fill="none" stroke="#9a32cd" stroke-dasharray="5,2" d="M124.85,-36.2C168.81,-26.54 237.87,-18.85 287,-49 301.91,-58.15 291.33,-73.09 305,-84 309.87,-87.89 315.45,-90.99 321.31,-93.46"/>
<polygon fill="#9a32cd" stroke="#9a32cd" points="124.01,-32.8 115.06,-38.48 125.59,-39.62 124.01,-32.8"/>
<text text-anchor="middle" x="234" y="-52" font-family="Helvetica,sans-Serif" font-size="10.00"> Tqp</text>
</g>
<!-- Node5 -->
<g id="node5" class="node">
<title>Node5</title>
<g id="a_node5"><a xlink:title=" ">
<polygon fill="white" stroke="#bfbfbf" points="62.5,-177.5 62.5,-196.5 100.5,-196.5 100.5,-177.5 62.5,-177.5"/>
<text text-anchor="middle" x="81.5" y="-184.5" font-family="Helvetica,sans-Serif" font-size="10.00">char</text>
</a>
</g>
</g>
<!-- Node5&#45;&gt;Node1 -->
<g id="edge7" class="edge">
<title>Node5&#45;&gt;Node1</title>
<path fill="none" stroke="#9a32cd" stroke-dasharray="5,2" d="M111.06,-185.94C173.62,-183.99 327.39,-181.3 455,-196 506.44,-201.93 564.87,-215.29 601.46,-224.48"/>
<polygon fill="#9a32cd" stroke="#9a32cd" points="110.68,-182.45 100.8,-186.27 110.91,-189.44 110.68,-182.45"/>
<text text-anchor="middle" x="380" y="-254" font-family="Helvetica,sans-Serif" font-size="10.00"> ucEthDuplex</text>
<text text-anchor="middle" x="380" y="-243" font-family="Helvetica,sans-Serif" font-size="10.00">ucEthMACAddr</text>
<text text-anchor="middle" x="380" y="-232" font-family="Helvetica,sans-Serif" font-size="10.00">ucEthMagicDection</text>
<text text-anchor="middle" x="380" y="-221" font-family="Helvetica,sans-Serif" font-size="10.00">ucEthPHYInterface</text>
<text text-anchor="middle" x="380" y="-210" font-family="Helvetica,sans-Serif" font-size="10.00">ucEthSpeed</text>
<text text-anchor="middle" x="380" y="-199" font-family="Helvetica,sans-Serif" font-size="10.00">ucStartOfPayloadCrcArea</text>
</g>
<!-- Node5&#45;&gt;Node3 -->
<g id="edge4" class="edge">
<title>Node5&#45;&gt;Node3</title>
<path fill="none" stroke="#9a32cd" stroke-dasharray="5,2" d="M102.19,-171.14C121.17,-156.78 151.32,-136.33 181,-126 226.1,-110.3 280.11,-104.84 320.32,-103.15"/>
<polygon fill="#9a32cd" stroke="#9a32cd" points="99.82,-168.55 94.06,-177.44 104.1,-174.09 99.82,-168.55"/>
<text text-anchor="middle" x="234" y="-129" font-family="Helvetica,sans-Serif" font-size="10.00"> Ecbs</text>
</g>
<!-- Node6 -->
<g id="node6" class="node">
<title>Node6</title>
<g id="a_node6"><a xlink:href="structSTag__Eth__CtrlPriorityType.html" target="_top" xlink:title=" ">
<polygon fill="white" stroke="black" points="310,-131.5 310,-150.5 450,-150.5 450,-131.5 310,-131.5"/>
<text text-anchor="middle" x="380" y="-138.5" font-family="Helvetica,sans-Serif" font-size="10.00">STag_Eth_CtrlPriorityType</text>
</a>
</g>
</g>
<!-- Node5&#45;&gt;Node6 -->
<g id="edge6" class="edge">
<title>Node5&#45;&gt;Node6</title>
<path fill="none" stroke="#9a32cd" stroke-dasharray="5,2" d="M109.96,-174.44C129.37,-166.19 156.23,-156.03 181,-151 223.16,-142.43 271.36,-139.85 309.64,-139.45"/>
<polygon fill="#9a32cd" stroke="#9a32cd" points="108.31,-171.34 100.54,-178.54 111.1,-177.76 108.31,-171.34"/>
<text text-anchor="middle" x="234" y="-165" font-family="Helvetica,sans-Serif" font-size="10.00"> DflTxQueue</text>
<text text-anchor="middle" x="234" y="-154" font-family="Helvetica,sans-Serif" font-size="10.00">ucNumberOfPriorities</text>
</g>
<!-- Node7 -->
<g id="node7" class="node">
<title>Node7</title>
<g id="a_node7"><a xlink:href="structSTag__Eth__ComConfigType.html" target="_top" xlink:title=" ">
<polygon fill="white" stroke="black" points="309.5,-55.5 309.5,-74.5 450.5,-74.5 450.5,-55.5 309.5,-55.5"/>
<text text-anchor="middle" x="380" y="-62.5" font-family="Helvetica,sans-Serif" font-size="10.00">STag_Eth_ComConfigType</text>
</a>
</g>
</g>
<!-- Node5&#45;&gt;Node7 -->
<g id="edge9" class="edge">
<title>Node5&#45;&gt;Node7</title>
<path fill="none" stroke="#9a32cd" stroke-dasharray="5,2" d="M95.08,-169.01C111.86,-146.59 143.8,-109.04 181,-91 220.77,-71.71 270.04,-65.19 309.48,-63.5"/>
<polygon fill="#9a32cd" stroke="#9a32cd" points="92.09,-167.18 89.04,-177.32 97.75,-171.29 92.09,-167.18"/>
<text text-anchor="middle" x="234" y="-94" font-family="Helvetica,sans-Serif" font-size="10.00"> Lbme</text>
</g>
<!-- Node9 -->
<g id="node9" class="node">
<title>Node9</title>
<g id="a_node9"><a xlink:href="structSTag__Eth__QueueConfigType.html" target="_top" xlink:title=" ">
<polygon fill="white" stroke="black" points="305,-309.5 305,-328.5 455,-328.5 455,-309.5 305,-309.5"/>
<text text-anchor="middle" x="380" y="-316.5" font-family="Helvetica,sans-Serif" font-size="10.00">STag_Eth_QueueConfigType</text>
</a>
</g>
</g>
<!-- Node5&#45;&gt;Node9 -->
<g id="edge12" class="edge">
<title>Node5&#45;&gt;Node9</title>
<path fill="none" stroke="#9a32cd" stroke-dasharray="5,2" d="M104.59,-202.16C123.94,-214.79 153.24,-232.38 181,-243 226.03,-260.22 248.59,-236.87 287,-266 300.62,-276.33 291.57,-289.41 305,-300 309.9,-303.86 315.49,-306.94 321.36,-309.4"/>
<polygon fill="#9a32cd" stroke="#9a32cd" points="106.45,-199.2 96.19,-196.58 102.58,-205.03 106.45,-199.2"/>
<text text-anchor="middle" x="234" y="-302" font-family="Helvetica,sans-Serif" font-size="10.00"> ucFirstRxQueueIdx</text>
<text text-anchor="middle" x="234" y="-291" font-family="Helvetica,sans-Serif" font-size="10.00">ucLastRxQueueIdx</text>
<text text-anchor="middle" x="234" y="-280" font-family="Helvetica,sans-Serif" font-size="10.00">ucNumberOfRxQueue</text>
<text text-anchor="middle" x="234" y="-269" font-family="Helvetica,sans-Serif" font-size="10.00">ucNumberOfTxQueue</text>
</g>
<!-- Node10 -->
<g id="node10" class="node">
<title>Node10</title>
<g id="a_node10"><a xlink:href="structSTag__Eth__ClockDelayType.html" target="_top" xlink:title=" ">
<polygon fill="white" stroke="black" points="308.5,-271.5 308.5,-290.5 451.5,-290.5 451.5,-271.5 308.5,-271.5"/>
<text text-anchor="middle" x="380" y="-278.5" font-family="Helvetica,sans-Serif" font-size="10.00">STag_Eth_ClockDelayType</text>
</a>
</g>
</g>
<!-- Node5&#45;&gt;Node10 -->
<g id="edge14" class="edge">
<title>Node5&#45;&gt;Node10</title>
<path fill="none" stroke="#9a32cd" stroke-dasharray="5,2" d="M110.86,-190.27C163.68,-196.57 273.02,-210.68 287,-221 301.39,-231.62 291.44,-245.33 305,-257 312.37,-263.34 321.45,-268.01 330.69,-271.46"/>
<polygon fill="#9a32cd" stroke="#9a32cd" points="111.15,-186.78 100.8,-189.08 110.32,-193.73 111.15,-186.78"/>
<text text-anchor="middle" x="234" y="-235" font-family="Helvetica,sans-Serif" font-size="10.00"> Rdm</text>
<text text-anchor="middle" x="234" y="-224" font-family="Helvetica,sans-Serif" font-size="10.00">Tdm</text>
</g>
<!-- Node5&#45;&gt;Node11 -->
<g id="edge18" class="edge">
<title>Node5&#45;&gt;Node11</title>
<path fill="none" stroke="#9a32cd" stroke-dasharray="5,2" d="M92.37,-205.48C107.73,-232.48 139.91,-282.47 181,-310 194.5,-319.05 288.39,-344.42 341.88,-358.42"/>
<polygon fill="#9a32cd" stroke="#9a32cd" points="95.39,-203.71 87.48,-196.66 89.27,-207.1 95.39,-203.71"/>
<text text-anchor="middle" x="234" y="-356" font-family="Helvetica,sans-Serif" font-size="10.00"> Effs</text>
<text text-anchor="middle" x="234" y="-345" font-family="Helvetica,sans-Serif" font-size="10.00">Encf</text>
</g>
<!-- Node6&#45;&gt;Node1 -->
<g id="edge5" class="edge">
<title>Node6&#45;&gt;Node1</title>
<path fill="none" stroke="#9a32cd" stroke-dasharray="5,2" d="M460.38,-139.52C492.84,-141.6 529.99,-147.56 561,-162 591.92,-176.39 618.49,-208.18 630.56,-224.26"/>
<polygon fill="#9a32cd" stroke="#9a32cd" points="460.18,-136.01 450.01,-138.98 459.82,-143 460.18,-136.01"/>
<text text-anchor="middle" x="517" y="-165" font-family="Helvetica,sans-Serif" font-size="10.00"> stEthPriority</text>
</g>
<!-- Node7&#45;&gt;Node1 -->
<g id="edge8" class="edge">
<title>Node7&#45;&gt;Node1</title>
<path fill="none" stroke="#9a32cd" stroke-dasharray="5,2" d="M461.16,-58.46C494.61,-59.55 532.27,-66.14 561,-86 610.72,-120.38 630.25,-197.27 635.74,-224.34"/>
<polygon fill="#9a32cd" stroke="#9a32cd" points="460.99,-54.96 450.93,-58.29 460.87,-61.96 460.99,-54.96"/>
<text text-anchor="middle" x="517" y="-89" font-family="Helvetica,sans-Serif" font-size="10.00"> stComConfig</text>
</g>
<!-- Node8 -->
<g id="node8" class="node">
<title>Node8</title>
<g id="a_node8"><a xlink:title=" ">
<polygon fill="white" stroke="#bfbfbf" points="2.5,-0.5 2.5,-19.5 160.5,-19.5 160.5,-0.5 2.5,-0.5"/>
<text text-anchor="middle" x="81.5" y="-7.5" font-family="Helvetica,sans-Serif" font-size="10.00">enum ETag_Eth_GPtpClkType</text>
</a>
</g>
</g>
<!-- Node8&#45;&gt;Node7 -->
<g id="edge10" class="edge">
<title>Node8&#45;&gt;Node7</title>
<path fill="none" stroke="#9a32cd" stroke-dasharray="5,2" d="M171.09,-1.8C207.56,-0.86 249.88,-2.94 287,-13 318.17,-21.44 349.96,-42.86 366.79,-55.41"/>
<polygon fill="#9a32cd" stroke="#9a32cd" points="170.84,1.69 160.96,-2.14 171.08,-5.3 170.84,1.69"/>
<text text-anchor="middle" x="234" y="-16" font-family="Helvetica,sans-Serif" font-size="10.00"> Csel</text>
</g>
<!-- Node9&#45;&gt;Node1 -->
<g id="edge11" class="edge">
<title>Node9&#45;&gt;Node1</title>
<path fill="none" stroke="#9a32cd" stroke-dasharray="5,2" d="M453.74,-307.55C487.12,-301.01 526.78,-291.39 561,-278 584.26,-268.9 608.91,-253.55 623.76,-243.6"/>
<polygon fill="#9a32cd" stroke="#9a32cd" points="452.77,-304.17 443.6,-309.48 454.08,-311.05 452.77,-304.17"/>
<text text-anchor="middle" x="517" y="-306" font-family="Helvetica,sans-Serif" font-size="10.00"> Eth_QueueConfig</text>
</g>
<!-- Node10&#45;&gt;Node1 -->
<g id="edge13" class="edge">
<title>Node10&#45;&gt;Node1</title>
<path fill="none" stroke="#9a32cd" stroke-dasharray="5,2" d="M442.81,-269.67C486.34,-261.7 543.98,-251.14 585.23,-243.58"/>
<polygon fill="#9a32cd" stroke="#9a32cd" points="442.11,-266.24 432.91,-271.49 443.37,-273.13 442.11,-266.24"/>
<text text-anchor="middle" x="517" y="-266" font-family="Helvetica,sans-Serif" font-size="10.00"> stClkDelayConfig</text>
</g>
<!-- Node11&#45;&gt;Node1 -->
<g id="edge15" class="edge">
<title>Node11&#45;&gt;Node1</title>
<path fill="none" stroke="#9a32cd" stroke-dasharray="5,2" d="M455.63,-357.02C489.59,-349.65 529.19,-337.57 561,-318 593.09,-298.26 619.88,-261.22 631.41,-243.68"/>
<polygon fill="#9a32cd" stroke="#9a32cd" points="454.84,-353.61 445.76,-359.06 456.26,-360.46 454.84,-353.61"/>
<text text-anchor="middle" x="517" y="-355" font-family="Helvetica,sans-Serif" font-size="10.00"> stRxConfig</text>
</g>
<!-- Node12 -->
<g id="node12" class="node">
<title>Node12</title>
<g id="a_node12"><a xlink:title=" ">
<polygon fill="white" stroke="#bfbfbf" points="0,-367.5 0,-386.5 163,-386.5 163,-367.5 0,-367.5"/>
<text text-anchor="middle" x="81.5" y="-374.5" font-family="Helvetica,sans-Serif" font-size="10.00">enum ETag_Eth_SFOptionType</text>
</a>
</g>
</g>
<!-- Node12&#45;&gt;Node11 -->
<g id="edge17" class="edge">
<title>Node12&#45;&gt;Node11</title>
<path fill="none" stroke="#9a32cd" stroke-dasharray="5,2" d="M173.31,-374.24C218.89,-372.86 273.04,-371.22 314.34,-369.96"/>
<polygon fill="#9a32cd" stroke="#9a32cd" points="173.02,-370.75 163.13,-374.55 173.23,-377.75 173.02,-370.75"/>
<text text-anchor="middle" x="234" y="-376" font-family="Helvetica,sans-Serif" font-size="10.00"> Esf</text>
</g>
</g>
</svg>
