<?xml version="1.0" encoding="UTF-8" standalone="no"?>
<!DOCTYPE svg PUBLIC "-//W3C//DTD SVG 1.1//EN"
 "http://www.w3.org/Graphics/SVG/1.1/DTD/svg11.dtd">
<!-- Generated by graphviz version 2.43.0 (0)
 -->
<!-- Title: st_imrdrv_ctrl_handle_t Pages: 1 -->
<svg width="1400pt" height="953pt"
 viewBox="0.00 0.00 1400.00 953.00" xmlns="http://www.w3.org/2000/svg" xmlns:xlink="http://www.w3.org/1999/xlink">
<g id="graph0" class="graph" transform="scale(1 1) rotate(0) translate(4 949)">
<title>st_imrdrv_ctrl_handle_t</title>
<polygon fill="white" stroke="transparent" points="-4,4 -4,-949 1396,-949 1396,4 -4,4"/>
<!-- Node1 -->
<g id="node1" class="node">
<title>Node1</title>
<g id="a_node1"><a xlink:title=" ">
<polygon fill="#bfbfbf" stroke="black" points="1261,-528.5 1261,-547.5 1392,-547.5 1392,-528.5 1261,-528.5"/>
<text text-anchor="middle" x="1326.5" y="-535.5" font-family="Helvetica,sans-Serif" font-size="10.00">st_imrdrv_ctrl_handle_t</text>
</a>
</g>
</g>
<!-- Node2 -->
<g id="node2" class="node">
<title>Node2</title>
<g id="a_node2"><a xlink:href="structst__imrdrv__basic__device__area__t.html" target="_top" xlink:title=" ">
<polygon fill="white" stroke="black" points="990,-761 990,-791 1121,-791 1121,-761 990,-761"/>
<text text-anchor="start" x="998" y="-779" font-family="Helvetica,sans-Serif" font-size="10.00">st_imrdrv_basic_device</text>
<text text-anchor="middle" x="1055.5" y="-768" font-family="Helvetica,sans-Serif" font-size="10.00">_area_t</text>
</a>
</g>
</g>
<!-- Node2&#45;&gt;Node1 -->
<g id="edge1" class="edge">
<title>Node2&#45;&gt;Node1</title>
<path fill="none" stroke="#9a32cd" stroke-dasharray="5,2" d="M1104.11,-756.91C1144.54,-738.96 1202.31,-709.02 1243,-670 1282.59,-632.03 1311.27,-571.28 1321.45,-547.75"/>
<polygon fill="#9a32cd" stroke="#9a32cd" points="1102.51,-753.79 1094.74,-760.99 1105.3,-760.2 1102.51,-753.79"/>
<text text-anchor="middle" x="1193" y="-738" font-family="Helvetica,sans-Serif" font-size="10.00"> basic_device_area</text>
</g>
<!-- Node3 -->
<g id="node3" class="node">
<title>Node3</title>
<g id="a_node3"><a xlink:title=" ">
<polygon fill="white" stroke="#bfbfbf" points="728,-783.5 728,-802.5 853,-802.5 853,-783.5 728,-783.5"/>
<text text-anchor="middle" x="790.5" y="-790.5" font-family="Helvetica,sans-Serif" font-size="10.00">e_imrdrv_channelno_t</text>
</a>
</g>
</g>
<!-- Node3&#45;&gt;Node2 -->
<g id="edge2" class="edge">
<title>Node3&#45;&gt;Node2</title>
<path fill="none" stroke="#9a32cd" stroke-dasharray="5,2" d="M863.24,-788.36C902.69,-785.81 951.24,-782.67 989.55,-780.2"/>
<polygon fill="#9a32cd" stroke="#9a32cd" points="862.92,-784.88 853.16,-789.01 863.37,-791.86 862.92,-784.88"/>
<text text-anchor="middle" x="921" y="-790" font-family="Helvetica,sans-Serif" font-size="10.00"> channel_no</text>
</g>
<!-- Node4 -->
<g id="node4" class="node">
<title>Node4</title>
<g id="a_node4"><a xlink:href="structst__imrdrv__basic__mainctl__area__t.html" target="_top" xlink:title=" ">
<polygon fill="white" stroke="black" points="987.5,-696 987.5,-726 1123.5,-726 1123.5,-696 987.5,-696"/>
<text text-anchor="start" x="995.5" y="-714" font-family="Helvetica,sans-Serif" font-size="10.00">st_imrdrv_basic_mainctl</text>
<text text-anchor="middle" x="1055.5" y="-703" font-family="Helvetica,sans-Serif" font-size="10.00">_area_t</text>
</a>
</g>
</g>
<!-- Node4&#45;&gt;Node1 -->
<g id="edge3" class="edge">
<title>Node4&#45;&gt;Node1</title>
<path fill="none" stroke="#9a32cd" stroke-dasharray="5,2" d="M1088.36,-690.51C1146.69,-653 1268.5,-574.66 1310.72,-547.51"/>
<polygon fill="#9a32cd" stroke="#9a32cd" points="1086.42,-687.6 1079.9,-695.95 1090.21,-693.48 1086.42,-687.6"/>
<text text-anchor="middle" x="1193" y="-658" font-family="Helvetica,sans-Serif" font-size="10.00"> basic_mainctl_area</text>
</g>
<!-- Node5 -->
<g id="node5" class="node">
<title>Node5</title>
<g id="a_node5"><a xlink:href="structst__imrdrv__attr__param__t.html" target="_top" xlink:title=" ">
<polygon fill="white" stroke="black" points="725,-745.5 725,-764.5 856,-764.5 856,-745.5 725,-745.5"/>
<text text-anchor="middle" x="790.5" y="-752.5" font-family="Helvetica,sans-Serif" font-size="10.00">st_imrdrv_attr_param_t</text>
</a>
</g>
</g>
<!-- Node5&#45;&gt;Node4 -->
<g id="edge4" class="edge">
<title>Node5&#45;&gt;Node4</title>
<path fill="none" stroke="#9a32cd" stroke-dasharray="5,2" d="M860.26,-743.85C892.91,-738.51 932.48,-732 968,-726 974.31,-724.93 980.88,-723.81 987.45,-722.69"/>
<polygon fill="#9a32cd" stroke="#9a32cd" points="859.66,-740.4 850.36,-745.46 860.79,-747.31 859.66,-740.4"/>
<text text-anchor="middle" x="921" y="-744" font-family="Helvetica,sans-Serif" font-size="10.00"> attr_param</text>
</g>
<!-- Node6 -->
<g id="node6" class="node">
<title>Node6</title>
<g id="a_node6"><a xlink:href="structst__imrdrv__triangle__mode__t.html" target="_top" xlink:title=" ">
<polygon fill="white" stroke="black" points="470,-679 470,-709 576,-709 576,-679 470,-679"/>
<text text-anchor="start" x="478" y="-697" font-family="Helvetica,sans-Serif" font-size="10.00">st_imrdrv_triangle</text>
<text text-anchor="middle" x="523" y="-686" font-family="Helvetica,sans-Serif" font-size="10.00">_mode_t</text>
</a>
</g>
</g>
<!-- Node6&#45;&gt;Node5 -->
<g id="edge5" class="edge">
<title>Node6&#45;&gt;Node5</title>
<path fill="none" stroke="#9a32cd" stroke-dasharray="5,2" d="M586.31,-704.22C621.91,-710.57 667.25,-719.51 707,-730 715.15,-732.15 716.95,-733.47 725,-736 735.14,-739.18 746.22,-742.5 756.29,-745.46"/>
<polygon fill="#9a32cd" stroke="#9a32cd" points="586.52,-700.71 576.07,-702.42 585.31,-707.6 586.52,-700.71"/>
<text text-anchor="middle" x="656.5" y="-733" font-family="Helvetica,sans-Serif" font-size="10.00"> triangle_mode</text>
</g>
<!-- Node7 -->
<g id="node7" class="node">
<title>Node7</title>
<g id="a_node7"><a xlink:title=" ">
<polygon fill="white" stroke="#bfbfbf" points="216.5,-609.5 216.5,-628.5 318.5,-628.5 318.5,-609.5 216.5,-609.5"/>
<text text-anchor="middle" x="267.5" y="-616.5" font-family="Helvetica,sans-Serif" font-size="10.00">e_imrdrv_mode_t</text>
</a>
</g>
</g>
<!-- Node7&#45;&gt;Node6 -->
<g id="edge6" class="edge">
<title>Node7&#45;&gt;Node6</title>
<path fill="none" stroke="#9a32cd" stroke-dasharray="5,2" d="M305.78,-606.61C343.04,-596.69 400.33,-588.37 440,-615 457.54,-626.78 443.92,-643.25 458,-659 465.26,-667.12 474.86,-673.74 484.42,-678.94"/>
<polygon fill="#9a32cd" stroke="#9a32cd" points="304.51,-603.33 295.84,-609.42 306.41,-610.07 304.51,-603.33"/>
<text text-anchor="middle" x="397" y="-728" font-family="Helvetica,sans-Serif" font-size="10.00"> autodg</text>
<text text-anchor="middle" x="397" y="-717" font-family="Helvetica,sans-Serif" font-size="10.00">autosg</text>
<text text-anchor="middle" x="397" y="-706" font-family="Helvetica,sans-Serif" font-size="10.00">bfe</text>
<text text-anchor="middle" x="397" y="-695" font-family="Helvetica,sans-Serif" font-size="10.00">rde</text>
<text text-anchor="middle" x="397" y="-684" font-family="Helvetica,sans-Serif" font-size="10.00">shfe</text>
<text text-anchor="middle" x="397" y="-673" font-family="Helvetica,sans-Serif" font-size="10.00">shfval</text>
<text text-anchor="middle" x="397" y="-662" font-family="Helvetica,sans-Serif" font-size="10.00">tcm</text>
<text text-anchor="middle" x="397" y="-651" font-family="Helvetica,sans-Serif" font-size="10.00">tfe</text>
<text text-anchor="middle" x="397" y="-640" font-family="Helvetica,sans-Serif" font-size="10.00">tme</text>
<text text-anchor="middle" x="397" y="-629" font-family="Helvetica,sans-Serif" font-size="10.00">uvshfe</text>
<text text-anchor="middle" x="397" y="-618" font-family="Helvetica,sans-Serif" font-size="10.00">...</text>
</g>
<!-- Node8 -->
<g id="node8" class="node">
<title>Node8</title>
<g id="a_node8"><a xlink:href="structst__imrdrv__data__t.html" target="_top" xlink:title=" ">
<polygon fill="white" stroke="black" points="473.5,-852.5 473.5,-871.5 572.5,-871.5 572.5,-852.5 473.5,-852.5"/>
<text text-anchor="middle" x="523" y="-859.5" font-family="Helvetica,sans-Serif" font-size="10.00">st_imrdrv_data_t</text>
</a>
</g>
</g>
<!-- Node8&#45;&gt;Node5 -->
<g id="edge7" class="edge">
<title>Node8&#45;&gt;Node5</title>
<path fill="none" stroke="#9a32cd" stroke-dasharray="5,2" d="M552.72,-848.05C591.31,-829.63 662.31,-796.85 725,-774 734.32,-770.6 744.57,-767.37 754.09,-764.56"/>
<polygon fill="#9a32cd" stroke="#9a32cd" points="551.13,-844.93 543.63,-852.41 554.16,-851.24 551.13,-844.93"/>
<text text-anchor="middle" x="656.5" y="-835" font-family="Helvetica,sans-Serif" font-size="10.00"> dst_data</text>
<text text-anchor="middle" x="656.5" y="-824" font-family="Helvetica,sans-Serif" font-size="10.00">src_data</text>
</g>
<!-- Node9 -->
<g id="node9" class="node">
<title>Node9</title>
<g id="a_node9"><a xlink:title=" ">
<polygon fill="white" stroke="#bfbfbf" points="18,-780.5 18,-799.5 74,-799.5 74,-780.5 18,-780.5"/>
<text text-anchor="middle" x="46" y="-787.5" font-family="Helvetica,sans-Serif" font-size="10.00">uint32_t</text>
</a>
</g>
</g>
<!-- Node9&#45;&gt;Node8 -->
<g id="edge8" class="edge">
<title>Node9&#45;&gt;Node8</title>
<path fill="none" stroke="#9a32cd" stroke-dasharray="5,2" d="M84.43,-787.68C139.88,-785.01 246.9,-782.89 336,-799 397.56,-810.13 466.44,-837.67 500.51,-852.38"/>
<polygon fill="#9a32cd" stroke="#9a32cd" points="84.18,-784.18 74.37,-788.19 84.54,-791.17 84.18,-784.18"/>
<text text-anchor="middle" x="267.5" y="-835" font-family="Helvetica,sans-Serif" font-size="10.00"> height</text>
<text text-anchor="middle" x="267.5" y="-824" font-family="Helvetica,sans-Serif" font-size="10.00">phys_addr</text>
<text text-anchor="middle" x="267.5" y="-813" font-family="Helvetica,sans-Serif" font-size="10.00">stride</text>
<text text-anchor="middle" x="267.5" y="-802" font-family="Helvetica,sans-Serif" font-size="10.00">width</text>
</g>
<!-- Node10 -->
<g id="node10" class="node">
<title>Node10</title>
<g id="a_node10"><a xlink:href="structst__imrdrv__uv__setting__t.html" target="_top" xlink:title=" ">
<polygon fill="white" stroke="black" points="203.5,-852.5 203.5,-871.5 331.5,-871.5 331.5,-852.5 203.5,-852.5"/>
<text text-anchor="middle" x="267.5" y="-859.5" font-family="Helvetica,sans-Serif" font-size="10.00">st_imrdrv_uv_setting_t</text>
</a>
</g>
</g>
<!-- Node9&#45;&gt;Node10 -->
<g id="edge10" class="edge">
<title>Node9&#45;&gt;Node10</title>
<path fill="none" stroke="#9a32cd" stroke-dasharray="5,2" d="M83.93,-802.11C127.16,-816.29 197.86,-839.49 237.4,-852.45"/>
<polygon fill="#9a32cd" stroke="#9a32cd" points="84.95,-798.76 74.36,-798.97 82.77,-805.42 84.95,-798.76"/>
<text text-anchor="middle" x="145.5" y="-846" font-family="Helvetica,sans-Serif" font-size="10.00"> uv_phys_addr</text>
<text text-anchor="middle" x="145.5" y="-835" font-family="Helvetica,sans-Serif" font-size="10.00">uv_stride</text>
</g>
<!-- Node13 -->
<g id="node13" class="node">
<title>Node13</title>
<g id="a_node13"><a xlink:href="structst__imrdrv__dl__t.html" target="_top" xlink:title=" ">
<polygon fill="white" stroke="black" points="354,-745.5 354,-764.5 440,-764.5 440,-745.5 354,-745.5"/>
<text text-anchor="middle" x="397" y="-752.5" font-family="Helvetica,sans-Serif" font-size="10.00">st_imrdrv_dl_t</text>
</a>
</g>
</g>
<!-- Node9&#45;&gt;Node13 -->
<g id="edge15" class="edge">
<title>Node9&#45;&gt;Node13</title>
<path fill="none" stroke="#9a32cd" stroke-dasharray="5,2" d="M75.27,-776.39C85.91,-771.91 98.27,-767.46 110,-765 195.1,-747.19 297.5,-749.05 353.78,-752.02"/>
<polygon fill="#9a32cd" stroke="#9a32cd" points="73.79,-773.22 66.05,-780.45 76.61,-779.62 73.79,-773.22"/>
<text text-anchor="middle" x="145.5" y="-768" font-family="Helvetica,sans-Serif" font-size="10.00"> phys_addr</text>
</g>
<!-- Node10&#45;&gt;Node8 -->
<g id="edge9" class="edge">
<title>Node10&#45;&gt;Node8</title>
<path fill="none" stroke="#9a32cd" stroke-dasharray="5,2" d="M342.06,-862C384.32,-862 436.22,-862 473.41,-862"/>
<polygon fill="#9a32cd" stroke="#9a32cd" points="341.81,-858.5 331.81,-862 341.81,-865.5 341.81,-858.5"/>
<text text-anchor="middle" x="397" y="-865" font-family="Helvetica,sans-Serif" font-size="10.00"> uv_set</text>
</g>
<!-- Node11 -->
<g id="node11" class="node">
<title>Node11</title>
<g id="a_node11"><a xlink:title=" ">
<polygon fill="white" stroke="#bfbfbf" points="0,-914.5 0,-933.5 92,-933.5 92,-914.5 0,-914.5"/>
<text text-anchor="middle" x="46" y="-921.5" font-family="Helvetica,sans-Serif" font-size="10.00">e_imrdrv_bpp_t</text>
</a>
</g>
</g>
<!-- Node11&#45;&gt;Node8 -->
<g id="edge13" class="edge">
<title>Node11&#45;&gt;Node8</title>
<path fill="none" stroke="#9a32cd" stroke-dasharray="5,2" d="M102.25,-929.86C179.77,-936.17 324.28,-940.85 440,-904 464.69,-896.14 490.97,-881.41 506.94,-871.65"/>
<polygon fill="#9a32cd" stroke="#9a32cd" points="102.49,-926.37 92.22,-929.01 101.89,-933.34 102.49,-926.37"/>
<text text-anchor="middle" x="267.5" y="-937" font-family="Helvetica,sans-Serif" font-size="10.00"> bpp</text>
</g>
<!-- Node11&#45;&gt;Node10 -->
<g id="edge11" class="edge">
<title>Node11&#45;&gt;Node10</title>
<path fill="none" stroke="#9a32cd" stroke-dasharray="5,2" d="M90.66,-911.63C121.04,-903.03 162.48,-891.31 199,-881 209.9,-877.93 221.78,-874.58 232.5,-871.56"/>
<polygon fill="#9a32cd" stroke="#9a32cd" points="89.47,-908.33 80.8,-914.42 91.38,-915.07 89.47,-908.33"/>
<text text-anchor="middle" x="145.5" y="-908" font-family="Helvetica,sans-Serif" font-size="10.00"> uv_bpp</text>
</g>
<!-- Node12 -->
<g id="node12" class="node">
<title>Node12</title>
<g id="a_node12"><a xlink:title=" ">
<polygon fill="white" stroke="#bfbfbf" points="199,-890.5 199,-909.5 336,-909.5 336,-890.5 199,-890.5"/>
<text text-anchor="middle" x="267.5" y="-897.5" font-family="Helvetica,sans-Serif" font-size="10.00">e_imrdrv_color_format_t</text>
</a>
</g>
</g>
<!-- Node12&#45;&gt;Node8 -->
<g id="edge12" class="edge">
<title>Node12&#45;&gt;Node8</title>
<path fill="none" stroke="#9a32cd" stroke-dasharray="5,2" d="M346.41,-890.35C375.79,-886.5 409.48,-881.84 440,-877 450.72,-875.3 462.2,-873.31 473.07,-871.34"/>
<polygon fill="#9a32cd" stroke="#9a32cd" points="345.68,-886.91 336.22,-891.67 346.58,-893.85 345.68,-886.91"/>
<text text-anchor="middle" x="397" y="-892" font-family="Helvetica,sans-Serif" font-size="10.00"> color_format</text>
</g>
<!-- Node13&#45;&gt;Node5 -->
<g id="edge14" class="edge">
<title>Node13&#45;&gt;Node5</title>
<path fill="none" stroke="#9a32cd" stroke-dasharray="5,2" d="M450.32,-755C521.26,-755 647.9,-755 724.75,-755"/>
<polygon fill="#9a32cd" stroke="#9a32cd" points="450.27,-751.5 440.27,-755 450.27,-758.5 450.27,-751.5"/>
<text text-anchor="middle" x="523" y="-758" font-family="Helvetica,sans-Serif" font-size="10.00"> dl_data</text>
</g>
<!-- Node14 -->
<g id="node14" class="node">
<title>Node14</title>
<g id="a_node14"><a xlink:title=" ">
<polygon fill="white" stroke="#bfbfbf" points="727.5,-696 727.5,-726 853.5,-726 853.5,-696 727.5,-696"/>
<text text-anchor="start" x="735.5" y="-714" font-family="Helvetica,sans-Serif" font-size="10.00">enum e_osal_interrupt</text>
<text text-anchor="middle" x="790.5" y="-703" font-family="Helvetica,sans-Serif" font-size="10.00">_priority</text>
</a>
</g>
</g>
<!-- Node14&#45;&gt;Node4 -->
<g id="edge16" class="edge">
<title>Node14&#45;&gt;Node4</title>
<path fill="none" stroke="#9a32cd" stroke-dasharray="5,2" d="M863.93,-711C902.4,-711 949.4,-711 987.09,-711"/>
<polygon fill="#9a32cd" stroke="#9a32cd" points="863.83,-707.5 853.83,-711 863.83,-714.5 863.83,-707.5"/>
<text text-anchor="middle" x="921" y="-714" font-family="Helvetica,sans-Serif" font-size="10.00"> dev_irq_priority</text>
</g>
<!-- Node15 -->
<g id="node15" class="node">
<title>Node15</title>
<g id="a_node15"><a xlink:href="structst__imrdrv__osal__mutex__area__t.html" target="_top" xlink:title=" ">
<polygon fill="white" stroke="black" points="993,-551 993,-581 1118,-581 1118,-551 993,-551"/>
<text text-anchor="start" x="1001" y="-569" font-family="Helvetica,sans-Serif" font-size="10.00">st_imrdrv_osal_mutex</text>
<text text-anchor="middle" x="1055.5" y="-558" font-family="Helvetica,sans-Serif" font-size="10.00">_area_t</text>
</a>
</g>
</g>
<!-- Node15&#45;&gt;Node1 -->
<g id="edge17" class="edge">
<title>Node15&#45;&gt;Node1</title>
<path fill="none" stroke="#9a32cd" stroke-dasharray="5,2" d="M1128.19,-558.54C1169.42,-554.25 1220.8,-548.9 1260.79,-544.74"/>
<polygon fill="#9a32cd" stroke="#9a32cd" points="1127.8,-555.06 1118.21,-559.58 1128.52,-562.02 1127.8,-555.06"/>
<text text-anchor="middle" x="1193" y="-559" font-family="Helvetica,sans-Serif" font-size="10.00"> osal_mutex_area</text>
</g>
<!-- Node16 -->
<g id="node16" class="node">
<title>Node16</title>
<g id="a_node16"><a xlink:href="structst__osal__mutex__control.html" target="_top" xlink:title="control of mutex (Defined in OSAL Wrapper implementation files).">
<polygon fill="white" stroke="black" points="727,-550.5 727,-569.5 854,-569.5 854,-550.5 727,-550.5"/>
<text text-anchor="middle" x="790.5" y="-557.5" font-family="Helvetica,sans-Serif" font-size="10.00">st_osal_mutex_control</text>
</a>
</g>
</g>
<!-- Node16&#45;&gt;Node15 -->
<g id="edge18" class="edge">
<title>Node16&#45;&gt;Node15</title>
<path fill="none" stroke="#9a32cd" stroke-dasharray="5,2" d="M864.21,-561.66C904.6,-562.58 954.3,-563.71 992.77,-564.59"/>
<polygon fill="#9a32cd" stroke="#9a32cd" points="864.24,-558.16 854.16,-561.43 864.08,-565.16 864.24,-558.16"/>
<text text-anchor="middle" x="921" y="-566" font-family="Helvetica,sans-Serif" font-size="10.00"> mutex_handle</text>
</g>
<!-- Node17 -->
<g id="node17" class="node">
<title>Node17</title>
<g id="a_node17"><a xlink:title=" ">
<polygon fill="white" stroke="#bfbfbf" points="239.5,-511.5 239.5,-530.5 295.5,-530.5 295.5,-511.5 239.5,-511.5"/>
<text text-anchor="middle" x="267.5" y="-518.5" font-family="Helvetica,sans-Serif" font-size="10.00">uint64_t</text>
</a>
</g>
</g>
<!-- Node17&#45;&gt;Node16 -->
<g id="edge19" class="edge">
<title>Node17&#45;&gt;Node16</title>
<path fill="none" stroke="#9a32cd" stroke-dasharray="5,2" d="M305.67,-528.17C320.65,-530.89 338.1,-533.84 354,-536 465.45,-551.11 493.66,-553.77 606,-559 646.1,-560.87 691.18,-561.14 726.62,-560.93"/>
<polygon fill="#9a32cd" stroke="#9a32cd" points="306.22,-524.71 295.75,-526.34 304.95,-531.6 306.22,-524.71"/>
<text text-anchor="middle" x="523" y="-560" font-family="Helvetica,sans-Serif" font-size="10.00"> handle_id</text>
</g>
<!-- Node18 -->
<g id="node18" class="node">
<title>Node18</title>
<g id="a_node18"><a xlink:href="structst__osal__rcfg__mutex__config.html" target="_top" xlink:title=" ">
<polygon fill="white" stroke="black" points="467,-506 467,-536 579,-536 579,-506 467,-506"/>
<text text-anchor="start" x="475" y="-524" font-family="Helvetica,sans-Serif" font-size="10.00">st_osal_rcfg_mutex</text>
<text text-anchor="middle" x="523" y="-513" font-family="Helvetica,sans-Serif" font-size="10.00">_config</text>
</a>
</g>
</g>
<!-- Node17&#45;&gt;Node18 -->
<g id="edge21" class="edge">
<title>Node17&#45;&gt;Node18</title>
<path fill="none" stroke="#9a32cd" stroke-dasharray="5,2" d="M305.79,-521C348.2,-521 417.87,-521 466.62,-521"/>
<polygon fill="#9a32cd" stroke="#9a32cd" points="305.63,-517.5 295.63,-521 305.63,-524.5 305.63,-517.5"/>
<text text-anchor="middle" x="397" y="-524" font-family="Helvetica,sans-Serif" font-size="10.00"> id</text>
</g>
<!-- Node25 -->
<g id="node25" class="node">
<title>Node25</title>
<g id="a_node25"><a xlink:href="structst__osal__device__control.html" target="_top" xlink:title="control of device (Defined in OSAL Wrapper implementation files).">
<polygon fill="white" stroke="black" points="726.5,-329.5 726.5,-348.5 854.5,-348.5 854.5,-329.5 726.5,-329.5"/>
<text text-anchor="middle" x="790.5" y="-336.5" font-family="Helvetica,sans-Serif" font-size="10.00">st_osal_device_control</text>
</a>
</g>
</g>
<!-- Node17&#45;&gt;Node25 -->
<g id="edge32" class="edge">
<title>Node17&#45;&gt;Node25</title>
<path fill="none" stroke="#9a32cd" stroke-dasharray="5,2" d="M275.16,-501.67C294.09,-450.11 353.75,-309.61 458,-256 507.56,-230.51 663.16,-251.59 707,-286 720.45,-296.56 711.76,-309.18 725,-320 729.79,-323.92 735.36,-327.02 741.19,-329.49"/>
<polygon fill="#9a32cd" stroke="#9a32cd" points="271.8,-500.66 271.73,-511.26 278.39,-503.02 271.8,-500.66"/>
<text text-anchor="middle" x="523" y="-270" font-family="Helvetica,sans-Serif" font-size="10.00"> axi_bus_id</text>
<text text-anchor="middle" x="523" y="-259" font-family="Helvetica,sans-Serif" font-size="10.00">handle_id</text>
</g>
<!-- Node18&#45;&gt;Node16 -->
<g id="edge20" class="edge">
<title>Node18&#45;&gt;Node16</title>
<path fill="none" stroke="#9a32cd" stroke-dasharray="5,2" d="M589.11,-530.56C631.02,-536.72 685.19,-544.68 726.64,-550.77"/>
<polygon fill="#9a32cd" stroke="#9a32cd" points="589.41,-527.07 579.01,-529.08 588.4,-534 589.41,-527.07"/>
<text text-anchor="middle" x="656.5" y="-550" font-family="Helvetica,sans-Serif" font-size="10.00"> usr_config</text>
</g>
<!-- Node19 -->
<g id="node19" class="node">
<title>Node19</title>
<g id="a_node19"><a xlink:title=" ">
<polygon fill="white" stroke="#bfbfbf" points="498,-630.5 498,-649.5 548,-649.5 548,-630.5 498,-630.5"/>
<text text-anchor="middle" x="523" y="-637.5" font-family="Helvetica,sans-Serif" font-size="10.00">int64_t</text>
</a>
</g>
</g>
<!-- Node19&#45;&gt;Node15 -->
<g id="edge25" class="edge">
<title>Node19&#45;&gt;Node15</title>
<path fill="none" stroke="#9a32cd" stroke-dasharray="5,2" d="M558.41,-646.17C573.03,-648.5 590.3,-650.86 606,-652 650.77,-655.26 662.44,-657.43 707,-652 817.43,-638.54 943.33,-601.86 1009.07,-581.01"/>
<polygon fill="#9a32cd" stroke="#9a32cd" points="558.73,-642.68 548.3,-644.5 557.59,-649.58 558.73,-642.68"/>
<text text-anchor="middle" x="790.5" y="-652" font-family="Helvetica,sans-Serif" font-size="10.00"> mutex_wait_period</text>
</g>
<!-- Node19&#45;&gt;Node16 -->
<g id="edge22" class="edge">
<title>Node19&#45;&gt;Node16</title>
<path fill="none" stroke="#9a32cd" stroke-dasharray="5,2" d="M558.74,-640.8C596.47,-640.55 657.92,-636.82 707,-618 736.1,-606.84 764.62,-583.16 779.29,-569.76"/>
<polygon fill="#9a32cd" stroke="#9a32cd" points="558.3,-637.3 548.29,-640.78 558.29,-644.3 558.3,-637.3"/>
<text text-anchor="middle" x="656.5" y="-641" font-family="Helvetica,sans-Serif" font-size="10.00"> inner_timeout</text>
</g>
<!-- Node19&#45;&gt;Node25 -->
<g id="edge33" class="edge">
<title>Node19&#45;&gt;Node25</title>
<path fill="none" stroke="#9a32cd" stroke-dasharray="5,2" d="M555.74,-626.44C570.94,-619.95 589.41,-612.07 606,-605 650.88,-585.87 674.78,-598.64 707,-562 726.51,-539.81 715.43,-525.96 725,-498 744.78,-440.22 774.24,-373.02 785.19,-348.54"/>
<polygon fill="#9a32cd" stroke="#9a32cd" points="554.09,-623.34 546.27,-630.49 556.84,-629.78 554.09,-623.34"/>
<text text-anchor="middle" x="656.5" y="-608" font-family="Helvetica,sans-Serif" font-size="10.00"> inner_timeout</text>
</g>
<!-- Node20 -->
<g id="node20" class="node">
<title>Node20</title>
<g id="a_node20"><a xlink:title=" ">
<polygon fill="white" stroke="#bfbfbf" points="504,-451.5 504,-470.5 542,-470.5 542,-451.5 504,-451.5"/>
<text text-anchor="middle" x="523" y="-458.5" font-family="Helvetica,sans-Serif" font-size="10.00">bool</text>
</a>
</g>
</g>
<!-- Node20&#45;&gt;Node16 -->
<g id="edge23" class="edge">
<title>Node20&#45;&gt;Node16</title>
<path fill="none" stroke="#9a32cd" stroke-dasharray="5,2" d="M551.88,-467.43C601.52,-478.96 700.67,-502.38 707,-507 719.25,-515.95 713.26,-526.39 725,-536 732.58,-542.2 741.93,-546.9 751.12,-550.41"/>
<polygon fill="#9a32cd" stroke="#9a32cd" points="552.62,-464.01 542.09,-465.16 551.04,-470.83 552.62,-464.01"/>
<text text-anchor="middle" x="656.5" y="-521" font-family="Helvetica,sans-Serif" font-size="10.00"> active</text>
<text text-anchor="middle" x="656.5" y="-510" font-family="Helvetica,sans-Serif" font-size="10.00">use</text>
</g>
<!-- Node20&#45;&gt;Node25 -->
<g id="edge35" class="edge">
<title>Node20&#45;&gt;Node25</title>
<path fill="none" stroke="#9a32cd" stroke-dasharray="5,2" d="M544.73,-445.04C557.48,-435.01 574.01,-421.62 588,-409 596.4,-401.42 596.1,-396.47 606,-391 646.3,-368.74 662.77,-380.77 707,-368 726.69,-362.32 748.56,-354.56 764.83,-348.5"/>
<polygon fill="#9a32cd" stroke="#9a32cd" points="542.31,-442.49 536.58,-451.4 546.62,-448.01 542.31,-442.49"/>
<text text-anchor="middle" x="656.5" y="-427" font-family="Helvetica,sans-Serif" font-size="10.00"> active</text>
<text text-anchor="middle" x="656.5" y="-416" font-family="Helvetica,sans-Serif" font-size="10.00">init_state</text>
<text text-anchor="middle" x="656.5" y="-405" font-family="Helvetica,sans-Serif" font-size="10.00">pm_wait_state</text>
<text text-anchor="middle" x="656.5" y="-394" font-family="Helvetica,sans-Serif" font-size="10.00">use</text>
</g>
<!-- Node21 -->
<g id="node21" class="node">
<title>Node21</title>
<g id="a_node21"><a xlink:title=" ">
<polygon fill="white" stroke="#bfbfbf" points="465,-380.5 465,-399.5 581,-399.5 581,-380.5 465,-380.5"/>
<text text-anchor="middle" x="523" y="-387.5" font-family="Helvetica,sans-Serif" font-size="10.00">SemaphoreHandle_t</text>
</a>
</g>
</g>
<!-- Node21&#45;&gt;Node16 -->
<g id="edge24" class="edge">
<title>Node21&#45;&gt;Node16</title>
<path fill="none" stroke="#9a32cd" stroke-dasharray="5,2" d="M546.78,-405.07C562.75,-414.97 584.91,-427.45 606,-435 649,-450.4 674.22,-422.19 707,-454 733.78,-479.98 700.53,-507.83 725,-536 730.49,-542.31 737.79,-546.97 745.52,-550.4"/>
<polygon fill="#9a32cd" stroke="#9a32cd" points="548.47,-402 538.16,-399.59 544.72,-407.91 548.47,-402"/>
<text text-anchor="middle" x="656.5" y="-468" font-family="Helvetica,sans-Serif" font-size="10.00"> inner_mtx</text>
<text text-anchor="middle" x="656.5" y="-457" font-family="Helvetica,sans-Serif" font-size="10.00">mtx</text>
</g>
<!-- Node21&#45;&gt;Node25 -->
<g id="edge43" class="edge">
<title>Node21&#45;&gt;Node25</title>
<path fill="none" stroke="#9a32cd" stroke-dasharray="5,2" d="M552.85,-376.04C568.27,-369.19 587.78,-361.46 606,-357 645.33,-347.37 690.6,-342.86 726.33,-340.76"/>
<polygon fill="#9a32cd" stroke="#9a32cd" points="551,-373.04 543.36,-380.37 553.91,-379.4 551,-373.04"/>
<text text-anchor="middle" x="656.5" y="-360" font-family="Helvetica,sans-Serif" font-size="10.00"> inner_mtx</text>
</g>
<!-- Node22 -->
<g id="node22" class="node">
<title>Node22</title>
<g id="a_node22"><a xlink:href="structst__imrdrv__state__manage__area__t.html" target="_top" xlink:title=" ">
<polygon fill="white" stroke="black" points="986.5,-502 986.5,-532 1124.5,-532 1124.5,-502 986.5,-502"/>
<text text-anchor="start" x="994.5" y="-520" font-family="Helvetica,sans-Serif" font-size="10.00">st_imrdrv_state_manage</text>
<text text-anchor="middle" x="1055.5" y="-509" font-family="Helvetica,sans-Serif" font-size="10.00">_area_t</text>
</a>
</g>
</g>
<!-- Node22&#45;&gt;Node1 -->
<g id="edge26" class="edge">
<title>Node22&#45;&gt;Node1</title>
<path fill="none" stroke="#9a32cd" stroke-dasharray="5,2" d="M1134.91,-521.27C1168.26,-523.29 1207.55,-525.93 1243,-529 1248.74,-529.5 1254.7,-530.06 1260.68,-530.65"/>
<polygon fill="#9a32cd" stroke="#9a32cd" points="1134.95,-517.77 1124.76,-520.66 1134.54,-524.75 1134.95,-517.77"/>
<text text-anchor="middle" x="1193" y="-532" font-family="Helvetica,sans-Serif" font-size="10.00"> state_manage_area</text>
</g>
<!-- Node23 -->
<g id="node23" class="node">
<title>Node23</title>
<g id="a_node23"><a xlink:title=" ">
<polygon fill="white" stroke="#bfbfbf" points="741,-507.5 741,-526.5 840,-526.5 840,-507.5 741,-507.5"/>
<text text-anchor="middle" x="790.5" y="-514.5" font-family="Helvetica,sans-Serif" font-size="10.00">e_imrdrv_state_t</text>
</a>
</g>
</g>
<!-- Node23&#45;&gt;Node22 -->
<g id="edge27" class="edge">
<title>Node23&#45;&gt;Node22</title>
<path fill="none" stroke="#9a32cd" stroke-dasharray="5,2" d="M850.26,-517C890.58,-517 944.23,-517 986.42,-517"/>
<polygon fill="#9a32cd" stroke="#9a32cd" points="850.04,-513.5 840.04,-517 850.04,-520.5 850.04,-513.5"/>
<text text-anchor="middle" x="921" y="-520" font-family="Helvetica,sans-Serif" font-size="10.00"> state</text>
</g>
<!-- Node24 -->
<g id="node24" class="node">
<title>Node24</title>
<g id="a_node24"><a xlink:href="structst__imrdrv__osal__io__area__t.html" target="_top" xlink:title=" ">
<polygon fill="white" stroke="black" points="986,-463.5 986,-482.5 1125,-482.5 1125,-463.5 986,-463.5"/>
<text text-anchor="middle" x="1055.5" y="-470.5" font-family="Helvetica,sans-Serif" font-size="10.00">st_imrdrv_osal_io_area_t</text>
</a>
</g>
</g>
<!-- Node24&#45;&gt;Node1 -->
<g id="edge28" class="edge">
<title>Node24&#45;&gt;Node1</title>
<path fill="none" stroke="#9a32cd" stroke-dasharray="5,2" d="M1135.61,-483.51C1169.08,-488.85 1208.27,-496.29 1243,-506 1264.31,-511.96 1287.75,-521.34 1304.18,-528.4"/>
<polygon fill="#9a32cd" stroke="#9a32cd" points="1135.84,-480 1125.42,-481.92 1134.77,-486.92 1135.84,-480"/>
<text text-anchor="middle" x="1193" y="-509" font-family="Helvetica,sans-Serif" font-size="10.00"> osal_io_area</text>
</g>
<!-- Node25&#45;&gt;Node24 -->
<g id="edge29" class="edge">
<title>Node25&#45;&gt;Node24</title>
<path fill="none" stroke="#9a32cd" stroke-dasharray="5,2" d="M819.4,-353.22C873.24,-380.65 990.16,-440.22 1035.76,-463.45"/>
<polygon fill="#9a32cd" stroke="#9a32cd" points="820.91,-350.06 810.41,-348.64 817.74,-356.3 820.91,-350.06"/>
<text text-anchor="middle" x="921" y="-439" font-family="Helvetica,sans-Serif" font-size="10.00"> handler_func</text>
<text text-anchor="middle" x="921" y="-428" font-family="Helvetica,sans-Serif" font-size="10.00">io_handle</text>
</g>
<!-- Node26 -->
<g id="node26" class="node">
<title>Node26</title>
<g id="a_node26"><a xlink:title=" ">
<polygon fill="white" stroke="#bfbfbf" points="458,-191.5 458,-210.5 588,-210.5 588,-191.5 458,-191.5"/>
<text text-anchor="middle" x="523" y="-198.5" font-family="Helvetica,sans-Serif" font-size="10.00">enum e_osal_pm_state</text>
</a>
</g>
</g>
<!-- Node26&#45;&gt;Node25 -->
<g id="edge30" class="edge">
<title>Node26&#45;&gt;Node25</title>
<path fill="none" stroke="#9a32cd" stroke-dasharray="5,2" d="M589.34,-190.73C628.34,-188.48 676.12,-193.13 707,-222 739.35,-252.24 695.37,-287.09 725,-320 728.44,-323.82 732.6,-326.88 737.13,-329.34"/>
<polygon fill="#9a32cd" stroke="#9a32cd" points="588.83,-187.26 579.12,-191.48 589.35,-194.24 588.83,-187.26"/>
<text text-anchor="middle" x="656.5" y="-225" font-family="Helvetica,sans-Serif" font-size="10.00"> lowest_power_state</text>
</g>
<!-- Node27 -->
<g id="node27" class="node">
<title>Node27</title>
<g id="a_node27"><a xlink:title=" ">
<polygon fill="white" stroke="#bfbfbf" points="473,-325.5 473,-344.5 573,-344.5 573,-325.5 473,-325.5"/>
<text text-anchor="middle" x="523" y="-332.5" font-family="Helvetica,sans-Serif" font-size="10.00">st_pma_handle_t</text>
</a>
</g>
</g>
<!-- Node27&#45;&gt;Node25 -->
<g id="edge31" class="edge">
<title>Node27&#45;&gt;Node25</title>
<path fill="none" stroke="#9a32cd" stroke-dasharray="5,2" d="M583.25,-325.29C590.89,-324.34 598.62,-323.54 606,-323 650.77,-319.74 662.32,-318.71 707,-323 720.65,-324.31 735.4,-326.82 748.6,-329.46"/>
<polygon fill="#9a32cd" stroke="#9a32cd" points="582.76,-321.82 573.3,-326.6 583.68,-328.76 582.76,-321.82"/>
<text text-anchor="middle" x="656.5" y="-326" font-family="Helvetica,sans-Serif" font-size="10.00"> pma_handle</text>
</g>
<!-- Node28 -->
<g id="node28" class="node">
<title>Node28</title>
<g id="a_node28"><a xlink:title=" ">
<polygon fill="white" stroke="#bfbfbf" points="480,-287.5 480,-306.5 566,-306.5 566,-287.5 480,-287.5"/>
<text text-anchor="middle" x="523" y="-294.5" font-family="Helvetica,sans-Serif" font-size="10.00">base_mutex_t</text>
</a>
</g>
</g>
<!-- Node28&#45;&gt;Node25 -->
<g id="edge34" class="edge">
<title>Node28&#45;&gt;Node25</title>
<path fill="none" stroke="#9a32cd" stroke-dasharray="5,2" d="M576.48,-290.58C614.08,-288.04 665.25,-288.85 707,-305 716.71,-308.76 715.81,-315.09 725,-320 732.1,-323.8 740.07,-326.92 747.9,-329.47"/>
<polygon fill="#9a32cd" stroke="#9a32cd" points="575.95,-287.11 566.25,-291.38 576.49,-294.09 575.95,-287.11"/>
<text text-anchor="middle" x="656.5" y="-308" font-family="Helvetica,sans-Serif" font-size="10.00"> inner_mtx</text>
</g>
<!-- Node29 -->
<g id="node29" class="node">
<title>Node29</title>
<g id="a_node29"><a xlink:href="structst__osal__device__info.html" target="_top" xlink:title=" ">
<polygon fill="white" stroke="black" points="466.5,-110.5 466.5,-129.5 579.5,-129.5 579.5,-110.5 466.5,-110.5"/>
<text text-anchor="middle" x="523" y="-117.5" font-family="Helvetica,sans-Serif" font-size="10.00">st_osal_device_info</text>
</a>
</g>
</g>
<!-- Node29&#45;&gt;Node25 -->
<g id="edge36" class="edge">
<title>Node29&#45;&gt;Node25</title>
<path fill="none" stroke="#9a32cd" stroke-dasharray="5,2" d="M589.84,-122.85C629.79,-128.24 678.42,-142.01 707,-176 748.51,-225.37 683.24,-270.85 725,-320 728.25,-323.83 732.23,-326.9 736.6,-329.37"/>
<polygon fill="#9a32cd" stroke="#9a32cd" points="590.24,-119.38 579.89,-121.66 589.4,-126.33 590.24,-119.38"/>
<text text-anchor="middle" x="656.5" y="-179" font-family="Helvetica,sans-Serif" font-size="10.00"> dev_info</text>
</g>
<!-- Node30 -->
<g id="node30" class="node">
<title>Node30</title>
<g id="a_node30"><a xlink:title=" ">
<polygon fill="white" stroke="#bfbfbf" points="218.5,-211.5 218.5,-230.5 316.5,-230.5 316.5,-211.5 218.5,-211.5"/>
<text text-anchor="middle" x="267.5" y="-218.5" font-family="Helvetica,sans-Serif" font-size="10.00">e_pma_hwa_id_t</text>
</a>
</g>
</g>
<!-- Node30&#45;&gt;Node29 -->
<g id="edge37" class="edge">
<title>Node30&#45;&gt;Node29</title>
<path fill="none" stroke="#9a32cd" stroke-dasharray="5,2" d="M326.86,-220.05C361.24,-217.53 404.75,-210.82 440,-194 456.79,-185.99 495.22,-147.62 512.85,-129.51"/>
<polygon fill="#9a32cd" stroke="#9a32cd" points="326.27,-216.59 316.51,-220.71 326.71,-223.57 326.27,-216.59"/>
<text text-anchor="middle" x="397" y="-221" font-family="Helvetica,sans-Serif" font-size="10.00"> pm_id</text>
</g>
<!-- Node31 -->
<g id="node31" class="node">
<title>Node31</title>
<g id="a_node31"><a xlink:title=" ">
<polygon fill="white" stroke="#bfbfbf" points="248.5,-155.5 248.5,-174.5 286.5,-174.5 286.5,-155.5 248.5,-155.5"/>
<text text-anchor="middle" x="267.5" y="-162.5" font-family="Helvetica,sans-Serif" font-size="10.00">char</text>
</a>
</g>
</g>
<!-- Node31&#45;&gt;Node29 -->
<g id="edge38" class="edge">
<title>Node31&#45;&gt;Node29</title>
<path fill="none" stroke="#9a32cd" stroke-dasharray="5,2" d="M296.85,-162.64C331.02,-159.5 390.1,-153.14 440,-143 457.39,-139.47 476.49,-134.19 491.88,-129.58"/>
<polygon fill="#9a32cd" stroke="#9a32cd" points="296.32,-159.17 286.67,-163.55 296.94,-166.15 296.32,-159.17"/>
<text text-anchor="middle" x="397" y="-182" font-family="Helvetica,sans-Serif" font-size="10.00"> axi_bus_name</text>
<text text-anchor="middle" x="397" y="-171" font-family="Helvetica,sans-Serif" font-size="10.00">id</text>
<text text-anchor="middle" x="397" y="-160" font-family="Helvetica,sans-Serif" font-size="10.00">type</text>
</g>
<!-- Node32 -->
<g id="node32" class="node">
<title>Node32</title>
<g id="a_node32"><a xlink:title=" ">
<polygon fill="white" stroke="#bfbfbf" points="245,-114.5 245,-133.5 290,-133.5 290,-114.5 245,-114.5"/>
<text text-anchor="middle" x="267.5" y="-121.5" font-family="Helvetica,sans-Serif" font-size="10.00">size_t</text>
</a>
</g>
</g>
<!-- Node32&#45;&gt;Node29 -->
<g id="edge39" class="edge">
<title>Node32&#45;&gt;Node29</title>
<path fill="none" stroke="#9a32cd" stroke-dasharray="5,2" d="M300.72,-122.65C316.74,-122.03 336.38,-121.36 354,-121 391.47,-120.23 433.65,-119.98 466.38,-119.92"/>
<polygon fill="#9a32cd" stroke="#9a32cd" points="300.14,-119.17 290.28,-123.06 300.41,-126.16 300.14,-119.17"/>
<text text-anchor="middle" x="397" y="-135" font-family="Helvetica,sans-Serif" font-size="10.00"> irq_channels</text>
<text text-anchor="middle" x="397" y="-124" font-family="Helvetica,sans-Serif" font-size="10.00">range</text>
</g>
<!-- Node33 -->
<g id="node33" class="node">
<title>Node33</title>
<g id="a_node33"><a xlink:title=" ">
<polygon fill="white" stroke="#bfbfbf" points="200.5,-76.5 200.5,-95.5 334.5,-95.5 334.5,-76.5 200.5,-76.5"/>
<text text-anchor="middle" x="267.5" y="-83.5" font-family="Helvetica,sans-Serif" font-size="10.00">enum e_osal_pm_policy</text>
</a>
</g>
</g>
<!-- Node33&#45;&gt;Node29 -->
<g id="edge40" class="edge">
<title>Node33&#45;&gt;Node29</title>
<path fill="none" stroke="#9a32cd" stroke-dasharray="5,2" d="M344.88,-94.03C374.62,-97.39 408.95,-101.54 440,-106 449.29,-107.33 459.15,-108.89 468.69,-110.48"/>
<polygon fill="#9a32cd" stroke="#9a32cd" points="344.9,-90.51 334.57,-92.88 344.12,-97.47 344.9,-90.51"/>
<text text-anchor="middle" x="397" y="-109" font-family="Helvetica,sans-Serif" font-size="10.00"> initial_policy</text>
</g>
<!-- Node34 -->
<g id="node34" class="node">
<title>Node34</title>
<g id="a_node34"><a xlink:href="structst__osal__interrupt__info__t.html" target="_top" xlink:title=" ">
<polygon fill="white" stroke="black" points="202,-38.5 202,-57.5 333,-57.5 333,-38.5 202,-38.5"/>
<text text-anchor="middle" x="267.5" y="-45.5" font-family="Helvetica,sans-Serif" font-size="10.00">st_osal_interrupt_info_t</text>
</a>
</g>
</g>
<!-- Node34&#45;&gt;Node29 -->
<g id="edge41" class="edge">
<title>Node34&#45;&gt;Node29</title>
<path fill="none" stroke="#9a32cd" stroke-dasharray="5,2" d="M343.15,-58.13C373.62,-63.35 408.94,-70.81 440,-81 463.52,-88.72 489.03,-101.64 505.25,-110.48"/>
<polygon fill="#9a32cd" stroke="#9a32cd" points="343.45,-54.63 333.01,-56.44 342.3,-61.53 343.45,-54.63"/>
<text text-anchor="middle" x="397" y="-84" font-family="Helvetica,sans-Serif" font-size="10.00"> interrupt</text>
</g>
<!-- Node35 -->
<g id="node35" class="node">
<title>Node35</title>
<g id="a_node35"><a xlink:title=" ">
<polygon fill="white" stroke="#bfbfbf" points="238.5,-0.5 238.5,-19.5 296.5,-19.5 296.5,-0.5 238.5,-0.5"/>
<text text-anchor="middle" x="267.5" y="-7.5" font-family="Helvetica,sans-Serif" font-size="10.00">uintptr_t</text>
</a>
</g>
</g>
<!-- Node35&#45;&gt;Node29 -->
<g id="edge42" class="edge">
<title>Node35&#45;&gt;Node29</title>
<path fill="none" stroke="#9a32cd" stroke-dasharray="5,2" d="M306.82,-12.3C342.88,-15.76 397.55,-24.41 440,-46 471.96,-62.26 500.98,-94.25 514.31,-110.31"/>
<polygon fill="#9a32cd" stroke="#9a32cd" points="306.98,-8.8 296.71,-11.42 306.37,-15.78 306.98,-8.8"/>
<text text-anchor="middle" x="397" y="-49" font-family="Helvetica,sans-Serif" font-size="10.00"> address</text>
</g>
<!-- Node36 -->
<g id="node36" class="node">
<title>Node36</title>
<g id="a_node36"><a xlink:href="structst__imrdrv__basic__api__area__t.html" target="_top" xlink:title=" ">
<polygon fill="white" stroke="black" points="998.5,-286 998.5,-316 1112.5,-316 1112.5,-286 998.5,-286"/>
<text text-anchor="start" x="1006.5" y="-304" font-family="Helvetica,sans-Serif" font-size="10.00">st_imrdrv_basic_api</text>
<text text-anchor="middle" x="1055.5" y="-293" font-family="Helvetica,sans-Serif" font-size="10.00">_area_t</text>
</a>
</g>
</g>
<!-- Node36&#45;&gt;Node1 -->
<g id="edge44" class="edge">
<title>Node36&#45;&gt;Node1</title>
<path fill="none" stroke="#9a32cd" stroke-dasharray="5,2" d="M1081.52,-323.04C1138.35,-373.11 1275.28,-493.76 1314.71,-528.49"/>
<polygon fill="#9a32cd" stroke="#9a32cd" points="1083.55,-320.17 1073.74,-316.19 1078.93,-325.42 1083.55,-320.17"/>
<text text-anchor="middle" x="1193" y="-464" font-family="Helvetica,sans-Serif" font-size="10.00"> basic_api_area</text>
</g>
<!-- Node37 -->
<g id="node37" class="node">
<title>Node37</title>
<g id="a_node37"><a xlink:title=" ">
<polygon fill="white" stroke="#bfbfbf" points="765.5,-291.5 765.5,-310.5 815.5,-310.5 815.5,-291.5 765.5,-291.5"/>
<text text-anchor="middle" x="790.5" y="-298.5" font-family="Helvetica,sans-Serif" font-size="10.00">int32_t</text>
</a>
</g>
</g>
<!-- Node37&#45;&gt;Node36 -->
<g id="edge45" class="edge">
<title>Node37&#45;&gt;Node36</title>
<path fill="none" stroke="#9a32cd" stroke-dasharray="5,2" d="M825.91,-301C869.71,-301 945.94,-301 998.24,-301"/>
<polygon fill="#9a32cd" stroke="#9a32cd" points="825.77,-297.5 815.77,-301 825.77,-304.5 825.77,-297.5"/>
<text text-anchor="middle" x="921" y="-304" font-family="Helvetica,sans-Serif" font-size="10.00"> callback_func_app</text>
</g>
<!-- Node38 -->
<g id="node38" class="node">
<title>Node38</title>
<g id="a_node38"><a xlink:title=" ">
<polygon fill="white" stroke="#bfbfbf" points="767.5,-253.5 767.5,-272.5 813.5,-272.5 813.5,-253.5 767.5,-253.5"/>
<text text-anchor="middle" x="790.5" y="-260.5" font-family="Helvetica,sans-Serif" font-size="10.00">void *</text>
</a>
</g>
</g>
<!-- Node38&#45;&gt;Node36 -->
<g id="edge46" class="edge">
<title>Node38&#45;&gt;Node36</title>
<path fill="none" stroke="#9a32cd" stroke-dasharray="5,2" d="M823.77,-266.79C859.21,-271.05 917.75,-278.37 968,-286 977.79,-287.49 988.19,-289.19 998.25,-290.89"/>
<polygon fill="#9a32cd" stroke="#9a32cd" points="823.9,-263.28 813.55,-265.57 823.07,-270.23 823.9,-263.28"/>
<text text-anchor="middle" x="921" y="-289" font-family="Helvetica,sans-Serif" font-size="10.00"> p_callback_arg</text>
</g>
</g>
</svg>
