<?xml version="1.0" encoding="UTF-8" standalone="no"?>
<!DOCTYPE svg PUBLIC "-//W3C//DTD SVG 1.1//EN"
 "http://www.w3.org/Graphics/SVG/1.1/DTD/svg11.dtd">
<!-- Generated by graphviz version 2.43.0 (0)
 -->
<!-- Title: r_wm_Msg_Event_t Pages: 1 -->
<svg width="245pt" height="106pt"
 viewBox="0.00 0.00 244.50 106.00" xmlns="http://www.w3.org/2000/svg" xmlns:xlink="http://www.w3.org/1999/xlink">
<g id="graph0" class="graph" transform="scale(1 1) rotate(0) translate(4 102)">
<title>r_wm_Msg_Event_t</title>
<polygon fill="white" stroke="transparent" points="-4,4 -4,-102 240.5,-102 240.5,4 -4,4"/>
<!-- Node1 -->
<g id="node1" class="node">
<title>Node1</title>
<g id="a_node1"><a xlink:title=" ">
<polygon fill="#bfbfbf" stroke="black" points="86,-0.5 86,-19.5 197,-19.5 197,-0.5 86,-0.5"/>
<text text-anchor="middle" x="141.5" y="-7.5" font-family="Helvetica,sans-Serif" font-size="10.00">r_wm_Msg_Event_t</text>
</a>
</g>
</g>
<!-- Node2 -->
<g id="node2" class="node">
<title>Node2</title>
<g id="a_node2"><a xlink:title=" ">
<polygon fill="white" stroke="#bfbfbf" points="0,-78.5 0,-97.5 95,-97.5 95,-78.5 0,-78.5"/>
<text text-anchor="middle" x="47.5" y="-85.5" font-family="Helvetica,sans-Serif" font-size="10.00">r_wm_EventId_t</text>
</a>
</g>
</g>
<!-- Node2&#45;&gt;Node1 -->
<g id="edge1" class="edge">
<title>Node2&#45;&gt;Node1</title>
<path fill="none" stroke="#9a32cd" stroke-dasharray="5,2" d="M66.13,-71.94C85.49,-56.28 115.12,-32.33 130.84,-19.62"/>
<polygon fill="#9a32cd" stroke="#9a32cd" points="63.86,-69.27 58.28,-78.28 68.26,-74.72 63.86,-69.27"/>
<text text-anchor="middle" x="119" y="-46.5" font-family="Helvetica,sans-Serif" font-size="10.00"> EvId</text>
</g>
<!-- Node3 -->
<g id="node3" class="node">
<title>Node3</title>
<g id="a_node3"><a xlink:title=" ">
<polygon fill="white" stroke="#bfbfbf" points="113.5,-78.5 113.5,-97.5 169.5,-97.5 169.5,-78.5 113.5,-78.5"/>
<text text-anchor="middle" x="141.5" y="-85.5" font-family="Helvetica,sans-Serif" font-size="10.00">uint32_t</text>
</a>
</g>
</g>
<!-- Node3&#45;&gt;Node1 -->
<g id="edge2" class="edge">
<title>Node3&#45;&gt;Node1</title>
<path fill="none" stroke="#9a32cd" stroke-dasharray="5,2" d="M141.5,-68.22C141.5,-52.7 141.5,-31.36 141.5,-19.62"/>
<polygon fill="#9a32cd" stroke="#9a32cd" points="138,-68.28 141.5,-78.28 145,-68.28 138,-68.28"/>
<text text-anchor="middle" x="151.5" y="-52" font-family="Helvetica,sans-Serif" font-size="10.00"> Arg</text>
<text text-anchor="middle" x="151.5" y="-41" font-family="Helvetica,sans-Serif" font-size="10.00">Pid</text>
</g>
<!-- Node4 -->
<g id="node4" class="node">
<title>Node4</title>
<g id="a_node4"><a xlink:title=" ">
<polygon fill="white" stroke="#bfbfbf" points="187.5,-78.5 187.5,-97.5 233.5,-97.5 233.5,-78.5 187.5,-78.5"/>
<text text-anchor="middle" x="210.5" y="-85.5" font-family="Helvetica,sans-Serif" font-size="10.00">void *</text>
</a>
</g>
</g>
<!-- Node4&#45;&gt;Node1 -->
<g id="edge3" class="edge">
<title>Node4&#45;&gt;Node1</title>
<path fill="none" stroke="#9a32cd" stroke-dasharray="5,2" d="M195.86,-70.88C181.64,-55.22 160.6,-32.04 149.32,-19.62"/>
<polygon fill="#9a32cd" stroke="#9a32cd" points="193.27,-73.23 202.58,-78.28 198.45,-68.53 193.27,-73.23"/>
<text text-anchor="middle" x="210" y="-46.5" font-family="Helvetica,sans-Serif" font-size="10.00"> MqHandle</text>
</g>
</g>
</svg>
