<?xml version="1.0" encoding="UTF-8" standalone="no"?>
<!DOCTYPE svg PUBLIC "-//W3C//DTD SVG 1.1//EN"
 "http://www.w3.org/Graphics/SVG/1.1/DTD/svg11.dtd">
<!-- Generated by graphviz version 2.43.0 (0)
 -->
<!-- Title: r_vsp2_Conf_t Pages: 1 -->
<svg width="155pt" height="272pt"
 viewBox="0.00 0.00 155.00 272.00" xmlns="http://www.w3.org/2000/svg" xmlns:xlink="http://www.w3.org/1999/xlink">
<g id="graph0" class="graph" transform="scale(1 1) rotate(0) translate(4 268)">
<title>r_vsp2_Conf_t</title>
<polygon fill="white" stroke="transparent" points="-4,4 -4,-268 151,-268 151,4 -4,4"/>
<!-- Node1 -->
<g id="node1" class="node">
<title>Node1</title>
<g id="a_node1"><a xlink:title="VSP2 configuration information.">
<polygon fill="#bfbfbf" stroke="black" points="14,-0.5 14,-19.5 100,-19.5 100,-0.5 14,-0.5"/>
<text text-anchor="middle" x="57" y="-7.5" font-family="Helvetica,sans-Serif" font-size="10.00">r_vsp2_Conf_t</text>
</a>
</g>
</g>
<!-- Node2 -->
<g id="node2" class="node">
<title>Node2</title>
<g id="a_node2"><a xlink:href="structr__vsp2__Dpr__Conf__t.html" target="_top" xlink:title="VSP2 DPR configuration information.">
<polygon fill="white" stroke="black" points="3,-67.5 3,-86.5 111,-86.5 111,-67.5 3,-67.5"/>
<text text-anchor="middle" x="57" y="-74.5" font-family="Helvetica,sans-Serif" font-size="10.00">r_vsp2_Dpr_Conf_t</text>
</a>
</g>
</g>
<!-- Node2&#45;&gt;Node1 -->
<g id="edge1" class="edge">
<title>Node2&#45;&gt;Node1</title>
<path fill="none" stroke="#9a32cd" stroke-dasharray="5,2" d="M57,-57.04C57,-44.67 57,-29.12 57,-19.63"/>
<polygon fill="#9a32cd" stroke="#9a32cd" points="53.5,-57.23 57,-67.23 60.5,-57.23 53.5,-57.23"/>
<text text-anchor="middle" x="81.5" y="-41" font-family="Helvetica,sans-Serif" font-size="10.00"> Dpr_Conf</text>
</g>
<!-- Node3 -->
<g id="node3" class="node">
<title>Node3</title>
<g id="a_node3"><a xlink:title=" ">
<polygon fill="white" stroke="#bfbfbf" points="0,-244.5 0,-263.5 114,-263.5 114,-244.5 0,-244.5"/>
<text text-anchor="middle" x="57" y="-251.5" font-family="Helvetica,sans-Serif" font-size="10.00">r_vsp2_Dpr_Route_t</text>
</a>
</g>
</g>
<!-- Node3&#45;&gt;Node2 -->
<g id="edge2" class="edge">
<title>Node3&#45;&gt;Node2</title>
<path fill="none" stroke="#9a32cd" stroke-dasharray="5,2" d="M57,-233.95C57,-196.3 57,-113.65 57,-86.69"/>
<polygon fill="#9a32cd" stroke="#9a32cd" points="53.5,-234.08 57,-244.08 60.5,-234.08 53.5,-234.08"/>
<text text-anchor="middle" x="102" y="-218" font-family="Helvetica,sans-Serif" font-size="10.00"> Dpr_Bru_Route</text>
<text text-anchor="middle" x="102" y="-207" font-family="Helvetica,sans-Serif" font-size="10.00">Dpr_Clu_Route</text>
<text text-anchor="middle" x="102" y="-196" font-family="Helvetica,sans-Serif" font-size="10.00">Dpr_Hsi_Route</text>
<text text-anchor="middle" x="102" y="-185" font-family="Helvetica,sans-Serif" font-size="10.00">Dpr_Hst_Route</text>
<text text-anchor="middle" x="102" y="-174" font-family="Helvetica,sans-Serif" font-size="10.00">Dpr_Ilv_Brs_Route</text>
<text text-anchor="middle" x="102" y="-163" font-family="Helvetica,sans-Serif" font-size="10.00">Dpr_Lut_Route</text>
<text text-anchor="middle" x="102" y="-152" font-family="Helvetica,sans-Serif" font-size="10.00">Dpr_Rpf0_Route</text>
<text text-anchor="middle" x="102" y="-141" font-family="Helvetica,sans-Serif" font-size="10.00">Dpr_Rpf1_Route</text>
<text text-anchor="middle" x="102" y="-130" font-family="Helvetica,sans-Serif" font-size="10.00">Dpr_Rpf2_Route</text>
<text text-anchor="middle" x="102" y="-119" font-family="Helvetica,sans-Serif" font-size="10.00">Dpr_Rpf3_Route</text>
<text text-anchor="middle" x="102" y="-108" font-family="Helvetica,sans-Serif" font-size="10.00">...</text>
</g>
</g>
</svg>
