<?xml version="1.0" encoding="UTF-8" standalone="no"?>
<!DOCTYPE svg PUBLIC "-//W3C//DTD SVG 1.1//EN"
 "http://www.w3.org/Graphics/SVG/1.1/DTD/svg11.dtd">
<!-- Generated by graphviz version 2.43.0 (0)
 -->
<!-- Title: Cio_MqHandle_t Pages: 1 -->
<svg width="913pt" height="335pt"
 viewBox="0.00 0.00 913.00 335.00" xmlns="http://www.w3.org/2000/svg" xmlns:xlink="http://www.w3.org/1999/xlink">
<g id="graph0" class="graph" transform="scale(1 1) rotate(0) translate(4 331)">
<title>Cio_MqHandle_t</title>
<polygon fill="white" stroke="transparent" points="-4,4 -4,-331 909,-331 909,4 -4,4"/>
<!-- Node1 -->
<g id="node1" class="node">
<title>Node1</title>
<g id="a_node1"><a xlink:title=" ">
<polygon fill="#bfbfbf" stroke="black" points="809,-239.5 809,-258.5 905,-258.5 905,-239.5 809,-239.5"/>
<text text-anchor="middle" x="857" y="-246.5" font-family="Helvetica,sans-Serif" font-size="10.00">Cio_MqHandle_t</text>
</a>
</g>
</g>
<!-- Node2 -->
<g id="node2" class="node">
<title>Node2</title>
<g id="a_node2"><a xlink:title=" ">
<polygon fill="white" stroke="#bfbfbf" points="411.5,-307.5 411.5,-326.5 449.5,-326.5 449.5,-307.5 411.5,-307.5"/>
<text text-anchor="middle" x="430.5" y="-314.5" font-family="Helvetica,sans-Serif" font-size="10.00">char</text>
</a>
</g>
</g>
<!-- Node2&#45;&gt;Node1 -->
<g id="edge1" class="edge">
<title>Node2&#45;&gt;Node1</title>
<path fill="none" stroke="#9a32cd" stroke-dasharray="5,2" d="M459.78,-318.01C490.86,-318.72 542.21,-318.7 586,-313 674.14,-301.54 775.48,-273.36 825.21,-258.51"/>
<polygon fill="#9a32cd" stroke="#9a32cd" points="459.76,-314.51 449.67,-317.74 459.57,-321.51 459.76,-314.51"/>
<text text-anchor="middle" x="659.5" y="-313" font-family="Helvetica,sans-Serif" font-size="10.00"> Name</text>
</g>
<!-- Node3 -->
<g id="node3" class="node">
<title>Node3</title>
<g id="a_node3"><a xlink:href="structst__osal__mq__control.html" target="_top" xlink:title="control of message queue (Defined in OSAL Wrapper implementation files).">
<polygon fill="white" stroke="black" points="604,-160.5 604,-179.5 715,-179.5 715,-160.5 604,-160.5"/>
<text text-anchor="middle" x="659.5" y="-167.5" font-family="Helvetica,sans-Serif" font-size="10.00">st_osal_mq_control</text>
</a>
</g>
</g>
<!-- Node2&#45;&gt;Node3 -->
<g id="edge8" class="edge">
<title>Node2&#45;&gt;Node3</title>
<path fill="none" stroke="#9a32cd" stroke-dasharray="5,2" d="M459.51,-311.26C501.16,-302.56 575.66,-286.27 586,-279 623.19,-252.87 646.52,-201.04 654.95,-179.61"/>
<polygon fill="#9a32cd" stroke="#9a32cd" points="458.76,-307.84 449.68,-313.3 460.19,-314.7 458.76,-307.84"/>
<text text-anchor="middle" x="550" y="-301" font-family="Helvetica,sans-Serif" font-size="10.00"> buffer</text>
</g>
<!-- Node3&#45;&gt;Node1 -->
<g id="edge2" class="edge">
<title>Node3&#45;&gt;Node1</title>
<path fill="none" stroke="#9a32cd" stroke-dasharray="5,2" d="M693.5,-183.34C732.86,-199.24 797.65,-225.42 832.33,-239.44"/>
<polygon fill="#9a32cd" stroke="#9a32cd" points="694.66,-180.03 684.08,-179.53 692.04,-186.52 694.66,-180.03"/>
<text text-anchor="middle" x="762" y="-224" font-family="Helvetica,sans-Serif" font-size="10.00"> mq_handle</text>
</g>
<!-- Node4 -->
<g id="node4" class="node">
<title>Node4</title>
<g id="a_node4"><a xlink:href="structst__osal__rcfg__mq__config.html" target="_top" xlink:title=" ">
<polygon fill="white" stroke="black" points="365,-199.5 365,-218.5 496,-218.5 496,-199.5 365,-199.5"/>
<text text-anchor="middle" x="430.5" y="-206.5" font-family="Helvetica,sans-Serif" font-size="10.00">st_osal_rcfg_mq_config</text>
</a>
</g>
</g>
<!-- Node4&#45;&gt;Node3 -->
<g id="edge3" class="edge">
<title>Node4&#45;&gt;Node3</title>
<path fill="none" stroke="#9a32cd" stroke-dasharray="5,2" d="M503.39,-197.83C529.44,-193.66 559.07,-188.78 586,-184 593.83,-182.61 602.11,-181.07 610.18,-179.54"/>
<polygon fill="#9a32cd" stroke="#9a32cd" points="502.55,-194.42 493.22,-199.45 503.65,-201.33 502.55,-194.42"/>
<text text-anchor="middle" x="550" y="-199" font-family="Helvetica,sans-Serif" font-size="10.00"> usr_config</text>
</g>
<!-- Node5 -->
<g id="node5" class="node">
<title>Node5</title>
<g id="a_node5"><a xlink:title=" ">
<polygon fill="white" stroke="#bfbfbf" points="0,-219.5 0,-238.5 56,-238.5 56,-219.5 0,-219.5"/>
<text text-anchor="middle" x="28" y="-226.5" font-family="Helvetica,sans-Serif" font-size="10.00">uint64_t</text>
</a>
</g>
</g>
<!-- Node5&#45;&gt;Node3 -->
<g id="edge7" class="edge">
<title>Node5&#45;&gt;Node3</title>
<path fill="none" stroke="#9a32cd" stroke-dasharray="5,2" d="M66.36,-237.05C68.94,-237.43 71.5,-237.75 74,-238 108.94,-241.46 117.89,-238.28 153,-238 305.5,-236.78 344.44,-245 496,-228 536.45,-223.46 547.77,-224.98 586,-211 607.73,-203.05 630.62,-189.02 644.73,-179.62"/>
<polygon fill="#9a32cd" stroke="#9a32cd" points="66.92,-233.6 56.48,-235.39 65.76,-240.5 66.92,-233.6"/>
<text text-anchor="middle" x="321.5" y="-241" font-family="Helvetica,sans-Serif" font-size="10.00"> handle_id</text>
</g>
<!-- Node5&#45;&gt;Node4 -->
<g id="edge4" class="edge">
<title>Node5&#45;&gt;Node4</title>
<path fill="none" stroke="#9a32cd" stroke-dasharray="5,2" d="M66.49,-227.13C134.81,-223.72 280.28,-216.45 364.86,-212.23"/>
<polygon fill="#9a32cd" stroke="#9a32cd" points="66.03,-223.65 56.21,-227.64 66.38,-230.64 66.03,-223.65"/>
<text text-anchor="middle" x="224.5" y="-224" font-family="Helvetica,sans-Serif" font-size="10.00"> id</text>
</g>
<!-- Node6 -->
<g id="node6" class="node">
<title>Node6</title>
<g id="a_node6"><a xlink:href="structst__osal__mq__config.html" target="_top" xlink:title="configuration of message queue.">
<polygon fill="white" stroke="black" points="171,-173.5 171,-192.5 278,-192.5 278,-173.5 171,-173.5"/>
<text text-anchor="middle" x="224.5" y="-180.5" font-family="Helvetica,sans-Serif" font-size="10.00">st_osal_mq_config</text>
</a>
</g>
</g>
<!-- Node5&#45;&gt;Node6 -->
<g id="edge6" class="edge">
<title>Node5&#45;&gt;Node6</title>
<path fill="none" stroke="#9a32cd" stroke-dasharray="5,2" d="M44.99,-212.21C52.97,-204.96 63.2,-197.2 74,-193 104.67,-181.08 141.53,-178.5 170.98,-178.93"/>
<polygon fill="#9a32cd" stroke="#9a32cd" points="42.32,-209.93 37.58,-219.4 47.19,-214.95 42.32,-209.93"/>
<text text-anchor="middle" x="113.5" y="-207" font-family="Helvetica,sans-Serif" font-size="10.00"> max_num_msg</text>
<text text-anchor="middle" x="113.5" y="-196" font-family="Helvetica,sans-Serif" font-size="10.00">msg_size</text>
</g>
<!-- Node6&#45;&gt;Node3 -->
<g id="edge11" class="edge">
<title>Node6&#45;&gt;Node3</title>
<path fill="none" stroke="#9a32cd" stroke-dasharray="5,2" d="M288.18,-181.12C373.09,-178.57 523.27,-174.06 603.82,-171.64"/>
<polygon fill="#9a32cd" stroke="#9a32cd" points="288.05,-177.62 278.16,-181.42 288.26,-184.62 288.05,-177.62"/>
<text text-anchor="middle" x="430.5" y="-181" font-family="Helvetica,sans-Serif" font-size="10.00"> config</text>
</g>
<!-- Node6&#45;&gt;Node4 -->
<g id="edge5" class="edge">
<title>Node6&#45;&gt;Node4</title>
<path fill="none" stroke="#9a32cd" stroke-dasharray="5,2" d="M288.21,-190.99C312.49,-194.09 340.27,-197.63 364.74,-200.75"/>
<polygon fill="#9a32cd" stroke="#9a32cd" points="288.4,-187.49 278.04,-189.7 287.51,-194.43 288.4,-187.49"/>
<text text-anchor="middle" x="321.5" y="-201" font-family="Helvetica,sans-Serif" font-size="10.00"> config</text>
</g>
<!-- Node7 -->
<g id="node7" class="node">
<title>Node7</title>
<g id="a_node7"><a xlink:title=" ">
<polygon fill="white" stroke="#bfbfbf" points="405.5,-114.5 405.5,-133.5 455.5,-133.5 455.5,-114.5 405.5,-114.5"/>
<text text-anchor="middle" x="430.5" y="-121.5" font-family="Helvetica,sans-Serif" font-size="10.00">int64_t</text>
</a>
</g>
</g>
<!-- Node7&#45;&gt;Node3 -->
<g id="edge9" class="edge">
<title>Node7&#45;&gt;Node3</title>
<path fill="none" stroke="#9a32cd" stroke-dasharray="5,2" d="M465.62,-126.69C497.17,-129.64 545.19,-135.29 586,-145 602.58,-148.94 620.7,-155.19 634.68,-160.46"/>
<polygon fill="#9a32cd" stroke="#9a32cd" points="465.86,-123.2 455.59,-125.8 465.24,-130.17 465.86,-123.2"/>
<text text-anchor="middle" x="550" y="-148" font-family="Helvetica,sans-Serif" font-size="10.00"> inner_timeout</text>
</g>
<!-- Node8 -->
<g id="node8" class="node">
<title>Node8</title>
<g id="a_node8"><a xlink:title=" ">
<polygon fill="white" stroke="#bfbfbf" points="411.5,-76.5 411.5,-95.5 449.5,-95.5 449.5,-76.5 411.5,-76.5"/>
<text text-anchor="middle" x="430.5" y="-83.5" font-family="Helvetica,sans-Serif" font-size="10.00">bool</text>
</a>
</g>
</g>
<!-- Node8&#45;&gt;Node3 -->
<g id="edge10" class="edge">
<title>Node8&#45;&gt;Node3</title>
<path fill="none" stroke="#9a32cd" stroke-dasharray="5,2" d="M459.68,-82C491.81,-78.73 545.17,-77.27 586,-96 616.9,-110.17 641.69,-143.75 652.55,-160.36"/>
<polygon fill="#9a32cd" stroke="#9a32cd" points="459.18,-78.54 449.65,-83.16 459.98,-85.49 459.18,-78.54"/>
<text text-anchor="middle" x="550" y="-121" font-family="Helvetica,sans-Serif" font-size="10.00"> active</text>
<text text-anchor="middle" x="550" y="-110" font-family="Helvetica,sans-Serif" font-size="10.00">receive_wait</text>
<text text-anchor="middle" x="550" y="-99" font-family="Helvetica,sans-Serif" font-size="10.00">send_wait</text>
</g>
<!-- Node9 -->
<g id="node9" class="node">
<title>Node9</title>
<g id="a_node9"><a xlink:title=" ">
<polygon fill="white" stroke="#bfbfbf" points="384.5,-38.5 384.5,-57.5 476.5,-57.5 476.5,-38.5 384.5,-38.5"/>
<text text-anchor="middle" x="430.5" y="-45.5" font-family="Helvetica,sans-Serif" font-size="10.00">QueueHandle_t</text>
</a>
</g>
</g>
<!-- Node9&#45;&gt;Node3 -->
<g id="edge12" class="edge">
<title>Node9&#45;&gt;Node3</title>
<path fill="none" stroke="#9a32cd" stroke-dasharray="5,2" d="M486.81,-43.69C517.96,-43.79 556.43,-48.32 586,-66 623.78,-88.59 646.78,-139.36 655.03,-160.49"/>
<polygon fill="#9a32cd" stroke="#9a32cd" points="486.5,-40.2 476.55,-43.82 486.59,-47.2 486.5,-40.2"/>
<text text-anchor="middle" x="550" y="-69" font-family="Helvetica,sans-Serif" font-size="10.00"> mqd</text>
</g>
<!-- Node10 -->
<g id="node10" class="node">
<title>Node10</title>
<g id="a_node10"><a xlink:title=" ">
<polygon fill="white" stroke="#bfbfbf" points="372.5,-0.5 372.5,-19.5 488.5,-19.5 488.5,-0.5 372.5,-0.5"/>
<text text-anchor="middle" x="430.5" y="-7.5" font-family="Helvetica,sans-Serif" font-size="10.00">SemaphoreHandle_t</text>
</a>
</g>
</g>
<!-- Node10&#45;&gt;Node3 -->
<g id="edge13" class="edge">
<title>Node10&#45;&gt;Node3</title>
<path fill="none" stroke="#9a32cd" stroke-dasharray="5,2" d="M498.71,-5.34C527.84,-6.5 560.93,-12.45 586,-30 632.41,-62.5 651.17,-133.98 656.65,-160.15"/>
<polygon fill="#9a32cd" stroke="#9a32cd" points="498.67,-1.83 488.59,-5.11 498.51,-8.83 498.67,-1.83"/>
<text text-anchor="middle" x="550" y="-33" font-family="Helvetica,sans-Serif" font-size="10.00"> inner_mtx</text>
</g>
</g>
</svg>
