<?xml version="1.0" encoding="UTF-8" standalone="no"?>
<!DOCTYPE svg PUBLIC "-//W3C//DTD SVG 1.1//EN"
 "http://www.w3.org/Graphics/SVG/1.1/DTD/svg11.dtd">
<!-- Generated by graphviz version 2.43.0 (0)
 -->
<!-- Title: r_cio_ether_set_correction_time Pages: 1 -->
<svg width="318pt" height="318pt"
 viewBox="0.00 0.00 317.50 318.00" xmlns="http://www.w3.org/2000/svg" xmlns:xlink="http://www.w3.org/1999/xlink">
<g id="graph0" class="graph" transform="scale(1 1) rotate(0) translate(4 314)">
<title>r_cio_ether_set_correction_time</title>
<polygon fill="white" stroke="transparent" points="-4,4 -4,-314 313.5,-314 313.5,4 -4,4"/>
<!-- Node1 -->
<g id="node1" class="node">
<title>Node1</title>
<g id="a_node1"><a xlink:title=" ">
<polygon fill="#bfbfbf" stroke="black" points="0,-0.5 0,-19.5 173,-19.5 173,-0.5 0,-0.5"/>
<text text-anchor="middle" x="86.5" y="-7.5" font-family="Helvetica,sans-Serif" font-size="10.00">r_cio_ether_set_correction_time</text>
</a>
</g>
</g>
<!-- Node2 -->
<g id="node2" class="node">
<title>Node2</title>
<g id="a_node2"><a xlink:title=" ">
<polygon fill="white" stroke="#bfbfbf" points="16.5,-212.5 16.5,-231.5 54.5,-231.5 54.5,-212.5 16.5,-212.5"/>
<text text-anchor="middle" x="35.5" y="-219.5" font-family="Helvetica,sans-Serif" font-size="10.00">char</text>
</a>
</g>
</g>
<!-- Node2&#45;&gt;Node1 -->
<g id="edge1" class="edge">
<title>Node2&#45;&gt;Node1</title>
<path fill="none" stroke="#9a32cd" stroke-dasharray="5,2" d="M39.68,-202.49C44.89,-179.58 54.12,-139.35 62.5,-105 70.17,-73.58 79.83,-36.42 84.19,-19.8"/>
<polygon fill="#9a32cd" stroke="#9a32cd" points="36.26,-201.73 37.47,-212.25 43.09,-203.27 36.26,-201.73"/>
<text text-anchor="middle" x="80.5" y="-113.5" font-family="Helvetica,sans-Serif" font-size="10.00"> CtrlIdx</text>
</g>
<!-- Node4 -->
<g id="node4" class="node">
<title>Node4</title>
<g id="a_node4"><a xlink:href="structEth__TimeIntDiffType.html" target="_top" xlink:title=" ">
<polygon fill="white" stroke="black" points="68,-145.5 68,-164.5 183,-164.5 183,-145.5 68,-145.5"/>
<text text-anchor="middle" x="125.5" y="-152.5" font-family="Helvetica,sans-Serif" font-size="10.00">Eth_TimeIntDiffType</text>
</a>
</g>
</g>
<!-- Node2&#45;&gt;Node4 -->
<g id="edge4" class="edge">
<title>Node2&#45;&gt;Node4</title>
<path fill="none" stroke="#9a32cd" stroke-dasharray="5,2" d="M56.18,-206.07C73.94,-193.24 98.94,-175.19 113.55,-164.63"/>
<polygon fill="#9a32cd" stroke="#9a32cd" points="53.7,-203.54 47.64,-212.23 57.79,-209.22 53.7,-203.54"/>
<text text-anchor="middle" x="98.5" y="-186" font-family="Helvetica,sans-Serif" font-size="10.00"> sign</text>
</g>
<!-- Node3 -->
<g id="node3" class="node">
<title>Node3</title>
<g id="a_node3"><a xlink:href="structEth__RateRatioType.html" target="_top" xlink:title=" ">
<polygon fill="white" stroke="black" points="173.5,-67.5 173.5,-86.5 281.5,-86.5 281.5,-67.5 173.5,-67.5"/>
<text text-anchor="middle" x="227.5" y="-74.5" font-family="Helvetica,sans-Serif" font-size="10.00">Eth_RateRatioType</text>
</a>
</g>
</g>
<!-- Node3&#45;&gt;Node1 -->
<g id="edge2" class="edge">
<title>Node3&#45;&gt;Node1</title>
<path fill="none" stroke="#9a32cd" stroke-dasharray="5,2" d="M199.54,-63.11C171.62,-50.24 129.46,-30.81 105.3,-19.67"/>
<polygon fill="#9a32cd" stroke="#9a32cd" points="198.23,-66.36 208.78,-67.37 201.16,-60 198.23,-66.36"/>
<text text-anchor="middle" x="196.5" y="-41" font-family="Helvetica,sans-Serif" font-size="10.00"> rateRatioPtr</text>
</g>
<!-- Node4&#45;&gt;Node1 -->
<g id="edge8" class="edge">
<title>Node4&#45;&gt;Node1</title>
<path fill="none" stroke="#9a32cd" stroke-dasharray="5,2" d="M115.79,-136.31C109,-123.11 100.31,-104.43 95.5,-87 88.92,-63.18 87.15,-33.85 86.68,-19.6"/>
<polygon fill="#9a32cd" stroke="#9a32cd" points="112.74,-138.03 120.52,-145.22 118.93,-134.75 112.74,-138.03"/>
<text text-anchor="middle" x="130" y="-74.5" font-family="Helvetica,sans-Serif" font-size="10.00"> timeOffsetPtr</text>
</g>
<!-- Node4&#45;&gt;Node3 -->
<g id="edge3" class="edge">
<title>Node4&#45;&gt;Node3</title>
<path fill="none" stroke="#9a32cd" stroke-dasharray="5,2" d="M145.43,-139.15C166.43,-123.5 198.8,-99.38 215.94,-86.62"/>
<polygon fill="#9a32cd" stroke="#9a32cd" points="143.13,-136.5 137.2,-145.28 147.31,-142.11 143.13,-136.5"/>
<text text-anchor="middle" x="249" y="-119" font-family="Helvetica,sans-Serif" font-size="10.00"> IngressTimeStampDelta</text>
<text text-anchor="middle" x="249" y="-108" font-family="Helvetica,sans-Serif" font-size="10.00">OriginTimeStampDelta</text>
</g>
<!-- Node5 -->
<g id="node5" class="node">
<title>Node5</title>
<g id="a_node5"><a xlink:href="structEth__TimeStampType.html" target="_top" xlink:title=" ">
<polygon fill="white" stroke="black" points="72.5,-212.5 72.5,-231.5 188.5,-231.5 188.5,-212.5 72.5,-212.5"/>
<text text-anchor="middle" x="130.5" y="-219.5" font-family="Helvetica,sans-Serif" font-size="10.00">Eth_TimeStampType</text>
</a>
</g>
</g>
<!-- Node5&#45;&gt;Node4 -->
<g id="edge5" class="edge">
<title>Node5&#45;&gt;Node4</title>
<path fill="none" stroke="#9a32cd" stroke-dasharray="5,2" d="M129.04,-202.04C128.09,-189.67 126.89,-174.12 126.16,-164.63"/>
<polygon fill="#9a32cd" stroke="#9a32cd" points="125.57,-202.53 129.83,-212.23 132.55,-201.99 125.57,-202.53"/>
<text text-anchor="middle" x="138" y="-186" font-family="Helvetica,sans-Serif" font-size="10.00"> diff</text>
</g>
<!-- Node6 -->
<g id="node6" class="node">
<title>Node6</title>
<g id="a_node6"><a xlink:title=" ">
<polygon fill="white" stroke="#bfbfbf" points="35,-290.5 35,-309.5 120,-309.5 120,-290.5 35,-290.5"/>
<text text-anchor="middle" x="77.5" y="-297.5" font-family="Helvetica,sans-Serif" font-size="10.00">unsigned long</text>
</a>
</g>
</g>
<!-- Node6&#45;&gt;Node5 -->
<g id="edge6" class="edge">
<title>Node6&#45;&gt;Node5</title>
<path fill="none" stroke="#9a32cd" stroke-dasharray="5,2" d="M74.05,-280.36C73.23,-270.62 73.89,-258.9 79.5,-250 84.79,-241.61 93.61,-235.67 102.45,-231.54"/>
<polygon fill="#9a32cd" stroke="#9a32cd" points="70.58,-280.84 75.41,-290.27 77.52,-279.89 70.58,-280.84"/>
<text text-anchor="middle" x="113" y="-264" font-family="Helvetica,sans-Serif" font-size="10.00"> nanoseconds</text>
<text text-anchor="middle" x="113" y="-253" font-family="Helvetica,sans-Serif" font-size="10.00">seconds</text>
</g>
<!-- Node7 -->
<g id="node7" class="node">
<title>Node7</title>
<g id="a_node7"><a xlink:title=" ">
<polygon fill="white" stroke="#bfbfbf" points="138,-290.5 138,-309.5 227,-309.5 227,-290.5 138,-290.5"/>
<text text-anchor="middle" x="182.5" y="-297.5" font-family="Helvetica,sans-Serif" font-size="10.00">unsigned short</text>
</a>
</g>
</g>
<!-- Node7&#45;&gt;Node5 -->
<g id="edge7" class="edge">
<title>Node7&#45;&gt;Node5</title>
<path fill="none" stroke="#9a32cd" stroke-dasharray="5,2" d="M170.87,-282.01C160.17,-266.37 144.74,-243.81 136.4,-231.62"/>
<polygon fill="#9a32cd" stroke="#9a32cd" points="168,-284.01 176.53,-290.28 173.78,-280.05 168,-284.01"/>
<text text-anchor="middle" x="190.5" y="-258.5" font-family="Helvetica,sans-Serif" font-size="10.00"> secondsHi</text>
</g>
</g>
</svg>
