<?xml version="1.0" encoding="UTF-8" standalone="no"?>
<!DOCTYPE svg PUBLIC "-//W3C//DTD SVG 1.1//EN"
 "http://www.w3.org/Graphics/SVG/1.1/DTD/svg11.dtd">
<!-- Generated by graphviz version 2.43.0 (0)
 -->
<!-- Title: r_cio_DeviceEntry_t Pages: 1 -->
<svg width="332pt" height="217pt"
 viewBox="0.00 0.00 331.50 217.00" xmlns="http://www.w3.org/2000/svg" xmlns:xlink="http://www.w3.org/1999/xlink">
<g id="graph0" class="graph" transform="scale(1 1) rotate(0) translate(4 213)">
<title>r_cio_DeviceEntry_t</title>
<polygon fill="white" stroke="transparent" points="-4,4 -4,-213 327.5,-213 327.5,4 -4,4"/>
<!-- Node1 -->
<g id="node1" class="node">
<title>Node1</title>
<g id="a_node1"><a xlink:title=" ">
<polygon fill="#bfbfbf" stroke="black" points="138.5,-0.5 138.5,-19.5 251.5,-19.5 251.5,-0.5 138.5,-0.5"/>
<text text-anchor="middle" x="195" y="-7.5" font-family="Helvetica,sans-Serif" font-size="10.00">r_cio_DeviceEntry_t</text>
</a>
</g>
</g>
<!-- Node2 -->
<g id="node2" class="node">
<title>Node2</title>
<g id="a_node2"><a xlink:title=" ">
<polygon fill="white" stroke="#bfbfbf" points="0,-178.5 0,-197.5 38,-197.5 38,-178.5 0,-178.5"/>
<text text-anchor="middle" x="19" y="-185.5" font-family="Helvetica,sans-Serif" font-size="10.00">char</text>
</a>
</g>
</g>
<!-- Node2&#45;&gt;Node1 -->
<g id="edge1" class="edge">
<title>Node2&#45;&gt;Node1</title>
<path fill="none" stroke="#9a32cd" stroke-dasharray="5,2" d="M18.23,-168.22C18.19,-142.32 21.96,-95.6 47,-67 70.16,-40.54 107.16,-26.54 138.37,-19.16"/>
<polygon fill="#9a32cd" stroke="#9a32cd" points="14.73,-168.3 18.44,-178.22 21.73,-168.15 14.73,-168.3"/>
<text text-anchor="middle" x="63.5" y="-74.5" font-family="Helvetica,sans-Serif" font-size="10.00"> Name</text>
</g>
<!-- Node5 -->
<g id="node5" class="node">
<title>Node5</title>
<g id="a_node5"><a xlink:href="structr__cio__Driver__t.html" target="_top" xlink:title="CIO driver structure.">
<polygon fill="white" stroke="black" points="89,-67.5 89,-86.5 173,-86.5 173,-67.5 89,-67.5"/>
<text text-anchor="middle" x="131" y="-74.5" font-family="Helvetica,sans-Serif" font-size="10.00">r_cio_Driver_t</text>
</a>
</g>
</g>
<!-- Node2&#45;&gt;Node5 -->
<g id="edge5" class="edge">
<title>Node2&#45;&gt;Node5</title>
<path fill="none" stroke="#9a32cd" stroke-dasharray="5,2" d="M29.32,-169.62C40.57,-151.75 59.94,-123.95 82,-105 90.69,-97.53 101.78,-91.21 111.21,-86.57"/>
<polygon fill="#9a32cd" stroke="#9a32cd" points="26.18,-168.04 23.94,-178.4 32.15,-171.7 26.18,-168.04"/>
<text text-anchor="middle" x="98.5" y="-124.5" font-family="Helvetica,sans-Serif" font-size="10.00"> Name</text>
</g>
<!-- Node3 -->
<g id="node3" class="node">
<title>Node3</title>
<g id="a_node3"><a xlink:title=" ">
<polygon fill="white" stroke="#bfbfbf" points="278.5,-67.5 278.5,-86.5 323.5,-86.5 323.5,-67.5 278.5,-67.5"/>
<text text-anchor="middle" x="301" y="-74.5" font-family="Helvetica,sans-Serif" font-size="10.00">size_t</text>
</a>
</g>
</g>
<!-- Node3&#45;&gt;Node1 -->
<g id="edge2" class="edge">
<title>Node3&#45;&gt;Node1</title>
<path fill="none" stroke="#9a32cd" stroke-dasharray="5,2" d="M278.08,-61.94C257.08,-49.07 226.68,-30.43 209.07,-19.63"/>
<polygon fill="#9a32cd" stroke="#9a32cd" points="276.35,-64.99 286.7,-67.23 280.01,-59.02 276.35,-64.99"/>
<text text-anchor="middle" x="279" y="-41" font-family="Helvetica,sans-Serif" font-size="10.00"> BaseAddr</text>
</g>
<!-- Node4 -->
<g id="node4" class="node">
<title>Node4</title>
<g id="a_node4"><a xlink:title=" ">
<polygon fill="white" stroke="#bfbfbf" points="204.5,-178.5 204.5,-197.5 233.5,-197.5 233.5,-178.5 204.5,-178.5"/>
<text text-anchor="middle" x="219" y="-185.5" font-family="Helvetica,sans-Serif" font-size="10.00">int</text>
</a>
</g>
</g>
<!-- Node4&#45;&gt;Node1 -->
<g id="edge3" class="edge">
<title>Node4&#45;&gt;Node1</title>
<path fill="none" stroke="#9a32cd" stroke-dasharray="5,2" d="M218.8,-168.37C218.15,-139.92 215.51,-84.09 205,-38 203.58,-31.76 201.08,-25.01 198.93,-19.82"/>
<polygon fill="#9a32cd" stroke="#9a32cd" points="215.3,-168.54 218.97,-178.48 222.3,-168.42 215.3,-168.54"/>
<text text-anchor="middle" x="233" y="-74.5" font-family="Helvetica,sans-Serif" font-size="10.00"> IrqNum</text>
</g>
<!-- Node4&#45;&gt;Node5 -->
<g id="edge6" class="edge">
<title>Node4&#45;&gt;Node5</title>
<path fill="none" stroke="#9a32cd" stroke-dasharray="5,2" d="M200.66,-171.72C189.56,-162.37 177.14,-151.71 175,-149 161.3,-131.7 163.93,-123.56 152,-105 147.89,-98.61 142.64,-91.86 138.42,-86.7"/>
<polygon fill="#9a32cd" stroke="#9a32cd" points="198.43,-174.41 208.34,-178.15 202.93,-169.05 198.43,-174.41"/>
<text text-anchor="middle" x="190.5" y="-141" font-family="Helvetica,sans-Serif" font-size="10.00"> Close</text>
<text text-anchor="middle" x="190.5" y="-130" font-family="Helvetica,sans-Serif" font-size="10.00">DeInit</text>
<text text-anchor="middle" x="190.5" y="-119" font-family="Helvetica,sans-Serif" font-size="10.00">Init</text>
<text text-anchor="middle" x="190.5" y="-108" font-family="Helvetica,sans-Serif" font-size="10.00">Open</text>
</g>
<!-- Node5&#45;&gt;Node1 -->
<g id="edge4" class="edge">
<title>Node5&#45;&gt;Node1</title>
<path fill="none" stroke="#9a32cd" stroke-dasharray="5,2" d="M146.76,-60C159.31,-47.25 176.4,-29.89 186.51,-19.63"/>
<polygon fill="#9a32cd" stroke="#9a32cd" points="144.15,-57.65 139.63,-67.23 149.14,-62.56 144.15,-57.65"/>
<text text-anchor="middle" x="184" y="-41" font-family="Helvetica,sans-Serif" font-size="10.00"> Driver</text>
</g>
<!-- Node6 -->
<g id="node6" class="node">
<title>Node6</title>
<g id="a_node6"><a xlink:title=" ">
<polygon fill="white" stroke="#bfbfbf" points="56.5,-167.5 56.5,-208.5 185.5,-208.5 185.5,-167.5 56.5,-167.5"/>
<text text-anchor="start" x="64.5" y="-196.5" font-family="Helvetica,sans-Serif" font-size="10.00">ssize_t(*)(size_t Addr,</text>
<text text-anchor="start" x="64.5" y="-185.5" font-family="Helvetica,sans-Serif" font-size="10.00"> void *Par1, void *Par2,</text>
<text text-anchor="middle" x="121" y="-174.5" font-family="Helvetica,sans-Serif" font-size="10.00"> void *Par3)</text>
</a>
</g>
</g>
<!-- Node6&#45;&gt;Node5 -->
<g id="edge7" class="edge">
<title>Node6&#45;&gt;Node5</title>
<path fill="none" stroke="#9a32cd" stroke-dasharray="5,2" d="M118.48,-157.12C117.79,-141.48 117.94,-122.08 121,-105 122.13,-98.7 124.63,-91.95 126.85,-86.78"/>
<polygon fill="#9a32cd" stroke="#9a32cd" points="114.99,-157.49 119.06,-167.28 121.98,-157.09 114.99,-157.49"/>
<text text-anchor="middle" x="136.5" y="-141" font-family="Helvetica,sans-Serif" font-size="10.00"> IoCtl</text>
<text text-anchor="middle" x="136.5" y="-130" font-family="Helvetica,sans-Serif" font-size="10.00">Read</text>
<text text-anchor="middle" x="136.5" y="-119" font-family="Helvetica,sans-Serif" font-size="10.00">Status</text>
<text text-anchor="middle" x="136.5" y="-108" font-family="Helvetica,sans-Serif" font-size="10.00">Write</text>
</g>
</g>
</svg>
