<?xml version="1.0" encoding="UTF-8" standalone="no"?>
<!DOCTYPE svg PUBLIC "-//W3C//DTD SVG 1.1//EN"
 "http://www.w3.org/Graphics/SVG/1.1/DTD/svg11.dtd">
<!-- Generated by graphviz version 2.43.0 (0)
 -->
<!-- Title: r_Csi2_t Pages: 1 -->
<svg width="273pt" height="117pt"
 viewBox="0.00 0.00 273.00 117.00" xmlns="http://www.w3.org/2000/svg" xmlns:xlink="http://www.w3.org/1999/xlink">
<g id="graph0" class="graph" transform="scale(1 1) rotate(0) translate(4 113)">
<title>r_Csi2_t</title>
<polygon fill="white" stroke="transparent" points="-4,4 -4,-113 269,-113 269,4 -4,4"/>
<!-- Node1 -->
<g id="node1" class="node">
<title>Node1</title>
<g id="a_node1"><a xlink:title="CSI2 configuration information.">
<polygon fill="#bfbfbf" stroke="black" points="106,-0.5 106,-19.5 162,-19.5 162,-0.5 106,-0.5"/>
<text text-anchor="middle" x="134" y="-7.5" font-family="Helvetica,sans-Serif" font-size="10.00">r_Csi2_t</text>
</a>
</g>
</g>
<!-- Node2 -->
<g id="node2" class="node">
<title>Node2</title>
<g id="a_node2"><a xlink:title=" ">
<polygon fill="white" stroke="#bfbfbf" points="0,-89.5 0,-108.5 56,-108.5 56,-89.5 0,-89.5"/>
<text text-anchor="middle" x="28" y="-96.5" font-family="Helvetica,sans-Serif" font-size="10.00">uint16_t</text>
</a>
</g>
</g>
<!-- Node2&#45;&gt;Node1 -->
<g id="edge1" class="edge">
<title>Node2&#45;&gt;Node1</title>
<path fill="none" stroke="#9a32cd" stroke-dasharray="5,2" d="M28.74,-79.08C30.25,-65.93 34.32,-48.88 45,-38 60.95,-21.75 86.33,-15.21 105.91,-12.61"/>
<polygon fill="#9a32cd" stroke="#9a32cd" points="25.23,-79.15 27.98,-89.38 32.21,-79.67 25.23,-79.15"/>
<text text-anchor="middle" x="74" y="-57.5" font-family="Helvetica,sans-Serif" font-size="10.00"> CpgModule</text>
<text text-anchor="middle" x="74" y="-46.5" font-family="Helvetica,sans-Serif" font-size="10.00">DataRate</text>
</g>
<!-- Node3 -->
<g id="node3" class="node">
<title>Node3</title>
<g id="a_node3"><a xlink:title=" ">
<polygon fill="white" stroke="#bfbfbf" points="77,-89.5 77,-108.5 133,-108.5 133,-89.5 77,-89.5"/>
<text text-anchor="middle" x="105" y="-96.5" font-family="Helvetica,sans-Serif" font-size="10.00">uint32_t</text>
</a>
</g>
</g>
<!-- Node3&#45;&gt;Node1 -->
<g id="edge2" class="edge">
<title>Node3&#45;&gt;Node1</title>
<path fill="none" stroke="#9a32cd" stroke-dasharray="5,2" d="M106.01,-78.86C107.17,-66.77 109.66,-51.03 115,-38 117.7,-31.42 122.24,-24.88 126.21,-19.89"/>
<polygon fill="#9a32cd" stroke="#9a32cd" points="102.49,-78.89 105.25,-89.12 109.48,-79.41 102.49,-78.89"/>
<text text-anchor="middle" x="129" y="-63" font-family="Helvetica,sans-Serif" font-size="10.00"> Base</text>
<text text-anchor="middle" x="129" y="-52" font-family="Helvetica,sans-Serif" font-size="10.00">Vcdt</text>
<text text-anchor="middle" x="129" y="-41" font-family="Helvetica,sans-Serif" font-size="10.00">Vcdt2</text>
</g>
<!-- Node4 -->
<g id="node4" class="node">
<title>Node4</title>
<g id="a_node4"><a xlink:title=" ">
<polygon fill="white" stroke="#bfbfbf" points="151,-89.5 151,-108.5 189,-108.5 189,-89.5 151,-89.5"/>
<text text-anchor="middle" x="170" y="-96.5" font-family="Helvetica,sans-Serif" font-size="10.00">bool</text>
</a>
</g>
</g>
<!-- Node4&#45;&gt;Node1 -->
<g id="edge3" class="edge">
<title>Node4&#45;&gt;Node1</title>
<path fill="none" stroke="#9a32cd" stroke-dasharray="5,2" d="M162.54,-79.97C154.9,-61.51 143.35,-33.61 137.57,-19.62"/>
<polygon fill="#9a32cd" stroke="#9a32cd" points="159.36,-81.44 166.42,-89.34 165.83,-78.76 159.36,-81.44"/>
<text text-anchor="middle" x="184" y="-52" font-family="Helvetica,sans-Serif" font-size="10.00"> Interlaced</text>
</g>
<!-- Node5 -->
<g id="node5" class="node">
<title>Node5</title>
<g id="a_node5"><a xlink:title=" ">
<polygon fill="white" stroke="#bfbfbf" points="215,-89.5 215,-108.5 265,-108.5 265,-89.5 215,-89.5"/>
<text text-anchor="middle" x="240" y="-96.5" font-family="Helvetica,sans-Serif" font-size="10.00">uint8_t</text>
</a>
</g>
</g>
<!-- Node5&#45;&gt;Node1 -->
<g id="edge4" class="edge">
<title>Node5&#45;&gt;Node1</title>
<path fill="none" stroke="#9a32cd" stroke-dasharray="5,2" d="M236.2,-79.45C232.58,-66.23 225.88,-48.93 214,-38 199.76,-24.9 178.93,-18.13 162.1,-14.65"/>
<polygon fill="#9a32cd" stroke="#9a32cd" points="232.84,-80.44 238.55,-89.36 239.65,-78.83 232.84,-80.44"/>
<text text-anchor="middle" x="249" y="-52" font-family="Helvetica,sans-Serif" font-size="10.00"> Lanes</text>
</g>
</g>
</svg>
