<?xml version="1.0" encoding="UTF-8" standalone="no"?>
<!DOCTYPE svg PUBLIC "-//W3C//DTD SVG 1.1//EN"
 "http://www.w3.org/Graphics/SVG/1.1/DTD/svg11.dtd">
<!-- Generated by graphviz version 2.43.0 (0)
 -->
<!-- Title: STag_Eth_RxConfigType Pages: 1 -->
<svg width="331pt" height="106pt"
 viewBox="0.00 0.00 330.50 106.00" xmlns="http://www.w3.org/2000/svg" xmlns:xlink="http://www.w3.org/1999/xlink">
<g id="graph0" class="graph" transform="scale(1 1) rotate(0) translate(4 102)">
<title>STag_Eth_RxConfigType</title>
<polygon fill="white" stroke="transparent" points="-4,4 -4,-102 326.5,-102 326.5,4 -4,4"/>
<!-- Node1 -->
<g id="node1" class="node">
<title>Node1</title>
<g id="a_node1"><a xlink:title=" ">
<polygon fill="#bfbfbf" stroke="black" points="119,-0.5 119,-19.5 250,-19.5 250,-0.5 119,-0.5"/>
<text text-anchor="middle" x="184.5" y="-7.5" font-family="Helvetica,sans-Serif" font-size="10.00">STag_Eth_RxConfigType</text>
</a>
</g>
</g>
<!-- Node2 -->
<g id="node2" class="node">
<title>Node2</title>
<g id="a_node2"><a xlink:title=" ">
<polygon fill="white" stroke="#bfbfbf" points="0,-78.5 0,-97.5 85,-97.5 85,-78.5 0,-78.5"/>
<text text-anchor="middle" x="42.5" y="-85.5" font-family="Helvetica,sans-Serif" font-size="10.00">unsigned long</text>
</a>
</g>
</g>
<!-- Node2&#45;&gt;Node1 -->
<g id="edge1" class="edge">
<title>Node2&#45;&gt;Node1</title>
<path fill="none" stroke="#9a32cd" stroke-dasharray="5,2" d="M67.63,-73.55C96.7,-57.99 143.73,-32.82 168.33,-19.66"/>
<polygon fill="#9a32cd" stroke="#9a32cd" points="65.68,-70.62 58.51,-78.43 68.98,-76.8 65.68,-70.62"/>
<text text-anchor="middle" x="141.5" y="-46.5" font-family="Helvetica,sans-Serif" font-size="10.00"> Rfcl</text>
</g>
<!-- Node3 -->
<g id="node3" class="node">
<title>Node3</title>
<g id="a_node3"><a xlink:title=" ">
<polygon fill="white" stroke="#bfbfbf" points="103,-78.5 103,-97.5 266,-97.5 266,-78.5 103,-78.5"/>
<text text-anchor="middle" x="184.5" y="-85.5" font-family="Helvetica,sans-Serif" font-size="10.00">enum ETag_Eth_SFOptionType</text>
</a>
</g>
</g>
<!-- Node3&#45;&gt;Node1 -->
<g id="edge2" class="edge">
<title>Node3&#45;&gt;Node1</title>
<path fill="none" stroke="#9a32cd" stroke-dasharray="5,2" d="M184.5,-68.22C184.5,-52.7 184.5,-31.36 184.5,-19.62"/>
<polygon fill="#9a32cd" stroke="#9a32cd" points="181,-68.28 184.5,-78.28 188,-68.28 181,-68.28"/>
<text text-anchor="middle" x="194" y="-46.5" font-family="Helvetica,sans-Serif" font-size="10.00"> Esf</text>
</g>
<!-- Node4 -->
<g id="node4" class="node">
<title>Node4</title>
<g id="a_node4"><a xlink:title=" ">
<polygon fill="white" stroke="#bfbfbf" points="284.5,-78.5 284.5,-97.5 322.5,-97.5 322.5,-78.5 284.5,-78.5"/>
<text text-anchor="middle" x="303.5" y="-85.5" font-family="Helvetica,sans-Serif" font-size="10.00">char</text>
</a>
</g>
</g>
<!-- Node4&#45;&gt;Node1 -->
<g id="edge3" class="edge">
<title>Node4&#45;&gt;Node1</title>
<path fill="none" stroke="#9a32cd" stroke-dasharray="5,2" d="M281.23,-72.77C256.76,-57.15 218.25,-32.56 197.99,-19.62"/>
<polygon fill="#9a32cd" stroke="#9a32cd" points="279.54,-75.85 289.85,-78.28 283.31,-69.95 279.54,-75.85"/>
<text text-anchor="middle" x="268.5" y="-52" font-family="Helvetica,sans-Serif" font-size="10.00"> Effs</text>
<text text-anchor="middle" x="268.5" y="-41" font-family="Helvetica,sans-Serif" font-size="10.00">Encf</text>
</g>
</g>
</svg>
