<?xml version="1.0" encoding="UTF-8" standalone="no"?>
<!DOCTYPE svg PUBLIC "-//W3C//DTD SVG 1.1//EN"
 "http://www.w3.org/Graphics/SVG/1.1/DTD/svg11.dtd">
<!-- Generated by graphviz version 2.43.0 (0)
 -->
<!-- Title: r_cio_can_Msg_t Pages: 1 -->
<svg width="206pt" height="106pt"
 viewBox="0.00 0.00 206.00 106.00" xmlns="http://www.w3.org/2000/svg" xmlns:xlink="http://www.w3.org/1999/xlink">
<g id="graph0" class="graph" transform="scale(1 1) rotate(0) translate(4 102)">
<title>r_cio_can_Msg_t</title>
<polygon fill="white" stroke="transparent" points="-4,4 -4,-102 202,-102 202,4 -4,4"/>
<!-- Node1 -->
<g id="node1" class="node">
<title>Node1</title>
<g id="a_node1"><a xlink:title="CAN Message definition.">
<polygon fill="#bfbfbf" stroke="black" points="53.5,-0.5 53.5,-19.5 150.5,-19.5 150.5,-0.5 53.5,-0.5"/>
<text text-anchor="middle" x="102" y="-7.5" font-family="Helvetica,sans-Serif" font-size="10.00">r_cio_can_Msg_t</text>
</a>
</g>
</g>
<!-- Node2 -->
<g id="node2" class="node">
<title>Node2</title>
<g id="a_node2"><a xlink:title=" ">
<polygon fill="white" stroke="#bfbfbf" points="0,-78.5 0,-97.5 56,-97.5 56,-78.5 0,-78.5"/>
<text text-anchor="middle" x="28" y="-85.5" font-family="Helvetica,sans-Serif" font-size="10.00">uint16_t</text>
</a>
</g>
</g>
<!-- Node2&#45;&gt;Node1 -->
<g id="edge1" class="edge">
<title>Node2&#45;&gt;Node1</title>
<path fill="none" stroke="#9a32cd" stroke-dasharray="5,2" d="M34.58,-69.04C38.93,-59.01 45.41,-46.8 54,-38 61.61,-30.2 71.96,-23.99 81.1,-19.51"/>
<polygon fill="#9a32cd" stroke="#9a32cd" points="31.27,-67.88 30.82,-78.46 37.78,-70.47 31.27,-67.88"/>
<text text-anchor="middle" x="76" y="-52" font-family="Helvetica,sans-Serif" font-size="10.00"> DataLen</text>
<text text-anchor="middle" x="76" y="-41" font-family="Helvetica,sans-Serif" font-size="10.00">Id</text>
</g>
<!-- Node3 -->
<g id="node3" class="node">
<title>Node3</title>
<g id="a_node3"><a xlink:title=" ">
<polygon fill="white" stroke="#bfbfbf" points="74,-78.5 74,-97.5 130,-97.5 130,-78.5 74,-78.5"/>
<text text-anchor="middle" x="102" y="-85.5" font-family="Helvetica,sans-Serif" font-size="10.00">uint32_t</text>
</a>
</g>
</g>
<!-- Node3&#45;&gt;Node1 -->
<g id="edge2" class="edge">
<title>Node3&#45;&gt;Node1</title>
<path fill="none" stroke="#9a32cd" stroke-dasharray="5,2" d="M102,-68.22C102,-52.7 102,-31.36 102,-19.62"/>
<polygon fill="#9a32cd" stroke="#9a32cd" points="98.5,-68.28 102,-78.28 105.5,-68.28 98.5,-68.28"/>
<text text-anchor="middle" x="117" y="-46.5" font-family="Helvetica,sans-Serif" font-size="10.00"> Flags</text>
</g>
<!-- Node4 -->
<g id="node4" class="node">
<title>Node4</title>
<g id="a_node4"><a xlink:title=" ">
<polygon fill="white" stroke="#bfbfbf" points="148,-78.5 148,-97.5 198,-97.5 198,-78.5 148,-78.5"/>
<text text-anchor="middle" x="173" y="-85.5" font-family="Helvetica,sans-Serif" font-size="10.00">uint8_t</text>
</a>
</g>
</g>
<!-- Node4&#45;&gt;Node1 -->
<g id="edge3" class="edge">
<title>Node4&#45;&gt;Node1</title>
<path fill="none" stroke="#9a32cd" stroke-dasharray="5,2" d="M161.54,-69.67C154.68,-59.88 145.48,-47.71 136,-38 129.37,-31.2 121.03,-24.56 114.27,-19.56"/>
<polygon fill="#9a32cd" stroke="#9a32cd" points="158.8,-71.86 167.32,-78.15 164.58,-67.92 158.8,-71.86"/>
<text text-anchor="middle" x="167.5" y="-46.5" font-family="Helvetica,sans-Serif" font-size="10.00"> Data</text>
</g>
</g>
</svg>
