<?xml version="1.0" encoding="UTF-8" standalone="no"?>
<!DOCTYPE svg PUBLIC "-//W3C//DTD SVG 1.1//EN"
 "http://www.w3.org/Graphics/SVG/1.1/DTD/svg11.dtd">
<!-- Generated by graphviz version 2.43.0 (0)
 -->
<!-- Title: st_imrdrv_attr_rs_unit_t Pages: 1 -->
<svg width="498pt" height="139pt"
 viewBox="0.00 0.00 498.00 139.00" xmlns="http://www.w3.org/2000/svg" xmlns:xlink="http://www.w3.org/1999/xlink">
<g id="graph0" class="graph" transform="scale(1 1) rotate(0) translate(4 135)">
<title>st_imrdrv_attr_rs_unit_t</title>
<polygon fill="white" stroke="transparent" points="-4,4 -4,-135 494,-135 494,4 -4,4"/>
<!-- Node1 -->
<g id="node1" class="node">
<title>Node1</title>
<g id="a_node1"><a xlink:title=" ">
<polygon fill="#bfbfbf" stroke="black" points="188.5,-0.5 188.5,-19.5 321.5,-19.5 321.5,-0.5 188.5,-0.5"/>
<text text-anchor="middle" x="255" y="-7.5" font-family="Helvetica,sans-Serif" font-size="10.00">st_imrdrv_attr_rs_unit_t</text>
</a>
</g>
</g>
<!-- Node2 -->
<g id="node2" class="node">
<title>Node2</title>
<g id="a_node2"><a xlink:title=" ">
<polygon fill="white" stroke="#bfbfbf" points="0,-106 0,-125 150,-125 150,-106 0,-106"/>
<text text-anchor="middle" x="75" y="-113" font-family="Helvetica,sans-Serif" font-size="10.00">e_imrdrv_rounding_mode_t</text>
</a>
</g>
</g>
<!-- Node2&#45;&gt;Node1 -->
<g id="edge1" class="edge">
<title>Node2&#45;&gt;Node1</title>
<path fill="none" stroke="#9a32cd" stroke-dasharray="5,2" d="M77.15,-95.82C80.21,-78.17 87.55,-52.33 105,-38 117.88,-27.42 154.42,-20.71 188.21,-16.63"/>
<polygon fill="#9a32cd" stroke="#9a32cd" points="73.67,-95.41 75.72,-105.81 80.6,-96.4 73.67,-95.41"/>
<text text-anchor="middle" x="144.5" y="-57.5" font-family="Helvetica,sans-Serif" font-size="10.00"> rounding_mode</text>
</g>
<!-- Node3 -->
<g id="node3" class="node">
<title>Node3</title>
<g id="a_node3"><a xlink:title=" ">
<polygon fill="white" stroke="#bfbfbf" points="168,-106 168,-125 224,-125 224,-106 168,-106"/>
<text text-anchor="middle" x="196" y="-113" font-family="Helvetica,sans-Serif" font-size="10.00">uint32_t</text>
</a>
</g>
</g>
<!-- Node3&#45;&gt;Node1 -->
<g id="edge2" class="edge">
<title>Node3&#45;&gt;Node1</title>
<path fill="none" stroke="#9a32cd" stroke-dasharray="5,2" d="M190.98,-95.52C187.76,-78.98 185.98,-55.04 197,-38 202.49,-29.51 211.4,-23.65 220.62,-19.61"/>
<polygon fill="#9a32cd" stroke="#9a32cd" points="187.65,-96.65 193.3,-105.61 194.47,-95.08 187.65,-96.65"/>
<text text-anchor="middle" x="244.5" y="-74" font-family="Helvetica,sans-Serif" font-size="10.00"> dst_addr_norotate</text>
<text text-anchor="middle" x="244.5" y="-63" font-family="Helvetica,sans-Serif" font-size="10.00">dst_addr_rotate</text>
<text text-anchor="middle" x="244.5" y="-52" font-family="Helvetica,sans-Serif" font-size="10.00">dst_stride_norotate</text>
<text text-anchor="middle" x="244.5" y="-41" font-family="Helvetica,sans-Serif" font-size="10.00">dst_stride_rotate</text>
</g>
<!-- Node4 -->
<g id="node4" class="node">
<title>Node4</title>
<g id="a_node4"><a xlink:title=" ">
<polygon fill="white" stroke="#bfbfbf" points="248.5,-100.5 248.5,-130.5 379.5,-130.5 379.5,-100.5 248.5,-100.5"/>
<text text-anchor="start" x="256.5" y="-118.5" font-family="Helvetica,sans-Serif" font-size="10.00">e_imrdrv_scaling_down</text>
<text text-anchor="middle" x="314" y="-107.5" font-family="Helvetica,sans-Serif" font-size="10.00">_filter_t</text>
</a>
</g>
</g>
<!-- Node4&#45;&gt;Node1 -->
<g id="edge3" class="edge">
<title>Node4&#45;&gt;Node1</title>
<path fill="none" stroke="#9a32cd" stroke-dasharray="5,2" d="M311.16,-90.16C308.35,-74.18 302.81,-53.46 292,-38 286.71,-30.44 278.62,-24.19 271.35,-19.61"/>
<polygon fill="#9a32cd" stroke="#9a32cd" points="307.74,-90.98 312.7,-100.34 314.67,-89.93 307.74,-90.98"/>
<text text-anchor="middle" x="357.5" y="-57.5" font-family="Helvetica,sans-Serif" font-size="10.00"> scaling_down_filter</text>
</g>
<!-- Node5 -->
<g id="node5" class="node">
<title>Node5</title>
<g id="a_node5"><a xlink:title=" ">
<polygon fill="white" stroke="#bfbfbf" points="398,-106 398,-125 490,-125 490,-106 398,-106"/>
<text text-anchor="middle" x="444" y="-113" font-family="Helvetica,sans-Serif" font-size="10.00">e_imrdrv_bpp_t</text>
</a>
</g>
</g>
<!-- Node5&#45;&gt;Node1 -->
<g id="edge4" class="edge">
<title>Node5&#45;&gt;Node1</title>
<path fill="none" stroke="#9a32cd" stroke-dasharray="5,2" d="M440.85,-95.74C436.84,-78.04 428.13,-52.15 410,-38 396.16,-27.21 357.16,-20.44 321.75,-16.39"/>
<polygon fill="#9a32cd" stroke="#9a32cd" points="437.45,-96.63 442.81,-105.77 444.32,-95.28 437.45,-96.63"/>
<text text-anchor="middle" x="457" y="-57.5" font-family="Helvetica,sans-Serif" font-size="10.00"> dst_bpp</text>
</g>
</g>
</svg>
