<?xml version="1.0" encoding="UTF-8" standalone="no"?>
<!DOCTYPE svg PUBLIC "-//W3C//DTD SVG 1.1//EN"
 "http://www.w3.org/Graphics/SVG/1.1/DTD/svg11.dtd">
<!-- Generated by graphviz version 2.43.0 (0)
 -->
<!-- Title: r_cio_Driver_t Pages: 1 -->
<svg width="245pt" height="150pt"
 viewBox="0.00 0.00 244.50 150.00" xmlns="http://www.w3.org/2000/svg" xmlns:xlink="http://www.w3.org/1999/xlink">
<g id="graph0" class="graph" transform="scale(1 1) rotate(0) translate(4 146)">
<title>r_cio_Driver_t</title>
<polygon fill="white" stroke="transparent" points="-4,4 -4,-146 240.5,-146 240.5,4 -4,4"/>
<!-- Node1 -->
<g id="node1" class="node">
<title>Node1</title>
<g id="a_node1"><a xlink:title="CIO driver structure.">
<polygon fill="#bfbfbf" stroke="black" points="33,-0.5 33,-19.5 117,-19.5 117,-0.5 33,-0.5"/>
<text text-anchor="middle" x="75" y="-7.5" font-family="Helvetica,sans-Serif" font-size="10.00">r_cio_Driver_t</text>
</a>
</g>
</g>
<!-- Node2 -->
<g id="node2" class="node">
<title>Node2</title>
<g id="a_node2"><a xlink:title=" ">
<polygon fill="white" stroke="#bfbfbf" points="0,-111.5 0,-130.5 38,-130.5 38,-111.5 0,-111.5"/>
<text text-anchor="middle" x="19" y="-118.5" font-family="Helvetica,sans-Serif" font-size="10.00">char</text>
</a>
</g>
</g>
<!-- Node2&#45;&gt;Node1 -->
<g id="edge1" class="edge">
<title>Node2&#45;&gt;Node1</title>
<path fill="none" stroke="#9a32cd" stroke-dasharray="5,2" d="M19.66,-101.17C21.09,-83.54 25.38,-57.1 38,-38 43,-30.44 50.88,-24.26 58.09,-19.73"/>
<polygon fill="#9a32cd" stroke="#9a32cd" points="16.16,-101.14 19.08,-111.33 23.14,-101.55 16.16,-101.14"/>
<text text-anchor="middle" x="54.5" y="-57.5" font-family="Helvetica,sans-Serif" font-size="10.00"> Name</text>
</g>
<!-- Node3 -->
<g id="node3" class="node">
<title>Node3</title>
<g id="a_node3"><a xlink:title=" ">
<polygon fill="white" stroke="#bfbfbf" points="60.5,-111.5 60.5,-130.5 89.5,-130.5 89.5,-111.5 60.5,-111.5"/>
<text text-anchor="middle" x="75" y="-118.5" font-family="Helvetica,sans-Serif" font-size="10.00">int</text>
</a>
</g>
</g>
<!-- Node3&#45;&gt;Node1 -->
<g id="edge2" class="edge">
<title>Node3&#45;&gt;Node1</title>
<path fill="none" stroke="#9a32cd" stroke-dasharray="5,2" d="M75,-101.19C75,-77.28 75,-36.99 75,-19.51"/>
<polygon fill="#9a32cd" stroke="#9a32cd" points="71.5,-101.45 75,-111.45 78.5,-101.45 71.5,-101.45"/>
<text text-anchor="middle" x="90.5" y="-74" font-family="Helvetica,sans-Serif" font-size="10.00"> Close</text>
<text text-anchor="middle" x="90.5" y="-63" font-family="Helvetica,sans-Serif" font-size="10.00">DeInit</text>
<text text-anchor="middle" x="90.5" y="-52" font-family="Helvetica,sans-Serif" font-size="10.00">Init</text>
<text text-anchor="middle" x="90.5" y="-41" font-family="Helvetica,sans-Serif" font-size="10.00">Open</text>
</g>
<!-- Node4 -->
<g id="node4" class="node">
<title>Node4</title>
<g id="a_node4"><a xlink:title=" ">
<polygon fill="white" stroke="#bfbfbf" points="107.5,-100.5 107.5,-141.5 236.5,-141.5 236.5,-100.5 107.5,-100.5"/>
<text text-anchor="start" x="115.5" y="-129.5" font-family="Helvetica,sans-Serif" font-size="10.00">ssize_t(*)(size_t Addr,</text>
<text text-anchor="start" x="115.5" y="-118.5" font-family="Helvetica,sans-Serif" font-size="10.00"> void *Par1, void *Par2,</text>
<text text-anchor="middle" x="172" y="-107.5" font-family="Helvetica,sans-Serif" font-size="10.00"> void *Par3)</text>
</a>
</g>
</g>
<!-- Node4&#45;&gt;Node1 -->
<g id="edge3" class="edge">
<title>Node4&#45;&gt;Node1</title>
<path fill="none" stroke="#9a32cd" stroke-dasharray="5,2" d="M153.35,-91.59C141.84,-75.08 126.21,-54.37 110,-38 103.2,-31.13 94.61,-24.48 87.65,-19.5"/>
<polygon fill="#9a32cd" stroke="#9a32cd" points="150.76,-94.01 159.3,-100.28 156.54,-90.05 150.76,-94.01"/>
<text text-anchor="middle" x="160.5" y="-74" font-family="Helvetica,sans-Serif" font-size="10.00"> IoCtl</text>
<text text-anchor="middle" x="160.5" y="-63" font-family="Helvetica,sans-Serif" font-size="10.00">Read</text>
<text text-anchor="middle" x="160.5" y="-52" font-family="Helvetica,sans-Serif" font-size="10.00">Status</text>
<text text-anchor="middle" x="160.5" y="-41" font-family="Helvetica,sans-Serif" font-size="10.00">Write</text>
</g>
</g>
</svg>
