<?xml version="1.0" encoding="UTF-8" standalone="no"?>
<!DOCTYPE svg PUBLIC "-//W3C//DTD SVG 1.1//EN"
 "http://www.w3.org/Graphics/SVG/1.1/DTD/svg11.dtd">
<!-- Generated by graphviz version 2.43.0 (0)
 -->
<!-- Title: RcarPin Pages: 1 -->
<svg width="219pt" height="150pt"
 viewBox="0.00 0.00 219.00 150.00" xmlns="http://www.w3.org/2000/svg" xmlns:xlink="http://www.w3.org/1999/xlink">
<g id="graph0" class="graph" transform="scale(1 1) rotate(0) translate(4 146)">
<title>RcarPin</title>
<polygon fill="white" stroke="transparent" points="-4,4 -4,-146 215,-146 215,4 -4,4"/>
<!-- Node1 -->
<g id="node1" class="node">
<title>Node1</title>
<g id="a_node1"><a xlink:title=" ">
<polygon fill="#bfbfbf" stroke="black" points="57.5,-0.5 57.5,-19.5 110.5,-19.5 110.5,-0.5 57.5,-0.5"/>
<text text-anchor="middle" x="84" y="-7.5" font-family="Helvetica,sans-Serif" font-size="10.00">RcarPin</text>
</a>
</g>
</g>
<!-- Node2 -->
<g id="node2" class="node">
<title>Node2</title>
<g id="a_node2"><a xlink:title=" ">
<polygon fill="white" stroke="#bfbfbf" points="0,-122.5 0,-141.5 38,-141.5 38,-122.5 0,-122.5"/>
<text text-anchor="middle" x="19" y="-129.5" font-family="Helvetica,sans-Serif" font-size="10.00">char</text>
</a>
</g>
</g>
<!-- Node2&#45;&gt;Node1 -->
<g id="edge1" class="edge">
<title>Node2&#45;&gt;Node1</title>
<path fill="none" stroke="#9a32cd" stroke-dasharray="5,2" d="M21.65,-112.33C25.21,-92.44 33.02,-60.73 49,-38 54.21,-30.59 62.05,-24.28 68.99,-19.62"/>
<polygon fill="#9a32cd" stroke="#9a32cd" points="18.18,-111.86 20.06,-122.28 25.1,-112.97 18.18,-111.86"/>
<text text-anchor="middle" x="64.5" y="-68.5" font-family="Helvetica,sans-Serif" font-size="10.00"> name</text>
</g>
<!-- Node3 -->
<g id="node3" class="node">
<title>Node3</title>
<g id="a_node3"><a xlink:title=" ">
<polygon fill="white" stroke="#bfbfbf" points="56,-122.5 56,-141.5 112,-141.5 112,-122.5 56,-122.5"/>
<text text-anchor="middle" x="84" y="-129.5" font-family="Helvetica,sans-Serif" font-size="10.00">uint32_t</text>
</a>
</g>
</g>
<!-- Node3&#45;&gt;Node1 -->
<g id="edge2" class="edge">
<title>Node3&#45;&gt;Node1</title>
<path fill="none" stroke="#9a32cd" stroke-dasharray="5,2" d="M84,-112.15C84,-85.72 84,-38.76 84,-19.55"/>
<polygon fill="#9a32cd" stroke="#9a32cd" points="80.5,-112.37 84,-122.37 87.5,-112.37 80.5,-112.37"/>
<text text-anchor="middle" x="117" y="-74" font-family="Helvetica,sans-Serif" font-size="10.00"> modselMask</text>
<text text-anchor="middle" x="117" y="-63" font-family="Helvetica,sans-Serif" font-size="10.00">modselVal</text>
</g>
<!-- Node4 -->
<g id="node4" class="node">
<title>Node4</title>
<g id="a_node4"><a xlink:title=" ">
<polygon fill="white" stroke="#bfbfbf" points="148,-122.5 148,-141.5 198,-141.5 198,-122.5 148,-122.5"/>
<text text-anchor="middle" x="173" y="-129.5" font-family="Helvetica,sans-Serif" font-size="10.00">uint8_t</text>
</a>
</g>
</g>
<!-- Node4&#45;&gt;Node1 -->
<g id="edge3" class="edge">
<title>Node4&#45;&gt;Node1</title>
<path fill="none" stroke="#9a32cd" stroke-dasharray="5,2" d="M173.41,-112.14C172.85,-91.57 168.89,-58.82 151,-38 140.78,-26.11 124.57,-19.4 110.65,-15.64"/>
<polygon fill="#9a32cd" stroke="#9a32cd" points="169.91,-112.41 173.43,-122.41 176.91,-112.4 169.91,-112.41"/>
<text text-anchor="middle" x="191.5" y="-96" font-family="Helvetica,sans-Serif" font-size="10.00"> gpsr</text>
<text text-anchor="middle" x="191.5" y="-85" font-family="Helvetica,sans-Serif" font-size="10.00">gpsrPos</text>
<text text-anchor="middle" x="191.5" y="-74" font-family="Helvetica,sans-Serif" font-size="10.00">ipsr</text>
<text text-anchor="middle" x="191.5" y="-63" font-family="Helvetica,sans-Serif" font-size="10.00">ipsrPos</text>
<text text-anchor="middle" x="191.5" y="-52" font-family="Helvetica,sans-Serif" font-size="10.00">ipsrVal</text>
<text text-anchor="middle" x="191.5" y="-41" font-family="Helvetica,sans-Serif" font-size="10.00">modsel</text>
</g>
</g>
</svg>
