<?xml version="1.0" encoding="UTF-8" standalone="no"?>
<!DOCTYPE svg PUBLIC "-//W3C//DTD SVG 1.1//EN"
 "http://www.w3.org/Graphics/SVG/1.1/DTD/svg11.dtd">
<!-- Generated by graphviz version 2.43.0 (0)
 -->
<!-- Title: rDmacDescCfg_st Pages: 1 -->
<svg width="440pt" height="197pt"
 viewBox="0.00 0.00 440.00 197.00" xmlns="http://www.w3.org/2000/svg" xmlns:xlink="http://www.w3.org/1999/xlink">
<g id="graph0" class="graph" transform="scale(1 1) rotate(0) translate(4 193)">
<title>rDmacDescCfg_st</title>
<polygon fill="white" stroke="transparent" points="-4,4 -4,-193 436,-193 436,4 -4,4"/>
<!-- Node1 -->
<g id="node1" class="node">
<title>Node1</title>
<g id="a_node1"><a xlink:title=" ">
<polygon fill="#bfbfbf" stroke="black" points="169,-0.5 169,-19.5 273,-19.5 273,-0.5 169,-0.5"/>
<text text-anchor="middle" x="221" y="-7.5" font-family="Helvetica,sans-Serif" font-size="10.00">rDmacDescCfg_st</text>
</a>
</g>
</g>
<!-- Node2 -->
<g id="node2" class="node">
<title>Node2</title>
<g id="a_node2"><a xlink:href="structrDmacDescUpdate__st.html" target="_top" xlink:title=" ">
<polygon fill="white" stroke="black" points="108,-79.5 108,-98.5 230,-98.5 230,-79.5 108,-79.5"/>
<text text-anchor="middle" x="169" y="-86.5" font-family="Helvetica,sans-Serif" font-size="10.00">rDmacDescUpdate_st</text>
</a>
</g>
</g>
<!-- Node2&#45;&gt;Node1 -->
<g id="edge1" class="edge">
<title>Node2&#45;&gt;Node1</title>
<path fill="none" stroke="#9a32cd" stroke-dasharray="5,2" d="M167.87,-69.29C168.14,-59.27 169.95,-47.13 176,-38 181.33,-29.95 189.96,-23.93 198.25,-19.65"/>
<polygon fill="#9a32cd" stroke="#9a32cd" points="164.38,-69.52 168.08,-79.44 171.37,-69.37 164.38,-69.52"/>
<text text-anchor="middle" x="212.5" y="-46.5" font-family="Helvetica,sans-Serif" font-size="10.00"> mDescUpdate</text>
</g>
<!-- Node3 -->
<g id="node3" class="node">
<title>Node3</title>
<g id="a_node3"><a xlink:title=" ">
<polygon fill="white" stroke="#bfbfbf" points="0,-169.5 0,-188.5 38,-188.5 38,-169.5 0,-169.5"/>
<text text-anchor="middle" x="19" y="-176.5" font-family="Helvetica,sans-Serif" font-size="10.00">bool</text>
</a>
</g>
</g>
<!-- Node3&#45;&gt;Node1 -->
<g id="edge4" class="edge">
<title>Node3&#45;&gt;Node1</title>
<path fill="none" stroke="#9a32cd" stroke-dasharray="5,2" d="M11.29,-159.91C3.4,-138.26 -5.46,-101.93 12,-78 47.59,-29.21 119.23,-15.15 168.63,-11.52"/>
<polygon fill="#9a32cd" stroke="#9a32cd" points="8.15,-161.48 15.08,-169.5 14.66,-158.91 8.15,-161.48"/>
<text text-anchor="middle" x="55.5" y="-92" font-family="Helvetica,sans-Serif" font-size="10.00"> mDescRead1st</text>
<text text-anchor="middle" x="55.5" y="-81" font-family="Helvetica,sans-Serif" font-size="10.00">mStateEndEnable</text>
</g>
<!-- Node3&#45;&gt;Node2 -->
<g id="edge2" class="edge">
<title>Node3&#45;&gt;Node2</title>
<path fill="none" stroke="#9a32cd" stroke-dasharray="5,2" d="M42.6,-164.15C74,-145.73 128.57,-113.72 154.51,-98.5"/>
<polygon fill="#9a32cd" stroke="#9a32cd" points="40.51,-161.32 33.66,-169.4 44.05,-167.36 40.51,-161.32"/>
<text text-anchor="middle" x="171" y="-143" font-family="Helvetica,sans-Serif" font-size="10.00"> mDestAddrUpdate</text>
<text text-anchor="middle" x="171" y="-132" font-family="Helvetica,sans-Serif" font-size="10.00">mSrcAddrUpdate</text>
<text text-anchor="middle" x="171" y="-121" font-family="Helvetica,sans-Serif" font-size="10.00">mTransCountUpdate</text>
</g>
<!-- Node4 -->
<g id="node4" class="node">
<title>Node4</title>
<g id="a_node4"><a xlink:title=" ">
<polygon fill="white" stroke="#bfbfbf" points="248,-79.5 248,-98.5 298,-98.5 298,-79.5 248,-79.5"/>
<text text-anchor="middle" x="273" y="-86.5" font-family="Helvetica,sans-Serif" font-size="10.00">uint8_t</text>
</a>
</g>
</g>
<!-- Node4&#45;&gt;Node1 -->
<g id="edge3" class="edge">
<title>Node4&#45;&gt;Node1</title>
<path fill="none" stroke="#9a32cd" stroke-dasharray="5,2" d="M266.23,-70.06C262.05,-60.13 256.11,-47.85 249,-38 244.1,-31.21 237.37,-24.67 231.75,-19.72"/>
<polygon fill="#9a32cd" stroke="#9a32cd" points="262.98,-71.36 269.94,-79.36 269.48,-68.77 262.98,-71.36"/>
<text text-anchor="middle" x="294" y="-52" font-family="Helvetica,sans-Serif" font-size="10.00"> mDescCount</text>
<text text-anchor="middle" x="294" y="-41" font-family="Helvetica,sans-Serif" font-size="10.00">mDescIndex</text>
</g>
<!-- Node5 -->
<g id="node5" class="node">
<title>Node5</title>
<g id="a_node5"><a xlink:title=" ">
<polygon fill="white" stroke="#bfbfbf" points="331,-79.5 331,-98.5 389,-98.5 389,-79.5 331,-79.5"/>
<text text-anchor="middle" x="360" y="-86.5" font-family="Helvetica,sans-Serif" font-size="10.00">uintptr_t</text>
</a>
</g>
</g>
<!-- Node5&#45;&gt;Node1 -->
<g id="edge5" class="edge">
<title>Node5&#45;&gt;Node1</title>
<path fill="none" stroke="#9a32cd" stroke-dasharray="5,2" d="M353.63,-69.73C348.96,-58.96 341.59,-45.93 331,-38 314.4,-25.56 292.8,-18.79 273.14,-15.13"/>
<polygon fill="#9a32cd" stroke="#9a32cd" points="350.39,-71.07 357.28,-79.12 356.92,-68.53 350.39,-71.07"/>
<text text-anchor="middle" x="390" y="-46.5" font-family="Helvetica,sans-Serif" font-size="10.00"> mDescBaseAddr</text>
</g>
</g>
</svg>
