<?xml version="1.0" encoding="UTF-8" standalone="no"?>
<!DOCTYPE svg PUBLIC "-//W3C//DTD SVG 1.1//EN"
 "http://www.w3.org/Graphics/SVG/1.1/DTD/svg11.dtd">
<!-- Generated by graphviz version 2.43.0 (0)
 -->
<!-- Title: r_wm_Doc_t Pages: 1 -->
<svg width="966pt" height="468pt"
 viewBox="0.00 0.00 966.00 468.13" xmlns="http://www.w3.org/2000/svg" xmlns:xlink="http://www.w3.org/1999/xlink">
<g id="graph0" class="graph" transform="scale(1 1) rotate(0) translate(4 464.13)">
<title>r_wm_Doc_t</title>
<polygon fill="white" stroke="transparent" points="-4,4 -4,-464.13 962,-464.13 962,4 -4,4"/>
<!-- Node1 -->
<g id="node1" class="node">
<title>Node1</title>
<g id="a_node1"><a xlink:title=" ">
<polygon fill="#bfbfbf" stroke="black" points="881,-290.63 881,-309.63 958,-309.63 958,-290.63 881,-290.63"/>
<text text-anchor="middle" x="919.5" y="-297.63" font-family="Helvetica,sans-Serif" font-size="10.00">r_wm_Doc_t</text>
</a>
</g>
</g>
<!-- Node2 -->
<g id="node2" class="node">
<title>Node2</title>
<g id="a_node2"><a xlink:title=" ">
<polygon fill="white" stroke="#bfbfbf" points="644.5,-439.63 644.5,-458.63 765.5,-458.63 765.5,-439.63 644.5,-439.63"/>
<text text-anchor="middle" x="705" y="-446.63" font-family="Helvetica,sans-Serif" font-size="10.00">r_wm_Doc_DocUnit_t</text>
</a>
</g>
</g>
<!-- Node2&#45;&gt;Node1 -->
<g id="edge1" class="edge">
<title>Node2&#45;&gt;Node1</title>
<path fill="none" stroke="#9a32cd" stroke-dasharray="5,2" d="M775.99,-452.68C805.45,-450.8 838.5,-443.85 863,-425.13 901.49,-395.73 913.88,-333.81 917.33,-309.87"/>
<polygon fill="#9a32cd" stroke="#9a32cd" points="775.57,-449.2 765.74,-453.15 775.89,-456.19 775.57,-449.2"/>
<text text-anchor="middle" x="830.5" y="-452.13" font-family="Helvetica,sans-Serif" font-size="10.00"> DocUnit</text>
</g>
<!-- Node3 -->
<g id="node3" class="node">
<title>Node3</title>
<g id="a_node3"><a xlink:title=" ">
<polygon fill="white" stroke="#bfbfbf" points="149.5,-290.63 149.5,-309.63 205.5,-309.63 205.5,-290.63 149.5,-290.63"/>
<text text-anchor="middle" x="177.5" y="-297.63" font-family="Helvetica,sans-Serif" font-size="10.00">uint32_t</text>
</a>
</g>
</g>
<!-- Node3&#45;&gt;Node1 -->
<g id="edge2" class="edge">
<title>Node3&#45;&gt;Node1</title>
<path fill="none" stroke="#9a32cd" stroke-dasharray="5,2" d="M187.22,-319.04C199.07,-342.16 222.67,-380.2 256,-396.13 292.49,-413.57 306.56,-396.67 347,-396.13 539.72,-393.59 593.74,-421.7 780,-372.13 829.5,-358.96 881.4,-326 905.18,-309.64"/>
<polygon fill="#9a32cd" stroke="#9a32cd" points="190.28,-317.32 182.74,-309.87 183.99,-320.39 190.28,-317.32"/>
<text text-anchor="middle" x="548" y="-415.13" font-family="Helvetica,sans-Serif" font-size="10.00"> ActMonLowerTime</text>
<text text-anchor="middle" x="548" y="-404.13" font-family="Helvetica,sans-Serif" font-size="10.00">ActMonUpperTime</text>
</g>
<!-- Node5 -->
<g id="node5" class="node">
<title>Node5</title>
<g id="a_node5"><a xlink:href="structr__wm__DOC__Status__t.html" target="_top" xlink:title=" ">
<polygon fill="white" stroke="black" points="647,-290.63 647,-309.63 763,-309.63 763,-290.63 647,-290.63"/>
<text text-anchor="middle" x="705" y="-297.63" font-family="Helvetica,sans-Serif" font-size="10.00">r_wm_DOC_Status_t</text>
</a>
</g>
</g>
<!-- Node3&#45;&gt;Node5 -->
<g id="edge5" class="edge">
<title>Node3&#45;&gt;Node5</title>
<path fill="none" stroke="#9a32cd" stroke-dasharray="5,2" d="M215.6,-305.16C306.06,-317.04 536.13,-344.95 612,-332.13 625.09,-329.92 656.73,-318.39 679.24,-309.8"/>
<polygon fill="#9a32cd" stroke="#9a32cd" points="215.9,-301.67 205.53,-303.83 214.98,-308.61 215.9,-301.67"/>
<text text-anchor="middle" x="415.5" y="-334.13" font-family="Helvetica,sans-Serif" font-size="10.00"> VocSelMon</text>
</g>
<!-- Node6 -->
<g id="node6" class="node">
<title>Node6</title>
<g id="a_node6"><a xlink:href="structr__wm__Doc__DUParam__t.html" target="_top" xlink:title="Data Structure containing the used DU parameters by DOC.">
<polygon fill="white" stroke="black" points="484,-361.63 484,-380.63 612,-380.63 612,-361.63 484,-361.63"/>
<text text-anchor="middle" x="548" y="-368.63" font-family="Helvetica,sans-Serif" font-size="10.00">r_wm_Doc_DUParam_t</text>
</a>
</g>
</g>
<!-- Node3&#45;&gt;Node6 -->
<g id="edge8" class="edge">
<title>Node3&#45;&gt;Node6</title>
<path fill="none" stroke="#9a32cd" stroke-dasharray="5,2" d="M208.68,-313.67C222.8,-319.53 240,-325.97 256,-330.13 333.02,-350.18 424.23,-361.02 483.74,-366.43"/>
<polygon fill="#9a32cd" stroke="#9a32cd" points="210.02,-310.44 199.45,-309.75 207.29,-316.88 210.02,-310.44"/>
<text text-anchor="middle" x="301.5" y="-384.13" font-family="Helvetica,sans-Serif" font-size="10.00"> HbackPorchOffset</text>
<text text-anchor="middle" x="301.5" y="-373.13" font-family="Helvetica,sans-Serif" font-size="10.00">ScreenHeight</text>
<text text-anchor="middle" x="301.5" y="-362.13" font-family="Helvetica,sans-Serif" font-size="10.00">ScreenWidth</text>
<text text-anchor="middle" x="301.5" y="-351.13" font-family="Helvetica,sans-Serif" font-size="10.00">VbackPorchOffset</text>
</g>
<!-- Node8 -->
<g id="node8" class="node">
<title>Node8</title>
<g id="a_node8"><a xlink:href="structr__wm__Doc__MonitorParam__t.html" target="_top" xlink:title="Data Structure containing the DOC configuration.">
<polygon fill="white" stroke="black" points="630,-146.63 630,-165.63 780,-165.63 780,-146.63 630,-146.63"/>
<text text-anchor="middle" x="705" y="-153.63" font-family="Helvetica,sans-Serif" font-size="10.00">r_wm_Doc_MonitorParam_t</text>
</a>
</g>
</g>
<!-- Node3&#45;&gt;Node8 -->
<g id="edge19" class="edge">
<title>Node3&#45;&gt;Node8</title>
<path fill="none" stroke="#9a32cd" stroke-dasharray="5,2" d="M187.37,-281.25C199.63,-257.03 223.93,-215.15 256,-190.13 296.94,-158.2 313.96,-157.63 365,-148.13 458.62,-130.72 569.27,-138.51 638.05,-146.6"/>
<polygon fill="#9a32cd" stroke="#9a32cd" points="184.12,-279.93 182.86,-290.46 190.4,-283.01 184.12,-279.93"/>
<text text-anchor="middle" x="415.5" y="-162.13" font-family="Helvetica,sans-Serif" font-size="10.00"> threshold</text>
<text text-anchor="middle" x="415.5" y="-151.13" font-family="Helvetica,sans-Serif" font-size="10.00">vom_num</text>
</g>
<!-- Node10 -->
<g id="node10" class="node">
<title>Node10</title>
<g id="a_node10"><a xlink:href="structr__wm__DOC__rect.html" target="_top" xlink:title="structure describing the DOC Rectangle configuration">
<polygon fill="white" stroke="black" points="368,-217.63 368,-236.63 463,-236.63 463,-217.63 368,-217.63"/>
<text text-anchor="middle" x="415.5" y="-224.63" font-family="Helvetica,sans-Serif" font-size="10.00">r_wm_DOC_rect</text>
</a>
</g>
</g>
<!-- Node3&#45;&gt;Node10 -->
<g id="edge13" class="edge">
<title>Node3&#45;&gt;Node10</title>
<path fill="none" stroke="#9a32cd" stroke-dasharray="5,2" d="M215.21,-288.78C261.52,-274.46 340.31,-250.08 383.65,-236.68"/>
<polygon fill="#9a32cd" stroke="#9a32cd" points="214.09,-285.46 205.57,-291.76 216.16,-292.15 214.09,-285.46"/>
<text text-anchor="middle" x="301.5" y="-288.13" font-family="Helvetica,sans-Serif" font-size="10.00"> height</text>
<text text-anchor="middle" x="301.5" y="-277.13" font-family="Helvetica,sans-Serif" font-size="10.00">width</text>
</g>
<!-- Node14 -->
<g id="node14" class="node">
<title>Node14</title>
<g id="a_node14"><a xlink:href="structr__wm__DOC__pos.html" target="_top" xlink:title="structure describing the DOC Position configuration">
<polygon fill="white" stroke="black" points="369,-179.63 369,-198.63 462,-198.63 462,-179.63 369,-179.63"/>
<text text-anchor="middle" x="415.5" y="-186.63" font-family="Helvetica,sans-Serif" font-size="10.00">r_wm_DOC_pos</text>
</a>
</g>
</g>
<!-- Node3&#45;&gt;Node14 -->
<g id="edge18" class="edge">
<title>Node3&#45;&gt;Node14</title>
<path fill="none" stroke="#9a32cd" stroke-dasharray="5,2" d="M191.45,-281.92C205.31,-263.84 228.99,-236.78 256,-222.13 290.96,-203.17 335.7,-195.09 368.72,-191.65"/>
<polygon fill="#9a32cd" stroke="#9a32cd" points="188.28,-280.32 185.13,-290.44 193.9,-284.49 188.28,-280.32"/>
<text text-anchor="middle" x="301.5" y="-236.13" font-family="Helvetica,sans-Serif" font-size="10.00"> pos_x</text>
<text text-anchor="middle" x="301.5" y="-225.13" font-family="Helvetica,sans-Serif" font-size="10.00">pos_y</text>
</g>
<!-- Node4 -->
<g id="node4" class="node">
<title>Node4</title>
<g id="a_node4"><a xlink:title=" ">
<polygon fill="white" stroke="#bfbfbf" points="396.5,-255.63 396.5,-274.63 434.5,-274.63 434.5,-255.63 396.5,-255.63"/>
<text text-anchor="middle" x="415.5" y="-262.63" font-family="Helvetica,sans-Serif" font-size="10.00">bool</text>
</a>
</g>
</g>
<!-- Node4&#45;&gt;Node1 -->
<g id="edge3" class="edge">
<title>Node4&#45;&gt;Node1</title>
<path fill="none" stroke="#9a32cd" stroke-dasharray="5,2" d="M444.68,-259.5C456.73,-257.36 471,-255.19 484,-254.13 615.15,-243.52 650.08,-238.33 780,-259.13 820.61,-265.64 866.03,-280.63 893.43,-290.57"/>
<polygon fill="#9a32cd" stroke="#9a32cd" points="443.93,-256.08 434.74,-261.34 445.21,-262.96 443.93,-256.08"/>
<text text-anchor="middle" x="705" y="-273.13" font-family="Helvetica,sans-Serif" font-size="10.00"> ActMonEnable</text>
<text text-anchor="middle" x="705" y="-262.13" font-family="Helvetica,sans-Serif" font-size="10.00">Enable</text>
</g>
<!-- Node4&#45;&gt;Node5 -->
<g id="edge6" class="edge">
<title>Node4&#45;&gt;Node5</title>
<path fill="none" stroke="#9a32cd" stroke-dasharray="5,2" d="M445.14,-262.2C483.5,-258.96 553.49,-255.51 612,-266.13 637.8,-270.82 665.85,-282.17 684.11,-290.47"/>
<polygon fill="#9a32cd" stroke="#9a32cd" points="444.4,-258.75 434.75,-263.13 445.03,-265.72 444.4,-258.75"/>
<text text-anchor="middle" x="548" y="-324.13" font-family="Helvetica,sans-Serif" font-size="10.00"> ActMonError0</text>
<text text-anchor="middle" x="548" y="-313.13" font-family="Helvetica,sans-Serif" font-size="10.00">ActMonError1</text>
<text text-anchor="middle" x="548" y="-302.13" font-family="Helvetica,sans-Serif" font-size="10.00">MonitorStatus</text>
<text text-anchor="middle" x="548" y="-291.13" font-family="Helvetica,sans-Serif" font-size="10.00">ParameterError</text>
<text text-anchor="middle" x="548" y="-280.13" font-family="Helvetica,sans-Serif" font-size="10.00">VocMonitorStatus</text>
<text text-anchor="middle" x="548" y="-269.13" font-family="Helvetica,sans-Serif" font-size="10.00">VomError</text>
</g>
<!-- Node5&#45;&gt;Node1 -->
<g id="edge4" class="edge">
<title>Node5&#45;&gt;Node1</title>
<path fill="none" stroke="#9a32cd" stroke-dasharray="5,2" d="M773.53,-300.13C809.05,-300.13 851.26,-300.13 880.95,-300.13"/>
<polygon fill="#9a32cd" stroke="#9a32cd" points="773.23,-296.63 763.23,-300.13 773.23,-303.63 773.23,-296.63"/>
<text text-anchor="middle" x="830.5" y="-303.13" font-family="Helvetica,sans-Serif" font-size="10.00"> Callback</text>
</g>
<!-- Node6&#45;&gt;Node1 -->
<g id="edge7" class="edge">
<title>Node6&#45;&gt;Node1</title>
<path fill="none" stroke="#9a32cd" stroke-dasharray="5,2" d="M621.55,-360.04C685.43,-349.84 780.8,-333.53 863,-315.13 870.21,-313.52 877.89,-311.59 885.16,-309.65"/>
<polygon fill="#9a32cd" stroke="#9a32cd" points="620.91,-356.6 611.58,-361.63 622,-363.52 620.91,-356.6"/>
<text text-anchor="middle" x="705" y="-360.13" font-family="Helvetica,sans-Serif" font-size="10.00"> DuParam</text>
</g>
<!-- Node7 -->
<g id="node7" class="node">
<title>Node7</title>
<g id="a_node7"><a xlink:title=" ">
<polygon fill="white" stroke="#bfbfbf" points="682,-108.63 682,-127.63 728,-127.63 728,-108.63 682,-108.63"/>
<text text-anchor="middle" x="705" y="-115.63" font-family="Helvetica,sans-Serif" font-size="10.00">void *</text>
</a>
</g>
</g>
<!-- Node7&#45;&gt;Node1 -->
<g id="edge9" class="edge">
<title>Node7&#45;&gt;Node1</title>
<path fill="none" stroke="#9a32cd" stroke-dasharray="5,2" d="M738.29,-118.28C773.14,-120.13 828.3,-128.24 863,-159.13 903.67,-195.35 914.86,-265.19 917.65,-290.59"/>
<polygon fill="#9a32cd" stroke="#9a32cd" points="738.3,-114.78 728.17,-117.88 738.03,-121.77 738.3,-114.78"/>
<text text-anchor="middle" x="830.5" y="-162.13" font-family="Helvetica,sans-Serif" font-size="10.00"> CbArg</text>
</g>
<!-- Node8&#45;&gt;Node1 -->
<g id="edge10" class="edge">
<title>Node8&#45;&gt;Node1</title>
<path fill="none" stroke="#9a32cd" stroke-dasharray="5,2" d="M778.3,-168.16C806.94,-175.68 838.75,-187.79 863,-207.13 891.51,-229.88 908.68,-271.56 915.33,-290.41"/>
<polygon fill="#9a32cd" stroke="#9a32cd" points="778.87,-164.69 768.32,-165.68 777.18,-171.49 778.87,-164.69"/>
<text text-anchor="middle" x="830.5" y="-210.13" font-family="Helvetica,sans-Serif" font-size="10.00"> DocMonitors</text>
</g>
<!-- Node9 -->
<g id="node9" class="node">
<title>Node9</title>
<g id="a_node9"><a xlink:title=" ">
<polygon fill="white" stroke="#bfbfbf" points="393.5,-45.63 393.5,-64.63 437.5,-64.63 437.5,-45.63 393.5,-45.63"/>
<text text-anchor="middle" x="415.5" y="-52.63" font-family="Helvetica,sans-Serif" font-size="10.00">_Bool</text>
</a>
</g>
</g>
<!-- Node9&#45;&gt;Node8 -->
<g id="edge11" class="edge">
<title>Node9&#45;&gt;Node8</title>
<path fill="none" stroke="#9a32cd" stroke-dasharray="5,2" d="M447.69,-50.95C496.43,-45.14 587.59,-37.4 612,-57.13 640.34,-80.05 604.62,-110.98 630,-137.13 633.69,-140.94 638.04,-144.02 642.75,-146.51"/>
<polygon fill="#9a32cd" stroke="#9a32cd" points="447.19,-47.48 437.69,-52.19 448.05,-54.43 447.19,-47.48"/>
<text text-anchor="middle" x="548" y="-71.13" font-family="Helvetica,sans-Serif" font-size="10.00"> Enable</text>
<text text-anchor="middle" x="548" y="-60.13" font-family="Helvetica,sans-Serif" font-size="10.00">in_use</text>
</g>
<!-- Node10&#45;&gt;Node8 -->
<g id="edge12" class="edge">
<title>Node10&#45;&gt;Node8</title>
<path fill="none" stroke="#9a32cd" stroke-dasharray="5,2" d="M455.88,-214.67C465.06,-211.99 474.83,-209.31 484,-207.13 540.24,-193.79 555.81,-197.68 612,-184.13 633.59,-178.93 657.58,-171.57 675.64,-165.71"/>
<polygon fill="#9a32cd" stroke="#9a32cd" points="454.8,-211.34 446.22,-217.56 456.8,-218.05 454.8,-211.34"/>
<text text-anchor="middle" x="548" y="-210.13" font-family="Helvetica,sans-Serif" font-size="10.00"> rect</text>
</g>
<!-- Node11 -->
<g id="node11" class="node">
<title>Node11</title>
<g id="a_node11"><a xlink:href="structr__wm__DOC__Color.html" target="_top" xlink:title=" ">
<polygon fill="white" stroke="black" points="365,-7.63 365,-26.63 466,-26.63 466,-7.63 365,-7.63"/>
<text text-anchor="middle" x="415.5" y="-14.63" font-family="Helvetica,sans-Serif" font-size="10.00">r_wm_DOC_Color</text>
</a>
</g>
</g>
<!-- Node11&#45;&gt;Node8 -->
<g id="edge14" class="edge">
<title>Node11&#45;&gt;Node8</title>
<path fill="none" stroke="#9a32cd" stroke-dasharray="5,2" d="M462.45,-5.64C506.48,2.39 571.98,6.06 612,-30.13 647.77,-62.48 597.37,-101.62 630,-137.13 633.5,-140.94 637.65,-144.03 642.17,-146.53"/>
<polygon fill="#9a32cd" stroke="#9a32cd" points="461.72,-2.22 452.58,-7.58 463.07,-9.09 461.72,-2.22"/>
<text text-anchor="middle" x="548" y="-33.13" font-family="Helvetica,sans-Serif" font-size="10.00"> color</text>
</g>
<!-- Node12 -->
<g id="node12" class="node">
<title>Node12</title>
<g id="a_node12"><a xlink:href="structr__wm__Doc__Threshold.html" target="_top" xlink:title=" ">
<polygon fill="white" stroke="black" points="117,-31.63 117,-50.63 238,-50.63 238,-31.63 117,-31.63"/>
<text text-anchor="middle" x="177.5" y="-38.63" font-family="Helvetica,sans-Serif" font-size="10.00">r_wm_Doc_Threshold</text>
</a>
</g>
</g>
<!-- Node12&#45;&gt;Node11 -->
<g id="edge15" class="edge">
<title>Node12&#45;&gt;Node11</title>
<path fill="none" stroke="#9a32cd" stroke-dasharray="5,2" d="M248.4,-34.03C285.85,-30.22 331.12,-25.61 364.93,-22.18"/>
<polygon fill="#9a32cd" stroke="#9a32cd" points="247.65,-30.58 238.05,-35.08 248.36,-37.55 247.65,-30.58"/>
<text text-anchor="middle" x="301.5" y="-58.13" font-family="Helvetica,sans-Serif" font-size="10.00"> blue</text>
<text text-anchor="middle" x="301.5" y="-47.13" font-family="Helvetica,sans-Serif" font-size="10.00">green</text>
<text text-anchor="middle" x="301.5" y="-36.13" font-family="Helvetica,sans-Serif" font-size="10.00">red</text>
</g>
<!-- Node13 -->
<g id="node13" class="node">
<title>Node13</title>
<g id="a_node13"><a xlink:title=" ">
<polygon fill="white" stroke="#bfbfbf" points="0,-64.63 0,-83.63 50,-83.63 50,-64.63 0,-64.63"/>
<text text-anchor="middle" x="25" y="-71.63" font-family="Helvetica,sans-Serif" font-size="10.00">uint8_t</text>
</a>
</g>
</g>
<!-- Node13&#45;&gt;Node8 -->
<g id="edge20" class="edge">
<title>Node13&#45;&gt;Node8</title>
<path fill="none" stroke="#9a32cd" stroke-dasharray="5,2" d="M60.62,-78.31C63.12,-78.59 65.6,-78.87 68,-79.13 309.53,-105.5 372.62,-91.56 612,-133.13 617.6,-134.11 643.89,-140.71 666.95,-146.6"/>
<polygon fill="#9a32cd" stroke="#9a32cd" points="60.76,-74.8 50.42,-77.12 59.95,-81.76 60.76,-74.8"/>
<text text-anchor="middle" x="301.5" y="-104.13" font-family="Helvetica,sans-Serif" font-size="10.00"> CLUT</text>
</g>
<!-- Node13&#45;&gt;Node12 -->
<g id="edge16" class="edge">
<title>Node13&#45;&gt;Node12</title>
<path fill="none" stroke="#9a32cd" stroke-dasharray="5,2" d="M56.37,-60.86C60.24,-59.46 64.18,-58.17 68,-57.13 83.62,-52.89 100.83,-49.7 116.85,-47.33"/>
<polygon fill="#9a32cd" stroke="#9a32cd" points="55.09,-57.6 47.03,-64.48 57.62,-64.13 55.09,-57.6"/>
<text text-anchor="middle" x="83.5" y="-71.13" font-family="Helvetica,sans-Serif" font-size="10.00"> lower</text>
<text text-anchor="middle" x="83.5" y="-60.13" font-family="Helvetica,sans-Serif" font-size="10.00">upper</text>
</g>
<!-- Node14&#45;&gt;Node8 -->
<g id="edge17" class="edge">
<title>Node14&#45;&gt;Node8</title>
<path fill="none" stroke="#9a32cd" stroke-dasharray="5,2" d="M461.88,-177.36C469.23,-175.75 476.8,-174.26 484,-173.13 532.26,-165.6 587.02,-161.35 629.83,-158.99"/>
<polygon fill="#9a32cd" stroke="#9a32cd" points="460.99,-173.97 452.03,-179.62 462.56,-180.8 460.99,-173.97"/>
<text text-anchor="middle" x="548" y="-176.13" font-family="Helvetica,sans-Serif" font-size="10.00"> pos</text>
</g>
</g>
</svg>
