<?xml version="1.0" encoding="UTF-8" standalone="no"?>
<!DOCTYPE svg PUBLIC "-//W3C//DTD SVG 1.1//EN"
 "http://www.w3.org/Graphics/SVG/1.1/DTD/svg11.dtd">
<!-- Generated by graphviz version 2.43.0 (0)
 -->
<!-- Title: STag_Eth_TxCBSType Pages: 1 -->
<svg width="222pt" height="95pt"
 viewBox="0.00 0.00 221.50 95.00" xmlns="http://www.w3.org/2000/svg" xmlns:xlink="http://www.w3.org/1999/xlink">
<g id="graph0" class="graph" transform="scale(1 1) rotate(0) translate(4 91)">
<title>STag_Eth_TxCBSType</title>
<polygon fill="white" stroke="transparent" points="-4,4 -4,-91 217.5,-91 217.5,4 -4,4"/>
<!-- Node1 -->
<g id="node1" class="node">
<title>Node1</title>
<g id="a_node1"><a xlink:title=" ">
<polygon fill="#bfbfbf" stroke="black" points="77,-0.5 77,-19.5 196,-19.5 196,-0.5 77,-0.5"/>
<text text-anchor="middle" x="136.5" y="-7.5" font-family="Helvetica,sans-Serif" font-size="10.00">STag_Eth_TxCBSType</text>
</a>
</g>
</g>
<!-- Node2 -->
<g id="node2" class="node">
<title>Node2</title>
<g id="a_node2"><a xlink:title=" ">
<polygon fill="white" stroke="#bfbfbf" points="0,-67.5 0,-86.5 157,-86.5 157,-67.5 0,-67.5"/>
<text text-anchor="middle" x="78.5" y="-74.5" font-family="Helvetica,sans-Serif" font-size="10.00">enum ETag_Eth_TxQPrioType</text>
</a>
</g>
</g>
<!-- Node2&#45;&gt;Node1 -->
<g id="edge1" class="edge">
<title>Node2&#45;&gt;Node1</title>
<path fill="none" stroke="#9a32cd" stroke-dasharray="5,2" d="M93.1,-59.63C104.45,-46.92 119.73,-29.8 128.8,-19.63"/>
<polygon fill="#9a32cd" stroke="#9a32cd" points="90.37,-57.44 86.32,-67.23 95.59,-62.1 90.37,-57.44"/>
<text text-anchor="middle" x="122.5" y="-41" font-family="Helvetica,sans-Serif" font-size="10.00"> Tqp</text>
</g>
<!-- Node3 -->
<g id="node3" class="node">
<title>Node3</title>
<g id="a_node3"><a xlink:title=" ">
<polygon fill="white" stroke="#bfbfbf" points="175.5,-67.5 175.5,-86.5 213.5,-86.5 213.5,-67.5 175.5,-67.5"/>
<text text-anchor="middle" x="194.5" y="-74.5" font-family="Helvetica,sans-Serif" font-size="10.00">char</text>
</a>
</g>
</g>
<!-- Node3&#45;&gt;Node1 -->
<g id="edge2" class="edge">
<title>Node3&#45;&gt;Node1</title>
<path fill="none" stroke="#9a32cd" stroke-dasharray="5,2" d="M179.9,-59.63C168.55,-46.92 153.27,-29.8 144.2,-19.63"/>
<polygon fill="#9a32cd" stroke="#9a32cd" points="177.41,-62.1 186.68,-67.23 182.63,-57.44 177.41,-62.1"/>
<text text-anchor="middle" x="181.5" y="-41" font-family="Helvetica,sans-Serif" font-size="10.00"> Ecbs</text>
</g>
</g>
</svg>
