<?xml version="1.0" encoding="UTF-8" standalone="no"?>
<!DOCTYPE svg PUBLIC "-//W3C//DTD SVG 1.1//EN"
 "http://www.w3.org/Graphics/SVG/1.1/DTD/svg11.dtd">
<!-- Generated by graphviz version 2.43.0 (0)
 -->
<!-- Title: r_vin_Config_t Pages: 1 -->
<svg width="452pt" height="150pt"
 viewBox="0.00 0.00 452.00 150.00" xmlns="http://www.w3.org/2000/svg" xmlns:xlink="http://www.w3.org/1999/xlink">
<g id="graph0" class="graph" transform="scale(1 1) rotate(0) translate(4 146)">
<title>r_vin_Config_t</title>
<polygon fill="white" stroke="transparent" points="-4,4 -4,-146 448,-146 448,4 -4,4"/>
<!-- Node1 -->
<g id="node1" class="node">
<title>Node1</title>
<g id="a_node1"><a xlink:title="Video input configuration information.">
<polygon fill="#bfbfbf" stroke="black" points="154,-0.5 154,-19.5 240,-19.5 240,-0.5 154,-0.5"/>
<text text-anchor="middle" x="197" y="-7.5" font-family="Helvetica,sans-Serif" font-size="10.00">r_vin_Config_t</text>
</a>
</g>
</g>
<!-- Node2 -->
<g id="node2" class="node">
<title>Node2</title>
<g id="a_node2"><a xlink:title=" ">
<polygon fill="white" stroke="#bfbfbf" points="0,-122.5 0,-141.5 50,-141.5 50,-122.5 0,-122.5"/>
<text text-anchor="middle" x="25" y="-129.5" font-family="Helvetica,sans-Serif" font-size="10.00">int32_t</text>
</a>
</g>
</g>
<!-- Node2&#45;&gt;Node1 -->
<g id="edge1" class="edge">
<title>Node2&#45;&gt;Node1</title>
<path fill="none" stroke="#9a32cd" stroke-dasharray="5,2" d="M26.73,-112.16C29.74,-90.86 37.91,-56.71 60,-38 73.97,-26.17 119.12,-18.9 153.81,-14.93"/>
<polygon fill="#9a32cd" stroke="#9a32cd" points="23.24,-111.9 25.56,-122.24 30.19,-112.71 23.24,-111.9"/>
<text text-anchor="middle" x="76.5" y="-74" font-family="Helvetica,sans-Serif" font-size="10.00"> Offset</text>
<text text-anchor="middle" x="76.5" y="-63" font-family="Helvetica,sans-Serif" font-size="10.00">Stride</text>
</g>
<!-- Node3 -->
<g id="node3" class="node">
<title>Node3</title>
<g id="a_node3"><a xlink:title=" ">
<polygon fill="white" stroke="#bfbfbf" points="68,-122.5 68,-141.5 124,-141.5 124,-122.5 68,-122.5"/>
<text text-anchor="middle" x="96" y="-129.5" font-family="Helvetica,sans-Serif" font-size="10.00">uint32_t</text>
</a>
</g>
</g>
<!-- Node3&#45;&gt;Node1 -->
<g id="edge2" class="edge">
<title>Node3&#45;&gt;Node1</title>
<path fill="none" stroke="#9a32cd" stroke-dasharray="5,2" d="M96.83,-112.24C98.73,-91.53 104.8,-58.42 124,-38 132.05,-29.43 143.06,-23.57 154.09,-19.57"/>
<polygon fill="#9a32cd" stroke="#9a32cd" points="93.33,-112.1 96.15,-122.31 100.32,-112.57 93.33,-112.1"/>
<text text-anchor="middle" x="140" y="-74" font-family="Helvetica,sans-Serif" font-size="10.00"> pos_x</text>
<text text-anchor="middle" x="140" y="-63" font-family="Helvetica,sans-Serif" font-size="10.00">pos_y</text>
</g>
<!-- Node4 -->
<g id="node4" class="node">
<title>Node4</title>
<g id="a_node4"><a xlink:title=" ">
<polygon fill="white" stroke="#bfbfbf" points="142,-122.5 142,-141.5 192,-141.5 192,-122.5 142,-122.5"/>
<text text-anchor="middle" x="167" y="-129.5" font-family="Helvetica,sans-Serif" font-size="10.00">uint8_t</text>
</a>
</g>
</g>
<!-- Node4&#45;&gt;Node1 -->
<g id="edge3" class="edge">
<title>Node4&#45;&gt;Node1</title>
<path fill="none" stroke="#9a32cd" stroke-dasharray="5,2" d="M163.04,-112.33C159.84,-92.88 157.42,-61.95 168,-38 171.28,-30.57 177.7,-24.26 183.66,-19.61"/>
<polygon fill="#9a32cd" stroke="#9a32cd" points="159.63,-113.14 164.92,-122.32 166.51,-111.84 159.63,-113.14"/>
<text text-anchor="middle" x="187" y="-74" font-family="Helvetica,sans-Serif" font-size="10.00"> VmcIm</text>
<text text-anchor="middle" x="187" y="-63" font-family="Helvetica,sans-Serif" font-size="10.00">VmcInf</text>
</g>
<!-- Node5 -->
<g id="node5" class="node">
<title>Node5</title>
<g id="a_node5"><a xlink:title=" ">
<polygon fill="white" stroke="#bfbfbf" points="210,-122.5 210,-141.5 248,-141.5 248,-122.5 210,-122.5"/>
<text text-anchor="middle" x="229" y="-129.5" font-family="Helvetica,sans-Serif" font-size="10.00">bool</text>
</a>
</g>
</g>
<!-- Node5&#45;&gt;Node1 -->
<g id="edge4" class="edge">
<title>Node5&#45;&gt;Node1</title>
<path fill="none" stroke="#9a32cd" stroke-dasharray="5,2" d="M224.83,-112.27C220.52,-93.4 213.4,-63.52 206,-38 204.24,-31.93 201.99,-25.18 200.18,-19.94"/>
<polygon fill="#9a32cd" stroke="#9a32cd" points="221.46,-113.24 227.07,-122.22 228.29,-111.69 221.46,-113.24"/>
<text text-anchor="middle" x="248" y="-68.5" font-family="Helvetica,sans-Serif" font-size="10.00"> Interlaced</text>
</g>
<!-- Node6 -->
<g id="node6" class="node">
<title>Node6</title>
<g id="a_node6"><a xlink:title=" ">
<polygon fill="white" stroke="#bfbfbf" points="278,-122.5 278,-141.5 328,-141.5 328,-122.5 278,-122.5"/>
<text text-anchor="middle" x="303" y="-129.5" font-family="Helvetica,sans-Serif" font-size="10.00">int16_t</text>
</a>
</g>
</g>
<!-- Node6&#45;&gt;Node1 -->
<g id="edge5" class="edge">
<title>Node6&#45;&gt;Node1</title>
<path fill="none" stroke="#9a32cd" stroke-dasharray="5,2" d="M302.97,-112.17C301.91,-91.39 297.06,-58.22 278,-38 268.04,-27.43 253.83,-20.99 240.09,-17.08"/>
<polygon fill="#9a32cd" stroke="#9a32cd" points="299.47,-112.37 303.23,-122.28 306.47,-112.19 299.47,-112.37"/>
<text text-anchor="middle" x="332.5" y="-96" font-family="Helvetica,sans-Serif" font-size="10.00"> Cam_Res_X</text>
<text text-anchor="middle" x="332.5" y="-85" font-family="Helvetica,sans-Serif" font-size="10.00">Cam_Res_Y</text>
<text text-anchor="middle" x="332.5" y="-74" font-family="Helvetica,sans-Serif" font-size="10.00">Out_Res_X</text>
<text text-anchor="middle" x="332.5" y="-63" font-family="Helvetica,sans-Serif" font-size="10.00">Out_Res_Y</text>
<text text-anchor="middle" x="332.5" y="-52" font-family="Helvetica,sans-Serif" font-size="10.00">Scaled_X</text>
<text text-anchor="middle" x="332.5" y="-41" font-family="Helvetica,sans-Serif" font-size="10.00">Scaled_Y</text>
</g>
<!-- Node7 -->
<g id="node7" class="node">
<title>Node7</title>
<g id="a_node7"><a xlink:title=" ">
<polygon fill="white" stroke="#bfbfbf" points="346,-122.5 346,-141.5 428,-141.5 428,-122.5 346,-122.5"/>
<text text-anchor="middle" x="387" y="-129.5" font-family="Helvetica,sans-Serif" font-size="10.00">r_vin_OUTF_t</text>
</a>
</g>
</g>
<!-- Node7&#45;&gt;Node1 -->
<g id="edge6" class="edge">
<title>Node7&#45;&gt;Node1</title>
<path fill="none" stroke="#9a32cd" stroke-dasharray="5,2" d="M388.23,-112.25C388.5,-91.03 385.4,-56.96 365,-38 347.31,-21.56 283.69,-15.1 240.02,-12.59"/>
<polygon fill="#9a32cd" stroke="#9a32cd" points="384.73,-112.16 387.83,-122.29 391.72,-112.43 384.73,-112.16"/>
<text text-anchor="middle" x="416" y="-68.5" font-family="Helvetica,sans-Serif" font-size="10.00"> OutputFmt</text>
</g>
</g>
</svg>
