<?xml version="1.0" encoding="UTF-8" standalone="no"?>
<!DOCTYPE svg PUBLIC "-//W3C//DTD SVG 1.1//EN"
 "http://www.w3.org/Graphics/SVG/1.1/DTD/svg11.dtd">
<!-- Generated by graphviz version 2.43.0 (0)
 -->
<!-- Title: taurus_ether_get_egress_time_stamp_in Pages: 1 -->
<svg width="145pt" height="117pt"
 viewBox="0.00 0.00 145.00 117.00" xmlns="http://www.w3.org/2000/svg" xmlns:xlink="http://www.w3.org/1999/xlink">
<g id="graph0" class="graph" transform="scale(1 1) rotate(0) translate(4 113)">
<title>taurus_ether_get_egress_time_stamp_in</title>
<polygon fill="white" stroke="transparent" points="-4,4 -4,-113 141,-113 141,4 -4,4"/>
<!-- Node1 -->
<g id="node1" class="node">
<title>Node1</title>
<g id="a_node1"><a xlink:title=" ">
<polygon fill="#bfbfbf" stroke="black" points="0,-0.5 0,-30.5 137,-30.5 137,-0.5 0,-0.5"/>
<text text-anchor="start" x="8" y="-18.5" font-family="Helvetica,sans-Serif" font-size="10.00">taurus_ether_get_egress</text>
<text text-anchor="middle" x="68.5" y="-7.5" font-family="Helvetica,sans-Serif" font-size="10.00">_time_stamp_in</text>
</a>
</g>
</g>
<!-- Node2 -->
<g id="node2" class="node">
<title>Node2</title>
<g id="a_node2"><a xlink:title=" ">
<polygon fill="white" stroke="#bfbfbf" points="5.5,-89.5 5.5,-108.5 61.5,-108.5 61.5,-89.5 5.5,-89.5"/>
<text text-anchor="middle" x="33.5" y="-96.5" font-family="Helvetica,sans-Serif" font-size="10.00">uint64_t</text>
</a>
</g>
</g>
<!-- Node2&#45;&gt;Node1 -->
<g id="edge1" class="edge">
<title>Node2&#45;&gt;Node1</title>
<path fill="none" stroke="#9a32cd" stroke-dasharray="5,2" d="M36.86,-79.52C38.96,-70.12 42.1,-58.67 46.5,-49 49.38,-42.67 53.46,-36.23 57.32,-30.77"/>
<polygon fill="#9a32cd" stroke="#9a32cd" points="33.42,-78.89 34.88,-89.38 40.28,-80.27 33.42,-78.89"/>
<text text-anchor="middle" x="64.5" y="-57.5" font-family="Helvetica,sans-Serif" font-size="10.00"> cookie</text>
</g>
<!-- Node3 -->
<g id="node3" class="node">
<title>Node3</title>
<g id="a_node3"><a xlink:title=" ">
<polygon fill="white" stroke="#bfbfbf" points="79.5,-89.5 79.5,-108.5 129.5,-108.5 129.5,-89.5 79.5,-89.5"/>
<text text-anchor="middle" x="104.5" y="-96.5" font-family="Helvetica,sans-Serif" font-size="10.00">uint8_t</text>
</a>
</g>
</g>
<!-- Node3&#45;&gt;Node1 -->
<g id="edge2" class="edge">
<title>Node3&#45;&gt;Node1</title>
<path fill="none" stroke="#9a32cd" stroke-dasharray="5,2" d="M96.59,-80.09C90.02,-65.21 80.79,-44.31 74.73,-30.6"/>
<polygon fill="#9a32cd" stroke="#9a32cd" points="93.41,-81.54 100.65,-89.28 99.81,-78.72 93.41,-81.54"/>
<text text-anchor="middle" x="109" y="-63" font-family="Helvetica,sans-Serif" font-size="10.00"> BufIdx</text>
<text text-anchor="middle" x="109" y="-52" font-family="Helvetica,sans-Serif" font-size="10.00">CtrlIdx</text>
</g>
</g>
</svg>
