<?xml version="1.0" encoding="UTF-8" standalone="no"?>
<!DOCTYPE svg PUBLIC "-//W3C//DTD SVG 1.1//EN"
 "http://www.w3.org/Graphics/SVG/1.1/DTD/svg11.dtd">
<!-- Generated by graphviz version 2.43.0 (0)
 -->
<!-- Title: STag_Eth_TxQueueType Pages: 1 -->
<svg width="517pt" height="162pt"
 viewBox="0.00 0.00 516.50 162.00" xmlns="http://www.w3.org/2000/svg" xmlns:xlink="http://www.w3.org/1999/xlink">
<g id="graph0" class="graph" transform="scale(1 1) rotate(0) translate(4 158)">
<title>STag_Eth_TxQueueType</title>
<polygon fill="white" stroke="transparent" points="-4,4 -4,-158 512.5,-158 512.5,4 -4,4"/>
<!-- Node1 -->
<g id="node1" class="node">
<title>Node1</title>
<g id="a_node1"><a xlink:title=" ">
<polygon fill="#bfbfbf" stroke="black" points="76.5,-0.5 76.5,-19.5 207.5,-19.5 207.5,-0.5 76.5,-0.5"/>
<text text-anchor="middle" x="142" y="-7.5" font-family="Helvetica,sans-Serif" font-size="10.00">STag_Eth_TxQueueType</text>
</a>
</g>
</g>
<!-- Node2 -->
<g id="node2" class="node">
<title>Node2</title>
<g id="a_node2"><a xlink:title=" ">
<polygon fill="white" stroke="#bfbfbf" points="0,-67.5 0,-86.5 38,-86.5 38,-67.5 0,-67.5"/>
<text text-anchor="middle" x="19" y="-74.5" font-family="Helvetica,sans-Serif" font-size="10.00">char</text>
</a>
</g>
</g>
<!-- Node2&#45;&gt;Node1 -->
<g id="edge1" class="edge">
<title>Node2&#45;&gt;Node1</title>
<path fill="none" stroke="#9a32cd" stroke-dasharray="5,2" d="M44.35,-62.6C68.71,-49.73 104.8,-30.66 125.6,-19.67"/>
<polygon fill="#9a32cd" stroke="#9a32cd" points="42.54,-59.6 35.33,-67.37 45.81,-65.79 42.54,-59.6"/>
<text text-anchor="middle" x="94.5" y="-41" font-family="Helvetica,sans-Serif" font-size="10.00"> id</text>
</g>
<!-- Node3 -->
<g id="node3" class="node">
<title>Node3</title>
<g id="a_node3"><a xlink:title=" ">
<polygon fill="white" stroke="#bfbfbf" points="56.5,-67.5 56.5,-86.5 227.5,-86.5 227.5,-67.5 56.5,-67.5"/>
<text text-anchor="middle" x="142" y="-74.5" font-family="Helvetica,sans-Serif" font-size="10.00">enum ETag_Eth_ProcessingType</text>
</a>
</g>
</g>
<!-- Node3&#45;&gt;Node1 -->
<g id="edge2" class="edge">
<title>Node3&#45;&gt;Node1</title>
<path fill="none" stroke="#9a32cd" stroke-dasharray="5,2" d="M142,-57.04C142,-44.67 142,-29.12 142,-19.63"/>
<polygon fill="#9a32cd" stroke="#9a32cd" points="138.5,-57.23 142,-67.23 145.5,-57.23 138.5,-57.23"/>
<text text-anchor="middle" x="186" y="-41" font-family="Helvetica,sans-Serif" font-size="10.00"> QueueProcessing</text>
</g>
<!-- Node4 -->
<g id="node4" class="node">
<title>Node4</title>
<g id="a_node4"><a xlink:href="structSTag__Eth__QueueShaperType.html" target="_top" xlink:title=" ">
<polygon fill="white" stroke="black" points="245.5,-67.5 245.5,-86.5 398.5,-86.5 398.5,-67.5 245.5,-67.5"/>
<text text-anchor="middle" x="322" y="-74.5" font-family="Helvetica,sans-Serif" font-size="10.00">STag_Eth_QueueShaperType</text>
</a>
</g>
</g>
<!-- Node4&#45;&gt;Node1 -->
<g id="edge3" class="edge">
<title>Node4&#45;&gt;Node1</title>
<path fill="none" stroke="#9a32cd" stroke-dasharray="5,2" d="M294.63,-63.16C277.44,-55.34 254.67,-45.47 234,-38 214.59,-30.99 192.39,-24.44 174.67,-19.54"/>
<polygon fill="#9a32cd" stroke="#9a32cd" points="293.51,-66.49 304.06,-67.48 296.43,-60.13 293.51,-66.49"/>
<text text-anchor="middle" x="301.5" y="-41" font-family="Helvetica,sans-Serif" font-size="10.00"> TxQueueShaper</text>
</g>
<!-- Node5 -->
<g id="node5" class="node">
<title>Node5</title>
<g id="a_node5"><a xlink:title=" ">
<polygon fill="white" stroke="#bfbfbf" points="123.5,-134.5 123.5,-153.5 208.5,-153.5 208.5,-134.5 123.5,-134.5"/>
<text text-anchor="middle" x="166" y="-141.5" font-family="Helvetica,sans-Serif" font-size="10.00">unsigned long</text>
</a>
</g>
</g>
<!-- Node5&#45;&gt;Node4 -->
<g id="edge4" class="edge">
<title>Node5&#45;&gt;Node4</title>
<path fill="none" stroke="#9a32cd" stroke-dasharray="5,2" d="M196.12,-130.45C227.01,-117.58 274.23,-97.9 301.2,-86.67"/>
<polygon fill="#9a32cd" stroke="#9a32cd" points="194.6,-127.29 186.72,-134.37 197.29,-133.75 194.6,-127.29"/>
<text text-anchor="middle" x="263" y="-108" font-family="Helvetica,sans-Serif" font-size="10.00"> civ</text>
</g>
<!-- Node6 -->
<g id="node6" class="node">
<title>Node6</title>
<g id="a_node6"><a xlink:title=" ">
<polygon fill="white" stroke="#bfbfbf" points="226.5,-134.5 226.5,-153.5 417.5,-153.5 417.5,-134.5 226.5,-134.5"/>
<text text-anchor="middle" x="322" y="-141.5" font-family="Helvetica,sans-Serif" font-size="10.00">enum ETag_Eth_TxQueuePolicyType</text>
</a>
</g>
</g>
<!-- Node6&#45;&gt;Node4 -->
<g id="edge5" class="edge">
<title>Node6&#45;&gt;Node4</title>
<path fill="none" stroke="#9a32cd" stroke-dasharray="5,2" d="M322,-124.04C322,-111.67 322,-96.12 322,-86.63"/>
<polygon fill="#9a32cd" stroke="#9a32cd" points="318.5,-124.23 322,-134.23 325.5,-124.23 318.5,-124.23"/>
<text text-anchor="middle" x="348" y="-108" font-family="Helvetica,sans-Serif" font-size="10.00"> TxQPolicy</text>
</g>
<!-- Node7 -->
<g id="node7" class="node">
<title>Node7</title>
<g id="a_node7"><a xlink:title=" ">
<polygon fill="white" stroke="#bfbfbf" points="435.5,-134.5 435.5,-153.5 508.5,-153.5 508.5,-134.5 435.5,-134.5"/>
<text text-anchor="middle" x="472" y="-141.5" font-family="Helvetica,sans-Serif" font-size="10.00">signed long</text>
</a>
</g>
</g>
<!-- Node7&#45;&gt;Node4 -->
<g id="edge6" class="edge">
<title>Node7&#45;&gt;Node4</title>
<path fill="none" stroke="#9a32cd" stroke-dasharray="5,2" d="M442.65,-130.28C412.94,-117.41 367.82,-97.85 342,-86.67"/>
<polygon fill="#9a32cd" stroke="#9a32cd" points="441.51,-133.6 452.08,-134.37 444.3,-127.18 441.51,-133.6"/>
<text text-anchor="middle" x="415.5" y="-108" font-family="Helvetica,sans-Serif" font-size="10.00"> cdv</text>
</g>
</g>
</svg>
