<?xml version="1.0" encoding="UTF-8" standalone="no"?>
<!DOCTYPE svg PUBLIC "-//W3C//DTD SVG 1.1//EN"
 "http://www.w3.org/Graphics/SVG/1.1/DTD/svg11.dtd">
<!-- Generated by graphviz version 2.43.0 (0)
 -->
<!-- Title: st_osal_mmngr_config Pages: 1 -->
<svg width="355pt" height="128pt"
 viewBox="0.00 0.00 355.00 128.00" xmlns="http://www.w3.org/2000/svg" xmlns:xlink="http://www.w3.org/1999/xlink">
<g id="graph0" class="graph" transform="scale(1 1) rotate(0) translate(4 124)">
<title>st_osal_mmngr_config</title>
<polygon fill="white" stroke="transparent" points="-4,4 -4,-124 351,-124 351,4 -4,4"/>
<!-- Node1 -->
<g id="node1" class="node">
<title>Node1</title>
<g id="a_node1"><a xlink:title="configuration of Memory Manager.">
<polygon fill="#bfbfbf" stroke="black" points="107,-0.5 107,-19.5 233,-19.5 233,-0.5 107,-0.5"/>
<text text-anchor="middle" x="170" y="-7.5" font-family="Helvetica,sans-Serif" font-size="10.00">st_osal_mmngr_config</text>
</a>
</g>
</g>
<!-- Node2 -->
<g id="node2" class="node">
<title>Node2</title>
<g id="a_node2"><a xlink:title=" ">
<polygon fill="white" stroke="#bfbfbf" points="0,-100.5 0,-119.5 200,-119.5 200,-100.5 0,-100.5"/>
<text text-anchor="middle" x="100" y="-107.5" font-family="Helvetica,sans-Serif" font-size="10.00">enum e_osal_mmngr_allocator_mode</text>
</a>
</g>
</g>
<!-- Node2&#45;&gt;Node1 -->
<g id="edge1" class="edge">
<title>Node2&#45;&gt;Node1</title>
<path fill="none" stroke="#9a32cd" stroke-dasharray="5,2" d="M112.17,-91.96C127.26,-70.83 152.39,-35.65 163.9,-19.54"/>
<polygon fill="#9a32cd" stroke="#9a32cd" points="109.18,-90.13 106.21,-100.3 114.87,-94.2 109.18,-90.13"/>
<text text-anchor="middle" x="165.5" y="-57.5" font-family="Helvetica,sans-Serif" font-size="10.00"> mode</text>
</g>
<!-- Node3 -->
<g id="node3" class="node">
<title>Node3</title>
<g id="a_node3"><a xlink:title=" ">
<polygon fill="white" stroke="#bfbfbf" points="218.5,-100.5 218.5,-119.5 263.5,-119.5 263.5,-100.5 218.5,-100.5"/>
<text text-anchor="middle" x="241" y="-107.5" font-family="Helvetica,sans-Serif" font-size="10.00">size_t</text>
</a>
</g>
</g>
<!-- Node3&#45;&gt;Node1 -->
<g id="edge2" class="edge">
<title>Node3&#45;&gt;Node1</title>
<path fill="none" stroke="#9a32cd" stroke-dasharray="5,2" d="M228.65,-91.96C213.35,-70.83 187.86,-35.65 176.19,-19.54"/>
<polygon fill="#9a32cd" stroke="#9a32cd" points="226,-94.26 234.7,-100.3 231.67,-90.15 226,-94.26"/>
<text text-anchor="middle" x="283.5" y="-74" font-family="Helvetica,sans-Serif" font-size="10.00"> max_allowed_allocations</text>
<text text-anchor="start" x="220" y="-63" font-family="Helvetica,sans-Serif" font-size="10.00">max_registered_monitors</text>
<text text-anchor="middle" x="283.5" y="-52" font-family="Helvetica,sans-Serif" font-size="10.00">_cbs</text>
<text text-anchor="middle" x="283.5" y="-41" font-family="Helvetica,sans-Serif" font-size="10.00">memory_limit</text>
</g>
</g>
</svg>
