<?xml version="1.0" encoding="UTF-8" standalone="no"?>
<!DOCTYPE svg PUBLIC "-//W3C//DTD SVG 1.1//EN"
 "http://www.w3.org/Graphics/SVG/1.1/DTD/svg11.dtd">
<!-- Generated by graphviz version 2.43.0 (0)
 -->
<!-- Title: st_osal_device_soc_type_t Pages: 1 -->
<svg width="214pt" height="106pt"
 viewBox="0.00 0.00 214.00 106.00" xmlns="http://www.w3.org/2000/svg" xmlns:xlink="http://www.w3.org/1999/xlink">
<g id="graph0" class="graph" transform="scale(1 1) rotate(0) translate(4 102)">
<title>st_osal_device_soc_type_t</title>
<polygon fill="white" stroke="transparent" points="-4,4 -4,-102 210,-102 210,4 -4,4"/>
<!-- Node1 -->
<g id="node1" class="node">
<title>Node1</title>
<g id="a_node1"><a xlink:title=" ">
<polygon fill="#bfbfbf" stroke="black" points="27,-0.5 27,-30.5 137,-30.5 137,-0.5 27,-0.5"/>
<text text-anchor="start" x="35" y="-18.5" font-family="Helvetica,sans-Serif" font-size="10.00">st_osal_device_soc</text>
<text text-anchor="middle" x="82" y="-7.5" font-family="Helvetica,sans-Serif" font-size="10.00">_type_t</text>
</a>
</g>
</g>
<!-- Node2 -->
<g id="node2" class="node">
<title>Node2</title>
<g id="a_node2"><a xlink:title=" ">
<polygon fill="white" stroke="#bfbfbf" points="0,-78.5 0,-97.5 56,-97.5 56,-78.5 0,-78.5"/>
<text text-anchor="middle" x="28" y="-85.5" font-family="Helvetica,sans-Serif" font-size="10.00">uint64_t</text>
</a>
</g>
</g>
<!-- Node2&#45;&gt;Node1 -->
<g id="edge1" class="edge">
<title>Node2&#45;&gt;Node1</title>
<path fill="none" stroke="#9a32cd" stroke-dasharray="5,2" d="M24.99,-68.22C24.83,-61.76 25.7,-54.71 29,-49 33.42,-41.33 40.45,-35.25 47.96,-30.51"/>
<polygon fill="#9a32cd" stroke="#9a32cd" points="21.51,-68.61 25.98,-78.22 28.47,-67.92 21.51,-68.61"/>
<text text-anchor="middle" x="71.5" y="-52" font-family="Helvetica,sans-Serif" font-size="10.00"> device_soc_type</text>
</g>
<!-- Node3 -->
<g id="node3" class="node">
<title>Node3</title>
<g id="a_node3"><a xlink:title=" ">
<polygon fill="white" stroke="#bfbfbf" points="108,-78.5 108,-97.5 164,-97.5 164,-78.5 108,-78.5"/>
<text text-anchor="middle" x="136" y="-85.5" font-family="Helvetica,sans-Serif" font-size="10.00">uint32_t</text>
</a>
</g>
</g>
<!-- Node3&#45;&gt;Node1 -->
<g id="edge2" class="edge">
<title>Node3&#45;&gt;Node1</title>
<path fill="none" stroke="#9a32cd" stroke-dasharray="5,2" d="M127.11,-69.54C123.41,-62.88 118.84,-55.35 114,-49 109.1,-42.58 103.03,-36.11 97.49,-30.66"/>
<polygon fill="#9a32cd" stroke="#9a32cd" points="124.07,-71.28 131.85,-78.46 130.25,-67.99 124.07,-71.28"/>
<text text-anchor="middle" x="163.5" y="-52" font-family="Helvetica,sans-Serif" font-size="10.00"> device_soc_type</text>
</g>
</g>
</svg>
