<?xml version="1.0" encoding="UTF-8" standalone="no"?>
<!DOCTYPE svg PUBLIC "-//W3C//DTD SVG 1.1//EN"
 "http://www.w3.org/Graphics/SVG/1.1/DTD/svg11.dtd">
<!-- Generated by graphviz version 2.43.0 (0)
 -->
<!-- Title: STag_Eth_QConfigType Pages: 1 -->
<svg width="536pt" height="95pt"
 viewBox="0.00 0.00 536.00 95.00" xmlns="http://www.w3.org/2000/svg" xmlns:xlink="http://www.w3.org/1999/xlink">
<g id="graph0" class="graph" transform="scale(1 1) rotate(0) translate(4 91)">
<title>STag_Eth_QConfigType</title>
<polygon fill="white" stroke="transparent" points="-4,4 -4,-91 532,-91 532,4 -4,4"/>
<!-- Node1 -->
<g id="node1" class="node">
<title>Node1</title>
<g id="a_node1"><a xlink:title=" ">
<polygon fill="#bfbfbf" stroke="black" points="186,-0.5 186,-19.5 312,-19.5 312,-0.5 186,-0.5"/>
<text text-anchor="middle" x="249" y="-7.5" font-family="Helvetica,sans-Serif" font-size="10.00">STag_Eth_QConfigType</text>
</a>
</g>
</g>
<!-- Node2 -->
<g id="node2" class="node">
<title>Node2</title>
<g id="a_node2"><a xlink:title=" ">
<polygon fill="white" stroke="#bfbfbf" points="0,-67.5 0,-86.5 140,-86.5 140,-67.5 0,-67.5"/>
<text text-anchor="middle" x="70" y="-74.5" font-family="Helvetica,sans-Serif" font-size="10.00">enum ETag_Eth_TSelType</text>
</a>
</g>
</g>
<!-- Node2&#45;&gt;Node1 -->
<g id="edge1" class="edge">
<title>Node2&#45;&gt;Node1</title>
<path fill="none" stroke="#9a32cd" stroke-dasharray="5,2" d="M103.22,-63.94C138.73,-51.04 194.13,-30.92 225.42,-19.56"/>
<polygon fill="#9a32cd" stroke="#9a32cd" points="101.97,-60.67 93.77,-67.37 104.36,-67.25 101.97,-60.67"/>
<text text-anchor="middle" x="182" y="-41" font-family="Helvetica,sans-Serif" font-size="10.00"> Tsel</text>
</g>
<!-- Node3 -->
<g id="node3" class="node">
<title>Node3</title>
<g id="a_node3"><a xlink:title=" ">
<polygon fill="white" stroke="#bfbfbf" points="158,-67.5 158,-86.5 340,-86.5 340,-67.5 158,-67.5"/>
<text text-anchor="middle" x="249" y="-74.5" font-family="Helvetica,sans-Serif" font-size="10.00">enum ETag_Eth_RxSyncModeType</text>
</a>
</g>
</g>
<!-- Node3&#45;&gt;Node1 -->
<g id="edge2" class="edge">
<title>Node3&#45;&gt;Node1</title>
<path fill="none" stroke="#9a32cd" stroke-dasharray="5,2" d="M249,-57.04C249,-44.67 249,-29.12 249,-19.63"/>
<polygon fill="#9a32cd" stroke="#9a32cd" points="245.5,-57.23 249,-67.23 252.5,-57.23 245.5,-57.23"/>
<text text-anchor="middle" x="261.5" y="-41" font-family="Helvetica,sans-Serif" font-size="10.00"> Rsm</text>
</g>
<!-- Node4 -->
<g id="node4" class="node">
<title>Node4</title>
<g id="a_node4"><a xlink:title=" ">
<polygon fill="white" stroke="#bfbfbf" points="358,-67.5 358,-86.5 528,-86.5 528,-67.5 358,-67.5"/>
<text text-anchor="middle" x="443" y="-74.5" font-family="Helvetica,sans-Serif" font-size="10.00">enum ETag_Eth_UFCConfigType</text>
</a>
</g>
</g>
<!-- Node4&#45;&gt;Node1 -->
<g id="edge3" class="edge">
<title>Node4&#45;&gt;Node1</title>
<path fill="none" stroke="#9a32cd" stroke-dasharray="5,2" d="M407.49,-64.1C369.02,-51.21 308.61,-30.97 274.56,-19.56"/>
<polygon fill="#9a32cd" stroke="#9a32cd" points="406.64,-67.51 417.24,-67.37 408.87,-60.87 406.64,-67.51"/>
<text text-anchor="middle" x="369.5" y="-41" font-family="Helvetica,sans-Serif" font-size="10.00"> Ufcc</text>
</g>
</g>
</svg>
