<?xml version="1.0" encoding="UTF-8" standalone="no"?>
<!DOCTYPE svg PUBLIC "-//W3C//DTD SVG 1.1//EN"
 "http://www.w3.org/Graphics/SVG/1.1/DTD/svg11.dtd">
<!-- Generated by graphviz version 2.43.0 (0)
 -->
<!-- Title: r_wm_Discom_t Pages: 1 -->
<svg width="196pt" height="150pt"
 viewBox="0.00 0.00 196.00 150.00" xmlns="http://www.w3.org/2000/svg" xmlns:xlink="http://www.w3.org/1999/xlink">
<g id="graph0" class="graph" transform="scale(1 1) rotate(0) translate(4 146)">
<title>r_wm_Discom_t</title>
<polygon fill="white" stroke="transparent" points="-4,4 -4,-146 192,-146 192,4 -4,4"/>
<!-- Node1 -->
<g id="node1" class="node">
<title>Node1</title>
<g id="a_node1"><a xlink:title=" ">
<polygon fill="#bfbfbf" stroke="black" points="49.5,-0.5 49.5,-19.5 144.5,-19.5 144.5,-0.5 49.5,-0.5"/>
<text text-anchor="middle" x="97" y="-7.5" font-family="Helvetica,sans-Serif" font-size="10.00">r_wm_Discom_t</text>
</a>
</g>
</g>
<!-- Node2 -->
<g id="node2" class="node">
<title>Node2</title>
<g id="a_node2"><a xlink:title=" ">
<polygon fill="white" stroke="#bfbfbf" points="0,-122.5 0,-141.5 56,-141.5 56,-122.5 0,-122.5"/>
<text text-anchor="middle" x="28" y="-129.5" font-family="Helvetica,sans-Serif" font-size="10.00">uint32_t</text>
</a>
</g>
</g>
<!-- Node2&#45;&gt;Node1 -->
<g id="edge1" class="edge">
<title>Node2&#45;&gt;Node1</title>
<path fill="none" stroke="#9a32cd" stroke-dasharray="5,2" d="M27.35,-112.23C27.6,-92 30.83,-59.78 47,-38 53.12,-29.76 62.51,-23.76 71.52,-19.54"/>
<polygon fill="#9a32cd" stroke="#9a32cd" points="23.85,-112.38 27.47,-122.34 30.85,-112.3 23.85,-112.38"/>
<text text-anchor="middle" x="70" y="-96" font-family="Helvetica,sans-Serif" font-size="10.00"> Callback</text>
<text text-anchor="middle" x="70" y="-85" font-family="Helvetica,sans-Serif" font-size="10.00">Crc</text>
<text text-anchor="middle" x="70" y="-74" font-family="Helvetica,sans-Serif" font-size="10.00">Height</text>
<text text-anchor="middle" x="70" y="-63" font-family="Helvetica,sans-Serif" font-size="10.00">PosX</text>
<text text-anchor="middle" x="70" y="-52" font-family="Helvetica,sans-Serif" font-size="10.00">PosY</text>
<text text-anchor="middle" x="70" y="-41" font-family="Helvetica,sans-Serif" font-size="10.00">Width</text>
</g>
<!-- Node3 -->
<g id="node3" class="node">
<title>Node3</title>
<g id="a_node3"><a xlink:title=" ">
<polygon fill="white" stroke="#bfbfbf" points="78,-122.5 78,-141.5 116,-141.5 116,-122.5 78,-122.5"/>
<text text-anchor="middle" x="97" y="-129.5" font-family="Helvetica,sans-Serif" font-size="10.00">bool</text>
</a>
</g>
</g>
<!-- Node3&#45;&gt;Node1 -->
<g id="edge2" class="edge">
<title>Node3&#45;&gt;Node1</title>
<path fill="none" stroke="#9a32cd" stroke-dasharray="5,2" d="M97,-112.15C97,-85.72 97,-38.76 97,-19.55"/>
<polygon fill="#9a32cd" stroke="#9a32cd" points="93.5,-112.37 97,-122.37 100.5,-112.37 93.5,-112.37"/>
<text text-anchor="middle" x="115.5" y="-68.5" font-family="Helvetica,sans-Serif" font-size="10.00"> Enable</text>
</g>
<!-- Node4 -->
<g id="node4" class="node">
<title>Node4</title>
<g id="a_node4"><a xlink:title=" ">
<polygon fill="white" stroke="#bfbfbf" points="134,-122.5 134,-141.5 180,-141.5 180,-122.5 134,-122.5"/>
<text text-anchor="middle" x="157" y="-129.5" font-family="Helvetica,sans-Serif" font-size="10.00">void *</text>
</a>
</g>
</g>
<!-- Node4&#45;&gt;Node1 -->
<g id="edge3" class="edge">
<title>Node4&#45;&gt;Node1</title>
<path fill="none" stroke="#9a32cd" stroke-dasharray="5,2" d="M156.38,-111.98C154.9,-92 150.11,-60.43 135,-38 129.85,-30.35 121.75,-24.16 114.35,-19.64"/>
<polygon fill="#9a32cd" stroke="#9a32cd" points="152.9,-112.45 156.93,-122.25 159.89,-112.07 152.9,-112.45"/>
<text text-anchor="middle" x="171.5" y="-68.5" font-family="Helvetica,sans-Serif" font-size="10.00"> CbArg</text>
</g>
</g>
</svg>
