<?xml version="1.0" encoding="UTF-8" standalone="no"?>
<!DOCTYPE svg PUBLIC "-//W3C//DTD SVG 1.1//EN"
 "http://www.w3.org/Graphics/SVG/1.1/DTD/svg11.dtd">
<!-- Generated by graphviz version 2.43.0 (0)
 -->
<!-- Title: STag_tDet_Error Pages: 1 -->
<svg width="154pt" height="117pt"
 viewBox="0.00 0.00 153.50 117.00" xmlns="http://www.w3.org/2000/svg" xmlns:xlink="http://www.w3.org/1999/xlink">
<g id="graph0" class="graph" transform="scale(1 1) rotate(0) translate(4 113)">
<title>STag_tDet_Error</title>
<polygon fill="white" stroke="transparent" points="-4,4 -4,-113 149.5,-113 149.5,4 -4,4"/>
<!-- Node1 -->
<g id="node1" class="node">
<title>Node1</title>
<g id="a_node1"><a xlink:title=" ">
<polygon fill="#bfbfbf" stroke="black" points="13,-0.5 13,-19.5 107,-19.5 107,-0.5 13,-0.5"/>
<text text-anchor="middle" x="60" y="-7.5" font-family="Helvetica,sans-Serif" font-size="10.00">STag_tDet_Error</text>
</a>
</g>
</g>
<!-- Node2 -->
<g id="node2" class="node">
<title>Node2</title>
<g id="a_node2"><a xlink:title=" ">
<polygon fill="white" stroke="#bfbfbf" points="0,-89.5 0,-108.5 38,-108.5 38,-89.5 0,-89.5"/>
<text text-anchor="middle" x="19" y="-96.5" font-family="Helvetica,sans-Serif" font-size="10.00">char</text>
</a>
</g>
</g>
<!-- Node2&#45;&gt;Node1 -->
<g id="edge1" class="edge">
<title>Node2&#45;&gt;Node1</title>
<path fill="none" stroke="#9a32cd" stroke-dasharray="5,2" d="M18.47,-79.13C18.9,-66.73 21,-50.53 28,-38 32.18,-30.51 39.31,-24.19 45.78,-19.55"/>
<polygon fill="#9a32cd" stroke="#9a32cd" points="14.97,-79.24 18.45,-89.24 21.97,-79.25 14.97,-79.24"/>
<text text-anchor="middle" x="53.5" y="-63" font-family="Helvetica,sans-Serif" font-size="10.00"> ApiId</text>
<text text-anchor="middle" x="53.5" y="-52" font-family="Helvetica,sans-Serif" font-size="10.00">ErrorId</text>
<text text-anchor="middle" x="53.5" y="-41" font-family="Helvetica,sans-Serif" font-size="10.00">InstanceId</text>
</g>
<!-- Node3 -->
<g id="node3" class="node">
<title>Node3</title>
<g id="a_node3"><a xlink:title=" ">
<polygon fill="white" stroke="#bfbfbf" points="56.5,-89.5 56.5,-108.5 145.5,-108.5 145.5,-89.5 56.5,-89.5"/>
<text text-anchor="middle" x="101" y="-96.5" font-family="Helvetica,sans-Serif" font-size="10.00">unsigned short</text>
</a>
</g>
</g>
<!-- Node3&#45;&gt;Node1 -->
<g id="edge2" class="edge">
<title>Node3&#45;&gt;Node1</title>
<path fill="none" stroke="#9a32cd" stroke-dasharray="5,2" d="M95.54,-79.28C91.66,-67.17 85.93,-51.24 79,-38 75.6,-31.5 70.85,-24.75 66.95,-19.63"/>
<polygon fill="#9a32cd" stroke="#9a32cd" points="92.28,-80.61 98.55,-89.15 98.98,-78.57 92.28,-80.61"/>
<text text-anchor="middle" x="116.5" y="-52" font-family="Helvetica,sans-Serif" font-size="10.00"> ModuleId</text>
</g>
</g>
</svg>
