<?xml version="1.0" encoding="UTF-8" standalone="no"?>
<!DOCTYPE svg PUBLIC "-//W3C//DTD SVG 1.1//EN"
 "http://www.w3.org/Graphics/SVG/1.1/DTD/svg11.dtd">
<!-- Generated by graphviz version 2.43.0 (0)
 -->
<!-- Title: st_osal_time Pages: 1 -->
<svg width="125pt" height="95pt"
 viewBox="0.00 0.00 125.00 95.00" xmlns="http://www.w3.org/2000/svg" xmlns:xlink="http://www.w3.org/1999/xlink">
<g id="graph0" class="graph" transform="scale(1 1) rotate(0) translate(4 91)">
<title>st_osal_time</title>
<polygon fill="white" stroke="transparent" points="-4,4 -4,-91 121,-91 121,4 -4,4"/>
<!-- Node1 -->
<g id="node1" class="node">
<title>Node1</title>
<g id="a_node1"><a xlink:title="timespec structure compatible.">
<polygon fill="#bfbfbf" stroke="black" points="17.5,-0.5 17.5,-19.5 96.5,-19.5 96.5,-0.5 17.5,-0.5"/>
<text text-anchor="middle" x="57" y="-7.5" font-family="Helvetica,sans-Serif" font-size="10.00">st_osal_time</text>
</a>
</g>
</g>
<!-- Node2 -->
<g id="node2" class="node">
<title>Node2</title>
<g id="a_node2"><a xlink:title=" ">
<polygon fill="white" stroke="#bfbfbf" points="0,-67.5 0,-86.5 48,-86.5 48,-67.5 0,-67.5"/>
<text text-anchor="middle" x="24" y="-74.5" font-family="Helvetica,sans-Serif" font-size="10.00">time_t</text>
</a>
</g>
</g>
<!-- Node2&#45;&gt;Node1 -->
<g id="edge1" class="edge">
<title>Node2&#45;&gt;Node1</title>
<path fill="none" stroke="#9a32cd" stroke-dasharray="5,2" d="M27.1,-57.59C28.63,-51.16 30.84,-44.04 34,-38 37.54,-31.23 43.04,-24.69 47.78,-19.73"/>
<polygon fill="#9a32cd" stroke="#9a32cd" points="23.65,-56.96 25.13,-67.45 30.52,-58.33 23.65,-56.96"/>
<text text-anchor="middle" x="51.5" y="-41" font-family="Helvetica,sans-Serif" font-size="10.00"> tv_sec</text>
</g>
<!-- Node3 -->
<g id="node3" class="node">
<title>Node3</title>
<g id="a_node3"><a xlink:title=" ">
<polygon fill="white" stroke="#bfbfbf" points="66,-67.5 66,-86.5 116,-86.5 116,-67.5 66,-67.5"/>
<text text-anchor="middle" x="91" y="-74.5" font-family="Helvetica,sans-Serif" font-size="10.00">int32_t</text>
</a>
</g>
</g>
<!-- Node3&#45;&gt;Node1 -->
<g id="edge2" class="edge">
<title>Node3&#45;&gt;Node1</title>
<path fill="none" stroke="#9a32cd" stroke-dasharray="5,2" d="M81.67,-58.16C75.11,-45.63 66.63,-29.41 61.51,-19.63"/>
<polygon fill="#9a32cd" stroke="#9a32cd" points="78.68,-60 86.41,-67.23 84.88,-56.75 78.68,-60"/>
<text text-anchor="middle" x="96.5" y="-41" font-family="Helvetica,sans-Serif" font-size="10.00"> tv_nsec</text>
</g>
</g>
</svg>
