<?xml version="1.0" encoding="UTF-8" standalone="no"?>
<!DOCTYPE svg PUBLIC "-//W3C//DTD SVG 1.1//EN"
 "http://www.w3.org/Graphics/SVG/1.1/DTD/svg11.dtd">
<!-- Generated by graphviz version 2.43.0 (0)
 -->
<!-- Title: st_osal_device_info Pages: 1 -->
<svg width="621pt" height="117pt"
 viewBox="0.00 0.00 621.00 117.00" xmlns="http://www.w3.org/2000/svg" xmlns:xlink="http://www.w3.org/1999/xlink">
<g id="graph0" class="graph" transform="scale(1 1) rotate(0) translate(4 113)">
<title>st_osal_device_info</title>
<polygon fill="white" stroke="transparent" points="-4,4 -4,-113 617,-113 617,4 -4,4"/>
<!-- Node1 -->
<g id="node1" class="node">
<title>Node1</title>
<g id="a_node1"><a xlink:title=" ">
<polygon fill="#bfbfbf" stroke="black" points="219.5,-0.5 219.5,-19.5 332.5,-19.5 332.5,-0.5 219.5,-0.5"/>
<text text-anchor="middle" x="276" y="-7.5" font-family="Helvetica,sans-Serif" font-size="10.00">st_osal_device_info</text>
</a>
</g>
</g>
<!-- Node2 -->
<g id="node2" class="node">
<title>Node2</title>
<g id="a_node2"><a xlink:title=" ">
<polygon fill="white" stroke="#bfbfbf" points="0,-89.5 0,-108.5 98,-108.5 98,-89.5 0,-89.5"/>
<text text-anchor="middle" x="49" y="-96.5" font-family="Helvetica,sans-Serif" font-size="10.00">e_pma_hwa_id_t</text>
</a>
</g>
</g>
<!-- Node2&#45;&gt;Node1 -->
<g id="edge1" class="edge">
<title>Node2&#45;&gt;Node1</title>
<path fill="none" stroke="#9a32cd" stroke-dasharray="5,2" d="M56.76,-79.86C63.66,-66.04 75.13,-47.78 91,-38 111.93,-25.1 172.88,-18.01 219.15,-14.37"/>
<polygon fill="#9a32cd" stroke="#9a32cd" points="53.39,-78.8 52.37,-89.35 59.75,-81.74 53.39,-78.8"/>
<text text-anchor="middle" x="108" y="-52" font-family="Helvetica,sans-Serif" font-size="10.00"> pm_id</text>
</g>
<!-- Node3 -->
<g id="node3" class="node">
<title>Node3</title>
<g id="a_node3"><a xlink:title=" ">
<polygon fill="white" stroke="#bfbfbf" points="116,-89.5 116,-108.5 154,-108.5 154,-89.5 116,-89.5"/>
<text text-anchor="middle" x="135" y="-96.5" font-family="Helvetica,sans-Serif" font-size="10.00">char</text>
</a>
</g>
</g>
<!-- Node3&#45;&gt;Node1 -->
<g id="edge2" class="edge">
<title>Node3&#45;&gt;Node1</title>
<path fill="none" stroke="#9a32cd" stroke-dasharray="5,2" d="M130.13,-79.65C127.83,-66.54 127.38,-49.28 137,-38 147.77,-25.37 185.83,-18.56 219.41,-14.93"/>
<polygon fill="#9a32cd" stroke="#9a32cd" points="126.73,-80.48 132.32,-89.48 133.56,-78.95 126.73,-80.48"/>
<text text-anchor="middle" x="174" y="-63" font-family="Helvetica,sans-Serif" font-size="10.00"> axi_bus_name</text>
<text text-anchor="middle" x="174" y="-52" font-family="Helvetica,sans-Serif" font-size="10.00">id</text>
<text text-anchor="middle" x="174" y="-41" font-family="Helvetica,sans-Serif" font-size="10.00">type</text>
</g>
<!-- Node4 -->
<g id="node4" class="node">
<title>Node4</title>
<g id="a_node4"><a xlink:title=" ">
<polygon fill="white" stroke="#bfbfbf" points="189.5,-89.5 189.5,-108.5 234.5,-108.5 234.5,-89.5 189.5,-89.5"/>
<text text-anchor="middle" x="212" y="-96.5" font-family="Helvetica,sans-Serif" font-size="10.00">size_t</text>
</a>
</g>
</g>
<!-- Node4&#45;&gt;Node1 -->
<g id="edge3" class="edge">
<title>Node4&#45;&gt;Node1</title>
<path fill="none" stroke="#9a32cd" stroke-dasharray="5,2" d="M213.6,-79.35C215.51,-66.59 219.73,-49.88 229,-38 235.25,-29.99 244.6,-23.93 253.31,-19.61"/>
<polygon fill="#9a32cd" stroke="#9a32cd" points="210.11,-79 212.43,-89.34 217.07,-79.81 210.11,-79"/>
<text text-anchor="middle" x="261.5" y="-57.5" font-family="Helvetica,sans-Serif" font-size="10.00"> irq_channels</text>
<text text-anchor="middle" x="261.5" y="-46.5" font-family="Helvetica,sans-Serif" font-size="10.00">range</text>
</g>
<!-- Node5 -->
<g id="node5" class="node">
<title>Node5</title>
<g id="a_node5"><a xlink:title=" ">
<polygon fill="white" stroke="#bfbfbf" points="253,-89.5 253,-108.5 387,-108.5 387,-89.5 253,-89.5"/>
<text text-anchor="middle" x="320" y="-96.5" font-family="Helvetica,sans-Serif" font-size="10.00">enum e_osal_pm_policy</text>
</a>
</g>
</g>
<!-- Node5&#45;&gt;Node1 -->
<g id="edge4" class="edge">
<title>Node5&#45;&gt;Node1</title>
<path fill="none" stroke="#9a32cd" stroke-dasharray="5,2" d="M314.97,-79.53C311.23,-67.29 305.48,-51.14 298,-38 294.29,-31.48 289.01,-24.95 284.56,-19.94"/>
<polygon fill="#9a32cd" stroke="#9a32cd" points="311.71,-80.82 317.84,-89.46 318.43,-78.89 311.71,-80.82"/>
<text text-anchor="middle" x="344" y="-52" font-family="Helvetica,sans-Serif" font-size="10.00"> initial_policy</text>
</g>
<!-- Node6 -->
<g id="node6" class="node">
<title>Node6</title>
<g id="a_node6"><a xlink:href="structst__osal__interrupt__info__t.html" target="_top" xlink:title=" ">
<polygon fill="white" stroke="black" points="405.5,-89.5 405.5,-108.5 536.5,-108.5 536.5,-89.5 405.5,-89.5"/>
<text text-anchor="middle" x="471" y="-96.5" font-family="Helvetica,sans-Serif" font-size="10.00">st_osal_interrupt_info_t</text>
</a>
</g>
</g>
<!-- Node6&#45;&gt;Node1 -->
<g id="edge5" class="edge">
<title>Node6&#45;&gt;Node1</title>
<path fill="none" stroke="#9a32cd" stroke-dasharray="5,2" d="M452.43,-82.89C434.96,-69.35 407.58,-49.86 381,-38 362.7,-29.83 341.45,-23.78 322.88,-19.51"/>
<polygon fill="#9a32cd" stroke="#9a32cd" points="450.59,-85.9 460.61,-89.35 454.94,-80.4 450.59,-85.9"/>
<text text-anchor="middle" x="459" y="-52" font-family="Helvetica,sans-Serif" font-size="10.00"> interrupt</text>
</g>
<!-- Node7 -->
<g id="node7" class="node">
<title>Node7</title>
<g id="a_node7"><a xlink:title=" ">
<polygon fill="white" stroke="#bfbfbf" points="555,-89.5 555,-108.5 613,-108.5 613,-89.5 555,-89.5"/>
<text text-anchor="middle" x="584" y="-96.5" font-family="Helvetica,sans-Serif" font-size="10.00">uintptr_t</text>
</a>
</g>
</g>
<!-- Node7&#45;&gt;Node1 -->
<g id="edge6" class="edge">
<title>Node7&#45;&gt;Node1</title>
<path fill="none" stroke="#9a32cd" stroke-dasharray="5,2" d="M565.28,-83.18C546.42,-69.09 515.89,-48.53 486,-38 436.07,-20.42 375.87,-14.07 332.75,-11.89"/>
<polygon fill="#9a32cd" stroke="#9a32cd" points="563.25,-86.03 573.32,-89.32 567.5,-80.47 563.25,-86.03"/>
<text text-anchor="middle" x="567" y="-52" font-family="Helvetica,sans-Serif" font-size="10.00"> address</text>
</g>
</g>
</svg>
