<?xml version="1.0" encoding="UTF-8" standalone="no"?>
<!DOCTYPE svg PUBLIC "-//W3C//DTD SVG 1.1//EN"
 "http://www.w3.org/Graphics/SVG/1.1/DTD/svg11.dtd">
<!-- Generated by graphviz version 2.43.0 (0)
 -->
<!-- Title: STag_Eth_EicBitsType Pages: 1 -->
<svg width="129pt" height="205pt"
 viewBox="0.00 0.00 129.00 205.00" xmlns="http://www.w3.org/2000/svg" xmlns:xlink="http://www.w3.org/1999/xlink">
<g id="graph0" class="graph" transform="scale(1 1) rotate(0) translate(4 201)">
<title>STag_Eth_EicBitsType</title>
<polygon fill="white" stroke="transparent" points="-4,4 -4,-201 125,-201 125,4 -4,4"/>
<!-- Node1 -->
<g id="node1" class="node">
<title>Node1</title>
<g id="a_node1"><a xlink:title=" ">
<polygon fill="#bfbfbf" stroke="black" points="0,-0.5 0,-19.5 121,-19.5 121,-0.5 0,-0.5"/>
<text text-anchor="middle" x="60.5" y="-7.5" font-family="Helvetica,sans-Serif" font-size="10.00">STag_Eth_EicBitsType</text>
</a>
</g>
</g>
<!-- Node2 -->
<g id="node2" class="node">
<title>Node2</title>
<g id="a_node2"><a xlink:title=" ">
<polygon fill="white" stroke="#bfbfbf" points="18,-177.5 18,-196.5 103,-196.5 103,-177.5 18,-177.5"/>
<text text-anchor="middle" x="60.5" y="-184.5" font-family="Helvetica,sans-Serif" font-size="10.00">unsigned long</text>
</a>
</g>
</g>
<!-- Node2&#45;&gt;Node1 -->
<g id="edge1" class="edge">
<title>Node2&#45;&gt;Node1</title>
<path fill="none" stroke="#9a32cd" stroke-dasharray="5,2" d="M60.5,-166.95C60.5,-129.3 60.5,-46.65 60.5,-19.69"/>
<polygon fill="#9a32cd" stroke="#9a32cd" points="57,-167.08 60.5,-177.08 64,-167.08 57,-167.08"/>
<text text-anchor="middle" x="74.5" y="-151" font-family="Helvetica,sans-Serif" font-size="10.00"> Clle0</text>
<text text-anchor="middle" x="74.5" y="-140" font-family="Helvetica,sans-Serif" font-size="10.00">Clle1</text>
<text text-anchor="middle" x="74.5" y="-129" font-family="Helvetica,sans-Serif" font-size="10.00">Cule0</text>
<text text-anchor="middle" x="74.5" y="-118" font-family="Helvetica,sans-Serif" font-size="10.00">Cule1</text>
<text text-anchor="middle" x="74.5" y="-107" font-family="Helvetica,sans-Serif" font-size="10.00">Mffe</text>
<text text-anchor="middle" x="74.5" y="-96" font-family="Helvetica,sans-Serif" font-size="10.00">Mree</text>
<text text-anchor="middle" x="74.5" y="-85" font-family="Helvetica,sans-Serif" font-size="10.00">Mtee</text>
<text text-anchor="middle" x="74.5" y="-74" font-family="Helvetica,sans-Serif" font-size="10.00">Qee</text>
<text text-anchor="middle" x="74.5" y="-63" font-family="Helvetica,sans-Serif" font-size="10.00">Res</text>
<text text-anchor="middle" x="74.5" y="-52" font-family="Helvetica,sans-Serif" font-size="10.00">See</text>
<text text-anchor="middle" x="74.5" y="-41" font-family="Helvetica,sans-Serif" font-size="10.00">...</text>
</g>
</g>
</svg>
