<?xml version="1.0" encoding="UTF-8" standalone="no"?>
<!DOCTYPE svg PUBLIC "-//W3C//DTD SVG 1.1//EN"
 "http://www.w3.org/Graphics/SVG/1.1/DTD/svg11.dtd">
<!-- Generated by graphviz version 2.43.0 (0)
 -->
<!-- Title: r_vsp2_Rpf_t Pages: 1 -->
<svg width="377pt" height="307pt"
 viewBox="0.00 0.00 376.50 307.00" xmlns="http://www.w3.org/2000/svg" xmlns:xlink="http://www.w3.org/1999/xlink">
<g id="graph0" class="graph" transform="scale(1 1) rotate(0) translate(4 303)">
<title>r_vsp2_Rpf_t</title>
<polygon fill="white" stroke="transparent" points="-4,4 -4,-303 372.5,-303 372.5,4 -4,4"/>
<!-- Node1 -->
<g id="node1" class="node">
<title>Node1</title>
<g id="a_node1"><a xlink:title=" ">
<polygon fill="#bfbfbf" stroke="black" points="92,-0.5 92,-19.5 172,-19.5 172,-0.5 92,-0.5"/>
<text text-anchor="middle" x="132" y="-7.5" font-family="Helvetica,sans-Serif" font-size="10.00">r_vsp2_Rpf_t</text>
</a>
</g>
</g>
<!-- Node2 -->
<g id="node2" class="node">
<title>Node2</title>
<g id="a_node2"><a xlink:title=" ">
<polygon fill="white" stroke="#bfbfbf" points="0,-129 0,-148 56,-148 56,-129 0,-129"/>
<text text-anchor="middle" x="28" y="-136" font-family="Helvetica,sans-Serif" font-size="10.00">uint16_t</text>
</a>
</g>
</g>
<!-- Node2&#45;&gt;Node1 -->
<g id="edge1" class="edge">
<title>Node2&#45;&gt;Node1</title>
<path fill="none" stroke="#9a32cd" stroke-dasharray="5,2" d="M23.73,-118.85C19.88,-96.93 17.34,-60.68 36,-38 49.42,-21.69 71.85,-14.79 91.66,-12.04"/>
<polygon fill="#9a32cd" stroke="#9a32cd" points="20.34,-119.75 25.75,-128.86 27.2,-118.36 20.34,-119.75"/>
<text text-anchor="middle" x="57" y="-52" font-family="Helvetica,sans-Serif" font-size="10.00"> stride_c</text>
<text text-anchor="middle" x="57" y="-41" font-family="Helvetica,sans-Serif" font-size="10.00">stride_y</text>
</g>
<!-- Node3 -->
<g id="node3" class="node">
<title>Node3</title>
<g id="a_node3"><a xlink:title=" ">
<polygon fill="white" stroke="#bfbfbf" points="191,-279.5 191,-298.5 247,-298.5 247,-279.5 191,-279.5"/>
<text text-anchor="middle" x="219" y="-286.5" font-family="Helvetica,sans-Serif" font-size="10.00">uint32_t</text>
</a>
</g>
</g>
<!-- Node3&#45;&gt;Node1 -->
<g id="edge2" class="edge">
<title>Node3&#45;&gt;Node1</title>
<path fill="none" stroke="#9a32cd" stroke-dasharray="5,2" d="M188.86,-275.08C160.32,-261.01 119.2,-235.52 101,-199 77.01,-150.87 89.44,-130.52 101,-78 105.9,-55.72 118.98,-32.03 126.49,-19.66"/>
<polygon fill="#9a32cd" stroke="#9a32cd" points="187.48,-278.3 198.01,-279.42 190.47,-271.97 187.48,-278.3"/>
<text text-anchor="middle" x="133" y="-191" font-family="Helvetica,sans-Serif" font-size="10.00"> AlphaNorm</text>
<text text-anchor="middle" x="133" y="-180" font-family="Helvetica,sans-Serif" font-size="10.00">AlphaRatio</text>
<text text-anchor="middle" x="133" y="-169" font-family="Helvetica,sans-Serif" font-size="10.00">CKeySel</text>
<text text-anchor="middle" x="133" y="-158" font-family="Helvetica,sans-Serif" font-size="10.00">RGBNorm</text>
<text text-anchor="middle" x="133" y="-147" font-family="Helvetica,sans-Serif" font-size="10.00">alpha</text>
<text text-anchor="middle" x="133" y="-136" font-family="Helvetica,sans-Serif" font-size="10.00">alphaExl</text>
<text text-anchor="middle" x="133" y="-125" font-family="Helvetica,sans-Serif" font-size="10.00">alphaSel</text>
<text text-anchor="middle" x="133" y="-114" font-family="Helvetica,sans-Serif" font-size="10.00">bpp</text>
<text text-anchor="middle" x="133" y="-103" font-family="Helvetica,sans-Serif" font-size="10.00">bsel</text>
<text text-anchor="middle" x="133" y="-92" font-family="Helvetica,sans-Serif" font-size="10.00">c_conversion</text>
<text text-anchor="middle" x="133" y="-81" font-family="Helvetica,sans-Serif" font-size="10.00">...</text>
</g>
<!-- Node4 -->
<g id="node4" class="node">
<title>Node4</title>
<g id="a_node4"><a xlink:href="structr__vsp2__Mask__t.html" target="_top" xlink:title=" ">
<polygon fill="white" stroke="black" points="174.5,-129 174.5,-148 263.5,-148 263.5,-129 174.5,-129"/>
<text text-anchor="middle" x="219" y="-136" font-family="Helvetica,sans-Serif" font-size="10.00">r_vsp2_Mask_t</text>
</a>
</g>
</g>
<!-- Node3&#45;&gt;Node4 -->
<g id="edge4" class="edge">
<title>Node3&#45;&gt;Node4</title>
<path fill="none" stroke="#9a32cd" stroke-dasharray="5,2" d="M219,-268.74C219,-236.16 219,-171.42 219,-148.11"/>
<polygon fill="#9a32cd" stroke="#9a32cd" points="215.5,-269.16 219,-279.16 222.5,-269.16 215.5,-269.16"/>
<text text-anchor="middle" x="237.5" y="-253" font-family="Helvetica,sans-Serif" font-size="10.00"> mCb</text>
<text text-anchor="middle" x="237.5" y="-242" font-family="Helvetica,sans-Serif" font-size="10.00">mCr</text>
<text text-anchor="middle" x="237.5" y="-231" font-family="Helvetica,sans-Serif" font-size="10.00">mY</text>
<text text-anchor="middle" x="237.5" y="-220" font-family="Helvetica,sans-Serif" font-size="10.00">maplha</text>
</g>
<!-- Node5 -->
<g id="node5" class="node">
<title>Node5</title>
<g id="a_node5"><a xlink:href="structr__vsp2__Ckey__t.html" target="_top" xlink:title=" ">
<polygon fill="white" stroke="black" points="281.5,-129 281.5,-148 368.5,-148 368.5,-129 281.5,-129"/>
<text text-anchor="middle" x="325" y="-136" font-family="Helvetica,sans-Serif" font-size="10.00">r_vsp2_Ckey_t</text>
</a>
</g>
</g>
<!-- Node3&#45;&gt;Node5 -->
<g id="edge6" class="edge">
<title>Node3&#45;&gt;Node5</title>
<path fill="none" stroke="#9a32cd" stroke-dasharray="5,2" d="M244.52,-274.03C250.04,-270.27 255.55,-265.87 260,-261 292.9,-224.96 314.64,-169.2 322.12,-148.04"/>
<polygon fill="#9a32cd" stroke="#9a32cd" points="242.59,-271.11 235.99,-279.4 246.32,-277.04 242.59,-271.11"/>
<text text-anchor="middle" x="308.5" y="-253" font-family="Helvetica,sans-Serif" font-size="10.00"> mCb</text>
<text text-anchor="middle" x="308.5" y="-242" font-family="Helvetica,sans-Serif" font-size="10.00">mCr</text>
<text text-anchor="middle" x="308.5" y="-231" font-family="Helvetica,sans-Serif" font-size="10.00">mY</text>
<text text-anchor="middle" x="308.5" y="-220" font-family="Helvetica,sans-Serif" font-size="10.00">maplha</text>
</g>
<!-- Node4&#45;&gt;Node1 -->
<g id="edge3" class="edge">
<title>Node4&#45;&gt;Node1</title>
<path fill="none" stroke="#9a32cd" stroke-dasharray="5,2" d="M207.15,-120.26C188.32,-92.9 152.28,-40.49 138.02,-19.76"/>
<polygon fill="#9a32cd" stroke="#9a32cd" points="204.47,-122.55 213.02,-128.81 210.24,-118.58 204.47,-122.55"/>
<text text-anchor="middle" x="181.5" y="-46.5" font-family="Helvetica,sans-Serif" font-size="10.00"> mask</text>
</g>
<!-- Node5&#45;&gt;Node1 -->
<g id="edge5" class="edge">
<title>Node5&#45;&gt;Node1</title>
<path fill="none" stroke="#9a32cd" stroke-dasharray="5,2" d="M312.48,-120.64C302.47,-107.91 287.58,-90.55 272,-78 237.06,-49.86 188.35,-29.98 158.56,-19.52"/>
<polygon fill="#9a32cd" stroke="#9a32cd" points="309.72,-122.79 318.58,-128.6 315.27,-118.53 309.72,-122.79"/>
<text text-anchor="middle" x="259" y="-46.5" font-family="Helvetica,sans-Serif" font-size="10.00"> CKey</text>
</g>
</g>
</svg>
