<?xml version="1.0" encoding="UTF-8" standalone="no"?>
<!DOCTYPE svg PUBLIC "-//W3C//DTD SVG 1.1//EN"
 "http://www.w3.org/Graphics/SVG/1.1/DTD/svg11.dtd">
<!-- Generated by graphviz version 2.43.0 (0)
 -->
<!-- Title: taurus_virtqueue Pages: 1 -->
<svg width="480pt" height="329pt"
 viewBox="0.00 0.00 480.00 329.00" xmlns="http://www.w3.org/2000/svg" xmlns:xlink="http://www.w3.org/1999/xlink">
<g id="graph0" class="graph" transform="scale(1 1) rotate(0) translate(4 325)">
<title>taurus_virtqueue</title>
<polygon fill="white" stroke="transparent" points="-4,4 -4,-325 476,-325 476,4 -4,4"/>
<!-- Node1 -->
<g id="node1" class="node">
<title>Node1</title>
<g id="a_node1"><a xlink:title=" ">
<polygon fill="#bfbfbf" stroke="black" points="293.5,-0.5 293.5,-19.5 392.5,-19.5 392.5,-0.5 293.5,-0.5"/>
<text text-anchor="middle" x="343" y="-7.5" font-family="Helvetica,sans-Serif" font-size="10.00">taurus_virtqueue</text>
</a>
</g>
</g>
<!-- Node2 -->
<g id="node2" class="node">
<title>Node2</title>
<g id="a_node2"><a xlink:href="structvring.html" target="_top" xlink:title=" ">
<polygon fill="white" stroke="black" points="202.5,-67.5 202.5,-86.5 243.5,-86.5 243.5,-67.5 202.5,-67.5"/>
<text text-anchor="middle" x="223" y="-74.5" font-family="Helvetica,sans-Serif" font-size="10.00">vring</text>
</a>
</g>
</g>
<!-- Node2&#45;&gt;Node1 -->
<g id="edge1" class="edge">
<title>Node2&#45;&gt;Node1</title>
<path fill="none" stroke="#9a32cd" stroke-dasharray="5,2" d="M240.32,-60.53C249.32,-53.03 260.76,-44.31 272,-38 285.45,-30.45 301.44,-24.16 314.83,-19.56"/>
<polygon fill="#9a32cd" stroke="#9a32cd" points="237.83,-58.05 232.52,-67.22 242.39,-63.36 237.83,-58.05"/>
<text text-anchor="middle" x="286" y="-41" font-family="Helvetica,sans-Serif" font-size="10.00"> vring</text>
</g>
<!-- Node3 -->
<g id="node3" class="node">
<title>Node3</title>
<g id="a_node3"><a xlink:href="structvring__used.html" target="_top" xlink:title=" ">
<polygon fill="white" stroke="black" points="138,-134.5 138,-153.5 208,-153.5 208,-134.5 138,-134.5"/>
<text text-anchor="middle" x="173" y="-141.5" font-family="Helvetica,sans-Serif" font-size="10.00">vring_used</text>
</a>
</g>
</g>
<!-- Node3&#45;&gt;Node2 -->
<g id="edge2" class="edge">
<title>Node3&#45;&gt;Node2</title>
<path fill="none" stroke="#9a32cd" stroke-dasharray="5,2" d="M179.16,-124.72C181.89,-118.13 185.51,-110.88 190,-105 195.49,-97.83 203.24,-91.36 209.85,-86.55"/>
<polygon fill="#9a32cd" stroke="#9a32cd" points="175.83,-123.64 175.62,-134.23 182.39,-126.08 175.83,-123.64"/>
<text text-anchor="middle" x="203.5" y="-108" font-family="Helvetica,sans-Serif" font-size="10.00"> used</text>
</g>
<!-- Node4 -->
<g id="node4" class="node">
<title>Node4</title>
<g id="a_node4"><a xlink:title=" ">
<polygon fill="white" stroke="#bfbfbf" points="271,-223.5 271,-242.5 327,-242.5 327,-223.5 271,-223.5"/>
<text text-anchor="middle" x="299" y="-230.5" font-family="Helvetica,sans-Serif" font-size="10.00">uint16_t</text>
</a>
</g>
</g>
<!-- Node4&#45;&gt;Node1 -->
<g id="edge13" class="edge">
<title>Node4&#45;&gt;Node1</title>
<path fill="none" stroke="#9a32cd" stroke-dasharray="5,2" d="M315.84,-215.89C319.05,-212.44 322.27,-208.72 325,-205 340.32,-184.17 345.46,-178.74 353,-154 364.29,-116.92 364.38,-105.38 359,-67 356.59,-49.78 350.19,-30.42 346.26,-19.57"/>
<polygon fill="#9a32cd" stroke="#9a32cd" points="313.07,-213.71 308.55,-223.29 318.06,-218.62 313.07,-213.71"/>
<text text-anchor="middle" x="397.5" y="-108" font-family="Helvetica,sans-Serif" font-size="10.00"> last_avail_idx</text>
</g>
<!-- Node4&#45;&gt;Node3 -->
<g id="edge3" class="edge">
<title>Node4&#45;&gt;Node3</title>
<path fill="none" stroke="#9a32cd" stroke-dasharray="5,2" d="M269.62,-218.31C263.35,-214.56 257.1,-210.09 252,-205 240.03,-193.04 245.55,-183.36 233,-172 224.02,-163.87 212.19,-157.85 201.41,-153.58"/>
<polygon fill="#9a32cd" stroke="#9a32cd" points="268.22,-221.53 278.67,-223.29 271.59,-215.4 268.22,-221.53"/>
<text text-anchor="middle" x="265.5" y="-191.5" font-family="Helvetica,sans-Serif" font-size="10.00"> flags</text>
<text text-anchor="middle" x="265.5" y="-180.5" font-family="Helvetica,sans-Serif" font-size="10.00">idx</text>
</g>
<!-- Node7 -->
<g id="node7" class="node">
<title>Node7</title>
<g id="a_node7"><a xlink:href="structvring__avail.html" target="_top" xlink:title=" ">
<polygon fill="white" stroke="black" points="226.5,-134.5 226.5,-153.5 297.5,-153.5 297.5,-134.5 226.5,-134.5"/>
<text text-anchor="middle" x="262" y="-141.5" font-family="Helvetica,sans-Serif" font-size="10.00">vring_avail</text>
</a>
</g>
</g>
<!-- Node4&#45;&gt;Node7 -->
<g id="edge7" class="edge">
<title>Node4&#45;&gt;Node7</title>
<path fill="none" stroke="#9a32cd" stroke-dasharray="5,2" d="M296.06,-213.54C293.64,-201.31 289.53,-185.16 283,-172 279.73,-165.4 274.7,-158.86 270.38,-153.87"/>
<polygon fill="#9a32cd" stroke="#9a32cd" points="292.63,-214.24 297.83,-223.47 299.52,-213.01 292.63,-214.24"/>
<text text-anchor="middle" x="307.5" y="-197" font-family="Helvetica,sans-Serif" font-size="10.00"> flags</text>
<text text-anchor="middle" x="307.5" y="-186" font-family="Helvetica,sans-Serif" font-size="10.00">idx</text>
<text text-anchor="middle" x="307.5" y="-175" font-family="Helvetica,sans-Serif" font-size="10.00">ring</text>
</g>
<!-- Node8 -->
<g id="node8" class="node">
<title>Node8</title>
<g id="a_node8"><a xlink:href="structvring__desc.html" target="_top" xlink:title=" ">
<polygon fill="white" stroke="black" points="50.5,-134.5 50.5,-153.5 119.5,-153.5 119.5,-134.5 50.5,-134.5"/>
<text text-anchor="middle" x="85" y="-141.5" font-family="Helvetica,sans-Serif" font-size="10.00">vring_desc</text>
</a>
</g>
</g>
<!-- Node4&#45;&gt;Node8 -->
<g id="edge10" class="edge">
<title>Node4&#45;&gt;Node8</title>
<path fill="none" stroke="#9a32cd" stroke-dasharray="5,2" d="M260.97,-228.3C241.69,-224.83 218.86,-218.08 202,-205 188.63,-194.62 196.38,-182.36 183,-172 177.82,-167.99 145.67,-159.55 119.59,-153.16"/>
<polygon fill="#9a32cd" stroke="#9a32cd" points="260.54,-231.78 270.97,-229.88 261.63,-224.86 260.54,-231.78"/>
<text text-anchor="middle" x="215.5" y="-191.5" font-family="Helvetica,sans-Serif" font-size="10.00"> flags</text>
<text text-anchor="middle" x="215.5" y="-180.5" font-family="Helvetica,sans-Serif" font-size="10.00">next</text>
</g>
<!-- Node5 -->
<g id="node5" class="node">
<title>Node5</title>
<g id="a_node5"><a xlink:href="structvring__used__elem.html" target="_top" xlink:title=" ">
<polygon fill="white" stroke="black" points="129,-223.5 129,-242.5 229,-242.5 229,-223.5 129,-223.5"/>
<text text-anchor="middle" x="179" y="-230.5" font-family="Helvetica,sans-Serif" font-size="10.00">vring_used_elem</text>
</a>
</g>
</g>
<!-- Node5&#45;&gt;Node3 -->
<g id="edge4" class="edge">
<title>Node5&#45;&gt;Node3</title>
<path fill="none" stroke="#9a32cd" stroke-dasharray="5,2" d="M165.4,-214.74C163.59,-211.65 162.01,-208.34 161,-205 156.75,-190.96 157.96,-186.35 161,-172 162.36,-165.58 165.36,-158.83 168.02,-153.68"/>
<polygon fill="#9a32cd" stroke="#9a32cd" points="162.65,-216.93 171.19,-223.2 168.43,-212.97 162.65,-216.93"/>
<text text-anchor="middle" x="172" y="-186" font-family="Helvetica,sans-Serif" font-size="10.00"> ring</text>
</g>
<!-- Node6 -->
<g id="node6" class="node">
<title>Node6</title>
<g id="a_node6"><a xlink:title=" ">
<polygon fill="white" stroke="#bfbfbf" points="151,-301.5 151,-320.5 207,-320.5 207,-301.5 151,-301.5"/>
<text text-anchor="middle" x="179" y="-308.5" font-family="Helvetica,sans-Serif" font-size="10.00">uint32_t</text>
</a>
</g>
</g>
<!-- Node6&#45;&gt;Node1 -->
<g id="edge14" class="edge">
<title>Node6&#45;&gt;Node1</title>
<path fill="none" stroke="#9a32cd" stroke-dasharray="5,2" d="M217.34,-307.61C294.02,-301.78 459,-283.49 459,-234 459,-234 459,-234 459,-76 459,-43.57 424.06,-27.15 392.53,-18.95"/>
<polygon fill="#9a32cd" stroke="#9a32cd" points="216.85,-304.14 207.13,-308.35 217.36,-311.12 216.85,-304.14"/>
<text text-anchor="middle" x="465.5" y="-141.5" font-family="Helvetica,sans-Serif" font-size="10.00"> id</text>
</g>
<!-- Node6&#45;&gt;Node5 -->
<g id="edge5" class="edge">
<title>Node6&#45;&gt;Node5</title>
<path fill="none" stroke="#9a32cd" stroke-dasharray="5,2" d="M179,-291.22C179,-275.7 179,-254.36 179,-242.62"/>
<polygon fill="#9a32cd" stroke="#9a32cd" points="175.5,-291.28 179,-301.28 182.5,-291.28 175.5,-291.28"/>
<text text-anchor="middle" x="187" y="-275" font-family="Helvetica,sans-Serif" font-size="10.00"> id</text>
<text text-anchor="middle" x="187" y="-264" font-family="Helvetica,sans-Serif" font-size="10.00">len</text>
</g>
<!-- Node6&#45;&gt;Node8 -->
<g id="edge11" class="edge">
<title>Node6&#45;&gt;Node8</title>
<path fill="none" stroke="#9a32cd" stroke-dasharray="5,2" d="M154.78,-295.81C136.94,-284.01 113.65,-265.54 101,-243 84.46,-213.54 83.87,-171.74 84.5,-153.77"/>
<polygon fill="#9a32cd" stroke="#9a32cd" points="153.22,-298.96 163.54,-301.36 156.96,-293.05 153.22,-298.96"/>
<text text-anchor="middle" x="110.5" y="-230.5" font-family="Helvetica,sans-Serif" font-size="10.00"> len</text>
</g>
<!-- Node7&#45;&gt;Node2 -->
<g id="edge6" class="edge">
<title>Node7&#45;&gt;Node2</title>
<path fill="none" stroke="#9a32cd" stroke-dasharray="5,2" d="M234.62,-128.41C230.37,-124.92 226.55,-120.79 224,-116 219.16,-106.91 219.85,-94.79 221.12,-86.71"/>
<polygon fill="#9a32cd" stroke="#9a32cd" points="232.9,-131.48 243.1,-134.34 236.91,-125.74 232.9,-131.48"/>
<text text-anchor="middle" x="238" y="-108" font-family="Helvetica,sans-Serif" font-size="10.00"> avail</text>
</g>
<!-- Node8&#45;&gt;Node2 -->
<g id="edge8" class="edge">
<title>Node8&#45;&gt;Node2</title>
<path fill="none" stroke="#9a32cd" stroke-dasharray="5,2" d="M108.13,-129.27C121.35,-121.68 138.36,-112.33 154,-105 169.96,-97.52 188.6,-90.32 202.48,-85.23"/>
<polygon fill="#9a32cd" stroke="#9a32cd" points="106.14,-126.38 99.25,-134.43 109.66,-132.43 106.14,-126.38"/>
<text text-anchor="middle" x="167" y="-108" font-family="Helvetica,sans-Serif" font-size="10.00"> desc</text>
</g>
<!-- Node9 -->
<g id="node9" class="node">
<title>Node9</title>
<g id="a_node9"><a xlink:title=" ">
<polygon fill="white" stroke="#bfbfbf" points="0,-223.5 0,-242.5 56,-242.5 56,-223.5 0,-223.5"/>
<text text-anchor="middle" x="28" y="-230.5" font-family="Helvetica,sans-Serif" font-size="10.00">uint64_t</text>
</a>
</g>
</g>
<!-- Node9&#45;&gt;Node8 -->
<g id="edge9" class="edge">
<title>Node9&#45;&gt;Node8</title>
<path fill="none" stroke="#9a32cd" stroke-dasharray="5,2" d="M33.2,-213.43C37.28,-200.94 43.82,-184.53 53,-172 58.24,-164.85 65.75,-158.38 72.18,-153.57"/>
<polygon fill="#9a32cd" stroke="#9a32cd" points="29.79,-212.61 30.24,-223.2 36.49,-214.64 29.79,-212.61"/>
<text text-anchor="middle" x="65.5" y="-186" font-family="Helvetica,sans-Serif" font-size="10.00"> addr</text>
</g>
<!-- Node10 -->
<g id="node10" class="node">
<title>Node10</title>
<g id="a_node10"><a xlink:title=" ">
<polygon fill="white" stroke="#bfbfbf" points="315.5,-134.5 315.5,-153.5 344.5,-153.5 344.5,-134.5 315.5,-134.5"/>
<text text-anchor="middle" x="330" y="-141.5" font-family="Helvetica,sans-Serif" font-size="10.00">int</text>
</a>
</g>
</g>
<!-- Node10&#45;&gt;Node1 -->
<g id="edge15" class="edge">
<title>Node10&#45;&gt;Node1</title>
<path fill="none" stroke="#9a32cd" stroke-dasharray="5,2" d="M327.83,-123.74C326.5,-108.33 325.47,-86.19 328,-67 330.26,-49.84 336.25,-30.46 339.94,-19.59"/>
<polygon fill="#9a32cd" stroke="#9a32cd" points="324.39,-124.46 328.86,-134.06 331.35,-123.76 324.39,-124.46"/>
<text text-anchor="middle" x="343.5" y="-74.5" font-family="Helvetica,sans-Serif" font-size="10.00"> notify</text>
</g>
<!-- Node10&#45;&gt;Node2 -->
<g id="edge12" class="edge">
<title>Node10&#45;&gt;Node2</title>
<path fill="none" stroke="#9a32cd" stroke-dasharray="5,2" d="M305.96,-132.32C296.16,-127.68 284.83,-121.94 275,-116 260.07,-106.98 244.03,-94.84 233.77,-86.73"/>
<polygon fill="#9a32cd" stroke="#9a32cd" points="304.61,-135.55 315.16,-136.57 307.55,-129.2 304.61,-135.55"/>
<text text-anchor="middle" x="287.5" y="-108" font-family="Helvetica,sans-Serif" font-size="10.00"> num</text>
</g>
</g>
</svg>
