<?xml version="1.0" encoding="UTF-8" standalone="no"?>
<!DOCTYPE svg PUBLIC "-//W3C//DTD SVG 1.1//EN"
 "http://www.w3.org/Graphics/SVG/1.1/DTD/svg11.dtd">
<!-- Generated by graphviz version 2.43.0 (0)
 -->
<!-- Title: R_TAURUS_ResultMsg_t Pages: 1 -->
<svg width="399pt" height="197pt"
 viewBox="0.00 0.00 399.00 197.00" xmlns="http://www.w3.org/2000/svg" xmlns:xlink="http://www.w3.org/1999/xlink">
<g id="graph0" class="graph" transform="scale(1 1) rotate(0) translate(4 193)">
<title>R_TAURUS_ResultMsg_t</title>
<polygon fill="white" stroke="transparent" points="-4,4 -4,-193 395,-193 395,4 -4,4"/>
<!-- Node1 -->
<g id="node1" class="node">
<title>Node1</title>
<g id="a_node1"><a xlink:title=" ">
<polygon fill="#bfbfbf" stroke="black" points="64,-0.5 64,-19.5 198,-19.5 198,-0.5 64,-0.5"/>
<text text-anchor="middle" x="131" y="-7.5" font-family="Helvetica,sans-Serif" font-size="10.00">R_TAURUS_ResultMsg_t</text>
</a>
</g>
</g>
<!-- Node2 -->
<g id="node2" class="node">
<title>Node2</title>
<g id="a_node2"><a xlink:title=" ">
<polygon fill="white" stroke="#bfbfbf" points="0,-79.5 0,-98.5 56,-98.5 56,-79.5 0,-79.5"/>
<text text-anchor="middle" x="28" y="-86.5" font-family="Helvetica,sans-Serif" font-size="10.00">uint64_t</text>
</a>
</g>
</g>
<!-- Node2&#45;&gt;Node1 -->
<g id="edge1" class="edge">
<title>Node2&#45;&gt;Node1</title>
<path fill="none" stroke="#9a32cd" stroke-dasharray="5,2" d="M34.45,-69.78C39.01,-59.22 46.09,-46.39 56,-38 66.03,-29.5 78.94,-23.59 91.22,-19.52"/>
<polygon fill="#9a32cd" stroke="#9a32cd" points="31.09,-68.75 30.71,-79.34 37.61,-71.3 31.09,-68.75"/>
<text text-anchor="middle" x="67" y="-41" font-family="Helvetica,sans-Serif" font-size="10.00"> Aux</text>
</g>
<!-- Node3 -->
<g id="node3" class="node">
<title>Node3</title>
<g id="a_node3"><a xlink:href="structR__TAURUS__Eth__Data__t.html" target="_top" xlink:title=" ">
<polygon fill="white" stroke="black" points="153.5,-79.5 153.5,-98.5 280.5,-98.5 280.5,-79.5 153.5,-79.5"/>
<text text-anchor="middle" x="217" y="-86.5" font-family="Helvetica,sans-Serif" font-size="10.00">R_TAURUS_Eth_Data_t</text>
</a>
</g>
</g>
<!-- Node3&#45;&gt;Node1 -->
<g id="edge2" class="edge">
<title>Node3&#45;&gt;Node1</title>
<path fill="none" stroke="#9a32cd" stroke-dasharray="5,2" d="M199.57,-72.39C181.77,-56.46 154.81,-32.32 140.57,-19.57"/>
<polygon fill="#9a32cd" stroke="#9a32cd" points="197.68,-75.4 207.47,-79.47 202.35,-70.19 197.68,-75.4"/>
<text text-anchor="middle" x="193.5" y="-41" font-family="Helvetica,sans-Serif" font-size="10.00"> Eth_Aux</text>
</g>
<!-- Node4 -->
<g id="node4" class="node">
<title>Node4</title>
<g id="a_node4"><a xlink:title=" ">
<polygon fill="white" stroke="#bfbfbf" points="80,-169.5 80,-188.5 136,-188.5 136,-169.5 80,-169.5"/>
<text text-anchor="middle" x="108" y="-176.5" font-family="Helvetica,sans-Serif" font-size="10.00">uint32_t</text>
</a>
</g>
</g>
<!-- Node4&#45;&gt;Node1 -->
<g id="edge4" class="edge">
<title>Node4&#45;&gt;Node1</title>
<path fill="none" stroke="#9a32cd" stroke-dasharray="5,2" d="M103.48,-159.71C98.73,-137.45 93,-98.88 101,-67 105.56,-48.81 117.3,-30.09 124.66,-19.56"/>
<polygon fill="#9a32cd" stroke="#9a32cd" points="100.07,-160.52 105.72,-169.48 106.89,-158.95 100.07,-160.52"/>
<text text-anchor="middle" x="122.5" y="-103" font-family="Helvetica,sans-Serif" font-size="10.00"> Channel</text>
<text text-anchor="middle" x="122.5" y="-92" font-family="Helvetica,sans-Serif" font-size="10.00">Id</text>
<text text-anchor="middle" x="122.5" y="-81" font-family="Helvetica,sans-Serif" font-size="10.00">Per</text>
<text text-anchor="middle" x="122.5" y="-70" font-family="Helvetica,sans-Serif" font-size="10.00">Result</text>
</g>
<!-- Node4&#45;&gt;Node3 -->
<g id="edge3" class="edge">
<title>Node4&#45;&gt;Node3</title>
<path fill="none" stroke="#9a32cd" stroke-dasharray="5,2" d="M126.83,-162.8C149.76,-144.29 187.7,-113.66 206.19,-98.72"/>
<polygon fill="#9a32cd" stroke="#9a32cd" points="124.43,-160.24 118.85,-169.24 128.83,-165.68 124.43,-160.24"/>
<text text-anchor="middle" x="179" y="-143" font-family="Helvetica,sans-Serif" font-size="10.00"> Addr</text>
<text text-anchor="middle" x="179" y="-132" font-family="Helvetica,sans-Serif" font-size="10.00">Size</text>
</g>
<!-- Node5 -->
<g id="node5" class="node">
<title>Node5</title>
<g id="a_node5"><a xlink:title=" ">
<polygon fill="white" stroke="#bfbfbf" points="299,-79.5 299,-98.5 391,-98.5 391,-79.5 299,-79.5"/>
<text text-anchor="middle" x="345" y="-86.5" font-family="Helvetica,sans-Serif" font-size="10.00">anonymous:@1</text>
</a>
</g>
</g>
<!-- Node5&#45;&gt;Node1 -->
<g id="edge5" class="edge">
<title>Node5&#45;&gt;Node1</title>
<path fill="none" stroke="#9a32cd" stroke-dasharray="5,2" d="M315.25,-75.41C289.88,-64.87 252.32,-49.7 219,-38 199.85,-31.28 178.04,-24.58 160.93,-19.54"/>
<polygon fill="#9a32cd" stroke="#9a32cd" points="314.1,-78.73 324.68,-79.35 316.8,-72.27 314.1,-78.73"/>
<text text-anchor="middle" x="256.5" y="-41" font-family="Helvetica,sans-Serif" font-size="10.00"> @1</text>
</g>
</g>
</svg>
