<?xml version="1.0" encoding="UTF-8" standalone="no"?>
<!DOCTYPE svg PUBLIC "-//W3C//DTD SVG 1.1//EN"
 "http://www.w3.org/Graphics/SVG/1.1/DTD/svg11.dtd">
<!-- Generated by graphviz version 2.43.0 (0)
 -->
<!-- Title: taurus_ether_get_egress_time_stamp_out Pages: 1 -->
<svg width="312pt" height="117pt"
 viewBox="0.00 0.00 312.00 117.00" xmlns="http://www.w3.org/2000/svg" xmlns:xlink="http://www.w3.org/1999/xlink">
<g id="graph0" class="graph" transform="scale(1 1) rotate(0) translate(4 113)">
<title>taurus_ether_get_egress_time_stamp_out</title>
<polygon fill="white" stroke="transparent" points="-4,4 -4,-113 308,-113 308,4 -4,4"/>
<!-- Node1 -->
<g id="node1" class="node">
<title>Node1</title>
<g id="a_node1"><a xlink:title=" ">
<polygon fill="#bfbfbf" stroke="black" points="71.5,-0.5 71.5,-30.5 208.5,-30.5 208.5,-0.5 71.5,-0.5"/>
<text text-anchor="start" x="79.5" y="-18.5" font-family="Helvetica,sans-Serif" font-size="10.00">taurus_ether_get_egress</text>
<text text-anchor="middle" x="140" y="-7.5" font-family="Helvetica,sans-Serif" font-size="10.00">_time_stamp_out</text>
</a>
</g>
</g>
<!-- Node2 -->
<g id="node2" class="node">
<title>Node2</title>
<g id="a_node2"><a xlink:title=" ">
<polygon fill="white" stroke="#bfbfbf" points="0,-89.5 0,-108.5 56,-108.5 56,-89.5 0,-89.5"/>
<text text-anchor="middle" x="28" y="-96.5" font-family="Helvetica,sans-Serif" font-size="10.00">uint64_t</text>
</a>
</g>
</g>
<!-- Node2&#45;&gt;Node1 -->
<g id="edge1" class="edge">
<title>Node2&#45;&gt;Node1</title>
<path fill="none" stroke="#9a32cd" stroke-dasharray="5,2" d="M35.55,-79.9C40.61,-69.66 48.15,-57.28 58,-49 67.14,-41.31 78.32,-35.29 89.46,-30.63"/>
<polygon fill="#9a32cd" stroke="#9a32cd" points="32.28,-78.65 31.33,-89.2 38.65,-81.55 32.28,-78.65"/>
<text text-anchor="middle" x="76" y="-63" font-family="Helvetica,sans-Serif" font-size="10.00"> cookie</text>
<text text-anchor="middle" x="76" y="-52" font-family="Helvetica,sans-Serif" font-size="10.00">res</text>
</g>
<!-- Node3 -->
<g id="node3" class="node">
<title>Node3</title>
<g id="a_node3"><a xlink:title=" ">
<polygon fill="white" stroke="#bfbfbf" points="74,-89.5 74,-108.5 130,-108.5 130,-89.5 74,-89.5"/>
<text text-anchor="middle" x="102" y="-96.5" font-family="Helvetica,sans-Serif" font-size="10.00">uint16_t</text>
</a>
</g>
</g>
<!-- Node3&#45;&gt;Node1 -->
<g id="edge2" class="edge">
<title>Node3&#45;&gt;Node1</title>
<path fill="none" stroke="#9a32cd" stroke-dasharray="5,2" d="M98.92,-79.22C98.2,-69.75 98.67,-58.32 103,-49 106.32,-41.87 112.03,-35.66 117.98,-30.64"/>
<polygon fill="#9a32cd" stroke="#9a32cd" points="95.45,-79.7 100.14,-89.21 102.4,-78.85 95.45,-79.7"/>
<text text-anchor="middle" x="130" y="-57.5" font-family="Helvetica,sans-Serif" font-size="10.00"> secondsHi</text>
</g>
<!-- Node4 -->
<g id="node4" class="node">
<title>Node4</title>
<g id="a_node4"><a xlink:title=" ">
<polygon fill="white" stroke="#bfbfbf" points="151,-89.5 151,-108.5 207,-108.5 207,-89.5 151,-89.5"/>
<text text-anchor="middle" x="179" y="-96.5" font-family="Helvetica,sans-Serif" font-size="10.00">uint32_t</text>
</a>
</g>
</g>
<!-- Node4&#45;&gt;Node1 -->
<g id="edge3" class="edge">
<title>Node4&#45;&gt;Node1</title>
<path fill="none" stroke="#9a32cd" stroke-dasharray="5,2" d="M171.17,-79.87C167.08,-70.58 161.91,-59.12 157,-49 154.05,-42.93 150.63,-36.31 147.63,-30.64"/>
<polygon fill="#9a32cd" stroke="#9a32cd" points="168.06,-81.49 175.26,-89.25 174.47,-78.69 168.06,-81.49"/>
<text text-anchor="middle" x="199.5" y="-63" font-family="Helvetica,sans-Serif" font-size="10.00"> nanoseconds</text>
<text text-anchor="middle" x="199.5" y="-52" font-family="Helvetica,sans-Serif" font-size="10.00">seconds</text>
</g>
<!-- Node5 -->
<g id="node5" class="node">
<title>Node5</title>
<g id="a_node5"><a xlink:title=" ">
<polygon fill="white" stroke="#bfbfbf" points="244,-89.5 244,-108.5 294,-108.5 294,-89.5 244,-89.5"/>
<text text-anchor="middle" x="269" y="-96.5" font-family="Helvetica,sans-Serif" font-size="10.00">uint8_t</text>
</a>
</g>
</g>
<!-- Node5&#45;&gt;Node1 -->
<g id="edge4" class="edge">
<title>Node5&#45;&gt;Node1</title>
<path fill="none" stroke="#9a32cd" stroke-dasharray="5,2" d="M261.2,-80.39C255.77,-69.94 247.6,-57.19 237,-49 226.81,-41.13 214.61,-35.11 202.36,-30.52"/>
<polygon fill="#9a32cd" stroke="#9a32cd" points="258.08,-81.96 265.56,-89.47 264.39,-78.94 258.08,-81.96"/>
<text text-anchor="middle" x="279.5" y="-57.5" font-family="Helvetica,sans-Serif" font-size="10.00"> timeQual</text>
</g>
</g>
</svg>
