<?xml version="1.0" encoding="UTF-8" standalone="no"?>
<!DOCTYPE svg PUBLIC "-//W3C//DTD SVG 1.1//EN"
 "http://www.w3.org/Graphics/SVG/1.1/DTD/svg11.dtd">
<!-- Generated by graphviz version 2.43.0 (0)
 -->
<!-- Title: taurus_ether_read_mii_in Pages: 1 -->
<svg width="148pt" height="117pt"
 viewBox="0.00 0.00 148.00 117.00" xmlns="http://www.w3.org/2000/svg" xmlns:xlink="http://www.w3.org/1999/xlink">
<g id="graph0" class="graph" transform="scale(1 1) rotate(0) translate(4 113)">
<title>taurus_ether_read_mii_in</title>
<polygon fill="white" stroke="transparent" points="-4,4 -4,-113 144,-113 144,4 -4,4"/>
<!-- Node1 -->
<g id="node1" class="node">
<title>Node1</title>
<g id="a_node1"><a xlink:title=" ">
<polygon fill="#bfbfbf" stroke="black" points="0,-0.5 0,-19.5 140,-19.5 140,-0.5 0,-0.5"/>
<text text-anchor="middle" x="70" y="-7.5" font-family="Helvetica,sans-Serif" font-size="10.00">taurus_ether_read_mii_in</text>
</a>
</g>
</g>
<!-- Node2 -->
<g id="node2" class="node">
<title>Node2</title>
<g id="a_node2"><a xlink:title=" ">
<polygon fill="white" stroke="#bfbfbf" points="7,-89.5 7,-108.5 63,-108.5 63,-89.5 7,-89.5"/>
<text text-anchor="middle" x="35" y="-96.5" font-family="Helvetica,sans-Serif" font-size="10.00">uint64_t</text>
</a>
</g>
</g>
<!-- Node2&#45;&gt;Node1 -->
<g id="edge1" class="edge">
<title>Node2&#45;&gt;Node1</title>
<path fill="none" stroke="#9a32cd" stroke-dasharray="5,2" d="M36.74,-79.49C38.42,-67.25 41.7,-51.09 48,-38 51.25,-31.24 56.51,-24.7 61.08,-19.74"/>
<polygon fill="#9a32cd" stroke="#9a32cd" points="33.26,-79.11 35.59,-89.45 40.21,-79.91 33.26,-79.11"/>
<text text-anchor="middle" x="66" y="-52" font-family="Helvetica,sans-Serif" font-size="10.00"> cookie</text>
</g>
<!-- Node3 -->
<g id="node3" class="node">
<title>Node3</title>
<g id="a_node3"><a xlink:title=" ">
<polygon fill="white" stroke="#bfbfbf" points="81,-89.5 81,-108.5 131,-108.5 131,-89.5 81,-89.5"/>
<text text-anchor="middle" x="106" y="-96.5" font-family="Helvetica,sans-Serif" font-size="10.00">uint8_t</text>
</a>
</g>
</g>
<!-- Node3&#45;&gt;Node1 -->
<g id="edge2" class="edge">
<title>Node3&#45;&gt;Node1</title>
<path fill="none" stroke="#9a32cd" stroke-dasharray="5,2" d="M99.92,-79.58C95.8,-67.58 90.03,-51.68 84,-38 81.28,-31.81 77.78,-25.06 74.96,-19.86"/>
<polygon fill="#9a32cd" stroke="#9a32cd" points="96.7,-80.96 103.2,-89.32 103.33,-78.73 96.7,-80.96"/>
<text text-anchor="middle" x="114" y="-63" font-family="Helvetica,sans-Serif" font-size="10.00"> CtrlIdx</text>
<text text-anchor="middle" x="114" y="-52" font-family="Helvetica,sans-Serif" font-size="10.00">RegIdx</text>
<text text-anchor="middle" x="114" y="-41" font-family="Helvetica,sans-Serif" font-size="10.00">TrcvIdx</text>
</g>
</g>
</svg>
