<?xml version="1.0" encoding="UTF-8" standalone="no"?>
<!DOCTYPE svg PUBLIC "-//W3C//DTD SVG 1.1//EN"
 "http://www.w3.org/Graphics/SVG/1.1/DTD/svg11.dtd">
<!-- Generated by graphviz version 2.43.0 (0)
 -->
<!-- Title: st_osal_rcfg_thread_config Pages: 1 -->
<svg width="397pt" height="184pt"
 viewBox="0.00 0.00 397.00 184.00" xmlns="http://www.w3.org/2000/svg" xmlns:xlink="http://www.w3.org/1999/xlink">
<g id="graph0" class="graph" transform="scale(1 1) rotate(0) translate(4 180)">
<title>st_osal_rcfg_thread_config</title>
<polygon fill="white" stroke="transparent" points="-4,4 -4,-180 393,-180 393,4 -4,4"/>
<!-- Node1 -->
<g id="node1" class="node">
<title>Node1</title>
<g id="a_node1"><a xlink:title=" ">
<polygon fill="#bfbfbf" stroke="black" points="89,-0.5 89,-30.5 201,-30.5 201,-0.5 89,-0.5"/>
<text text-anchor="start" x="97" y="-18.5" font-family="Helvetica,sans-Serif" font-size="10.00">st_osal_rcfg_thread</text>
<text text-anchor="middle" x="145" y="-7.5" font-family="Helvetica,sans-Serif" font-size="10.00">_config</text>
</a>
</g>
</g>
<!-- Node2 -->
<g id="node2" class="node">
<title>Node2</title>
<g id="a_node2"><a xlink:title=" ">
<polygon fill="white" stroke="#bfbfbf" points="99,-78.5 99,-97.5 155,-97.5 155,-78.5 99,-78.5"/>
<text text-anchor="middle" x="127" y="-85.5" font-family="Helvetica,sans-Serif" font-size="10.00">uint64_t</text>
</a>
</g>
</g>
<!-- Node2&#45;&gt;Node1 -->
<g id="edge1" class="edge">
<title>Node2&#45;&gt;Node1</title>
<path fill="none" stroke="#9a32cd" stroke-dasharray="5,2" d="M131.7,-68.6C134.73,-56.72 138.62,-41.49 141.41,-30.58"/>
<polygon fill="#9a32cd" stroke="#9a32cd" points="128.29,-67.8 129.21,-78.36 135.07,-69.53 128.29,-67.8"/>
<text text-anchor="middle" x="142.5" y="-52" font-family="Helvetica,sans-Serif" font-size="10.00"> id</text>
</g>
<!-- Node3 -->
<g id="node3" class="node">
<title>Node3</title>
<g id="a_node3"><a xlink:href="structst__osal__thread__config.html" target="_top" xlink:title="configuration of thread.">
<polygon fill="white" stroke="black" points="173,-78.5 173,-97.5 295,-97.5 295,-78.5 173,-78.5"/>
<text text-anchor="middle" x="234" y="-85.5" font-family="Helvetica,sans-Serif" font-size="10.00">st_osal_thread_config</text>
</a>
</g>
</g>
<!-- Node3&#45;&gt;Node1 -->
<g id="edge2" class="edge">
<title>Node3&#45;&gt;Node1</title>
<path fill="none" stroke="#9a32cd" stroke-dasharray="5,2" d="M215.22,-72.13C199.75,-59.87 177.96,-42.61 162.77,-30.58"/>
<polygon fill="#9a32cd" stroke="#9a32cd" points="213.07,-74.89 223.09,-78.36 217.42,-69.4 213.07,-74.89"/>
<text text-anchor="middle" x="213.5" y="-52" font-family="Helvetica,sans-Serif" font-size="10.00"> config</text>
</g>
<!-- Node4 -->
<g id="node4" class="node">
<title>Node4</title>
<g id="a_node4"><a xlink:title=" ">
<polygon fill="white" stroke="#bfbfbf" points="0,-145.5 0,-175.5 116,-175.5 116,-145.5 0,-145.5"/>
<text text-anchor="start" x="8" y="-163.5" font-family="Helvetica,sans-Serif" font-size="10.00">enum e_osal_thread</text>
<text text-anchor="middle" x="58" y="-152.5" font-family="Helvetica,sans-Serif" font-size="10.00">_priority</text>
</a>
</g>
</g>
<!-- Node4&#45;&gt;Node3 -->
<g id="edge3" class="edge">
<title>Node4&#45;&gt;Node3</title>
<path fill="none" stroke="#9a32cd" stroke-dasharray="5,2" d="M81.59,-139.03C92.13,-130.81 105.07,-121.9 118,-116 136.44,-107.59 157.76,-101.66 177.05,-97.55"/>
<polygon fill="#9a32cd" stroke="#9a32cd" points="79.28,-136.4 73.7,-145.4 83.68,-141.84 79.28,-136.4"/>
<text text-anchor="middle" x="137.5" y="-119" font-family="Helvetica,sans-Serif" font-size="10.00"> priority</text>
</g>
<!-- Node5 -->
<g id="node5" class="node">
<title>Node5</title>
<g id="a_node5"><a xlink:title=" ">
<polygon fill="white" stroke="#bfbfbf" points="134,-151 134,-170 172,-170 172,-151 134,-151"/>
<text text-anchor="middle" x="153" y="-158" font-family="Helvetica,sans-Serif" font-size="10.00">char</text>
</a>
</g>
</g>
<!-- Node5&#45;&gt;Node3 -->
<g id="edge4" class="edge">
<title>Node5&#45;&gt;Node3</title>
<path fill="none" stroke="#9a32cd" stroke-dasharray="5,2" d="M156.28,-140.9C158.6,-132.42 162.5,-122.78 169,-116 177.12,-107.54 188.29,-101.62 199.08,-97.54"/>
<polygon fill="#9a32cd" stroke="#9a32cd" points="152.85,-140.21 154.11,-150.72 159.68,-141.71 152.85,-140.21"/>
<text text-anchor="middle" x="198" y="-119" font-family="Helvetica,sans-Serif" font-size="10.00"> task_name</text>
</g>
<!-- Node6 -->
<g id="node6" class="node">
<title>Node6</title>
<g id="a_node6"><a xlink:title=" ">
<polygon fill="white" stroke="#bfbfbf" points="204,-151 204,-170 254,-170 254,-151 204,-151"/>
<text text-anchor="middle" x="229" y="-158" font-family="Helvetica,sans-Serif" font-size="10.00">int64_t</text>
</a>
</g>
</g>
<!-- Node6&#45;&gt;Node3 -->
<g id="edge5" class="edge">
<title>Node6&#45;&gt;Node3</title>
<path fill="none" stroke="#9a32cd" stroke-dasharray="5,2" d="M230.32,-140.86C231.31,-126.9 232.62,-108.43 233.38,-97.72"/>
<polygon fill="#9a32cd" stroke="#9a32cd" points="226.83,-140.63 229.61,-150.86 233.81,-141.13 226.83,-140.63"/>
<text text-anchor="middle" x="243.5" y="-119" font-family="Helvetica,sans-Serif" font-size="10.00"> func</text>
</g>
<!-- Node7 -->
<g id="node7" class="node">
<title>Node7</title>
<g id="a_node7"><a xlink:title=" ">
<polygon fill="white" stroke="#bfbfbf" points="272.5,-151 272.5,-170 317.5,-170 317.5,-151 272.5,-151"/>
<text text-anchor="middle" x="295" y="-158" font-family="Helvetica,sans-Serif" font-size="10.00">size_t</text>
</a>
</g>
</g>
<!-- Node7&#45;&gt;Node3 -->
<g id="edge6" class="edge">
<title>Node7&#45;&gt;Node3</title>
<path fill="none" stroke="#9a32cd" stroke-dasharray="5,2" d="M282.2,-142.89C275.72,-134.66 267.62,-124.65 260,-116 254.49,-109.75 247.99,-103 242.87,-97.81"/>
<polygon fill="#9a32cd" stroke="#9a32cd" points="279.6,-145.24 288.51,-150.98 285.12,-140.94 279.6,-145.24"/>
<text text-anchor="middle" x="295.5" y="-119" font-family="Helvetica,sans-Serif" font-size="10.00"> stack_size</text>
</g>
<!-- Node8 -->
<g id="node8" class="node">
<title>Node8</title>
<g id="a_node8"><a xlink:title=" ">
<polygon fill="white" stroke="#bfbfbf" points="343,-151 343,-170 389,-170 389,-151 343,-151"/>
<text text-anchor="middle" x="366" y="-158" font-family="Helvetica,sans-Serif" font-size="10.00">void *</text>
</a>
</g>
</g>
<!-- Node8&#45;&gt;Node3 -->
<g id="edge7" class="edge">
<title>Node8&#45;&gt;Node3</title>
<path fill="none" stroke="#9a32cd" stroke-dasharray="5,2" d="M354.41,-142.5C347.44,-133.45 337.82,-122.8 327,-116 313.48,-107.5 297.18,-101.59 282.04,-97.52"/>
<polygon fill="#9a32cd" stroke="#9a32cd" points="351.75,-144.79 360.46,-150.83 357.42,-140.68 351.75,-144.79"/>
<text text-anchor="middle" x="360" y="-119" font-family="Helvetica,sans-Serif" font-size="10.00"> userarg</text>
</g>
</g>
</svg>
