<?xml version="1.0" encoding="UTF-8" standalone="no"?>
<!DOCTYPE svg PUBLIC "-//W3C//DTD SVG 1.1//EN"
 "http://www.w3.org/Graphics/SVG/1.1/DTD/svg11.dtd">
<!-- Generated by graphviz version 2.43.0 (0)
 -->
<!-- Title: r_wm_DispTiming_t Pages: 1 -->
<svg width="356pt" height="296pt"
 viewBox="0.00 0.00 356.00 296.00" xmlns="http://www.w3.org/2000/svg" xmlns:xlink="http://www.w3.org/1999/xlink">
<g id="graph0" class="graph" transform="scale(1 1) rotate(0) translate(4 292)">
<title>r_wm_DispTiming_t</title>
<polygon fill="white" stroke="transparent" points="-4,4 -4,-292 352,-292 352,4 -4,4"/>
<!-- Node1 -->
<g id="node1" class="node">
<title>Node1</title>
<g id="a_node1"><a xlink:title=" ">
<polygon fill="#bfbfbf" stroke="black" points="116.5,-0.5 116.5,-19.5 229.5,-19.5 229.5,-0.5 116.5,-0.5"/>
<text text-anchor="middle" x="173" y="-7.5" font-family="Helvetica,sans-Serif" font-size="10.00">r_wm_DispTiming_t</text>
</a>
</g>
</g>
<!-- Node2 -->
<g id="node2" class="node">
<title>Node2</title>
<g id="a_node2"><a xlink:href="structr__wm__SubTiming__t.html" target="_top" xlink:title=" ">
<polygon fill="white" stroke="black" points="118,-129 118,-148 228,-148 228,-129 118,-129"/>
<text text-anchor="middle" x="173" y="-136" font-family="Helvetica,sans-Serif" font-size="10.00">r_wm_SubTiming_t</text>
</a>
</g>
</g>
<!-- Node2&#45;&gt;Node1 -->
<g id="edge1" class="edge">
<title>Node2&#45;&gt;Node1</title>
<path fill="none" stroke="#9a32cd" stroke-dasharray="5,2" d="M173,-118.44C173,-90.62 173,-40.04 173,-19.76"/>
<polygon fill="#9a32cd" stroke="#9a32cd" points="169.5,-118.81 173,-128.81 176.5,-118.81 169.5,-118.81"/>
<text text-anchor="middle" x="189.5" y="-52" font-family="Helvetica,sans-Serif" font-size="10.00"> VoutH</text>
<text text-anchor="middle" x="189.5" y="-41" font-family="Helvetica,sans-Serif" font-size="10.00">VoutV</text>
</g>
<!-- Node3 -->
<g id="node3" class="node">
<title>Node3</title>
<g id="a_node3"><a xlink:title=" ">
<polygon fill="white" stroke="#bfbfbf" points="0,-268.5 0,-287.5 56,-287.5 56,-268.5 0,-268.5"/>
<text text-anchor="middle" x="28" y="-275.5" font-family="Helvetica,sans-Serif" font-size="10.00">uint32_t</text>
</a>
</g>
</g>
<!-- Node3&#45;&gt;Node1 -->
<g id="edge4" class="edge">
<title>Node3&#45;&gt;Node1</title>
<path fill="none" stroke="#9a32cd" stroke-dasharray="5,2" d="M20.86,-258.5C7.68,-220.98 -15.95,-134.67 21,-78 42.58,-44.9 84.59,-28.04 118.99,-19.52"/>
<polygon fill="#9a32cd" stroke="#9a32cd" points="17.66,-259.93 24.39,-268.11 24.23,-257.52 17.66,-259.93"/>
<text text-anchor="middle" x="65" y="-191" font-family="Helvetica,sans-Serif" font-size="10.00"> CurrentDispClock</text>
<text text-anchor="middle" x="65" y="-180" font-family="Helvetica,sans-Serif" font-size="10.00">DotClkIn</text>
<text text-anchor="middle" x="65" y="-169" font-family="Helvetica,sans-Serif" font-size="10.00">Extal</text>
<text text-anchor="middle" x="65" y="-158" font-family="Helvetica,sans-Serif" font-size="10.00">HdmiPllCfg</text>
<text text-anchor="middle" x="65" y="-147" font-family="Helvetica,sans-Serif" font-size="10.00">HdmiPllCtrl</text>
<text text-anchor="middle" x="65" y="-136" font-family="Helvetica,sans-Serif" font-size="10.00">HdmiPllDivider</text>
<text text-anchor="middle" x="65" y="-125" font-family="Helvetica,sans-Serif" font-size="10.00">LvdsPllLvddiv</text>
<text text-anchor="middle" x="65" y="-114" font-family="Helvetica,sans-Serif" font-size="10.00">LvdsPllLvdpllcr</text>
<text text-anchor="middle" x="65" y="-103" font-family="Helvetica,sans-Serif" font-size="10.00">PixelClock</text>
<text text-anchor="middle" x="65" y="-92" font-family="Helvetica,sans-Serif" font-size="10.00">ScreenHeight</text>
<text text-anchor="middle" x="65" y="-81" font-family="Helvetica,sans-Serif" font-size="10.00">...</text>
</g>
<!-- Node3&#45;&gt;Node2 -->
<g id="edge2" class="edge">
<title>Node3&#45;&gt;Node2</title>
<path fill="none" stroke="#9a32cd" stroke-dasharray="5,2" d="M44.41,-261.44C75.05,-232.38 140.03,-170.76 163.93,-148.1"/>
<polygon fill="#9a32cd" stroke="#9a32cd" points="41.92,-258.98 37.07,-268.4 46.73,-264.06 41.92,-258.98"/>
<text text-anchor="middle" x="115.5" y="-242" font-family="Helvetica,sans-Serif" font-size="10.00"> BackPorch</text>
<text text-anchor="middle" x="115.5" y="-231" font-family="Helvetica,sans-Serif" font-size="10.00">SyncWidth</text>
<text text-anchor="middle" x="115.5" y="-220" font-family="Helvetica,sans-Serif" font-size="10.00">TotalPixel</text>
</g>
<!-- Node4 -->
<g id="node4" class="node">
<title>Node4</title>
<g id="a_node4"><a xlink:title=" ">
<polygon fill="white" stroke="#bfbfbf" points="246,-129 246,-148 348,-148 348,-129 246,-129"/>
<text text-anchor="middle" x="297" y="-136" font-family="Helvetica,sans-Serif" font-size="10.00">r_wm_VoutType_t</text>
</a>
</g>
</g>
<!-- Node4&#45;&gt;Node1 -->
<g id="edge3" class="edge">
<title>Node4&#45;&gt;Node1</title>
<path fill="none" stroke="#9a32cd" stroke-dasharray="5,2" d="M284.34,-120.86C268.24,-100.24 239.04,-64.59 210,-38 202.61,-31.23 193.53,-24.59 186.22,-19.58"/>
<polygon fill="#9a32cd" stroke="#9a32cd" points="281.7,-123.17 290.58,-128.95 287.24,-118.89 281.7,-123.17"/>
<text text-anchor="middle" x="254" y="-46.5" font-family="Helvetica,sans-Serif" font-size="10.00"> VoutType</text>
</g>
</g>
</svg>
