<?xml version="1.0" encoding="UTF-8" standalone="no"?>
<!DOCTYPE svg PUBLIC "-//W3C//DTD SVG 1.1//EN"
 "http://www.w3.org/Graphics/SVG/1.1/DTD/svg11.dtd">
<!-- Generated by graphviz version 2.43.0 (0)
 -->
<!-- Title: taurus_can_write_in Pages: 1 -->
<svg width="194pt" height="117pt"
 viewBox="0.00 0.00 194.00 117.00" xmlns="http://www.w3.org/2000/svg" xmlns:xlink="http://www.w3.org/1999/xlink">
<g id="graph0" class="graph" transform="scale(1 1) rotate(0) translate(4 113)">
<title>taurus_can_write_in</title>
<polygon fill="white" stroke="transparent" points="-4,4 -4,-113 190,-113 190,4 -4,4"/>
<!-- Node1 -->
<g id="node1" class="node">
<title>Node1</title>
<g id="a_node1"><a xlink:title=" ">
<polygon fill="#bfbfbf" stroke="black" points="36,-0.5 36,-19.5 150,-19.5 150,-0.5 36,-0.5"/>
<text text-anchor="middle" x="93" y="-7.5" font-family="Helvetica,sans-Serif" font-size="10.00">taurus_can_write_in</text>
</a>
</g>
</g>
<!-- Node2 -->
<g id="node2" class="node">
<title>Node2</title>
<g id="a_node2"><a xlink:title=" ">
<polygon fill="white" stroke="#bfbfbf" points="0,-89.5 0,-108.5 56,-108.5 56,-89.5 0,-89.5"/>
<text text-anchor="middle" x="28" y="-96.5" font-family="Helvetica,sans-Serif" font-size="10.00">uint64_t</text>
</a>
</g>
</g>
<!-- Node2&#45;&gt;Node1 -->
<g id="edge1" class="edge">
<title>Node2&#45;&gt;Node1</title>
<path fill="none" stroke="#9a32cd" stroke-dasharray="5,2" d="M32.65,-79.52C36.53,-66.84 43.05,-50.16 53,-38 59.16,-30.48 67.95,-24.23 75.72,-19.64"/>
<polygon fill="#9a32cd" stroke="#9a32cd" points="29.2,-78.86 29.9,-89.43 35.95,-80.73 29.2,-78.86"/>
<text text-anchor="middle" x="71" y="-52" font-family="Helvetica,sans-Serif" font-size="10.00"> cookie</text>
</g>
<!-- Node3 -->
<g id="node3" class="node">
<title>Node3</title>
<g id="a_node3"><a xlink:title=" ">
<polygon fill="white" stroke="#bfbfbf" points="74,-89.5 74,-108.5 112,-108.5 112,-89.5 74,-89.5"/>
<text text-anchor="middle" x="93" y="-96.5" font-family="Helvetica,sans-Serif" font-size="10.00">char</text>
</a>
</g>
</g>
<!-- Node3&#45;&gt;Node1 -->
<g id="edge2" class="edge">
<title>Node3&#45;&gt;Node1</title>
<path fill="none" stroke="#9a32cd" stroke-dasharray="5,2" d="M93,-79.19C93,-60.74 93,-33.41 93,-19.62"/>
<polygon fill="#9a32cd" stroke="#9a32cd" points="89.5,-79.34 93,-89.34 96.5,-79.34 89.5,-79.34"/>
<text text-anchor="middle" x="105.5" y="-52" font-family="Helvetica,sans-Serif" font-size="10.00"> data</text>
</g>
<!-- Node4 -->
<g id="node4" class="node">
<title>Node4</title>
<g id="a_node4"><a xlink:title=" ">
<polygon fill="white" stroke="#bfbfbf" points="130,-89.5 130,-108.5 186,-108.5 186,-89.5 130,-89.5"/>
<text text-anchor="middle" x="158" y="-96.5" font-family="Helvetica,sans-Serif" font-size="10.00">uint32_t</text>
</a>
</g>
</g>
<!-- Node4&#45;&gt;Node1 -->
<g id="edge3" class="edge">
<title>Node4&#45;&gt;Node1</title>
<path fill="none" stroke="#9a32cd" stroke-dasharray="5,2" d="M149.18,-80.47C142.53,-68.03 132.74,-51.26 122,-38 116.54,-31.26 109.43,-24.62 103.62,-19.61"/>
<polygon fill="#9a32cd" stroke="#9a32cd" points="146.09,-82.1 153.8,-89.36 152.3,-78.88 146.09,-82.1"/>
<text text-anchor="middle" x="164.5" y="-63" font-family="Helvetica,sans-Serif" font-size="10.00"> can_ch</text>
<text text-anchor="middle" x="164.5" y="-52" font-family="Helvetica,sans-Serif" font-size="10.00">data_len</text>
<text text-anchor="middle" x="164.5" y="-41" font-family="Helvetica,sans-Serif" font-size="10.00">node_id</text>
</g>
</g>
</svg>
