<?xml version="1.0" encoding="UTF-8" standalone="no"?>
<!DOCTYPE svg PUBLIC "-//W3C//DTD SVG 1.1//EN"
 "http://www.w3.org/Graphics/SVG/1.1/DTD/svg11.dtd">
<!-- Generated by graphviz version 2.43.0 (0)
 -->
<!-- Title: r_cio_ether_transmit Pages: 1 -->
<svg width="364pt" height="106pt"
 viewBox="0.00 0.00 363.50 106.00" xmlns="http://www.w3.org/2000/svg" xmlns:xlink="http://www.w3.org/1999/xlink">
<g id="graph0" class="graph" transform="scale(1 1) rotate(0) translate(4 102)">
<title>r_cio_ether_transmit</title>
<polygon fill="white" stroke="transparent" points="-4,4 -4,-102 359.5,-102 359.5,4 -4,4"/>
<!-- Node1 -->
<g id="node1" class="node">
<title>Node1</title>
<g id="a_node1"><a xlink:title=" ">
<polygon fill="#bfbfbf" stroke="black" points="113,-0.5 113,-19.5 230,-19.5 230,-0.5 113,-0.5"/>
<text text-anchor="middle" x="171.5" y="-7.5" font-family="Helvetica,sans-Serif" font-size="10.00">r_cio_ether_transmit</text>
</a>
</g>
</g>
<!-- Node2 -->
<g id="node2" class="node">
<title>Node2</title>
<g id="a_node2"><a xlink:title=" ">
<polygon fill="white" stroke="#bfbfbf" points="0,-78.5 0,-97.5 85,-97.5 85,-78.5 0,-78.5"/>
<text text-anchor="middle" x="42.5" y="-85.5" font-family="Helvetica,sans-Serif" font-size="10.00">unsigned long</text>
</a>
</g>
</g>
<!-- Node2&#45;&gt;Node1 -->
<g id="edge1" class="edge">
<title>Node2&#45;&gt;Node1</title>
<path fill="none" stroke="#9a32cd" stroke-dasharray="5,2" d="M51.44,-69.56C57.69,-59 66.97,-46.05 78.5,-38 90.77,-29.43 105.74,-23.56 120.06,-19.54"/>
<polygon fill="#9a32cd" stroke="#9a32cd" points="48.34,-67.93 46.58,-78.38 54.47,-71.31 48.34,-67.93"/>
<text text-anchor="middle" x="96" y="-46.5" font-family="Helvetica,sans-Serif" font-size="10.00"> BufIdx</text>
</g>
<!-- Node3 -->
<g id="node3" class="node">
<title>Node3</title>
<g id="a_node3"><a xlink:title=" ">
<polygon fill="white" stroke="#bfbfbf" points="103.5,-78.5 103.5,-97.5 141.5,-97.5 141.5,-78.5 103.5,-78.5"/>
<text text-anchor="middle" x="122.5" y="-85.5" font-family="Helvetica,sans-Serif" font-size="10.00">char</text>
</a>
</g>
</g>
<!-- Node3&#45;&gt;Node1 -->
<g id="edge2" class="edge">
<title>Node3&#45;&gt;Node1</title>
<path fill="none" stroke="#9a32cd" stroke-dasharray="5,2" d="M118.66,-68.14C117.69,-58.49 118.16,-46.92 123.5,-38 128.46,-29.71 136.98,-23.76 145.47,-19.6"/>
<polygon fill="#9a32cd" stroke="#9a32cd" points="115.25,-68.99 120.25,-78.33 122.16,-67.91 115.25,-68.99"/>
<text text-anchor="middle" x="161.5" y="-52" font-family="Helvetica,sans-Serif" font-size="10.00"> CtrlIdx</text>
<text text-anchor="middle" x="161.5" y="-41" font-family="Helvetica,sans-Serif" font-size="10.00">TxConfirmation</text>
</g>
<!-- Node4 -->
<g id="node4" class="node">
<title>Node4</title>
<g id="a_node4"><a xlink:title=" ">
<polygon fill="white" stroke="#bfbfbf" points="177,-78.5 177,-97.5 266,-97.5 266,-78.5 177,-78.5"/>
<text text-anchor="middle" x="221.5" y="-85.5" font-family="Helvetica,sans-Serif" font-size="10.00">unsigned short</text>
</a>
</g>
</g>
<!-- Node4&#45;&gt;Node1 -->
<g id="edge3" class="edge">
<title>Node4&#45;&gt;Node1</title>
<path fill="none" stroke="#9a32cd" stroke-dasharray="5,2" d="M215.23,-68.75C211.47,-59.13 206.12,-47.41 199.5,-38 194.68,-31.15 187.96,-24.6 182.31,-19.67"/>
<polygon fill="#9a32cd" stroke="#9a32cd" points="211.95,-69.97 218.68,-78.15 218.52,-67.56 211.95,-69.97"/>
<text text-anchor="middle" x="240" y="-52" font-family="Helvetica,sans-Serif" font-size="10.00"> FrameType</text>
<text text-anchor="middle" x="240" y="-41" font-family="Helvetica,sans-Serif" font-size="10.00">LenByte</text>
</g>
<!-- Node5 -->
<g id="node5" class="node">
<title>Node5</title>
<g id="a_node5"><a xlink:title=" ">
<polygon fill="white" stroke="#bfbfbf" points="284.5,-78.5 284.5,-97.5 334.5,-97.5 334.5,-78.5 284.5,-78.5"/>
<text text-anchor="middle" x="309.5" y="-85.5" font-family="Helvetica,sans-Serif" font-size="10.00">uint8 *</text>
</a>
</g>
</g>
<!-- Node5&#45;&gt;Node1 -->
<g id="edge4" class="edge">
<title>Node5&#45;&gt;Node1</title>
<path fill="none" stroke="#9a32cd" stroke-dasharray="5,2" d="M300.26,-69.47C293.82,-58.88 284.28,-45.93 272.5,-38 259.7,-29.38 244.27,-23.51 229.36,-19.51"/>
<polygon fill="#9a32cd" stroke="#9a32cd" points="297.3,-71.35 305.28,-78.33 303.39,-67.9 297.3,-71.35"/>
<text text-anchor="middle" x="324" y="-46.5" font-family="Helvetica,sans-Serif" font-size="10.00"> PhysAddrPtr</text>
</g>
</g>
</svg>
