<?xml version="1.0" encoding="UTF-8" standalone="no"?>
<!DOCTYPE svg PUBLIC "-//W3C//DTD SVG 1.1//EN"
 "http://www.w3.org/Graphics/SVG/1.1/DTD/svg11.dtd">
<!-- Generated by graphviz version 2.43.0 (0)
 -->
<!-- Title: STag_Eth_StatisticsType Pages: 1 -->
<svg width="199pt" height="205pt"
 viewBox="0.00 0.00 198.50 205.00" xmlns="http://www.w3.org/2000/svg" xmlns:xlink="http://www.w3.org/1999/xlink">
<g id="graph0" class="graph" transform="scale(1 1) rotate(0) translate(4 201)">
<title>STag_Eth_StatisticsType</title>
<polygon fill="white" stroke="transparent" points="-4,4 -4,-201 194.5,-201 194.5,4 -4,4"/>
<!-- Node1 -->
<g id="node1" class="node">
<title>Node1</title>
<g id="a_node1"><a xlink:title=" ">
<polygon fill="#bfbfbf" stroke="black" points="0,-0.5 0,-19.5 133,-19.5 133,-0.5 0,-0.5"/>
<text text-anchor="middle" x="66.5" y="-7.5" font-family="Helvetica,sans-Serif" font-size="10.00">STag_Eth_StatisticsType</text>
</a>
</g>
</g>
<!-- Node2 -->
<g id="node2" class="node">
<title>Node2</title>
<g id="a_node2"><a xlink:title=" ">
<polygon fill="white" stroke="#bfbfbf" points="24,-177.5 24,-196.5 109,-196.5 109,-177.5 24,-177.5"/>
<text text-anchor="middle" x="66.5" y="-184.5" font-family="Helvetica,sans-Serif" font-size="10.00">unsigned long</text>
</a>
</g>
</g>
<!-- Node2&#45;&gt;Node1 -->
<g id="edge1" class="edge">
<title>Node2&#45;&gt;Node1</title>
<path fill="none" stroke="#9a32cd" stroke-dasharray="5,2" d="M66.5,-166.95C66.5,-129.3 66.5,-46.65 66.5,-19.69"/>
<polygon fill="#9a32cd" stroke="#9a32cd" points="63,-167.08 66.5,-177.08 70,-167.08 63,-167.08"/>
<text text-anchor="middle" x="128.5" y="-151" font-family="Helvetica,sans-Serif" font-size="10.00"> BroadcastPktNo</text>
<text text-anchor="middle" x="128.5" y="-140" font-family="Helvetica,sans-Serif" font-size="10.00">LastMulticastPktNo</text>
<text text-anchor="middle" x="128.5" y="-129" font-family="Helvetica,sans-Serif" font-size="10.00">Pkts1024to1518OctetsNo</text>
<text text-anchor="middle" x="128.5" y="-118" font-family="Helvetica,sans-Serif" font-size="10.00">Pkts128to255OctetsNo</text>
<text text-anchor="middle" x="128.5" y="-107" font-family="Helvetica,sans-Serif" font-size="10.00">Pkts256to511OctetsNo</text>
<text text-anchor="middle" x="128.5" y="-96" font-family="Helvetica,sans-Serif" font-size="10.00">Pkts512to1023OctetsNo</text>
<text text-anchor="middle" x="128.5" y="-85" font-family="Helvetica,sans-Serif" font-size="10.00">Pkts64OctetsNo</text>
<text text-anchor="middle" x="128.5" y="-74" font-family="Helvetica,sans-Serif" font-size="10.00">Pkts65to127OctetsNo</text>
<text text-anchor="middle" x="128.5" y="-63" font-family="Helvetica,sans-Serif" font-size="10.00">RxPacketNo</text>
<text text-anchor="middle" x="128.5" y="-52" font-family="Helvetica,sans-Serif" font-size="10.00">StatsOctetsNo</text>
<text text-anchor="middle" x="128.5" y="-41" font-family="Helvetica,sans-Serif" font-size="10.00">...</text>
</g>
</g>
</svg>
