<?xml version="1.0" encoding="UTF-8" standalone="no"?>
<!DOCTYPE svg PUBLIC "-//W3C//DTD SVG 1.1//EN"
 "http://www.w3.org/Graphics/SVG/1.1/DTD/svg11.dtd">
<!-- Generated by graphviz version 2.43.0 (0)
 -->
<!-- Title: st_osal_thread_control Pages: 1 -->
<svg width="799pt" height="305pt"
 viewBox="0.00 0.00 799.00 305.00" xmlns="http://www.w3.org/2000/svg" xmlns:xlink="http://www.w3.org/1999/xlink">
<g id="graph0" class="graph" transform="scale(1 1) rotate(0) translate(4 301)">
<title>st_osal_thread_control</title>
<polygon fill="white" stroke="transparent" points="-4,4 -4,-301 795,-301 795,4 -4,4"/>
<!-- Node1 -->
<g id="node1" class="node">
<title>Node1</title>
<g id="a_node1"><a xlink:title="control of thread (Defined in OSAL Wrapper implementation files).">
<polygon fill="#bfbfbf" stroke="black" points="664,-132.5 664,-151.5 791,-151.5 791,-132.5 664,-132.5"/>
<text text-anchor="middle" x="727.5" y="-139.5" font-family="Helvetica,sans-Serif" font-size="10.00">st_osal_thread_control</text>
</a>
</g>
</g>
<!-- Node2 -->
<g id="node2" class="node">
<title>Node2</title>
<g id="a_node2"><a xlink:title=" ">
<polygon fill="white" stroke="#bfbfbf" points="457,-268.5 457,-287.5 539,-287.5 539,-268.5 457,-268.5"/>
<text text-anchor="middle" x="498" y="-275.5" font-family="Helvetica,sans-Serif" font-size="10.00">TaskHandle_t</text>
</a>
</g>
</g>
<!-- Node2&#45;&gt;Node1 -->
<g id="edge1" class="edge">
<title>Node2&#45;&gt;Node1</title>
<path fill="none" stroke="#9a32cd" stroke-dasharray="5,2" d="M549.59,-278.72C579.61,-276.99 617.28,-270.84 646,-253 686.64,-227.75 713.09,-173.72 722.58,-151.67"/>
<polygon fill="#9a32cd" stroke="#9a32cd" points="549.16,-275.24 539.32,-279.17 549.46,-282.23 549.16,-275.24"/>
<text text-anchor="middle" x="610" y="-289" font-family="Helvetica,sans-Serif" font-size="10.00"> parent_thread</text>
<text text-anchor="middle" x="610" y="-278" font-family="Helvetica,sans-Serif" font-size="10.00">thread</text>
</g>
<!-- Node3 -->
<g id="node3" class="node">
<title>Node3</title>
<g id="a_node3"><a xlink:title=" ">
<polygon fill="white" stroke="#bfbfbf" points="243,-218.5 243,-237.5 299,-237.5 299,-218.5 243,-218.5"/>
<text text-anchor="middle" x="271" y="-225.5" font-family="Helvetica,sans-Serif" font-size="10.00">uint64_t</text>
</a>
</g>
</g>
<!-- Node3&#45;&gt;Node1 -->
<g id="edge2" class="edge">
<title>Node3&#45;&gt;Node1</title>
<path fill="none" stroke="#9a32cd" stroke-dasharray="5,2" d="M309.48,-230.43C378.79,-233.52 530.45,-233.6 646,-186 669.71,-176.23 695.44,-161.35 711.27,-151.65"/>
<polygon fill="#9a32cd" stroke="#9a32cd" points="309.24,-226.92 299.08,-229.92 308.9,-233.91 309.24,-226.92"/>
<text text-anchor="middle" x="498" y="-231" font-family="Helvetica,sans-Serif" font-size="10.00"> handle_id</text>
</g>
<!-- Node10 -->
<g id="node10" class="node">
<title>Node10</title>
<g id="a_node10"><a xlink:href="structst__osal__rcfg__thread__config.html" target="_top" xlink:title=" ">
<polygon fill="white" stroke="black" points="442,-172 442,-202 554,-202 554,-172 442,-172"/>
<text text-anchor="start" x="450" y="-190" font-family="Helvetica,sans-Serif" font-size="10.00">st_osal_rcfg_thread</text>
<text text-anchor="middle" x="498" y="-179" font-family="Helvetica,sans-Serif" font-size="10.00">_config</text>
</a>
</g>
</g>
<!-- Node3&#45;&gt;Node10 -->
<g id="edge10" class="edge">
<title>Node3&#45;&gt;Node10</title>
<path fill="none" stroke="#9a32cd" stroke-dasharray="5,2" d="M309.25,-221.21C345.36,-214.63 400.59,-204.57 441.81,-197.06"/>
<polygon fill="#9a32cd" stroke="#9a32cd" points="308.35,-217.82 299.14,-223.05 309.61,-224.7 308.35,-217.82"/>
<text text-anchor="middle" x="386" y="-216" font-family="Helvetica,sans-Serif" font-size="10.00"> id</text>
</g>
<!-- Node4 -->
<g id="node4" class="node">
<title>Node4</title>
<g id="a_node4"><a xlink:href="structst__osal__thread__config.html" target="_top" xlink:title="configuration of thread.">
<polygon fill="white" stroke="black" points="210,-169.5 210,-188.5 332,-188.5 332,-169.5 210,-169.5"/>
<text text-anchor="middle" x="271" y="-176.5" font-family="Helvetica,sans-Serif" font-size="10.00">st_osal_thread_config</text>
</a>
</g>
</g>
<!-- Node4&#45;&gt;Node1 -->
<g id="edge3" class="edge">
<title>Node4&#45;&gt;Node1</title>
<path fill="none" stroke="#9a32cd" stroke-dasharray="5,2" d="M331.15,-167.65C363.23,-161.96 403.65,-155.54 440,-152 516.78,-144.52 605.61,-142.43 663.76,-141.95"/>
<polygon fill="#9a32cd" stroke="#9a32cd" points="330.27,-164.25 321.04,-169.47 331.51,-171.14 330.27,-164.25"/>
<text text-anchor="middle" x="498" y="-155" font-family="Helvetica,sans-Serif" font-size="10.00"> config</text>
</g>
<!-- Node4&#45;&gt;Node10 -->
<g id="edge11" class="edge">
<title>Node4&#45;&gt;Node10</title>
<path fill="none" stroke="#9a32cd" stroke-dasharray="5,2" d="M342.43,-178.22C367.55,-178.27 396.05,-178.71 422,-180 428.4,-180.32 435.1,-180.77 441.74,-181.3"/>
<polygon fill="#9a32cd" stroke="#9a32cd" points="342.25,-174.72 332.25,-178.22 342.25,-181.72 342.25,-174.72"/>
<text text-anchor="middle" x="386" y="-183" font-family="Helvetica,sans-Serif" font-size="10.00"> config</text>
</g>
<!-- Node5 -->
<g id="node5" class="node">
<title>Node5</title>
<g id="a_node5"><a xlink:title=" ">
<polygon fill="white" stroke="#bfbfbf" points="0,-226 0,-256 116,-256 116,-226 0,-226"/>
<text text-anchor="start" x="8" y="-244" font-family="Helvetica,sans-Serif" font-size="10.00">enum e_osal_thread</text>
<text text-anchor="middle" x="58" y="-233" font-family="Helvetica,sans-Serif" font-size="10.00">_priority</text>
</a>
</g>
</g>
<!-- Node5&#45;&gt;Node4 -->
<g id="edge4" class="edge">
<title>Node5&#45;&gt;Node4</title>
<path fill="none" stroke="#9a32cd" stroke-dasharray="5,2" d="M126.03,-223.66C147.21,-217.97 170.65,-211.44 192,-205 208.95,-199.89 227.78,-193.63 242.69,-188.53"/>
<polygon fill="#9a32cd" stroke="#9a32cd" points="124.92,-220.34 116.16,-226.3 126.72,-227.1 124.92,-220.34"/>
<text text-anchor="middle" x="163" y="-223" font-family="Helvetica,sans-Serif" font-size="10.00"> priority</text>
</g>
<!-- Node6 -->
<g id="node6" class="node">
<title>Node6</title>
<g id="a_node6"><a xlink:title=" ">
<polygon fill="white" stroke="#bfbfbf" points="39,-187.5 39,-206.5 77,-206.5 77,-187.5 39,-187.5"/>
<text text-anchor="middle" x="58" y="-194.5" font-family="Helvetica,sans-Serif" font-size="10.00">char</text>
</a>
</g>
</g>
<!-- Node6&#45;&gt;Node4 -->
<g id="edge5" class="edge">
<title>Node6&#45;&gt;Node4</title>
<path fill="none" stroke="#9a32cd" stroke-dasharray="5,2" d="M87.51,-194.57C118.67,-191.91 169.5,-187.57 209.62,-184.15"/>
<polygon fill="#9a32cd" stroke="#9a32cd" points="87.02,-191.1 77.36,-195.43 87.62,-198.07 87.02,-191.1"/>
<text text-anchor="middle" x="163" y="-193" font-family="Helvetica,sans-Serif" font-size="10.00"> task_name</text>
</g>
<!-- Node7 -->
<g id="node7" class="node">
<title>Node7</title>
<g id="a_node7"><a xlink:title=" ">
<polygon fill="white" stroke="#bfbfbf" points="33,-99.5 33,-118.5 83,-118.5 83,-99.5 33,-99.5"/>
<text text-anchor="middle" x="58" y="-106.5" font-family="Helvetica,sans-Serif" font-size="10.00">int64_t</text>
</a>
</g>
</g>
<!-- Node7&#45;&gt;Node1 -->
<g id="edge12" class="edge">
<title>Node7&#45;&gt;Node1</title>
<path fill="none" stroke="#9a32cd" stroke-dasharray="5,2" d="M93.25,-110.69C183.6,-115.14 435.94,-127.59 646,-138 651.73,-138.28 657.69,-138.58 663.66,-138.88"/>
<polygon fill="#9a32cd" stroke="#9a32cd" points="93.2,-107.18 83.04,-110.19 92.86,-114.17 93.2,-107.18"/>
<text text-anchor="middle" x="386" y="-140" font-family="Helvetica,sans-Serif" font-size="10.00"> inner_timeout</text>
<text text-anchor="middle" x="386" y="-129" font-family="Helvetica,sans-Serif" font-size="10.00">thread_ret</text>
</g>
<!-- Node7&#45;&gt;Node4 -->
<g id="edge6" class="edge">
<title>Node7&#45;&gt;Node4</title>
<path fill="none" stroke="#9a32cd" stroke-dasharray="5,2" d="M92.89,-118.87C119.87,-126.86 158.53,-138.63 192,-150 210.06,-156.13 230.23,-163.65 245.54,-169.5"/>
<polygon fill="#9a32cd" stroke="#9a32cd" points="93.74,-115.47 83.16,-116 91.76,-122.18 93.74,-115.47"/>
<text text-anchor="middle" x="163" y="-153" font-family="Helvetica,sans-Serif" font-size="10.00"> func</text>
</g>
<!-- Node8 -->
<g id="node8" class="node">
<title>Node8</title>
<g id="a_node8"><a xlink:title=" ">
<polygon fill="white" stroke="#bfbfbf" points="35.5,-149.5 35.5,-168.5 80.5,-168.5 80.5,-149.5 35.5,-149.5"/>
<text text-anchor="middle" x="58" y="-156.5" font-family="Helvetica,sans-Serif" font-size="10.00">size_t</text>
</a>
</g>
</g>
<!-- Node8&#45;&gt;Node4 -->
<g id="edge7" class="edge">
<title>Node8&#45;&gt;Node4</title>
<path fill="none" stroke="#9a32cd" stroke-dasharray="5,2" d="M90.69,-161.33C117.66,-163.38 157.4,-166.57 192,-170 197.83,-170.58 203.91,-171.22 209.98,-171.88"/>
<polygon fill="#9a32cd" stroke="#9a32cd" points="90.91,-157.84 80.67,-160.58 90.38,-164.82 90.91,-157.84"/>
<text text-anchor="middle" x="163" y="-173" font-family="Helvetica,sans-Serif" font-size="10.00"> stack_size</text>
</g>
<!-- Node9 -->
<g id="node9" class="node">
<title>Node9</title>
<g id="a_node9"><a xlink:title=" ">
<polygon fill="white" stroke="#bfbfbf" points="35,-275.5 35,-294.5 81,-294.5 81,-275.5 35,-275.5"/>
<text text-anchor="middle" x="58" y="-282.5" font-family="Helvetica,sans-Serif" font-size="10.00">void *</text>
</a>
</g>
</g>
<!-- Node9&#45;&gt;Node4 -->
<g id="edge8" class="edge">
<title>Node9&#45;&gt;Node4</title>
<path fill="none" stroke="#9a32cd" stroke-dasharray="5,2" d="M90.73,-274.83C99,-272.07 107.86,-269.01 116,-266 150.21,-253.34 163.55,-257.83 192,-235 202.96,-226.2 199.38,-218.21 210,-209 219.94,-200.38 232.8,-193.52 244.06,-188.55"/>
<polygon fill="#9a32cd" stroke="#9a32cd" points="89.44,-271.57 81.04,-278.03 91.63,-278.22 89.44,-271.57"/>
<text text-anchor="middle" x="163" y="-263" font-family="Helvetica,sans-Serif" font-size="10.00"> userarg</text>
</g>
<!-- Node10&#45;&gt;Node1 -->
<g id="edge9" class="edge">
<title>Node10&#45;&gt;Node1</title>
<path fill="none" stroke="#9a32cd" stroke-dasharray="5,2" d="M564.08,-174.13C600.41,-166.94 644.89,-158.14 678.11,-151.57"/>
<polygon fill="#9a32cd" stroke="#9a32cd" points="563.2,-170.73 554.07,-176.11 564.56,-177.6 563.2,-170.73"/>
<text text-anchor="middle" x="610" y="-174" font-family="Helvetica,sans-Serif" font-size="10.00"> usr_config</text>
</g>
<!-- Node11 -->
<g id="node11" class="node">
<title>Node11</title>
<g id="a_node11"><a xlink:title=" ">
<polygon fill="white" stroke="#bfbfbf" points="479,-38.5 479,-57.5 517,-57.5 517,-38.5 479,-38.5"/>
<text text-anchor="middle" x="498" y="-45.5" font-family="Helvetica,sans-Serif" font-size="10.00">bool</text>
</a>
</g>
</g>
<!-- Node11&#45;&gt;Node1 -->
<g id="edge13" class="edge">
<title>Node11&#45;&gt;Node1</title>
<path fill="none" stroke="#9a32cd" stroke-dasharray="5,2" d="M527.25,-41.56C557.99,-36.03 607.85,-31.41 646,-49 684.2,-66.62 711.28,-112.19 721.73,-132.26"/>
<polygon fill="#9a32cd" stroke="#9a32cd" points="526.36,-38.17 517.22,-43.53 527.71,-45.04 526.36,-38.17"/>
<text text-anchor="middle" x="610" y="-74" font-family="Helvetica,sans-Serif" font-size="10.00"> active</text>
<text text-anchor="middle" x="610" y="-63" font-family="Helvetica,sans-Serif" font-size="10.00">joined</text>
<text text-anchor="middle" x="610" y="-52" font-family="Helvetica,sans-Serif" font-size="10.00">use</text>
</g>
<!-- Node12 -->
<g id="node12" class="node">
<title>Node12</title>
<g id="a_node12"><a xlink:title=" ">
<polygon fill="white" stroke="#bfbfbf" points="440,-0.5 440,-19.5 556,-19.5 556,-0.5 440,-0.5"/>
<text text-anchor="middle" x="498" y="-7.5" font-family="Helvetica,sans-Serif" font-size="10.00">SemaphoreHandle_t</text>
</a>
</g>
</g>
<!-- Node12&#45;&gt;Node1 -->
<g id="edge14" class="edge">
<title>Node12&#45;&gt;Node1</title>
<path fill="none" stroke="#9a32cd" stroke-dasharray="5,2" d="M566.54,-3.37C592.91,-3.78 622.41,-8.16 646,-22 690.14,-47.9 715.05,-108.72 723.35,-132.36"/>
<polygon fill="#9a32cd" stroke="#9a32cd" points="566.22,0.13 556.23,-3.41 566.24,-6.87 566.22,0.13"/>
<text text-anchor="middle" x="610" y="-25" font-family="Helvetica,sans-Serif" font-size="10.00"> inner_mtx</text>
</g>
</g>
</svg>
