<?xml version="1.0" encoding="UTF-8" standalone="no"?>
<!DOCTYPE svg PUBLIC "-//W3C//DTD SVG 1.1//EN"
 "http://www.w3.org/Graphics/SVG/1.1/DTD/svg11.dtd">
<!-- Generated by graphviz version 2.43.0 (0)
 -->
<!-- Title: taurus_rvgc_res_msg Pages: 1 -->
<svg width="725pt" height="635pt"
 viewBox="0.00 0.00 725.00 634.50" xmlns="http://www.w3.org/2000/svg" xmlns:xlink="http://www.w3.org/1999/xlink">
<g id="graph0" class="graph" transform="scale(1 1) rotate(0) translate(4 630.5)">
<title>taurus_rvgc_res_msg</title>
<polygon fill="white" stroke="transparent" points="-4,4 -4,-630.5 721,-630.5 721,4 -4,4"/>
<!-- Node1 -->
<g id="node1" class="node">
<title>Node1</title>
<g id="a_node1"><a xlink:title=" ">
<polygon fill="#bfbfbf" stroke="black" points="597,-241 597,-260 717,-260 717,-241 597,-241"/>
<text text-anchor="middle" x="657" y="-248" font-family="Helvetica,sans-Serif" font-size="10.00">taurus_rvgc_res_msg</text>
</a>
</g>
</g>
<!-- Node2 -->
<g id="node2" class="node">
<title>Node2</title>
<g id="a_node2"><a xlink:href="structtaurus__rvgc__ioc__layer__reserve__out.html" target="_top" xlink:title=" ">
<polygon fill="white" stroke="black" points="329.5,-333.5 329.5,-363.5 452.5,-363.5 452.5,-333.5 329.5,-333.5"/>
<text text-anchor="start" x="337.5" y="-351.5" font-family="Helvetica,sans-Serif" font-size="10.00">taurus_rvgc_ioc_layer</text>
<text text-anchor="middle" x="391" y="-340.5" font-family="Helvetica,sans-Serif" font-size="10.00">_reserve_out</text>
</a>
</g>
</g>
<!-- Node2&#45;&gt;Node1 -->
<g id="edge1" class="edge">
<title>Node2&#45;&gt;Node1</title>
<path fill="none" stroke="#9a32cd" stroke-dasharray="5,2" d="M462.75,-334.79C498.46,-326.58 541.94,-314.58 579,-298.5 603.13,-288.03 628.55,-270.79 643.3,-260.07"/>
<polygon fill="#9a32cd" stroke="#9a32cd" points="461.89,-331.4 452.9,-337.01 463.42,-338.23 461.89,-331.4"/>
<text text-anchor="middle" x="527.5" y="-333.5" font-family="Helvetica,sans-Serif" font-size="10.00"> ioc_layer_reserve</text>
</g>
<!-- Node3 -->
<g id="node3" class="node">
<title>Node3</title>
<g id="a_node3"><a xlink:title=" ">
<polygon fill="white" stroke="#bfbfbf" points="153.5,-237 153.5,-256 209.5,-256 209.5,-237 153.5,-237"/>
<text text-anchor="middle" x="181.5" y="-244" font-family="Helvetica,sans-Serif" font-size="10.00">uint64_t</text>
</a>
</g>
</g>
<!-- Node3&#45;&gt;Node2 -->
<g id="edge2" class="edge">
<title>Node3&#45;&gt;Node2</title>
<path fill="none" stroke="#9a32cd" stroke-dasharray="5,2" d="M201.09,-262.69C216.74,-275.68 240.17,-293.63 263,-305.5 285.1,-316.99 310.91,-326.39 333.47,-333.43"/>
<polygon fill="#9a32cd" stroke="#9a32cd" points="203.14,-259.85 193.24,-256.06 198.62,-265.19 203.14,-259.85"/>
<text text-anchor="middle" x="284.5" y="-336.5" font-family="Helvetica,sans-Serif" font-size="10.00"> cookie</text>
<text text-anchor="middle" x="284.5" y="-325.5" font-family="Helvetica,sans-Serif" font-size="10.00">res</text>
</g>
<!-- Node4 -->
<g id="node4" class="node">
<title>Node4</title>
<g id="a_node4"><a xlink:href="structR__TAURUS__ResultMsg__t.html" target="_top" xlink:title=" ">
<polygon fill="white" stroke="black" points="324,-489 324,-508 458,-508 458,-489 324,-489"/>
<text text-anchor="middle" x="391" y="-496" font-family="Helvetica,sans-Serif" font-size="10.00">R_TAURUS_ResultMsg_t</text>
</a>
</g>
</g>
<!-- Node3&#45;&gt;Node4 -->
<g id="edge4" class="edge">
<title>Node3&#45;&gt;Node4</title>
<path fill="none" stroke="#9a32cd" stroke-dasharray="5,2" d="M189.36,-265.77C200.93,-296.31 226.67,-356.55 263,-397.5 278.47,-414.93 287.53,-413.3 306,-427.5 333.25,-448.45 363.71,-475.04 379.39,-488.98"/>
<polygon fill="#9a32cd" stroke="#9a32cd" points="192.61,-264.46 185.86,-256.29 186.04,-266.89 192.61,-264.46"/>
<text text-anchor="middle" x="284.5" y="-430.5" font-family="Helvetica,sans-Serif" font-size="10.00"> Aux</text>
</g>
<!-- Node8 -->
<g id="node8" class="node">
<title>Node8</title>
<g id="a_node8"><a xlink:href="structtaurus__rvgc__ioc__layer__release__out.html" target="_top" xlink:title=" ">
<polygon fill="white" stroke="black" points="329.5,-0.5 329.5,-30.5 452.5,-30.5 452.5,-0.5 329.5,-0.5"/>
<text text-anchor="start" x="337.5" y="-18.5" font-family="Helvetica,sans-Serif" font-size="10.00">taurus_rvgc_ioc_layer</text>
<text text-anchor="middle" x="391" y="-7.5" font-family="Helvetica,sans-Serif" font-size="10.00">_release_out</text>
</a>
</g>
</g>
<!-- Node3&#45;&gt;Node8 -->
<g id="edge10" class="edge">
<title>Node3&#45;&gt;Node8</title>
<path fill="none" stroke="#9a32cd" stroke-dasharray="5,2" d="M193.19,-227.99C206.36,-204.75 228.95,-163.45 245,-126.5 254.58,-104.45 247.61,-93.97 263,-75.5 280.87,-54.05 308.16,-39.78 332.87,-30.57"/>
<polygon fill="#9a32cd" stroke="#9a32cd" points="190.09,-226.35 188.17,-236.77 196.17,-229.83 190.09,-226.35"/>
<text text-anchor="middle" x="284.5" y="-89.5" font-family="Helvetica,sans-Serif" font-size="10.00"> cookie</text>
<text text-anchor="middle" x="284.5" y="-78.5" font-family="Helvetica,sans-Serif" font-size="10.00">res</text>
</g>
<!-- Node9 -->
<g id="node9" class="node">
<title>Node9</title>
<g id="a_node9"><a xlink:href="structtaurus__rvgc__ioc__layer__set__addr__out.html" target="_top" xlink:title=" ">
<polygon fill="white" stroke="black" points="329.5,-382.5 329.5,-412.5 452.5,-412.5 452.5,-382.5 329.5,-382.5"/>
<text text-anchor="start" x="337.5" y="-400.5" font-family="Helvetica,sans-Serif" font-size="10.00">taurus_rvgc_ioc_layer</text>
<text text-anchor="middle" x="391" y="-389.5" font-family="Helvetica,sans-Serif" font-size="10.00">_set_addr_out</text>
</a>
</g>
</g>
<!-- Node3&#45;&gt;Node9 -->
<g id="edge12" class="edge">
<title>Node3&#45;&gt;Node9</title>
<path fill="none" stroke="#9a32cd" stroke-dasharray="5,2" d="M193.11,-265.19C206.7,-287.69 232.24,-325.32 263,-348.5 283.19,-363.72 308.69,-374.78 331.54,-382.49"/>
<polygon fill="#9a32cd" stroke="#9a32cd" points="195.96,-263.14 187.87,-256.3 189.93,-266.69 195.96,-263.14"/>
<text text-anchor="middle" x="284.5" y="-385.5" font-family="Helvetica,sans-Serif" font-size="10.00"> cookie</text>
<text text-anchor="middle" x="284.5" y="-374.5" font-family="Helvetica,sans-Serif" font-size="10.00">res</text>
</g>
<!-- Node10 -->
<g id="node10" class="node">
<title>Node10</title>
<g id="a_node10"><a xlink:href="structtaurus__rvgc__ioc__display__get__info__out.html" target="_top" xlink:title=" ">
<polygon fill="white" stroke="black" points="324,-137.5 324,-167.5 458,-167.5 458,-137.5 324,-137.5"/>
<text text-anchor="start" x="332" y="-155.5" font-family="Helvetica,sans-Serif" font-size="10.00">taurus_rvgc_ioc_display</text>
<text text-anchor="middle" x="391" y="-144.5" font-family="Helvetica,sans-Serif" font-size="10.00">_get_info_out</text>
</a>
</g>
</g>
<!-- Node3&#45;&gt;Node10 -->
<g id="edge14" class="edge">
<title>Node3&#45;&gt;Node10</title>
<path fill="none" stroke="#9a32cd" stroke-dasharray="5,2" d="M200.24,-229.74C215.7,-215.99 239.3,-196.99 263,-185.5 281.96,-176.31 303.8,-169.45 323.96,-164.44"/>
<polygon fill="#9a32cd" stroke="#9a32cd" points="197.58,-227.43 192.54,-236.75 202.29,-232.61 197.58,-227.43"/>
<text text-anchor="middle" x="284.5" y="-199.5" font-family="Helvetica,sans-Serif" font-size="10.00"> cookie</text>
<text text-anchor="middle" x="284.5" y="-188.5" font-family="Helvetica,sans-Serif" font-size="10.00">res</text>
</g>
<!-- Node11 -->
<g id="node11" class="node">
<title>Node11</title>
<g id="a_node11"><a xlink:href="structtaurus__rvgc__ioc__display__flush__out.html" target="_top" xlink:title=" ">
<polygon fill="white" stroke="black" points="324,-284.5 324,-314.5 458,-314.5 458,-284.5 324,-284.5"/>
<text text-anchor="start" x="332" y="-302.5" font-family="Helvetica,sans-Serif" font-size="10.00">taurus_rvgc_ioc_display</text>
<text text-anchor="middle" x="391" y="-291.5" font-family="Helvetica,sans-Serif" font-size="10.00">_flush_out</text>
</a>
</g>
</g>
<!-- Node3&#45;&gt;Node11 -->
<g id="edge17" class="edge">
<title>Node3&#45;&gt;Node11</title>
<path fill="none" stroke="#9a32cd" stroke-dasharray="5,2" d="M219.59,-257.49C233.21,-261.42 248.77,-265.79 263,-269.5 282.73,-274.65 304.28,-279.88 323.94,-284.51"/>
<polygon fill="#9a32cd" stroke="#9a32cd" points="220.19,-254.02 209.62,-254.59 218.24,-260.74 220.19,-254.02"/>
<text text-anchor="middle" x="284.5" y="-293.5" font-family="Helvetica,sans-Serif" font-size="10.00"> cookie</text>
<text text-anchor="middle" x="284.5" y="-282.5" font-family="Helvetica,sans-Serif" font-size="10.00">res</text>
</g>
<!-- Node12 -->
<g id="node12" class="node">
<title>Node12</title>
<g id="a_node12"><a xlink:href="structtaurus__rvgc__ioc__display__init__out.html" target="_top" xlink:title=" ">
<polygon fill="white" stroke="black" points="324,-235.5 324,-265.5 458,-265.5 458,-235.5 324,-235.5"/>
<text text-anchor="start" x="332" y="-253.5" font-family="Helvetica,sans-Serif" font-size="10.00">taurus_rvgc_ioc_display</text>
<text text-anchor="middle" x="391" y="-242.5" font-family="Helvetica,sans-Serif" font-size="10.00">_init_out</text>
</a>
</g>
</g>
<!-- Node3&#45;&gt;Node12 -->
<g id="edge20" class="edge">
<title>Node3&#45;&gt;Node12</title>
<path fill="none" stroke="#9a32cd" stroke-dasharray="5,2" d="M220.26,-246.54C244.71,-246.63 277.24,-246.87 306,-247.5 311.84,-247.63 317.9,-247.79 323.97,-247.97"/>
<polygon fill="#9a32cd" stroke="#9a32cd" points="219.98,-243.04 209.97,-246.51 219.96,-250.04 219.98,-243.04"/>
<text text-anchor="middle" x="284.5" y="-261.5" font-family="Helvetica,sans-Serif" font-size="10.00"> cookie</text>
<text text-anchor="middle" x="284.5" y="-250.5" font-family="Helvetica,sans-Serif" font-size="10.00">res</text>
</g>
<!-- Node14 -->
<g id="node14" class="node">
<title>Node14</title>
<g id="a_node14"><a xlink:href="structtaurus__rvgc__ioc__layer__set__size__out.html" target="_top" xlink:title=" ">
<polygon fill="white" stroke="black" points="329.5,-186.5 329.5,-216.5 452.5,-216.5 452.5,-186.5 329.5,-186.5"/>
<text text-anchor="start" x="337.5" y="-204.5" font-family="Helvetica,sans-Serif" font-size="10.00">taurus_rvgc_ioc_layer</text>
<text text-anchor="middle" x="391" y="-193.5" font-family="Helvetica,sans-Serif" font-size="10.00">_set_size_out</text>
</a>
</g>
</g>
<!-- Node3&#45;&gt;Node14 -->
<g id="edge23" class="edge">
<title>Node3&#45;&gt;Node14</title>
<path fill="none" stroke="#9a32cd" stroke-dasharray="5,2" d="M217.97,-233.66C231.87,-228.99 248.04,-224.01 263,-220.5 284.38,-215.48 308.11,-211.52 329.21,-208.53"/>
<polygon fill="#9a32cd" stroke="#9a32cd" points="216.62,-230.42 208.3,-236.97 218.89,-237.04 216.62,-230.42"/>
<text text-anchor="middle" x="284.5" y="-234.5" font-family="Helvetica,sans-Serif" font-size="10.00"> cookie</text>
<text text-anchor="middle" x="284.5" y="-223.5" font-family="Helvetica,sans-Serif" font-size="10.00">res</text>
</g>
<!-- Node15 -->
<g id="node15" class="node">
<title>Node15</title>
<g id="a_node15"><a xlink:href="structtaurus__rvgc__ioc__layer__set__pos__out.html" target="_top" xlink:title=" ">
<polygon fill="white" stroke="black" points="329.5,-49.5 329.5,-79.5 452.5,-79.5 452.5,-49.5 329.5,-49.5"/>
<text text-anchor="start" x="337.5" y="-67.5" font-family="Helvetica,sans-Serif" font-size="10.00">taurus_rvgc_ioc_layer</text>
<text text-anchor="middle" x="391" y="-56.5" font-family="Helvetica,sans-Serif" font-size="10.00">_set_pos_out</text>
</a>
</g>
</g>
<!-- Node3&#45;&gt;Node15 -->
<g id="edge25" class="edge">
<title>Node3&#45;&gt;Node15</title>
<path fill="none" stroke="#9a32cd" stroke-dasharray="5,2" d="M193.59,-228.35C214.7,-195.39 263.97,-125.76 324,-89.5 330.08,-85.83 336.8,-82.53 343.55,-79.64"/>
<polygon fill="#9a32cd" stroke="#9a32cd" points="190.53,-226.64 188.18,-236.97 196.46,-230.36 190.53,-226.64"/>
<text text-anchor="middle" x="284.5" y="-150.5" font-family="Helvetica,sans-Serif" font-size="10.00"> cookie</text>
<text text-anchor="middle" x="284.5" y="-139.5" font-family="Helvetica,sans-Serif" font-size="10.00">res</text>
</g>
<!-- Node4&#45;&gt;Node1 -->
<g id="edge3" class="edge">
<title>Node4&#45;&gt;Node1</title>
<path fill="none" stroke="#9a32cd" stroke-dasharray="5,2" d="M468.31,-505.9C505.44,-505.46 548.53,-498.43 579,-473.5 648.11,-416.97 655.35,-295.01 655.98,-260.04"/>
<polygon fill="#9a32cd" stroke="#9a32cd" points="468.02,-502.4 458.01,-505.86 468,-509.4 468.02,-502.4"/>
<text text-anchor="middle" x="527.5" y="-508.5" font-family="Helvetica,sans-Serif" font-size="10.00"> hdr</text>
</g>
<!-- Node5 -->
<g id="node5" class="node">
<title>Node5</title>
<g id="a_node5"><a xlink:href="structR__TAURUS__Eth__Data__t.html" target="_top" xlink:title=" ">
<polygon fill="white" stroke="black" points="118,-607 118,-626 245,-626 245,-607 118,-607"/>
<text text-anchor="middle" x="181.5" y="-614" font-family="Helvetica,sans-Serif" font-size="10.00">R_TAURUS_Eth_Data_t</text>
</a>
</g>
</g>
<!-- Node5&#45;&gt;Node4 -->
<g id="edge5" class="edge">
<title>Node5&#45;&gt;Node4</title>
<path fill="none" stroke="#9a32cd" stroke-dasharray="5,2" d="M219.3,-603.37C227.84,-600.05 236.82,-596.33 245,-592.5 273.11,-579.35 279.78,-575.1 306,-558.5 332.2,-541.92 361.35,-520.35 377.5,-508.1"/>
<polygon fill="#9a32cd" stroke="#9a32cd" points="218.03,-600.11 209.92,-606.93 220.51,-606.65 218.03,-600.11"/>
<text text-anchor="middle" x="284.5" y="-586.5" font-family="Helvetica,sans-Serif" font-size="10.00"> Eth_Aux</text>
</g>
<!-- Node6 -->
<g id="node6" class="node">
<title>Node6</title>
<g id="a_node6"><a xlink:title=" ">
<polygon fill="white" stroke="#bfbfbf" points="0,-493 0,-512 56,-512 56,-493 0,-493"/>
<text text-anchor="middle" x="28" y="-500" font-family="Helvetica,sans-Serif" font-size="10.00">uint32_t</text>
</a>
</g>
</g>
<!-- Node6&#45;&gt;Node1 -->
<g id="edge18" class="edge">
<title>Node6&#45;&gt;Node1</title>
<path fill="none" stroke="#9a32cd" stroke-dasharray="5,2" d="M66.1,-492.14C82.01,-487.9 100.84,-483.15 118,-479.5 321.4,-436.25 412.31,-523.83 579,-399.5 627.78,-363.12 648.23,-286.83 654.1,-260.04"/>
<polygon fill="#9a32cd" stroke="#9a32cd" points="64.86,-488.85 56.12,-494.84 66.69,-495.61 64.86,-488.85"/>
<text text-anchor="middle" x="284.5" y="-470.5" font-family="Helvetica,sans-Serif" font-size="10.00"> type</text>
</g>
<!-- Node6&#45;&gt;Node4 -->
<g id="edge7" class="edge">
<title>Node6&#45;&gt;Node4</title>
<path fill="none" stroke="#9a32cd" stroke-dasharray="5,2" d="M66.1,-510.18C82,-513.1 100.84,-516.06 118,-517.5 201.28,-524.47 223.04,-523.6 306,-513.5 317.62,-512.09 330.06,-510.12 341.72,-508.07"/>
<polygon fill="#9a32cd" stroke="#9a32cd" points="66.59,-506.71 56.12,-508.28 65.29,-513.58 66.59,-506.71"/>
<text text-anchor="middle" x="181.5" y="-557.5" font-family="Helvetica,sans-Serif" font-size="10.00"> Channel</text>
<text text-anchor="middle" x="181.5" y="-546.5" font-family="Helvetica,sans-Serif" font-size="10.00">Id</text>
<text text-anchor="middle" x="181.5" y="-535.5" font-family="Helvetica,sans-Serif" font-size="10.00">Per</text>
<text text-anchor="middle" x="181.5" y="-524.5" font-family="Helvetica,sans-Serif" font-size="10.00">Result</text>
</g>
<!-- Node6&#45;&gt;Node5 -->
<g id="edge6" class="edge">
<title>Node6&#45;&gt;Node5</title>
<path fill="none" stroke="#9a32cd" stroke-dasharray="5,2" d="M41.76,-520.52C50.28,-531.97 62.06,-546.78 74,-558.5 91.64,-575.81 96.46,-580.39 118,-592.5 128.13,-598.2 139.88,-603.11 150.45,-606.97"/>
<polygon fill="#9a32cd" stroke="#9a32cd" points="44.41,-518.21 35.7,-512.19 38.75,-522.33 44.41,-518.21"/>
<text text-anchor="middle" x="87" y="-594.5" font-family="Helvetica,sans-Serif" font-size="10.00"> Addr</text>
<text text-anchor="middle" x="87" y="-583.5" font-family="Helvetica,sans-Serif" font-size="10.00">Size</text>
</g>
<!-- Node6&#45;&gt;Node10 -->
<g id="edge15" class="edge">
<title>Node6&#45;&gt;Node10</title>
<path fill="none" stroke="#9a32cd" stroke-dasharray="5,2" d="M29.57,-482.52C32.06,-428.66 45.51,-278.11 118,-183.5 163.57,-124.02 190.74,-117.32 263,-97.5 281.43,-92.45 289.37,-88.08 306,-97.5 319.53,-105.16 312.07,-117.53 324,-127.5 328.61,-131.35 333.87,-134.64 339.36,-137.45"/>
<polygon fill="#9a32cd" stroke="#9a32cd" points="26.06,-482.63 29.18,-492.76 33.06,-482.9 26.06,-482.63"/>
<text text-anchor="middle" x="181.5" y="-219.5" font-family="Helvetica,sans-Serif" font-size="10.00"> height</text>
<text text-anchor="middle" x="181.5" y="-208.5" font-family="Helvetica,sans-Serif" font-size="10.00">layers</text>
<text text-anchor="middle" x="181.5" y="-197.5" font-family="Helvetica,sans-Serif" font-size="10.00">pitch</text>
<text text-anchor="middle" x="181.5" y="-186.5" font-family="Helvetica,sans-Serif" font-size="10.00">width</text>
</g>
<!-- Node7 -->
<g id="node7" class="node">
<title>Node7</title>
<g id="a_node7"><a xlink:title=" ">
<polygon fill="white" stroke="#bfbfbf" points="135.5,-489 135.5,-508 227.5,-508 227.5,-489 135.5,-489"/>
<text text-anchor="middle" x="181.5" y="-496" font-family="Helvetica,sans-Serif" font-size="10.00">anonymous:@1</text>
</a>
</g>
</g>
<!-- Node7&#45;&gt;Node4 -->
<g id="edge8" class="edge">
<title>Node7&#45;&gt;Node4</title>
<path fill="none" stroke="#9a32cd" stroke-dasharray="5,2" d="M237.75,-498.5C264.19,-498.5 296.05,-498.5 323.78,-498.5"/>
<polygon fill="#9a32cd" stroke="#9a32cd" points="237.52,-495 227.52,-498.5 237.52,-502 237.52,-495"/>
<text text-anchor="middle" x="284.5" y="-501.5" font-family="Helvetica,sans-Serif" font-size="10.00"> @1</text>
</g>
<!-- Node8&#45;&gt;Node1 -->
<g id="edge9" class="edge">
<title>Node8&#45;&gt;Node1</title>
<path fill="none" stroke="#9a32cd" stroke-dasharray="5,2" d="M462.74,-12.8C501.05,-14.95 546.96,-23.83 579,-50.5 640.48,-101.68 653,-207.96 655.44,-240.69"/>
<polygon fill="#9a32cd" stroke="#9a32cd" points="462.81,-9.3 452.67,-12.38 462.52,-16.3 462.81,-9.3"/>
<text text-anchor="middle" x="527.5" y="-53.5" font-family="Helvetica,sans-Serif" font-size="10.00"> ioc_layer_release</text>
</g>
<!-- Node9&#45;&gt;Node1 -->
<g id="edge11" class="edge">
<title>Node9&#45;&gt;Node1</title>
<path fill="none" stroke="#9a32cd" stroke-dasharray="5,2" d="M462.96,-388.37C499.86,-381.11 544.36,-368.22 579,-345.5 613.62,-322.8 640.17,-279.56 650.86,-260.24"/>
<polygon fill="#9a32cd" stroke="#9a32cd" points="461.96,-385 452.77,-390.27 463.25,-391.88 461.96,-385"/>
<text text-anchor="middle" x="527.5" y="-387.5" font-family="Helvetica,sans-Serif" font-size="10.00"> ioc_layer_set_addr</text>
</g>
<!-- Node10&#45;&gt;Node1 -->
<g id="edge13" class="edge">
<title>Node10&#45;&gt;Node1</title>
<path fill="none" stroke="#9a32cd" stroke-dasharray="5,2" d="M468.21,-166.83C502.85,-174.76 543.86,-186.17 579,-201.5 603.4,-212.15 628.93,-229.92 643.61,-240.89"/>
<polygon fill="#9a32cd" stroke="#9a32cd" points="468.67,-163.35 458.14,-164.58 467.14,-170.18 468.67,-163.35"/>
<text text-anchor="middle" x="527.5" y="-204.5" font-family="Helvetica,sans-Serif" font-size="10.00"> ioc_display_get_info</text>
</g>
<!-- Node11&#45;&gt;Node1 -->
<g id="edge16" class="edge">
<title>Node11&#45;&gt;Node1</title>
<path fill="none" stroke="#9a32cd" stroke-dasharray="5,2" d="M468.1,-285.89C502.06,-279.75 542.55,-272.36 579,-265.5 588.24,-263.76 598.09,-261.87 607.55,-260.03"/>
<polygon fill="#9a32cd" stroke="#9a32cd" points="467.46,-282.45 458.24,-287.66 468.71,-289.33 467.46,-282.45"/>
<text text-anchor="middle" x="527.5" y="-286.5" font-family="Helvetica,sans-Serif" font-size="10.00"> ioc_display_flush</text>
</g>
<!-- Node12&#45;&gt;Node1 -->
<g id="edge19" class="edge">
<title>Node12&#45;&gt;Node1</title>
<path fill="none" stroke="#9a32cd" stroke-dasharray="5,2" d="M468.48,-250.5C509.38,-250.5 558.99,-250.5 596.9,-250.5"/>
<polygon fill="#9a32cd" stroke="#9a32cd" points="468.28,-247 458.28,-250.5 468.28,-254 468.28,-247"/>
<text text-anchor="middle" x="527.5" y="-253.5" font-family="Helvetica,sans-Serif" font-size="10.00"> ioc_display_init</text>
</g>
<!-- Node13 -->
<g id="node13" class="node">
<title>Node13</title>
<g id="a_node13"><a xlink:title=" ">
<polygon fill="white" stroke="#bfbfbf" points="334.5,-99 334.5,-118 447.5,-118 447.5,-99 334.5,-99"/>
<text text-anchor="middle" x="391" y="-106" font-family="Helvetica,sans-Serif" font-size="10.00">anonymous:params</text>
</a>
</g>
</g>
<!-- Node13&#45;&gt;Node1 -->
<g id="edge21" class="edge">
<title>Node13&#45;&gt;Node1</title>
<path fill="none" stroke="#9a32cd" stroke-dasharray="5,2" d="M457.62,-113.63C495.51,-119.09 542.7,-130.33 579,-153.5 614.53,-176.17 640.79,-220.99 651.15,-240.75"/>
<polygon fill="#9a32cd" stroke="#9a32cd" points="458.07,-110.16 447.7,-112.3 457.14,-117.1 458.07,-110.16"/>
<text text-anchor="middle" x="527.5" y="-156.5" font-family="Helvetica,sans-Serif" font-size="10.00"> params</text>
</g>
<!-- Node14&#45;&gt;Node1 -->
<g id="edge22" class="edge">
<title>Node14&#45;&gt;Node1</title>
<path fill="none" stroke="#9a32cd" stroke-dasharray="5,2" d="M462.79,-214.16C497.78,-220.47 540.63,-228.28 579,-235.5 588.24,-237.24 598.09,-239.13 607.55,-240.97"/>
<polygon fill="#9a32cd" stroke="#9a32cd" points="463.13,-210.66 452.67,-212.33 461.89,-217.55 463.13,-210.66"/>
<text text-anchor="middle" x="527.5" y="-238.5" font-family="Helvetica,sans-Serif" font-size="10.00"> ioc_layer_set_size</text>
</g>
<!-- Node15&#45;&gt;Node1 -->
<g id="edge24" class="edge">
<title>Node15&#45;&gt;Node1</title>
<path fill="none" stroke="#9a32cd" stroke-dasharray="5,2" d="M463.02,-64.14C500.74,-67.27 545.99,-76.69 579,-101.5 627.65,-138.07 648.18,-214.24 654.09,-240.97"/>
<polygon fill="#9a32cd" stroke="#9a32cd" points="462.81,-60.62 452.6,-63.42 462.33,-67.6 462.81,-60.62"/>
<text text-anchor="middle" x="527.5" y="-104.5" font-family="Helvetica,sans-Serif" font-size="10.00"> ioc_layer_set_pos</text>
</g>
</g>
</svg>
