<?xml version="1.0" encoding="UTF-8" standalone="no"?>
<!DOCTYPE svg PUBLIC "-//W3C//DTD SVG 1.1//EN"
 "http://www.w3.org/Graphics/SVG/1.1/DTD/svg11.dtd">
<!-- Generated by graphviz version 2.43.0 (0)
 -->
<!-- Title: taurus_camera_res_msg Pages: 1 -->
<svg width="882pt" height="612pt"
 viewBox="0.00 0.00 882.00 612.03" xmlns="http://www.w3.org/2000/svg" xmlns:xlink="http://www.w3.org/1999/xlink">
<g id="graph0" class="graph" transform="scale(1 1) rotate(0) translate(4 608.03)">
<title>taurus_camera_res_msg</title>
<polygon fill="white" stroke="transparent" points="-4,4 -4,-608.03 878,-608.03 878,4 -4,4"/>
<!-- Node1 -->
<g id="node1" class="node">
<title>Node1</title>
<g id="a_node1"><a xlink:title=" ">
<polygon fill="#bfbfbf" stroke="black" points="738,-238.53 738,-257.53 874,-257.53 874,-238.53 738,-238.53"/>
<text text-anchor="middle" x="806" y="-245.53" font-family="Helvetica,sans-Serif" font-size="10.00">taurus_camera_res_msg</text>
</a>
</g>
</g>
<!-- Node2 -->
<g id="node2" class="node">
<title>Node2</title>
<g id="a_node2"><a xlink:href="structR__TAURUS__ResultMsg__t.html" target="_top" xlink:title=" ">
<polygon fill="white" stroke="black" points="437,-486.53 437,-505.53 571,-505.53 571,-486.53 437,-486.53"/>
<text text-anchor="middle" x="504" y="-493.53" font-family="Helvetica,sans-Serif" font-size="10.00">R_TAURUS_ResultMsg_t</text>
</a>
</g>
</g>
<!-- Node2&#45;&gt;Node1 -->
<g id="edge1" class="edge">
<title>Node2&#45;&gt;Node1</title>
<path fill="none" stroke="#9a32cd" stroke-dasharray="5,2" d="M581.1,-493.28C626.03,-487.98 681.48,-474.61 720,-442.03 780.09,-391.22 799.11,-289.79 803.74,-257.88"/>
<polygon fill="#9a32cd" stroke="#9a32cd" points="580.67,-489.8 571.09,-494.34 581.41,-496.76 580.67,-489.8"/>
<text text-anchor="middle" x="659" y="-493.03" font-family="Helvetica,sans-Serif" font-size="10.00"> hdr</text>
</g>
<!-- Node3 -->
<g id="node3" class="node">
<title>Node3</title>
<g id="a_node3"><a xlink:title=" ">
<polygon fill="white" stroke="#bfbfbf" points="219.5,-236.53 219.5,-255.53 275.5,-255.53 275.5,-236.53 219.5,-236.53"/>
<text text-anchor="middle" x="247.5" y="-243.53" font-family="Helvetica,sans-Serif" font-size="10.00">uint64_t</text>
</a>
</g>
</g>
<!-- Node3&#45;&gt;Node2 -->
<g id="edge2" class="edge">
<title>Node3&#45;&gt;Node2</title>
<path fill="none" stroke="#9a32cd" stroke-dasharray="5,2" d="M264.14,-263.39C281.85,-283.99 310.28,-320.1 326,-356.03 341.3,-391.01 318.78,-411.37 344,-440.03 352.63,-449.84 426.53,-473.19 470.48,-486.44"/>
<polygon fill="#9a32cd" stroke="#9a32cd" points="266.71,-261.02 257.49,-255.8 261.45,-265.63 266.71,-261.02"/>
<text text-anchor="middle" x="377" y="-470.03" font-family="Helvetica,sans-Serif" font-size="10.00"> Aux</text>
</g>
<!-- Node7 -->
<g id="node7" class="node">
<title>Node7</title>
<g id="a_node7"><a xlink:href="structtaurus__camera__ioc__get__channel__info__out.html" target="_top" xlink:title=" ">
<polygon fill="white" stroke="black" points="439,-355.03 439,-385.03 569,-385.03 569,-355.03 439,-355.03"/>
<text text-anchor="start" x="447" y="-373.03" font-family="Helvetica,sans-Serif" font-size="10.00">taurus_camera_ioc_get</text>
<text text-anchor="middle" x="504" y="-362.03" font-family="Helvetica,sans-Serif" font-size="10.00">_channel_info_out</text>
</a>
</g>
</g>
<!-- Node3&#45;&gt;Node7 -->
<g id="edge8" class="edge">
<title>Node3&#45;&gt;Node7</title>
<path fill="none" stroke="#9a32cd" stroke-dasharray="5,2" d="M263.46,-263.42C280.89,-282.58 311.48,-312.94 344,-330.03 373.35,-345.46 408.92,-355.13 438.96,-361.09"/>
<polygon fill="#9a32cd" stroke="#9a32cd" points="265.88,-260.88 256.62,-255.73 260.65,-265.53 265.88,-260.88"/>
<text text-anchor="middle" x="377" y="-367.03" font-family="Helvetica,sans-Serif" font-size="10.00"> cookie</text>
<text text-anchor="middle" x="377" y="-356.03" font-family="Helvetica,sans-Serif" font-size="10.00">res</text>
</g>
<!-- Node8 -->
<g id="node8" class="node">
<title>Node8</title>
<g id="a_node8"><a xlink:href="structtaurus__camera__ioc__get__info__out.html" target="_top" xlink:title=" ">
<polygon fill="white" stroke="black" points="439,-22.03 439,-52.03 569,-52.03 569,-22.03 439,-22.03"/>
<text text-anchor="start" x="447" y="-40.03" font-family="Helvetica,sans-Serif" font-size="10.00">taurus_camera_ioc_get</text>
<text text-anchor="middle" x="504" y="-29.03" font-family="Helvetica,sans-Serif" font-size="10.00">_info_out</text>
</a>
</g>
</g>
<!-- Node3&#45;&gt;Node8 -->
<g id="edge11" class="edge">
<title>Node3&#45;&gt;Node8</title>
<path fill="none" stroke="#9a32cd" stroke-dasharray="5,2" d="M282.37,-231.91C298.2,-223.54 315.77,-211.34 326,-195.03 358.4,-143.38 301.01,-102.27 344,-59.03 368.26,-34.62 406.12,-28.65 438.81,-29"/>
<polygon fill="#9a32cd" stroke="#9a32cd" points="280.72,-228.82 273.32,-236.4 283.83,-235.09 280.72,-228.82"/>
<text text-anchor="middle" x="377" y="-73.03" font-family="Helvetica,sans-Serif" font-size="10.00"> cookie</text>
<text text-anchor="middle" x="377" y="-62.03" font-family="Helvetica,sans-Serif" font-size="10.00">res</text>
</g>
<!-- Node9 -->
<g id="node9" class="node">
<title>Node9</title>
<g id="a_node9"><a xlink:href="structtaurus__camera__ioc__channel__feed__buffer__out.html" target="_top" xlink:title=" ">
<polygon fill="white" stroke="black" points="428,-71.03 428,-101.03 580,-101.03 580,-71.03 428,-71.03"/>
<text text-anchor="start" x="436" y="-89.03" font-family="Helvetica,sans-Serif" font-size="10.00">taurus_camera_ioc_channel</text>
<text text-anchor="middle" x="504" y="-78.03" font-family="Helvetica,sans-Serif" font-size="10.00">_feed_buffer_out</text>
</a>
</g>
</g>
<!-- Node3&#45;&gt;Node9 -->
<g id="edge14" class="edge">
<title>Node3&#45;&gt;Node9</title>
<path fill="none" stroke="#9a32cd" stroke-dasharray="5,2" d="M281.09,-231.86C296.93,-223.37 314.9,-211.09 326,-195.03 346.73,-165.06 317.71,-140.27 344,-115.03 366.06,-93.85 398.16,-85.45 427.75,-82.78"/>
<polygon fill="#9a32cd" stroke="#9a32cd" points="279.43,-228.78 272.08,-236.42 282.59,-235.03 279.43,-228.78"/>
<text text-anchor="middle" x="377" y="-129.03" font-family="Helvetica,sans-Serif" font-size="10.00"> cookie</text>
<text text-anchor="middle" x="377" y="-118.03" font-family="Helvetica,sans-Serif" font-size="10.00">res</text>
</g>
<!-- Node10 -->
<g id="node10" class="node">
<title>Node10</title>
<g id="a_node10"><a xlink:href="structtaurus__camera__ioc__channel__stop__out.html" target="_top" xlink:title=" ">
<polygon fill="white" stroke="black" points="428,-257.03 428,-287.03 580,-287.03 580,-257.03 428,-257.03"/>
<text text-anchor="start" x="436" y="-275.03" font-family="Helvetica,sans-Serif" font-size="10.00">taurus_camera_ioc_channel</text>
<text text-anchor="middle" x="504" y="-264.03" font-family="Helvetica,sans-Serif" font-size="10.00">_stop_out</text>
</a>
</g>
</g>
<!-- Node3&#45;&gt;Node10 -->
<g id="edge17" class="edge">
<title>Node3&#45;&gt;Node10</title>
<path fill="none" stroke="#9a32cd" stroke-dasharray="5,2" d="M286.12,-249.87C323.33,-253.68 381.31,-259.6 427.96,-264.37"/>
<polygon fill="#9a32cd" stroke="#9a32cd" points="286.04,-246.35 275.74,-248.81 285.33,-253.31 286.04,-246.35"/>
<text text-anchor="middle" x="377" y="-276.03" font-family="Helvetica,sans-Serif" font-size="10.00"> cookie</text>
<text text-anchor="middle" x="377" y="-265.03" font-family="Helvetica,sans-Serif" font-size="10.00">res</text>
</g>
<!-- Node11 -->
<g id="node11" class="node">
<title>Node11</title>
<g id="a_node11"><a xlink:href="structtaurus__camera__ioc__channel__start__out.html" target="_top" xlink:title=" ">
<polygon fill="white" stroke="black" points="428,-208.03 428,-238.03 580,-238.03 580,-208.03 428,-208.03"/>
<text text-anchor="start" x="436" y="-226.03" font-family="Helvetica,sans-Serif" font-size="10.00">taurus_camera_ioc_channel</text>
<text text-anchor="middle" x="504" y="-215.03" font-family="Helvetica,sans-Serif" font-size="10.00">_start_out</text>
</a>
</g>
</g>
<!-- Node3&#45;&gt;Node11 -->
<g id="edge20" class="edge">
<title>Node3&#45;&gt;Node11</title>
<path fill="none" stroke="#9a32cd" stroke-dasharray="5,2" d="M285.65,-235.47C303.19,-231 324.51,-226.31 344,-224.03 371.28,-220.84 401.37,-219.98 427.97,-220.12"/>
<polygon fill="#9a32cd" stroke="#9a32cd" points="284.59,-232.13 275.8,-238.05 286.36,-238.9 284.59,-232.13"/>
<text text-anchor="middle" x="377" y="-238.03" font-family="Helvetica,sans-Serif" font-size="10.00"> cookie</text>
<text text-anchor="middle" x="377" y="-227.03" font-family="Helvetica,sans-Serif" font-size="10.00">res</text>
</g>
<!-- Node13 -->
<g id="node13" class="node">
<title>Node13</title>
<g id="a_node13"><a xlink:href="structtaurus__camera__ioc__channel__release__out.html" target="_top" xlink:title=" ">
<polygon fill="white" stroke="black" points="428,-306.03 428,-336.03 580,-336.03 580,-306.03 428,-306.03"/>
<text text-anchor="start" x="436" y="-324.03" font-family="Helvetica,sans-Serif" font-size="10.00">taurus_camera_ioc_channel</text>
<text text-anchor="middle" x="504" y="-313.03" font-family="Helvetica,sans-Serif" font-size="10.00">_release_out</text>
</a>
</g>
</g>
<!-- Node3&#45;&gt;Node13 -->
<g id="edge23" class="edge">
<title>Node3&#45;&gt;Node13</title>
<path fill="none" stroke="#9a32cd" stroke-dasharray="5,2" d="M276.21,-260.07C294.96,-269.1 320.49,-280.51 344,-288.03 370.85,-296.62 400.99,-303.53 427.74,-308.77"/>
<polygon fill="#9a32cd" stroke="#9a32cd" points="277.59,-256.85 267.07,-255.6 274.51,-263.14 277.59,-256.85"/>
<text text-anchor="middle" x="377" y="-318.03" font-family="Helvetica,sans-Serif" font-size="10.00"> cookie</text>
<text text-anchor="middle" x="377" y="-307.03" font-family="Helvetica,sans-Serif" font-size="10.00">res</text>
</g>
<!-- Node14 -->
<g id="node14" class="node">
<title>Node14</title>
<g id="a_node14"><a xlink:href="structtaurus__camera__ioc__channel__init__out.html" target="_top" xlink:title=" ">
<polygon fill="white" stroke="black" points="428,-159.03 428,-189.03 580,-189.03 580,-159.03 428,-159.03"/>
<text text-anchor="start" x="436" y="-177.03" font-family="Helvetica,sans-Serif" font-size="10.00">taurus_camera_ioc_channel</text>
<text text-anchor="middle" x="504" y="-166.03" font-family="Helvetica,sans-Serif" font-size="10.00">_init_out</text>
</a>
</g>
</g>
<!-- Node3&#45;&gt;Node14 -->
<g id="edge25" class="edge">
<title>Node3&#45;&gt;Node14</title>
<path fill="none" stroke="#9a32cd" stroke-dasharray="5,2" d="M270.7,-230.82C289.39,-218.79 317.29,-202.64 344,-194.03 370.61,-185.45 400.83,-180.53 427.73,-177.71"/>
<polygon fill="#9a32cd" stroke="#9a32cd" points="268.73,-227.92 262.3,-236.34 272.58,-233.77 268.73,-227.92"/>
<text text-anchor="middle" x="377" y="-208.03" font-family="Helvetica,sans-Serif" font-size="10.00"> cookie</text>
<text text-anchor="middle" x="377" y="-197.03" font-family="Helvetica,sans-Serif" font-size="10.00">res</text>
</g>
<!-- Node4 -->
<g id="node4" class="node">
<title>Node4</title>
<g id="a_node4"><a xlink:href="structR__TAURUS__Eth__Data__t.html" target="_top" xlink:title=" ">
<polygon fill="white" stroke="black" points="184,-584.53 184,-603.53 311,-603.53 311,-584.53 184,-584.53"/>
<text text-anchor="middle" x="247.5" y="-591.53" font-family="Helvetica,sans-Serif" font-size="10.00">R_TAURUS_Eth_Data_t</text>
</a>
</g>
</g>
<!-- Node4&#45;&gt;Node2 -->
<g id="edge3" class="edge">
<title>Node4&#45;&gt;Node2</title>
<path fill="none" stroke="#9a32cd" stroke-dasharray="5,2" d="M291.23,-581.51C302.59,-577.98 314.81,-574.02 326,-570.03 383.57,-549.51 449.55,-520.39 482.3,-505.54"/>
<polygon fill="#9a32cd" stroke="#9a32cd" points="290.05,-578.21 281.51,-584.48 292.1,-584.9 290.05,-578.21"/>
<text text-anchor="middle" x="377" y="-565.03" font-family="Helvetica,sans-Serif" font-size="10.00"> Eth_Aux</text>
</g>
<!-- Node5 -->
<g id="node5" class="node">
<title>Node5</title>
<g id="a_node5"><a xlink:title=" ">
<polygon fill="white" stroke="#bfbfbf" points="0,-368.53 0,-387.53 56,-387.53 56,-368.53 0,-368.53"/>
<text text-anchor="middle" x="28" y="-375.53" font-family="Helvetica,sans-Serif" font-size="10.00">uint32_t</text>
</a>
</g>
</g>
<!-- Node5&#45;&gt;Node1 -->
<g id="edge18" class="edge">
<title>Node5&#45;&gt;Node1</title>
<path fill="none" stroke="#9a32cd" stroke-dasharray="5,2" d="M62.77,-390.83C66.53,-392.02 70.32,-393.12 74,-394.03 115.41,-404.34 126.44,-404.91 169,-408.03 291.36,-417 616.36,-438.7 720,-373.03 765.22,-344.38 792.35,-282.01 801.5,-257.86"/>
<polygon fill="#9a32cd" stroke="#9a32cd" points="63.62,-387.42 53.02,-387.55 61.38,-394.06 63.62,-387.42"/>
<text text-anchor="middle" x="377" y="-421.03" font-family="Helvetica,sans-Serif" font-size="10.00"> type</text>
</g>
<!-- Node5&#45;&gt;Node2 -->
<g id="edge5" class="edge">
<title>Node5&#45;&gt;Node2</title>
<path fill="none" stroke="#9a32cd" stroke-dasharray="5,2" d="M39.09,-396.76C47.18,-410.52 59.55,-429.01 74,-442.03 109.92,-474.4 122.5,-481.8 169,-495.03 261.44,-521.34 374.19,-514 442.2,-505.56"/>
<polygon fill="#9a32cd" stroke="#9a32cd" points="41.95,-394.71 33.98,-387.73 35.86,-398.16 41.95,-394.71"/>
<text text-anchor="middle" x="247.5" y="-549.03" font-family="Helvetica,sans-Serif" font-size="10.00"> Channel</text>
<text text-anchor="middle" x="247.5" y="-538.03" font-family="Helvetica,sans-Serif" font-size="10.00">Id</text>
<text text-anchor="middle" x="247.5" y="-527.03" font-family="Helvetica,sans-Serif" font-size="10.00">Per</text>
<text text-anchor="middle" x="247.5" y="-516.03" font-family="Helvetica,sans-Serif" font-size="10.00">Result</text>
</g>
<!-- Node5&#45;&gt;Node4 -->
<g id="edge4" class="edge">
<title>Node5&#45;&gt;Node4</title>
<path fill="none" stroke="#9a32cd" stroke-dasharray="5,2" d="M29.1,-397.81C30.35,-430.76 37.56,-497.1 74,-536.03 102.39,-566.37 147.13,-580.84 183.93,-587.74"/>
<polygon fill="#9a32cd" stroke="#9a32cd" points="32.6,-397.57 28.87,-387.65 25.6,-397.73 32.6,-397.57"/>
<text text-anchor="middle" x="112.5" y="-593.03" font-family="Helvetica,sans-Serif" font-size="10.00"> Addr</text>
<text text-anchor="middle" x="112.5" y="-582.03" font-family="Helvetica,sans-Serif" font-size="10.00">Size</text>
</g>
<!-- Node5&#45;&gt;Node7 -->
<g id="edge9" class="edge">
<title>Node5&#45;&gt;Node7</title>
<path fill="none" stroke="#9a32cd" stroke-dasharray="5,2" d="M66.54,-379.39C134.9,-381.59 284.26,-385.1 410,-379.03 419.32,-378.58 429.14,-377.88 438.77,-377.06"/>
<polygon fill="#9a32cd" stroke="#9a32cd" points="66.39,-375.89 56.28,-379.05 66.16,-382.88 66.39,-375.89"/>
<text text-anchor="middle" x="247.5" y="-396.03" font-family="Helvetica,sans-Serif" font-size="10.00"> height</text>
<text text-anchor="middle" x="247.5" y="-385.03" font-family="Helvetica,sans-Serif" font-size="10.00">width</text>
</g>
<!-- Node5&#45;&gt;Node8 -->
<g id="edge12" class="edge">
<title>Node5&#45;&gt;Node8</title>
<path fill="none" stroke="#9a32cd" stroke-dasharray="5,2" d="M28.72,-357.98C29.06,-292.28 40.51,-84.28 169,-25.03 262.26,17.98 386.23,-4.22 453.85,-22.02"/>
<polygon fill="#9a32cd" stroke="#9a32cd" points="25.22,-358.23 28.75,-368.22 32.22,-358.2 25.22,-358.23"/>
<text text-anchor="middle" x="247.5" y="-28.03" font-family="Helvetica,sans-Serif" font-size="10.00"> channel_num</text>
</g>
<!-- Node5&#45;&gt;Node9 -->
<g id="edge15" class="edge">
<title>Node5&#45;&gt;Node9</title>
<path fill="none" stroke="#9a32cd" stroke-dasharray="5,2" d="M32.9,-358.4C38.95,-330.6 52.23,-278.71 74,-239.03 105.89,-180.91 117.26,-165.48 169,-124.03 237.1,-69.47 259.14,-55.37 344,-35.03 372.53,-28.19 384.02,-21.42 410,-35.03 422.45,-41.55 416.76,-52.6 428,-61.03 433.16,-64.9 438.95,-68.19 444.97,-70.99"/>
<polygon fill="#9a32cd" stroke="#9a32cd" points="29.42,-357.92 30.8,-368.43 36.27,-359.36 29.42,-357.92"/>
<text text-anchor="middle" x="247.5" y="-149.03" font-family="Helvetica,sans-Serif" font-size="10.00"> accepted_buf_cnt</text>
<text text-anchor="middle" x="247.5" y="-138.03" font-family="Helvetica,sans-Serif" font-size="10.00">empty_buf_cnt</text>
<text text-anchor="middle" x="247.5" y="-127.03" font-family="Helvetica,sans-Serif" font-size="10.00">vacant_buf_cell_cnt</text>
</g>
<!-- Node15 -->
<g id="node15" class="node">
<title>Node15</title>
<g id="a_node15"><a xlink:href="structtaurus__camera__channel__info.html" target="_top" xlink:title=" ">
<polygon fill="white" stroke="black" points="169,-166.53 169,-185.53 326,-185.53 326,-166.53 169,-166.53"/>
<text text-anchor="middle" x="247.5" y="-173.53" font-family="Helvetica,sans-Serif" font-size="10.00">taurus_camera_channel_info</text>
</a>
</g>
</g>
<!-- Node5&#45;&gt;Node15 -->
<g id="edge27" class="edge">
<title>Node5&#45;&gt;Node15</title>
<path fill="none" stroke="#9a32cd" stroke-dasharray="5,2" d="M41.89,-360.14C50.58,-348.41 62.51,-332.92 74,-320.03 113.31,-275.92 123,-264.11 169,-227.03 188.81,-211.06 213.69,-195.38 229.83,-185.71"/>
<polygon fill="#9a32cd" stroke="#9a32cd" points="39.02,-358.13 35.94,-368.27 44.67,-362.27 39.02,-358.13"/>
<text text-anchor="middle" x="112.5" y="-356.03" font-family="Helvetica,sans-Serif" font-size="10.00"> height</text>
<text text-anchor="start" x="74" y="-345.03" font-family="Helvetica,sans-Serif" font-size="10.00">vacant_buf_cell</text>
<text text-anchor="middle" x="112.5" y="-334.03" font-family="Helvetica,sans-Serif" font-size="10.00">_cnt</text>
<text text-anchor="middle" x="112.5" y="-323.03" font-family="Helvetica,sans-Serif" font-size="10.00">width</text>
</g>
<!-- Node6 -->
<g id="node6" class="node">
<title>Node6</title>
<g id="a_node6"><a xlink:title=" ">
<polygon fill="white" stroke="#bfbfbf" points="201.5,-466.53 201.5,-485.53 293.5,-485.53 293.5,-466.53 201.5,-466.53"/>
<text text-anchor="middle" x="247.5" y="-473.53" font-family="Helvetica,sans-Serif" font-size="10.00">anonymous:@1</text>
</a>
</g>
</g>
<!-- Node6&#45;&gt;Node2 -->
<g id="edge6" class="edge">
<title>Node6&#45;&gt;Node2</title>
<path fill="none" stroke="#9a32cd" stroke-dasharray="5,2" d="M303.84,-480.38C342.89,-483.45 395.4,-487.57 436.69,-490.82"/>
<polygon fill="#9a32cd" stroke="#9a32cd" points="303.95,-476.88 293.71,-479.58 303.4,-483.86 303.95,-476.88"/>
<text text-anchor="middle" x="377" y="-491.03" font-family="Helvetica,sans-Serif" font-size="10.00"> @1</text>
</g>
<!-- Node7&#45;&gt;Node1 -->
<g id="edge7" class="edge">
<title>Node7&#45;&gt;Node1</title>
<path fill="none" stroke="#9a32cd" stroke-dasharray="5,2" d="M579.46,-362.11C622.31,-355.38 676.17,-343.12 720,-321.03 752.31,-304.75 782.54,-273.59 796.66,-257.77"/>
<polygon fill="#9a32cd" stroke="#9a32cd" points="578.75,-358.67 569.38,-363.62 579.79,-365.6 578.75,-358.67"/>
<text text-anchor="middle" x="659" y="-361.03" font-family="Helvetica,sans-Serif" font-size="10.00"> ioc_get_channel_info</text>
</g>
<!-- Node8&#45;&gt;Node1 -->
<g id="edge10" class="edge">
<title>Node8&#45;&gt;Node1</title>
<path fill="none" stroke="#9a32cd" stroke-dasharray="5,2" d="M579.57,-32.27C624.3,-33.17 680.07,-41.3 720,-71.03 778.24,-114.39 798.41,-208.13 803.54,-238.4"/>
<polygon fill="#9a32cd" stroke="#9a32cd" points="579.36,-28.77 569.33,-32.19 579.3,-35.77 579.36,-28.77"/>
<text text-anchor="middle" x="659" y="-74.03" font-family="Helvetica,sans-Serif" font-size="10.00"> ioc_get_info</text>
</g>
<!-- Node9&#45;&gt;Node1 -->
<g id="edge13" class="edge">
<title>Node9&#45;&gt;Node1</title>
<path fill="none" stroke="#9a32cd" stroke-dasharray="5,2" d="M590.35,-85.44C632.27,-88.78 681.83,-98.45 720,-123.03 765.01,-152.01 792.26,-214.18 801.48,-238.24"/>
<polygon fill="#9a32cd" stroke="#9a32cd" points="590.36,-81.94 580.15,-84.74 589.88,-88.92 590.36,-81.94"/>
<text text-anchor="middle" x="659" y="-126.03" font-family="Helvetica,sans-Serif" font-size="10.00"> ioc_channel_feed_buffer</text>
</g>
<!-- Node10&#45;&gt;Node1 -->
<g id="edge16" class="edge">
<title>Node10&#45;&gt;Node1</title>
<path fill="none" stroke="#9a32cd" stroke-dasharray="5,2" d="M590.43,-265.2C637.19,-261.46 694.3,-256.89 737.84,-253.4"/>
<polygon fill="#9a32cd" stroke="#9a32cd" points="590,-261.72 580.32,-266.01 590.56,-268.7 590,-261.72"/>
<text text-anchor="middle" x="659" y="-267.03" font-family="Helvetica,sans-Serif" font-size="10.00"> ioc_channel_stop</text>
</g>
<!-- Node11&#45;&gt;Node1 -->
<g id="edge19" class="edge">
<title>Node11&#45;&gt;Node1</title>
<path fill="none" stroke="#9a32cd" stroke-dasharray="5,2" d="M590.26,-229.48C629.75,-232.54 677.28,-236.33 720,-240.03 725.76,-240.53 731.74,-241.06 737.73,-241.61"/>
<polygon fill="#9a32cd" stroke="#9a32cd" points="590.39,-225.98 580.15,-228.7 589.85,-232.96 590.39,-225.98"/>
<text text-anchor="middle" x="659" y="-243.03" font-family="Helvetica,sans-Serif" font-size="10.00"> ioc_channel_start</text>
</g>
<!-- Node12 -->
<g id="node12" class="node">
<title>Node12</title>
<g id="a_node12"><a xlink:title=" ">
<polygon fill="white" stroke="#bfbfbf" points="447.5,-120.53 447.5,-139.53 560.5,-139.53 560.5,-120.53 447.5,-120.53"/>
<text text-anchor="middle" x="504" y="-127.53" font-family="Helvetica,sans-Serif" font-size="10.00">anonymous:params</text>
</a>
</g>
</g>
<!-- Node12&#45;&gt;Node1 -->
<g id="edge21" class="edge">
<title>Node12&#45;&gt;Node1</title>
<path fill="none" stroke="#9a32cd" stroke-dasharray="5,2" d="M570.6,-134.22C614.73,-139.14 673.17,-149.82 720,-173.03 753.15,-189.46 783.45,-222.21 797.21,-238.44"/>
<polygon fill="#9a32cd" stroke="#9a32cd" points="570.87,-130.73 560.56,-133.17 570.14,-137.69 570.87,-130.73"/>
<text text-anchor="middle" x="659" y="-176.03" font-family="Helvetica,sans-Serif" font-size="10.00"> params</text>
</g>
<!-- Node13&#45;&gt;Node1 -->
<g id="edge22" class="edge">
<title>Node13&#45;&gt;Node1</title>
<path fill="none" stroke="#9a32cd" stroke-dasharray="5,2" d="M590.23,-307.55C630,-300.46 677.78,-290.78 720,-279.03 741.34,-273.1 764.96,-264.29 781.87,-257.58"/>
<polygon fill="#9a32cd" stroke="#9a32cd" points="589.54,-304.12 580.3,-309.3 590.75,-311.01 589.54,-304.12"/>
<text text-anchor="middle" x="659" y="-309.03" font-family="Helvetica,sans-Serif" font-size="10.00"> ioc_channel_release</text>
</g>
<!-- Node14&#45;&gt;Node1 -->
<g id="edge24" class="edge">
<title>Node14&#45;&gt;Node1</title>
<path fill="none" stroke="#9a32cd" stroke-dasharray="5,2" d="M590.35,-186.63C630.15,-193.44 677.91,-202.96 720,-215.03 742.22,-221.4 766.74,-231.24 783.71,-238.52"/>
<polygon fill="#9a32cd" stroke="#9a32cd" points="590.85,-183.17 580.41,-184.96 589.69,-190.07 590.85,-183.17"/>
<text text-anchor="middle" x="659" y="-218.03" font-family="Helvetica,sans-Serif" font-size="10.00"> ioc_channel_init</text>
</g>
<!-- Node15&#45;&gt;Node14 -->
<g id="edge26" class="edge">
<title>Node15&#45;&gt;Node14</title>
<path fill="none" stroke="#9a32cd" stroke-dasharray="5,2" d="M280.71,-162.78C298.94,-155.99 322.35,-148.46 344,-145.03 372.97,-140.45 381,-140.61 410,-145.03 419.78,-146.52 440.05,-152.71 459.17,-158.98"/>
<polygon fill="#9a32cd" stroke="#9a32cd" points="279.24,-159.59 271.16,-166.44 281.75,-166.13 279.24,-159.59"/>
<text text-anchor="middle" x="377" y="-148.03" font-family="Helvetica,sans-Serif" font-size="10.00"> channel_info</text>
</g>
</g>
</svg>
