<?xml version="1.0" encoding="UTF-8" standalone="no"?>
<!DOCTYPE svg PUBLIC "-//W3C//DTD SVG 1.1//EN"
 "http://www.w3.org/Graphics/SVG/1.1/DTD/svg11.dtd">
<!-- Generated by graphviz version 2.43.0 (0)
 -->
<!-- Title: STag_Eth_RxChConfigType Pages: 1 -->
<svg width="505pt" height="106pt"
 viewBox="0.00 0.00 505.00 106.00" xmlns="http://www.w3.org/2000/svg" xmlns:xlink="http://www.w3.org/1999/xlink">
<g id="graph0" class="graph" transform="scale(1 1) rotate(0) translate(4 102)">
<title>STag_Eth_RxChConfigType</title>
<polygon fill="white" stroke="transparent" points="-4,4 -4,-102 501,-102 501,4 -4,4"/>
<!-- Node1 -->
<g id="node1" class="node">
<title>Node1</title>
<g id="a_node1"><a xlink:title=" ">
<polygon fill="#bfbfbf" stroke="black" points="104.5,-0.5 104.5,-19.5 248.5,-19.5 248.5,-0.5 104.5,-0.5"/>
<text text-anchor="middle" x="176.5" y="-7.5" font-family="Helvetica,sans-Serif" font-size="10.00">STag_Eth_RxChConfigType</text>
</a>
</g>
</g>
<!-- Node2 -->
<g id="node2" class="node">
<title>Node2</title>
<g id="a_node2"><a xlink:title=" ">
<polygon fill="white" stroke="#bfbfbf" points="0,-78.5 0,-97.5 85,-97.5 85,-78.5 0,-78.5"/>
<text text-anchor="middle" x="42.5" y="-85.5" font-family="Helvetica,sans-Serif" font-size="10.00">unsigned long</text>
</a>
</g>
</g>
<!-- Node2&#45;&gt;Node1 -->
<g id="edge1" class="edge">
<title>Node2&#45;&gt;Node1</title>
<path fill="none" stroke="#9a32cd" stroke-dasharray="5,2" d="M49.52,-68.81C54.45,-58.33 62.04,-45.75 72.5,-38 84.12,-29.39 98.23,-23.52 112.26,-19.52"/>
<polygon fill="#9a32cd" stroke="#9a32cd" points="46.17,-67.75 45.47,-78.32 52.61,-70.49 46.17,-67.75"/>
<text text-anchor="middle" x="97.5" y="-52" font-family="Helvetica,sans-Serif" font-size="10.00"> PHLength</text>
<text text-anchor="middle" x="97.5" y="-41" font-family="Helvetica,sans-Serif" font-size="10.00">PLength</text>
</g>
<!-- Node3 -->
<g id="node3" class="node">
<title>Node3</title>
<g id="a_node3"><a xlink:title=" ">
<polygon fill="white" stroke="#bfbfbf" points="103.5,-78.5 103.5,-97.5 141.5,-97.5 141.5,-78.5 103.5,-78.5"/>
<text text-anchor="middle" x="122.5" y="-85.5" font-family="Helvetica,sans-Serif" font-size="10.00">char</text>
</a>
</g>
</g>
<!-- Node3&#45;&gt;Node1 -->
<g id="edge2" class="edge">
<title>Node3&#45;&gt;Node1</title>
<path fill="none" stroke="#9a32cd" stroke-dasharray="5,2" d="M124.24,-68.3C125.9,-58.54 129.15,-46.82 135.5,-38 141.08,-30.25 149.62,-24.12 157.47,-19.66"/>
<polygon fill="#9a32cd" stroke="#9a32cd" points="120.77,-67.87 122.96,-78.24 127.71,-68.77 120.77,-67.87"/>
<text text-anchor="middle" x="172.5" y="-52" font-family="Helvetica,sans-Serif" font-size="10.00"> ChNum</text>
<text text-anchor="middle" x="172.5" y="-41" font-family="Helvetica,sans-Serif" font-size="10.00">PatternAddress</text>
</g>
<!-- Node4 -->
<g id="node4" class="node">
<title>Node4</title>
<g id="a_node4"><a xlink:title=" ">
<polygon fill="white" stroke="#bfbfbf" points="159.5,-78.5 159.5,-97.5 303.5,-97.5 303.5,-78.5 159.5,-78.5"/>
<text text-anchor="middle" x="231.5" y="-85.5" font-family="Helvetica,sans-Serif" font-size="10.00">enum ETag_Eth_RxChType</text>
</a>
</g>
</g>
<!-- Node4&#45;&gt;Node1 -->
<g id="edge3" class="edge">
<title>Node4&#45;&gt;Node1</title>
<path fill="none" stroke="#9a32cd" stroke-dasharray="5,2" d="M225.67,-68.87C221.98,-59.12 216.58,-47.24 209.5,-38 204.01,-30.83 196.26,-24.36 189.65,-19.56"/>
<polygon fill="#9a32cd" stroke="#9a32cd" points="222.39,-70.1 228.98,-78.39 229,-67.79 222.39,-70.1"/>
<text text-anchor="middle" x="241" y="-46.5" font-family="Helvetica,sans-Serif" font-size="10.00"> ChType</text>
</g>
<!-- Node5 -->
<g id="node5" class="node">
<title>Node5</title>
<g id="a_node5"><a xlink:title=" ">
<polygon fill="white" stroke="#bfbfbf" points="322,-78.5 322,-97.5 497,-97.5 497,-78.5 322,-78.5"/>
<text text-anchor="middle" x="409.5" y="-85.5" font-family="Helvetica,sans-Serif" font-size="10.00">enum ETag_Eth_RxBufModeType</text>
</a>
</g>
</g>
<!-- Node5&#45;&gt;Node1 -->
<g id="edge4" class="edge">
<title>Node5&#45;&gt;Node1</title>
<path fill="none" stroke="#9a32cd" stroke-dasharray="5,2" d="M375.18,-75.1C345.86,-65 302.51,-50.25 264.5,-38 244.73,-31.63 222.34,-24.76 205.1,-19.55"/>
<polygon fill="#9a32cd" stroke="#9a32cd" points="374.35,-78.51 384.94,-78.47 376.63,-71.9 374.35,-78.51"/>
<text text-anchor="middle" x="351" y="-46.5" font-family="Helvetica,sans-Serif" font-size="10.00"> BufMode</text>
</g>
</g>
</svg>
