<?xml version="1.0" encoding="UTF-8" standalone="no"?>
<!DOCTYPE svg PUBLIC "-//W3C//DTD SVG 1.1//EN"
 "http://www.w3.org/Graphics/SVG/1.1/DTD/svg11.dtd">
<!-- Generated by graphviz version 2.43.0 (0)
 -->
<!-- Title: r_vsp2_BrsConfig_t Pages: 1 -->
<svg width="457pt" height="219pt"
 viewBox="0.00 0.00 457.00 219.00" xmlns="http://www.w3.org/2000/svg" xmlns:xlink="http://www.w3.org/1999/xlink">
<g id="graph0" class="graph" transform="scale(1 1) rotate(0) translate(4 215)">
<title>r_vsp2_BrsConfig_t</title>
<polygon fill="white" stroke="transparent" points="-4,4 -4,-215 453,-215 453,4 -4,4"/>
<!-- Node1 -->
<g id="node1" class="node">
<title>Node1</title>
<g id="a_node1"><a xlink:title=" ">
<polygon fill="#bfbfbf" stroke="black" points="261,-0.5 261,-19.5 371,-19.5 371,-0.5 261,-0.5"/>
<text text-anchor="middle" x="316" y="-7.5" font-family="Helvetica,sans-Serif" font-size="10.00">r_vsp2_BrsConfig_t</text>
</a>
</g>
</g>
<!-- Node2 -->
<g id="node2" class="node">
<title>Node2</title>
<g id="a_node2"><a xlink:href="structr__vsp2__BrsBlendRopUnit__t.html" target="_top" xlink:title=" ">
<polygon fill="white" stroke="black" points="148,-96 148,-115 294,-115 294,-96 148,-96"/>
<text text-anchor="middle" x="221" y="-103" font-family="Helvetica,sans-Serif" font-size="10.00">r_vsp2_BrsBlendRopUnit_t</text>
</a>
</g>
</g>
<!-- Node2&#45;&gt;Node1 -->
<g id="edge1" class="edge">
<title>Node2&#45;&gt;Node1</title>
<path fill="none" stroke="#9a32cd" stroke-dasharray="5,2" d="M230.8,-86.95C239.47,-72.54 253.19,-52.25 269,-38 277.25,-30.57 287.88,-24.25 296.94,-19.6"/>
<polygon fill="#9a32cd" stroke="#9a32cd" points="227.63,-85.43 225.64,-95.84 233.68,-88.95 227.63,-85.43"/>
<text text-anchor="middle" x="312.5" y="-52" font-family="Helvetica,sans-Serif" font-size="10.00"> blend_rop_unit_a</text>
<text text-anchor="middle" x="312.5" y="-41" font-family="Helvetica,sans-Serif" font-size="10.00">blend_rop_unit_b</text>
</g>
<!-- Node3 -->
<g id="node3" class="node">
<title>Node3</title>
<g id="a_node3"><a xlink:title=" ">
<polygon fill="white" stroke="#bfbfbf" points="0,-191.5 0,-210.5 104,-210.5 104,-191.5 0,-191.5"/>
<text text-anchor="middle" x="52" y="-198.5" font-family="Helvetica,sans-Serif" font-size="10.00">r_vsp2_BrsInput_t</text>
</a>
</g>
</g>
<!-- Node3&#45;&gt;Node2 -->
<g id="edge2" class="edge">
<title>Node3&#45;&gt;Node2</title>
<path fill="none" stroke="#9a32cd" stroke-dasharray="5,2" d="M64.76,-183.19C73.44,-172.72 85.73,-159.65 99,-151 125.44,-133.76 159.44,-122.06 184.84,-115.01"/>
<polygon fill="#9a32cd" stroke="#9a32cd" points="61.86,-181.21 58.38,-191.21 67.34,-185.57 61.86,-181.21"/>
<text text-anchor="middle" x="136" y="-165" font-family="Helvetica,sans-Serif" font-size="10.00"> dst_side_input</text>
<text text-anchor="middle" x="136" y="-154" font-family="Helvetica,sans-Serif" font-size="10.00">src_side_input</text>
</g>
<!-- Node4 -->
<g id="node4" class="node">
<title>Node4</title>
<g id="a_node4"><a xlink:title=" ">
<polygon fill="white" stroke="#bfbfbf" points="299,-191.5 299,-210.5 355,-210.5 355,-191.5 299,-191.5"/>
<text text-anchor="middle" x="327" y="-198.5" font-family="Helvetica,sans-Serif" font-size="10.00">uint32_t</text>
</a>
</g>
</g>
<!-- Node4&#45;&gt;Node1 -->
<g id="edge5" class="edge">
<title>Node4&#45;&gt;Node1</title>
<path fill="none" stroke="#9a32cd" stroke-dasharray="5,2" d="M347.9,-184.68C351.19,-181.23 354.13,-177.3 356,-173 379.95,-117.99 384.16,-90.98 356,-38 351.75,-30.01 343.97,-23.96 336.39,-19.63"/>
<polygon fill="#9a32cd" stroke="#9a32cd" points="345.49,-182.13 340.37,-191.41 350.16,-187.35 345.49,-182.13"/>
<text text-anchor="middle" x="412" y="-125" font-family="Helvetica,sans-Serif" font-size="10.00"> virt_rpf_color</text>
<text text-anchor="middle" x="412" y="-114" font-family="Helvetica,sans-Serif" font-size="10.00">virt_rpf_pos_x</text>
<text text-anchor="middle" x="412" y="-103" font-family="Helvetica,sans-Serif" font-size="10.00">virt_rpf_pos_y</text>
<text text-anchor="middle" x="412" y="-92" font-family="Helvetica,sans-Serif" font-size="10.00">virt_rpf_size_h</text>
<text text-anchor="middle" x="412" y="-81" font-family="Helvetica,sans-Serif" font-size="10.00">virt_rpf_size_w</text>
</g>
<!-- Node4&#45;&gt;Node2 -->
<g id="edge3" class="edge">
<title>Node4&#45;&gt;Node2</title>
<path fill="none" stroke="#9a32cd" stroke-dasharray="5,2" d="M299.17,-186.46C292.28,-182.55 285.12,-177.98 279,-173 257.13,-155.21 236.74,-128.64 226.99,-115.1"/>
<polygon fill="#9a32cd" stroke="#9a32cd" points="297.82,-189.71 308.29,-191.37 301.14,-183.55 297.82,-189.71"/>
<text text-anchor="middle" x="317.5" y="-159.5" font-family="Helvetica,sans-Serif" font-size="10.00"> operation_type</text>
</g>
<!-- Node5 -->
<g id="node5" class="node">
<title>Node5</title>
<g id="a_node5"><a xlink:title=" ">
<polygon fill="white" stroke="#bfbfbf" points="122,-191.5 122,-210.5 238,-210.5 238,-191.5 122,-191.5"/>
<text text-anchor="middle" x="180" y="-198.5" font-family="Helvetica,sans-Serif" font-size="10.00">r_vsp2_BruDataOp_t</text>
</a>
</g>
</g>
<!-- Node5&#45;&gt;Node2 -->
<g id="edge4" class="edge">
<title>Node5&#45;&gt;Node2</title>
<path fill="none" stroke="#9a32cd" stroke-dasharray="5,2" d="M177.36,-181.11C176.8,-171.75 177.27,-160.45 181,-151 186.8,-136.31 199.82,-123.38 209.43,-115.29"/>
<polygon fill="#9a32cd" stroke="#9a32cd" points="173.91,-181.73 178.41,-191.32 180.87,-181.02 173.91,-181.73"/>
<text text-anchor="middle" x="218.5" y="-165" font-family="Helvetica,sans-Serif" font-size="10.00"> alpha_data_op</text>
<text text-anchor="middle" x="218.5" y="-154" font-family="Helvetica,sans-Serif" font-size="10.00">color_data_op</text>
</g>
</g>
</svg>
