<?xml version="1.0" encoding="UTF-8" standalone="no"?>
<!DOCTYPE svg PUBLIC "-//W3C//DTD SVG 1.1//EN"
 "http://www.w3.org/Graphics/SVG/1.1/DTD/svg11.dtd">
<!-- Generated by graphviz version 2.43.0 (0)
 -->
<!-- Title: r_vspi_Surface_t Pages: 1 -->
<svg width="336pt" height="117pt"
 viewBox="0.00 0.00 335.50 117.00" xmlns="http://www.w3.org/2000/svg" xmlns:xlink="http://www.w3.org/1999/xlink">
<g id="graph0" class="graph" transform="scale(1 1) rotate(0) translate(4 113)">
<title>r_vspi_Surface_t</title>
<polygon fill="white" stroke="transparent" points="-4,4 -4,-113 331.5,-113 331.5,4 -4,4"/>
<!-- Node1 -->
<g id="node1" class="node">
<title>Node1</title>
<g id="a_node1"><a xlink:title=" ">
<polygon fill="#bfbfbf" stroke="black" points="138,-0.5 138,-19.5 235,-19.5 235,-0.5 138,-0.5"/>
<text text-anchor="middle" x="186.5" y="-7.5" font-family="Helvetica,sans-Serif" font-size="10.00">r_vspi_Surface_t</text>
</a>
</g>
</g>
<!-- Node2 -->
<g id="node2" class="node">
<title>Node2</title>
<g id="a_node2"><a xlink:title=" ">
<polygon fill="white" stroke="#bfbfbf" points="0,-89.5 0,-108.5 103,-108.5 103,-89.5 0,-89.5"/>
<text text-anchor="middle" x="51.5" y="-96.5" font-family="Helvetica,sans-Serif" font-size="10.00">r_wm_ColorFmt_t</text>
</a>
</g>
</g>
<!-- Node2&#45;&gt;Node1 -->
<g id="edge1" class="edge">
<title>Node2&#45;&gt;Node1</title>
<path fill="none" stroke="#9a32cd" stroke-dasharray="5,2" d="M68.03,-82.44C82.43,-69.44 104.27,-50.99 125.5,-38 137.45,-30.69 151.74,-24.26 163.47,-19.51"/>
<polygon fill="#9a32cd" stroke="#9a32cd" points="65.47,-80.04 60.48,-89.38 70.21,-85.19 65.47,-80.04"/>
<text text-anchor="middle" x="137" y="-52" font-family="Helvetica,sans-Serif" font-size="10.00"> Fmt</text>
</g>
<!-- Node3 -->
<g id="node3" class="node">
<title>Node3</title>
<g id="a_node3"><a xlink:title=" ">
<polygon fill="white" stroke="#bfbfbf" points="121.5,-89.5 121.5,-108.5 177.5,-108.5 177.5,-89.5 121.5,-89.5"/>
<text text-anchor="middle" x="149.5" y="-96.5" font-family="Helvetica,sans-Serif" font-size="10.00">uint16_t</text>
</a>
</g>
</g>
<!-- Node3&#45;&gt;Node1 -->
<g id="edge2" class="edge">
<title>Node3&#45;&gt;Node1</title>
<path fill="none" stroke="#9a32cd" stroke-dasharray="5,2" d="M151.05,-79.4C152.66,-67.12 155.92,-50.95 162.5,-38 166.02,-31.07 171.76,-24.52 176.75,-19.6"/>
<polygon fill="#9a32cd" stroke="#9a32cd" points="147.57,-79.08 149.99,-89.39 154.53,-79.82 147.57,-79.08"/>
<text text-anchor="middle" x="182" y="-57.5" font-family="Helvetica,sans-Serif" font-size="10.00"> StrideC</text>
<text text-anchor="middle" x="182" y="-46.5" font-family="Helvetica,sans-Serif" font-size="10.00">StrideY</text>
</g>
<!-- Node4 -->
<g id="node4" class="node">
<title>Node4</title>
<g id="a_node4"><a xlink:title=" ">
<polygon fill="white" stroke="#bfbfbf" points="195.5,-89.5 195.5,-108.5 251.5,-108.5 251.5,-89.5 195.5,-89.5"/>
<text text-anchor="middle" x="223.5" y="-96.5" font-family="Helvetica,sans-Serif" font-size="10.00">uint32_t</text>
</a>
</g>
</g>
<!-- Node4&#45;&gt;Node1 -->
<g id="edge3" class="edge">
<title>Node4&#45;&gt;Node1</title>
<path fill="none" stroke="#9a32cd" stroke-dasharray="5,2" d="M217.56,-79.52C213.49,-67.5 207.72,-51.59 201.5,-38 198.64,-31.76 194.89,-25.01 191.86,-19.82"/>
<polygon fill="#9a32cd" stroke="#9a32cd" points="214.32,-80.89 220.78,-89.29 220.97,-78.69 214.32,-80.89"/>
<text text-anchor="middle" x="231.5" y="-57.5" font-family="Helvetica,sans-Serif" font-size="10.00"> Height</text>
<text text-anchor="middle" x="231.5" y="-46.5" font-family="Helvetica,sans-Serif" font-size="10.00">Width</text>
</g>
<!-- Node5 -->
<g id="node5" class="node">
<title>Node5</title>
<g id="a_node5"><a xlink:title=" ">
<polygon fill="white" stroke="#bfbfbf" points="269.5,-89.5 269.5,-108.5 327.5,-108.5 327.5,-89.5 269.5,-89.5"/>
<text text-anchor="middle" x="298.5" y="-96.5" font-family="Helvetica,sans-Serif" font-size="10.00">uintptr_t</text>
</a>
</g>
</g>
<!-- Node5&#45;&gt;Node1 -->
<g id="edge4" class="edge">
<title>Node5&#45;&gt;Node1</title>
<path fill="none" stroke="#9a32cd" stroke-dasharray="5,2" d="M288.9,-80.44C280.92,-67.23 268.47,-49.51 253.5,-38 242.96,-29.9 229.66,-23.88 217.7,-19.6"/>
<polygon fill="#9a32cd" stroke="#9a32cd" points="286.08,-82.55 294.1,-89.48 292.15,-79.06 286.08,-82.55"/>
<text text-anchor="middle" x="299.5" y="-63" font-family="Helvetica,sans-Serif" font-size="10.00"> FBuf</text>
<text text-anchor="middle" x="299.5" y="-52" font-family="Helvetica,sans-Serif" font-size="10.00">FBufC0</text>
<text text-anchor="middle" x="299.5" y="-41" font-family="Helvetica,sans-Serif" font-size="10.00">FBufC1</text>
</g>
</g>
</svg>
