<?xml version="1.0" encoding="UTF-8" standalone="no"?>
<!DOCTYPE svg PUBLIC "-//W3C//DTD SVG 1.1//EN"
 "http://www.w3.org/Graphics/SVG/1.1/DTD/svg11.dtd">
<!-- Generated by graphviz version 2.43.0 (0)
 -->
<!-- Title: rDmacCfg_st Pages: 1 -->
<svg width="382pt" height="303pt"
 viewBox="0.00 0.00 382.00 303.05" xmlns="http://www.w3.org/2000/svg" xmlns:xlink="http://www.w3.org/1999/xlink">
<g id="graph0" class="graph" transform="scale(1 1) rotate(0) translate(4 299.05)">
<title>rDmacCfg_st</title>
<polygon fill="white" stroke="transparent" points="-4,4 -4,-299.05 378,-299.05 378,4 -4,4"/>
<!-- Node1 -->
<g id="node1" class="node">
<title>Node1</title>
<g id="a_node1"><a xlink:title=" ">
<polygon fill="#bfbfbf" stroke="black" points="294,-144.55 294,-163.55 374,-163.55 374,-144.55 294,-144.55"/>
<text text-anchor="middle" x="334" y="-151.55" font-family="Helvetica,sans-Serif" font-size="10.00">rDmacCfg_st</text>
</a>
</g>
</g>
<!-- Node2 -->
<g id="node2" class="node">
<title>Node2</title>
<g id="a_node2"><a xlink:title=" ">
<polygon fill="white" stroke="#bfbfbf" points="8.5,-275.55 8.5,-294.55 164.5,-294.55 164.5,-275.55 8.5,-275.55"/>
<text text-anchor="middle" x="86.5" y="-282.55" font-family="Helvetica,sans-Serif" font-size="10.00">enum rDmacTransferUnit_en</text>
</a>
</g>
</g>
<!-- Node2&#45;&gt;Node1 -->
<g id="edge1" class="edge">
<title>Node2&#45;&gt;Node1</title>
<path fill="none" stroke="#9a32cd" stroke-dasharray="5,2" d="M174.72,-285.22C208.84,-281.54 246.73,-272.45 276,-252.05 307.81,-229.88 324.42,-183.79 330.38,-163.73"/>
<polygon fill="#9a32cd" stroke="#9a32cd" points="174.36,-281.74 164.73,-286.16 175.02,-288.71 174.36,-281.74"/>
<text text-anchor="middle" x="233.5" y="-285.05" font-family="Helvetica,sans-Serif" font-size="10.00"> mTransferUnit</text>
</g>
<!-- Node3 -->
<g id="node3" class="node">
<title>Node3</title>
<g id="a_node3"><a xlink:title=" ">
<polygon fill="white" stroke="#bfbfbf" points="13,-237.55 13,-256.55 160,-256.55 160,-237.55 13,-237.55"/>
<text text-anchor="middle" x="86.5" y="-244.55" font-family="Helvetica,sans-Serif" font-size="10.00">enum rDmacDmaMode_en</text>
</a>
</g>
</g>
<!-- Node3&#45;&gt;Node1 -->
<g id="edge2" class="edge">
<title>Node3&#45;&gt;Node1</title>
<path fill="none" stroke="#9a32cd" stroke-dasharray="5,2" d="M170.14,-241.32C204.42,-236.34 243.64,-227.1 276,-210.05 297.6,-198.66 316.44,-176.46 326.11,-163.7"/>
<polygon fill="#9a32cd" stroke="#9a32cd" points="169.59,-237.86 160.15,-242.67 170.53,-244.8 169.59,-237.86"/>
<text text-anchor="middle" x="233.5" y="-240.05" font-family="Helvetica,sans-Serif" font-size="10.00"> mDMAMode</text>
</g>
<!-- Node4 -->
<g id="node4" class="node">
<title>Node4</title>
<g id="a_node4"><a xlink:title=" ">
<polygon fill="white" stroke="#bfbfbf" points="58.5,-199.55 58.5,-218.55 114.5,-218.55 114.5,-199.55 58.5,-199.55"/>
<text text-anchor="middle" x="86.5" y="-206.55" font-family="Helvetica,sans-Serif" font-size="10.00">uint32_t</text>
</a>
</g>
</g>
<!-- Node4&#45;&gt;Node1 -->
<g id="edge3" class="edge">
<title>Node4&#45;&gt;Node1</title>
<path fill="none" stroke="#9a32cd" stroke-dasharray="5,2" d="M125,-205.51C163.46,-201.27 224.73,-192.83 276,-178.05 288.9,-174.33 302.79,-168.52 313.63,-163.55"/>
<polygon fill="#9a32cd" stroke="#9a32cd" points="124.36,-202.06 114.79,-206.59 125.1,-209.02 124.36,-202.06"/>
<text text-anchor="middle" x="233.5" y="-198.05" font-family="Helvetica,sans-Serif" font-size="10.00"> mTransferCount</text>
</g>
<!-- Node5 -->
<g id="node5" class="node">
<title>Node5</title>
<g id="a_node5"><a xlink:title=" ">
<polygon fill="white" stroke="#bfbfbf" points="0,-161.55 0,-180.55 173,-180.55 173,-161.55 0,-161.55"/>
<text text-anchor="middle" x="86.5" y="-168.55" font-family="Helvetica,sans-Serif" font-size="10.00">enum rDmacLowSpeedMode_en</text>
</a>
</g>
</g>
<!-- Node5&#45;&gt;Node1 -->
<g id="edge4" class="edge">
<title>Node5&#45;&gt;Node1</title>
<path fill="none" stroke="#9a32cd" stroke-dasharray="5,2" d="M183.25,-164.42C221.77,-161.75 264.03,-158.82 293.8,-156.76"/>
<polygon fill="#9a32cd" stroke="#9a32cd" points="182.75,-160.94 173.02,-165.12 183.24,-167.92 182.75,-160.94"/>
<text text-anchor="middle" x="233.5" y="-166.05" font-family="Helvetica,sans-Serif" font-size="10.00"> mLowSpeed</text>
</g>
<!-- Node6 -->
<g id="node6" class="node">
<title>Node6</title>
<g id="a_node6"><a xlink:title=" ">
<polygon fill="white" stroke="#bfbfbf" points="61.5,-123.55 61.5,-142.55 111.5,-142.55 111.5,-123.55 61.5,-123.55"/>
<text text-anchor="middle" x="86.5" y="-130.55" font-family="Helvetica,sans-Serif" font-size="10.00">uint8_t</text>
</a>
</g>
</g>
<!-- Node6&#45;&gt;Node1 -->
<g id="edge5" class="edge">
<title>Node6&#45;&gt;Node1</title>
<path fill="none" stroke="#9a32cd" stroke-dasharray="5,2" d="M122.17,-133.46C160.08,-134.24 222.56,-136.5 276,-143.05 281.8,-143.76 287.9,-144.71 293.86,-145.76"/>
<polygon fill="#9a32cd" stroke="#9a32cd" points="121.76,-129.95 111.69,-133.27 121.63,-136.95 121.76,-129.95"/>
<text text-anchor="middle" x="233.5" y="-146.05" font-family="Helvetica,sans-Serif" font-size="10.00"> mPrioLevel</text>
</g>
<!-- Node7 -->
<g id="node7" class="node">
<title>Node7</title>
<g id="a_node7"><a xlink:title=" ">
<polygon fill="white" stroke="#bfbfbf" points="13.5,-84.55 13.5,-103.55 159.5,-103.55 159.5,-84.55 13.5,-84.55"/>
<text text-anchor="middle" x="86.5" y="-91.55" font-family="Helvetica,sans-Serif" font-size="10.00">enum rDmacAddrMode_en</text>
</a>
</g>
</g>
<!-- Node7&#45;&gt;Node1 -->
<g id="edge6" class="edge">
<title>Node7&#45;&gt;Node1</title>
<path fill="none" stroke="#9a32cd" stroke-dasharray="5,2" d="M170.24,-91C204.02,-92.3 242.85,-97.15 276,-110.05 295.34,-117.57 313.57,-133.84 323.99,-144.34"/>
<polygon fill="#9a32cd" stroke="#9a32cd" points="170.02,-87.49 159.93,-90.7 169.82,-94.49 170.02,-87.49"/>
<text text-anchor="middle" x="233.5" y="-124.05" font-family="Helvetica,sans-Serif" font-size="10.00"> mDestAddrMode</text>
<text text-anchor="middle" x="233.5" y="-113.05" font-family="Helvetica,sans-Serif" font-size="10.00">mSrcAddrMode</text>
</g>
<!-- Node8 -->
<g id="node8" class="node">
<title>Node8</title>
<g id="a_node8"><a xlink:title=" ">
<polygon fill="white" stroke="#bfbfbf" points="15.5,-46.55 15.5,-65.55 157.5,-65.55 157.5,-46.55 15.5,-46.55"/>
<text text-anchor="middle" x="86.5" y="-53.55" font-family="Helvetica,sans-Serif" font-size="10.00">enum rDmacResource_en</text>
</a>
</g>
</g>
<!-- Node8&#45;&gt;Node1 -->
<g id="edge7" class="edge">
<title>Node8&#45;&gt;Node1</title>
<path fill="none" stroke="#9a32cd" stroke-dasharray="5,2" d="M168.19,-51.01C203.35,-52.23 243.79,-58.51 276,-77.05 303.39,-92.81 321.52,-127.59 329.05,-144.47"/>
<polygon fill="#9a32cd" stroke="#9a32cd" points="168.01,-47.51 157.94,-50.79 167.86,-54.51 168.01,-47.51"/>
<text text-anchor="middle" x="233.5" y="-80.05" font-family="Helvetica,sans-Serif" font-size="10.00"> mResource</text>
</g>
<!-- Node9 -->
<g id="node9" class="node">
<title>Node9</title>
<g id="a_node9"><a xlink:title=" ">
<polygon fill="white" stroke="#bfbfbf" points="57.5,-2.55 57.5,-21.55 115.5,-21.55 115.5,-2.55 57.5,-2.55"/>
<text text-anchor="middle" x="86.5" y="-9.55" font-family="Helvetica,sans-Serif" font-size="10.00">uintptr_t</text>
</a>
</g>
</g>
<!-- Node9&#45;&gt;Node1 -->
<g id="edge8" class="edge">
<title>Node9&#45;&gt;Node1</title>
<path fill="none" stroke="#9a32cd" stroke-dasharray="5,2" d="M125.57,-4.24C166.56,1.93 231.83,5.02 276,-26.05 316.79,-54.74 328.8,-119.56 331.97,-144.24"/>
<polygon fill="#9a32cd" stroke="#9a32cd" points="125,-0.78 115.69,-5.85 126.13,-7.69 125,-0.78"/>
<text text-anchor="middle" x="233.5" y="-40.05" font-family="Helvetica,sans-Serif" font-size="10.00"> mDestAddr</text>
<text text-anchor="middle" x="233.5" y="-29.05" font-family="Helvetica,sans-Serif" font-size="10.00">mSrcAddr</text>
</g>
</g>
</svg>
