<?xml version="1.0" encoding="UTF-8" standalone="no"?>
<!DOCTYPE svg PUBLIC "-//W3C//DTD SVG 1.1//EN"
 "http://www.w3.org/Graphics/SVG/1.1/DTD/svg11.dtd">
<!-- Generated by graphviz version 2.43.0 (0)
 -->
<!-- Title: r_cio_ether_phys_addr Pages: 1 -->
<svg width="151pt" height="95pt"
 viewBox="0.00 0.00 151.00 95.00" xmlns="http://www.w3.org/2000/svg" xmlns:xlink="http://www.w3.org/1999/xlink">
<g id="graph0" class="graph" transform="scale(1 1) rotate(0) translate(4 91)">
<title>r_cio_ether_phys_addr</title>
<polygon fill="white" stroke="transparent" points="-4,4 -4,-91 147,-91 147,4 -4,4"/>
<!-- Node1 -->
<g id="node1" class="node">
<title>Node1</title>
<g id="a_node1"><a xlink:title=" ">
<polygon fill="#bfbfbf" stroke="black" points="0,-0.5 0,-19.5 126,-19.5 126,-0.5 0,-0.5"/>
<text text-anchor="middle" x="63" y="-7.5" font-family="Helvetica,sans-Serif" font-size="10.00">r_cio_ether_phys_addr</text>
</a>
</g>
</g>
<!-- Node2 -->
<g id="node2" class="node">
<title>Node2</title>
<g id="a_node2"><a xlink:title=" ">
<polygon fill="white" stroke="#bfbfbf" points="13,-67.5 13,-86.5 51,-86.5 51,-67.5 13,-67.5"/>
<text text-anchor="middle" x="32" y="-74.5" font-family="Helvetica,sans-Serif" font-size="10.00">char</text>
</a>
</g>
</g>
<!-- Node2&#45;&gt;Node1 -->
<g id="edge1" class="edge">
<title>Node2&#45;&gt;Node1</title>
<path fill="none" stroke="#9a32cd" stroke-dasharray="5,2" d="M31.5,-57.05C31.97,-50.74 33.22,-43.84 36,-38 39.43,-30.82 45.57,-24.44 51.14,-19.69"/>
<polygon fill="#9a32cd" stroke="#9a32cd" points="27.99,-57.35 31.31,-67.41 34.99,-57.47 27.99,-57.35"/>
<text text-anchor="middle" x="54" y="-41" font-family="Helvetica,sans-Serif" font-size="10.00"> CtrlIdx</text>
</g>
<!-- Node3 -->
<g id="node3" class="node">
<title>Node3</title>
<g id="a_node3"><a xlink:title=" ">
<polygon fill="white" stroke="#bfbfbf" points="69,-67.5 69,-86.5 119,-86.5 119,-67.5 69,-67.5"/>
<text text-anchor="middle" x="94" y="-74.5" font-family="Helvetica,sans-Serif" font-size="10.00">uint8 *</text>
</a>
</g>
</g>
<!-- Node3&#45;&gt;Node1 -->
<g id="edge2" class="edge">
<title>Node3&#45;&gt;Node1</title>
<path fill="none" stroke="#9a32cd" stroke-dasharray="5,2" d="M85.49,-58.16C79.51,-45.63 71.78,-29.41 67.11,-19.63"/>
<polygon fill="#9a32cd" stroke="#9a32cd" points="82.36,-59.71 89.82,-67.23 88.67,-56.7 82.36,-59.71"/>
<text text-anchor="middle" x="111.5" y="-41" font-family="Helvetica,sans-Serif" font-size="10.00"> PhysAddrPtr</text>
</g>
</g>
</svg>
