<?xml version="1.0" encoding="UTF-8" standalone="no"?>
<!DOCTYPE svg PUBLIC "-//W3C//DTD SVG 1.1//EN"
 "http://www.w3.org/Graphics/SVG/1.1/DTD/svg11.dtd">
<!-- Generated by graphviz version 2.43.0 (0)
 -->
<!-- Title: r_wm_Msg_Surf_Size_t Pages: 1 -->
<svg width="207pt" height="117pt"
 viewBox="0.00 0.00 207.00 117.00" xmlns="http://www.w3.org/2000/svg" xmlns:xlink="http://www.w3.org/1999/xlink">
<g id="graph0" class="graph" transform="scale(1 1) rotate(0) translate(4 113)">
<title>r_wm_Msg_Surf_Size_t</title>
<polygon fill="white" stroke="transparent" points="-4,4 -4,-113 203,-113 203,4 -4,4"/>
<!-- Node1 -->
<g id="node1" class="node">
<title>Node1</title>
<g id="a_node1"><a xlink:title=" ">
<polygon fill="#bfbfbf" stroke="black" points="38,-0.5 38,-19.5 166,-19.5 166,-0.5 38,-0.5"/>
<text text-anchor="middle" x="102" y="-7.5" font-family="Helvetica,sans-Serif" font-size="10.00">r_wm_Msg_Surf_Size_t</text>
</a>
</g>
</g>
<!-- Node2 -->
<g id="node2" class="node">
<title>Node2</title>
<g id="a_node2"><a xlink:title=" ">
<polygon fill="white" stroke="#bfbfbf" points="0,-89.5 0,-108.5 56,-108.5 56,-89.5 0,-89.5"/>
<text text-anchor="middle" x="28" y="-96.5" font-family="Helvetica,sans-Serif" font-size="10.00">uint16_t</text>
</a>
</g>
</g>
<!-- Node2&#45;&gt;Node1 -->
<g id="edge1" class="edge">
<title>Node2&#45;&gt;Node1</title>
<path fill="none" stroke="#9a32cd" stroke-dasharray="5,2" d="M34.41,-79.82C39.59,-67.04 47.84,-50.14 59,-38 65.92,-30.47 75.4,-24.22 83.7,-19.64"/>
<polygon fill="#9a32cd" stroke="#9a32cd" points="31.06,-78.79 30.8,-89.38 37.61,-81.27 31.06,-78.79"/>
<text text-anchor="middle" x="78.5" y="-57.5" font-family="Helvetica,sans-Serif" font-size="10.00"> StrideC</text>
<text text-anchor="middle" x="78.5" y="-46.5" font-family="Helvetica,sans-Serif" font-size="10.00">StrideY</text>
</g>
<!-- Node3 -->
<g id="node3" class="node">
<title>Node3</title>
<g id="a_node3"><a xlink:title=" ">
<polygon fill="white" stroke="#bfbfbf" points="74,-89.5 74,-108.5 130,-108.5 130,-89.5 74,-89.5"/>
<text text-anchor="middle" x="102" y="-96.5" font-family="Helvetica,sans-Serif" font-size="10.00">uint32_t</text>
</a>
</g>
</g>
<!-- Node3&#45;&gt;Node1 -->
<g id="edge2" class="edge">
<title>Node3&#45;&gt;Node1</title>
<path fill="none" stroke="#9a32cd" stroke-dasharray="5,2" d="M102,-79.19C102,-60.74 102,-33.41 102,-19.62"/>
<polygon fill="#9a32cd" stroke="#9a32cd" points="98.5,-79.34 102,-89.34 105.5,-79.34 98.5,-79.34"/>
<text text-anchor="middle" x="120" y="-63" font-family="Helvetica,sans-Serif" font-size="10.00"> Height</text>
<text text-anchor="middle" x="120" y="-52" font-family="Helvetica,sans-Serif" font-size="10.00">Pid</text>
<text text-anchor="middle" x="120" y="-41" font-family="Helvetica,sans-Serif" font-size="10.00">Width</text>
</g>
<!-- Node4 -->
<g id="node4" class="node">
<title>Node4</title>
<g id="a_node4"><a xlink:title=" ">
<polygon fill="white" stroke="#bfbfbf" points="148,-89.5 148,-108.5 194,-108.5 194,-89.5 148,-89.5"/>
<text text-anchor="middle" x="171" y="-96.5" font-family="Helvetica,sans-Serif" font-size="10.00">void *</text>
</a>
</g>
</g>
<!-- Node4&#45;&gt;Node1 -->
<g id="edge3" class="edge">
<title>Node4&#45;&gt;Node1</title>
<path fill="none" stroke="#9a32cd" stroke-dasharray="5,2" d="M165.13,-79.92C160.35,-67.19 152.65,-50.3 142,-38 135.53,-30.53 126.52,-24.21 118.7,-19.56"/>
<polygon fill="#9a32cd" stroke="#9a32cd" points="161.85,-81.15 168.45,-89.44 168.46,-78.84 161.85,-81.15"/>
<text text-anchor="middle" x="180" y="-52" font-family="Helvetica,sans-Serif" font-size="10.00"> Handle</text>
</g>
</g>
</svg>
