<?xml version="1.0" encoding="UTF-8" standalone="no"?>
<!DOCTYPE svg PUBLIC "-//W3C//DTD SVG 1.1//EN"
 "http://www.w3.org/Graphics/SVG/1.1/DTD/svg11.dtd">
<!-- Generated by graphviz version 2.43.0 (0)
 -->
<!-- Title: fw_rsc_vdev Pages: 1 -->
<svg width="282pt" height="263pt"
 viewBox="0.00 0.00 282.00 263.00" xmlns="http://www.w3.org/2000/svg" xmlns:xlink="http://www.w3.org/1999/xlink">
<g id="graph0" class="graph" transform="scale(1 1) rotate(0) translate(4 259)">
<title>fw_rsc_vdev</title>
<polygon fill="white" stroke="transparent" points="-4,4 -4,-259 278,-259 278,4 -4,4"/>
<!-- Node1 -->
<g id="node1" class="node">
<title>Node1</title>
<g id="a_node1"><a xlink:title=" ">
<polygon fill="#bfbfbf" stroke="black" points="98.5,-0.5 98.5,-19.5 175.5,-19.5 175.5,-0.5 98.5,-0.5"/>
<text text-anchor="middle" x="137" y="-7.5" font-family="Helvetica,sans-Serif" font-size="10.00">fw_rsc_vdev</text>
</a>
</g>
</g>
<!-- Node2 -->
<g id="node2" class="node">
<title>Node2</title>
<g id="a_node2"><a xlink:href="structfw__rsc__vdev__vring.html" target="_top" xlink:title=" ">
<polygon fill="white" stroke="black" points="83.5,-107 83.5,-126 190.5,-126 190.5,-107 83.5,-107"/>
<text text-anchor="middle" x="137" y="-114" font-family="Helvetica,sans-Serif" font-size="10.00">fw_rsc_vdev_vring</text>
</a>
</g>
</g>
<!-- Node2&#45;&gt;Node1 -->
<g id="edge1" class="edge">
<title>Node2&#45;&gt;Node1</title>
<path fill="none" stroke="#9a32cd" stroke-dasharray="5,2" d="M137,-96.84C137,-74.08 137,-36.53 137,-19.67"/>
<polygon fill="#9a32cd" stroke="#9a32cd" points="133.5,-96.95 137,-106.95 140.5,-96.95 133.5,-96.95"/>
<text text-anchor="middle" x="151" y="-52" font-family="Helvetica,sans-Serif" font-size="10.00"> vring</text>
</g>
<!-- Node3 -->
<g id="node3" class="node">
<title>Node3</title>
<g id="a_node3"><a xlink:title=" ">
<polygon fill="white" stroke="#bfbfbf" points="0,-235.5 0,-254.5 56,-254.5 56,-235.5 0,-235.5"/>
<text text-anchor="middle" x="28" y="-242.5" font-family="Helvetica,sans-Serif" font-size="10.00">uint32_t</text>
</a>
</g>
</g>
<!-- Node3&#45;&gt;Node1 -->
<g id="edge3" class="edge">
<title>Node3&#45;&gt;Node1</title>
<path fill="none" stroke="#9a32cd" stroke-dasharray="5,2" d="M21.45,-225.56C11.84,-195.1 -2.57,-133.25 21,-89 40.17,-53.02 84.13,-30.67 112.1,-19.56"/>
<polygon fill="#9a32cd" stroke="#9a32cd" points="18.21,-226.9 24.7,-235.27 24.85,-224.68 18.21,-226.9"/>
<text text-anchor="middle" x="47.5" y="-136" font-family="Helvetica,sans-Serif" font-size="10.00"> config_len</text>
<text text-anchor="middle" x="47.5" y="-125" font-family="Helvetica,sans-Serif" font-size="10.00">dfeatures</text>
<text text-anchor="middle" x="47.5" y="-114" font-family="Helvetica,sans-Serif" font-size="10.00">gfeatures</text>
<text text-anchor="middle" x="47.5" y="-103" font-family="Helvetica,sans-Serif" font-size="10.00">id</text>
<text text-anchor="middle" x="47.5" y="-92" font-family="Helvetica,sans-Serif" font-size="10.00">notifyid</text>
</g>
<!-- Node3&#45;&gt;Node2 -->
<g id="edge2" class="edge">
<title>Node3&#45;&gt;Node2</title>
<path fill="none" stroke="#9a32cd" stroke-dasharray="5,2" d="M42.24,-227.47C65.64,-200.32 111.43,-147.17 129.46,-126.26"/>
<polygon fill="#9a32cd" stroke="#9a32cd" points="39.37,-225.44 35.49,-235.31 44.67,-230.01 39.37,-225.44"/>
<text text-anchor="middle" x="117.5" y="-209" font-family="Helvetica,sans-Serif" font-size="10.00"> align</text>
<text text-anchor="middle" x="117.5" y="-198" font-family="Helvetica,sans-Serif" font-size="10.00">da</text>
<text text-anchor="middle" x="117.5" y="-187" font-family="Helvetica,sans-Serif" font-size="10.00">notifyid</text>
<text text-anchor="middle" x="117.5" y="-176" font-family="Helvetica,sans-Serif" font-size="10.00">num</text>
<text text-anchor="middle" x="117.5" y="-165" font-family="Helvetica,sans-Serif" font-size="10.00">pa</text>
</g>
<!-- Node4 -->
<g id="node4" class="node">
<title>Node4</title>
<g id="a_node4"><a xlink:title=" ">
<polygon fill="white" stroke="#bfbfbf" points="209,-107 209,-126 259,-126 259,-107 209,-107"/>
<text text-anchor="middle" x="234" y="-114" font-family="Helvetica,sans-Serif" font-size="10.00">uint8_t</text>
</a>
</g>
</g>
<!-- Node4&#45;&gt;Node1 -->
<g id="edge4" class="edge">
<title>Node4&#45;&gt;Node1</title>
<path fill="none" stroke="#9a32cd" stroke-dasharray="5,2" d="M221.48,-98.95C208.92,-82.76 188.67,-57.73 169,-38 162.43,-31.41 154.43,-24.66 148.07,-19.56"/>
<polygon fill="#9a32cd" stroke="#9a32cd" points="218.75,-101.15 227.61,-106.95 224.3,-96.88 218.75,-101.15"/>
<text text-anchor="middle" x="236" y="-63" font-family="Helvetica,sans-Serif" font-size="10.00"> num_of_vrings</text>
<text text-anchor="middle" x="236" y="-52" font-family="Helvetica,sans-Serif" font-size="10.00">reserved</text>
<text text-anchor="middle" x="236" y="-41" font-family="Helvetica,sans-Serif" font-size="10.00">status</text>
</g>
</g>
</svg>
