<?xml version="1.0" encoding="UTF-8" standalone="no"?>
<!DOCTYPE svg PUBLIC "-//W3C//DTD SVG 1.1//EN"
 "http://www.w3.org/Graphics/SVG/1.1/DTD/svg11.dtd">
<!-- Generated by graphviz version 2.43.0 (0)
 -->
<!-- Title: Eth_TimeIntDiffType Pages: 1 -->
<svg width="222pt" height="173pt"
 viewBox="0.00 0.00 222.00 173.00" xmlns="http://www.w3.org/2000/svg" xmlns:xlink="http://www.w3.org/1999/xlink">
<g id="graph0" class="graph" transform="scale(1 1) rotate(0) translate(4 169)">
<title>Eth_TimeIntDiffType</title>
<polygon fill="white" stroke="transparent" points="-4,4 -4,-169 218,-169 218,4 -4,4"/>
<!-- Node1 -->
<g id="node1" class="node">
<title>Node1</title>
<g id="a_node1"><a xlink:title=" ">
<polygon fill="#bfbfbf" stroke="black" points="0,-0.5 0,-19.5 115,-19.5 115,-0.5 0,-0.5"/>
<text text-anchor="middle" x="57.5" y="-7.5" font-family="Helvetica,sans-Serif" font-size="10.00">Eth_TimeIntDiffType</text>
</a>
</g>
</g>
<!-- Node2 -->
<g id="node2" class="node">
<title>Node2</title>
<g id="a_node2"><a xlink:title=" ">
<polygon fill="white" stroke="#bfbfbf" points="3.5,-67.5 3.5,-86.5 41.5,-86.5 41.5,-67.5 3.5,-67.5"/>
<text text-anchor="middle" x="22.5" y="-74.5" font-family="Helvetica,sans-Serif" font-size="10.00">char</text>
</a>
</g>
</g>
<!-- Node2&#45;&gt;Node1 -->
<g id="edge1" class="edge">
<title>Node2&#45;&gt;Node1</title>
<path fill="none" stroke="#9a32cd" stroke-dasharray="5,2" d="M32.1,-58.16C38.85,-45.63 47.59,-29.41 52.85,-19.63"/>
<polygon fill="#9a32cd" stroke="#9a32cd" points="28.88,-56.77 27.22,-67.23 35.04,-60.09 28.88,-56.77"/>
<text text-anchor="middle" x="54.5" y="-41" font-family="Helvetica,sans-Serif" font-size="10.00"> sign</text>
</g>
<!-- Node3 -->
<g id="node3" class="node">
<title>Node3</title>
<g id="a_node3"><a xlink:href="structEth__TimeStampType.html" target="_top" xlink:title=" ">
<polygon fill="white" stroke="black" points="59.5,-67.5 59.5,-86.5 175.5,-86.5 175.5,-67.5 59.5,-67.5"/>
<text text-anchor="middle" x="117.5" y="-74.5" font-family="Helvetica,sans-Serif" font-size="10.00">Eth_TimeStampType</text>
</a>
</g>
</g>
<!-- Node3&#45;&gt;Node1 -->
<g id="edge2" class="edge">
<title>Node3&#45;&gt;Node1</title>
<path fill="none" stroke="#9a32cd" stroke-dasharray="5,2" d="M102.39,-59.63C90.66,-46.92 74.85,-29.8 65.46,-19.63"/>
<polygon fill="#9a32cd" stroke="#9a32cd" points="100.05,-62.26 109.41,-67.23 105.2,-57.51 100.05,-62.26"/>
<text text-anchor="middle" x="100" y="-41" font-family="Helvetica,sans-Serif" font-size="10.00"> diff</text>
</g>
<!-- Node4 -->
<g id="node4" class="node">
<title>Node4</title>
<g id="a_node4"><a xlink:title=" ">
<polygon fill="white" stroke="#bfbfbf" points="22,-145.5 22,-164.5 107,-164.5 107,-145.5 22,-145.5"/>
<text text-anchor="middle" x="64.5" y="-152.5" font-family="Helvetica,sans-Serif" font-size="10.00">unsigned long</text>
</a>
</g>
</g>
<!-- Node4&#45;&gt;Node3 -->
<g id="edge3" class="edge">
<title>Node4&#45;&gt;Node3</title>
<path fill="none" stroke="#9a32cd" stroke-dasharray="5,2" d="M60.57,-135.38C59.52,-125.65 59.95,-113.93 65.5,-105 70.71,-96.62 79.44,-90.71 88.27,-86.61"/>
<polygon fill="#9a32cd" stroke="#9a32cd" points="57.12,-135.98 62.18,-145.29 64.03,-134.85 57.12,-135.98"/>
<text text-anchor="middle" x="99" y="-119" font-family="Helvetica,sans-Serif" font-size="10.00"> nanoseconds</text>
<text text-anchor="middle" x="99" y="-108" font-family="Helvetica,sans-Serif" font-size="10.00">seconds</text>
</g>
<!-- Node5 -->
<g id="node5" class="node">
<title>Node5</title>
<g id="a_node5"><a xlink:title=" ">
<polygon fill="white" stroke="#bfbfbf" points="125,-145.5 125,-164.5 214,-164.5 214,-145.5 125,-145.5"/>
<text text-anchor="middle" x="169.5" y="-152.5" font-family="Helvetica,sans-Serif" font-size="10.00">unsigned short</text>
</a>
</g>
</g>
<!-- Node5&#45;&gt;Node3 -->
<g id="edge4" class="edge">
<title>Node5&#45;&gt;Node3</title>
<path fill="none" stroke="#9a32cd" stroke-dasharray="5,2" d="M157.87,-137.01C147.17,-121.37 131.74,-98.81 123.4,-86.62"/>
<polygon fill="#9a32cd" stroke="#9a32cd" points="155,-139.01 163.53,-145.28 160.78,-135.05 155,-139.01"/>
<text text-anchor="middle" x="176.5" y="-113.5" font-family="Helvetica,sans-Serif" font-size="10.00"> secondsHi</text>
</g>
</g>
</svg>
