<?xml version="1.0" encoding="UTF-8" standalone="no"?>
<!DOCTYPE svg PUBLIC "-//W3C//DTD SVG 1.1//EN"
 "http://www.w3.org/Graphics/SVG/1.1/DTD/svg11.dtd">
<!-- Generated by graphviz version 2.43.0 (0)
 -->
<!-- Title: st_imrdrv_attr_rs_param_t Pages: 1 -->
<svg width="506pt" height="206pt"
 viewBox="0.00 0.00 506.00 206.00" xmlns="http://www.w3.org/2000/svg" xmlns:xlink="http://www.w3.org/1999/xlink">
<g id="graph0" class="graph" transform="scale(1 1) rotate(0) translate(4 202)">
<title>st_imrdrv_attr_rs_param_t</title>
<polygon fill="white" stroke="transparent" points="-4,4 -4,-202 502,-202 502,4 -4,4"/>
<!-- Node1 -->
<g id="node1" class="node">
<title>Node1</title>
<g id="a_node1"><a xlink:title=" ">
<polygon fill="#bfbfbf" stroke="black" points="86,-0.5 86,-19.5 232,-19.5 232,-0.5 86,-0.5"/>
<text text-anchor="middle" x="159" y="-7.5" font-family="Helvetica,sans-Serif" font-size="10.00">st_imrdrv_attr_rs_param_t</text>
</a>
</g>
</g>
<!-- Node2 -->
<g id="node2" class="node">
<title>Node2</title>
<g id="a_node2"><a xlink:href="structst__imrdrv__attr__rs__unit__t.html" target="_top" xlink:title=" ">
<polygon fill="white" stroke="black" points="92.5,-67.5 92.5,-86.5 225.5,-86.5 225.5,-67.5 92.5,-67.5"/>
<text text-anchor="middle" x="159" y="-74.5" font-family="Helvetica,sans-Serif" font-size="10.00">st_imrdrv_attr_rs_unit_t</text>
</a>
</g>
</g>
<!-- Node2&#45;&gt;Node1 -->
<g id="edge1" class="edge">
<title>Node2&#45;&gt;Node1</title>
<path fill="none" stroke="#9a32cd" stroke-dasharray="5,2" d="M159,-57.04C159,-44.67 159,-29.12 159,-19.63"/>
<polygon fill="#9a32cd" stroke="#9a32cd" points="155.5,-57.23 159,-67.23 162.5,-57.23 155.5,-57.23"/>
<text text-anchor="middle" x="183.5" y="-41" font-family="Helvetica,sans-Serif" font-size="10.00"> rs_param</text>
</g>
<!-- Node3 -->
<g id="node3" class="node">
<title>Node3</title>
<g id="a_node3"><a xlink:title=" ">
<polygon fill="white" stroke="#bfbfbf" points="348,-173 348,-192 498,-192 498,-173 348,-173"/>
<text text-anchor="middle" x="423" y="-180" font-family="Helvetica,sans-Serif" font-size="10.00">e_imrdrv_rounding_mode_t</text>
</a>
</g>
</g>
<!-- Node3&#45;&gt;Node2 -->
<g id="edge2" class="edge">
<title>Node3&#45;&gt;Node2</title>
<path fill="none" stroke="#9a32cd" stroke-dasharray="5,2" d="M407.71,-165.25C389.89,-147.41 358.69,-119.37 326,-105 316.32,-100.75 264.69,-92.74 221.37,-86.54"/>
<polygon fill="#9a32cd" stroke="#9a32cd" points="405.43,-167.93 414.91,-172.65 410.44,-163.05 405.43,-167.93"/>
<text text-anchor="middle" x="427.5" y="-124.5" font-family="Helvetica,sans-Serif" font-size="10.00"> rounding_mode</text>
</g>
<!-- Node4 -->
<g id="node4" class="node">
<title>Node4</title>
<g id="a_node4"><a xlink:title=" ">
<polygon fill="white" stroke="#bfbfbf" points="0,-173 0,-192 56,-192 56,-173 0,-173"/>
<text text-anchor="middle" x="28" y="-180" font-family="Helvetica,sans-Serif" font-size="10.00">uint32_t</text>
</a>
</g>
</g>
<!-- Node4&#45;&gt;Node1 -->
<g id="edge7" class="edge">
<title>Node4&#45;&gt;Node1</title>
<path fill="none" stroke="#9a32cd" stroke-dasharray="5,2" d="M20.63,-163.45C12.07,-139.27 1.43,-96.07 21,-67 38.55,-40.94 70.52,-27.01 99.28,-19.55"/>
<polygon fill="#9a32cd" stroke="#9a32cd" points="17.37,-164.72 24.2,-172.82 23.92,-162.23 17.37,-164.72"/>
<text text-anchor="middle" x="52" y="-74.5" font-family="Helvetica,sans-Serif" font-size="10.00"> valid_rs_idx</text>
</g>
<!-- Node4&#45;&gt;Node2 -->
<g id="edge3" class="edge">
<title>Node4&#45;&gt;Node2</title>
<path fill="none" stroke="#9a32cd" stroke-dasharray="5,2" d="M30.2,-162.89C33.24,-145.48 40.38,-119.98 57,-105 66.93,-96.05 79.49,-90 92.38,-85.94"/>
<polygon fill="#9a32cd" stroke="#9a32cd" points="26.71,-162.57 28.73,-172.97 33.63,-163.58 26.71,-162.57"/>
<text text-anchor="middle" x="104.5" y="-141" font-family="Helvetica,sans-Serif" font-size="10.00"> dst_addr_norotate</text>
<text text-anchor="middle" x="104.5" y="-130" font-family="Helvetica,sans-Serif" font-size="10.00">dst_addr_rotate</text>
<text text-anchor="middle" x="104.5" y="-119" font-family="Helvetica,sans-Serif" font-size="10.00">dst_stride_norotate</text>
<text text-anchor="middle" x="104.5" y="-108" font-family="Helvetica,sans-Serif" font-size="10.00">dst_stride_rotate</text>
</g>
<!-- Node5 -->
<g id="node5" class="node">
<title>Node5</title>
<g id="a_node5"><a xlink:title=" ">
<polygon fill="white" stroke="#bfbfbf" points="88.5,-167.5 88.5,-197.5 219.5,-197.5 219.5,-167.5 88.5,-167.5"/>
<text text-anchor="start" x="96.5" y="-185.5" font-family="Helvetica,sans-Serif" font-size="10.00">e_imrdrv_scaling_down</text>
<text text-anchor="middle" x="154" y="-174.5" font-family="Helvetica,sans-Serif" font-size="10.00">_filter_t</text>
</a>
</g>
</g>
<!-- Node5&#45;&gt;Node2 -->
<g id="edge4" class="edge">
<title>Node5&#45;&gt;Node2</title>
<path fill="none" stroke="#9a32cd" stroke-dasharray="5,2" d="M155.19,-156.86C156.29,-134.16 157.85,-101.76 158.59,-86.53"/>
<polygon fill="#9a32cd" stroke="#9a32cd" points="151.68,-156.95 154.7,-167.11 158.67,-157.29 151.68,-156.95"/>
<text text-anchor="middle" x="206.5" y="-124.5" font-family="Helvetica,sans-Serif" font-size="10.00"> scaling_down_filter</text>
</g>
<!-- Node6 -->
<g id="node6" class="node">
<title>Node6</title>
<g id="a_node6"><a xlink:title=" ">
<polygon fill="white" stroke="#bfbfbf" points="238,-173 238,-192 330,-192 330,-173 238,-173"/>
<text text-anchor="middle" x="284" y="-180" font-family="Helvetica,sans-Serif" font-size="10.00">e_imrdrv_bpp_t</text>
</a>
</g>
</g>
<!-- Node6&#45;&gt;Node2 -->
<g id="edge5" class="edge">
<title>Node6&#45;&gt;Node2</title>
<path fill="none" stroke="#9a32cd" stroke-dasharray="5,2" d="M282.8,-162.7C280.69,-145.35 274.88,-120.07 259,-105 249.74,-96.21 237.92,-90.22 225.68,-86.15"/>
<polygon fill="#9a32cd" stroke="#9a32cd" points="279.33,-163.13 283.73,-172.76 286.3,-162.48 279.33,-163.13"/>
<text text-anchor="middle" x="301" y="-124.5" font-family="Helvetica,sans-Serif" font-size="10.00"> dst_bpp</text>
</g>
<!-- Node7 -->
<g id="node7" class="node">
<title>Node7</title>
<g id="a_node7"><a xlink:title=" ">
<polygon fill="white" stroke="#bfbfbf" points="243.5,-67.5 243.5,-86.5 380.5,-86.5 380.5,-67.5 243.5,-67.5"/>
<text text-anchor="middle" x="312" y="-74.5" font-family="Helvetica,sans-Serif" font-size="10.00">e_imrdrv_rotate_mode_t</text>
</a>
</g>
</g>
<!-- Node7&#45;&gt;Node1 -->
<g id="edge6" class="edge">
<title>Node7&#45;&gt;Node1</title>
<path fill="none" stroke="#9a32cd" stroke-dasharray="5,2" d="M282.46,-63.45C252.16,-50.58 205.85,-30.9 179.4,-19.67"/>
<polygon fill="#9a32cd" stroke="#9a32cd" points="281.11,-66.68 291.68,-67.37 283.85,-60.24 281.11,-66.68"/>
<text text-anchor="middle" x="297.5" y="-41" font-family="Helvetica,sans-Serif" font-size="10.00"> rotate_mode_yuv422</text>
</g>
</g>
</svg>
