<?xml version="1.0" encoding="UTF-8" standalone="no"?>
<!DOCTYPE svg PUBLIC "-//W3C//DTD SVG 1.1//EN"
 "http://www.w3.org/Graphics/SVG/1.1/DTD/svg11.dtd">
<!-- Generated by graphviz version 2.43.0 (0)
 -->
<!-- Title: r_wm_Msg_Surf_Format_t Pages: 1 -->
<svg width="250pt" height="95pt"
 viewBox="0.00 0.00 249.50 95.00" xmlns="http://www.w3.org/2000/svg" xmlns:xlink="http://www.w3.org/1999/xlink">
<g id="graph0" class="graph" transform="scale(1 1) rotate(0) translate(4 91)">
<title>r_wm_Msg_Surf_Format_t</title>
<polygon fill="white" stroke="transparent" points="-4,4 -4,-91 245.5,-91 245.5,4 -4,4"/>
<!-- Node1 -->
<g id="node1" class="node">
<title>Node1</title>
<g id="a_node1"><a xlink:title=" ">
<polygon fill="#bfbfbf" stroke="black" points="78,-0.5 78,-19.5 221,-19.5 221,-0.5 78,-0.5"/>
<text text-anchor="middle" x="149.5" y="-7.5" font-family="Helvetica,sans-Serif" font-size="10.00">r_wm_Msg_Surf_Format_t</text>
</a>
</g>
</g>
<!-- Node2 -->
<g id="node2" class="node">
<title>Node2</title>
<g id="a_node2"><a xlink:title=" ">
<polygon fill="white" stroke="#bfbfbf" points="0,-67.5 0,-86.5 103,-86.5 103,-67.5 0,-67.5"/>
<text text-anchor="middle" x="51.5" y="-74.5" font-family="Helvetica,sans-Serif" font-size="10.00">r_wm_ColorFmt_t</text>
</a>
</g>
</g>
<!-- Node2&#45;&gt;Node1 -->
<g id="edge1" class="edge">
<title>Node2&#45;&gt;Node1</title>
<path fill="none" stroke="#9a32cd" stroke-dasharray="5,2" d="M72.4,-61.64C82.89,-54.48 95.82,-45.71 107.5,-38 116.9,-31.79 127.59,-24.92 135.83,-19.67"/>
<polygon fill="#9a32cd" stroke="#9a32cd" points="70.17,-58.92 63.9,-67.46 74.12,-64.7 70.17,-58.92"/>
<text text-anchor="middle" x="126.5" y="-41" font-family="Helvetica,sans-Serif" font-size="10.00"> Format</text>
</g>
<!-- Node3 -->
<g id="node3" class="node">
<title>Node3</title>
<g id="a_node3"><a xlink:title=" ">
<polygon fill="white" stroke="#bfbfbf" points="121.5,-67.5 121.5,-86.5 177.5,-86.5 177.5,-67.5 121.5,-67.5"/>
<text text-anchor="middle" x="149.5" y="-74.5" font-family="Helvetica,sans-Serif" font-size="10.00">uint32_t</text>
</a>
</g>
</g>
<!-- Node3&#45;&gt;Node1 -->
<g id="edge2" class="edge">
<title>Node3&#45;&gt;Node1</title>
<path fill="none" stroke="#9a32cd" stroke-dasharray="5,2" d="M149.5,-57.04C149.5,-44.67 149.5,-29.12 149.5,-19.63"/>
<polygon fill="#9a32cd" stroke="#9a32cd" points="146,-57.23 149.5,-67.23 153,-57.23 146,-57.23"/>
<text text-anchor="middle" x="159" y="-41" font-family="Helvetica,sans-Serif" font-size="10.00"> Pid</text>
</g>
<!-- Node4 -->
<g id="node4" class="node">
<title>Node4</title>
<g id="a_node4"><a xlink:title=" ">
<polygon fill="white" stroke="#bfbfbf" points="195.5,-67.5 195.5,-86.5 241.5,-86.5 241.5,-67.5 195.5,-67.5"/>
<text text-anchor="middle" x="218.5" y="-74.5" font-family="Helvetica,sans-Serif" font-size="10.00">void *</text>
</a>
</g>
</g>
<!-- Node4&#45;&gt;Node1 -->
<g id="edge3" class="edge">
<title>Node4&#45;&gt;Node1</title>
<path fill="none" stroke="#9a32cd" stroke-dasharray="5,2" d="M201.89,-60.36C188.33,-47.58 169.66,-29.99 158.66,-19.63"/>
<polygon fill="#9a32cd" stroke="#9a32cd" points="199.52,-62.92 209.19,-67.23 204.32,-57.83 199.52,-62.92"/>
<text text-anchor="middle" x="206.5" y="-41" font-family="Helvetica,sans-Serif" font-size="10.00"> Handle</text>
</g>
</g>
</svg>
