<?xml version="1.0" encoding="UTF-8" standalone="no"?>
<!DOCTYPE svg PUBLIC "-//W3C//DTD SVG 1.1//EN"
 "http://www.w3.org/Graphics/SVG/1.1/DTD/svg11.dtd">
<!-- Generated by graphviz version 2.43.0 (0)
 -->
<!-- Title: st_osal_mem_monitor_desc Pages: 1 -->
<svg width="372pt" height="106pt"
 viewBox="0.00 0.00 372.00 106.00" xmlns="http://www.w3.org/2000/svg" xmlns:xlink="http://www.w3.org/1999/xlink">
<g id="graph0" class="graph" transform="scale(1 1) rotate(0) translate(4 102)">
<title>st_osal_mem_monitor_desc</title>
<polygon fill="white" stroke="transparent" points="-4,4 -4,-102 368,-102 368,4 -4,4"/>
<!-- Node1 -->
<g id="node1" class="node">
<title>Node1</title>
<g id="a_node1"><a xlink:title=" ">
<polygon fill="#bfbfbf" stroke="black" points="158.5,-0.5 158.5,-19.5 311.5,-19.5 311.5,-0.5 158.5,-0.5"/>
<text text-anchor="middle" x="235" y="-7.5" font-family="Helvetica,sans-Serif" font-size="10.00">st_osal_mem_monitor_desc</text>
</a>
</g>
</g>
<!-- Node2 -->
<g id="node2" class="node">
<title>Node2</title>
<g id="a_node2"><a xlink:title=" ">
<polygon fill="white" stroke="#bfbfbf" points="0,-73 0,-92 152,-92 152,-73 0,-73"/>
<text text-anchor="middle" x="76" y="-80" font-family="Helvetica,sans-Serif" font-size="10.00">enum e_osal_mmngr_event</text>
</a>
</g>
</g>
<!-- Node2&#45;&gt;Node1 -->
<g id="edge1" class="edge">
<title>Node2&#45;&gt;Node1</title>
<path fill="none" stroke="#9a32cd" stroke-dasharray="5,2" d="M104.49,-68.87C136.63,-54.62 188.02,-31.83 215.75,-19.53"/>
<polygon fill="#9a32cd" stroke="#9a32cd" points="102.9,-65.74 95.18,-73 105.74,-72.14 102.9,-65.74"/>
<text text-anchor="middle" x="193" y="-41" font-family="Helvetica,sans-Serif" font-size="10.00"> event_id</text>
</g>
<!-- Node3 -->
<g id="node3" class="node">
<title>Node3</title>
<g id="a_node3"><a xlink:title=" ">
<polygon fill="white" stroke="#bfbfbf" points="170.5,-67.5 170.5,-97.5 299.5,-97.5 299.5,-67.5 170.5,-67.5"/>
<text text-anchor="start" x="178.5" y="-85.5" font-family="Helvetica,sans-Serif" font-size="10.00">fp_osal_memory_mngr</text>
<text text-anchor="middle" x="235" y="-74.5" font-family="Helvetica,sans-Serif" font-size="10.00">_cb_t *</text>
</a>
</g>
</g>
<!-- Node3&#45;&gt;Node1 -->
<g id="edge2" class="edge">
<title>Node3&#45;&gt;Node1</title>
<path fill="none" stroke="#9a32cd" stroke-dasharray="5,2" d="M235,-57.09C235,-44.21 235,-29.2 235,-19.89"/>
<polygon fill="#9a32cd" stroke="#9a32cd" points="231.5,-57.23 235,-67.23 238.5,-57.23 231.5,-57.23"/>
<text text-anchor="middle" x="261" y="-41" font-family="Helvetica,sans-Serif" font-size="10.00"> p_handler</text>
</g>
<!-- Node4 -->
<g id="node4" class="node">
<title>Node4</title>
<g id="a_node4"><a xlink:title=" ">
<polygon fill="white" stroke="#bfbfbf" points="318,-73 318,-92 364,-92 364,-73 318,-73"/>
<text text-anchor="middle" x="341" y="-80" font-family="Helvetica,sans-Serif" font-size="10.00">void *</text>
</a>
</g>
</g>
<!-- Node4&#45;&gt;Node1 -->
<g id="edge3" class="edge">
<title>Node4&#45;&gt;Node1</title>
<path fill="none" stroke="#9a32cd" stroke-dasharray="5,2" d="M324.97,-65.59C315.57,-56.78 303.19,-46.03 291,-38 280.09,-30.81 266.99,-24.39 256.2,-19.61"/>
<polygon fill="#9a32cd" stroke="#9a32cd" points="322.74,-68.3 332.37,-72.71 327.59,-63.25 322.74,-68.3"/>
<text text-anchor="middle" x="320.5" y="-41" font-family="Helvetica,sans-Serif" font-size="10.00"> p_arg</text>
</g>
</g>
</svg>
