<?xml version="1.0" encoding="UTF-8" standalone="no"?>
<!DOCTYPE svg PUBLIC "-//W3C//DTD SVG 1.1//EN"
 "http://www.w3.org/Graphics/SVG/1.1/DTD/svg11.dtd">
<!-- Generated by graphviz version 2.43.0 (0)
 -->
<!-- Title: taurus_vring_alloc_info Pages: 1 -->
<svg width="209pt" height="95pt"
 viewBox="0.00 0.00 209.00 95.00" xmlns="http://www.w3.org/2000/svg" xmlns:xlink="http://www.w3.org/1999/xlink">
<g id="graph0" class="graph" transform="scale(1 1) rotate(0) translate(4 91)">
<title>taurus_vring_alloc_info</title>
<polygon fill="white" stroke="transparent" points="-4,4 -4,-91 205,-91 205,4 -4,4"/>
<!-- Node1 -->
<g id="node1" class="node">
<title>Node1</title>
<g id="a_node1"><a xlink:title=" ">
<polygon fill="#bfbfbf" stroke="black" points="44,-0.5 44,-19.5 174,-19.5 174,-0.5 44,-0.5"/>
<text text-anchor="middle" x="109" y="-7.5" font-family="Helvetica,sans-Serif" font-size="10.00">taurus_vring_alloc_info</text>
</a>
</g>
</g>
<!-- Node2 -->
<g id="node2" class="node">
<title>Node2</title>
<g id="a_node2"><a xlink:title=" ">
<polygon fill="white" stroke="#bfbfbf" points="0,-67.5 0,-86.5 56,-86.5 56,-67.5 0,-67.5"/>
<text text-anchor="middle" x="28" y="-74.5" font-family="Helvetica,sans-Serif" font-size="10.00">uint16_t</text>
</a>
</g>
</g>
<!-- Node2&#45;&gt;Node1 -->
<g id="edge1" class="edge">
<title>Node2&#45;&gt;Node1</title>
<path fill="none" stroke="#9a32cd" stroke-dasharray="5,2" d="M33.96,-57.98C36.98,-51.03 41.25,-43.46 47,-38 55.69,-29.76 67.3,-23.8 78.12,-19.61"/>
<polygon fill="#9a32cd" stroke="#9a32cd" points="30.66,-56.81 30.4,-67.4 37.21,-59.28 30.66,-56.81"/>
<text text-anchor="middle" x="76" y="-41" font-family="Helvetica,sans-Serif" font-size="10.00"> num_descs</text>
</g>
<!-- Node3 -->
<g id="node3" class="node">
<title>Node3</title>
<g id="a_node3"><a xlink:title=" ">
<polygon fill="white" stroke="#bfbfbf" points="81,-67.5 81,-86.5 137,-86.5 137,-67.5 81,-67.5"/>
<text text-anchor="middle" x="109" y="-74.5" font-family="Helvetica,sans-Serif" font-size="10.00">uint32_t</text>
</a>
</g>
</g>
<!-- Node3&#45;&gt;Node1 -->
<g id="edge2" class="edge">
<title>Node3&#45;&gt;Node1</title>
<path fill="none" stroke="#9a32cd" stroke-dasharray="5,2" d="M109,-57.04C109,-44.67 109,-29.12 109,-19.63"/>
<polygon fill="#9a32cd" stroke="#9a32cd" points="105.5,-57.23 109,-67.23 112.5,-57.23 105.5,-57.23"/>
<text text-anchor="middle" x="123" y="-41" font-family="Helvetica,sans-Serif" font-size="10.00"> align</text>
</g>
<!-- Node4 -->
<g id="node4" class="node">
<title>Node4</title>
<g id="a_node4"><a xlink:title=" ">
<polygon fill="white" stroke="#bfbfbf" points="155,-67.5 155,-86.5 201,-86.5 201,-67.5 155,-67.5"/>
<text text-anchor="middle" x="178" y="-74.5" font-family="Helvetica,sans-Serif" font-size="10.00">void *</text>
</a>
</g>
</g>
<!-- Node4&#45;&gt;Node1 -->
<g id="edge3" class="edge">
<title>Node4&#45;&gt;Node1</title>
<path fill="none" stroke="#9a32cd" stroke-dasharray="5,2" d="M162.98,-59.88C156.38,-52.99 148.46,-44.95 141,-38 134.08,-31.56 125.94,-24.7 119.6,-19.5"/>
<polygon fill="#9a32cd" stroke="#9a32cd" points="160.59,-62.45 170,-67.31 165.68,-57.64 160.59,-62.45"/>
<text text-anchor="middle" x="167.5" y="-41" font-family="Helvetica,sans-Serif" font-size="10.00"> pages</text>
</g>
</g>
</svg>
