<?xml version="1.0" encoding="UTF-8" standalone="no"?>
<!DOCTYPE svg PUBLIC "-//W3C//DTD SVG 1.1//EN"
 "http://www.w3.org/Graphics/SVG/1.1/DTD/svg11.dtd">
<!-- Generated by graphviz version 2.43.0 (0)
 -->
<!-- Title: taurus_rvgc_ioc_layer_reserve_in Pages: 1 -->
<svg width="138pt" height="117pt"
 viewBox="0.00 0.00 138.00 117.00" xmlns="http://www.w3.org/2000/svg" xmlns:xlink="http://www.w3.org/1999/xlink">
<g id="graph0" class="graph" transform="scale(1 1) rotate(0) translate(4 113)">
<title>taurus_rvgc_ioc_layer_reserve_in</title>
<polygon fill="white" stroke="transparent" points="-4,4 -4,-113 134,-113 134,4 -4,4"/>
<!-- Node1 -->
<g id="node1" class="node">
<title>Node1</title>
<g id="a_node1"><a xlink:title=" ">
<polygon fill="#bfbfbf" stroke="black" points="3.5,-0.5 3.5,-30.5 126.5,-30.5 126.5,-0.5 3.5,-0.5"/>
<text text-anchor="start" x="11.5" y="-18.5" font-family="Helvetica,sans-Serif" font-size="10.00">taurus_rvgc_ioc_layer</text>
<text text-anchor="middle" x="65" y="-7.5" font-family="Helvetica,sans-Serif" font-size="10.00">_reserve_in</text>
</a>
</g>
</g>
<!-- Node2 -->
<g id="node2" class="node">
<title>Node2</title>
<g id="a_node2"><a xlink:title=" ">
<polygon fill="white" stroke="#bfbfbf" points="0,-89.5 0,-108.5 56,-108.5 56,-89.5 0,-89.5"/>
<text text-anchor="middle" x="28" y="-96.5" font-family="Helvetica,sans-Serif" font-size="10.00">uint64_t</text>
</a>
</g>
</g>
<!-- Node2&#45;&gt;Node1 -->
<g id="edge1" class="edge">
<title>Node2&#45;&gt;Node1</title>
<path fill="none" stroke="#9a32cd" stroke-dasharray="5,2" d="M32.79,-79.59C35.53,-70.21 39.35,-58.76 44,-49 47.01,-42.69 51.03,-36.15 54.76,-30.6"/>
<polygon fill="#9a32cd" stroke="#9a32cd" points="29.36,-78.85 30.08,-89.42 36.11,-80.71 29.36,-78.85"/>
<text text-anchor="middle" x="62" y="-57.5" font-family="Helvetica,sans-Serif" font-size="10.00"> cookie</text>
</g>
<!-- Node3 -->
<g id="node3" class="node">
<title>Node3</title>
<g id="a_node3"><a xlink:title=" ">
<polygon fill="white" stroke="#bfbfbf" points="74,-89.5 74,-108.5 130,-108.5 130,-89.5 74,-89.5"/>
<text text-anchor="middle" x="102" y="-96.5" font-family="Helvetica,sans-Serif" font-size="10.00">uint32_t</text>
</a>
</g>
</g>
<!-- Node3&#45;&gt;Node1 -->
<g id="edge2" class="edge">
<title>Node3&#45;&gt;Node1</title>
<path fill="none" stroke="#9a32cd" stroke-dasharray="5,2" d="M93.96,-79.97C89.81,-70.7 84.66,-59.24 80,-49 77.27,-43 74.23,-36.4 71.6,-30.72"/>
<polygon fill="#9a32cd" stroke="#9a32cd" points="90.86,-81.61 98.13,-89.31 97.25,-78.76 90.86,-81.61"/>
<text text-anchor="middle" x="108.5" y="-63" font-family="Helvetica,sans-Serif" font-size="10.00"> display</text>
<text text-anchor="middle" x="108.5" y="-52" font-family="Helvetica,sans-Serif" font-size="10.00">layer</text>
</g>
</g>
</svg>
