<?xml version="1.0" encoding="UTF-8" standalone="no"?>
<!DOCTYPE svg PUBLIC "-//W3C//DTD SVG 1.1//EN"
 "http://www.w3.org/Graphics/SVG/1.1/DTD/svg11.dtd">
<!-- Generated by graphviz version 2.43.0 (0)
 -->
<!-- Title: r_cio_vin_Config Pages: 1 -->
<svg width="572pt" height="205pt"
 viewBox="0.00 0.00 572.00 205.00" xmlns="http://www.w3.org/2000/svg" xmlns:xlink="http://www.w3.org/1999/xlink">
<g id="graph0" class="graph" transform="scale(1 1) rotate(0) translate(4 201)">
<title>r_cio_vin_Config</title>
<polygon fill="white" stroke="transparent" points="-4,4 -4,-201 568,-201 568,4 -4,4"/>
<!-- Node1 -->
<g id="node1" class="node">
<title>Node1</title>
<g id="a_node1"><a xlink:title=" ">
<polygon fill="#bfbfbf" stroke="black" points="210,-0.5 210,-19.5 306,-19.5 306,-0.5 210,-0.5"/>
<text text-anchor="middle" x="258" y="-7.5" font-family="Helvetica,sans-Serif" font-size="10.00">r_cio_vin_Config</text>
</a>
</g>
</g>
<!-- Node2 -->
<g id="node2" class="node">
<title>Node2</title>
<g id="a_node2"><a xlink:title=" ">
<polygon fill="white" stroke="#bfbfbf" points="0,-177.5 0,-196.5 56,-196.5 56,-177.5 0,-177.5"/>
<text text-anchor="middle" x="28" y="-184.5" font-family="Helvetica,sans-Serif" font-size="10.00">uint16_t</text>
</a>
</g>
</g>
<!-- Node2&#45;&gt;Node1 -->
<g id="edge1" class="edge">
<title>Node2&#45;&gt;Node1</title>
<path fill="none" stroke="#9a32cd" stroke-dasharray="5,2" d="M21.81,-167.28C12.81,-136.08 0.49,-73.43 33,-38 44.74,-25.21 147.24,-17.22 209.78,-13.49"/>
<polygon fill="#9a32cd" stroke="#9a32cd" points="18.59,-168.71 24.89,-177.23 25.28,-166.65 18.59,-168.71"/>
<text text-anchor="middle" x="57.5" y="-96" font-family="Helvetica,sans-Serif" font-size="10.00"> DataRate</text>
</g>
<!-- Node3 -->
<g id="node3" class="node">
<title>Node3</title>
<g id="a_node3"><a xlink:title=" ">
<polygon fill="white" stroke="#bfbfbf" points="74,-177.5 74,-196.5 130,-196.5 130,-177.5 74,-177.5"/>
<text text-anchor="middle" x="102" y="-184.5" font-family="Helvetica,sans-Serif" font-size="10.00">uint32_t</text>
</a>
</g>
</g>
<!-- Node3&#45;&gt;Node1 -->
<g id="edge2" class="edge">
<title>Node3&#45;&gt;Node1</title>
<path fill="none" stroke="#9a32cd" stroke-dasharray="5,2" d="M95.73,-167.51C86.55,-136.67 73.73,-74.51 105,-38 118.38,-22.38 170.11,-15.79 209.76,-13.01"/>
<polygon fill="#9a32cd" stroke="#9a32cd" points="92.49,-168.88 98.86,-177.35 99.16,-166.76 92.49,-168.88"/>
<text text-anchor="middle" x="153" y="-151" font-family="Helvetica,sans-Serif" font-size="10.00"> ImageInHeight</text>
<text text-anchor="middle" x="153" y="-140" font-family="Helvetica,sans-Serif" font-size="10.00">ImageInWidth</text>
<text text-anchor="middle" x="153" y="-129" font-family="Helvetica,sans-Serif" font-size="10.00">ImageOutHeight</text>
<text text-anchor="middle" x="153" y="-118" font-family="Helvetica,sans-Serif" font-size="10.00">ImageOutWidth</text>
<text text-anchor="middle" x="153" y="-107" font-family="Helvetica,sans-Serif" font-size="10.00">ImageScaledHeight</text>
<text text-anchor="middle" x="153" y="-96" font-family="Helvetica,sans-Serif" font-size="10.00">ImageScaledWidth</text>
<text text-anchor="middle" x="153" y="-85" font-family="Helvetica,sans-Serif" font-size="10.00">ImageStride</text>
<text text-anchor="middle" x="153" y="-74" font-family="Helvetica,sans-Serif" font-size="10.00">ImageUvaof</text>
<text text-anchor="middle" x="153" y="-63" font-family="Helvetica,sans-Serif" font-size="10.00">OutputFmt</text>
<text text-anchor="middle" x="153" y="-52" font-family="Helvetica,sans-Serif" font-size="10.00">pos_x</text>
<text text-anchor="middle" x="153" y="-41" font-family="Helvetica,sans-Serif" font-size="10.00">...</text>
</g>
<!-- Node4 -->
<g id="node4" class="node">
<title>Node4</title>
<g id="a_node4"><a xlink:title=" ">
<polygon fill="white" stroke="#bfbfbf" points="202,-177.5 202,-196.5 240,-196.5 240,-177.5 202,-177.5"/>
<text text-anchor="middle" x="221" y="-184.5" font-family="Helvetica,sans-Serif" font-size="10.00">bool</text>
</a>
</g>
</g>
<!-- Node4&#45;&gt;Node1 -->
<g id="edge3" class="edge">
<title>Node4&#45;&gt;Node1</title>
<path fill="none" stroke="#9a32cd" stroke-dasharray="5,2" d="M215.21,-167.58C207.12,-138.22 195.75,-79.86 218,-38 222.25,-30.01 230.03,-23.96 237.61,-19.63"/>
<polygon fill="#9a32cd" stroke="#9a32cd" points="211.9,-168.71 218.08,-177.32 218.61,-166.74 211.9,-168.71"/>
<text text-anchor="middle" x="244" y="-96" font-family="Helvetica,sans-Serif" font-size="10.00"> Interlaced</text>
</g>
<!-- Node5 -->
<g id="node5" class="node">
<title>Node5</title>
<g id="a_node5"><a xlink:title=" ">
<polygon fill="white" stroke="#bfbfbf" points="269,-177.5 269,-196.5 319,-196.5 319,-177.5 269,-177.5"/>
<text text-anchor="middle" x="294" y="-184.5" font-family="Helvetica,sans-Serif" font-size="10.00">uint8_t</text>
</a>
</g>
</g>
<!-- Node5&#45;&gt;Node1 -->
<g id="edge4" class="edge">
<title>Node5&#45;&gt;Node1</title>
<path fill="none" stroke="#9a32cd" stroke-dasharray="5,2" d="M293.84,-167.19C293.07,-138.53 289.49,-82.56 274,-38 271.71,-31.41 267.71,-24.66 264.28,-19.56"/>
<polygon fill="#9a32cd" stroke="#9a32cd" points="290.34,-167.45 294.02,-177.38 297.34,-167.32 290.34,-167.45"/>
<text text-anchor="middle" x="331" y="-118" font-family="Helvetica,sans-Serif" font-size="10.00"> BoundaryMbps</text>
<text text-anchor="middle" x="331" y="-107" font-family="Helvetica,sans-Serif" font-size="10.00">ColorSpaceOut</text>
<text text-anchor="middle" x="331" y="-96" font-family="Helvetica,sans-Serif" font-size="10.00">Lanes</text>
<text text-anchor="middle" x="331" y="-85" font-family="Helvetica,sans-Serif" font-size="10.00">VmcIm</text>
<text text-anchor="middle" x="331" y="-74" font-family="Helvetica,sans-Serif" font-size="10.00">VmcInf</text>
</g>
<!-- Node6 -->
<g id="node6" class="node">
<title>Node6</title>
<g id="a_node6"><a xlink:href="structr__cio__vin__Csi2Type__t.html" target="_top" xlink:title="csi2 type">
<polygon fill="white" stroke="black" points="337,-177.5 337,-196.5 455,-196.5 455,-177.5 337,-177.5"/>
<text text-anchor="middle" x="396" y="-184.5" font-family="Helvetica,sans-Serif" font-size="10.00">r_cio_vin_Csi2Type_t</text>
</a>
</g>
</g>
<!-- Node6&#45;&gt;Node1 -->
<g id="edge5" class="edge">
<title>Node6&#45;&gt;Node1</title>
<path fill="none" stroke="#9a32cd" stroke-dasharray="5,2" d="M399.09,-167.33C403.08,-136.22 406.05,-73.68 373,-38 363.77,-28.03 333.28,-21.15 306.02,-16.83"/>
<polygon fill="#9a32cd" stroke="#9a32cd" points="395.62,-166.86 397.63,-177.26 402.55,-167.87 395.62,-166.86"/>
<text text-anchor="middle" x="424.5" y="-96" font-family="Helvetica,sans-Serif" font-size="10.00"> Csi2Type</text>
</g>
<!-- Node7 -->
<g id="node7" class="node">
<title>Node7</title>
<g id="a_node7"><a xlink:title=" ">
<polygon fill="white" stroke="#bfbfbf" points="473,-177.5 473,-196.5 531,-196.5 531,-177.5 473,-177.5"/>
<text text-anchor="middle" x="502" y="-184.5" font-family="Helvetica,sans-Serif" font-size="10.00">uintptr_t</text>
</a>
</g>
</g>
<!-- Node7&#45;&gt;Node1 -->
<g id="edge6" class="edge">
<title>Node7&#45;&gt;Node1</title>
<path fill="none" stroke="#9a32cd" stroke-dasharray="5,2" d="M501.6,-167.06C499.82,-135.04 491.25,-70.51 452,-38 430.46,-20.16 356.5,-14.1 306.38,-12.05"/>
<polygon fill="#9a32cd" stroke="#9a32cd" points="498.11,-167.41 501.99,-177.27 505.11,-167.14 498.11,-167.41"/>
<text text-anchor="middle" x="532" y="-96" font-family="Helvetica,sans-Serif" font-size="10.00"> FrameBuffer</text>
</g>
</g>
</svg>
