<?xml version="1.0" encoding="UTF-8" standalone="no"?>
<!DOCTYPE svg PUBLIC "-//W3C//DTD SVG 1.1//EN"
 "http://www.w3.org/Graphics/SVG/1.1/DTD/svg11.dtd">
<!-- Generated by graphviz version 2.43.0 (0)
 -->
<!-- Title: r_doc_Region_t Pages: 1 -->
<svg width="180pt" height="173pt"
 viewBox="0.00 0.00 179.50 173.00" xmlns="http://www.w3.org/2000/svg" xmlns:xlink="http://www.w3.org/1999/xlink">
<g id="graph0" class="graph" transform="scale(1 1) rotate(0) translate(4 169)">
<title>r_doc_Region_t</title>
<polygon fill="white" stroke="transparent" points="-4,4 -4,-169 175.5,-169 175.5,4 -4,4"/>
<!-- Node1 -->
<g id="node1" class="node">
<title>Node1</title>
<g id="a_node1"><a xlink:title="Structure containing region location and size used by Video Output Monitor.">
<polygon fill="#bfbfbf" stroke="black" points="41,-0.5 41,-19.5 132,-19.5 132,-0.5 41,-0.5"/>
<text text-anchor="middle" x="86.5" y="-7.5" font-family="Helvetica,sans-Serif" font-size="10.00">r_doc_Region_t</text>
</a>
</g>
</g>
<!-- Node2 -->
<g id="node2" class="node">
<title>Node2</title>
<g id="a_node2"><a xlink:href="structr__doc__Rect__t.html" target="_top" xlink:title="Range of area to monitor.">
<polygon fill="white" stroke="black" points="0,-67.5 0,-86.5 79,-86.5 79,-67.5 0,-67.5"/>
<text text-anchor="middle" x="39.5" y="-74.5" font-family="Helvetica,sans-Serif" font-size="10.00">r_doc_Rect_t</text>
</a>
</g>
</g>
<!-- Node2&#45;&gt;Node1 -->
<g id="edge1" class="edge">
<title>Node2&#45;&gt;Node1</title>
<path fill="none" stroke="#9a32cd" stroke-dasharray="5,2" d="M51.86,-58.9C60.99,-46.27 73.05,-29.6 80.26,-19.63"/>
<polygon fill="#9a32cd" stroke="#9a32cd" points="48.86,-57.08 45.84,-67.23 54.53,-61.18 48.86,-57.08"/>
<text text-anchor="middle" x="77.5" y="-41" font-family="Helvetica,sans-Serif" font-size="10.00"> rect</text>
</g>
<!-- Node3 -->
<g id="node3" class="node">
<title>Node3</title>
<g id="a_node3"><a xlink:title=" ">
<polygon fill="white" stroke="#bfbfbf" points="58.5,-145.5 58.5,-164.5 114.5,-164.5 114.5,-145.5 58.5,-145.5"/>
<text text-anchor="middle" x="86.5" y="-152.5" font-family="Helvetica,sans-Serif" font-size="10.00">uint32_t</text>
</a>
</g>
</g>
<!-- Node3&#45;&gt;Node2 -->
<g id="edge2" class="edge">
<title>Node3&#45;&gt;Node2</title>
<path fill="none" stroke="#9a32cd" stroke-dasharray="5,2" d="M74.74,-136.66C72.63,-133.47 70.48,-130.15 68.5,-127 59.77,-113.11 50.17,-96.63 44.49,-86.76"/>
<polygon fill="#9a32cd" stroke="#9a32cd" points="71.91,-138.72 80.38,-145.08 77.72,-134.82 71.91,-138.72"/>
<text text-anchor="middle" x="85.5" y="-119" font-family="Helvetica,sans-Serif" font-size="10.00"> height</text>
<text text-anchor="middle" x="85.5" y="-108" font-family="Helvetica,sans-Serif" font-size="10.00">width</text>
</g>
<!-- Node4 -->
<g id="node4" class="node">
<title>Node4</title>
<g id="a_node4"><a xlink:href="structr__doc__Pos__t.html" target="_top" xlink:title="start position of area to monitor">
<polygon fill="white" stroke="black" points="97.5,-67.5 97.5,-86.5 171.5,-86.5 171.5,-67.5 97.5,-67.5"/>
<text text-anchor="middle" x="134.5" y="-74.5" font-family="Helvetica,sans-Serif" font-size="10.00">r_doc_Pos_t</text>
</a>
</g>
</g>
<!-- Node3&#45;&gt;Node4 -->
<g id="edge4" class="edge">
<title>Node3&#45;&gt;Node4</title>
<path fill="none" stroke="#9a32cd" stroke-dasharray="5,2" d="M97.51,-136.57C107.37,-120.95 121.43,-98.7 129.06,-86.62"/>
<polygon fill="#9a32cd" stroke="#9a32cd" points="94.39,-134.96 92.01,-145.28 100.31,-138.7 94.39,-134.96"/>
<text text-anchor="middle" x="132.5" y="-119" font-family="Helvetica,sans-Serif" font-size="10.00"> pos_x</text>
<text text-anchor="middle" x="132.5" y="-108" font-family="Helvetica,sans-Serif" font-size="10.00">pos_y</text>
</g>
<!-- Node4&#45;&gt;Node1 -->
<g id="edge3" class="edge">
<title>Node4&#45;&gt;Node1</title>
<path fill="none" stroke="#9a32cd" stroke-dasharray="5,2" d="M121.88,-58.9C112.55,-46.27 100.24,-29.6 92.87,-19.63"/>
<polygon fill="#9a32cd" stroke="#9a32cd" points="119.27,-61.27 128.03,-67.23 124.9,-57.11 119.27,-61.27"/>
<text text-anchor="middle" x="124" y="-41" font-family="Helvetica,sans-Serif" font-size="10.00"> pos</text>
</g>
</g>
</svg>
