<?xml version="1.0" encoding="UTF-8" standalone="no"?>
<!DOCTYPE svg PUBLIC "-//W3C//DTD SVG 1.1//EN"
 "http://www.w3.org/Graphics/SVG/1.1/DTD/svg11.dtd">
<!-- Generated by graphviz version 2.43.0 (0)
 -->
<!-- Title: st_osal_interrupt_control Pages: 1 -->
<svg width="895pt" height="571pt"
 viewBox="0.00 0.00 895.00 570.50" xmlns="http://www.w3.org/2000/svg" xmlns:xlink="http://www.w3.org/1999/xlink">
<g id="graph0" class="graph" transform="scale(1 1) rotate(0) translate(4 566.5)">
<title>st_osal_interrupt_control</title>
<polygon fill="white" stroke="transparent" points="-4,4 -4,-566.5 891,-566.5 891,4 -4,4"/>
<!-- Node1 -->
<g id="node1" class="node">
<title>Node1</title>
<g id="a_node1"><a xlink:title=" ">
<polygon fill="#bfbfbf" stroke="black" points="750,-306.5 750,-325.5 887,-325.5 887,-306.5 750,-306.5"/>
<text text-anchor="middle" x="818.5" y="-313.5" font-family="Helvetica,sans-Serif" font-size="10.00">st_osal_interrupt_control</text>
</a>
</g>
</g>
<!-- Node2 -->
<g id="node2" class="node">
<title>Node2</title>
<g id="a_node2"><a xlink:title=" ">
<polygon fill="white" stroke="#bfbfbf" points="281,-433.5 281,-452.5 337,-452.5 337,-433.5 281,-433.5"/>
<text text-anchor="middle" x="309" y="-440.5" font-family="Helvetica,sans-Serif" font-size="10.00">uint64_t</text>
</a>
</g>
</g>
<!-- Node2&#45;&gt;Node1 -->
<g id="edge1" class="edge">
<title>Node2&#45;&gt;Node1</title>
<path fill="none" stroke="#9a32cd" stroke-dasharray="5,2" d="M347.67,-442.94C423.6,-441.53 599.12,-431.72 732,-374 761.12,-361.35 790.85,-338.47 806.42,-325.55"/>
<polygon fill="#9a32cd" stroke="#9a32cd" points="347.15,-439.45 337.2,-443.09 347.25,-446.45 347.15,-439.45"/>
<text text-anchor="middle" x="577.5" y="-444" font-family="Helvetica,sans-Serif" font-size="10.00"> handle_id</text>
<text text-anchor="middle" x="577.5" y="-433" font-family="Helvetica,sans-Serif" font-size="10.00">irq_channel</text>
</g>
<!-- Node4 -->
<g id="node4" class="node">
<title>Node4</title>
<g id="a_node4"><a xlink:href="structst__osal__interrupt__config.html" target="_top" xlink:title=" ">
<polygon fill="white" stroke="black" points="511,-487.5 511,-506.5 644,-506.5 644,-487.5 511,-487.5"/>
<text text-anchor="middle" x="577.5" y="-494.5" font-family="Helvetica,sans-Serif" font-size="10.00">st_osal_interrupt_config</text>
</a>
</g>
</g>
<!-- Node2&#45;&gt;Node4 -->
<g id="edge4" class="edge">
<title>Node2&#45;&gt;Node4</title>
<path fill="none" stroke="#9a32cd" stroke-dasharray="5,2" d="M347.39,-449.37C384.45,-455.81 442.8,-466.33 493,-477 507.87,-480.16 524.15,-483.98 538.35,-487.43"/>
<polygon fill="#9a32cd" stroke="#9a32cd" points="347.51,-445.84 337.06,-447.58 346.32,-452.73 347.51,-445.84"/>
<text text-anchor="middle" x="442.5" y="-480" font-family="Helvetica,sans-Serif" font-size="10.00"> irq_number</text>
</g>
<!-- Node9 -->
<g id="node9" class="node">
<title>Node9</title>
<g id="a_node9"><a xlink:href="structst__osal__device__control.html" target="_top" xlink:title="control of device (Defined in OSAL Wrapper implementation files).">
<polygon fill="white" stroke="black" points="513.5,-189.5 513.5,-208.5 641.5,-208.5 641.5,-189.5 513.5,-189.5"/>
<text text-anchor="middle" x="577.5" y="-196.5" font-family="Helvetica,sans-Serif" font-size="10.00">st_osal_device_control</text>
</a>
</g>
</g>
<!-- Node2&#45;&gt;Node9 -->
<g id="edge12" class="edge">
<title>Node2&#45;&gt;Node9</title>
<path fill="none" stroke="#9a32cd" stroke-dasharray="5,2" d="M340.84,-429C381.68,-408.89 453.17,-368.01 493,-312 509.38,-288.97 495.19,-274.43 511,-251 523.42,-232.58 544.39,-217.61 559.26,-208.54"/>
<polygon fill="#9a32cd" stroke="#9a32cd" points="339.13,-425.94 331.64,-433.43 342.17,-432.24 339.13,-425.94"/>
<text text-anchor="middle" x="442.5" y="-413" font-family="Helvetica,sans-Serif" font-size="10.00"> axi_bus_id</text>
<text text-anchor="middle" x="442.5" y="-402" font-family="Helvetica,sans-Serif" font-size="10.00">handle_id</text>
</g>
<!-- Node3 -->
<g id="node3" class="node">
<title>Node3</title>
<g id="a_node3"><a xlink:title=" ">
<polygon fill="white" stroke="#bfbfbf" points="284,-338.5 284,-357.5 334,-357.5 334,-338.5 284,-338.5"/>
<text text-anchor="middle" x="309" y="-345.5" font-family="Helvetica,sans-Serif" font-size="10.00">int64_t</text>
</a>
</g>
</g>
<!-- Node3&#45;&gt;Node1 -->
<g id="edge2" class="edge">
<title>Node3&#45;&gt;Node1</title>
<path fill="none" stroke="#9a32cd" stroke-dasharray="5,2" d="M338.78,-361.81C354.18,-368.44 373.7,-375.66 392,-379 425.5,-385.12 638.42,-375 644,-374 700.42,-363.86 763.53,-339.18 795.85,-325.51"/>
<polygon fill="#9a32cd" stroke="#9a32cd" points="339.87,-358.46 329.31,-357.58 337.02,-364.85 339.87,-358.46"/>
<text text-anchor="middle" x="577.5" y="-382" font-family="Helvetica,sans-Serif" font-size="10.00"> inner_timeout</text>
</g>
<!-- Node3&#45;&gt;Node9 -->
<g id="edge13" class="edge">
<title>Node3&#45;&gt;Node9</title>
<path fill="none" stroke="#9a32cd" stroke-dasharray="5,2" d="M343.62,-337.04C353.87,-332.87 364.84,-327.52 374,-321 383.74,-314.07 381.69,-307.06 392,-301 431.7,-277.69 455.09,-304.12 493,-278 504.88,-269.82 501.23,-261.61 511,-251 526.53,-234.12 547.84,-218.27 561.88,-208.61"/>
<polygon fill="#9a32cd" stroke="#9a32cd" points="342.18,-333.84 334.09,-340.67 344.68,-340.38 342.18,-333.84"/>
<text text-anchor="middle" x="442.5" y="-304" font-family="Helvetica,sans-Serif" font-size="10.00"> inner_timeout</text>
</g>
<!-- Node4&#45;&gt;Node1 -->
<g id="edge3" class="edge">
<title>Node4&#45;&gt;Node1</title>
<path fill="none" stroke="#9a32cd" stroke-dasharray="5,2" d="M654.23,-489.13C680.8,-483.45 709.58,-473.7 732,-457 779.52,-421.6 806.09,-351.26 814.52,-325.63"/>
<polygon fill="#9a32cd" stroke="#9a32cd" points="653.3,-485.75 644.17,-491.11 654.66,-492.61 653.3,-485.75"/>
<text text-anchor="middle" x="697" y="-489" font-family="Helvetica,sans-Serif" font-size="10.00"> usr_config</text>
</g>
<!-- Node5 -->
<g id="node5" class="node">
<title>Node5</title>
<g id="a_node5"><a xlink:title=" ">
<polygon fill="white" stroke="#bfbfbf" points="48,-343.5 48,-362.5 86,-362.5 86,-343.5 48,-343.5"/>
<text text-anchor="middle" x="67" y="-350.5" font-family="Helvetica,sans-Serif" font-size="10.00">char</text>
</a>
</g>
</g>
<!-- Node5&#45;&gt;Node4 -->
<g id="edge5" class="edge">
<title>Node5&#45;&gt;Node4</title>
<path fill="none" stroke="#9a32cd" stroke-dasharray="5,2" d="M87.88,-368.89C119.14,-393.03 182.61,-438.6 244,-462 332,-495.55 442.01,-500.63 510.79,-499.85"/>
<polygon fill="#9a32cd" stroke="#9a32cd" points="89.97,-366.09 79.94,-362.69 85.66,-371.61 89.97,-366.09"/>
<text text-anchor="middle" x="309" y="-495" font-family="Helvetica,sans-Serif" font-size="10.00"> id</text>
</g>
<!-- Node13 -->
<g id="node13" class="node">
<title>Node13</title>
<g id="a_node13"><a xlink:href="structst__osal__device__info.html" target="_top" xlink:title=" ">
<polygon fill="white" stroke="black" points="252.5,-81.5 252.5,-100.5 365.5,-100.5 365.5,-81.5 252.5,-81.5"/>
<text text-anchor="middle" x="309" y="-88.5" font-family="Helvetica,sans-Serif" font-size="10.00">st_osal_device_info</text>
</a>
</g>
</g>
<!-- Node5&#45;&gt;Node13 -->
<g id="edge18" class="edge">
<title>Node5&#45;&gt;Node13</title>
<path fill="none" stroke="#9a32cd" stroke-dasharray="5,2" d="M87.14,-336.9C120.36,-307.92 188.7,-243.6 226,-175 240.32,-148.67 223,-131.39 244,-110 247.82,-106.11 252.39,-103.01 257.31,-100.54"/>
<polygon fill="#9a32cd" stroke="#9a32cd" points="84.79,-334.3 79.5,-343.48 89.36,-339.61 84.79,-334.3"/>
<text text-anchor="middle" x="189" y="-298" font-family="Helvetica,sans-Serif" font-size="10.00"> axi_bus_name</text>
<text text-anchor="middle" x="189" y="-287" font-family="Helvetica,sans-Serif" font-size="10.00">id</text>
<text text-anchor="middle" x="189" y="-276" font-family="Helvetica,sans-Serif" font-size="10.00">type</text>
</g>
<!-- Node6 -->
<g id="node6" class="node">
<title>Node6</title>
<g id="a_node6"><a xlink:title=" ">
<polygon fill="white" stroke="#bfbfbf" points="246,-532 246,-562 372,-562 372,-532 246,-532"/>
<text text-anchor="start" x="254" y="-550" font-family="Helvetica,sans-Serif" font-size="10.00">enum e_osal_interrupt</text>
<text text-anchor="middle" x="309" y="-539" font-family="Helvetica,sans-Serif" font-size="10.00">_priority</text>
</a>
</g>
</g>
<!-- Node6&#45;&gt;Node4 -->
<g id="edge6" class="edge">
<title>Node6&#45;&gt;Node4</title>
<path fill="none" stroke="#9a32cd" stroke-dasharray="5,2" d="M382.63,-535.66C416.28,-530.15 456.76,-523.19 493,-516 507.29,-513.17 522.88,-509.72 536.67,-506.54"/>
<polygon fill="#9a32cd" stroke="#9a32cd" points="381.72,-532.26 372.41,-537.31 382.85,-539.17 381.72,-532.26"/>
<text text-anchor="middle" x="442.5" y="-536" font-family="Helvetica,sans-Serif" font-size="10.00"> int_priority</text>
</g>
<!-- Node7 -->
<g id="node7" class="node">
<title>Node7</title>
<g id="a_node7"><a xlink:title=" ">
<polygon fill="white" stroke="#bfbfbf" points="290,-292.5 290,-311.5 328,-311.5 328,-292.5 290,-292.5"/>
<text text-anchor="middle" x="309" y="-299.5" font-family="Helvetica,sans-Serif" font-size="10.00">bool</text>
</a>
</g>
</g>
<!-- Node7&#45;&gt;Node1 -->
<g id="edge7" class="edge">
<title>Node7&#45;&gt;Node1</title>
<path fill="none" stroke="#9a32cd" stroke-dasharray="5,2" d="M337.75,-309.62C349.81,-313.91 363.55,-320.21 374,-329 385.32,-338.52 379.02,-349.91 392,-357 431.4,-378.51 453.42,-378.18 493,-357 505.72,-350.19 498.44,-337.09 511,-330 550.36,-307.76 672.29,-308.86 749.97,-312.12"/>
<polygon fill="#9a32cd" stroke="#9a32cd" points="338.71,-306.25 328.12,-306.48 336.54,-312.91 338.71,-306.25"/>
<text text-anchor="middle" x="577.5" y="-366" font-family="Helvetica,sans-Serif" font-size="10.00"> active</text>
<text text-anchor="middle" x="577.5" y="-355" font-family="Helvetica,sans-Serif" font-size="10.00">init_state</text>
<text text-anchor="middle" x="577.5" y="-344" font-family="Helvetica,sans-Serif" font-size="10.00">irq_enable</text>
<text text-anchor="middle" x="577.5" y="-333" font-family="Helvetica,sans-Serif" font-size="10.00">irq_use</text>
</g>
<!-- Node7&#45;&gt;Node9 -->
<g id="edge15" class="edge">
<title>Node7&#45;&gt;Node9</title>
<path fill="none" stroke="#9a32cd" stroke-dasharray="5,2" d="M325.61,-284.81C340.94,-269.05 365.78,-246.34 392,-234 403.43,-228.62 468.66,-216.92 518.34,-208.53"/>
<polygon fill="#9a32cd" stroke="#9a32cd" points="322.83,-282.66 318.5,-292.33 327.92,-287.46 322.83,-282.66"/>
<text text-anchor="middle" x="442.5" y="-270" font-family="Helvetica,sans-Serif" font-size="10.00"> active</text>
<text text-anchor="middle" x="442.5" y="-259" font-family="Helvetica,sans-Serif" font-size="10.00">init_state</text>
<text text-anchor="middle" x="442.5" y="-248" font-family="Helvetica,sans-Serif" font-size="10.00">pm_wait_state</text>
<text text-anchor="middle" x="442.5" y="-237" font-family="Helvetica,sans-Serif" font-size="10.00">use</text>
</g>
<!-- Node8 -->
<g id="node8" class="node">
<title>Node8</title>
<g id="a_node8"><a xlink:title=" ">
<polygon fill="white" stroke="#bfbfbf" points="554.5,-260.5 554.5,-279.5 600.5,-279.5 600.5,-260.5 554.5,-260.5"/>
<text text-anchor="middle" x="577.5" y="-267.5" font-family="Helvetica,sans-Serif" font-size="10.00">void *</text>
</a>
</g>
</g>
<!-- Node8&#45;&gt;Node1 -->
<g id="edge8" class="edge">
<title>Node8&#45;&gt;Node1</title>
<path fill="none" stroke="#9a32cd" stroke-dasharray="5,2" d="M610.82,-273.01C642.05,-276.25 690.59,-282.16 732,-291 751.21,-295.1 772.4,-301.28 788.88,-306.48"/>
<polygon fill="#9a32cd" stroke="#9a32cd" points="610.84,-269.5 600.54,-271.98 610.14,-276.46 610.84,-269.5"/>
<text text-anchor="middle" x="697" y="-294" font-family="Helvetica,sans-Serif" font-size="10.00"> irq_arg</text>
</g>
<!-- Node9&#45;&gt;Node1 -->
<g id="edge9" class="edge">
<title>Node9&#45;&gt;Node1</title>
<path fill="none" stroke="#9a32cd" stroke-dasharray="5,2" d="M624.89,-211.39C656.14,-220.68 697.75,-234.88 732,-253 761.01,-268.35 791.01,-292.81 806.6,-306.29"/>
<polygon fill="#9a32cd" stroke="#9a32cd" points="625.7,-207.99 615.12,-208.55 623.75,-214.71 625.7,-207.99"/>
<text text-anchor="middle" x="697" y="-267" font-family="Helvetica,sans-Serif" font-size="10.00"> deviceHandle</text>
<text text-anchor="middle" x="697" y="-256" font-family="Helvetica,sans-Serif" font-size="10.00">irq_func</text>
</g>
<!-- Node10 -->
<g id="node10" class="node">
<title>Node10</title>
<g id="a_node10"><a xlink:title=" ">
<polygon fill="white" stroke="#bfbfbf" points="244,-195.5 244,-214.5 374,-214.5 374,-195.5 244,-195.5"/>
<text text-anchor="middle" x="309" y="-202.5" font-family="Helvetica,sans-Serif" font-size="10.00">enum e_osal_pm_state</text>
</a>
</g>
</g>
<!-- Node10&#45;&gt;Node9 -->
<g id="edge10" class="edge">
<title>Node10&#45;&gt;Node9</title>
<path fill="none" stroke="#9a32cd" stroke-dasharray="5,2" d="M384.68,-200.27C387.15,-200.17 389.59,-200.08 392,-200 432.34,-198.66 477.66,-198.4 513.29,-198.48"/>
<polygon fill="#9a32cd" stroke="#9a32cd" points="384.27,-196.79 374.44,-200.73 384.59,-203.78 384.27,-196.79"/>
<text text-anchor="middle" x="442.5" y="-203" font-family="Helvetica,sans-Serif" font-size="10.00"> lowest_power_state</text>
</g>
<!-- Node11 -->
<g id="node11" class="node">
<title>Node11</title>
<g id="a_node11"><a xlink:title=" ">
<polygon fill="white" stroke="#bfbfbf" points="259,-157.5 259,-176.5 359,-176.5 359,-157.5 259,-157.5"/>
<text text-anchor="middle" x="309" y="-164.5" font-family="Helvetica,sans-Serif" font-size="10.00">st_pma_handle_t</text>
</a>
</g>
</g>
<!-- Node11&#45;&gt;Node9 -->
<g id="edge11" class="edge">
<title>Node11&#45;&gt;Node9</title>
<path fill="none" stroke="#9a32cd" stroke-dasharray="5,2" d="M369.39,-170.65C405.28,-173.24 451.89,-177.28 493,-183 505.43,-184.73 518.81,-187.07 531.14,-189.44"/>
<polygon fill="#9a32cd" stroke="#9a32cd" points="369.31,-167.14 359.09,-169.93 368.82,-174.12 369.31,-167.14"/>
<text text-anchor="middle" x="442.5" y="-186" font-family="Helvetica,sans-Serif" font-size="10.00"> pma_handle</text>
</g>
<!-- Node12 -->
<g id="node12" class="node">
<title>Node12</title>
<g id="a_node12"><a xlink:title=" ">
<polygon fill="white" stroke="#bfbfbf" points="266,-119.5 266,-138.5 352,-138.5 352,-119.5 266,-119.5"/>
<text text-anchor="middle" x="309" y="-126.5" font-family="Helvetica,sans-Serif" font-size="10.00">base_mutex_t</text>
</a>
</g>
</g>
<!-- Node12&#45;&gt;Node9 -->
<g id="edge14" class="edge">
<title>Node12&#45;&gt;Node9</title>
<path fill="none" stroke="#9a32cd" stroke-dasharray="5,2" d="M362.34,-133.1C399.47,-137.02 450.11,-144.41 493,-158 517.79,-165.85 544.42,-180.04 560.78,-189.5"/>
<polygon fill="#9a32cd" stroke="#9a32cd" points="362.55,-129.6 352.25,-132.09 361.85,-136.57 362.55,-129.6"/>
<text text-anchor="middle" x="442.5" y="-161" font-family="Helvetica,sans-Serif" font-size="10.00"> inner_mtx</text>
</g>
<!-- Node13&#45;&gt;Node9 -->
<g id="edge16" class="edge">
<title>Node13&#45;&gt;Node9</title>
<path fill="none" stroke="#9a32cd" stroke-dasharray="5,2" d="M376.15,-93.61C412.22,-97.19 456.76,-105.23 493,-123 526.27,-139.31 555.93,-172.96 569.17,-189.46"/>
<polygon fill="#9a32cd" stroke="#9a32cd" points="376.01,-90.08 365.74,-92.67 375.38,-97.06 376.01,-90.08"/>
<text text-anchor="middle" x="442.5" y="-126" font-family="Helvetica,sans-Serif" font-size="10.00"> dev_info</text>
</g>
<!-- Node14 -->
<g id="node14" class="node">
<title>Node14</title>
<g id="a_node14"><a xlink:title=" ">
<polygon fill="white" stroke="#bfbfbf" points="18,-43.5 18,-62.5 116,-62.5 116,-43.5 18,-43.5"/>
<text text-anchor="middle" x="67" y="-50.5" font-family="Helvetica,sans-Serif" font-size="10.00">e_pma_hwa_id_t</text>
</a>
</g>
</g>
<!-- Node14&#45;&gt;Node13 -->
<g id="edge17" class="edge">
<title>Node14&#45;&gt;Node13</title>
<path fill="none" stroke="#9a32cd" stroke-dasharray="5,2" d="M126.37,-60.98C156.21,-65.19 193.09,-70.6 226,-76 236.14,-77.66 246.96,-79.56 257.31,-81.43"/>
<polygon fill="#9a32cd" stroke="#9a32cd" points="126.52,-57.47 116.13,-59.54 125.54,-64.4 126.52,-57.47"/>
<text text-anchor="middle" x="189" y="-79" font-family="Helvetica,sans-Serif" font-size="10.00"> pm_id</text>
</g>
<!-- Node15 -->
<g id="node15" class="node">
<title>Node15</title>
<g id="a_node15"><a xlink:title=" ">
<polygon fill="white" stroke="#bfbfbf" points="44.5,-0.5 44.5,-19.5 89.5,-19.5 89.5,-0.5 44.5,-0.5"/>
<text text-anchor="middle" x="67" y="-7.5" font-family="Helvetica,sans-Serif" font-size="10.00">size_t</text>
</a>
</g>
</g>
<!-- Node15&#45;&gt;Node13 -->
<g id="edge19" class="edge">
<title>Node15&#45;&gt;Node13</title>
<path fill="none" stroke="#9a32cd" stroke-dasharray="5,2" d="M99.88,-9.73C133.4,-10.79 186.62,-16.36 226,-39 236.66,-45.13 234.26,-52.5 244,-60 255.54,-68.89 270.04,-76.17 282.32,-81.44"/>
<polygon fill="#9a32cd" stroke="#9a32cd" points="99.8,-6.23 89.73,-9.53 99.66,-13.23 99.8,-6.23"/>
<text text-anchor="middle" x="189" y="-53" font-family="Helvetica,sans-Serif" font-size="10.00"> irq_channels</text>
<text text-anchor="middle" x="189" y="-42" font-family="Helvetica,sans-Serif" font-size="10.00">range</text>
</g>
<!-- Node16 -->
<g id="node16" class="node">
<title>Node16</title>
<g id="a_node16"><a xlink:title=" ">
<polygon fill="white" stroke="#bfbfbf" points="0,-157.5 0,-176.5 134,-176.5 134,-157.5 0,-157.5"/>
<text text-anchor="middle" x="67" y="-164.5" font-family="Helvetica,sans-Serif" font-size="10.00">enum e_osal_pm_policy</text>
</a>
</g>
</g>
<!-- Node16&#45;&gt;Node13 -->
<g id="edge20" class="edge">
<title>Node16&#45;&gt;Node13</title>
<path fill="none" stroke="#9a32cd" stroke-dasharray="5,2" d="M144.07,-161.44C171.48,-156.74 201.64,-148.25 226,-133 237,-126.11 233.27,-117.3 244,-110 249.65,-106.15 256.1,-103.07 262.67,-100.6"/>
<polygon fill="#9a32cd" stroke="#9a32cd" points="143.44,-157.99 134.1,-163 144.53,-164.91 143.44,-157.99"/>
<text text-anchor="middle" x="189" y="-163" font-family="Helvetica,sans-Serif" font-size="10.00"> initial_policy</text>
</g>
<!-- Node17 -->
<g id="node17" class="node">
<title>Node17</title>
<g id="a_node17"><a xlink:href="structst__osal__interrupt__info__t.html" target="_top" xlink:title=" ">
<polygon fill="white" stroke="black" points="1.5,-119.5 1.5,-138.5 132.5,-138.5 132.5,-119.5 1.5,-119.5"/>
<text text-anchor="middle" x="67" y="-126.5" font-family="Helvetica,sans-Serif" font-size="10.00">st_osal_interrupt_info_t</text>
</a>
</g>
</g>
<!-- Node17&#45;&gt;Node13 -->
<g id="edge21" class="edge">
<title>Node17&#45;&gt;Node13</title>
<path fill="none" stroke="#9a32cd" stroke-dasharray="5,2" d="M142.58,-118.71C168.97,-114.92 198.83,-110.46 226,-106 236.14,-104.34 246.96,-102.44 257.31,-100.57"/>
<polygon fill="#9a32cd" stroke="#9a32cd" points="142.06,-115.25 132.66,-120.13 143.05,-122.18 142.06,-115.25"/>
<text text-anchor="middle" x="189" y="-121" font-family="Helvetica,sans-Serif" font-size="10.00"> interrupt</text>
</g>
<!-- Node18 -->
<g id="node18" class="node">
<title>Node18</title>
<g id="a_node18"><a xlink:title=" ">
<polygon fill="white" stroke="#bfbfbf" points="38,-81.5 38,-100.5 96,-100.5 96,-81.5 38,-81.5"/>
<text text-anchor="middle" x="67" y="-88.5" font-family="Helvetica,sans-Serif" font-size="10.00">uintptr_t</text>
</a>
</g>
</g>
<!-- Node18&#45;&gt;Node13 -->
<g id="edge22" class="edge">
<title>Node18&#45;&gt;Node13</title>
<path fill="none" stroke="#9a32cd" stroke-dasharray="5,2" d="M106,-91C145.44,-91 207.53,-91 252.47,-91"/>
<polygon fill="#9a32cd" stroke="#9a32cd" points="106,-87.5 96,-91 106,-94.5 106,-87.5"/>
<text text-anchor="middle" x="189" y="-94" font-family="Helvetica,sans-Serif" font-size="10.00"> address</text>
</g>
<!-- Node19 -->
<g id="node19" class="node">
<title>Node19</title>
<g id="a_node19"><a xlink:title=" ">
<polygon fill="white" stroke="#bfbfbf" points="251,-31.5 251,-50.5 367,-50.5 367,-31.5 251,-31.5"/>
<text text-anchor="middle" x="309" y="-38.5" font-family="Helvetica,sans-Serif" font-size="10.00">SemaphoreHandle_t</text>
</a>
</g>
</g>
<!-- Node19&#45;&gt;Node1 -->
<g id="edge24" class="edge">
<title>Node19&#45;&gt;Node1</title>
<path fill="none" stroke="#9a32cd" stroke-dasharray="5,2" d="M377.36,-32.48C412.67,-30.38 456.13,-31.61 493,-44 648.74,-96.34 779.88,-264.61 810.67,-306.49"/>
<polygon fill="#9a32cd" stroke="#9a32cd" points="376.89,-29 367.16,-33.19 377.38,-35.98 376.89,-29"/>
<text text-anchor="middle" x="577.5" y="-133" font-family="Helvetica,sans-Serif" font-size="10.00"> inner_mtx</text>
</g>
<!-- Node19&#45;&gt;Node9 -->
<g id="edge23" class="edge">
<title>Node19&#45;&gt;Node9</title>
<path fill="none" stroke="#9a32cd" stroke-dasharray="5,2" d="M377.47,-44.47C414.17,-49.09 458.9,-59.38 493,-82 535.01,-109.86 562.71,-166.6 572.53,-189.3"/>
<polygon fill="#9a32cd" stroke="#9a32cd" points="377.68,-40.97 367.35,-43.32 376.89,-47.93 377.68,-40.97"/>
<text text-anchor="middle" x="442.5" y="-85" font-family="Helvetica,sans-Serif" font-size="10.00"> inner_mtx</text>
</g>
</g>
</svg>
