<?xml version="1.0" encoding="UTF-8" standalone="no"?>
<!DOCTYPE svg PUBLIC "-//W3C//DTD SVG 1.1//EN"
 "http://www.w3.org/Graphics/SVG/1.1/DTD/svg11.dtd">
<!-- Generated by graphviz version 2.43.0 (0)
 -->
<!-- Title: STag_Eth_LinkDescType Pages: 1 -->
<svg width="253pt" height="184pt"
 viewBox="0.00 0.00 253.00 184.00" xmlns="http://www.w3.org/2000/svg" xmlns:xlink="http://www.w3.org/1999/xlink">
<g id="graph0" class="graph" transform="scale(1 1) rotate(0) translate(4 180)">
<title>STag_Eth_LinkDescType</title>
<polygon fill="white" stroke="transparent" points="-4,4 -4,-180 249,-180 249,4 -4,4"/>
<!-- Node1 -->
<g id="node1" class="node">
<title>Node1</title>
<g id="a_node1"><a xlink:title=" ">
<polygon fill="#bfbfbf" stroke="black" points="0,-0.5 0,-19.5 132,-19.5 132,-0.5 0,-0.5"/>
<text text-anchor="middle" x="66" y="-7.5" font-family="Helvetica,sans-Serif" font-size="10.00">STag_Eth_LinkDescType</text>
</a>
</g>
</g>
<!-- Node2 -->
<g id="node2" class="node">
<title>Node2</title>
<g id="a_node2"><a xlink:title=" ">
<polygon fill="white" stroke="#bfbfbf" points="23.5,-156.5 23.5,-175.5 108.5,-175.5 108.5,-156.5 23.5,-156.5"/>
<text text-anchor="middle" x="66" y="-163.5" font-family="Helvetica,sans-Serif" font-size="10.00">unsigned long</text>
</a>
</g>
</g>
<!-- Node2&#45;&gt;Node1 -->
<g id="edge1" class="edge">
<title>Node2&#45;&gt;Node1</title>
<path fill="none" stroke="#9a32cd" stroke-dasharray="5,2" d="M63.18,-146.28C60.55,-126.57 57.28,-94.61 59,-67 60.05,-50.18 62.85,-30.68 64.57,-19.7"/>
<polygon fill="#9a32cd" stroke="#9a32cd" points="59.73,-146.94 64.61,-156.35 66.66,-145.96 59.73,-146.94"/>
<text text-anchor="middle" x="71.5" y="-74.5" font-family="Helvetica,sans-Serif" font-size="10.00"> Dptr</text>
</g>
<!-- Node3 -->
<g id="node3" class="node">
<title>Node3</title>
<g id="a_node3"><a xlink:href="structSTag__Eth__LinkDescLowType.html" target="_top" xlink:title=" ">
<polygon fill="white" stroke="black" points="93,-67.5 93,-86.5 245,-86.5 245,-67.5 93,-67.5"/>
<text text-anchor="middle" x="169" y="-74.5" font-family="Helvetica,sans-Serif" font-size="10.00">STag_Eth_LinkDescLowType</text>
</a>
</g>
</g>
<!-- Node2&#45;&gt;Node3 -->
<g id="edge3" class="edge">
<title>Node2&#45;&gt;Node3</title>
<path fill="none" stroke="#9a32cd" stroke-dasharray="5,2" d="M84.08,-149.73C105.77,-131.41 141.39,-101.32 158.79,-86.62"/>
<polygon fill="#9a32cd" stroke="#9a32cd" points="81.63,-147.21 76.25,-156.34 86.15,-152.56 81.63,-147.21"/>
<text text-anchor="middle" x="145" y="-130" font-family="Helvetica,sans-Serif" font-size="10.00"> Die</text>
<text text-anchor="middle" x="145" y="-119" font-family="Helvetica,sans-Serif" font-size="10.00">Dt</text>
<text text-anchor="middle" x="145" y="-108" font-family="Helvetica,sans-Serif" font-size="10.00">Res</text>
</g>
<!-- Node3&#45;&gt;Node1 -->
<g id="edge2" class="edge">
<title>Node3&#45;&gt;Node1</title>
<path fill="none" stroke="#9a32cd" stroke-dasharray="5,2" d="M146.45,-61.77C126.06,-48.9 96.71,-30.38 79.67,-19.63"/>
<polygon fill="#9a32cd" stroke="#9a32cd" points="144.78,-64.86 155.11,-67.23 148.52,-58.94 144.78,-64.86"/>
<text text-anchor="middle" x="142.5" y="-41" font-family="Helvetica,sans-Serif" font-size="10.00"> Header</text>
</g>
</g>
</svg>
