<?xml version="1.0" encoding="UTF-8" standalone="no"?>
<!DOCTYPE svg PUBLIC "-//W3C//DTD SVG 1.1//EN"
 "http://www.w3.org/Graphics/SVG/1.1/DTD/svg11.dtd">
<!-- Generated by graphviz version 2.43.0 (0)
 -->
<!-- Title: taurus_rvgc_ioc_layer_set_pos_in Pages: 1 -->
<svg width="141pt" height="139pt"
 viewBox="0.00 0.00 141.00 139.00" xmlns="http://www.w3.org/2000/svg" xmlns:xlink="http://www.w3.org/1999/xlink">
<g id="graph0" class="graph" transform="scale(1 1) rotate(0) translate(4 135)">
<title>taurus_rvgc_ioc_layer_set_pos_in</title>
<polygon fill="white" stroke="transparent" points="-4,4 -4,-135 137,-135 137,4 -4,4"/>
<!-- Node1 -->
<g id="node1" class="node">
<title>Node1</title>
<g id="a_node1"><a xlink:title=" ">
<polygon fill="#bfbfbf" stroke="black" points="3.5,-0.5 3.5,-30.5 126.5,-30.5 126.5,-0.5 3.5,-0.5"/>
<text text-anchor="start" x="11.5" y="-18.5" font-family="Helvetica,sans-Serif" font-size="10.00">taurus_rvgc_ioc_layer</text>
<text text-anchor="middle" x="65" y="-7.5" font-family="Helvetica,sans-Serif" font-size="10.00">_set_pos_in</text>
</a>
</g>
</g>
<!-- Node2 -->
<g id="node2" class="node">
<title>Node2</title>
<g id="a_node2"><a xlink:title=" ">
<polygon fill="white" stroke="#bfbfbf" points="0,-111.5 0,-130.5 56,-130.5 56,-111.5 0,-111.5"/>
<text text-anchor="middle" x="28" y="-118.5" font-family="Helvetica,sans-Serif" font-size="10.00">uint64_t</text>
</a>
</g>
</g>
<!-- Node2&#45;&gt;Node1 -->
<g id="edge1" class="edge">
<title>Node2&#45;&gt;Node1</title>
<path fill="none" stroke="#9a32cd" stroke-dasharray="5,2" d="M30.4,-101.11C32.7,-86.48 36.9,-65.91 44,-49 46.65,-42.68 50.53,-36.24 54.23,-30.77"/>
<polygon fill="#9a32cd" stroke="#9a32cd" points="26.89,-101.01 28.95,-111.4 33.82,-101.99 26.89,-101.01"/>
<text text-anchor="middle" x="62" y="-68.5" font-family="Helvetica,sans-Serif" font-size="10.00"> cookie</text>
</g>
<!-- Node3 -->
<g id="node3" class="node">
<title>Node3</title>
<g id="a_node3"><a xlink:title=" ">
<polygon fill="white" stroke="#bfbfbf" points="74,-111.5 74,-130.5 130,-130.5 130,-111.5 74,-111.5"/>
<text text-anchor="middle" x="102" y="-118.5" font-family="Helvetica,sans-Serif" font-size="10.00">uint32_t</text>
</a>
</g>
</g>
<!-- Node3&#45;&gt;Node1 -->
<g id="edge2" class="edge">
<title>Node3&#45;&gt;Node1</title>
<path fill="none" stroke="#9a32cd" stroke-dasharray="5,2" d="M96.96,-101.39C92.87,-86.94 86.71,-66.47 80,-49 77.64,-42.85 74.66,-36.22 71.98,-30.56"/>
<polygon fill="#9a32cd" stroke="#9a32cd" points="93.62,-102.42 99.66,-111.13 100.36,-100.56 93.62,-102.42"/>
<text text-anchor="middle" x="113.5" y="-85" font-family="Helvetica,sans-Serif" font-size="10.00"> display</text>
<text text-anchor="middle" x="113.5" y="-74" font-family="Helvetica,sans-Serif" font-size="10.00">layer</text>
<text text-anchor="middle" x="113.5" y="-63" font-family="Helvetica,sans-Serif" font-size="10.00">pos_x</text>
<text text-anchor="middle" x="113.5" y="-52" font-family="Helvetica,sans-Serif" font-size="10.00">pos_y</text>
</g>
</g>
</svg>
