<?xml version="1.0" encoding="UTF-8" standalone="no"?>
<!DOCTYPE svg PUBLIC "-//W3C//DTD SVG 1.1//EN"
 "http://www.w3.org/Graphics/SVG/1.1/DTD/svg11.dtd">
<!-- Generated by graphviz version 2.43.0 (0)
 -->
<!-- Title: r_doc_Status_t Pages: 1 -->
<svg width="222pt" height="150pt"
 viewBox="0.00 0.00 222.00 150.00" xmlns="http://www.w3.org/2000/svg" xmlns:xlink="http://www.w3.org/1999/xlink">
<g id="graph0" class="graph" transform="scale(1 1) rotate(0) translate(4 146)">
<title>r_doc_Status_t</title>
<polygon fill="white" stroke="transparent" points="-4,4 -4,-146 218,-146 218,4 -4,4"/>
<!-- Node1 -->
<g id="node1" class="node">
<title>Node1</title>
<g id="a_node1"><a xlink:title="Structure containing status information of DOC.">
<polygon fill="#bfbfbf" stroke="black" points="36,-0.5 36,-19.5 124,-19.5 124,-0.5 36,-0.5"/>
<text text-anchor="middle" x="80" y="-7.5" font-family="Helvetica,sans-Serif" font-size="10.00">r_doc_Status_t</text>
</a>
</g>
</g>
<!-- Node2 -->
<g id="node2" class="node">
<title>Node2</title>
<g id="a_node2"><a xlink:title=" ">
<polygon fill="white" stroke="#bfbfbf" points="0,-122.5 0,-141.5 56,-141.5 56,-122.5 0,-122.5"/>
<text text-anchor="middle" x="28" y="-129.5" font-family="Helvetica,sans-Serif" font-size="10.00">uint32_t</text>
</a>
</g>
</g>
<!-- Node2&#45;&gt;Node1 -->
<g id="edge1" class="edge">
<title>Node2&#45;&gt;Node1</title>
<path fill="none" stroke="#9a32cd" stroke-dasharray="5,2" d="M22.94,-112.28C18.68,-92.33 15.24,-60.58 29,-38 34.11,-29.62 42.78,-23.69 51.54,-19.58"/>
<polygon fill="#9a32cd" stroke="#9a32cd" points="19.6,-113.36 25.35,-122.26 26.4,-111.71 19.6,-113.36"/>
<text text-anchor="middle" x="70" y="-68.5" font-family="Helvetica,sans-Serif" font-size="10.00"> current_monitor</text>
</g>
<!-- Node3 -->
<g id="node3" class="node">
<title>Node3</title>
<g id="a_node3"><a xlink:title=" ">
<polygon fill="white" stroke="#bfbfbf" points="114,-122.5 114,-141.5 152,-141.5 152,-122.5 114,-122.5"/>
<text text-anchor="middle" x="133" y="-129.5" font-family="Helvetica,sans-Serif" font-size="10.00">bool</text>
</a>
</g>
</g>
<!-- Node3&#45;&gt;Node1 -->
<g id="edge2" class="edge">
<title>Node3&#45;&gt;Node1</title>
<path fill="none" stroke="#9a32cd" stroke-dasharray="5,2" d="M131.93,-112.27C130.08,-92.53 124.98,-61.15 111,-38 106.57,-30.67 99.48,-24.28 93.2,-19.56"/>
<polygon fill="#9a32cd" stroke="#9a32cd" points="128.46,-112.68 132.7,-122.39 135.44,-112.16 128.46,-112.68"/>
<text text-anchor="middle" x="172" y="-96" font-family="Helvetica,sans-Serif" font-size="10.00"> activity_monitor</text>
<text text-anchor="middle" x="172" y="-85" font-family="Helvetica,sans-Serif" font-size="10.00">ch0_error</text>
<text text-anchor="middle" x="172" y="-74" font-family="Helvetica,sans-Serif" font-size="10.00">ch1_error</text>
<text text-anchor="middle" x="172" y="-63" font-family="Helvetica,sans-Serif" font-size="10.00">parameter_error</text>
<text text-anchor="middle" x="172" y="-52" font-family="Helvetica,sans-Serif" font-size="10.00">vom_error</text>
<text text-anchor="middle" x="172" y="-41" font-family="Helvetica,sans-Serif" font-size="10.00">vom_status</text>
</g>
</g>
</svg>
