<?xml version="1.0" encoding="UTF-8" standalone="no"?>
<!DOCTYPE svg PUBLIC "-//W3C//DTD SVG 1.1//EN"
 "http://www.w3.org/Graphics/SVG/1.1/DTD/svg11.dtd">
<!-- Generated by graphviz version 2.43.0 (0)
 -->
<!-- Title: r_wm_Doc_DUParam_t Pages: 1 -->
<svg width="163pt" height="128pt"
 viewBox="0.00 0.00 163.00 128.00" xmlns="http://www.w3.org/2000/svg" xmlns:xlink="http://www.w3.org/1999/xlink">
<g id="graph0" class="graph" transform="scale(1 1) rotate(0) translate(4 124)">
<title>r_wm_Doc_DUParam_t</title>
<polygon fill="white" stroke="transparent" points="-4,4 -4,-124 159,-124 159,4 -4,4"/>
<!-- Node1 -->
<g id="node1" class="node">
<title>Node1</title>
<g id="a_node1"><a xlink:title="Data Structure containing the used DU parameters by DOC.">
<polygon fill="#bfbfbf" stroke="black" points="0,-0.5 0,-19.5 128,-19.5 128,-0.5 0,-0.5"/>
<text text-anchor="middle" x="64" y="-7.5" font-family="Helvetica,sans-Serif" font-size="10.00">r_wm_Doc_DUParam_t</text>
</a>
</g>
</g>
<!-- Node2 -->
<g id="node2" class="node">
<title>Node2</title>
<g id="a_node2"><a xlink:title=" ">
<polygon fill="white" stroke="#bfbfbf" points="36,-100.5 36,-119.5 92,-119.5 92,-100.5 36,-100.5"/>
<text text-anchor="middle" x="64" y="-107.5" font-family="Helvetica,sans-Serif" font-size="10.00">uint32_t</text>
</a>
</g>
</g>
<!-- Node2&#45;&gt;Node1 -->
<g id="edge1" class="edge">
<title>Node2&#45;&gt;Node1</title>
<path fill="none" stroke="#9a32cd" stroke-dasharray="5,2" d="M64,-90.22C64,-68.95 64,-35.22 64,-19.54"/>
<polygon fill="#9a32cd" stroke="#9a32cd" points="60.5,-90.3 64,-100.3 67.5,-90.3 60.5,-90.3"/>
<text text-anchor="middle" x="109.5" y="-74" font-family="Helvetica,sans-Serif" font-size="10.00"> HbackPorchOffset</text>
<text text-anchor="middle" x="109.5" y="-63" font-family="Helvetica,sans-Serif" font-size="10.00">ScreenHeight</text>
<text text-anchor="middle" x="109.5" y="-52" font-family="Helvetica,sans-Serif" font-size="10.00">ScreenWidth</text>
<text text-anchor="middle" x="109.5" y="-41" font-family="Helvetica,sans-Serif" font-size="10.00">VbackPorchOffset</text>
</g>
</g>
</svg>
