<?xml version="1.0" encoding="UTF-8" standalone="no"?>
<!DOCTYPE svg PUBLIC "-//W3C//DTD SVG 1.1//EN"
 "http://www.w3.org/Graphics/SVG/1.1/DTD/svg11.dtd">
<!-- Generated by graphviz version 2.43.0 (0)
 -->
<!-- Title: st_imrdrv_attr_gauss_filter_t Pages: 1 -->
<svg width="326pt" height="228pt"
 viewBox="0.00 0.00 326.00 228.00" xmlns="http://www.w3.org/2000/svg" xmlns:xlink="http://www.w3.org/1999/xlink">
<g id="graph0" class="graph" transform="scale(1 1) rotate(0) translate(4 224)">
<title>st_imrdrv_attr_gauss_filter_t</title>
<polygon fill="white" stroke="transparent" points="-4,4 -4,-224 322,-224 322,4 -4,4"/>
<!-- Node1 -->
<g id="node1" class="node">
<title>Node1</title>
<g id="a_node1"><a xlink:title=" ">
<polygon fill="#bfbfbf" stroke="black" points="69.5,-0.5 69.5,-30.5 188.5,-30.5 188.5,-0.5 69.5,-0.5"/>
<text text-anchor="start" x="77.5" y="-18.5" font-family="Helvetica,sans-Serif" font-size="10.00">st_imrdrv_attr_gauss</text>
<text text-anchor="middle" x="129" y="-7.5" font-family="Helvetica,sans-Serif" font-size="10.00">_filter_t</text>
</a>
</g>
</g>
<!-- Node2 -->
<g id="node2" class="node">
<title>Node2</title>
<g id="a_node2"><a xlink:title=" ">
<polygon fill="white" stroke="#bfbfbf" points="0,-100.5 0,-119.5 150,-119.5 150,-100.5 0,-100.5"/>
<text text-anchor="middle" x="75" y="-107.5" font-family="Helvetica,sans-Serif" font-size="10.00">e_imrdrv_rounding_mode_t</text>
</a>
</g>
</g>
<!-- Node2&#45;&gt;Node1 -->
<g id="edge1" class="edge">
<title>Node2&#45;&gt;Node1</title>
<path fill="none" stroke="#9a32cd" stroke-dasharray="5,2" d="M83.39,-91.19C89.3,-79.06 97.62,-62.77 106,-49 109.74,-42.86 114.23,-36.34 118.25,-30.77"/>
<polygon fill="#9a32cd" stroke="#9a32cd" points="80.22,-89.72 79.05,-100.25 86.53,-92.75 80.22,-89.72"/>
<text text-anchor="middle" x="148.5" y="-74" font-family="Helvetica,sans-Serif" font-size="10.00"> half_scale</text>
<text text-anchor="middle" x="148.5" y="-63" font-family="Helvetica,sans-Serif" font-size="10.00">one_eighth_scale</text>
<text text-anchor="middle" x="148.5" y="-52" font-family="Helvetica,sans-Serif" font-size="10.00">quarter_scale</text>
</g>
<!-- Node3 -->
<g id="node3" class="node">
<title>Node3</title>
<g id="a_node3"><a xlink:href="structst__imrdrv__gauss__padding__t.html" target="_top" xlink:title=" ">
<polygon fill="white" stroke="black" points="168,-100.5 168,-119.5 318,-119.5 318,-100.5 168,-100.5"/>
<text text-anchor="middle" x="243" y="-107.5" font-family="Helvetica,sans-Serif" font-size="10.00">st_imrdrv_gauss_padding_t</text>
</a>
</g>
</g>
<!-- Node3&#45;&gt;Node1 -->
<g id="edge2" class="edge">
<title>Node3&#45;&gt;Node1</title>
<path fill="none" stroke="#9a32cd" stroke-dasharray="5,2" d="M230.96,-91.9C221.24,-78.97 206.65,-61.39 191,-49 182.04,-41.91 171.31,-35.64 161.3,-30.55"/>
<polygon fill="#9a32cd" stroke="#9a32cd" points="228.4,-94.33 237.12,-100.35 234.05,-90.21 228.4,-94.33"/>
<text text-anchor="middle" x="243.5" y="-63" font-family="Helvetica,sans-Serif" font-size="10.00"> padding</text>
</g>
<!-- Node4 -->
<g id="node4" class="node">
<title>Node4</title>
<g id="a_node4"><a xlink:title=" ">
<polygon fill="white" stroke="#bfbfbf" points="192,-200.5 192,-219.5 294,-219.5 294,-200.5 192,-200.5"/>
<text text-anchor="middle" x="243" y="-207.5" font-family="Helvetica,sans-Serif" font-size="10.00">e_imrdrv_mode_t</text>
</a>
</g>
</g>
<!-- Node4&#45;&gt;Node3 -->
<g id="edge3" class="edge">
<title>Node4&#45;&gt;Node3</title>
<path fill="none" stroke="#9a32cd" stroke-dasharray="5,2" d="M243,-190.22C243,-168.95 243,-135.22 243,-119.54"/>
<polygon fill="#9a32cd" stroke="#9a32cd" points="239.5,-190.3 243,-200.3 246.5,-190.3 239.5,-190.3"/>
<text text-anchor="middle" x="258" y="-174" font-family="Helvetica,sans-Serif" font-size="10.00"> down</text>
<text text-anchor="middle" x="258" y="-163" font-family="Helvetica,sans-Serif" font-size="10.00">left</text>
<text text-anchor="middle" x="258" y="-152" font-family="Helvetica,sans-Serif" font-size="10.00">right</text>
<text text-anchor="middle" x="258" y="-141" font-family="Helvetica,sans-Serif" font-size="10.00">top</text>
</g>
</g>
</svg>
