<?xml version="1.0" encoding="UTF-8" standalone="no"?>
<!DOCTYPE svg PUBLIC "-//W3C//DTD SVG 1.1//EN"
 "http://www.w3.org/Graphics/SVG/1.1/DTD/svg11.dtd">
<!-- Generated by graphviz version 2.43.0 (0)
 -->
<!-- Title: st_osal_mem_buf_ptr_self Pages: 1 -->
<svg width="1020pt" height="569pt"
 viewBox="0.00 0.00 1020.00 569.00" xmlns="http://www.w3.org/2000/svg" xmlns:xlink="http://www.w3.org/1999/xlink">
<g id="graph0" class="graph" transform="scale(1 1) rotate(0) translate(4 565)">
<title>st_osal_mem_buf_ptr_self</title>
<polygon fill="white" stroke="transparent" points="-4,4 -4,-565 1016,-565 1016,4 -4,4"/>
<!-- Node1 -->
<g id="node1" class="node">
<title>Node1</title>
<g id="a_node1"><a xlink:title=" ">
<polygon fill="#bfbfbf" stroke="black" points="867,-161.5 867,-180.5 1012,-180.5 1012,-161.5 867,-161.5"/>
<text text-anchor="middle" x="939.5" y="-168.5" font-family="Helvetica,sans-Serif" font-size="10.00">st_osal_mem_buf_ptr_self</text>
</a>
</g>
</g>
<!-- Node2 -->
<g id="node2" class="node">
<title>Node2</title>
<g id="a_node2"><a xlink:title=" ">
<polygon fill="white" stroke="#bfbfbf" points="655,-305.5 655,-324.5 711,-324.5 711,-305.5 655,-305.5"/>
<text text-anchor="middle" x="683" y="-312.5" font-family="Helvetica,sans-Serif" font-size="10.00">uint64_t</text>
</a>
</g>
</g>
<!-- Node2&#45;&gt;Node1 -->
<g id="edge1" class="edge">
<title>Node2&#45;&gt;Node1</title>
<path fill="none" stroke="#9a32cd" stroke-dasharray="5,2" d="M721.38,-312.5C756.56,-308.7 809.58,-299.12 849,-275 889.23,-250.39 920.77,-201.63 933,-180.81"/>
<polygon fill="#9a32cd" stroke="#9a32cd" points="720.68,-309.05 711.07,-313.5 721.36,-316.02 720.68,-309.05"/>
<text text-anchor="middle" x="813" y="-305" font-family="Helvetica,sans-Serif" font-size="10.00"> handle_id</text>
</g>
<!-- Node3 -->
<g id="node3" class="node">
<title>Node3</title>
<g id="a_node3"><a xlink:href="structst__osal__memory__buffer__obj.html" target="_top" xlink:title="memory buffer object.">
<polygon fill="white" stroke="black" points="607,-267.5 607,-286.5 759,-286.5 759,-267.5 607,-267.5"/>
<text text-anchor="middle" x="683" y="-274.5" font-family="Helvetica,sans-Serif" font-size="10.00">st_osal_memory_buffer_obj</text>
</a>
</g>
</g>
<!-- Node3&#45;&gt;Node1 -->
<g id="edge2" class="edge">
<title>Node3&#45;&gt;Node1</title>
<path fill="none" stroke="#9a32cd" stroke-dasharray="5,2" d="M758.77,-265.43C787.81,-259.26 820.81,-250.16 849,-237 880.84,-222.14 912.64,-195.05 928.37,-180.63"/>
<polygon fill="#9a32cd" stroke="#9a32cd" points="757.77,-262.06 748.67,-267.48 759.17,-268.91 757.77,-262.06"/>
<text text-anchor="middle" x="813" y="-263" font-family="Helvetica,sans-Serif" font-size="10.00"> mbuff_obj</text>
</g>
<!-- Node4 -->
<g id="node4" class="node">
<title>Node4</title>
<g id="a_node4"><a xlink:title=" ">
<polygon fill="white" stroke="#bfbfbf" points="322.5,-519.5 322.5,-560.5 452.5,-560.5 452.5,-519.5 322.5,-519.5"/>
<text text-anchor="start" x="330.5" y="-548.5" font-family="Helvetica,sans-Serif" font-size="10.00">e_osal_return_t(*)</text>
<text text-anchor="start" x="330.5" y="-537.5" font-family="Helvetica,sans-Serif" font-size="10.00">(const void *p_ptr_self,</text>
<text text-anchor="middle" x="387.5" y="-526.5" font-family="Helvetica,sans-Serif" font-size="10.00"> size_t *const p_size)</text>
</a>
</g>
</g>
<!-- Node4&#45;&gt;Node3 -->
<g id="edge3" class="edge">
<title>Node4&#45;&gt;Node3</title>
<path fill="none" stroke="#9a32cd" stroke-dasharray="5,2" d="M462.88,-537.04C506.4,-531.14 558.61,-516.07 589,-479 614.91,-447.4 580.35,-326.98 607,-296 610.24,-292.23 614.11,-289.16 618.36,-286.65"/>
<polygon fill="#9a32cd" stroke="#9a32cd" points="462.38,-533.57 452.88,-538.25 463.23,-540.52 462.38,-533.57"/>
<text text-anchor="middle" x="539" y="-534" font-family="Helvetica,sans-Serif" font-size="10.00"> p_getSize</text>
</g>
<!-- Node5 -->
<g id="node5" class="node">
<title>Node5</title>
<g id="a_node5"><a xlink:title=" ">
<polygon fill="white" stroke="#bfbfbf" points="325,-459.5 325,-500.5 450,-500.5 450,-459.5 325,-459.5"/>
<text text-anchor="start" x="333" y="-488.5" font-family="Helvetica,sans-Serif" font-size="10.00">e_osal_return_t(*)</text>
<text text-anchor="start" x="333" y="-477.5" font-family="Helvetica,sans-Serif" font-size="10.00">(void *p_ptr_self, void</text>
<text text-anchor="middle" x="387.5" y="-466.5" font-family="Helvetica,sans-Serif" font-size="10.00"> **const pp_cpu_ptr)</text>
</a>
</g>
</g>
<!-- Node5&#45;&gt;Node3 -->
<g id="edge4" class="edge">
<title>Node5&#45;&gt;Node3</title>
<path fill="none" stroke="#9a32cd" stroke-dasharray="5,2" d="M460.09,-472.53C503.85,-464.09 557.34,-446.15 589,-408 621.2,-369.2 572.97,-333.2 607,-296 610.45,-292.23 614.52,-289.17 618.96,-286.68"/>
<polygon fill="#9a32cd" stroke="#9a32cd" points="459.27,-469.11 450.05,-474.33 460.51,-476 459.27,-469.11"/>
<text text-anchor="middle" x="539" y="-467" font-family="Helvetica,sans-Serif" font-size="10.00"> p_getCpuPtr</text>
</g>
<!-- Node6 -->
<g id="node6" class="node">
<title>Node6</title>
<g id="a_node6"><a xlink:title=" ">
<polygon fill="white" stroke="#bfbfbf" points="326,-399.5 326,-440.5 449,-440.5 449,-399.5 326,-399.5"/>
<text text-anchor="start" x="334" y="-428.5" font-family="Helvetica,sans-Serif" font-size="10.00">e_osal_return_t(*)</text>
<text text-anchor="start" x="334" y="-417.5" font-family="Helvetica,sans-Serif" font-size="10.00">(void *p_ptr_self, size</text>
<text text-anchor="middle" x="387.5" y="-406.5" font-family="Helvetica,sans-Serif" font-size="10.00">_t offset, size_t size)</text>
</a>
</g>
</g>
<!-- Node6&#45;&gt;Node3 -->
<g id="edge5" class="edge">
<title>Node6&#45;&gt;Node3</title>
<path fill="none" stroke="#9a32cd" stroke-dasharray="5,2" d="M456.09,-395.75C461.14,-393.83 466.16,-391.9 471,-390 524,-369.15 548.98,-380.53 589,-340 603.85,-324.97 591.05,-309.86 607,-296 611.46,-292.12 616.61,-289.02 622.06,-286.53"/>
<polygon fill="#9a32cd" stroke="#9a32cd" points="454.48,-392.61 446.34,-399.4 456.93,-399.17 454.48,-392.61"/>
<text text-anchor="middle" x="539" y="-396" font-family="Helvetica,sans-Serif" font-size="10.00"> p_flush</text>
<text text-anchor="middle" x="539" y="-385" font-family="Helvetica,sans-Serif" font-size="10.00">p_invalidate</text>
</g>
<!-- Node7 -->
<g id="node7" class="node">
<title>Node7</title>
<g id="a_node7"><a xlink:title=" ">
<polygon fill="white" stroke="#bfbfbf" points="322.5,-328 322.5,-380 452.5,-380 452.5,-328 322.5,-328"/>
<text text-anchor="start" x="330.5" y="-368" font-family="Helvetica,sans-Serif" font-size="10.00">e_osal_return_t(*)</text>
<text text-anchor="start" x="330.5" y="-357" font-family="Helvetica,sans-Serif" font-size="10.00">(void *p_ptr_self, const</text>
<text text-anchor="start" x="330.5" y="-346" font-family="Helvetica,sans-Serif" font-size="10.00"> void **const pp_const</text>
<text text-anchor="middle" x="387.5" y="-335" font-family="Helvetica,sans-Serif" font-size="10.00">_cpu_ptr)</text>
</a>
</g>
</g>
<!-- Node7&#45;&gt;Node3 -->
<g id="edge6" class="edge">
<title>Node7&#45;&gt;Node3</title>
<path fill="none" stroke="#9a32cd" stroke-dasharray="5,2" d="M462.18,-334.22C504.52,-322.91 558.71,-308.52 607,-296 618.96,-292.9 632.01,-289.57 643.82,-286.58"/>
<polygon fill="#9a32cd" stroke="#9a32cd" points="461.26,-330.84 452.51,-336.8 463.07,-337.6 461.26,-330.84"/>
<text text-anchor="middle" x="539" y="-328" font-family="Helvetica,sans-Serif" font-size="10.00"> p_getConstCpuPtr</text>
</g>
<!-- Node8 -->
<g id="node8" class="node">
<title>Node8</title>
<g id="a_node8"><a xlink:title=" ">
<polygon fill="white" stroke="#bfbfbf" points="322.5,-245.5 322.5,-308.5 452.5,-308.5 452.5,-245.5 322.5,-245.5"/>
<text text-anchor="start" x="330.5" y="-296.5" font-family="Helvetica,sans-Serif" font-size="10.00">e_osal_return_t(*)</text>
<text text-anchor="start" x="330.5" y="-285.5" font-family="Helvetica,sans-Serif" font-size="10.00">(const void *p_ptr_self,</text>
<text text-anchor="start" x="330.5" y="-274.5" font-family="Helvetica,sans-Serif" font-size="10.00"> osal_axi_bus_id_t axi</text>
<text text-anchor="start" x="330.5" y="-263.5" font-family="Helvetica,sans-Serif" font-size="10.00">_id, uintptr_t *const p</text>
<text text-anchor="middle" x="387.5" y="-252.5" font-family="Helvetica,sans-Serif" font-size="10.00">_hw_addr)</text>
</a>
</g>
</g>
<!-- Node8&#45;&gt;Node3 -->
<g id="edge7" class="edge">
<title>Node8&#45;&gt;Node3</title>
<path fill="none" stroke="#9a32cd" stroke-dasharray="5,2" d="M462.64,-277C506.78,-277 562.63,-277 606.93,-277"/>
<polygon fill="#9a32cd" stroke="#9a32cd" points="462.55,-273.5 452.55,-277 462.55,-280.5 462.55,-273.5"/>
<text text-anchor="middle" x="539" y="-280" font-family="Helvetica,sans-Serif" font-size="10.00"> p_getHwAddr</text>
</g>
<!-- Node9 -->
<g id="node9" class="node">
<title>Node9</title>
<g id="a_node9"><a xlink:href="structst__osal__memory__manager__obj.html" target="_top" xlink:title="memory manager object.">
<polygon fill="white" stroke="black" points="304,-207.5 304,-226.5 471,-226.5 471,-207.5 304,-207.5"/>
<text text-anchor="middle" x="387.5" y="-214.5" font-family="Helvetica,sans-Serif" font-size="10.00">st_osal_memory_manager_obj</text>
</a>
</g>
</g>
<!-- Node9&#45;&gt;Node3 -->
<g id="edge8" class="edge">
<title>Node9&#45;&gt;Node3</title>
<path fill="none" stroke="#9a32cd" stroke-dasharray="5,2" d="M444.99,-228.55C500.29,-239.85 583.53,-256.87 635.23,-267.44"/>
<polygon fill="#9a32cd" stroke="#9a32cd" points="445.5,-225.08 435.01,-226.51 444.1,-231.94 445.5,-225.08"/>
<text text-anchor="middle" x="539" y="-260" font-family="Helvetica,sans-Serif" font-size="10.00"> mmngr_owner_hndl</text>
</g>
<!-- Node10 -->
<g id="node10" class="node">
<title>Node10</title>
<g id="a_node10"><a xlink:title=" ">
<polygon fill="white" stroke="#bfbfbf" points="17,-455 17,-507 161,-507 161,-455 17,-455"/>
<text text-anchor="start" x="25" y="-495" font-family="Helvetica,sans-Serif" font-size="10.00">e_osal_return_t(*)</text>
<text text-anchor="start" x="25" y="-484" font-family="Helvetica,sans-Serif" font-size="10.00">(void *p_ptr_self, osal</text>
<text text-anchor="start" x="25" y="-473" font-family="Helvetica,sans-Serif" font-size="10.00">_memory_buffer_handle_t</text>
<text text-anchor="middle" x="89" y="-462" font-family="Helvetica,sans-Serif" font-size="10.00"> buffer_obj)</text>
</a>
</g>
</g>
<!-- Node10&#45;&gt;Node9 -->
<g id="edge9" class="edge">
<title>Node10&#45;&gt;Node9</title>
<path fill="none" stroke="#9a32cd" stroke-dasharray="5,2" d="M171.06,-460.94C212.6,-446.24 259.82,-421.72 286,-382 321.98,-327.41 260.23,-284.56 304,-236 307.35,-232.29 311.26,-229.23 315.53,-226.71"/>
<polygon fill="#9a32cd" stroke="#9a32cd" points="169.82,-457.67 161.47,-464.2 172.07,-464.29 169.82,-457.67"/>
<text text-anchor="middle" x="241" y="-452" font-family="Helvetica,sans-Serif" font-size="10.00"> p_deallocate</text>
</g>
<!-- Node11 -->
<g id="node11" class="node">
<title>Node11</title>
<g id="a_node11"><a xlink:title=" ">
<polygon fill="white" stroke="#bfbfbf" points="10,-372.5 10,-435.5 168,-435.5 168,-372.5 10,-372.5"/>
<text text-anchor="start" x="18" y="-423.5" font-family="Helvetica,sans-Serif" font-size="10.00">e_osal_return_t(*)</text>
<text text-anchor="start" x="18" y="-412.5" font-family="Helvetica,sans-Serif" font-size="10.00">(void *p_ptr_self, size</text>
<text text-anchor="start" x="18" y="-401.5" font-family="Helvetica,sans-Serif" font-size="10.00">_t bytes, size_t alignment,</text>
<text text-anchor="start" x="18" y="-390.5" font-family="Helvetica,sans-Serif" font-size="10.00"> osal_memory_buffer_handle</text>
<text text-anchor="middle" x="89" y="-379.5" font-family="Helvetica,sans-Serif" font-size="10.00">_t *const p_buffer_obj)</text>
</a>
</g>
</g>
<!-- Node11&#45;&gt;Node9 -->
<g id="edge10" class="edge">
<title>Node11&#45;&gt;Node9</title>
<path fill="none" stroke="#9a32cd" stroke-dasharray="5,2" d="M177.97,-376.09C216.42,-359.68 258.84,-335.11 286,-300 304.08,-276.63 282.61,-256.39 304,-236 307.94,-232.25 312.46,-229.18 317.31,-226.69"/>
<polygon fill="#9a32cd" stroke="#9a32cd" points="176.21,-373.04 168.3,-380.09 178.88,-379.51 176.21,-373.04"/>
<text text-anchor="middle" x="241" y="-370" font-family="Helvetica,sans-Serif" font-size="10.00"> p_allocate</text>
</g>
<!-- Node12 -->
<g id="node12" class="node">
<title>Node12</title>
<g id="a_node12"><a xlink:title=" ">
<polygon fill="white" stroke="#bfbfbf" points="20,-301 20,-353 158,-353 158,-301 20,-301"/>
<text text-anchor="start" x="28" y="-341" font-family="Helvetica,sans-Serif" font-size="10.00">e_osal_return_t(*)</text>
<text text-anchor="start" x="28" y="-330" font-family="Helvetica,sans-Serif" font-size="10.00">(const void *p_ptr_self,</text>
<text text-anchor="start" x="28" y="-319" font-family="Helvetica,sans-Serif" font-size="10.00"> st_osal_mmngr_config_t</text>
<text text-anchor="middle" x="89" y="-308" font-family="Helvetica,sans-Serif" font-size="10.00"> *const p_config)</text>
</a>
</g>
</g>
<!-- Node12&#45;&gt;Node9 -->
<g id="edge11" class="edge">
<title>Node12&#45;&gt;Node9</title>
<path fill="none" stroke="#9a32cd" stroke-dasharray="5,2" d="M165.29,-297.06C169.59,-295.35 173.85,-293.65 178,-292 226,-272.9 240.71,-273.87 286,-249 294.65,-244.25 295.01,-240.08 304,-236 312.43,-232.17 321.71,-229.08 330.91,-226.59"/>
<polygon fill="#9a32cd" stroke="#9a32cd" points="163.83,-293.87 155.83,-300.82 166.42,-300.37 163.83,-293.87"/>
<text text-anchor="middle" x="241" y="-288" font-family="Helvetica,sans-Serif" font-size="10.00"> p_getConfig</text>
</g>
<!-- Node13 -->
<g id="node13" class="node">
<title>Node13</title>
<g id="a_node13"><a xlink:title=" ">
<polygon fill="white" stroke="#bfbfbf" points="0,-208 0,-282 178,-282 178,-208 0,-208"/>
<text text-anchor="start" x="8" y="-270" font-family="Helvetica,sans-Serif" font-size="10.00">e_osal_return_t(*)</text>
<text text-anchor="start" x="8" y="-259" font-family="Helvetica,sans-Serif" font-size="10.00">(void *p_ptr_self, e</text>
<text text-anchor="start" x="8" y="-248" font-family="Helvetica,sans-Serif" font-size="10.00">_osal_mmngr_event_t monitored</text>
<text text-anchor="start" x="8" y="-237" font-family="Helvetica,sans-Serif" font-size="10.00">_event, fp_osal_memory_mngr</text>
<text text-anchor="start" x="8" y="-226" font-family="Helvetica,sans-Serif" font-size="10.00">_cb_t monitor_handler, void</text>
<text text-anchor="middle" x="89" y="-215" font-family="Helvetica,sans-Serif" font-size="10.00"> *p_monitor_handler_user_arg)</text>
</a>
</g>
</g>
<!-- Node13&#45;&gt;Node9 -->
<g id="edge12" class="edge">
<title>Node13&#45;&gt;Node9</title>
<path fill="none" stroke="#9a32cd" stroke-dasharray="5,2" d="M188.56,-235.69C225.9,-232.17 268.01,-228.19 303.76,-224.81"/>
<polygon fill="#9a32cd" stroke="#9a32cd" points="187.78,-232.25 178.16,-236.67 188.44,-239.22 187.78,-232.25"/>
<text text-anchor="middle" x="241" y="-237" font-family="Helvetica,sans-Serif" font-size="10.00"> p_registerMonitor</text>
</g>
<!-- Node14 -->
<g id="node14" class="node">
<title>Node14</title>
<g id="a_node14"><a xlink:title=" ">
<polygon fill="white" stroke="#bfbfbf" points="24,-147.5 24,-188.5 154,-188.5 154,-147.5 24,-147.5"/>
<text text-anchor="start" x="32" y="-176.5" font-family="Helvetica,sans-Serif" font-size="10.00">e_osal_return_t(*)</text>
<text text-anchor="start" x="32" y="-165.5" font-family="Helvetica,sans-Serif" font-size="10.00">(const void *p_ptr_self,</text>
<text text-anchor="middle" x="89" y="-154.5" font-family="Helvetica,sans-Serif" font-size="10.00"> FILE *p_output)</text>
</a>
</g>
</g>
<!-- Node14&#45;&gt;Node3 -->
<g id="edge15" class="edge">
<title>Node14&#45;&gt;Node3</title>
<path fill="none" stroke="#9a32cd" stroke-dasharray="5,2" d="M164.26,-168.81C258.21,-170.35 414.57,-174.71 471,-187 526.16,-199.01 544.17,-199.69 589,-234 599.59,-242.1 595.9,-250.61 607,-258 612.81,-261.87 619.36,-264.96 626.1,-267.41"/>
<polygon fill="#9a32cd" stroke="#9a32cd" points="164.3,-165.32 154.25,-168.66 164.19,-172.31 164.3,-165.32"/>
<text text-anchor="middle" x="387.5" y="-190" font-family="Helvetica,sans-Serif" font-size="10.00"> p_print</text>
</g>
<!-- Node14&#45;&gt;Node9 -->
<g id="edge13" class="edge">
<title>Node14&#45;&gt;Node9</title>
<path fill="none" stroke="#9a32cd" stroke-dasharray="5,2" d="M164.22,-183.19C174.87,-185.23 185.7,-187.22 196,-189 235.53,-195.82 279.86,-202.39 315.8,-207.46"/>
<polygon fill="#9a32cd" stroke="#9a32cd" points="164.57,-179.69 154.09,-181.23 163.24,-186.56 164.57,-179.69"/>
<text text-anchor="middle" x="241" y="-205" font-family="Helvetica,sans-Serif" font-size="10.00"> p_print</text>
</g>
<!-- Node15 -->
<g id="node15" class="node">
<title>Node15</title>
<g id="a_node15"><a xlink:title=" ">
<polygon fill="white" stroke="#bfbfbf" points="66,-109.5 66,-128.5 112,-128.5 112,-109.5 66,-109.5"/>
<text text-anchor="middle" x="89" y="-116.5" font-family="Helvetica,sans-Serif" font-size="10.00">void *</text>
</a>
</g>
</g>
<!-- Node15&#45;&gt;Node3 -->
<g id="edge16" class="edge">
<title>Node15&#45;&gt;Node3</title>
<path fill="none" stroke="#9a32cd" stroke-dasharray="5,2" d="M122.1,-111.72C210.6,-93.75 460.01,-57.52 589,-186 612.37,-209.28 583.71,-234.64 607,-258 610.79,-261.81 615.23,-264.89 620.02,-267.37"/>
<polygon fill="#9a32cd" stroke="#9a32cd" points="121.2,-108.34 112.13,-113.81 122.63,-115.19 121.2,-108.34"/>
<text text-anchor="middle" x="387.5" y="-119" font-family="Helvetica,sans-Serif" font-size="10.00"> p_ptr_self</text>
</g>
<!-- Node15&#45;&gt;Node9 -->
<g id="edge14" class="edge">
<title>Node15&#45;&gt;Node9</title>
<path fill="none" stroke="#9a32cd" stroke-dasharray="5,2" d="M122.08,-125.05C138.85,-128.43 159.65,-132.98 178,-138 226.8,-151.36 243.32,-146.82 286,-174 295.81,-180.25 294.07,-186.94 304,-193 314.19,-199.21 326.06,-203.89 337.58,-207.38"/>
<polygon fill="#9a32cd" stroke="#9a32cd" points="122.71,-121.61 112.22,-123.1 121.35,-128.47 122.71,-121.61"/>
<text text-anchor="middle" x="241" y="-177" font-family="Helvetica,sans-Serif" font-size="10.00"> p_ptr_self</text>
</g>
<!-- Node16 -->
<g id="node16" class="node">
<title>Node16</title>
<g id="a_node16"><a xlink:title=" ">
<polygon fill="white" stroke="#bfbfbf" points="322,-52 322,-82 453,-82 453,-52 322,-52"/>
<text text-anchor="start" x="330" y="-70" font-family="Helvetica,sans-Serif" font-size="10.00">e_osal_return_t(*)</text>
<text text-anchor="middle" x="387.5" y="-59" font-family="Helvetica,sans-Serif" font-size="10.00">(const void *p_ptr_self)</text>
</a>
</g>
</g>
<!-- Node16&#45;&gt;Node3 -->
<g id="edge17" class="edge">
<title>Node16&#45;&gt;Node3</title>
<path fill="none" stroke="#9a32cd" stroke-dasharray="5,2" d="M463.15,-56.44C505.85,-54.86 557.09,-61.3 589,-94 640.21,-146.48 558.87,-202.68 607,-258 610.26,-261.75 614.15,-264.81 618.41,-267.31"/>
<polygon fill="#9a32cd" stroke="#9a32cd" points="462.87,-52.95 453.07,-56.96 463.23,-59.94 462.87,-52.95"/>
<text text-anchor="middle" x="539" y="-97" font-family="Helvetica,sans-Serif" font-size="10.00"> p_checkBuffer</text>
</g>
<!-- Node17 -->
<g id="node17" class="node">
<title>Node17</title>
<g id="a_node17"><a xlink:title=" ">
<polygon fill="white" stroke="#bfbfbf" points="658,-229.5 658,-248.5 708,-248.5 708,-229.5 658,-229.5"/>
<text text-anchor="middle" x="683" y="-236.5" font-family="Helvetica,sans-Serif" font-size="10.00">int64_t</text>
</a>
</g>
</g>
<!-- Node17&#45;&gt;Node1 -->
<g id="edge18" class="edge">
<title>Node17&#45;&gt;Node1</title>
<path fill="none" stroke="#9a32cd" stroke-dasharray="5,2" d="M718.29,-233.58C751.94,-227.88 804.53,-217.94 849,-205 872.46,-198.17 898.49,-187.98 916.4,-180.53"/>
<polygon fill="#9a32cd" stroke="#9a32cd" points="717.36,-230.19 708.06,-235.28 718.5,-237.09 717.36,-230.19"/>
<text text-anchor="middle" x="813" y="-225" font-family="Helvetica,sans-Serif" font-size="10.00"> inner_timeout</text>
</g>
<!-- Node18 -->
<g id="node18" class="node">
<title>Node18</title>
<g id="a_node18"><a xlink:title=" ">
<polygon fill="white" stroke="#bfbfbf" points="640,-191.5 640,-210.5 726,-210.5 726,-191.5 640,-191.5"/>
<text text-anchor="middle" x="683" y="-198.5" font-family="Helvetica,sans-Serif" font-size="10.00">base_mutex_t</text>
</a>
</g>
</g>
<!-- Node18&#45;&gt;Node1 -->
<g id="edge19" class="edge">
<title>Node18&#45;&gt;Node1</title>
<path fill="none" stroke="#9a32cd" stroke-dasharray="5,2" d="M736.25,-195.63C768.72,-192.21 811.31,-187.58 849,-183 855.38,-182.22 862.01,-181.39 868.65,-180.53"/>
<polygon fill="#9a32cd" stroke="#9a32cd" points="735.66,-192.17 726.08,-196.7 736.39,-199.14 735.66,-192.17"/>
<text text-anchor="middle" x="813" y="-193" font-family="Helvetica,sans-Serif" font-size="10.00"> inner_mtx</text>
</g>
<!-- Node19 -->
<g id="node19" class="node">
<title>Node19</title>
<g id="a_node19"><a xlink:title=" ">
<polygon fill="white" stroke="#bfbfbf" points="660.5,-128.5 660.5,-147.5 705.5,-147.5 705.5,-128.5 660.5,-128.5"/>
<text text-anchor="middle" x="683" y="-135.5" font-family="Helvetica,sans-Serif" font-size="10.00">size_t</text>
</a>
</g>
</g>
<!-- Node19&#45;&gt;Node1 -->
<g id="edge20" class="edge">
<title>Node19&#45;&gt;Node1</title>
<path fill="none" stroke="#9a32cd" stroke-dasharray="5,2" d="M715.71,-133.55C749.18,-129.74 803.31,-126.16 849,-135 874.98,-140.03 902.98,-152.56 920.62,-161.42"/>
<polygon fill="#9a32cd" stroke="#9a32cd" points="715.11,-130.09 705.61,-134.77 715.95,-137.04 715.11,-130.09"/>
<text text-anchor="middle" x="813" y="-171" font-family="Helvetica,sans-Serif" font-size="10.00"> buffer_id</text>
<text text-anchor="middle" x="813" y="-160" font-family="Helvetica,sans-Serif" font-size="10.00">chunk_size</text>
<text text-anchor="middle" x="813" y="-149" font-family="Helvetica,sans-Serif" font-size="10.00">lib_mngt_size</text>
<text text-anchor="middle" x="813" y="-138" font-family="Helvetica,sans-Serif" font-size="10.00">size</text>
</g>
<!-- Node20 -->
<g id="node20" class="node">
<title>Node20</title>
<g id="a_node20"><a xlink:title=" ">
<polygon fill="white" stroke="#bfbfbf" points="658,-83.5 658,-102.5 708,-102.5 708,-83.5 658,-83.5"/>
<text text-anchor="middle" x="683" y="-90.5" font-family="Helvetica,sans-Serif" font-size="10.00">uint8_t</text>
</a>
</g>
</g>
<!-- Node20&#45;&gt;Node1 -->
<g id="edge21" class="edge">
<title>Node20&#45;&gt;Node1</title>
<path fill="none" stroke="#9a32cd" stroke-dasharray="5,2" d="M718.52,-89.4C752.75,-87.12 806.15,-87.11 849,-103 883.03,-115.62 914.86,-145.8 929.72,-161.36"/>
<polygon fill="#9a32cd" stroke="#9a32cd" points="717.82,-85.94 708.11,-90.2 718.35,-92.92 717.82,-85.94"/>
<text text-anchor="middle" x="813" y="-117" font-family="Helvetica,sans-Serif" font-size="10.00"> p_buffer_va</text>
<text text-anchor="middle" x="813" y="-106" font-family="Helvetica,sans-Serif" font-size="10.00">p_chunk_va</text>
</g>
<!-- Node21 -->
<g id="node21" class="node">
<title>Node21</title>
<g id="a_node21"><a xlink:title=" ">
<polygon fill="white" stroke="#bfbfbf" points="654,-38.5 654,-57.5 712,-57.5 712,-38.5 654,-38.5"/>
<text text-anchor="middle" x="683" y="-45.5" font-family="Helvetica,sans-Serif" font-size="10.00">uintptr_t</text>
</a>
</g>
</g>
<!-- Node21&#45;&gt;Node1 -->
<g id="edge22" class="edge">
<title>Node21&#45;&gt;Node1</title>
<path fill="none" stroke="#9a32cd" stroke-dasharray="5,2" d="M722.38,-43.46C757.41,-41.11 809.56,-42.23 849,-63 892.31,-85.81 922.78,-139.38 933.88,-161.35"/>
<polygon fill="#9a32cd" stroke="#9a32cd" points="721.79,-40 712.1,-44.28 722.35,-46.97 721.79,-40"/>
<text text-anchor="middle" x="813" y="-77" font-family="Helvetica,sans-Serif" font-size="10.00"> buffer_pa</text>
<text text-anchor="middle" x="813" y="-66" font-family="Helvetica,sans-Serif" font-size="10.00">chunk_pa</text>
</g>
<!-- Node22 -->
<g id="node22" class="node">
<title>Node22</title>
<g id="a_node22"><a xlink:title=" ">
<polygon fill="white" stroke="#bfbfbf" points="625,-0.5 625,-19.5 741,-19.5 741,-0.5 625,-0.5"/>
<text text-anchor="middle" x="683" y="-7.5" font-family="Helvetica,sans-Serif" font-size="10.00">SemaphoreHandle_t</text>
</a>
</g>
</g>
<!-- Node22&#45;&gt;Node1 -->
<g id="edge23" class="edge">
<title>Node22&#45;&gt;Node1</title>
<path fill="none" stroke="#9a32cd" stroke-dasharray="5,2" d="M751.24,-4.82C783.05,-5.45 820.26,-10.92 849,-29 900.31,-61.28 927.32,-134.85 935.65,-161.3"/>
<polygon fill="#9a32cd" stroke="#9a32cd" points="751.13,-1.32 741.12,-4.78 751.1,-8.32 751.13,-1.32"/>
<text text-anchor="middle" x="813" y="-32" font-family="Helvetica,sans-Serif" font-size="10.00"> inner_mtx</text>
</g>
</g>
</svg>
