<?xml version="1.0" encoding="UTF-8" standalone="no"?>
<!DOCTYPE svg PUBLIC "-//W3C//DTD SVG 1.1//EN"
 "http://www.w3.org/Graphics/SVG/1.1/DTD/svg11.dtd">
<!-- Generated by graphviz version 2.43.0 (0)
 -->
<!-- Title: taurus_ether_get_version_info_out Pages: 1 -->
<svg width="269pt" height="139pt"
 viewBox="0.00 0.00 269.00 139.00" xmlns="http://www.w3.org/2000/svg" xmlns:xlink="http://www.w3.org/1999/xlink">
<g id="graph0" class="graph" transform="scale(1 1) rotate(0) translate(4 135)">
<title>taurus_ether_get_version_info_out</title>
<polygon fill="white" stroke="transparent" points="-4,4 -4,-135 265,-135 265,4 -4,4"/>
<!-- Node1 -->
<g id="node1" class="node">
<title>Node1</title>
<g id="a_node1"><a xlink:title=" ">
<polygon fill="#bfbfbf" stroke="black" points="32,-0.5 32,-30.5 172,-30.5 172,-0.5 32,-0.5"/>
<text text-anchor="start" x="40" y="-18.5" font-family="Helvetica,sans-Serif" font-size="10.00">taurus_ether_get_version</text>
<text text-anchor="middle" x="102" y="-7.5" font-family="Helvetica,sans-Serif" font-size="10.00">_info_out</text>
</a>
</g>
</g>
<!-- Node2 -->
<g id="node2" class="node">
<title>Node2</title>
<g id="a_node2"><a xlink:title=" ">
<polygon fill="white" stroke="#bfbfbf" points="0,-111.5 0,-130.5 56,-130.5 56,-111.5 0,-111.5"/>
<text text-anchor="middle" x="28" y="-118.5" font-family="Helvetica,sans-Serif" font-size="10.00">uint64_t</text>
</a>
</g>
</g>
<!-- Node2&#45;&gt;Node1 -->
<g id="edge1" class="edge">
<title>Node2&#45;&gt;Node1</title>
<path fill="none" stroke="#9a32cd" stroke-dasharray="5,2" d="M34.17,-101.74C39.86,-86.61 49.34,-65.06 62,-49 67.32,-42.25 74.27,-36 80.89,-30.81"/>
<polygon fill="#9a32cd" stroke="#9a32cd" points="30.77,-100.86 30.71,-111.46 37.36,-103.21 30.77,-100.86"/>
<text text-anchor="middle" x="80" y="-74" font-family="Helvetica,sans-Serif" font-size="10.00"> cookie</text>
<text text-anchor="middle" x="80" y="-63" font-family="Helvetica,sans-Serif" font-size="10.00">res</text>
</g>
<!-- Node3 -->
<g id="node3" class="node">
<title>Node3</title>
<g id="a_node3"><a xlink:title=" ">
<polygon fill="white" stroke="#bfbfbf" points="74,-111.5 74,-130.5 130,-130.5 130,-111.5 74,-111.5"/>
<text text-anchor="middle" x="102" y="-118.5" font-family="Helvetica,sans-Serif" font-size="10.00">uint16_t</text>
</a>
</g>
</g>
<!-- Node3&#45;&gt;Node1 -->
<g id="edge2" class="edge">
<title>Node3&#45;&gt;Node1</title>
<path fill="none" stroke="#9a32cd" stroke-dasharray="5,2" d="M102,-101C102,-80.74 102,-49.11 102,-30.84"/>
<polygon fill="#9a32cd" stroke="#9a32cd" points="98.5,-101.18 102,-111.18 105.5,-101.18 98.5,-101.18"/>
<text text-anchor="middle" x="127.5" y="-74" font-family="Helvetica,sans-Serif" font-size="10.00"> moduleID</text>
<text text-anchor="middle" x="127.5" y="-63" font-family="Helvetica,sans-Serif" font-size="10.00">vendorID</text>
</g>
<!-- Node4 -->
<g id="node4" class="node">
<title>Node4</title>
<g id="a_node4"><a xlink:title=" ">
<polygon fill="white" stroke="#bfbfbf" points="151,-111.5 151,-130.5 201,-130.5 201,-111.5 151,-111.5"/>
<text text-anchor="middle" x="176" y="-118.5" font-family="Helvetica,sans-Serif" font-size="10.00">uint8_t</text>
</a>
</g>
</g>
<!-- Node4&#45;&gt;Node1 -->
<g id="edge3" class="edge">
<title>Node4&#45;&gt;Node1</title>
<path fill="none" stroke="#9a32cd" stroke-dasharray="5,2" d="M173.79,-100.9C171.2,-85.56 165.67,-64.15 154,-49 148.28,-41.58 140.35,-35.42 132.4,-30.53"/>
<polygon fill="#9a32cd" stroke="#9a32cd" points="170.39,-101.83 175.25,-111.24 177.32,-100.85 170.39,-101.83"/>
<text text-anchor="middle" x="216.5" y="-85" font-family="Helvetica,sans-Serif" font-size="10.00"> instanceID</text>
<text text-anchor="middle" x="216.5" y="-74" font-family="Helvetica,sans-Serif" font-size="10.00">sw_major_version</text>
<text text-anchor="middle" x="216.5" y="-63" font-family="Helvetica,sans-Serif" font-size="10.00">sw_minor_version</text>
<text text-anchor="middle" x="216.5" y="-52" font-family="Helvetica,sans-Serif" font-size="10.00">sw_patch_version</text>
</g>
</g>
</svg>
