<?xml version="1.0" encoding="UTF-8" standalone="no"?>
<!DOCTYPE svg PUBLIC "-//W3C//DTD SVG 1.1//EN"
 "http://www.w3.org/Graphics/SVG/1.1/DTD/svg11.dtd">
<!-- Generated by graphviz version 2.43.0 (0)
 -->
<!-- Title: taurus_ether_tx_confirmation_out Pages: 1 -->
<svg width="189pt" height="106pt"
 viewBox="0.00 0.00 189.00 106.00" xmlns="http://www.w3.org/2000/svg" xmlns:xlink="http://www.w3.org/1999/xlink">
<g id="graph0" class="graph" transform="scale(1 1) rotate(0) translate(4 102)">
<title>taurus_ether_tx_confirmation_out</title>
<polygon fill="white" stroke="transparent" points="-4,4 -4,-102 185,-102 185,4 -4,4"/>
<!-- Node1 -->
<g id="node1" class="node">
<title>Node1</title>
<g id="a_node1"><a xlink:title=" ">
<polygon fill="#bfbfbf" stroke="black" points="0,-0.5 0,-19.5 181,-19.5 181,-0.5 0,-0.5"/>
<text text-anchor="middle" x="90.5" y="-7.5" font-family="Helvetica,sans-Serif" font-size="10.00">taurus_ether_tx_confirmation_out</text>
</a>
</g>
</g>
<!-- Node2 -->
<g id="node2" class="node">
<title>Node2</title>
<g id="a_node2"><a xlink:title=" ">
<polygon fill="white" stroke="#bfbfbf" points="30.5,-78.5 30.5,-97.5 86.5,-97.5 86.5,-78.5 30.5,-78.5"/>
<text text-anchor="middle" x="58.5" y="-85.5" font-family="Helvetica,sans-Serif" font-size="10.00">uint64_t</text>
</a>
</g>
</g>
<!-- Node2&#45;&gt;Node1 -->
<g id="edge1" class="edge">
<title>Node2&#45;&gt;Node1</title>
<path fill="none" stroke="#9a32cd" stroke-dasharray="5,2" d="M58.58,-67.96C59.27,-58.55 61.09,-47.27 65.5,-38 68.85,-30.96 74.69,-24.5 79.88,-19.66"/>
<polygon fill="#9a32cd" stroke="#9a32cd" points="55.08,-68.11 58.21,-78.23 62.07,-68.36 55.08,-68.11"/>
<text text-anchor="middle" x="83.5" y="-52" font-family="Helvetica,sans-Serif" font-size="10.00"> cookie</text>
<text text-anchor="middle" x="83.5" y="-41" font-family="Helvetica,sans-Serif" font-size="10.00">res</text>
</g>
<!-- Node3 -->
<g id="node3" class="node">
<title>Node3</title>
<g id="a_node3"><a xlink:title=" ">
<polygon fill="white" stroke="#bfbfbf" points="104.5,-78.5 104.5,-97.5 142.5,-97.5 142.5,-78.5 104.5,-78.5"/>
<text text-anchor="middle" x="123.5" y="-85.5" font-family="Helvetica,sans-Serif" font-size="10.00">char</text>
</a>
</g>
</g>
<!-- Node3&#45;&gt;Node1 -->
<g id="edge2" class="edge">
<title>Node3&#45;&gt;Node1</title>
<path fill="none" stroke="#9a32cd" stroke-dasharray="5,2" d="M115.54,-68.67C108.79,-53.11 99.39,-31.47 94.24,-19.62"/>
<polygon fill="#9a32cd" stroke="#9a32cd" points="112.52,-70.5 119.71,-78.28 118.94,-67.72 112.52,-70.5"/>
<text text-anchor="middle" x="143.5" y="-46.5" font-family="Helvetica,sans-Serif" font-size="10.00"> TxConfirmed</text>
</g>
</g>
</svg>
