<?xml version="1.0" encoding="UTF-8" standalone="no"?>
<!DOCTYPE svg PUBLIC "-//W3C//DTD SVG 1.1//EN"
 "http://www.w3.org/Graphics/SVG/1.1/DTD/svg11.dtd">
<!-- Generated by graphviz version 2.43.0 (0)
 -->
<!-- Title: STag_Eth_TxConfigType Pages: 1 -->
<svg width="421pt" height="128pt"
 viewBox="0.00 0.00 421.00 128.00" xmlns="http://www.w3.org/2000/svg" xmlns:xlink="http://www.w3.org/1999/xlink">
<g id="graph0" class="graph" transform="scale(1 1) rotate(0) translate(4 124)">
<title>STag_Eth_TxConfigType</title>
<polygon fill="white" stroke="transparent" points="-4,4 -4,-124 417,-124 417,4 -4,4"/>
<!-- Node1 -->
<g id="node1" class="node">
<title>Node1</title>
<g id="a_node1"><a xlink:title=" ">
<polygon fill="#bfbfbf" stroke="black" points="129,-0.5 129,-19.5 260,-19.5 260,-0.5 129,-0.5"/>
<text text-anchor="middle" x="194.5" y="-7.5" font-family="Helvetica,sans-Serif" font-size="10.00">STag_Eth_TxConfigType</text>
</a>
</g>
</g>
<!-- Node2 -->
<g id="node2" class="node">
<title>Node2</title>
<g id="a_node2"><a xlink:title=" ">
<polygon fill="white" stroke="#bfbfbf" points="0,-100.5 0,-119.5 157,-119.5 157,-100.5 0,-100.5"/>
<text text-anchor="middle" x="78.5" y="-107.5" font-family="Helvetica,sans-Serif" font-size="10.00">enum ETag_Eth_TxQPrioType</text>
</a>
</g>
</g>
<!-- Node2&#45;&gt;Node1 -->
<g id="edge1" class="edge">
<title>Node2&#45;&gt;Node1</title>
<path fill="none" stroke="#9a32cd" stroke-dasharray="5,2" d="M96.69,-93.63C121.42,-72.74 164.81,-36.09 184.39,-19.54"/>
<polygon fill="#9a32cd" stroke="#9a32cd" points="94.17,-91.18 88.79,-100.3 98.69,-96.52 94.17,-91.18"/>
<text text-anchor="middle" x="171.5" y="-57.5" font-family="Helvetica,sans-Serif" font-size="10.00"> Tqp</text>
</g>
<!-- Node3 -->
<g id="node3" class="node">
<title>Node3</title>
<g id="a_node3"><a xlink:title=" ">
<polygon fill="white" stroke="#bfbfbf" points="175.5,-100.5 175.5,-119.5 213.5,-119.5 213.5,-100.5 175.5,-100.5"/>
<text text-anchor="middle" x="194.5" y="-107.5" font-family="Helvetica,sans-Serif" font-size="10.00">char</text>
</a>
</g>
</g>
<!-- Node3&#45;&gt;Node1 -->
<g id="edge2" class="edge">
<title>Node3&#45;&gt;Node1</title>
<path fill="none" stroke="#9a32cd" stroke-dasharray="5,2" d="M194.5,-90.22C194.5,-68.95 194.5,-35.22 194.5,-19.54"/>
<polygon fill="#9a32cd" stroke="#9a32cd" points="191,-90.3 194.5,-100.3 198,-90.3 191,-90.3"/>
<text text-anchor="middle" x="207.5" y="-57.5" font-family="Helvetica,sans-Serif" font-size="10.00"> Ecbs</text>
</g>
<!-- Node4 -->
<g id="node4" class="node">
<title>Node4</title>
<g id="a_node4"><a xlink:title=" ">
<polygon fill="white" stroke="#bfbfbf" points="232,-100.5 232,-119.5 413,-119.5 413,-100.5 232,-100.5"/>
<text text-anchor="middle" x="322.5" y="-107.5" font-family="Helvetica,sans-Serif" font-size="10.00">enum ETag_Eth_TxSyncModeType</text>
</a>
</g>
</g>
<!-- Node4&#45;&gt;Node1 -->
<g id="edge3" class="edge">
<title>Node4&#45;&gt;Node1</title>
<path fill="none" stroke="#9a32cd" stroke-dasharray="5,2" d="M303.13,-94.17C275.97,-73.38 227.46,-36.23 205.65,-19.54"/>
<polygon fill="#9a32cd" stroke="#9a32cd" points="301.07,-97 311.14,-100.3 305.33,-91.44 301.07,-97"/>
<text text-anchor="middle" x="299" y="-74" font-family="Helvetica,sans-Serif" font-size="10.00"> Tsm0</text>
<text text-anchor="middle" x="299" y="-63" font-family="Helvetica,sans-Serif" font-size="10.00">Tsm1</text>
<text text-anchor="middle" x="299" y="-52" font-family="Helvetica,sans-Serif" font-size="10.00">Tsm2</text>
<text text-anchor="middle" x="299" y="-41" font-family="Helvetica,sans-Serif" font-size="10.00">Tsm3</text>
</g>
</g>
</svg>
