<?xml version="1.0" encoding="UTF-8" standalone="no"?>
<!DOCTYPE svg PUBLIC "-//W3C//DTD SVG 1.1//EN"
 "http://www.w3.org/Graphics/SVG/1.1/DTD/svg11.dtd">
<!-- Generated by graphviz version 2.43.0 (0)
 -->
<!-- Title: r_wm_Doc_MonitorParam_t Pages: 1 -->
<svg width="540pt" height="275pt"
 viewBox="0.00 0.00 539.50 275.00" xmlns="http://www.w3.org/2000/svg" xmlns:xlink="http://www.w3.org/1999/xlink">
<g id="graph0" class="graph" transform="scale(1 1) rotate(0) translate(4 271)">
<title>r_wm_Doc_MonitorParam_t</title>
<polygon fill="white" stroke="transparent" points="-4,4 -4,-271 535.5,-271 535.5,4 -4,4"/>
<!-- Node1 -->
<g id="node1" class="node">
<title>Node1</title>
<g id="a_node1"><a xlink:title="Data Structure containing the DOC configuration.">
<polygon fill="#bfbfbf" stroke="black" points="176,-0.5 176,-19.5 326,-19.5 326,-0.5 176,-0.5"/>
<text text-anchor="middle" x="251" y="-7.5" font-family="Helvetica,sans-Serif" font-size="10.00">r_wm_Doc_MonitorParam_t</text>
</a>
</g>
</g>
<!-- Node2 -->
<g id="node2" class="node">
<title>Node2</title>
<g id="a_node2"><a xlink:title=" ">
<polygon fill="white" stroke="#bfbfbf" points="0,-79.5 0,-98.5 44,-98.5 44,-79.5 0,-79.5"/>
<text text-anchor="middle" x="22" y="-86.5" font-family="Helvetica,sans-Serif" font-size="10.00">_Bool</text>
</a>
</g>
</g>
<!-- Node2&#45;&gt;Node1 -->
<g id="edge1" class="edge">
<title>Node2&#45;&gt;Node1</title>
<path fill="none" stroke="#9a32cd" stroke-dasharray="5,2" d="M19.5,-69.18C19.21,-58.58 20.92,-45.93 29,-38 49.39,-17.97 119.78,-12.05 175.89,-10.63"/>
<polygon fill="#9a32cd" stroke="#9a32cd" points="16.02,-69.51 20.35,-79.19 22.99,-68.93 16.02,-69.51"/>
<text text-anchor="middle" x="47.5" y="-52" font-family="Helvetica,sans-Serif" font-size="10.00"> Enable</text>
<text text-anchor="middle" x="47.5" y="-41" font-family="Helvetica,sans-Serif" font-size="10.00">in_use</text>
</g>
<!-- Node3 -->
<g id="node3" class="node">
<title>Node3</title>
<g id="a_node3"><a xlink:href="structr__wm__DOC__rect.html" target="_top" xlink:title="structure describing the DOC Rectangle configuration">
<polygon fill="white" stroke="black" points="147.5,-79.5 147.5,-98.5 242.5,-98.5 242.5,-79.5 147.5,-79.5"/>
<text text-anchor="middle" x="195" y="-86.5" font-family="Helvetica,sans-Serif" font-size="10.00">r_wm_DOC_rect</text>
</a>
</g>
</g>
<!-- Node3&#45;&gt;Node1 -->
<g id="edge2" class="edge">
<title>Node3&#45;&gt;Node1</title>
<path fill="none" stroke="#9a32cd" stroke-dasharray="5,2" d="M206.57,-71.03C213.29,-61.28 221.99,-48.85 230,-38 234.51,-31.88 239.76,-25.13 243.89,-19.91"/>
<polygon fill="#9a32cd" stroke="#9a32cd" points="203.58,-69.19 200.82,-79.41 209.36,-73.15 203.58,-69.19"/>
<text text-anchor="middle" x="241" y="-46.5" font-family="Helvetica,sans-Serif" font-size="10.00"> rect</text>
</g>
<!-- Node4 -->
<g id="node4" class="node">
<title>Node4</title>
<g id="a_node4"><a xlink:title=" ">
<polygon fill="white" stroke="#bfbfbf" points="167,-169.5 167,-188.5 223,-188.5 223,-169.5 167,-169.5"/>
<text text-anchor="middle" x="195" y="-176.5" font-family="Helvetica,sans-Serif" font-size="10.00">uint32_t</text>
</a>
</g>
</g>
<!-- Node4&#45;&gt;Node1 -->
<g id="edge9" class="edge">
<title>Node4&#45;&gt;Node1</title>
<path fill="none" stroke="#9a32cd" stroke-dasharray="5,2" d="M162.59,-165.4C123.07,-148.08 64.37,-114.84 89,-78 111.24,-44.73 153.38,-27.96 189.1,-19.52"/>
<polygon fill="#9a32cd" stroke="#9a32cd" points="161.6,-168.78 172.17,-169.46 164.32,-162.33 161.6,-168.78"/>
<text text-anchor="middle" x="113.5" y="-92" font-family="Helvetica,sans-Serif" font-size="10.00"> threshold</text>
<text text-anchor="middle" x="113.5" y="-81" font-family="Helvetica,sans-Serif" font-size="10.00">vom_num</text>
</g>
<!-- Node4&#45;&gt;Node3 -->
<g id="edge3" class="edge">
<title>Node4&#45;&gt;Node3</title>
<path fill="none" stroke="#9a32cd" stroke-dasharray="5,2" d="M195,-158.98C195,-140.31 195,-112.67 195,-98.72"/>
<polygon fill="#9a32cd" stroke="#9a32cd" points="191.5,-159.24 195,-169.24 198.5,-159.24 191.5,-159.24"/>
<text text-anchor="middle" x="212" y="-137.5" font-family="Helvetica,sans-Serif" font-size="10.00"> height</text>
<text text-anchor="middle" x="212" y="-126.5" font-family="Helvetica,sans-Serif" font-size="10.00">width</text>
</g>
<!-- Node8 -->
<g id="node8" class="node">
<title>Node8</title>
<g id="a_node8"><a xlink:href="structr__wm__DOC__pos.html" target="_top" xlink:title="structure describing the DOC Position configuration">
<polygon fill="white" stroke="black" points="260.5,-79.5 260.5,-98.5 353.5,-98.5 353.5,-79.5 260.5,-79.5"/>
<text text-anchor="middle" x="307" y="-86.5" font-family="Helvetica,sans-Serif" font-size="10.00">r_wm_DOC_pos</text>
</a>
</g>
</g>
<!-- Node4&#45;&gt;Node8 -->
<g id="edge8" class="edge">
<title>Node4&#45;&gt;Node8</title>
<path fill="none" stroke="#9a32cd" stroke-dasharray="5,2" d="M215.84,-163.6C221.47,-159.6 227.52,-155.2 233,-151 256.53,-132.98 283.11,-110.53 297.13,-98.52"/>
<polygon fill="#9a32cd" stroke="#9a32cd" points="213.66,-160.85 207.48,-169.47 217.68,-166.58 213.66,-160.85"/>
<text text-anchor="middle" x="290" y="-137.5" font-family="Helvetica,sans-Serif" font-size="10.00"> pos_x</text>
<text text-anchor="middle" x="290" y="-126.5" font-family="Helvetica,sans-Serif" font-size="10.00">pos_y</text>
</g>
<!-- Node5 -->
<g id="node5" class="node">
<title>Node5</title>
<g id="a_node5"><a xlink:href="structr__wm__DOC__Color.html" target="_top" xlink:title=" ">
<polygon fill="white" stroke="black" points="413.5,-79.5 413.5,-98.5 514.5,-98.5 514.5,-79.5 413.5,-79.5"/>
<text text-anchor="middle" x="464" y="-86.5" font-family="Helvetica,sans-Serif" font-size="10.00">r_wm_DOC_Color</text>
</a>
</g>
</g>
<!-- Node5&#45;&gt;Node1 -->
<g id="edge4" class="edge">
<title>Node5&#45;&gt;Node1</title>
<path fill="none" stroke="#9a32cd" stroke-dasharray="5,2" d="M447.56,-72.57C434.56,-61.24 415.41,-46.41 396,-38 374.27,-28.58 349.31,-22.44 326.29,-18.44"/>
<polygon fill="#9a32cd" stroke="#9a32cd" points="445.39,-75.32 455.16,-79.41 450.07,-70.12 445.39,-75.32"/>
<text text-anchor="middle" x="445" y="-46.5" font-family="Helvetica,sans-Serif" font-size="10.00"> color</text>
</g>
<!-- Node6 -->
<g id="node6" class="node">
<title>Node6</title>
<g id="a_node6"><a xlink:href="structr__wm__Doc__Threshold.html" target="_top" xlink:title=" ">
<polygon fill="white" stroke="black" points="410.5,-169.5 410.5,-188.5 531.5,-188.5 531.5,-169.5 410.5,-169.5"/>
<text text-anchor="middle" x="471" y="-176.5" font-family="Helvetica,sans-Serif" font-size="10.00">r_wm_Doc_Threshold</text>
</a>
</g>
</g>
<!-- Node6&#45;&gt;Node5 -->
<g id="edge5" class="edge">
<title>Node6&#45;&gt;Node5</title>
<path fill="none" stroke="#9a32cd" stroke-dasharray="5,2" d="M469.51,-159.24C468.02,-140.57 465.81,-112.74 464.69,-98.72"/>
<polygon fill="#9a32cd" stroke="#9a32cd" points="466.02,-159.55 470.3,-169.24 473,-158.99 466.02,-159.55"/>
<text text-anchor="middle" x="482" y="-143" font-family="Helvetica,sans-Serif" font-size="10.00"> blue</text>
<text text-anchor="middle" x="482" y="-132" font-family="Helvetica,sans-Serif" font-size="10.00">green</text>
<text text-anchor="middle" x="482" y="-121" font-family="Helvetica,sans-Serif" font-size="10.00">red</text>
</g>
<!-- Node7 -->
<g id="node7" class="node">
<title>Node7</title>
<g id="a_node7"><a xlink:title=" ">
<polygon fill="white" stroke="#bfbfbf" points="373,-247.5 373,-266.5 423,-266.5 423,-247.5 373,-247.5"/>
<text text-anchor="middle" x="398" y="-254.5" font-family="Helvetica,sans-Serif" font-size="10.00">uint8_t</text>
</a>
</g>
</g>
<!-- Node7&#45;&gt;Node1 -->
<g id="edge10" class="edge">
<title>Node7&#45;&gt;Node1</title>
<path fill="none" stroke="#9a32cd" stroke-dasharray="5,2" d="M398.33,-237.06C398.07,-202.75 393.53,-129.13 362,-78 343.33,-47.73 305.42,-29.3 279.14,-19.63"/>
<polygon fill="#9a32cd" stroke="#9a32cd" points="394.83,-237.44 398.28,-247.46 401.83,-237.48 394.83,-237.44"/>
<text text-anchor="middle" x="404.5" y="-132" font-family="Helvetica,sans-Serif" font-size="10.00"> CLUT</text>
</g>
<!-- Node7&#45;&gt;Node6 -->
<g id="edge6" class="edge">
<title>Node7&#45;&gt;Node6</title>
<path fill="none" stroke="#9a32cd" stroke-dasharray="5,2" d="M413.49,-239.88C428.53,-224.22 450.79,-201.04 462.72,-188.62"/>
<polygon fill="#9a32cd" stroke="#9a32cd" points="410.78,-237.65 406.37,-247.28 415.83,-242.49 410.78,-237.65"/>
<text text-anchor="middle" x="458.5" y="-221" font-family="Helvetica,sans-Serif" font-size="10.00"> lower</text>
<text text-anchor="middle" x="458.5" y="-210" font-family="Helvetica,sans-Serif" font-size="10.00">upper</text>
</g>
<!-- Node8&#45;&gt;Node1 -->
<g id="edge7" class="edge">
<title>Node8&#45;&gt;Node1</title>
<path fill="none" stroke="#9a32cd" stroke-dasharray="5,2" d="M294.72,-71.12C283.22,-55.3 266.47,-32.27 257.41,-19.81"/>
<polygon fill="#9a32cd" stroke="#9a32cd" points="292.08,-73.44 300.79,-79.47 297.74,-69.32 292.08,-73.44"/>
<text text-anchor="middle" x="296.5" y="-46.5" font-family="Helvetica,sans-Serif" font-size="10.00"> pos</text>
</g>
</g>
</svg>
