<?xml version="1.0" encoding="UTF-8" standalone="no"?>
<!DOCTYPE svg PUBLIC "-//W3C//DTD SVG 1.1//EN"
 "http://www.w3.org/Graphics/SVG/1.1/DTD/svg11.dtd">
<!-- Generated by graphviz version 2.43.0 (0)
 -->
<!-- Title: vring_desc Pages: 1 -->
<svg width="212pt" height="106pt"
 viewBox="0.00 0.00 212.00 106.00" xmlns="http://www.w3.org/2000/svg" xmlns:xlink="http://www.w3.org/1999/xlink">
<g id="graph0" class="graph" transform="scale(1 1) rotate(0) translate(4 102)">
<title>vring_desc</title>
<polygon fill="white" stroke="transparent" points="-4,4 -4,-102 208,-102 208,4 -4,4"/>
<!-- Node1 -->
<g id="node1" class="node">
<title>Node1</title>
<g id="a_node1"><a xlink:title=" ">
<polygon fill="#bfbfbf" stroke="black" points="67.5,-0.5 67.5,-19.5 136.5,-19.5 136.5,-0.5 67.5,-0.5"/>
<text text-anchor="middle" x="102" y="-7.5" font-family="Helvetica,sans-Serif" font-size="10.00">vring_desc</text>
</a>
</g>
</g>
<!-- Node2 -->
<g id="node2" class="node">
<title>Node2</title>
<g id="a_node2"><a xlink:title=" ">
<polygon fill="white" stroke="#bfbfbf" points="0,-78.5 0,-97.5 56,-97.5 56,-78.5 0,-78.5"/>
<text text-anchor="middle" x="28" y="-85.5" font-family="Helvetica,sans-Serif" font-size="10.00">uint64_t</text>
</a>
</g>
</g>
<!-- Node2&#45;&gt;Node1 -->
<g id="edge1" class="edge">
<title>Node2&#45;&gt;Node1</title>
<path fill="none" stroke="#9a32cd" stroke-dasharray="5,2" d="M42.3,-70.8C50.99,-61.11 62.42,-48.65 73,-38 79.3,-31.65 86.68,-24.79 92.42,-19.57"/>
<polygon fill="#9a32cd" stroke="#9a32cd" points="39.49,-68.7 35.45,-78.49 44.71,-73.35 39.49,-68.7"/>
<text text-anchor="middle" x="85.5" y="-46.5" font-family="Helvetica,sans-Serif" font-size="10.00"> addr</text>
</g>
<!-- Node3 -->
<g id="node3" class="node">
<title>Node3</title>
<g id="a_node3"><a xlink:title=" ">
<polygon fill="white" stroke="#bfbfbf" points="74,-78.5 74,-97.5 130,-97.5 130,-78.5 74,-78.5"/>
<text text-anchor="middle" x="102" y="-85.5" font-family="Helvetica,sans-Serif" font-size="10.00">uint16_t</text>
</a>
</g>
</g>
<!-- Node3&#45;&gt;Node1 -->
<g id="edge2" class="edge">
<title>Node3&#45;&gt;Node1</title>
<path fill="none" stroke="#9a32cd" stroke-dasharray="5,2" d="M102,-68.22C102,-52.7 102,-31.36 102,-19.62"/>
<polygon fill="#9a32cd" stroke="#9a32cd" points="98.5,-68.28 102,-78.28 105.5,-68.28 98.5,-68.28"/>
<text text-anchor="middle" x="115.5" y="-52" font-family="Helvetica,sans-Serif" font-size="10.00"> flags</text>
<text text-anchor="middle" x="115.5" y="-41" font-family="Helvetica,sans-Serif" font-size="10.00">next</text>
</g>
<!-- Node4 -->
<g id="node4" class="node">
<title>Node4</title>
<g id="a_node4"><a xlink:title=" ">
<polygon fill="white" stroke="#bfbfbf" points="148,-78.5 148,-97.5 204,-97.5 204,-78.5 148,-78.5"/>
<text text-anchor="middle" x="176" y="-85.5" font-family="Helvetica,sans-Serif" font-size="10.00">uint32_t</text>
</a>
</g>
</g>
<!-- Node4&#45;&gt;Node1 -->
<g id="edge3" class="edge">
<title>Node4&#45;&gt;Node1</title>
<path fill="none" stroke="#9a32cd" stroke-dasharray="5,2" d="M162.57,-70.61C154.34,-60.85 143.42,-48.38 133,-38 126.53,-31.55 118.78,-24.8 112.65,-19.66"/>
<polygon fill="#9a32cd" stroke="#9a32cd" points="159.94,-72.92 169.03,-78.37 165.32,-68.44 159.94,-72.92"/>
<text text-anchor="middle" x="161.5" y="-46.5" font-family="Helvetica,sans-Serif" font-size="10.00"> len</text>
</g>
</g>
</svg>
