<?xml version="1.0" encoding="UTF-8" standalone="no"?>
<!DOCTYPE svg PUBLIC "-//W3C//DTD SVG 1.1//EN"
 "http://www.w3.org/Graphics/SVG/1.1/DTD/svg11.dtd">
<!-- Generated by graphviz version 2.43.0 (0)
 -->
<!-- Title: st_command_info Pages: 1 -->
<svg width="408pt" height="106pt"
 viewBox="0.00 0.00 407.50 106.00" xmlns="http://www.w3.org/2000/svg" xmlns:xlink="http://www.w3.org/1999/xlink">
<g id="graph0" class="graph" transform="scale(1 1) rotate(0) translate(4 102)">
<title>st_command_info</title>
<polygon fill="white" stroke="transparent" points="-4,4 -4,-102 403.5,-102 403.5,4 -4,4"/>
<!-- Node1 -->
<g id="node1" class="node">
<title>Node1</title>
<g id="a_node1"><a xlink:title=" ">
<polygon fill="#bfbfbf" stroke="black" points="98,-0.5 98,-19.5 202,-19.5 202,-0.5 98,-0.5"/>
<text text-anchor="middle" x="150" y="-7.5" font-family="Helvetica,sans-Serif" font-size="10.00">st_command_info</text>
</a>
</g>
</g>
<!-- Node2 -->
<g id="node2" class="node">
<title>Node2</title>
<g id="a_node2"><a xlink:title=" ">
<polygon fill="white" stroke="#bfbfbf" points="0,-78.5 0,-97.5 56,-97.5 56,-78.5 0,-78.5"/>
<text text-anchor="middle" x="28" y="-85.5" font-family="Helvetica,sans-Serif" font-size="10.00">uint32_t</text>
</a>
</g>
</g>
<!-- Node2&#45;&gt;Node1 -->
<g id="edge1" class="edge">
<title>Node2&#45;&gt;Node1</title>
<path fill="none" stroke="#9a32cd" stroke-dasharray="5,2" d="M50.5,-72.98C75.57,-57.36 115.31,-32.61 136.17,-19.62"/>
<polygon fill="#9a32cd" stroke="#9a32cd" points="48.63,-70.02 41.99,-78.28 52.33,-75.97 48.63,-70.02"/>
<text text-anchor="middle" x="113.5" y="-52" font-family="Helvetica,sans-Serif" font-size="10.00"> arg</text>
<text text-anchor="middle" x="113.5" y="-41" font-family="Helvetica,sans-Serif" font-size="10.00">hw</text>
</g>
<!-- Node3 -->
<g id="node3" class="node">
<title>Node3</title>
<g id="a_node3"><a xlink:title=" ">
<polygon fill="white" stroke="#bfbfbf" points="74,-78.5 74,-97.5 226,-97.5 226,-78.5 74,-78.5"/>
<text text-anchor="middle" x="150" y="-85.5" font-family="Helvetica,sans-Serif" font-size="10.00">HAL_MEMCARD_COMMAND</text>
</a>
</g>
</g>
<!-- Node3&#45;&gt;Node1 -->
<g id="edge2" class="edge">
<title>Node3&#45;&gt;Node1</title>
<path fill="none" stroke="#9a32cd" stroke-dasharray="5,2" d="M150,-68.22C150,-52.7 150,-31.36 150,-19.62"/>
<polygon fill="#9a32cd" stroke="#9a32cd" points="146.5,-68.28 150,-78.28 153.5,-68.28 146.5,-68.28"/>
<text text-anchor="middle" x="162.5" y="-46.5" font-family="Helvetica,sans-Serif" font-size="10.00"> cmd</text>
</g>
<!-- Node4 -->
<g id="node4" class="node">
<title>Node4</title>
<g id="a_node4"><a xlink:title=" ">
<polygon fill="white" stroke="#bfbfbf" points="244.5,-78.5 244.5,-97.5 399.5,-97.5 399.5,-78.5 244.5,-78.5"/>
<text text-anchor="middle" x="322" y="-85.5" font-family="Helvetica,sans-Serif" font-size="10.00">HAL_MEMCARD_OPERATION</text>
</a>
</g>
</g>
<!-- Node4&#45;&gt;Node1 -->
<g id="edge3" class="edge">
<title>Node4&#45;&gt;Node1</title>
<path fill="none" stroke="#9a32cd" stroke-dasharray="5,2" d="M293.36,-74.34C258.2,-58.81 199.56,-32.9 169.33,-19.54"/>
<polygon fill="#9a32cd" stroke="#9a32cd" points="292.04,-77.59 302.6,-78.43 294.87,-71.19 292.04,-77.59"/>
<text text-anchor="middle" x="264" y="-46.5" font-family="Helvetica,sans-Serif" font-size="10.00"> dir</text>
</g>
</g>
</svg>
