<?xml version="1.0" encoding="UTF-8" standalone="no"?>
<!DOCTYPE svg PUBLIC "-//W3C//DTD SVG 1.1//EN"
 "http://www.w3.org/Graphics/SVG/1.1/DTD/svg11.dtd">
<!-- Generated by graphviz version 2.43.0 (0)
 -->
<!-- Title: r_cio_ether_set_global_time Pages: 1 -->
<svg width="227pt" height="173pt"
 viewBox="0.00 0.00 226.50 173.00" xmlns="http://www.w3.org/2000/svg" xmlns:xlink="http://www.w3.org/1999/xlink">
<g id="graph0" class="graph" transform="scale(1 1) rotate(0) translate(4 169)">
<title>r_cio_ether_set_global_time</title>
<polygon fill="white" stroke="transparent" points="-4,4 -4,-169 222.5,-169 222.5,4 -4,4"/>
<!-- Node1 -->
<g id="node1" class="node">
<title>Node1</title>
<g id="a_node1"><a xlink:title=" ">
<polygon fill="#bfbfbf" stroke="black" points="64.5,-0.5 64.5,-19.5 218.5,-19.5 218.5,-0.5 64.5,-0.5"/>
<text text-anchor="middle" x="141.5" y="-7.5" font-family="Helvetica,sans-Serif" font-size="10.00">r_cio_ether_set_global_time</text>
</a>
</g>
</g>
<!-- Node2 -->
<g id="node2" class="node">
<title>Node2</title>
<g id="a_node2"><a xlink:href="structEth__TimeStampType.html" target="_top" xlink:title=" ">
<polygon fill="white" stroke="black" points="36.5,-67.5 36.5,-86.5 152.5,-86.5 152.5,-67.5 36.5,-67.5"/>
<text text-anchor="middle" x="94.5" y="-74.5" font-family="Helvetica,sans-Serif" font-size="10.00">Eth_TimeStampType</text>
</a>
</g>
</g>
<!-- Node2&#45;&gt;Node1 -->
<g id="edge1" class="edge">
<title>Node2&#45;&gt;Node1</title>
<path fill="none" stroke="#9a32cd" stroke-dasharray="5,2" d="M92.03,-57.41C92.02,-50.87 93.05,-43.73 96.5,-38 101.38,-29.88 109.73,-23.9 117.91,-19.66"/>
<polygon fill="#9a32cd" stroke="#9a32cd" points="88.55,-57.78 92.79,-67.49 95.53,-57.25 88.55,-57.78"/>
<text text-anchor="middle" x="132" y="-41" font-family="Helvetica,sans-Serif" font-size="10.00"> timeStampPtr</text>
</g>
<!-- Node3 -->
<g id="node3" class="node">
<title>Node3</title>
<g id="a_node3"><a xlink:title=" ">
<polygon fill="white" stroke="#bfbfbf" points="0,-145.5 0,-164.5 85,-164.5 85,-145.5 0,-145.5"/>
<text text-anchor="middle" x="42.5" y="-152.5" font-family="Helvetica,sans-Serif" font-size="10.00">unsigned long</text>
</a>
</g>
</g>
<!-- Node3&#45;&gt;Node2 -->
<g id="edge2" class="edge">
<title>Node3&#45;&gt;Node2</title>
<path fill="none" stroke="#9a32cd" stroke-dasharray="5,2" d="M45.75,-135.43C48.11,-125.71 52.06,-113.99 58.5,-105 63.87,-97.5 71.94,-91.18 79.07,-86.54"/>
<polygon fill="#9a32cd" stroke="#9a32cd" points="42.3,-134.81 43.71,-145.31 49.16,-136.23 42.3,-134.81"/>
<text text-anchor="middle" x="92" y="-119" font-family="Helvetica,sans-Serif" font-size="10.00"> nanoseconds</text>
<text text-anchor="middle" x="92" y="-108" font-family="Helvetica,sans-Serif" font-size="10.00">seconds</text>
</g>
<!-- Node4 -->
<g id="node4" class="node">
<title>Node4</title>
<g id="a_node4"><a xlink:title=" ">
<polygon fill="white" stroke="#bfbfbf" points="103,-145.5 103,-164.5 192,-164.5 192,-145.5 103,-145.5"/>
<text text-anchor="middle" x="147.5" y="-152.5" font-family="Helvetica,sans-Serif" font-size="10.00">unsigned short</text>
</a>
</g>
</g>
<!-- Node4&#45;&gt;Node2 -->
<g id="edge3" class="edge">
<title>Node4&#45;&gt;Node2</title>
<path fill="none" stroke="#9a32cd" stroke-dasharray="5,2" d="M141.55,-135.96C137.84,-126.23 132.43,-114.35 125.5,-105 120.31,-98.01 113.03,-91.55 106.83,-86.7"/>
<polygon fill="#9a32cd" stroke="#9a32cd" points="138.27,-137.18 144.92,-145.44 144.87,-134.84 138.27,-137.18"/>
<text text-anchor="middle" x="164.5" y="-113.5" font-family="Helvetica,sans-Serif" font-size="10.00"> secondsHi</text>
</g>
<!-- Node5 -->
<g id="node5" class="node">
<title>Node5</title>
<g id="a_node5"><a xlink:title=" ">
<polygon fill="white" stroke="#bfbfbf" points="170.5,-67.5 170.5,-86.5 208.5,-86.5 208.5,-67.5 170.5,-67.5"/>
<text text-anchor="middle" x="189.5" y="-74.5" font-family="Helvetica,sans-Serif" font-size="10.00">char</text>
</a>
</g>
</g>
<!-- Node5&#45;&gt;Node1 -->
<g id="edge4" class="edge">
<title>Node5&#45;&gt;Node1</title>
<path fill="none" stroke="#9a32cd" stroke-dasharray="5,2" d="M180.57,-58.57C176.87,-51.91 172.31,-44.38 167.5,-38 162.49,-31.35 155.99,-24.6 150.74,-19.51"/>
<polygon fill="#9a32cd" stroke="#9a32cd" points="177.53,-60.31 185.33,-67.48 183.71,-57.01 177.53,-60.31"/>
<text text-anchor="middle" x="192.5" y="-41" font-family="Helvetica,sans-Serif" font-size="10.00"> CtrlIdx</text>
</g>
</g>
</svg>
