<?xml version="1.0" encoding="UTF-8" standalone="no"?>
<!DOCTYPE svg PUBLIC "-//W3C//DTD SVG 1.1//EN"
 "http://www.w3.org/Graphics/SVG/1.1/DTD/svg11.dtd">
<!-- Generated by graphviz version 2.43.0 (0)
 -->
<!-- Title: r_vsp2_Dpr_Conf_t Pages: 1 -->
<svg width="155pt" height="205pt"
 viewBox="0.00 0.00 155.00 205.00" xmlns="http://www.w3.org/2000/svg" xmlns:xlink="http://www.w3.org/1999/xlink">
<g id="graph0" class="graph" transform="scale(1 1) rotate(0) translate(4 201)">
<title>r_vsp2_Dpr_Conf_t</title>
<polygon fill="white" stroke="transparent" points="-4,4 -4,-201 151,-201 151,4 -4,4"/>
<!-- Node1 -->
<g id="node1" class="node">
<title>Node1</title>
<g id="a_node1"><a xlink:title="VSP2 DPR configuration information.">
<polygon fill="#bfbfbf" stroke="black" points="3,-0.5 3,-19.5 111,-19.5 111,-0.5 3,-0.5"/>
<text text-anchor="middle" x="57" y="-7.5" font-family="Helvetica,sans-Serif" font-size="10.00">r_vsp2_Dpr_Conf_t</text>
</a>
</g>
</g>
<!-- Node2 -->
<g id="node2" class="node">
<title>Node2</title>
<g id="a_node2"><a xlink:title=" ">
<polygon fill="white" stroke="#bfbfbf" points="0,-177.5 0,-196.5 114,-196.5 114,-177.5 0,-177.5"/>
<text text-anchor="middle" x="57" y="-184.5" font-family="Helvetica,sans-Serif" font-size="10.00">r_vsp2_Dpr_Route_t</text>
</a>
</g>
</g>
<!-- Node2&#45;&gt;Node1 -->
<g id="edge1" class="edge">
<title>Node2&#45;&gt;Node1</title>
<path fill="none" stroke="#9a32cd" stroke-dasharray="5,2" d="M57,-166.95C57,-129.3 57,-46.65 57,-19.69"/>
<polygon fill="#9a32cd" stroke="#9a32cd" points="53.5,-167.08 57,-177.08 60.5,-167.08 53.5,-167.08"/>
<text text-anchor="middle" x="102" y="-151" font-family="Helvetica,sans-Serif" font-size="10.00"> Dpr_Bru_Route</text>
<text text-anchor="middle" x="102" y="-140" font-family="Helvetica,sans-Serif" font-size="10.00">Dpr_Clu_Route</text>
<text text-anchor="middle" x="102" y="-129" font-family="Helvetica,sans-Serif" font-size="10.00">Dpr_Hsi_Route</text>
<text text-anchor="middle" x="102" y="-118" font-family="Helvetica,sans-Serif" font-size="10.00">Dpr_Hst_Route</text>
<text text-anchor="middle" x="102" y="-107" font-family="Helvetica,sans-Serif" font-size="10.00">Dpr_Ilv_Brs_Route</text>
<text text-anchor="middle" x="102" y="-96" font-family="Helvetica,sans-Serif" font-size="10.00">Dpr_Lut_Route</text>
<text text-anchor="middle" x="102" y="-85" font-family="Helvetica,sans-Serif" font-size="10.00">Dpr_Rpf0_Route</text>
<text text-anchor="middle" x="102" y="-74" font-family="Helvetica,sans-Serif" font-size="10.00">Dpr_Rpf1_Route</text>
<text text-anchor="middle" x="102" y="-63" font-family="Helvetica,sans-Serif" font-size="10.00">Dpr_Rpf2_Route</text>
<text text-anchor="middle" x="102" y="-52" font-family="Helvetica,sans-Serif" font-size="10.00">Dpr_Rpf3_Route</text>
<text text-anchor="middle" x="102" y="-41" font-family="Helvetica,sans-Serif" font-size="10.00">...</text>
</g>
</g>
</svg>
