<?xml version="1.0" encoding="UTF-8" standalone="no"?>
<!DOCTYPE svg PUBLIC "-//W3C//DTD SVG 1.1//EN"
 "http://www.w3.org/Graphics/SVG/1.1/DTD/svg11.dtd">
<!-- Generated by graphviz version 2.43.0 (0)
 -->
<!-- Title: r_vsp2_BrsBlendRopUnit_t Pages: 1 -->
<svg width="328pt" height="106pt"
 viewBox="0.00 0.00 328.00 106.00" xmlns="http://www.w3.org/2000/svg" xmlns:xlink="http://www.w3.org/1999/xlink">
<g id="graph0" class="graph" transform="scale(1 1) rotate(0) translate(4 102)">
<title>r_vsp2_BrsBlendRopUnit_t</title>
<polygon fill="white" stroke="transparent" points="-4,4 -4,-102 324,-102 324,4 -4,4"/>
<!-- Node1 -->
<g id="node1" class="node">
<title>Node1</title>
<g id="a_node1"><a xlink:title=" ">
<polygon fill="#bfbfbf" stroke="black" points="77,-0.5 77,-19.5 223,-19.5 223,-0.5 77,-0.5"/>
<text text-anchor="middle" x="150" y="-7.5" font-family="Helvetica,sans-Serif" font-size="10.00">r_vsp2_BrsBlendRopUnit_t</text>
</a>
</g>
</g>
<!-- Node2 -->
<g id="node2" class="node">
<title>Node2</title>
<g id="a_node2"><a xlink:title=" ">
<polygon fill="white" stroke="#bfbfbf" points="0,-78.5 0,-97.5 104,-97.5 104,-78.5 0,-78.5"/>
<text text-anchor="middle" x="52" y="-85.5" font-family="Helvetica,sans-Serif" font-size="10.00">r_vsp2_BrsInput_t</text>
</a>
</g>
</g>
<!-- Node2&#45;&gt;Node1 -->
<g id="edge1" class="edge">
<title>Node2&#45;&gt;Node1</title>
<path fill="none" stroke="#9a32cd" stroke-dasharray="5,2" d="M55.71,-68.16C58.59,-58.02 63.57,-45.98 72,-38 81.05,-29.43 92.96,-23.56 104.74,-19.56"/>
<polygon fill="#9a32cd" stroke="#9a32cd" points="52.24,-67.61 53.34,-78.15 59.06,-69.22 52.24,-67.61"/>
<text text-anchor="middle" x="109" y="-52" font-family="Helvetica,sans-Serif" font-size="10.00"> dst_side_input</text>
<text text-anchor="middle" x="109" y="-41" font-family="Helvetica,sans-Serif" font-size="10.00">src_side_input</text>
</g>
<!-- Node3 -->
<g id="node3" class="node">
<title>Node3</title>
<g id="a_node3"><a xlink:title=" ">
<polygon fill="white" stroke="#bfbfbf" points="122,-78.5 122,-97.5 178,-97.5 178,-78.5 122,-78.5"/>
<text text-anchor="middle" x="150" y="-85.5" font-family="Helvetica,sans-Serif" font-size="10.00">uint32_t</text>
</a>
</g>
</g>
<!-- Node3&#45;&gt;Node1 -->
<g id="edge2" class="edge">
<title>Node3&#45;&gt;Node1</title>
<path fill="none" stroke="#9a32cd" stroke-dasharray="5,2" d="M150,-68.22C150,-52.7 150,-31.36 150,-19.62"/>
<polygon fill="#9a32cd" stroke="#9a32cd" points="146.5,-68.28 150,-78.28 153.5,-68.28 146.5,-68.28"/>
<text text-anchor="middle" x="188.5" y="-46.5" font-family="Helvetica,sans-Serif" font-size="10.00"> operation_type</text>
</g>
<!-- Node4 -->
<g id="node4" class="node">
<title>Node4</title>
<g id="a_node4"><a xlink:title=" ">
<polygon fill="white" stroke="#bfbfbf" points="196,-78.5 196,-97.5 312,-97.5 312,-78.5 196,-78.5"/>
<text text-anchor="middle" x="254" y="-85.5" font-family="Helvetica,sans-Serif" font-size="10.00">r_vsp2_BruDataOp_t</text>
</a>
</g>
</g>
<!-- Node4&#45;&gt;Node1 -->
<g id="edge3" class="edge">
<title>Node4&#45;&gt;Node1</title>
<path fill="none" stroke="#9a32cd" stroke-dasharray="5,2" d="M249.33,-68.77C245.84,-58.46 240.07,-46.06 231,-38 221.36,-29.43 208.92,-23.57 196.69,-19.56"/>
<polygon fill="#9a32cd" stroke="#9a32cd" points="246.01,-69.88 252.19,-78.48 252.73,-67.9 246.01,-69.88"/>
<text text-anchor="middle" x="282.5" y="-52" font-family="Helvetica,sans-Serif" font-size="10.00"> alpha_data_op</text>
<text text-anchor="middle" x="282.5" y="-41" font-family="Helvetica,sans-Serif" font-size="10.00">color_data_op</text>
</g>
</g>
</svg>
