<?xml version="1.0" encoding="UTF-8" standalone="no"?>
<!DOCTYPE svg PUBLIC "-//W3C//DTD SVG 1.1//EN"
 "http://www.w3.org/Graphics/SVG/1.1/DTD/svg11.dtd">
<!-- Generated by graphviz version 2.43.0 (0)
 -->
<!-- Title: STag_Eth_BufHandlerType Pages: 1 -->
<svg width="514pt" height="117pt"
 viewBox="0.00 0.00 513.50 117.00" xmlns="http://www.w3.org/2000/svg" xmlns:xlink="http://www.w3.org/1999/xlink">
<g id="graph0" class="graph" transform="scale(1 1) rotate(0) translate(4 113)">
<title>STag_Eth_BufHandlerType</title>
<polygon fill="white" stroke="transparent" points="-4,4 -4,-113 509.5,-113 509.5,4 -4,4"/>
<!-- Node1 -->
<g id="node1" class="node">
<title>Node1</title>
<g id="a_node1"><a xlink:title=" ">
<polygon fill="#bfbfbf" stroke="black" points="178,-0.5 178,-19.5 321,-19.5 321,-0.5 178,-0.5"/>
<text text-anchor="middle" x="249.5" y="-7.5" font-family="Helvetica,sans-Serif" font-size="10.00">STag_Eth_BufHandlerType</text>
</a>
</g>
</g>
<!-- Node2 -->
<g id="node2" class="node">
<title>Node2</title>
<g id="a_node2"><a xlink:title=" ">
<polygon fill="white" stroke="#bfbfbf" points="0,-89.5 0,-108.5 85,-108.5 85,-89.5 0,-89.5"/>
<text text-anchor="middle" x="42.5" y="-96.5" font-family="Helvetica,sans-Serif" font-size="10.00">unsigned long</text>
</a>
</g>
</g>
<!-- Node2&#45;&gt;Node1 -->
<g id="edge1" class="edge">
<title>Node2&#45;&gt;Node1</title>
<path fill="none" stroke="#9a32cd" stroke-dasharray="5,2" d="M64.81,-84.19C86.93,-70.95 122.11,-51.1 154.5,-38 173.1,-30.48 194.54,-24.19 212.34,-19.58"/>
<polygon fill="#9a32cd" stroke="#9a32cd" points="62.92,-81.25 56.18,-89.42 66.54,-87.24 62.92,-81.25"/>
<text text-anchor="middle" x="179" y="-52" font-family="Helvetica,sans-Serif" font-size="10.00"> descAddr</text>
</g>
<!-- Node3 -->
<g id="node3" class="node">
<title>Node3</title>
<g id="a_node3"><a xlink:title=" ">
<polygon fill="white" stroke="#bfbfbf" points="103.5,-89.5 103.5,-108.5 273.5,-108.5 273.5,-89.5 103.5,-89.5"/>
<text text-anchor="middle" x="188.5" y="-96.5" font-family="Helvetica,sans-Serif" font-size="10.00">enum ETag_Eth_TxChannelType</text>
</a>
</g>
</g>
<!-- Node3&#45;&gt;Node1 -->
<g id="edge2" class="edge">
<title>Node3&#45;&gt;Node1</title>
<path fill="none" stroke="#9a32cd" stroke-dasharray="5,2" d="M200.42,-80.99C213.35,-62.56 233.47,-33.87 243.45,-19.62"/>
<polygon fill="#9a32cd" stroke="#9a32cd" points="197.45,-79.14 194.57,-89.34 203.18,-83.16 197.45,-79.14"/>
<text text-anchor="middle" x="257" y="-52" font-family="Helvetica,sans-Serif" font-size="10.00"> ucChannel</text>
</g>
<!-- Node4 -->
<g id="node4" class="node">
<title>Node4</title>
<g id="a_node4"><a xlink:title=" ">
<polygon fill="white" stroke="#bfbfbf" points="291.5,-89.5 291.5,-108.5 329.5,-108.5 329.5,-89.5 291.5,-89.5"/>
<text text-anchor="middle" x="310.5" y="-96.5" font-family="Helvetica,sans-Serif" font-size="10.00">char</text>
</a>
</g>
</g>
<!-- Node4&#45;&gt;Node1 -->
<g id="edge3" class="edge">
<title>Node4&#45;&gt;Node1</title>
<path fill="none" stroke="#9a32cd" stroke-dasharray="5,2" d="M306.84,-79.56C303.63,-66.89 297.95,-50.22 288.5,-38 282.66,-30.44 274.1,-24.19 266.49,-19.61"/>
<polygon fill="#9a32cd" stroke="#9a32cd" points="303.46,-80.46 309.06,-89.45 310.29,-78.93 303.46,-80.46"/>
<text text-anchor="middle" x="337" y="-63" font-family="Helvetica,sans-Serif" font-size="10.00"> benableTS</text>
<text text-anchor="middle" x="337" y="-52" font-family="Helvetica,sans-Serif" font-size="10.00">bufTxConfirm</text>
<text text-anchor="middle" x="337" y="-41" font-family="Helvetica,sans-Serif" font-size="10.00">bufTxFlag</text>
</g>
<!-- Node5 -->
<g id="node5" class="node">
<title>Node5</title>
<g id="a_node5"><a xlink:title=" ">
<polygon fill="white" stroke="#bfbfbf" points="347.5,-89.5 347.5,-108.5 505.5,-108.5 505.5,-89.5 347.5,-89.5"/>
<text text-anchor="middle" x="426.5" y="-96.5" font-family="Helvetica,sans-Serif" font-size="10.00">enum ETag_Eth_BufLockType</text>
</a>
</g>
</g>
<!-- Node5&#45;&gt;Node1 -->
<g id="edge4" class="edge">
<title>Node5&#45;&gt;Node1</title>
<path fill="none" stroke="#9a32cd" stroke-dasharray="5,2" d="M416.2,-80.94C406.99,-67.2 392.23,-48.5 374.5,-38 358.45,-28.5 339.48,-22.32 321.23,-18.32"/>
<polygon fill="#9a32cd" stroke="#9a32cd" points="413.32,-82.95 421.65,-89.5 419.23,-79.19 413.32,-82.95"/>
<text text-anchor="middle" x="428.5" y="-52" font-family="Helvetica,sans-Serif" font-size="10.00"> bufLock</text>
</g>
</g>
</svg>
