<?xml version="1.0" encoding="UTF-8" standalone="no"?>
<!DOCTYPE svg PUBLIC "-//W3C//DTD SVG 1.1//EN"
 "http://www.w3.org/Graphics/SVG/1.1/DTD/svg11.dtd">
<!-- Generated by graphviz version 2.43.0 (0)
 -->
<!-- Title: taurus_camera_ioc_channel_init_out Pages: 1 -->
<svg width="259pt" height="217pt"
 viewBox="0.00 0.00 258.50 217.00" xmlns="http://www.w3.org/2000/svg" xmlns:xlink="http://www.w3.org/1999/xlink">
<g id="graph0" class="graph" transform="scale(1 1) rotate(0) translate(4 213)">
<title>taurus_camera_ioc_channel_init_out</title>
<polygon fill="white" stroke="transparent" points="-4,4 -4,-213 254.5,-213 254.5,4 -4,4"/>
<!-- Node1 -->
<g id="node1" class="node">
<title>Node1</title>
<g id="a_node1"><a xlink:title=" ">
<polygon fill="#bfbfbf" stroke="black" points="0,-0.5 0,-30.5 152,-30.5 152,-0.5 0,-0.5"/>
<text text-anchor="start" x="8" y="-18.5" font-family="Helvetica,sans-Serif" font-size="10.00">taurus_camera_ioc_channel</text>
<text text-anchor="middle" x="76" y="-7.5" font-family="Helvetica,sans-Serif" font-size="10.00">_init_out</text>
</a>
</g>
</g>
<!-- Node2 -->
<g id="node2" class="node">
<title>Node2</title>
<g id="a_node2"><a xlink:title=" ">
<polygon fill="white" stroke="#bfbfbf" points="19,-89.5 19,-108.5 75,-108.5 75,-89.5 19,-89.5"/>
<text text-anchor="middle" x="47" y="-96.5" font-family="Helvetica,sans-Serif" font-size="10.00">uint64_t</text>
</a>
</g>
</g>
<!-- Node2&#45;&gt;Node1 -->
<g id="edge1" class="edge">
<title>Node2&#45;&gt;Node1</title>
<path fill="none" stroke="#9a32cd" stroke-dasharray="5,2" d="M53.52,-79.66C58.81,-64.81 66.15,-44.18 70.98,-30.6"/>
<polygon fill="#9a32cd" stroke="#9a32cd" points="50.16,-78.68 50.1,-89.28 56.75,-81.03 50.16,-78.68"/>
<text text-anchor="middle" x="83" y="-63" font-family="Helvetica,sans-Serif" font-size="10.00"> cookie</text>
<text text-anchor="middle" x="83" y="-52" font-family="Helvetica,sans-Serif" font-size="10.00">res</text>
</g>
<!-- Node3 -->
<g id="node3" class="node">
<title>Node3</title>
<g id="a_node3"><a xlink:href="structtaurus__camera__channel__info.html" target="_top" xlink:title=" ">
<polygon fill="white" stroke="black" points="93.5,-89.5 93.5,-108.5 250.5,-108.5 250.5,-89.5 93.5,-89.5"/>
<text text-anchor="middle" x="172" y="-96.5" font-family="Helvetica,sans-Serif" font-size="10.00">taurus_camera_channel_info</text>
</a>
</g>
</g>
<!-- Node3&#45;&gt;Node1 -->
<g id="edge2" class="edge">
<title>Node3&#45;&gt;Node1</title>
<path fill="none" stroke="#9a32cd" stroke-dasharray="5,2" d="M153.87,-82.61C136.24,-67.64 109.7,-45.11 92.61,-30.6"/>
<polygon fill="#9a32cd" stroke="#9a32cd" points="151.84,-85.47 161.73,-89.28 156.37,-80.14 151.84,-85.47"/>
<text text-anchor="middle" x="171" y="-57.5" font-family="Helvetica,sans-Serif" font-size="10.00"> channel_info</text>
</g>
<!-- Node4 -->
<g id="node4" class="node">
<title>Node4</title>
<g id="a_node4"><a xlink:title=" ">
<polygon fill="white" stroke="#bfbfbf" points="144,-189.5 144,-208.5 200,-208.5 200,-189.5 144,-189.5"/>
<text text-anchor="middle" x="172" y="-196.5" font-family="Helvetica,sans-Serif" font-size="10.00">uint32_t</text>
</a>
</g>
</g>
<!-- Node4&#45;&gt;Node3 -->
<g id="edge3" class="edge">
<title>Node4&#45;&gt;Node3</title>
<path fill="none" stroke="#9a32cd" stroke-dasharray="5,2" d="M172,-179.22C172,-157.95 172,-124.22 172,-108.54"/>
<polygon fill="#9a32cd" stroke="#9a32cd" points="168.5,-179.3 172,-189.3 175.5,-179.3 168.5,-179.3"/>
<text text-anchor="middle" x="210.5" y="-163" font-family="Helvetica,sans-Serif" font-size="10.00"> height</text>
<text text-anchor="start" x="172" y="-152" font-family="Helvetica,sans-Serif" font-size="10.00">vacant_buf_cell</text>
<text text-anchor="middle" x="210.5" y="-141" font-family="Helvetica,sans-Serif" font-size="10.00">_cnt</text>
<text text-anchor="middle" x="210.5" y="-130" font-family="Helvetica,sans-Serif" font-size="10.00">width</text>
</g>
</g>
</svg>
