<?xml version="1.0" encoding="UTF-8" standalone="no"?>
<!DOCTYPE svg PUBLIC "-//W3C//DTD SVG 1.1//EN"
 "http://www.w3.org/Graphics/SVG/1.1/DTD/svg11.dtd">
<!-- Generated by graphviz version 2.43.0 (0)
 -->
<!-- Title: STag_Eth_AvbConfigType Pages: 1 -->
<svg width="627pt" height="460pt"
 viewBox="0.00 0.00 627.00 460.00" xmlns="http://www.w3.org/2000/svg" xmlns:xlink="http://www.w3.org/1999/xlink">
<g id="graph0" class="graph" transform="scale(1 1) rotate(0) translate(4 456)">
<title>STag_Eth_AvbConfigType</title>
<polygon fill="white" stroke="transparent" points="-4,4 -4,-456 623,-456 623,4 -4,4"/>
<!-- Node1 -->
<g id="node1" class="node">
<title>Node1</title>
<g id="a_node1"><a xlink:title=" ">
<polygon fill="#bfbfbf" stroke="black" points="482,-168.5 482,-187.5 619,-187.5 619,-168.5 482,-168.5"/>
<text text-anchor="middle" x="550.5" y="-175.5" font-family="Helvetica,sans-Serif" font-size="10.00">STag_Eth_AvbConfigType</text>
</a>
</g>
</g>
<!-- Node2 -->
<g id="node2" class="node">
<title>Node2</title>
<g id="a_node2"><a xlink:href="structSTag__Eth__TxConfigType.html" target="_top" xlink:title=" ">
<polygon fill="white" stroke="black" points="253,-348.5 253,-367.5 384,-367.5 384,-348.5 253,-348.5"/>
<text text-anchor="middle" x="318.5" y="-355.5" font-family="Helvetica,sans-Serif" font-size="10.00">STag_Eth_TxConfigType</text>
</a>
</g>
</g>
<!-- Node2&#45;&gt;Node1 -->
<g id="edge1" class="edge">
<title>Node2&#45;&gt;Node1</title>
<path fill="none" stroke="#9a32cd" stroke-dasharray="5,2" d="M339.75,-342.15C386.33,-305.69 499.96,-216.77 537.35,-187.51"/>
<polygon fill="#9a32cd" stroke="#9a32cd" points="337.58,-339.4 331.87,-348.32 341.9,-344.92 337.58,-339.4"/>
<text text-anchor="middle" x="435.5" y="-292" font-family="Helvetica,sans-Serif" font-size="10.00"> TxConfig</text>
</g>
<!-- Node3 -->
<g id="node3" class="node">
<title>Node3</title>
<g id="a_node3"><a xlink:title=" ">
<polygon fill="white" stroke="#bfbfbf" points="12,-432.5 12,-451.5 169,-451.5 169,-432.5 12,-432.5"/>
<text text-anchor="middle" x="90.5" y="-439.5" font-family="Helvetica,sans-Serif" font-size="10.00">enum ETag_Eth_TxQPrioType</text>
</a>
</g>
</g>
<!-- Node3&#45;&gt;Node2 -->
<g id="edge2" class="edge">
<title>Node3&#45;&gt;Node2</title>
<path fill="none" stroke="#9a32cd" stroke-dasharray="5,2" d="M174.47,-430.42C193.13,-426.4 212.55,-421.06 230,-414 259.43,-402.1 289.75,-380.09 305.83,-367.5"/>
<polygon fill="#9a32cd" stroke="#9a32cd" points="173.6,-427.03 164.51,-432.46 175.01,-433.88 173.6,-427.03"/>
<text text-anchor="middle" x="214.5" y="-426" font-family="Helvetica,sans-Serif" font-size="10.00"> Tqp</text>
</g>
<!-- Node4 -->
<g id="node4" class="node">
<title>Node4</title>
<g id="a_node4"><a xlink:title=" ">
<polygon fill="white" stroke="#bfbfbf" points="71.5,-170.5 71.5,-189.5 109.5,-189.5 109.5,-170.5 71.5,-170.5"/>
<text text-anchor="middle" x="90.5" y="-177.5" font-family="Helvetica,sans-Serif" font-size="10.00">char</text>
</a>
</g>
</g>
<!-- Node4&#45;&gt;Node2 -->
<g id="edge3" class="edge">
<title>Node4&#45;&gt;Node2</title>
<path fill="none" stroke="#9a32cd" stroke-dasharray="5,2" d="M101.71,-198.87C118.38,-227.99 154.12,-283.88 199,-316 220.83,-331.63 249.04,-341.93 272.46,-348.42"/>
<polygon fill="#9a32cd" stroke="#9a32cd" points="104.56,-196.79 96.63,-189.77 98.45,-200.2 104.56,-196.79"/>
<text text-anchor="middle" x="214.5" y="-335" font-family="Helvetica,sans-Serif" font-size="10.00"> Ecbs</text>
</g>
<!-- Node6 -->
<g id="node6" class="node">
<title>Node6</title>
<g id="a_node6"><a xlink:href="structSTag__Eth__ErrorIntType.html" target="_top" xlink:title=" ">
<polygon fill="white" stroke="black" points="256.5,-187.5 256.5,-206.5 380.5,-206.5 380.5,-187.5 256.5,-187.5"/>
<text text-anchor="middle" x="318.5" y="-194.5" font-family="Helvetica,sans-Serif" font-size="10.00">STag_Eth_ErrorIntType</text>
</a>
</g>
</g>
<!-- Node4&#45;&gt;Node6 -->
<g id="edge6" class="edge">
<title>Node4&#45;&gt;Node6</title>
<path fill="none" stroke="#9a32cd" stroke-dasharray="5,2" d="M119.76,-182.13C153.76,-184.68 211.82,-189.05 256.25,-192.39"/>
<polygon fill="#9a32cd" stroke="#9a32cd" points="119.85,-178.62 109.61,-181.36 119.32,-185.6 119.85,-178.62"/>
<text text-anchor="middle" x="214.5" y="-304" font-family="Helvetica,sans-Serif" font-size="10.00"> Clle0</text>
<text text-anchor="middle" x="214.5" y="-293" font-family="Helvetica,sans-Serif" font-size="10.00">Clle1</text>
<text text-anchor="middle" x="214.5" y="-282" font-family="Helvetica,sans-Serif" font-size="10.00">Cule0</text>
<text text-anchor="middle" x="214.5" y="-271" font-family="Helvetica,sans-Serif" font-size="10.00">Cule1</text>
<text text-anchor="middle" x="214.5" y="-260" font-family="Helvetica,sans-Serif" font-size="10.00">Mffe</text>
<text text-anchor="middle" x="214.5" y="-249" font-family="Helvetica,sans-Serif" font-size="10.00">Mree</text>
<text text-anchor="middle" x="214.5" y="-238" font-family="Helvetica,sans-Serif" font-size="10.00">Mtee</text>
<text text-anchor="middle" x="214.5" y="-227" font-family="Helvetica,sans-Serif" font-size="10.00">Qee</text>
<text text-anchor="middle" x="214.5" y="-216" font-family="Helvetica,sans-Serif" font-size="10.00">See</text>
<text text-anchor="middle" x="214.5" y="-205" font-family="Helvetica,sans-Serif" font-size="10.00">Tffe</text>
<text text-anchor="middle" x="214.5" y="-194" font-family="Helvetica,sans-Serif" font-size="10.00">...</text>
</g>
<!-- Node7 -->
<g id="node7" class="node">
<title>Node7</title>
<g id="a_node7"><a xlink:href="structSTag__Eth__ComConfigType.html" target="_top" xlink:title=" ">
<polygon fill="white" stroke="black" points="248,-149.5 248,-168.5 389,-168.5 389,-149.5 248,-149.5"/>
<text text-anchor="middle" x="318.5" y="-156.5" font-family="Helvetica,sans-Serif" font-size="10.00">STag_Eth_ComConfigType</text>
</a>
</g>
</g>
<!-- Node4&#45;&gt;Node7 -->
<g id="edge8" class="edge">
<title>Node4&#45;&gt;Node7</title>
<path fill="none" stroke="#9a32cd" stroke-dasharray="5,2" d="M119.99,-177.35C151.94,-174.38 204.93,-169.46 247.98,-165.46"/>
<polygon fill="#9a32cd" stroke="#9a32cd" points="119.25,-173.91 109.61,-178.32 119.89,-180.88 119.25,-173.91"/>
<text text-anchor="middle" x="214.5" y="-173" font-family="Helvetica,sans-Serif" font-size="10.00"> Lbme</text>
</g>
<!-- Node9 -->
<g id="node9" class="node">
<title>Node9</title>
<g id="a_node9"><a xlink:href="structSTag__Eth__RxConfigType.html" target="_top" xlink:title=" ">
<polygon fill="white" stroke="black" points="253,-74.5 253,-93.5 384,-93.5 384,-74.5 253,-74.5"/>
<text text-anchor="middle" x="318.5" y="-81.5" font-family="Helvetica,sans-Serif" font-size="10.00">STag_Eth_RxConfigType</text>
</a>
</g>
</g>
<!-- Node4&#45;&gt;Node9 -->
<g id="edge13" class="edge">
<title>Node4&#45;&gt;Node9</title>
<path fill="none" stroke="#9a32cd" stroke-dasharray="5,2" d="M119.08,-168.28C164.31,-149.07 253.36,-111.25 295.02,-93.55"/>
<polygon fill="#9a32cd" stroke="#9a32cd" points="117.45,-165.18 109.61,-172.31 120.18,-171.62 117.45,-165.18"/>
<text text-anchor="middle" x="214.5" y="-146" font-family="Helvetica,sans-Serif" font-size="10.00"> Effs</text>
<text text-anchor="middle" x="214.5" y="-135" font-family="Helvetica,sans-Serif" font-size="10.00">Encf</text>
</g>
<!-- Node5 -->
<g id="node5" class="node">
<title>Node5</title>
<g id="a_node5"><a xlink:title=" ">
<polygon fill="white" stroke="#bfbfbf" points="0,-365.5 0,-384.5 181,-384.5 181,-365.5 0,-365.5"/>
<text text-anchor="middle" x="90.5" y="-372.5" font-family="Helvetica,sans-Serif" font-size="10.00">enum ETag_Eth_TxSyncModeType</text>
</a>
</g>
</g>
<!-- Node5&#45;&gt;Node2 -->
<g id="edge4" class="edge">
<title>Node5&#45;&gt;Node2</title>
<path fill="none" stroke="#9a32cd" stroke-dasharray="5,2" d="M191.31,-367.49C212.13,-365.93 233.55,-364.31 252.71,-362.87"/>
<polygon fill="#9a32cd" stroke="#9a32cd" points="190.86,-364.02 181.15,-368.26 191.38,-371 190.86,-364.02"/>
<text text-anchor="middle" x="214.5" y="-402" font-family="Helvetica,sans-Serif" font-size="10.00"> Tsm0</text>
<text text-anchor="middle" x="214.5" y="-391" font-family="Helvetica,sans-Serif" font-size="10.00">Tsm1</text>
<text text-anchor="middle" x="214.5" y="-380" font-family="Helvetica,sans-Serif" font-size="10.00">Tsm2</text>
<text text-anchor="middle" x="214.5" y="-369" font-family="Helvetica,sans-Serif" font-size="10.00">Tsm3</text>
</g>
<!-- Node6&#45;&gt;Node1 -->
<g id="edge5" class="edge">
<title>Node6&#45;&gt;Node1</title>
<path fill="none" stroke="#9a32cd" stroke-dasharray="5,2" d="M390.6,-191.13C419.62,-188.73 453.02,-185.97 481.7,-183.6"/>
<polygon fill="#9a32cd" stroke="#9a32cd" points="390.21,-187.65 380.53,-191.96 390.79,-194.62 390.21,-187.65"/>
<text text-anchor="middle" x="435.5" y="-193" font-family="Helvetica,sans-Serif" font-size="10.00"> ErrorInt</text>
</g>
<!-- Node7&#45;&gt;Node1 -->
<g id="edge7" class="edge">
<title>Node7&#45;&gt;Node1</title>
<path fill="none" stroke="#9a32cd" stroke-dasharray="5,2" d="M399.27,-165.59C426.14,-167.81 455.83,-170.26 481.69,-172.4"/>
<polygon fill="#9a32cd" stroke="#9a32cd" points="399.39,-162.09 389.13,-164.75 398.81,-169.06 399.39,-162.09"/>
<text text-anchor="middle" x="435.5" y="-174" font-family="Helvetica,sans-Serif" font-size="10.00"> ComConfig</text>
</g>
<!-- Node8 -->
<g id="node8" class="node">
<title>Node8</title>
<g id="a_node8"><a xlink:title=" ">
<polygon fill="white" stroke="#bfbfbf" points="11.5,-76.5 11.5,-95.5 169.5,-95.5 169.5,-76.5 11.5,-76.5"/>
<text text-anchor="middle" x="90.5" y="-83.5" font-family="Helvetica,sans-Serif" font-size="10.00">enum ETag_Eth_GPtpClkType</text>
</a>
</g>
</g>
<!-- Node8&#45;&gt;Node7 -->
<g id="edge9" class="edge">
<title>Node8&#45;&gt;Node7</title>
<path fill="none" stroke="#9a32cd" stroke-dasharray="5,2" d="M151.21,-75.53C176.4,-73.63 205.5,-74.85 230,-85 240.45,-89.33 239.58,-95.44 248,-103 267.14,-120.19 290.68,-138.63 304.87,-149.48"/>
<polygon fill="#9a32cd" stroke="#9a32cd" points="150.68,-72.07 141.04,-76.48 151.33,-79.04 150.68,-72.07"/>
<text text-anchor="middle" x="214.5" y="-88" font-family="Helvetica,sans-Serif" font-size="10.00"> Csel</text>
</g>
<!-- Node9&#45;&gt;Node1 -->
<g id="edge10" class="edge">
<title>Node9&#45;&gt;Node1</title>
<path fill="none" stroke="#9a32cd" stroke-dasharray="5,2" d="M352.25,-97.38C399.31,-116.62 484.92,-151.61 526.12,-168.44"/>
<polygon fill="#9a32cd" stroke="#9a32cd" points="353.4,-94.07 342.82,-93.53 350.75,-100.55 353.4,-94.07"/>
<text text-anchor="middle" x="435.5" y="-146" font-family="Helvetica,sans-Serif" font-size="10.00"> RxConfig</text>
</g>
<!-- Node10 -->
<g id="node10" class="node">
<title>Node10</title>
<g id="a_node10"><a xlink:title=" ">
<polygon fill="white" stroke="#bfbfbf" points="48,-0.5 48,-19.5 133,-19.5 133,-0.5 48,-0.5"/>
<text text-anchor="middle" x="90.5" y="-7.5" font-family="Helvetica,sans-Serif" font-size="10.00">unsigned long</text>
</a>
</g>
</g>
<!-- Node10&#45;&gt;Node9 -->
<g id="edge11" class="edge">
<title>Node10&#45;&gt;Node9</title>
<path fill="none" stroke="#9a32cd" stroke-dasharray="5,2" d="M143.35,-13.55C169.87,-16.53 202.31,-21.99 230,-32 258.75,-42.39 288.6,-62.49 304.94,-74.42"/>
<polygon fill="#9a32cd" stroke="#9a32cd" points="143.43,-10.04 133.12,-12.49 142.71,-17 143.43,-10.04"/>
<text text-anchor="middle" x="214.5" y="-35" font-family="Helvetica,sans-Serif" font-size="10.00"> Rfcl</text>
</g>
<!-- Node11 -->
<g id="node11" class="node">
<title>Node11</title>
<g id="a_node11"><a xlink:title=" ">
<polygon fill="white" stroke="#bfbfbf" points="9,-38.5 9,-57.5 172,-57.5 172,-38.5 9,-38.5"/>
<text text-anchor="middle" x="90.5" y="-45.5" font-family="Helvetica,sans-Serif" font-size="10.00">enum ETag_Eth_SFOptionType</text>
</a>
</g>
</g>
<!-- Node11&#45;&gt;Node9 -->
<g id="edge12" class="edge">
<title>Node11&#45;&gt;Node9</title>
<path fill="none" stroke="#9a32cd" stroke-dasharray="5,2" d="M182.57,-45.58C198.48,-46.41 214.79,-48.06 230,-51 254.23,-55.69 280.53,-66.44 297.91,-74.41"/>
<polygon fill="#9a32cd" stroke="#9a32cd" points="182.32,-42.07 172.18,-45.15 182.03,-49.06 182.32,-42.07"/>
<text text-anchor="middle" x="214.5" y="-54" font-family="Helvetica,sans-Serif" font-size="10.00"> Esf</text>
</g>
</g>
</svg>
