<?xml version="1.0" encoding="UTF-8" standalone="no"?>
<!DOCTYPE svg PUBLIC "-//W3C//DTD SVG 1.1//EN"
 "http://www.w3.org/Graphics/SVG/1.1/DTD/svg11.dtd">
<!-- Generated by graphviz version 2.43.0 (0)
 -->
<!-- Title: taurus_camera_ioc_channel_feed_buffer_out Pages: 1 -->
<svg width="208pt" height="128pt"
 viewBox="0.00 0.00 208.00 128.00" xmlns="http://www.w3.org/2000/svg" xmlns:xlink="http://www.w3.org/1999/xlink">
<g id="graph0" class="graph" transform="scale(1 1) rotate(0) translate(4 124)">
<title>taurus_camera_ioc_channel_feed_buffer_out</title>
<polygon fill="white" stroke="transparent" points="-4,4 -4,-124 204,-124 204,4 -4,4"/>
<!-- Node1 -->
<g id="node1" class="node">
<title>Node1</title>
<g id="a_node1"><a xlink:title=" ">
<polygon fill="#bfbfbf" stroke="black" points="0,-0.5 0,-30.5 152,-30.5 152,-0.5 0,-0.5"/>
<text text-anchor="start" x="8" y="-18.5" font-family="Helvetica,sans-Serif" font-size="10.00">taurus_camera_ioc_channel</text>
<text text-anchor="middle" x="76" y="-7.5" font-family="Helvetica,sans-Serif" font-size="10.00">_feed_buffer_out</text>
</a>
</g>
</g>
<!-- Node2 -->
<g id="node2" class="node">
<title>Node2</title>
<g id="a_node2"><a xlink:title=" ">
<polygon fill="white" stroke="#bfbfbf" points="11,-100.5 11,-119.5 67,-119.5 67,-100.5 11,-100.5"/>
<text text-anchor="middle" x="39" y="-107.5" font-family="Helvetica,sans-Serif" font-size="10.00">uint64_t</text>
</a>
</g>
</g>
<!-- Node2&#45;&gt;Node1 -->
<g id="edge1" class="edge">
<title>Node2&#45;&gt;Node1</title>
<path fill="none" stroke="#9a32cd" stroke-dasharray="5,2" d="M42.41,-90.31C44.99,-78.2 49.11,-62.28 55,-49 57.83,-42.61 61.83,-36.05 65.58,-30.51"/>
<polygon fill="#9a32cd" stroke="#9a32cd" points="38.96,-89.68 40.46,-100.17 45.83,-91.03 38.96,-89.68"/>
<text text-anchor="middle" x="73" y="-68.5" font-family="Helvetica,sans-Serif" font-size="10.00"> cookie</text>
<text text-anchor="middle" x="73" y="-57.5" font-family="Helvetica,sans-Serif" font-size="10.00">res</text>
</g>
<!-- Node3 -->
<g id="node3" class="node">
<title>Node3</title>
<g id="a_node3"><a xlink:title=" ">
<polygon fill="white" stroke="#bfbfbf" points="85,-100.5 85,-119.5 141,-119.5 141,-100.5 85,-100.5"/>
<text text-anchor="middle" x="113" y="-107.5" font-family="Helvetica,sans-Serif" font-size="10.00">uint32_t</text>
</a>
</g>
</g>
<!-- Node3&#45;&gt;Node1 -->
<g id="edge2" class="edge">
<title>Node3&#45;&gt;Node1</title>
<path fill="none" stroke="#9a32cd" stroke-dasharray="5,2" d="M106.71,-90.67C102.5,-78.71 96.71,-62.82 91,-49 88.48,-42.91 85.48,-36.29 82.82,-30.63"/>
<polygon fill="#9a32cd" stroke="#9a32cd" points="103.49,-92.07 110.08,-100.37 110.11,-89.78 103.49,-92.07"/>
<text text-anchor="middle" x="151.5" y="-74" font-family="Helvetica,sans-Serif" font-size="10.00"> accepted_buf_cnt</text>
<text text-anchor="middle" x="151.5" y="-63" font-family="Helvetica,sans-Serif" font-size="10.00">empty_buf_cnt</text>
<text text-anchor="middle" x="151.5" y="-52" font-family="Helvetica,sans-Serif" font-size="10.00">vacant_buf_cell_cnt</text>
</g>
</g>
</svg>
