<?xml version="1.0" encoding="UTF-8" standalone="no"?>
<!DOCTYPE svg PUBLIC "-//W3C//DTD SVG 1.1//EN"
 "http://www.w3.org/Graphics/SVG/1.1/DTD/svg11.dtd">
<!-- Generated by graphviz version 2.43.0 (0)
 -->
<!-- Title: STag_Eth_ExtDataDescType Pages: 1 -->
<svg width="392pt" height="195pt"
 viewBox="0.00 0.00 392.14 195.00" xmlns="http://www.w3.org/2000/svg" xmlns:xlink="http://www.w3.org/1999/xlink">
<g id="graph0" class="graph" transform="scale(1 1) rotate(0) translate(4 191)">
<title>STag_Eth_ExtDataDescType</title>
<polygon fill="white" stroke="transparent" points="-4,4 -4,-191 388.14,-191 388.14,4 -4,4"/>
<!-- Node1 -->
<g id="node1" class="node">
<title>Node1</title>
<g id="a_node1"><a xlink:title=" ">
<polygon fill="#bfbfbf" stroke="black" points="42.64,-0.5 42.64,-19.5 193.64,-19.5 193.64,-0.5 42.64,-0.5"/>
<text text-anchor="middle" x="118.14" y="-7.5" font-family="Helvetica,sans-Serif" font-size="10.00">STag_Eth_ExtDataDescType</text>
</a>
</g>
</g>
<!-- Node2 -->
<g id="node2" class="node">
<title>Node2</title>
<g id="a_node2"><a xlink:title=" ">
<polygon fill="white" stroke="#bfbfbf" points="75.64,-167.5 75.64,-186.5 160.64,-186.5 160.64,-167.5 75.64,-167.5"/>
<text text-anchor="middle" x="118.14" y="-174.5" font-family="Helvetica,sans-Serif" font-size="10.00">unsigned long</text>
</a>
</g>
</g>
<!-- Node2&#45;&gt;Node1 -->
<g id="edge1" class="edge">
<title>Node2&#45;&gt;Node1</title>
<path fill="none" stroke="#9a32cd" stroke-dasharray="5,2" d="M86.63,-163.43C45.24,-144.97 -19.33,-108.22 6.14,-67 21.86,-41.57 53,-27.3 78.47,-19.54"/>
<polygon fill="#9a32cd" stroke="#9a32cd" points="85.25,-166.65 95.82,-167.41 88.03,-160.23 85.25,-166.65"/>
<text text-anchor="middle" x="18.64" y="-74.5" font-family="Helvetica,sans-Serif" font-size="10.00"> Dptr</text>
</g>
<!-- Node3 -->
<g id="node3" class="node">
<title>Node3</title>
<g id="a_node3"><a xlink:href="structSTag__Eth__DataDescLowType.html" target="_top" xlink:title=" ">
<polygon fill="white" stroke="black" points="40.64,-67.5 40.64,-86.5 195.64,-86.5 195.64,-67.5 40.64,-67.5"/>
<text text-anchor="middle" x="118.14" y="-74.5" font-family="Helvetica,sans-Serif" font-size="10.00">STag_Eth_DataDescLowType</text>
</a>
</g>
</g>
<!-- Node2&#45;&gt;Node3 -->
<g id="edge3" class="edge">
<title>Node2&#45;&gt;Node3</title>
<path fill="none" stroke="#9a32cd" stroke-dasharray="5,2" d="M118.14,-157.22C118.14,-135.95 118.14,-102.22 118.14,-86.54"/>
<polygon fill="#9a32cd" stroke="#9a32cd" points="114.64,-157.3 118.14,-167.3 121.64,-157.3 114.64,-157.3"/>
<text text-anchor="middle" x="128.64" y="-141" font-family="Helvetica,sans-Serif" font-size="10.00"> Ctrl</text>
<text text-anchor="middle" x="128.64" y="-130" font-family="Helvetica,sans-Serif" font-size="10.00">Die</text>
<text text-anchor="middle" x="128.64" y="-119" font-family="Helvetica,sans-Serif" font-size="10.00">Ds</text>
<text text-anchor="middle" x="128.64" y="-108" font-family="Helvetica,sans-Serif" font-size="10.00">Dt</text>
</g>
<!-- Node4 -->
<g id="node4" class="node">
<title>Node4</title>
<g id="a_node4"><a xlink:href="structSTag__Eth__TimeStampStoreType.html" target="_top" xlink:title=" ">
<polygon fill="white" stroke="black" points="214.14,-67.5 214.14,-86.5 384.14,-86.5 384.14,-67.5 214.14,-67.5"/>
<text text-anchor="middle" x="299.14" y="-74.5" font-family="Helvetica,sans-Serif" font-size="10.00">STag_Eth_TimeStampStoreType</text>
</a>
</g>
</g>
<!-- Node2&#45;&gt;Node4 -->
<g id="edge5" class="edge">
<title>Node2&#45;&gt;Node4</title>
<path fill="none" stroke="#9a32cd" stroke-dasharray="5,2" d="M138.3,-161.55C160.21,-146.25 196.57,-122.01 230.14,-105 244.14,-97.91 260.47,-91.44 273.73,-86.62"/>
<polygon fill="#9a32cd" stroke="#9a32cd" points="136.27,-158.7 130.12,-167.32 140.31,-164.42 136.27,-158.7"/>
<text text-anchor="middle" x="262.64" y="-130" font-family="Helvetica,sans-Serif" font-size="10.00"> Timestamp0</text>
<text text-anchor="middle" x="262.64" y="-119" font-family="Helvetica,sans-Serif" font-size="10.00">Timestamp1</text>
</g>
<!-- Node3&#45;&gt;Node1 -->
<g id="edge2" class="edge">
<title>Node3&#45;&gt;Node1</title>
<path fill="none" stroke="#9a32cd" stroke-dasharray="5,2" d="M118.14,-57.04C118.14,-44.67 118.14,-29.12 118.14,-19.63"/>
<polygon fill="#9a32cd" stroke="#9a32cd" points="114.64,-57.23 118.14,-67.23 121.64,-57.23 114.64,-57.23"/>
<text text-anchor="middle" x="137.64" y="-41" font-family="Helvetica,sans-Serif" font-size="10.00"> Header</text>
</g>
<!-- Node4&#45;&gt;Node1 -->
<g id="edge4" class="edge">
<title>Node4&#45;&gt;Node1</title>
<path fill="none" stroke="#9a32cd" stroke-dasharray="5,2" d="M265.55,-63.94C229.65,-51.04 173.63,-30.92 141.99,-19.56"/>
<polygon fill="#9a32cd" stroke="#9a32cd" points="264.51,-67.28 275.11,-67.37 266.88,-60.69 264.51,-67.28"/>
<text text-anchor="middle" x="249.64" y="-41" font-family="Helvetica,sans-Serif" font-size="10.00"> Timestamp</text>
</g>
<!-- Node5 -->
<g id="node5" class="node">
<title>Node5</title>
<g id="a_node5"><a xlink:title=" ">
<polygon fill="white" stroke="#bfbfbf" points="254.64,-167.5 254.64,-186.5 343.64,-186.5 343.64,-167.5 254.64,-167.5"/>
<text text-anchor="middle" x="299.14" y="-174.5" font-family="Helvetica,sans-Serif" font-size="10.00">unsigned short</text>
</a>
</g>
</g>
<!-- Node5&#45;&gt;Node4 -->
<g id="edge6" class="edge">
<title>Node5&#45;&gt;Node4</title>
<path fill="none" stroke="#9a32cd" stroke-dasharray="5,2" d="M299.14,-157.22C299.14,-135.95 299.14,-102.22 299.14,-86.54"/>
<polygon fill="#9a32cd" stroke="#9a32cd" points="295.64,-157.3 299.14,-167.3 302.64,-157.3 295.64,-157.3"/>
<text text-anchor="middle" x="331.64" y="-124.5" font-family="Helvetica,sans-Serif" font-size="10.00"> Timestamp2</text>
</g>
</g>
</svg>
