<?xml version="1.0" encoding="UTF-8" standalone="no"?>
<!DOCTYPE svg PUBLIC "-//W3C//DTD SVG 1.1//EN"
 "http://www.w3.org/Graphics/SVG/1.1/DTD/svg11.dtd">
<!-- Generated by graphviz version 2.43.0 (0)
 -->
<!-- Title: vring Pages: 1 -->
<svg width="338pt" height="262pt"
 viewBox="0.00 0.00 338.00 262.00" xmlns="http://www.w3.org/2000/svg" xmlns:xlink="http://www.w3.org/1999/xlink">
<g id="graph0" class="graph" transform="scale(1 1) rotate(0) translate(4 258)">
<title>vring</title>
<polygon fill="white" stroke="transparent" points="-4,4 -4,-258 334,-258 334,4 -4,4"/>
<!-- Node1 -->
<g id="node1" class="node">
<title>Node1</title>
<g id="a_node1"><a xlink:title=" ">
<polygon fill="#bfbfbf" stroke="black" points="170.5,-0.5 170.5,-19.5 211.5,-19.5 211.5,-0.5 170.5,-0.5"/>
<text text-anchor="middle" x="191" y="-7.5" font-family="Helvetica,sans-Serif" font-size="10.00">vring</text>
</a>
</g>
</g>
<!-- Node2 -->
<g id="node2" class="node">
<title>Node2</title>
<g id="a_node2"><a xlink:href="structvring__used.html" target="_top" xlink:title=" ">
<polygon fill="white" stroke="black" points="23,-67.5 23,-86.5 93,-86.5 93,-67.5 23,-67.5"/>
<text text-anchor="middle" x="58" y="-74.5" font-family="Helvetica,sans-Serif" font-size="10.00">vring_used</text>
</a>
</g>
</g>
<!-- Node2&#45;&gt;Node1 -->
<g id="edge1" class="edge">
<title>Node2&#45;&gt;Node1</title>
<path fill="none" stroke="#9a32cd" stroke-dasharray="5,2" d="M81.82,-62.63C95.49,-55.12 113.05,-45.72 129,-38 142.63,-31.4 158.27,-24.59 170.43,-19.47"/>
<polygon fill="#9a32cd" stroke="#9a32cd" points="80.1,-59.58 73.05,-67.49 83.5,-65.7 80.1,-59.58"/>
<text text-anchor="middle" x="142.5" y="-41" font-family="Helvetica,sans-Serif" font-size="10.00"> used</text>
</g>
<!-- Node3 -->
<g id="node3" class="node">
<title>Node3</title>
<g id="a_node3"><a xlink:title=" ">
<polygon fill="white" stroke="#bfbfbf" points="118,-156.5 118,-175.5 174,-175.5 174,-156.5 118,-156.5"/>
<text text-anchor="middle" x="146" y="-163.5" font-family="Helvetica,sans-Serif" font-size="10.00">uint16_t</text>
</a>
</g>
</g>
<!-- Node3&#45;&gt;Node2 -->
<g id="edge2" class="edge">
<title>Node3&#45;&gt;Node2</title>
<path fill="none" stroke="#9a32cd" stroke-dasharray="5,2" d="M127.91,-149.75C123.61,-145.99 119.08,-141.91 115,-138 96.74,-120.51 76.64,-98.71 65.87,-86.79"/>
<polygon fill="#9a32cd" stroke="#9a32cd" points="125.87,-152.61 135.73,-156.48 130.43,-147.31 125.87,-152.61"/>
<text text-anchor="middle" x="128.5" y="-124.5" font-family="Helvetica,sans-Serif" font-size="10.00"> flags</text>
<text text-anchor="middle" x="128.5" y="-113.5" font-family="Helvetica,sans-Serif" font-size="10.00">idx</text>
</g>
<!-- Node6 -->
<g id="node6" class="node">
<title>Node6</title>
<g id="a_node6"><a xlink:href="structvring__avail.html" target="_top" xlink:title=" ">
<polygon fill="white" stroke="black" points="111.5,-67.5 111.5,-86.5 182.5,-86.5 182.5,-67.5 111.5,-67.5"/>
<text text-anchor="middle" x="147" y="-74.5" font-family="Helvetica,sans-Serif" font-size="10.00">vring_avail</text>
</a>
</g>
</g>
<!-- Node3&#45;&gt;Node6 -->
<g id="edge6" class="edge">
<title>Node3&#45;&gt;Node6</title>
<path fill="none" stroke="#9a32cd" stroke-dasharray="5,2" d="M145.82,-146.45C145.75,-134.59 145.74,-118.89 146,-105 146.11,-98.81 146.38,-91.82 146.6,-86.51"/>
<polygon fill="#9a32cd" stroke="#9a32cd" points="142.32,-146.48 145.9,-156.45 149.32,-146.43 142.32,-146.48"/>
<text text-anchor="middle" x="159.5" y="-130" font-family="Helvetica,sans-Serif" font-size="10.00"> flags</text>
<text text-anchor="middle" x="159.5" y="-119" font-family="Helvetica,sans-Serif" font-size="10.00">idx</text>
<text text-anchor="middle" x="159.5" y="-108" font-family="Helvetica,sans-Serif" font-size="10.00">ring</text>
</g>
<!-- Node7 -->
<g id="node7" class="node">
<title>Node7</title>
<g id="a_node7"><a xlink:href="structvring__desc.html" target="_top" xlink:title=" ">
<polygon fill="white" stroke="black" points="200.5,-67.5 200.5,-86.5 269.5,-86.5 269.5,-67.5 200.5,-67.5"/>
<text text-anchor="middle" x="235" y="-74.5" font-family="Helvetica,sans-Serif" font-size="10.00">vring_desc</text>
</a>
</g>
</g>
<!-- Node3&#45;&gt;Node7 -->
<g id="edge9" class="edge">
<title>Node3&#45;&gt;Node7</title>
<path fill="none" stroke="#9a32cd" stroke-dasharray="5,2" d="M162.76,-149.17C166.27,-145.6 169.85,-141.76 173,-138 184.48,-124.29 183.34,-117.62 196,-105 203.12,-97.91 212.31,-91.44 219.98,-86.62"/>
<polygon fill="#9a32cd" stroke="#9a32cd" points="160.1,-146.88 155.41,-156.38 165,-151.87 160.1,-146.88"/>
<text text-anchor="middle" x="209.5" y="-124.5" font-family="Helvetica,sans-Serif" font-size="10.00"> flags</text>
<text text-anchor="middle" x="209.5" y="-113.5" font-family="Helvetica,sans-Serif" font-size="10.00">next</text>
</g>
<!-- Node4 -->
<g id="node4" class="node">
<title>Node4</title>
<g id="a_node4"><a xlink:href="structvring__used__elem.html" target="_top" xlink:title=" ">
<polygon fill="white" stroke="black" points="0,-156.5 0,-175.5 100,-175.5 100,-156.5 0,-156.5"/>
<text text-anchor="middle" x="50" y="-163.5" font-family="Helvetica,sans-Serif" font-size="10.00">vring_used_elem</text>
</a>
</g>
</g>
<!-- Node4&#45;&gt;Node2 -->
<g id="edge3" class="edge">
<title>Node4&#45;&gt;Node2</title>
<path fill="none" stroke="#9a32cd" stroke-dasharray="5,2" d="M49.18,-146.37C48.93,-134.48 49.13,-118.77 51,-105 51.84,-98.86 53.59,-92.11 55.13,-86.89"/>
<polygon fill="#9a32cd" stroke="#9a32cd" points="45.68,-146.53 49.51,-156.41 52.68,-146.3 45.68,-146.53"/>
<text text-anchor="middle" x="62" y="-119" font-family="Helvetica,sans-Serif" font-size="10.00"> ring</text>
</g>
<!-- Node5 -->
<g id="node5" class="node">
<title>Node5</title>
<g id="a_node5"><a xlink:title=" ">
<polygon fill="white" stroke="#bfbfbf" points="115,-234.5 115,-253.5 171,-253.5 171,-234.5 115,-234.5"/>
<text text-anchor="middle" x="143" y="-241.5" font-family="Helvetica,sans-Serif" font-size="10.00">uint32_t</text>
</a>
</g>
</g>
<!-- Node5&#45;&gt;Node4 -->
<g id="edge4" class="edge">
<title>Node5&#45;&gt;Node4</title>
<path fill="none" stroke="#9a32cd" stroke-dasharray="5,2" d="M124.57,-227.94C105.41,-212.28 76.1,-188.33 60.54,-175.62"/>
<polygon fill="#9a32cd" stroke="#9a32cd" points="122.37,-230.66 132.33,-234.28 126.8,-225.24 122.37,-230.66"/>
<text text-anchor="middle" x="116" y="-208" font-family="Helvetica,sans-Serif" font-size="10.00"> id</text>
<text text-anchor="middle" x="116" y="-197" font-family="Helvetica,sans-Serif" font-size="10.00">len</text>
</g>
<!-- Node5&#45;&gt;Node7 -->
<g id="edge10" class="edge">
<title>Node5&#45;&gt;Node7</title>
<path fill="none" stroke="#9a32cd" stroke-dasharray="5,2" d="M158.96,-227.05C177.34,-207.7 207.07,-173.27 223,-138 230.78,-120.77 233.54,-98.49 234.5,-86.52"/>
<polygon fill="#9a32cd" stroke="#9a32cd" points="156.3,-224.76 151.84,-234.38 161.32,-229.64 156.3,-224.76"/>
<text text-anchor="middle" x="221.5" y="-163.5" font-family="Helvetica,sans-Serif" font-size="10.00"> len</text>
</g>
<!-- Node6&#45;&gt;Node1 -->
<g id="edge5" class="edge">
<title>Node6&#45;&gt;Node1</title>
<path fill="none" stroke="#9a32cd" stroke-dasharray="5,2" d="M155.4,-57.9C158.69,-51.42 162.71,-44.19 167,-38 171.57,-31.4 177.57,-24.65 182.43,-19.55"/>
<polygon fill="#9a32cd" stroke="#9a32cd" points="152.1,-56.68 150.88,-67.21 158.4,-59.74 152.1,-56.68"/>
<text text-anchor="middle" x="181" y="-41" font-family="Helvetica,sans-Serif" font-size="10.00"> avail</text>
</g>
<!-- Node7&#45;&gt;Node1 -->
<g id="edge7" class="edge">
<title>Node7&#45;&gt;Node1</title>
<path fill="none" stroke="#9a32cd" stroke-dasharray="5,2" d="M223.43,-58.9C214.88,-46.27 203.59,-29.6 196.84,-19.63"/>
<polygon fill="#9a32cd" stroke="#9a32cd" points="220.56,-60.91 229.07,-67.23 226.36,-56.99 220.56,-60.91"/>
<text text-anchor="middle" x="228" y="-41" font-family="Helvetica,sans-Serif" font-size="10.00"> desc</text>
</g>
<!-- Node8 -->
<g id="node8" class="node">
<title>Node8</title>
<g id="a_node8"><a xlink:title=" ">
<polygon fill="white" stroke="#bfbfbf" points="274,-156.5 274,-175.5 330,-175.5 330,-156.5 274,-156.5"/>
<text text-anchor="middle" x="302" y="-163.5" font-family="Helvetica,sans-Serif" font-size="10.00">uint64_t</text>
</a>
</g>
</g>
<!-- Node8&#45;&gt;Node7 -->
<g id="edge8" class="edge">
<title>Node8&#45;&gt;Node7</title>
<path fill="none" stroke="#9a32cd" stroke-dasharray="5,2" d="M289.1,-148.24C274.91,-129.82 252.66,-100.93 241.64,-86.62"/>
<polygon fill="#9a32cd" stroke="#9a32cd" points="286.46,-150.55 295.33,-156.34 292,-146.28 286.46,-150.55"/>
<text text-anchor="middle" x="292.5" y="-119" font-family="Helvetica,sans-Serif" font-size="10.00"> addr</text>
</g>
<!-- Node9 -->
<g id="node9" class="node">
<title>Node9</title>
<g id="a_node9"><a xlink:title=" ">
<polygon fill="white" stroke="#bfbfbf" points="287.5,-67.5 287.5,-86.5 316.5,-86.5 316.5,-67.5 287.5,-67.5"/>
<text text-anchor="middle" x="302" y="-74.5" font-family="Helvetica,sans-Serif" font-size="10.00">int</text>
</a>
</g>
</g>
<!-- Node9&#45;&gt;Node1 -->
<g id="edge11" class="edge">
<title>Node9&#45;&gt;Node1</title>
<path fill="none" stroke="#9a32cd" stroke-dasharray="5,2" d="M281.78,-61.63C271.06,-54.24 257.54,-45.28 245,-38 233.49,-31.32 220.11,-24.62 209.55,-19.57"/>
<polygon fill="#9a32cd" stroke="#9a32cd" points="279.84,-64.55 290.05,-67.4 283.85,-58.81 279.84,-64.55"/>
<text text-anchor="middle" x="274.5" y="-41" font-family="Helvetica,sans-Serif" font-size="10.00"> num</text>
</g>
</g>
</svg>
