<?xml version="1.0" encoding="UTF-8" standalone="no"?>
<!DOCTYPE svg PUBLIC "-//W3C//DTD SVG 1.1//EN"
 "http://www.w3.org/Graphics/SVG/1.1/DTD/svg11.dtd">
<!-- Generated by graphviz version 2.43.0 (0)
 -->
<!-- Title: taurus_ether_set_controller_mode_in Pages: 1 -->
<svg width="158pt" height="117pt"
 viewBox="0.00 0.00 158.00 117.00" xmlns="http://www.w3.org/2000/svg" xmlns:xlink="http://www.w3.org/1999/xlink">
<g id="graph0" class="graph" transform="scale(1 1) rotate(0) translate(4 113)">
<title>taurus_ether_set_controller_mode_in</title>
<polygon fill="white" stroke="transparent" points="-4,4 -4,-113 154,-113 154,4 -4,4"/>
<!-- Node1 -->
<g id="node1" class="node">
<title>Node1</title>
<g id="a_node1"><a xlink:title=" ">
<polygon fill="#bfbfbf" stroke="black" points="0,-0.5 0,-30.5 150,-30.5 150,-0.5 0,-0.5"/>
<text text-anchor="start" x="8" y="-18.5" font-family="Helvetica,sans-Serif" font-size="10.00">taurus_ether_set_controller</text>
<text text-anchor="middle" x="75" y="-7.5" font-family="Helvetica,sans-Serif" font-size="10.00">_mode_in</text>
</a>
</g>
</g>
<!-- Node2 -->
<g id="node2" class="node">
<title>Node2</title>
<g id="a_node2"><a xlink:title=" ">
<polygon fill="white" stroke="#bfbfbf" points="12,-89.5 12,-108.5 68,-108.5 68,-89.5 12,-89.5"/>
<text text-anchor="middle" x="40" y="-96.5" font-family="Helvetica,sans-Serif" font-size="10.00">uint64_t</text>
</a>
</g>
</g>
<!-- Node2&#45;&gt;Node1 -->
<g id="edge1" class="edge">
<title>Node2&#45;&gt;Node1</title>
<path fill="none" stroke="#9a32cd" stroke-dasharray="5,2" d="M43.36,-79.52C45.46,-70.12 48.6,-58.67 53,-49 55.88,-42.67 59.96,-36.23 63.82,-30.77"/>
<polygon fill="#9a32cd" stroke="#9a32cd" points="39.92,-78.89 41.38,-89.38 46.78,-80.27 39.92,-78.89"/>
<text text-anchor="middle" x="71" y="-57.5" font-family="Helvetica,sans-Serif" font-size="10.00"> cookie</text>
</g>
<!-- Node3 -->
<g id="node3" class="node">
<title>Node3</title>
<g id="a_node3"><a xlink:title=" ">
<polygon fill="white" stroke="#bfbfbf" points="86,-89.5 86,-108.5 136,-108.5 136,-89.5 86,-89.5"/>
<text text-anchor="middle" x="111" y="-96.5" font-family="Helvetica,sans-Serif" font-size="10.00">uint8_t</text>
</a>
</g>
</g>
<!-- Node3&#45;&gt;Node1 -->
<g id="edge2" class="edge">
<title>Node3&#45;&gt;Node1</title>
<path fill="none" stroke="#9a32cd" stroke-dasharray="5,2" d="M103.09,-80.09C96.52,-65.21 87.29,-44.31 81.23,-30.6"/>
<polygon fill="#9a32cd" stroke="#9a32cd" points="99.91,-81.54 107.15,-89.28 106.31,-78.72 99.91,-81.54"/>
<text text-anchor="middle" x="120.5" y="-63" font-family="Helvetica,sans-Serif" font-size="10.00"> CtrlIdx</text>
<text text-anchor="middle" x="120.5" y="-52" font-family="Helvetica,sans-Serif" font-size="10.00">CtrlMode</text>
</g>
</g>
</svg>
