<?xml version="1.0" encoding="UTF-8" standalone="no"?>
<!DOCTYPE svg PUBLIC "-//W3C//DTD SVG 1.1//EN"
 "http://www.w3.org/Graphics/SVG/1.1/DTD/svg11.dtd">
<!-- Generated by graphviz version 2.43.0 (0)
 -->
<!-- Title: st_imrdrv_initdata_t Pages: 1 -->
<svg width="287pt" height="95pt"
 viewBox="0.00 0.00 287.00 95.00" xmlns="http://www.w3.org/2000/svg" xmlns:xlink="http://www.w3.org/1999/xlink">
<g id="graph0" class="graph" transform="scale(1 1) rotate(0) translate(4 91)">
<title>st_imrdrv_initdata_t</title>
<polygon fill="white" stroke="transparent" points="-4,4 -4,-91 283,-91 283,4 -4,4"/>
<!-- Node1 -->
<g id="node1" class="node">
<title>Node1</title>
<g id="a_node1"><a xlink:title=" ">
<polygon fill="#bfbfbf" stroke="black" points="79.5,-0.5 79.5,-19.5 194.5,-19.5 194.5,-0.5 79.5,-0.5"/>
<text text-anchor="middle" x="137" y="-7.5" font-family="Helvetica,sans-Serif" font-size="10.00">st_imrdrv_initdata_t</text>
</a>
</g>
</g>
<!-- Node2 -->
<g id="node2" class="node">
<title>Node2</title>
<g id="a_node2"><a xlink:title=" ">
<polygon fill="white" stroke="#bfbfbf" points="0,-67.5 0,-86.5 56,-86.5 56,-67.5 0,-67.5"/>
<text text-anchor="middle" x="28" y="-74.5" font-family="Helvetica,sans-Serif" font-size="10.00">uint32_t</text>
</a>
</g>
</g>
<!-- Node2&#45;&gt;Node1 -->
<g id="edge1" class="edge">
<title>Node2&#45;&gt;Node1</title>
<path fill="none" stroke="#9a32cd" stroke-dasharray="5,2" d="M47.23,-60.99C57.06,-53.64 69.37,-44.9 81,-38 92.6,-31.11 106.23,-24.52 117.13,-19.57"/>
<polygon fill="#9a32cd" stroke="#9a32cd" points="44.83,-58.42 38.99,-67.26 49.07,-63.99 44.83,-58.42"/>
<text text-anchor="middle" x="107" y="-41" font-family="Helvetica,sans-Serif" font-size="10.00"> work_size</text>
</g>
<!-- Node3 -->
<g id="node3" class="node">
<title>Node3</title>
<g id="a_node3"><a xlink:title=" ">
<polygon fill="white" stroke="#bfbfbf" points="74.5,-67.5 74.5,-86.5 199.5,-86.5 199.5,-67.5 74.5,-67.5"/>
<text text-anchor="middle" x="137" y="-74.5" font-family="Helvetica,sans-Serif" font-size="10.00">e_imrdrv_channelno_t</text>
</a>
</g>
</g>
<!-- Node3&#45;&gt;Node1 -->
<g id="edge2" class="edge">
<title>Node3&#45;&gt;Node1</title>
<path fill="none" stroke="#9a32cd" stroke-dasharray="5,2" d="M137,-57.04C137,-44.67 137,-29.12 137,-19.63"/>
<polygon fill="#9a32cd" stroke="#9a32cd" points="133.5,-57.23 137,-67.23 140.5,-57.23 133.5,-57.23"/>
<text text-anchor="middle" x="166.5" y="-41" font-family="Helvetica,sans-Serif" font-size="10.00"> channel_no</text>
</g>
<!-- Node4 -->
<g id="node4" class="node">
<title>Node4</title>
<g id="a_node4"><a xlink:title=" ">
<polygon fill="white" stroke="#bfbfbf" points="218,-67.5 218,-86.5 264,-86.5 264,-67.5 218,-67.5"/>
<text text-anchor="middle" x="241" y="-74.5" font-family="Helvetica,sans-Serif" font-size="10.00">void *</text>
</a>
</g>
</g>
<!-- Node4&#45;&gt;Node1 -->
<g id="edge3" class="edge">
<title>Node4&#45;&gt;Node1</title>
<path fill="none" stroke="#9a32cd" stroke-dasharray="5,2" d="M226.1,-59.84C218.75,-52.52 209.44,-44.14 200,-38 188.33,-30.41 174.16,-24.12 162.22,-19.53"/>
<polygon fill="#9a32cd" stroke="#9a32cd" points="223.77,-62.46 233.23,-67.23 228.8,-57.6 223.77,-62.46"/>
<text text-anchor="middle" x="246" y="-41" font-family="Helvetica,sans-Serif" font-size="10.00"> p_work_addr</text>
</g>
</g>
</svg>
