<?xml version="1.0" encoding="UTF-8" standalone="no"?>
<!DOCTYPE svg PUBLIC "-//W3C//DTD SVG 1.1//EN"
 "http://www.w3.org/Graphics/SVG/1.1/DTD/svg11.dtd">
<!-- Generated by graphviz version 2.43.0 (0)
 -->
<!-- Title: STag_Eth_GaaDeviceType Pages: 1 -->
<svg width="529pt" height="384pt"
 viewBox="0.00 0.00 528.85 384.00" xmlns="http://www.w3.org/2000/svg" xmlns:xlink="http://www.w3.org/1999/xlink">
<g id="graph0" class="graph" transform="scale(1 1) rotate(0) translate(4 380)">
<title>STag_Eth_GaaDeviceType</title>
<polygon fill="white" stroke="transparent" points="-4,4 -4,-380 524.85,-380 524.85,4 -4,4"/>
<!-- Node1 -->
<g id="node1" class="node">
<title>Node1</title>
<g id="a_node1"><a xlink:title=" ">
<polygon fill="#bfbfbf" stroke="black" points="261.35,-0.5 261.35,-19.5 402.35,-19.5 402.35,-0.5 261.35,-0.5"/>
<text text-anchor="middle" x="331.85" y="-7.5" font-family="Helvetica,sans-Serif" font-size="10.00">STag_Eth_GaaDeviceType</text>
</a>
</g>
</g>
<!-- Node2 -->
<g id="node2" class="node">
<title>Node2</title>
<g id="a_node2"><a xlink:href="structSTag__Eth__DropCountType.html" target="_top" xlink:title=" ">
<polygon fill="white" stroke="black" points="165.85,-129 165.85,-148 305.85,-148 305.85,-129 165.85,-129"/>
<text text-anchor="middle" x="235.85" y="-136" font-family="Helvetica,sans-Serif" font-size="10.00">STag_Eth_DropCountType</text>
</a>
</g>
</g>
<!-- Node2&#45;&gt;Node1 -->
<g id="edge1" class="edge">
<title>Node2&#45;&gt;Node1</title>
<path fill="none" stroke="#9a32cd" stroke-dasharray="5,2" d="M241.22,-119.21C248.3,-97.66 262.54,-61.79 284.85,-38 292.06,-30.31 301.96,-24.18 310.81,-19.72"/>
<polygon fill="#9a32cd" stroke="#9a32cd" points="237.87,-118.19 238.24,-128.77 244.56,-120.27 237.87,-118.19"/>
<text text-anchor="middle" x="312.35" y="-46.5" font-family="Helvetica,sans-Serif" font-size="10.00"> DropCount</text>
</g>
<!-- Node3 -->
<g id="node3" class="node">
<title>Node3</title>
<g id="a_node3"><a xlink:title=" ">
<polygon fill="white" stroke="#bfbfbf" points="193.35,-356.5 193.35,-375.5 278.35,-375.5 278.35,-356.5 193.35,-356.5"/>
<text text-anchor="middle" x="235.85" y="-363.5" font-family="Helvetica,sans-Serif" font-size="10.00">unsigned long</text>
</a>
</g>
</g>
<!-- Node3&#45;&gt;Node1 -->
<g id="edge3" class="edge">
<title>Node3&#45;&gt;Node1</title>
<path fill="none" stroke="#9a32cd" stroke-dasharray="5,2" d="M205.68,-352.37C156.44,-329.9 60.44,-277.78 21.85,-199 -1.81,-150.71 -11.92,-119.85 21.85,-78 51.33,-41.47 179.05,-23.88 261.08,-16.2"/>
<polygon fill="#9a32cd" stroke="#9a32cd" points="204.31,-355.6 214.87,-356.47 207.16,-349.2 204.31,-355.6"/>
<text text-anchor="middle" x="89.35" y="-191" font-family="Helvetica,sans-Serif" font-size="10.00"> DropPacketNo</text>
<text text-anchor="middle" x="89.35" y="-180" font-family="Helvetica,sans-Serif" font-size="10.00">LastCRCPacketMainApi</text>
<text text-anchor="middle" x="89.35" y="-169" font-family="Helvetica,sans-Serif" font-size="10.00">LastCRCPacketNo</text>
<text text-anchor="middle" x="89.35" y="-158" font-family="Helvetica,sans-Serif" font-size="10.00">LastDropPacketNoMainApi</text>
<text text-anchor="middle" x="89.35" y="-147" font-family="Helvetica,sans-Serif" font-size="10.00">LastOversizePacketMainApi</text>
<text text-anchor="middle" x="89.35" y="-136" font-family="Helvetica,sans-Serif" font-size="10.00">LastOversizePacketNo</text>
<text text-anchor="middle" x="89.35" y="-125" font-family="Helvetica,sans-Serif" font-size="10.00">LastResBitPacketMainApi</text>
<text text-anchor="middle" x="89.35" y="-114" font-family="Helvetica,sans-Serif" font-size="10.00">LastResBitPacketNo</text>
<text text-anchor="middle" x="89.35" y="-103" font-family="Helvetica,sans-Serif" font-size="10.00">LastRxErrPacketMainApi</text>
<text text-anchor="middle" x="89.35" y="-92" font-family="Helvetica,sans-Serif" font-size="10.00">LastRxErrPacketNo</text>
<text text-anchor="middle" x="89.35" y="-81" font-family="Helvetica,sans-Serif" font-size="10.00">...</text>
</g>
<!-- Node3&#45;&gt;Node2 -->
<g id="edge2" class="edge">
<title>Node3&#45;&gt;Node2</title>
<path fill="none" stroke="#9a32cd" stroke-dasharray="5,2" d="M235.85,-346.31C235.85,-299.94 235.85,-181.02 235.85,-148.07"/>
<polygon fill="#9a32cd" stroke="#9a32cd" points="232.35,-346.44 235.85,-356.44 239.35,-346.44 232.35,-346.44"/>
<text text-anchor="middle" x="294.85" y="-280.5" font-family="Helvetica,sans-Serif" font-size="10.00"> DiscardedPacketNo</text>
<text text-anchor="middle" x="294.85" y="-269.5" font-family="Helvetica,sans-Serif" font-size="10.00">PayloadCRCErrPacketNo</text>
</g>
<!-- Node5 -->
<g id="node5" class="node">
<title>Node5</title>
<g id="a_node5"><a xlink:href="structSTag__Eth__StatisticsType.html" target="_top" xlink:title=" ">
<polygon fill="white" stroke="black" points="324.35,-129 324.35,-148 457.35,-148 457.35,-129 324.35,-129"/>
<text text-anchor="middle" x="390.85" y="-136" font-family="Helvetica,sans-Serif" font-size="10.00">STag_Eth_StatisticsType</text>
</a>
</g>
</g>
<!-- Node3&#45;&gt;Node5 -->
<g id="edge6" class="edge">
<title>Node3&#45;&gt;Node5</title>
<path fill="none" stroke="#9a32cd" stroke-dasharray="5,2" d="M288.94,-359.17C317.25,-354.94 348.21,-348.16 357.85,-338 410.02,-282.99 397.46,-178.61 392.42,-148.09"/>
<polygon fill="#9a32cd" stroke="#9a32cd" points="288.08,-355.75 278.67,-360.61 289.06,-362.69 288.08,-355.75"/>
<text text-anchor="middle" x="458.85" y="-330" font-family="Helvetica,sans-Serif" font-size="10.00"> BroadcastPktNo</text>
<text text-anchor="middle" x="458.85" y="-319" font-family="Helvetica,sans-Serif" font-size="10.00">LastMulticastPktNo</text>
<text text-anchor="middle" x="458.85" y="-308" font-family="Helvetica,sans-Serif" font-size="10.00">Pkts1024to1518OctetsNo</text>
<text text-anchor="middle" x="458.85" y="-297" font-family="Helvetica,sans-Serif" font-size="10.00">Pkts128to255OctetsNo</text>
<text text-anchor="middle" x="458.85" y="-286" font-family="Helvetica,sans-Serif" font-size="10.00">Pkts256to511OctetsNo</text>
<text text-anchor="middle" x="458.85" y="-275" font-family="Helvetica,sans-Serif" font-size="10.00">Pkts512to1023OctetsNo</text>
<text text-anchor="middle" x="458.85" y="-264" font-family="Helvetica,sans-Serif" font-size="10.00">Pkts64OctetsNo</text>
<text text-anchor="middle" x="458.85" y="-253" font-family="Helvetica,sans-Serif" font-size="10.00">Pkts65to127OctetsNo</text>
<text text-anchor="middle" x="458.85" y="-242" font-family="Helvetica,sans-Serif" font-size="10.00">RxPacketNo</text>
<text text-anchor="middle" x="458.85" y="-231" font-family="Helvetica,sans-Serif" font-size="10.00">StatsOctetsNo</text>
<text text-anchor="middle" x="458.85" y="-220" font-family="Helvetica,sans-Serif" font-size="10.00">...</text>
</g>
<!-- Node4 -->
<g id="node4" class="node">
<title>Node4</title>
<g id="a_node4"><a xlink:title=" ">
<polygon fill="white" stroke="#bfbfbf" points="475.85,-129 475.85,-148 513.85,-148 513.85,-129 475.85,-129"/>
<text text-anchor="middle" x="494.85" y="-136" font-family="Helvetica,sans-Serif" font-size="10.00">char</text>
</a>
</g>
</g>
<!-- Node4&#45;&gt;Node1 -->
<g id="edge4" class="edge">
<title>Node4&#45;&gt;Node1</title>
<path fill="none" stroke="#9a32cd" stroke-dasharray="5,2" d="M489.76,-119.13C485.43,-106.29 478.09,-89.47 466.85,-78 437.56,-48.09 392.15,-29.4 362.21,-19.58"/>
<polygon fill="#9a32cd" stroke="#9a32cd" points="486.44,-120.23 492.72,-128.76 493.13,-118.18 486.44,-120.23"/>
<text text-anchor="middle" x="476.85" y="-52" font-family="Helvetica,sans-Serif" font-size="10.00"> MacAddr</text>
<text text-anchor="middle" x="476.85" y="-41" font-family="Helvetica,sans-Serif" font-size="10.00">UFCOverflow</text>
</g>
<!-- Node5&#45;&gt;Node1 -->
<g id="edge5" class="edge">
<title>Node5&#45;&gt;Node1</title>
<path fill="none" stroke="#9a32cd" stroke-dasharray="5,2" d="M382.48,-119.54C369.62,-91.98 345.52,-40.31 335.94,-19.76"/>
<polygon fill="#9a32cd" stroke="#9a32cd" points="379.4,-121.22 386.8,-128.81 385.74,-118.26 379.4,-121.22"/>
<text text-anchor="middle" x="367.85" y="-46.5" font-family="Helvetica,sans-Serif" font-size="10.00"> Stats</text>
</g>
</g>
</svg>
