<?xml version="1.0" encoding="UTF-8" standalone="no"?>
<!DOCTYPE svg PUBLIC "-//W3C//DTD SVG 1.1//EN"
 "http://www.w3.org/Graphics/SVG/1.1/DTD/svg11.dtd">
<!-- Generated by graphviz version 2.43.0 (0)
 -->
<!-- Title: st_imrdrv_attr_sync_param_t Pages: 1 -->
<svg width="284pt" height="184pt"
 viewBox="0.00 0.00 284.00 184.00" xmlns="http://www.w3.org/2000/svg" xmlns:xlink="http://www.w3.org/1999/xlink">
<g id="graph0" class="graph" transform="scale(1 1) rotate(0) translate(4 180)">
<title>st_imrdrv_attr_sync_param_t</title>
<polygon fill="white" stroke="transparent" points="-4,4 -4,-180 280,-180 280,4 -4,4"/>
<!-- Node1 -->
<g id="node1" class="node">
<title>Node1</title>
<g id="a_node1"><a xlink:title=" ">
<polygon fill="#bfbfbf" stroke="black" points="32,-0.5 32,-30.5 145,-30.5 145,-0.5 32,-0.5"/>
<text text-anchor="start" x="40" y="-18.5" font-family="Helvetica,sans-Serif" font-size="10.00">st_imrdrv_attr_sync</text>
<text text-anchor="middle" x="88.5" y="-7.5" font-family="Helvetica,sans-Serif" font-size="10.00">_param_t</text>
</a>
</g>
</g>
<!-- Node2 -->
<g id="node2" class="node">
<title>Node2</title>
<g id="a_node2"><a xlink:title=" ">
<polygon fill="white" stroke="#bfbfbf" points="11.5,-84 11.5,-103 67.5,-103 67.5,-84 11.5,-84"/>
<text text-anchor="middle" x="39.5" y="-91" font-family="Helvetica,sans-Serif" font-size="10.00">uint32_t</text>
</a>
</g>
</g>
<!-- Node2&#45;&gt;Node1 -->
<g id="edge1" class="edge">
<title>Node2&#45;&gt;Node1</title>
<path fill="none" stroke="#9a32cd" stroke-dasharray="5,2" d="M37.34,-73.87C37.24,-65.76 38.32,-56.44 42.5,-49 46.62,-41.67 53.17,-35.6 60.04,-30.76"/>
<polygon fill="#9a32cd" stroke="#9a32cd" points="33.85,-74.14 38.03,-83.88 40.83,-73.66 33.85,-74.14"/>
<text text-anchor="middle" x="80.5" y="-52" font-family="Helvetica,sans-Serif" font-size="10.00"> valid_sync_idx</text>
</g>
<!-- Node3 -->
<g id="node3" class="node">
<title>Node3</title>
<g id="a_node3"><a xlink:href="structst__imrdrv__attr__sync__unit__t.html" target="_top" xlink:title=" ">
<polygon fill="white" stroke="black" points="86,-78.5 86,-108.5 199,-108.5 199,-78.5 86,-78.5"/>
<text text-anchor="start" x="94" y="-96.5" font-family="Helvetica,sans-Serif" font-size="10.00">st_imrdrv_attr_sync</text>
<text text-anchor="middle" x="142.5" y="-85.5" font-family="Helvetica,sans-Serif" font-size="10.00">_unit_t</text>
</a>
</g>
</g>
<!-- Node3&#45;&gt;Node1 -->
<g id="edge2" class="edge">
<title>Node3&#45;&gt;Node1</title>
<path fill="none" stroke="#9a32cd" stroke-dasharray="5,2" d="M130.88,-69C127.23,-62.33 122.97,-55.2 118.5,-49 113.92,-42.65 108.23,-36.2 103.03,-30.74"/>
<polygon fill="#9a32cd" stroke="#9a32cd" points="128,-71.04 135.75,-78.27 134.2,-67.79 128,-71.04"/>
<text text-anchor="middle" x="156" y="-52" font-family="Helvetica,sans-Serif" font-size="10.00"> sync_param</text>
</g>
<!-- Node4 -->
<g id="node4" class="node">
<title>Node4</title>
<g id="a_node4"><a xlink:title=" ">
<polygon fill="white" stroke="#bfbfbf" points="0,-156.5 0,-175.5 139,-175.5 139,-156.5 0,-156.5"/>
<text text-anchor="middle" x="69.5" y="-163.5" font-family="Helvetica,sans-Serif" font-size="10.00">e_imrdrv_sync_module_t</text>
</a>
</g>
</g>
<!-- Node4&#45;&gt;Node3 -->
<g id="edge3" class="edge">
<title>Node4&#45;&gt;Node3</title>
<path fill="none" stroke="#9a32cd" stroke-dasharray="5,2" d="M85.97,-149.09C98.58,-136.91 115.81,-120.27 127.92,-108.58"/>
<polygon fill="#9a32cd" stroke="#9a32cd" points="83.21,-146.89 78.45,-156.36 88.08,-151.93 83.21,-146.89"/>
<text text-anchor="middle" x="142.5" y="-130" font-family="Helvetica,sans-Serif" font-size="10.00"> sync_module</text>
</g>
<!-- Node5 -->
<g id="node5" class="node">
<title>Node5</title>
<g id="a_node5"><a xlink:title=" ">
<polygon fill="white" stroke="#bfbfbf" points="157,-156.5 157,-175.5 276,-175.5 276,-156.5 157,-156.5"/>
<text text-anchor="middle" x="216.5" y="-163.5" font-family="Helvetica,sans-Serif" font-size="10.00">e_imrdrv_syncc_no_t</text>
</a>
</g>
</g>
<!-- Node5&#45;&gt;Node3 -->
<g id="edge4" class="edge">
<title>Node5&#45;&gt;Node3</title>
<path fill="none" stroke="#9a32cd" stroke-dasharray="5,2" d="M201.92,-148.87C195.51,-141.97 187.79,-133.93 180.5,-127 173.96,-120.78 166.46,-114.25 159.86,-108.69"/>
<polygon fill="#9a32cd" stroke="#9a32cd" points="199.4,-151.3 208.74,-156.3 204.56,-146.57 199.4,-151.3"/>
<text text-anchor="middle" x="215" y="-130" font-family="Helvetica,sans-Serif" font-size="10.00"> syncc_no</text>
</g>
</g>
</svg>
