<?xml version="1.0" encoding="UTF-8" standalone="no"?>
<!DOCTYPE svg PUBLIC "-//W3C//DTD SVG 1.1//EN"
 "http://www.w3.org/Graphics/SVG/1.1/DTD/svg11.dtd">
<!-- Generated by graphviz version 2.43.0 (0)
 -->
<!-- Title: r_wm_Doc_ExpParam_t Pages: 1 -->
<svg width="433pt" height="264pt"
 viewBox="0.00 0.00 433.14 264.00" xmlns="http://www.w3.org/2000/svg" xmlns:xlink="http://www.w3.org/1999/xlink">
<g id="graph0" class="graph" transform="scale(1 1) rotate(0) translate(4 260)">
<title>r_wm_Doc_ExpParam_t</title>
<polygon fill="white" stroke="transparent" points="-4,4 -4,-260 429.14,-260 429.14,4 -4,4"/>
<!-- Node1 -->
<g id="node1" class="node">
<title>Node1</title>
<g id="a_node1"><a xlink:title="structure describing the DOC configuration">
<polygon fill="#bfbfbf" stroke="black" points="156.64,-0.5 156.64,-19.5 287.64,-19.5 287.64,-0.5 156.64,-0.5"/>
<text text-anchor="middle" x="222.14" y="-7.5" font-family="Helvetica,sans-Serif" font-size="10.00">r_wm_Doc_ExpParam_t</text>
</a>
</g>
</g>
<!-- Node2 -->
<g id="node2" class="node">
<title>Node2</title>
<g id="a_node2"><a xlink:href="structr__wm__DOC__rect.html" target="_top" xlink:title="structure describing the DOC Rectangle configuration">
<polygon fill="white" stroke="black" points="62.64,-68.5 62.64,-87.5 157.64,-87.5 157.64,-68.5 62.64,-68.5"/>
<text text-anchor="middle" x="110.14" y="-75.5" font-family="Helvetica,sans-Serif" font-size="10.00">r_wm_DOC_rect</text>
</a>
</g>
</g>
<!-- Node2&#45;&gt;Node1 -->
<g id="edge1" class="edge">
<title>Node2&#45;&gt;Node1</title>
<path fill="none" stroke="#9a32cd" stroke-dasharray="5,2" d="M133.62,-63.16C155.91,-50.03 188.72,-30.7 207.5,-19.63"/>
<polygon fill="#9a32cd" stroke="#9a32cd" points="131.63,-60.28 124.79,-68.37 135.18,-66.31 131.63,-60.28"/>
<text text-anchor="middle" x="188.14" y="-41" font-family="Helvetica,sans-Serif" font-size="10.00"> rect</text>
</g>
<!-- Node3 -->
<g id="node3" class="node">
<title>Node3</title>
<g id="a_node3"><a xlink:title=" ">
<polygon fill="white" stroke="#bfbfbf" points="82.14,-158.5 82.14,-177.5 138.14,-177.5 138.14,-158.5 82.14,-158.5"/>
<text text-anchor="middle" x="110.14" y="-165.5" font-family="Helvetica,sans-Serif" font-size="10.00">uint32_t</text>
</a>
</g>
</g>
<!-- Node3&#45;&gt;Node1 -->
<g id="edge8" class="edge">
<title>Node3&#45;&gt;Node1</title>
<path fill="none" stroke="#9a32cd" stroke-dasharray="5,2" d="M79.07,-154.28C39.73,-136.35 -19.83,-101.9 7.14,-67 25.4,-43.39 100.14,-27.86 156.42,-19.27"/>
<polygon fill="#9a32cd" stroke="#9a32cd" points="78,-157.64 88.56,-158.47 80.83,-151.23 78,-157.64"/>
<text text-anchor="middle" x="30.14" y="-81" font-family="Helvetica,sans-Serif" font-size="10.00"> DU_ch</text>
<text text-anchor="middle" x="30.14" y="-70" font-family="Helvetica,sans-Serif" font-size="10.00">threshold</text>
</g>
<!-- Node3&#45;&gt;Node2 -->
<g id="edge2" class="edge">
<title>Node3&#45;&gt;Node2</title>
<path fill="none" stroke="#9a32cd" stroke-dasharray="5,2" d="M110.14,-147.98C110.14,-129.31 110.14,-101.67 110.14,-87.72"/>
<polygon fill="#9a32cd" stroke="#9a32cd" points="106.64,-148.24 110.14,-158.24 113.64,-148.24 106.64,-148.24"/>
<text text-anchor="middle" x="127.14" y="-126.5" font-family="Helvetica,sans-Serif" font-size="10.00"> height</text>
<text text-anchor="middle" x="127.14" y="-115.5" font-family="Helvetica,sans-Serif" font-size="10.00">width</text>
</g>
<!-- Node4 -->
<g id="node4" class="node">
<title>Node4</title>
<g id="a_node4"><a xlink:href="structr__wm__DOC__pos.html" target="_top" xlink:title="structure describing the DOC Position configuration">
<polygon fill="white" stroke="black" points="175.64,-68.5 175.64,-87.5 268.64,-87.5 268.64,-68.5 175.64,-68.5"/>
<text text-anchor="middle" x="222.14" y="-75.5" font-family="Helvetica,sans-Serif" font-size="10.00">r_wm_DOC_pos</text>
</a>
</g>
</g>
<!-- Node3&#45;&gt;Node4 -->
<g id="edge4" class="edge">
<title>Node3&#45;&gt;Node4</title>
<path fill="none" stroke="#9a32cd" stroke-dasharray="5,2" d="M130.99,-152.6C136.61,-148.6 142.66,-144.2 148.14,-140 171.67,-121.98 198.26,-99.53 212.27,-87.52"/>
<polygon fill="#9a32cd" stroke="#9a32cd" points="128.8,-149.85 122.63,-158.47 132.82,-155.58 128.8,-149.85"/>
<text text-anchor="middle" x="205.14" y="-126.5" font-family="Helvetica,sans-Serif" font-size="10.00"> pos_x</text>
<text text-anchor="middle" x="205.14" y="-115.5" font-family="Helvetica,sans-Serif" font-size="10.00">pos_y</text>
</g>
<!-- Node4&#45;&gt;Node1 -->
<g id="edge3" class="edge">
<title>Node4&#45;&gt;Node1</title>
<path fill="none" stroke="#9a32cd" stroke-dasharray="5,2" d="M222.14,-58.04C222.14,-45.47 222.14,-29.56 222.14,-19.84"/>
<polygon fill="#9a32cd" stroke="#9a32cd" points="218.64,-58.37 222.14,-68.37 225.64,-58.37 218.64,-58.37"/>
<text text-anchor="middle" x="232.64" y="-41" font-family="Helvetica,sans-Serif" font-size="10.00"> pos</text>
</g>
<!-- Node5 -->
<g id="node5" class="node">
<title>Node5</title>
<g id="a_node5"><a xlink:href="structr__wm__DOC__color.html" target="_top" xlink:title="structure describing the DOC RGB configuration">
<polygon fill="white" stroke="black" points="325.14,-68.5 325.14,-87.5 425.14,-87.5 425.14,-68.5 325.14,-68.5"/>
<text text-anchor="middle" x="375.14" y="-75.5" font-family="Helvetica,sans-Serif" font-size="10.00">r_wm_DOC_color</text>
</a>
</g>
</g>
<!-- Node5&#45;&gt;Node1 -->
<g id="edge5" class="edge">
<title>Node5&#45;&gt;Node1</title>
<path fill="none" stroke="#9a32cd" stroke-dasharray="5,2" d="M354.4,-62.51C342.22,-54.48 326.29,-44.78 311.14,-38 294.05,-30.35 274.17,-24.09 257.55,-19.53"/>
<polygon fill="#9a32cd" stroke="#9a32cd" points="352.66,-65.56 362.91,-68.25 356.58,-59.76 352.66,-65.56"/>
<text text-anchor="middle" x="346.14" y="-41" font-family="Helvetica,sans-Serif" font-size="10.00"> color</text>
</g>
<!-- Node6 -->
<g id="node6" class="node">
<title>Node6</title>
<g id="a_node6"><a xlink:href="structcolor__threshold.html" target="_top" xlink:title="structure describing the DOC Color configuration">
<polygon fill="white" stroke="black" points="326.14,-158.5 326.14,-177.5 418.14,-177.5 418.14,-158.5 326.14,-158.5"/>
<text text-anchor="middle" x="372.14" y="-165.5" font-family="Helvetica,sans-Serif" font-size="10.00">color_threshold</text>
</a>
</g>
</g>
<!-- Node6&#45;&gt;Node5 -->
<g id="edge6" class="edge">
<title>Node6&#45;&gt;Node5</title>
<path fill="none" stroke="#9a32cd" stroke-dasharray="5,2" d="M372.78,-148.24C373.42,-129.57 374.37,-101.74 374.85,-87.72"/>
<polygon fill="#9a32cd" stroke="#9a32cd" points="369.29,-148.13 372.44,-158.24 376.28,-148.37 369.29,-148.13"/>
<text text-anchor="middle" x="389.14" y="-132" font-family="Helvetica,sans-Serif" font-size="10.00"> Blue</text>
<text text-anchor="middle" x="389.14" y="-121" font-family="Helvetica,sans-Serif" font-size="10.00">Green</text>
<text text-anchor="middle" x="389.14" y="-110" font-family="Helvetica,sans-Serif" font-size="10.00">Red</text>
</g>
<!-- Node7 -->
<g id="node7" class="node">
<title>Node7</title>
<g id="a_node7"><a xlink:title=" ">
<polygon fill="white" stroke="#bfbfbf" points="288.14,-236.5 288.14,-255.5 338.14,-255.5 338.14,-236.5 288.14,-236.5"/>
<text text-anchor="middle" x="313.14" y="-243.5" font-family="Helvetica,sans-Serif" font-size="10.00">uint8_t</text>
</a>
</g>
</g>
<!-- Node7&#45;&gt;Node1 -->
<g id="edge9" class="edge">
<title>Node7&#45;&gt;Node1</title>
<path fill="none" stroke="#9a32cd" stroke-dasharray="5,2" d="M312.79,-225.97C311.43,-192.06 305.18,-119.81 277.14,-67 266.67,-47.26 247.04,-29.83 234.29,-19.85"/>
<polygon fill="#9a32cd" stroke="#9a32cd" points="309.3,-226.37 313.1,-236.26 316.3,-226.17 309.3,-226.37"/>
<text text-anchor="middle" x="316.64" y="-121" font-family="Helvetica,sans-Serif" font-size="10.00"> CLUT</text>
</g>
<!-- Node7&#45;&gt;Node6 -->
<g id="edge7" class="edge">
<title>Node7&#45;&gt;Node6</title>
<path fill="none" stroke="#9a32cd" stroke-dasharray="5,2" d="M326.34,-228.01C338.48,-212.37 355.99,-189.81 365.46,-177.62"/>
<polygon fill="#9a32cd" stroke="#9a32cd" points="323.28,-226.24 319.91,-236.28 328.81,-230.53 323.28,-226.24"/>
<text text-anchor="middle" x="364.64" y="-210" font-family="Helvetica,sans-Serif" font-size="10.00"> lower</text>
<text text-anchor="middle" x="364.64" y="-199" font-family="Helvetica,sans-Serif" font-size="10.00">upper</text>
</g>
</g>
</svg>
