<?xml version="1.0" encoding="UTF-8" standalone="no"?>
<!DOCTYPE svg PUBLIC "-//W3C//DTD SVG 1.1//EN"
 "http://www.w3.org/Graphics/SVG/1.1/DTD/svg11.dtd">
<!-- Generated by graphviz version 2.43.0 (0)
 -->
<!-- Title: r_wm_Msg_Surf_Pos_t Pages: 1 -->
<svg width="136pt" height="128pt"
 viewBox="0.00 0.00 135.50 128.00" xmlns="http://www.w3.org/2000/svg" xmlns:xlink="http://www.w3.org/1999/xlink">
<g id="graph0" class="graph" transform="scale(1 1) rotate(0) translate(4 124)">
<title>r_wm_Msg_Surf_Pos_t</title>
<polygon fill="white" stroke="transparent" points="-4,4 -4,-124 131.5,-124 131.5,4 -4,4"/>
<!-- Node1 -->
<g id="node1" class="node">
<title>Node1</title>
<g id="a_node1"><a xlink:title=" ">
<polygon fill="#bfbfbf" stroke="black" points="0,-0.5 0,-19.5 125,-19.5 125,-0.5 0,-0.5"/>
<text text-anchor="middle" x="62.5" y="-7.5" font-family="Helvetica,sans-Serif" font-size="10.00">r_wm_Msg_Surf_Pos_t</text>
</a>
</g>
</g>
<!-- Node2 -->
<g id="node2" class="node">
<title>Node2</title>
<g id="a_node2"><a xlink:title=" ">
<polygon fill="white" stroke="#bfbfbf" points="0.5,-100.5 0.5,-119.5 56.5,-119.5 56.5,-100.5 0.5,-100.5"/>
<text text-anchor="middle" x="28.5" y="-107.5" font-family="Helvetica,sans-Serif" font-size="10.00">uint32_t</text>
</a>
</g>
</g>
<!-- Node2&#45;&gt;Node1 -->
<g id="edge1" class="edge">
<title>Node2&#45;&gt;Node1</title>
<path fill="none" stroke="#9a32cd" stroke-dasharray="5,2" d="M33.61,-90.42C37.73,-75.98 43.92,-55.52 50.5,-38 52.81,-31.85 55.81,-25.1 58.23,-19.89"/>
<polygon fill="#9a32cd" stroke="#9a32cd" points="30.21,-89.57 30.88,-100.14 36.95,-91.46 30.21,-89.57"/>
<text text-anchor="middle" x="63" y="-74" font-family="Helvetica,sans-Serif" font-size="10.00"> Pid</text>
<text text-anchor="middle" x="63" y="-63" font-family="Helvetica,sans-Serif" font-size="10.00">PosX</text>
<text text-anchor="middle" x="63" y="-52" font-family="Helvetica,sans-Serif" font-size="10.00">PosY</text>
<text text-anchor="middle" x="63" y="-41" font-family="Helvetica,sans-Serif" font-size="10.00">PosZ</text>
</g>
<!-- Node3 -->
<g id="node3" class="node">
<title>Node3</title>
<g id="a_node3"><a xlink:title=" ">
<polygon fill="white" stroke="#bfbfbf" points="74.5,-100.5 74.5,-119.5 120.5,-119.5 120.5,-100.5 74.5,-100.5"/>
<text text-anchor="middle" x="97.5" y="-107.5" font-family="Helvetica,sans-Serif" font-size="10.00">void *</text>
</a>
</g>
</g>
<!-- Node3&#45;&gt;Node1 -->
<g id="edge2" class="edge">
<title>Node3&#45;&gt;Node1</title>
<path fill="none" stroke="#9a32cd" stroke-dasharray="5,2" d="M92.54,-90.36C88.5,-75.89 82.35,-55.42 75.5,-38 73.06,-31.8 69.81,-25.05 67.17,-19.85"/>
<polygon fill="#9a32cd" stroke="#9a32cd" points="89.19,-91.38 95.2,-100.11 95.95,-89.54 89.19,-91.38"/>
<text text-anchor="middle" x="108.5" y="-57.5" font-family="Helvetica,sans-Serif" font-size="10.00"> Handle</text>
</g>
</g>
</svg>
