<?xml version="1.0" encoding="UTF-8" standalone="no"?>
<!DOCTYPE svg PUBLIC "-//W3C//DTD SVG 1.1//EN"
 "http://www.w3.org/Graphics/SVG/1.1/DTD/svg11.dtd">
<!-- Generated by graphviz version 2.43.0 (0)
 -->
<!-- Title: taurus_ether_provide_tx_buffer_out Pages: 1 -->
<svg width="214pt" height="117pt"
 viewBox="0.00 0.00 214.00 117.00" xmlns="http://www.w3.org/2000/svg" xmlns:xlink="http://www.w3.org/1999/xlink">
<g id="graph0" class="graph" transform="scale(1 1) rotate(0) translate(4 113)">
<title>taurus_ether_provide_tx_buffer_out</title>
<polygon fill="white" stroke="transparent" points="-4,4 -4,-113 210,-113 210,4 -4,4"/>
<!-- Node1 -->
<g id="node1" class="node">
<title>Node1</title>
<g id="a_node1"><a xlink:title=" ">
<polygon fill="#bfbfbf" stroke="black" points="42,-0.5 42,-30.5 162,-30.5 162,-0.5 42,-0.5"/>
<text text-anchor="start" x="50" y="-18.5" font-family="Helvetica,sans-Serif" font-size="10.00">taurus_ether_provide</text>
<text text-anchor="middle" x="102" y="-7.5" font-family="Helvetica,sans-Serif" font-size="10.00">_tx_buffer_out</text>
</a>
</g>
</g>
<!-- Node2 -->
<g id="node2" class="node">
<title>Node2</title>
<g id="a_node2"><a xlink:title=" ">
<polygon fill="white" stroke="#bfbfbf" points="0,-89.5 0,-108.5 56,-108.5 56,-89.5 0,-89.5"/>
<text text-anchor="middle" x="28" y="-96.5" font-family="Helvetica,sans-Serif" font-size="10.00">uint64_t</text>
</a>
</g>
</g>
<!-- Node2&#45;&gt;Node1 -->
<g id="edge1" class="edge">
<title>Node2&#45;&gt;Node1</title>
<path fill="none" stroke="#9a32cd" stroke-dasharray="5,2" d="M38.32,-80.67C44.56,-70.87 53.02,-58.68 62,-49 68.08,-42.44 75.52,-36.04 82.32,-30.69"/>
<polygon fill="#9a32cd" stroke="#9a32cd" points="35.15,-79.15 32.88,-89.5 41.11,-82.82 35.15,-79.15"/>
<text text-anchor="middle" x="80" y="-63" font-family="Helvetica,sans-Serif" font-size="10.00"> cookie</text>
<text text-anchor="middle" x="80" y="-52" font-family="Helvetica,sans-Serif" font-size="10.00">res</text>
</g>
<!-- Node3 -->
<g id="node3" class="node">
<title>Node3</title>
<g id="a_node3"><a xlink:title=" ">
<polygon fill="white" stroke="#bfbfbf" points="74,-89.5 74,-108.5 130,-108.5 130,-89.5 74,-89.5"/>
<text text-anchor="middle" x="102" y="-96.5" font-family="Helvetica,sans-Serif" font-size="10.00">uint16_t</text>
</a>
</g>
</g>
<!-- Node3&#45;&gt;Node1 -->
<g id="edge2" class="edge">
<title>Node3&#45;&gt;Node1</title>
<path fill="none" stroke="#9a32cd" stroke-dasharray="5,2" d="M102,-79.23C102,-64.41 102,-44.05 102,-30.6"/>
<polygon fill="#9a32cd" stroke="#9a32cd" points="98.5,-79.28 102,-89.28 105.5,-79.28 98.5,-79.28"/>
<text text-anchor="middle" x="123.5" y="-57.5" font-family="Helvetica,sans-Serif" font-size="10.00"> LenByte</text>
</g>
<!-- Node4 -->
<g id="node4" class="node">
<title>Node4</title>
<g id="a_node4"><a xlink:title=" ">
<polygon fill="white" stroke="#bfbfbf" points="148,-89.5 148,-108.5 204,-108.5 204,-89.5 148,-89.5"/>
<text text-anchor="middle" x="176" y="-96.5" font-family="Helvetica,sans-Serif" font-size="10.00">uint32_t</text>
</a>
</g>
</g>
<!-- Node4&#45;&gt;Node1 -->
<g id="edge3" class="edge">
<title>Node4&#45;&gt;Node1</title>
<path fill="none" stroke="#9a32cd" stroke-dasharray="5,2" d="M168.55,-79.99C163.89,-70.13 157.22,-58.09 149,-49 142.75,-42.08 134.75,-35.86 127.13,-30.76"/>
<polygon fill="#9a32cd" stroke="#9a32cd" points="165.41,-81.54 172.65,-89.27 171.81,-78.71 165.41,-81.54"/>
<text text-anchor="middle" x="184.5" y="-63" font-family="Helvetica,sans-Serif" font-size="10.00"> BufAddr</text>
<text text-anchor="middle" x="184.5" y="-52" font-family="Helvetica,sans-Serif" font-size="10.00">BufIdx</text>
</g>
</g>
</svg>
