<?xml version="1.0" encoding="UTF-8" standalone="no"?>
<!DOCTYPE svg PUBLIC "-//W3C//DTD SVG 1.1//EN"
 "http://www.w3.org/Graphics/SVG/1.1/DTD/svg11.dtd">
<!-- Generated by graphviz version 2.43.0 (0)
 -->
<!-- Title: r_wm_DOC_Status_t Pages: 1 -->
<svg width="198pt" height="150pt"
 viewBox="0.00 0.00 198.00 150.00" xmlns="http://www.w3.org/2000/svg" xmlns:xlink="http://www.w3.org/1999/xlink">
<g id="graph0" class="graph" transform="scale(1 1) rotate(0) translate(4 146)">
<title>r_wm_DOC_Status_t</title>
<polygon fill="white" stroke="transparent" points="-4,4 -4,-146 194,-146 194,4 -4,4"/>
<!-- Node1 -->
<g id="node1" class="node">
<title>Node1</title>
<g id="a_node1"><a xlink:title=" ">
<polygon fill="#bfbfbf" stroke="black" points="10,-0.5 10,-19.5 126,-19.5 126,-0.5 10,-0.5"/>
<text text-anchor="middle" x="68" y="-7.5" font-family="Helvetica,sans-Serif" font-size="10.00">r_wm_DOC_Status_t</text>
</a>
</g>
</g>
<!-- Node2 -->
<g id="node2" class="node">
<title>Node2</title>
<g id="a_node2"><a xlink:title=" ">
<polygon fill="white" stroke="#bfbfbf" points="0,-122.5 0,-141.5 56,-141.5 56,-122.5 0,-122.5"/>
<text text-anchor="middle" x="28" y="-129.5" font-family="Helvetica,sans-Serif" font-size="10.00">uint32_t</text>
</a>
</g>
</g>
<!-- Node2&#45;&gt;Node1 -->
<g id="edge1" class="edge">
<title>Node2&#45;&gt;Node1</title>
<path fill="none" stroke="#9a32cd" stroke-dasharray="5,2" d="M23.47,-112.58C19.66,-92.89 16.6,-61.36 29,-38 33.25,-30 41.05,-23.89 48.56,-19.52"/>
<polygon fill="#9a32cd" stroke="#9a32cd" points="20.06,-113.4 25.63,-122.41 26.9,-111.89 20.06,-113.4"/>
<text text-anchor="middle" x="57.5" y="-68.5" font-family="Helvetica,sans-Serif" font-size="10.00"> VocSelMon</text>
</g>
<!-- Node3 -->
<g id="node3" class="node">
<title>Node3</title>
<g id="a_node3"><a xlink:title=" ">
<polygon fill="white" stroke="#bfbfbf" points="89,-122.5 89,-141.5 127,-141.5 127,-122.5 89,-122.5"/>
<text text-anchor="middle" x="108" y="-129.5" font-family="Helvetica,sans-Serif" font-size="10.00">bool</text>
</a>
</g>
</g>
<!-- Node3&#45;&gt;Node1 -->
<g id="edge2" class="edge">
<title>Node3&#45;&gt;Node1</title>
<path fill="none" stroke="#9a32cd" stroke-dasharray="5,2" d="M105.58,-112.35C102.64,-93.12 96.68,-62.56 86,-38 83.12,-31.39 78.62,-24.64 74.84,-19.54"/>
<polygon fill="#9a32cd" stroke="#9a32cd" points="102.15,-113.06 107.01,-122.47 109.08,-112.08 102.15,-113.06"/>
<text text-anchor="middle" x="147" y="-96" font-family="Helvetica,sans-Serif" font-size="10.00"> ActMonError0</text>
<text text-anchor="middle" x="147" y="-85" font-family="Helvetica,sans-Serif" font-size="10.00">ActMonError1</text>
<text text-anchor="middle" x="147" y="-74" font-family="Helvetica,sans-Serif" font-size="10.00">MonitorStatus</text>
<text text-anchor="middle" x="147" y="-63" font-family="Helvetica,sans-Serif" font-size="10.00">ParameterError</text>
<text text-anchor="middle" x="147" y="-52" font-family="Helvetica,sans-Serif" font-size="10.00">VocMonitorStatus</text>
<text text-anchor="middle" x="147" y="-41" font-family="Helvetica,sans-Serif" font-size="10.00">VomError</text>
</g>
</g>
</svg>
