<?xml version="1.0" encoding="UTF-8" standalone="no"?>
<!DOCTYPE svg PUBLIC "-//W3C//DTD SVG 1.1//EN"
 "http://www.w3.org/Graphics/SVG/1.1/DTD/svg11.dtd">
<!-- Generated by graphviz version 2.43.0 (0)
 -->
<!-- Title: r_cio_ether_get_egress_time_stamp Pages: 1 -->
<svg width="353pt" height="195pt"
 viewBox="0.00 0.00 352.50 195.00" xmlns="http://www.w3.org/2000/svg" xmlns:xlink="http://www.w3.org/1999/xlink">
<g id="graph0" class="graph" transform="scale(1 1) rotate(0) translate(4 191)">
<title>r_cio_ether_get_egress_time_stamp</title>
<polygon fill="white" stroke="transparent" points="-4,4 -4,-191 348.5,-191 348.5,4 -4,4"/>
<!-- Node1 -->
<g id="node1" class="node">
<title>Node1</title>
<g id="a_node1"><a xlink:title=" ">
<polygon fill="#bfbfbf" stroke="black" points="159,-0.5 159,-30.5 288,-30.5 288,-0.5 159,-0.5"/>
<text text-anchor="start" x="167" y="-18.5" font-family="Helvetica,sans-Serif" font-size="10.00">r_cio_ether_get_egress</text>
<text text-anchor="middle" x="223.5" y="-7.5" font-family="Helvetica,sans-Serif" font-size="10.00">_time_stamp</text>
</a>
</g>
</g>
<!-- Node2 -->
<g id="node2" class="node">
<title>Node2</title>
<g id="a_node2"><a xlink:title=" ">
<polygon fill="white" stroke="#bfbfbf" points="0,-89.5 0,-108.5 147,-108.5 147,-89.5 0,-89.5"/>
<text text-anchor="middle" x="73.5" y="-96.5" font-family="Helvetica,sans-Serif" font-size="10.00">Eth_TimeStampQualType *</text>
</a>
</g>
</g>
<!-- Node2&#45;&gt;Node1 -->
<g id="edge1" class="edge">
<title>Node2&#45;&gt;Node1</title>
<path fill="none" stroke="#9a32cd" stroke-dasharray="5,2" d="M96.16,-84.2C112.93,-74.13 136.42,-60.32 157.5,-49 169.2,-42.72 182.29,-36.17 193.7,-30.62"/>
<polygon fill="#9a32cd" stroke="#9a32cd" points="94.35,-81.2 87.6,-89.37 97.97,-87.2 94.35,-81.2"/>
<text text-anchor="middle" x="188.5" y="-57.5" font-family="Helvetica,sans-Serif" font-size="10.00"> timeQualPtr</text>
</g>
<!-- Node3 -->
<g id="node3" class="node">
<title>Node3</title>
<g id="a_node3"><a xlink:href="structEth__TimeStampType.html" target="_top" xlink:title=" ">
<polygon fill="white" stroke="black" points="165.5,-89.5 165.5,-108.5 281.5,-108.5 281.5,-89.5 165.5,-89.5"/>
<text text-anchor="middle" x="223.5" y="-96.5" font-family="Helvetica,sans-Serif" font-size="10.00">Eth_TimeStampType</text>
</a>
</g>
</g>
<!-- Node3&#45;&gt;Node1 -->
<g id="edge2" class="edge">
<title>Node3&#45;&gt;Node1</title>
<path fill="none" stroke="#9a32cd" stroke-dasharray="5,2" d="M223.5,-79.23C223.5,-64.41 223.5,-44.05 223.5,-30.6"/>
<polygon fill="#9a32cd" stroke="#9a32cd" points="220,-79.28 223.5,-89.28 227,-79.28 220,-79.28"/>
<text text-anchor="middle" x="259" y="-57.5" font-family="Helvetica,sans-Serif" font-size="10.00"> timeStampPtr</text>
</g>
<!-- Node4 -->
<g id="node4" class="node">
<title>Node4</title>
<g id="a_node4"><a xlink:title=" ">
<polygon fill="white" stroke="#bfbfbf" points="128,-167.5 128,-186.5 213,-186.5 213,-167.5 128,-167.5"/>
<text text-anchor="middle" x="170.5" y="-174.5" font-family="Helvetica,sans-Serif" font-size="10.00">unsigned long</text>
</a>
</g>
</g>
<!-- Node4&#45;&gt;Node3 -->
<g id="edge3" class="edge">
<title>Node4&#45;&gt;Node3</title>
<path fill="none" stroke="#9a32cd" stroke-dasharray="5,2" d="M166.57,-157.38C165.52,-147.65 165.95,-135.93 171.5,-127 176.71,-118.62 185.44,-112.71 194.27,-108.61"/>
<polygon fill="#9a32cd" stroke="#9a32cd" points="163.12,-157.98 168.18,-167.29 170.03,-156.85 163.12,-157.98"/>
<text text-anchor="middle" x="205" y="-141" font-family="Helvetica,sans-Serif" font-size="10.00"> nanoseconds</text>
<text text-anchor="middle" x="205" y="-130" font-family="Helvetica,sans-Serif" font-size="10.00">seconds</text>
</g>
<!-- Node5 -->
<g id="node5" class="node">
<title>Node5</title>
<g id="a_node5"><a xlink:title=" ">
<polygon fill="white" stroke="#bfbfbf" points="231,-167.5 231,-186.5 320,-186.5 320,-167.5 231,-167.5"/>
<text text-anchor="middle" x="275.5" y="-174.5" font-family="Helvetica,sans-Serif" font-size="10.00">unsigned short</text>
</a>
</g>
</g>
<!-- Node5&#45;&gt;Node3 -->
<g id="edge4" class="edge">
<title>Node5&#45;&gt;Node3</title>
<path fill="none" stroke="#9a32cd" stroke-dasharray="5,2" d="M263.87,-159.01C253.17,-143.37 237.74,-120.81 229.4,-108.62"/>
<polygon fill="#9a32cd" stroke="#9a32cd" points="261,-161.01 269.53,-167.28 266.78,-157.05 261,-161.01"/>
<text text-anchor="middle" x="282.5" y="-135.5" font-family="Helvetica,sans-Serif" font-size="10.00"> secondsHi</text>
</g>
<!-- Node6 -->
<g id="node6" class="node">
<title>Node6</title>
<g id="a_node6"><a xlink:title=" ">
<polygon fill="white" stroke="#bfbfbf" points="299.5,-89.5 299.5,-108.5 337.5,-108.5 337.5,-89.5 299.5,-89.5"/>
<text text-anchor="middle" x="318.5" y="-96.5" font-family="Helvetica,sans-Serif" font-size="10.00">char</text>
</a>
</g>
</g>
<!-- Node6&#45;&gt;Node1 -->
<g id="edge5" class="edge">
<title>Node6&#45;&gt;Node1</title>
<path fill="none" stroke="#9a32cd" stroke-dasharray="5,2" d="M313.7,-79.42C310.31,-69.35 304.84,-57.32 296.5,-49 288.74,-41.26 278.82,-35.21 268.8,-30.53"/>
<polygon fill="#9a32cd" stroke="#9a32cd" points="310.43,-80.69 316.62,-89.29 317.15,-78.71 310.43,-80.69"/>
<text text-anchor="middle" x="327" y="-63" font-family="Helvetica,sans-Serif" font-size="10.00"> BufIdx</text>
<text text-anchor="middle" x="327" y="-52" font-family="Helvetica,sans-Serif" font-size="10.00">CtrlIdx</text>
</g>
</g>
</svg>
