<?xml version="1.0" encoding="UTF-8" standalone="no"?>
<!DOCTYPE svg PUBLIC "-//W3C//DTD SVG 1.1//EN"
 "http://www.w3.org/Graphics/SVG/1.1/DTD/svg11.dtd">
<!-- Generated by graphviz version 2.43.0 (0)
 -->
<!-- Title: taurus_camera_cmd_msg Pages: 1 -->
<svg width="789pt" height="513pt"
 viewBox="0.00 0.00 789.00 512.52" xmlns="http://www.w3.org/2000/svg" xmlns:xlink="http://www.w3.org/1999/xlink">
<g id="graph0" class="graph" transform="scale(1 1) rotate(0) translate(4 508.52)">
<title>taurus_camera_cmd_msg</title>
<polygon fill="white" stroke="transparent" points="-4,4 -4,-508.52 785,-508.52 785,4 -4,4"/>
<!-- Node1 -->
<g id="node1" class="node">
<title>Node1</title>
<g id="a_node1"><a xlink:title=" ">
<polygon fill="#bfbfbf" stroke="black" points="639,-272.35 639,-291.35 781,-291.35 781,-272.35 639,-272.35"/>
<text text-anchor="middle" x="710" y="-279.35" font-family="Helvetica,sans-Serif" font-size="10.00">taurus_camera_cmd_msg</text>
</a>
</g>
</g>
<!-- Node2 -->
<g id="node2" class="node">
<title>Node2</title>
<g id="a_node2"><a xlink:href="structtaurus__camera__ioc__get__channel__info__in.html" target="_top" xlink:title=" ">
<polygon fill="white" stroke="black" points="340,-339.85 340,-369.85 470,-369.85 470,-339.85 340,-339.85"/>
<text text-anchor="start" x="348" y="-357.85" font-family="Helvetica,sans-Serif" font-size="10.00">taurus_camera_ioc_get</text>
<text text-anchor="middle" x="405" y="-346.85" font-family="Helvetica,sans-Serif" font-size="10.00">_channel_info_in</text>
</a>
</g>
</g>
<!-- Node2&#45;&gt;Node1 -->
<g id="edge1" class="edge">
<title>Node2&#45;&gt;Node1</title>
<path fill="none" stroke="#9a32cd" stroke-dasharray="5,2" d="M480.15,-343.11C521.87,-335.83 574.73,-325.45 621,-312.85 643.04,-306.85 667.49,-298.05 685.02,-291.36"/>
<polygon fill="#9a32cd" stroke="#9a32cd" points="479.32,-339.7 470.06,-344.85 480.51,-346.6 479.32,-339.7"/>
<text text-anchor="middle" x="560" y="-341.85" font-family="Helvetica,sans-Serif" font-size="10.00"> ioc_get_channel_info</text>
</g>
<!-- Node3 -->
<g id="node3" class="node">
<title>Node3</title>
<g id="a_node3"><a xlink:title=" ">
<polygon fill="white" stroke="#bfbfbf" points="167.5,-221.35 167.5,-240.35 223.5,-240.35 223.5,-221.35 167.5,-221.35"/>
<text text-anchor="middle" x="195.5" y="-228.35" font-family="Helvetica,sans-Serif" font-size="10.00">uint64_t</text>
</a>
</g>
</g>
<!-- Node3&#45;&gt;Node2 -->
<g id="edge2" class="edge">
<title>Node3&#45;&gt;Node2</title>
<path fill="none" stroke="#9a32cd" stroke-dasharray="5,2" d="M214.32,-247.46C238.58,-269.29 284.14,-307.6 329,-330.85 335.43,-334.18 342.42,-337.17 349.45,-339.8"/>
<polygon fill="#9a32cd" stroke="#9a32cd" points="216.41,-244.62 206.66,-240.47 211.69,-249.8 216.41,-244.62"/>
<text text-anchor="middle" x="293" y="-321.85" font-family="Helvetica,sans-Serif" font-size="10.00"> cookie</text>
</g>
<!-- Node6 -->
<g id="node6" class="node">
<title>Node6</title>
<g id="a_node6"><a xlink:href="structtaurus__camera__ioc__channel__init__in.html" target="_top" xlink:title=" ">
<polygon fill="white" stroke="black" points="329,-427.85 329,-457.85 481,-457.85 481,-427.85 329,-427.85"/>
<text text-anchor="start" x="337" y="-445.85" font-family="Helvetica,sans-Serif" font-size="10.00">taurus_camera_ioc_channel</text>
<text text-anchor="middle" x="405" y="-434.85" font-family="Helvetica,sans-Serif" font-size="10.00">_init_in</text>
</a>
</g>
</g>
<!-- Node3&#45;&gt;Node6 -->
<g id="edge6" class="edge">
<title>Node3&#45;&gt;Node6</title>
<path fill="none" stroke="#9a32cd" stroke-dasharray="5,2" d="M220.13,-246.61C232.97,-256.41 248.03,-270.12 257,-285.85 276.57,-320.15 254.7,-338.98 275,-372.85 283.03,-386.25 315.35,-410.25 329,-417.85 335.71,-421.59 343.08,-424.89 350.49,-427.76"/>
<polygon fill="#9a32cd" stroke="#9a32cd" points="221.84,-243.53 211.69,-240.48 217.72,-249.19 221.84,-243.53"/>
<text text-anchor="middle" x="293" y="-407.85" font-family="Helvetica,sans-Serif" font-size="10.00"> cookie</text>
</g>
<!-- Node8 -->
<g id="node8" class="node">
<title>Node8</title>
<g id="a_node8"><a xlink:href="structtaurus__camera__ioc__channel__release__in.html" target="_top" xlink:title=" ">
<polygon fill="white" stroke="black" points="329,-290.85 329,-320.85 481,-320.85 481,-290.85 329,-290.85"/>
<text text-anchor="start" x="337" y="-308.85" font-family="Helvetica,sans-Serif" font-size="10.00">taurus_camera_ioc_channel</text>
<text text-anchor="middle" x="405" y="-297.85" font-family="Helvetica,sans-Serif" font-size="10.00">_release_in</text>
</a>
</g>
</g>
<!-- Node3&#45;&gt;Node8 -->
<g id="edge11" class="edge">
<title>Node3&#45;&gt;Node8</title>
<path fill="none" stroke="#9a32cd" stroke-dasharray="5,2" d="M229.9,-244.32C256.57,-254.93 294.98,-269.87 329,-281.85 337.51,-284.85 346.62,-287.89 355.45,-290.76"/>
<polygon fill="#9a32cd" stroke="#9a32cd" points="230.87,-240.94 220.28,-240.48 228.27,-247.44 230.87,-240.94"/>
<text text-anchor="middle" x="293" y="-277.85" font-family="Helvetica,sans-Serif" font-size="10.00"> cookie</text>
</g>
<!-- Node9 -->
<g id="node9" class="node">
<title>Node9</title>
<g id="a_node9"><a xlink:href="structtaurus__camera__ioc__channel__feed__buffer__in.html" target="_top" xlink:title=" ">
<polygon fill="white" stroke="black" points="329,-192.85 329,-222.85 481,-222.85 481,-192.85 329,-192.85"/>
<text text-anchor="start" x="337" y="-210.85" font-family="Helvetica,sans-Serif" font-size="10.00">taurus_camera_ioc_channel</text>
<text text-anchor="middle" x="405" y="-199.85" font-family="Helvetica,sans-Serif" font-size="10.00">_feed_buffer_in</text>
</a>
</g>
</g>
<!-- Node3&#45;&gt;Node9 -->
<g id="edge14" class="edge">
<title>Node3&#45;&gt;Node9</title>
<path fill="none" stroke="#9a32cd" stroke-dasharray="5,2" d="M233.6,-222.12C246.62,-219.37 261.39,-216.6 275,-214.85 292.35,-212.62 311.11,-211.1 328.8,-210.07"/>
<polygon fill="#9a32cd" stroke="#9a32cd" points="232.61,-218.76 223.58,-224.31 234.1,-225.6 232.61,-218.76"/>
<text text-anchor="middle" x="293" y="-217.85" font-family="Helvetica,sans-Serif" font-size="10.00"> cookie</text>
</g>
<!-- Node10 -->
<g id="node10" class="node">
<title>Node10</title>
<g id="a_node10"><a xlink:href="structtaurus__camera__ioc__channel__start__in.html" target="_top" xlink:title=" ">
<polygon fill="white" stroke="black" points="329,-143.85 329,-173.85 481,-173.85 481,-143.85 329,-143.85"/>
<text text-anchor="start" x="337" y="-161.85" font-family="Helvetica,sans-Serif" font-size="10.00">taurus_camera_ioc_channel</text>
<text text-anchor="middle" x="405" y="-150.85" font-family="Helvetica,sans-Serif" font-size="10.00">_start_in</text>
</a>
</g>
</g>
<!-- Node3&#45;&gt;Node10 -->
<g id="edge18" class="edge">
<title>Node3&#45;&gt;Node10</title>
<path fill="none" stroke="#9a32cd" stroke-dasharray="5,2" d="M224.97,-217C239.7,-210.13 258.09,-202.01 275,-195.85 297.55,-187.63 322.83,-180.04 345.01,-173.9"/>
<polygon fill="#9a32cd" stroke="#9a32cd" points="223.41,-213.86 215.87,-221.3 226.4,-220.19 223.41,-213.86"/>
<text text-anchor="middle" x="293" y="-198.85" font-family="Helvetica,sans-Serif" font-size="10.00"> cookie</text>
</g>
<!-- Node11 -->
<g id="node11" class="node">
<title>Node11</title>
<g id="a_node11"><a xlink:href="structtaurus__camera__ioc__channel__stop__in.html" target="_top" xlink:title=" ">
<polygon fill="white" stroke="black" points="329,-94.85 329,-124.85 481,-124.85 481,-94.85 329,-94.85"/>
<text text-anchor="start" x="337" y="-112.85" font-family="Helvetica,sans-Serif" font-size="10.00">taurus_camera_ioc_channel</text>
<text text-anchor="middle" x="405" y="-101.85" font-family="Helvetica,sans-Serif" font-size="10.00">_stop_in</text>
</a>
</g>
</g>
<!-- Node3&#45;&gt;Node11 -->
<g id="edge22" class="edge">
<title>Node3&#45;&gt;Node11</title>
<path fill="none" stroke="#9a32cd" stroke-dasharray="5,2" d="M214.22,-214.4C238.38,-192.83 283.83,-155.25 329,-133.85 335.92,-130.57 343.4,-127.58 350.87,-124.91"/>
<polygon fill="#9a32cd" stroke="#9a32cd" points="211.66,-212 206.6,-221.3 216.36,-217.18 211.66,-212"/>
<text text-anchor="middle" x="293" y="-165.85" font-family="Helvetica,sans-Serif" font-size="10.00"> cookie</text>
</g>
<!-- Node12 -->
<g id="node12" class="node">
<title>Node12</title>
<g id="a_node12"><a xlink:href="structtaurus__camera__ioc__get__info__in.html" target="_top" xlink:title=" ">
<polygon fill="white" stroke="black" points="340,-241.85 340,-271.85 470,-271.85 470,-241.85 340,-241.85"/>
<text text-anchor="start" x="348" y="-259.85" font-family="Helvetica,sans-Serif" font-size="10.00">taurus_camera_ioc_get</text>
<text text-anchor="middle" x="405" y="-248.85" font-family="Helvetica,sans-Serif" font-size="10.00">_info_in</text>
</a>
</g>
</g>
<!-- Node3&#45;&gt;Node12 -->
<g id="edge25" class="edge">
<title>Node3&#45;&gt;Node12</title>
<path fill="none" stroke="#9a32cd" stroke-dasharray="5,2" d="M233.88,-235.53C263.31,-239.22 305.02,-244.45 339.77,-248.8"/>
<polygon fill="#9a32cd" stroke="#9a32cd" points="233.98,-232.02 223.63,-234.25 233.11,-238.96 233.98,-232.02"/>
<text text-anchor="middle" x="293" y="-246.85" font-family="Helvetica,sans-Serif" font-size="10.00"> cookie</text>
</g>
<!-- Node13 -->
<g id="node13" class="node">
<title>Node13</title>
<g id="a_node13"><a xlink:href="structR__TAURUS__CmdMsg__t.html" target="_top" xlink:title=" ">
<polygon fill="white" stroke="black" points="342.5,-30.35 342.5,-49.35 467.5,-49.35 467.5,-30.35 342.5,-30.35"/>
<text text-anchor="middle" x="405" y="-37.35" font-family="Helvetica,sans-Serif" font-size="10.00">R_TAURUS_CmdMsg_t</text>
</a>
</g>
</g>
<!-- Node3&#45;&gt;Node13 -->
<g id="edge27" class="edge">
<title>Node3&#45;&gt;Node13</title>
<path fill="none" stroke="#9a32cd" stroke-dasharray="5,2" d="M218.14,-215.03C231.16,-204.45 247.09,-189.45 257,-172.85 272.37,-147.11 256.2,-131.2 275,-107.85 299.29,-77.68 340.63,-59.28 369.95,-49.36"/>
<polygon fill="#9a32cd" stroke="#9a32cd" points="215.82,-212.4 210.09,-221.32 220.13,-217.92 215.82,-212.4"/>
<text text-anchor="middle" x="293" y="-132.85" font-family="Helvetica,sans-Serif" font-size="10.00"> Par1</text>
<text text-anchor="middle" x="293" y="-121.85" font-family="Helvetica,sans-Serif" font-size="10.00">Par2</text>
<text text-anchor="middle" x="293" y="-110.85" font-family="Helvetica,sans-Serif" font-size="10.00">Par3</text>
</g>
<!-- Node4 -->
<g id="node4" class="node">
<title>Node4</title>
<g id="a_node4"><a xlink:title=" ">
<polygon fill="white" stroke="#bfbfbf" points="0,-298.35 0,-317.35 56,-317.35 56,-298.35 0,-298.35"/>
<text text-anchor="middle" x="28" y="-305.35" font-family="Helvetica,sans-Serif" font-size="10.00">uint32_t</text>
</a>
</g>
</g>
<!-- Node4&#45;&gt;Node1 -->
<g id="edge20" class="edge">
<title>Node4&#45;&gt;Node1</title>
<path fill="none" stroke="#9a32cd" stroke-dasharray="5,2" d="M32.5,-327.31C37.97,-353.88 50.46,-402.16 74,-436.85 93.81,-466.05 100.94,-476.52 134,-488.85 185.22,-507.96 202.39,-491.39 257,-488.85 419.31,-481.29 486.59,-546.15 621,-454.85 680.37,-414.52 701.87,-321.54 707.41,-291.44"/>
<polygon fill="#9a32cd" stroke="#9a32cd" points="35.91,-326.51 30.57,-317.35 29.04,-327.84 35.91,-326.51"/>
<text text-anchor="middle" x="293" y="-490.85" font-family="Helvetica,sans-Serif" font-size="10.00"> type</text>
</g>
<!-- Node4&#45;&gt;Node2 -->
<g id="edge3" class="edge">
<title>Node4&#45;&gt;Node2</title>
<path fill="none" stroke="#9a32cd" stroke-dasharray="5,2" d="M39.6,-326.24C47.7,-338.98 59.85,-355.62 74,-366.85 108.02,-393.86 247.22,-439.98 275,-444.85 290.76,-447.61 298.27,-454.54 311,-444.85 334.86,-426.7 308.36,-401.59 329,-379.85 332.69,-375.97 336.99,-372.69 341.64,-369.92"/>
<polygon fill="#9a32cd" stroke="#9a32cd" points="42.42,-324.13 34.23,-317.4 36.44,-327.77 42.42,-324.13"/>
<text text-anchor="middle" x="195.5" y="-442.85" font-family="Helvetica,sans-Serif" font-size="10.00"> channel</text>
</g>
<!-- Node4&#45;&gt;Node6 -->
<g id="edge9" class="edge">
<title>Node4&#45;&gt;Node6</title>
<path fill="none" stroke="#9a32cd" stroke-dasharray="5,2" d="M35.62,-327.48C48.35,-361.54 79.89,-430.28 134,-454.85 205.46,-487.29 298.79,-472.22 354.91,-457.87"/>
<polygon fill="#9a32cd" stroke="#9a32cd" points="38.8,-325.99 32.14,-317.75 32.21,-328.34 38.8,-325.99"/>
<text text-anchor="middle" x="195.5" y="-476.85" font-family="Helvetica,sans-Serif" font-size="10.00"> channel</text>
</g>
<!-- Node7 -->
<g id="node7" class="node">
<title>Node7</title>
<g id="a_node7"><a xlink:href="structtaurus__camera__buffer.html" target="_top" xlink:title=" ">
<polygon fill="white" stroke="black" points="134,-365.35 134,-384.35 257,-384.35 257,-365.35 134,-365.35"/>
<text text-anchor="middle" x="195.5" y="-372.35" font-family="Helvetica,sans-Serif" font-size="10.00">taurus_camera_buffer</text>
</a>
</g>
</g>
<!-- Node4&#45;&gt;Node7 -->
<g id="edge8" class="edge">
<title>Node4&#45;&gt;Node7</title>
<path fill="none" stroke="#9a32cd" stroke-dasharray="5,2" d="M62.15,-321.27C94.32,-334.29 142.34,-353.73 170.83,-365.27"/>
<polygon fill="#9a32cd" stroke="#9a32cd" points="63.29,-317.96 52.71,-317.45 60.67,-324.45 63.29,-317.96"/>
<text text-anchor="middle" x="95" y="-354.85" font-family="Helvetica,sans-Serif" font-size="10.00"> address</text>
<text text-anchor="middle" x="95" y="-343.85" font-family="Helvetica,sans-Serif" font-size="10.00">index</text>
</g>
<!-- Node4&#45;&gt;Node8 -->
<g id="edge12" class="edge">
<title>Node4&#45;&gt;Node8</title>
<path fill="none" stroke="#9a32cd" stroke-dasharray="5,2" d="M66.58,-307.65C127.59,-307.32 249.33,-306.67 328.68,-306.25"/>
<polygon fill="#9a32cd" stroke="#9a32cd" points="66.25,-304.15 56.27,-307.7 66.29,-311.15 66.25,-304.15"/>
<text text-anchor="middle" x="195.5" y="-309.85" font-family="Helvetica,sans-Serif" font-size="10.00"> channel</text>
</g>
<!-- Node4&#45;&gt;Node9 -->
<g id="edge16" class="edge">
<title>Node4&#45;&gt;Node9</title>
<path fill="none" stroke="#9a32cd" stroke-dasharray="5,2" d="M39.11,-289.35C55.16,-262.05 89.29,-211.84 134,-189.85 204.7,-155.07 233.05,-168.37 311,-179.85 320.43,-181.24 339.65,-186.86 358.19,-192.7"/>
<polygon fill="#9a32cd" stroke="#9a32cd" points="35.93,-287.86 34.02,-298.28 42.01,-291.32 35.93,-287.86"/>
<text text-anchor="middle" x="195.5" y="-203.85" font-family="Helvetica,sans-Serif" font-size="10.00"> buf_cnt</text>
<text text-anchor="middle" x="195.5" y="-192.85" font-family="Helvetica,sans-Serif" font-size="10.00">channel</text>
</g>
<!-- Node4&#45;&gt;Node10 -->
<g id="edge19" class="edge">
<title>Node4&#45;&gt;Node10</title>
<path fill="none" stroke="#9a32cd" stroke-dasharray="5,2" d="M33.33,-288.34C39.34,-264.59 52.04,-224.14 74,-195.85 94.28,-169.73 103,-163.35 134,-151.85 200.27,-127.26 282.12,-134.06 338.22,-143.8"/>
<polygon fill="#9a32cd" stroke="#9a32cd" points="29.88,-287.72 30.97,-298.25 36.69,-289.34 29.88,-287.72"/>
<text text-anchor="middle" x="195.5" y="-154.85" font-family="Helvetica,sans-Serif" font-size="10.00"> channel</text>
</g>
<!-- Node4&#45;&gt;Node11 -->
<g id="edge23" class="edge">
<title>Node4&#45;&gt;Node11</title>
<path fill="none" stroke="#9a32cd" stroke-dasharray="5,2" d="M30.24,-288.18C33.13,-257.02 42.68,-195.77 74,-155.85 93.06,-131.56 105.87,-133.58 134,-120.85 208.15,-87.3 230.99,-58.9 311,-73.85 332.61,-77.89 355.67,-86.78 373.42,-94.71"/>
<polygon fill="#9a32cd" stroke="#9a32cd" points="26.75,-287.96 29.45,-298.2 33.73,-288.51 26.75,-287.96"/>
<text text-anchor="middle" x="195.5" y="-123.85" font-family="Helvetica,sans-Serif" font-size="10.00"> channel</text>
</g>
<!-- Node4&#45;&gt;Node13 -->
<g id="edge28" class="edge">
<title>Node4&#45;&gt;Node13</title>
<path fill="none" stroke="#9a32cd" stroke-dasharray="5,2" d="M28.65,-287.82C28.92,-232.39 38.49,-77.47 134,-22.85 214.32,23.09 330.91,-11.74 380.39,-30.24"/>
<polygon fill="#9a32cd" stroke="#9a32cd" points="25.15,-288.08 28.7,-298.06 32.15,-288.05 25.15,-288.08"/>
<text text-anchor="middle" x="195.5" y="-58.85" font-family="Helvetica,sans-Serif" font-size="10.00"> Channel</text>
<text text-anchor="middle" x="195.5" y="-47.85" font-family="Helvetica,sans-Serif" font-size="10.00">Cmd</text>
<text text-anchor="middle" x="195.5" y="-36.85" font-family="Helvetica,sans-Serif" font-size="10.00">Id</text>
<text text-anchor="middle" x="195.5" y="-25.85" font-family="Helvetica,sans-Serif" font-size="10.00">Per</text>
</g>
<!-- Node5 -->
<g id="node5" class="node">
<title>Node5</title>
<g id="a_node5"><a xlink:title=" ">
<polygon fill="white" stroke="#bfbfbf" points="348.5,-389.35 348.5,-408.35 461.5,-408.35 461.5,-389.35 348.5,-389.35"/>
<text text-anchor="middle" x="405" y="-396.35" font-family="Helvetica,sans-Serif" font-size="10.00">anonymous:params</text>
</a>
</g>
</g>
<!-- Node5&#45;&gt;Node1 -->
<g id="edge4" class="edge">
<title>Node5&#45;&gt;Node1</title>
<path fill="none" stroke="#9a32cd" stroke-dasharray="5,2" d="M471.78,-393.31C515.74,-387.66 573.92,-376.36 621,-353.85 654.12,-338.01 685.57,-307.18 700.29,-291.5"/>
<polygon fill="#9a32cd" stroke="#9a32cd" points="471.28,-389.84 461.78,-394.53 472.13,-396.79 471.28,-389.84"/>
<text text-anchor="middle" x="560" y="-390.85" font-family="Helvetica,sans-Serif" font-size="10.00"> params</text>
</g>
<!-- Node6&#45;&gt;Node1 -->
<g id="edge5" class="edge">
<title>Node6&#45;&gt;Node1</title>
<path fill="none" stroke="#9a32cd" stroke-dasharray="5,2" d="M491.32,-441.53C533.12,-437.41 582.59,-427.09 621,-402.85 665.59,-374.71 694.8,-315.11 704.98,-291.64"/>
<polygon fill="#9a32cd" stroke="#9a32cd" points="490.81,-438.06 481.15,-442.42 491.42,-445.03 490.81,-438.06"/>
<text text-anchor="middle" x="560" y="-442.85" font-family="Helvetica,sans-Serif" font-size="10.00"> ioc_channel_init</text>
</g>
<!-- Node7&#45;&gt;Node6 -->
<g id="edge7" class="edge">
<title>Node7&#45;&gt;Node6</title>
<path fill="none" stroke="#9a32cd" stroke-dasharray="5,2" d="M218.01,-390.34C233.22,-400.55 254.48,-413.37 275,-420.85 291.97,-427.03 310.84,-431.5 328.79,-434.72"/>
<polygon fill="#9a32cd" stroke="#9a32cd" points="219.6,-387.18 209.38,-384.39 215.63,-392.95 219.6,-387.18"/>
<text text-anchor="middle" x="293" y="-432.85" font-family="Helvetica,sans-Serif" font-size="10.00"> buffer</text>
</g>
<!-- Node7&#45;&gt;Node9 -->
<g id="edge15" class="edge">
<title>Node7&#45;&gt;Node9</title>
<path fill="none" stroke="#9a32cd" stroke-dasharray="5,2" d="M266.84,-362.45C283.45,-356.38 299.61,-347.33 311,-333.85 340.43,-299.02 299.19,-267.35 329,-232.85 332.32,-229.01 336.25,-225.75 340.54,-223"/>
<polygon fill="#9a32cd" stroke="#9a32cd" points="265.45,-359.23 257.05,-365.7 267.65,-365.87 265.45,-359.23"/>
<text text-anchor="middle" x="293" y="-360.85" font-family="Helvetica,sans-Serif" font-size="10.00"> buffer</text>
</g>
<!-- Node8&#45;&gt;Node1 -->
<g id="edge10" class="edge">
<title>Node8&#45;&gt;Node1</title>
<path fill="none" stroke="#9a32cd" stroke-dasharray="5,2" d="M491.36,-299.09C537.91,-295.4 594.83,-290.89 638.78,-287.41"/>
<polygon fill="#9a32cd" stroke="#9a32cd" points="490.98,-295.61 481.29,-299.89 491.53,-302.59 490.98,-295.61"/>
<text text-anchor="middle" x="560" y="-300.85" font-family="Helvetica,sans-Serif" font-size="10.00"> ioc_channel_release</text>
</g>
<!-- Node9&#45;&gt;Node1 -->
<g id="edge13" class="edge">
<title>Node9&#45;&gt;Node1</title>
<path fill="none" stroke="#9a32cd" stroke-dasharray="5,2" d="M491.29,-220.67C531.07,-227.53 578.84,-237.02 621,-248.85 643.78,-255.24 668.99,-264.98 686.56,-272.22"/>
<polygon fill="#9a32cd" stroke="#9a32cd" points="491.8,-217.21 481.35,-218.99 490.63,-224.11 491.8,-217.21"/>
<text text-anchor="middle" x="560" y="-251.85" font-family="Helvetica,sans-Serif" font-size="10.00"> ioc_channel_feed_buffer</text>
</g>
<!-- Node10&#45;&gt;Node1 -->
<g id="edge17" class="edge">
<title>Node10&#45;&gt;Node1</title>
<path fill="none" stroke="#9a32cd" stroke-dasharray="5,2" d="M491.09,-168.13C531.96,-174.97 580.69,-186.74 621,-206.85 654.59,-223.61 686.06,-255.9 700.59,-272.09"/>
<polygon fill="#9a32cd" stroke="#9a32cd" points="491.58,-164.66 481.15,-166.54 490.47,-171.58 491.58,-164.66"/>
<text text-anchor="middle" x="560" y="-209.85" font-family="Helvetica,sans-Serif" font-size="10.00"> ioc_channel_start</text>
</g>
<!-- Node11&#45;&gt;Node1 -->
<g id="edge21" class="edge">
<title>Node11&#45;&gt;Node1</title>
<path fill="none" stroke="#9a32cd" stroke-dasharray="5,2" d="M491.15,-113.03C533.14,-118.07 582.82,-129.53 621,-154.85 666.6,-185.09 695.41,-247.78 705.23,-272"/>
<polygon fill="#9a32cd" stroke="#9a32cd" points="491.53,-109.55 481.21,-111.93 490.77,-116.51 491.53,-109.55"/>
<text text-anchor="middle" x="560" y="-157.85" font-family="Helvetica,sans-Serif" font-size="10.00"> ioc_channel_stop</text>
</g>
<!-- Node12&#45;&gt;Node1 -->
<g id="edge24" class="edge">
<title>Node12&#45;&gt;Node1</title>
<path fill="none" stroke="#9a32cd" stroke-dasharray="5,2" d="M480.47,-262.52C521.86,-265.73 574.3,-269.88 621,-273.85 626.81,-274.34 632.83,-274.87 638.88,-275.4"/>
<polygon fill="#9a32cd" stroke="#9a32cd" points="480.7,-259.03 470.46,-261.75 480.16,-266.01 480.7,-259.03"/>
<text text-anchor="middle" x="560" y="-276.85" font-family="Helvetica,sans-Serif" font-size="10.00"> ioc_get_info</text>
</g>
<!-- Node13&#45;&gt;Node1 -->
<g id="edge26" class="edge">
<title>Node13&#45;&gt;Node1</title>
<path fill="none" stroke="#9a32cd" stroke-dasharray="5,2" d="M477.99,-44.93C523.43,-51.49 580.92,-66.34 621,-99.85 678.36,-147.8 701.19,-241.95 707.24,-272.23"/>
<polygon fill="#9a32cd" stroke="#9a32cd" points="478.27,-41.44 467.89,-43.58 477.34,-48.38 478.27,-41.44"/>
<text text-anchor="middle" x="560" y="-102.85" font-family="Helvetica,sans-Serif" font-size="10.00"> hdr</text>
</g>
</g>
</svg>
