<?xml version="1.0" encoding="UTF-8" standalone="no"?>
<!DOCTYPE svg PUBLIC "-//W3C//DTD SVG 1.1//EN"
 "http://www.w3.org/Graphics/SVG/1.1/DTD/svg11.dtd">
<!-- Generated by graphviz version 2.43.0 (0)
 -->
<!-- Title: r_ether_mq_receive_t Pages: 1 -->
<svg width="208pt" height="95pt"
 viewBox="0.00 0.00 207.50 95.00" xmlns="http://www.w3.org/2000/svg" xmlns:xlink="http://www.w3.org/1999/xlink">
<g id="graph0" class="graph" transform="scale(1 1) rotate(0) translate(4 91)">
<title>r_ether_mq_receive_t</title>
<polygon fill="white" stroke="transparent" points="-4,4 -4,-91 203.5,-91 203.5,4 -4,4"/>
<!-- Node1 -->
<g id="node1" class="node">
<title>Node1</title>
<g id="a_node1"><a xlink:title=" ">
<polygon fill="#bfbfbf" stroke="black" points="37.5,-0.5 37.5,-19.5 159.5,-19.5 159.5,-0.5 37.5,-0.5"/>
<text text-anchor="middle" x="98.5" y="-7.5" font-family="Helvetica,sans-Serif" font-size="10.00">r_ether_mq_receive_t</text>
</a>
</g>
</g>
<!-- Node2 -->
<g id="node2" class="node">
<title>Node2</title>
<g id="a_node2"><a xlink:title=" ">
<polygon fill="white" stroke="#bfbfbf" points="0,-67.5 0,-86.5 89,-86.5 89,-67.5 0,-67.5"/>
<text text-anchor="middle" x="44.5" y="-74.5" font-family="Helvetica,sans-Serif" font-size="10.00">unsigned short</text>
</a>
</g>
</g>
<!-- Node2&#45;&gt;Node1 -->
<g id="edge1" class="edge">
<title>Node2&#45;&gt;Node1</title>
<path fill="none" stroke="#9a32cd" stroke-dasharray="5,2" d="M58.4,-59.27C68.93,-46.6 82.96,-29.7 91.33,-19.63"/>
<polygon fill="#9a32cd" stroke="#9a32cd" points="55.48,-57.31 51.78,-67.23 60.87,-61.78 55.48,-57.31"/>
<text text-anchor="middle" x="97" y="-41" font-family="Helvetica,sans-Serif" font-size="10.00"> LenByte</text>
</g>
<!-- Node3 -->
<g id="node3" class="node">
<title>Node3</title>
<g id="a_node3"><a xlink:title=" ">
<polygon fill="white" stroke="#bfbfbf" points="107.5,-67.5 107.5,-86.5 199.5,-86.5 199.5,-67.5 107.5,-67.5"/>
<text text-anchor="middle" x="153.5" y="-74.5" font-family="Helvetica,sans-Serif" font-size="10.00">Eth_DataType *</text>
</a>
</g>
</g>
<!-- Node3&#45;&gt;Node1 -->
<g id="edge2" class="edge">
<title>Node3&#45;&gt;Node1</title>
<path fill="none" stroke="#9a32cd" stroke-dasharray="5,2" d="M140.42,-59.65C134.94,-52.9 128.48,-45.02 122.5,-38 117.29,-31.89 111.29,-25.14 106.6,-19.92"/>
<polygon fill="#9a32cd" stroke="#9a32cd" points="137.71,-61.87 146.71,-67.46 143.16,-57.48 137.71,-61.87"/>
<text text-anchor="middle" x="150.5" y="-41" font-family="Helvetica,sans-Serif" font-size="10.00"> DataPtr</text>
</g>
</g>
</svg>
