<?xml version="1.0" encoding="UTF-8" standalone="no"?>
<!DOCTYPE svg PUBLIC "-//W3C//DTD SVG 1.1//EN"
 "http://www.w3.org/Graphics/SVG/1.1/DTD/svg11.dtd">
<!-- Generated by graphviz version 2.43.0 (0)
 -->
<!-- Title: r_du_DispTimings_t Pages: 1 -->
<svg width="238pt" height="205pt"
 viewBox="0.00 0.00 238.00 205.00" xmlns="http://www.w3.org/2000/svg" xmlns:xlink="http://www.w3.org/1999/xlink">
<g id="graph0" class="graph" transform="scale(1 1) rotate(0) translate(4 201)">
<title>r_du_DispTimings_t</title>
<polygon fill="white" stroke="transparent" points="-4,4 -4,-201 234,-201 234,4 -4,4"/>
<!-- Node1 -->
<g id="node1" class="node">
<title>Node1</title>
<g id="a_node1"><a xlink:title=" ">
<polygon fill="#bfbfbf" stroke="black" points="38.5,-0.5 38.5,-19.5 151.5,-19.5 151.5,-0.5 38.5,-0.5"/>
<text text-anchor="middle" x="95" y="-7.5" font-family="Helvetica,sans-Serif" font-size="10.00">r_du_DispTimings_t</text>
</a>
</g>
</g>
<!-- Node2 -->
<g id="node2" class="node">
<title>Node2</title>
<g id="a_node2"><a xlink:title=" ">
<polygon fill="white" stroke="#bfbfbf" points="0,-177.5 0,-196.5 96,-196.5 96,-177.5 0,-177.5"/>
<text text-anchor="middle" x="48" y="-184.5" font-family="Helvetica,sans-Serif" font-size="10.00">r_du_VoutType_t</text>
</a>
</g>
</g>
<!-- Node2&#45;&gt;Node1 -->
<g id="edge1" class="edge">
<title>Node2&#45;&gt;Node1</title>
<path fill="none" stroke="#9a32cd" stroke-dasharray="5,2" d="M47.87,-167.18C48.34,-138.13 52.03,-81.17 72,-38 75.2,-31.07 80.7,-24.52 85.52,-19.6"/>
<polygon fill="#9a32cd" stroke="#9a32cd" points="44.37,-167.17 47.82,-177.18 51.37,-167.2 44.37,-167.17"/>
<text text-anchor="middle" x="96" y="-96" font-family="Helvetica,sans-Serif" font-size="10.00"> VoutType</text>
</g>
<!-- Node3 -->
<g id="node3" class="node">
<title>Node3</title>
<g id="a_node3"><a xlink:title=" ">
<polygon fill="white" stroke="#bfbfbf" points="114,-177.5 114,-196.5 170,-196.5 170,-177.5 114,-177.5"/>
<text text-anchor="middle" x="142" y="-184.5" font-family="Helvetica,sans-Serif" font-size="10.00">uint32_t</text>
</a>
</g>
</g>
<!-- Node3&#45;&gt;Node1 -->
<g id="edge2" class="edge">
<title>Node3&#45;&gt;Node1</title>
<path fill="none" stroke="#9a32cd" stroke-dasharray="5,2" d="M142.67,-167.13C142.96,-137.96 140.54,-80.82 120,-38 116.63,-30.97 110.79,-24.51 105.61,-19.67"/>
<polygon fill="#9a32cd" stroke="#9a32cd" points="139.16,-167.4 142.43,-177.48 146.16,-167.56 139.16,-167.4"/>
<text text-anchor="middle" x="186" y="-151" font-family="Helvetica,sans-Serif" font-size="10.00"> CurrentDispClock</text>
<text text-anchor="middle" x="186" y="-140" font-family="Helvetica,sans-Serif" font-size="10.00">DotClkIn</text>
<text text-anchor="middle" x="186" y="-129" font-family="Helvetica,sans-Serif" font-size="10.00">Extal</text>
<text text-anchor="middle" x="186" y="-118" font-family="Helvetica,sans-Serif" font-size="10.00">HdmiPllCfg</text>
<text text-anchor="middle" x="186" y="-107" font-family="Helvetica,sans-Serif" font-size="10.00">HdmiPllCtrl</text>
<text text-anchor="middle" x="186" y="-96" font-family="Helvetica,sans-Serif" font-size="10.00">HdmiPllDivider</text>
<text text-anchor="middle" x="186" y="-85" font-family="Helvetica,sans-Serif" font-size="10.00">LvdsPllLvddiv</text>
<text text-anchor="middle" x="186" y="-74" font-family="Helvetica,sans-Serif" font-size="10.00">LvdsPllLvdpllcr</text>
<text text-anchor="middle" x="186" y="-63" font-family="Helvetica,sans-Serif" font-size="10.00">ScreenHeight</text>
<text text-anchor="middle" x="186" y="-52" font-family="Helvetica,sans-Serif" font-size="10.00">ScreenWidth</text>
<text text-anchor="middle" x="186" y="-41" font-family="Helvetica,sans-Serif" font-size="10.00">...</text>
</g>
</g>
</svg>
