<?xml version="1.0" encoding="UTF-8" standalone="no"?>
<!DOCTYPE svg PUBLIC "-//W3C//DTD SVG 1.1//EN"
 "http://www.w3.org/Graphics/SVG/1.1/DTD/svg11.dtd">
<!-- Generated by graphviz version 2.43.0 (0)
 -->
<!-- Title: st_osal_memory_manager_obj Pages: 1 -->
<svg width="479pt" height="407pt"
 viewBox="0.00 0.00 479.00 406.50" xmlns="http://www.w3.org/2000/svg" xmlns:xlink="http://www.w3.org/1999/xlink">
<g id="graph0" class="graph" transform="scale(1 1) rotate(0) translate(4 402.5)">
<title>st_osal_memory_manager_obj</title>
<polygon fill="white" stroke="transparent" points="-4,4 -4,-402.5 475,-402.5 475,4 -4,4"/>
<!-- Node1 -->
<g id="node1" class="node">
<title>Node1</title>
<g id="a_node1"><a xlink:title="memory manager object.">
<polygon fill="#bfbfbf" stroke="black" points="304,-167.5 304,-186.5 471,-186.5 471,-167.5 304,-167.5"/>
<text text-anchor="middle" x="387.5" y="-174.5" font-family="Helvetica,sans-Serif" font-size="10.00">st_osal_memory_manager_obj</text>
</a>
</g>
</g>
<!-- Node2 -->
<g id="node2" class="node">
<title>Node2</title>
<g id="a_node2"><a xlink:title=" ">
<polygon fill="white" stroke="#bfbfbf" points="17,-346 17,-398 161,-398 161,-346 17,-346"/>
<text text-anchor="start" x="25" y="-386" font-family="Helvetica,sans-Serif" font-size="10.00">e_osal_return_t(*)</text>
<text text-anchor="start" x="25" y="-375" font-family="Helvetica,sans-Serif" font-size="10.00">(void *p_ptr_self, osal</text>
<text text-anchor="start" x="25" y="-364" font-family="Helvetica,sans-Serif" font-size="10.00">_memory_buffer_handle_t</text>
<text text-anchor="middle" x="89" y="-353" font-family="Helvetica,sans-Serif" font-size="10.00"> buffer_obj)</text>
</a>
</g>
</g>
<!-- Node2&#45;&gt;Node1 -->
<g id="edge1" class="edge">
<title>Node2&#45;&gt;Node1</title>
<path fill="none" stroke="#9a32cd" stroke-dasharray="5,2" d="M167.16,-341.45C170.86,-339.67 174.49,-337.85 178,-336 228.82,-309.22 240.28,-299.78 286,-265 320.7,-238.6 358.63,-203.52 376.34,-186.74"/>
<polygon fill="#9a32cd" stroke="#9a32cd" points="165.45,-338.39 157.87,-345.79 168.42,-344.73 165.45,-338.39"/>
<text text-anchor="middle" x="241" y="-328" font-family="Helvetica,sans-Serif" font-size="10.00"> p_deallocate</text>
</g>
<!-- Node3 -->
<g id="node3" class="node">
<title>Node3</title>
<g id="a_node3"><a xlink:title=" ">
<polygon fill="white" stroke="#bfbfbf" points="10,-263.5 10,-326.5 168,-326.5 168,-263.5 10,-263.5"/>
<text text-anchor="start" x="18" y="-314.5" font-family="Helvetica,sans-Serif" font-size="10.00">e_osal_return_t(*)</text>
<text text-anchor="start" x="18" y="-303.5" font-family="Helvetica,sans-Serif" font-size="10.00">(void *p_ptr_self, size</text>
<text text-anchor="start" x="18" y="-292.5" font-family="Helvetica,sans-Serif" font-size="10.00">_t bytes, size_t alignment,</text>
<text text-anchor="start" x="18" y="-281.5" font-family="Helvetica,sans-Serif" font-size="10.00"> osal_memory_buffer_handle</text>
<text text-anchor="middle" x="89" y="-270.5" font-family="Helvetica,sans-Serif" font-size="10.00">_t *const p_buffer_obj)</text>
</a>
</g>
</g>
<!-- Node3&#45;&gt;Node1 -->
<g id="edge2" class="edge">
<title>Node3&#45;&gt;Node1</title>
<path fill="none" stroke="#9a32cd" stroke-dasharray="5,2" d="M177.92,-260.01C241.43,-234.73 322.75,-202.37 362.48,-186.56"/>
<polygon fill="#9a32cd" stroke="#9a32cd" points="176.29,-256.89 168.29,-263.84 178.88,-263.4 176.29,-256.89"/>
<text text-anchor="middle" x="241" y="-253" font-family="Helvetica,sans-Serif" font-size="10.00"> p_allocate</text>
</g>
<!-- Node4 -->
<g id="node4" class="node">
<title>Node4</title>
<g id="a_node4"><a xlink:title=" ">
<polygon fill="white" stroke="#bfbfbf" points="20,-192 20,-244 158,-244 158,-192 20,-192"/>
<text text-anchor="start" x="28" y="-232" font-family="Helvetica,sans-Serif" font-size="10.00">e_osal_return_t(*)</text>
<text text-anchor="start" x="28" y="-221" font-family="Helvetica,sans-Serif" font-size="10.00">(const void *p_ptr_self,</text>
<text text-anchor="start" x="28" y="-210" font-family="Helvetica,sans-Serif" font-size="10.00"> st_osal_mmngr_config_t</text>
<text text-anchor="middle" x="89" y="-199" font-family="Helvetica,sans-Serif" font-size="10.00"> *const p_config)</text>
</a>
</g>
</g>
<!-- Node4&#45;&gt;Node1 -->
<g id="edge3" class="edge">
<title>Node4&#45;&gt;Node1</title>
<path fill="none" stroke="#9a32cd" stroke-dasharray="5,2" d="M168.05,-207.21C214.55,-200.78 273.02,-192.69 317.77,-186.5"/>
<polygon fill="#9a32cd" stroke="#9a32cd" points="167.45,-203.76 158.02,-208.59 168.41,-210.69 167.45,-203.76"/>
<text text-anchor="middle" x="241" y="-205" font-family="Helvetica,sans-Serif" font-size="10.00"> p_getConfig</text>
</g>
<!-- Node5 -->
<g id="node5" class="node">
<title>Node5</title>
<g id="a_node5"><a xlink:title=" ">
<polygon fill="white" stroke="#bfbfbf" points="0,-99 0,-173 178,-173 178,-99 0,-99"/>
<text text-anchor="start" x="8" y="-161" font-family="Helvetica,sans-Serif" font-size="10.00">e_osal_return_t(*)</text>
<text text-anchor="start" x="8" y="-150" font-family="Helvetica,sans-Serif" font-size="10.00">(void *p_ptr_self, e</text>
<text text-anchor="start" x="8" y="-139" font-family="Helvetica,sans-Serif" font-size="10.00">_osal_mmngr_event_t monitored</text>
<text text-anchor="start" x="8" y="-128" font-family="Helvetica,sans-Serif" font-size="10.00">_event, fp_osal_memory_mngr</text>
<text text-anchor="start" x="8" y="-117" font-family="Helvetica,sans-Serif" font-size="10.00">_cb_t monitor_handler, void</text>
<text text-anchor="middle" x="89" y="-106" font-family="Helvetica,sans-Serif" font-size="10.00"> *p_monitor_handler_user_arg)</text>
</a>
</g>
</g>
<!-- Node5&#45;&gt;Node1 -->
<g id="edge4" class="edge">
<title>Node5&#45;&gt;Node1</title>
<path fill="none" stroke="#9a32cd" stroke-dasharray="5,2" d="M188.21,-149.58C230.55,-155.44 279.06,-162.14 317.5,-167.46"/>
<polygon fill="#9a32cd" stroke="#9a32cd" points="188.54,-146.09 178.16,-148.19 187.58,-153.03 188.54,-146.09"/>
<text text-anchor="middle" x="241" y="-165" font-family="Helvetica,sans-Serif" font-size="10.00"> p_registerMonitor</text>
</g>
<!-- Node6 -->
<g id="node6" class="node">
<title>Node6</title>
<g id="a_node6"><a xlink:title=" ">
<polygon fill="white" stroke="#bfbfbf" points="24,-38.5 24,-79.5 154,-79.5 154,-38.5 24,-38.5"/>
<text text-anchor="start" x="32" y="-67.5" font-family="Helvetica,sans-Serif" font-size="10.00">e_osal_return_t(*)</text>
<text text-anchor="start" x="32" y="-56.5" font-family="Helvetica,sans-Serif" font-size="10.00">(const void *p_ptr_self,</text>
<text text-anchor="middle" x="89" y="-45.5" font-family="Helvetica,sans-Serif" font-size="10.00"> FILE *p_output)</text>
</a>
</g>
</g>
<!-- Node6&#45;&gt;Node1 -->
<g id="edge5" class="edge">
<title>Node6&#45;&gt;Node1</title>
<path fill="none" stroke="#9a32cd" stroke-dasharray="5,2" d="M159.61,-83.11C165.84,-85.39 172.05,-87.71 178,-90 246.83,-116.46 327.01,-150.98 364.75,-167.45"/>
<polygon fill="#9a32cd" stroke="#9a32cd" points="160.41,-79.68 149.81,-79.56 158.02,-86.26 160.41,-79.68"/>
<text text-anchor="middle" x="241" y="-134" font-family="Helvetica,sans-Serif" font-size="10.00"> p_print</text>
</g>
<!-- Node7 -->
<g id="node7" class="node">
<title>Node7</title>
<g id="a_node7"><a xlink:title=" ">
<polygon fill="white" stroke="#bfbfbf" points="66,-0.5 66,-19.5 112,-19.5 112,-0.5 66,-0.5"/>
<text text-anchor="middle" x="89" y="-7.5" font-family="Helvetica,sans-Serif" font-size="10.00">void *</text>
</a>
</g>
</g>
<!-- Node7&#45;&gt;Node1 -->
<g id="edge6" class="edge">
<title>Node7&#45;&gt;Node1</title>
<path fill="none" stroke="#9a32cd" stroke-dasharray="5,2" d="M122.07,-14.93C138.99,-18.02 159.93,-22.65 178,-29 228.63,-46.8 241.95,-52.35 286,-83 323.65,-109.2 361.36,-148.97 377.86,-167.22"/>
<polygon fill="#9a32cd" stroke="#9a32cd" points="122.57,-11.46 112.12,-13.19 121.37,-18.36 122.57,-11.46"/>
<text text-anchor="middle" x="241" y="-86" font-family="Helvetica,sans-Serif" font-size="10.00"> p_ptr_self</text>
</g>
</g>
</svg>
