<?xml version="1.0" encoding="UTF-8" standalone="no"?>
<!DOCTYPE svg PUBLIC "-//W3C//DTD SVG 1.1//EN"
 "http://www.w3.org/Graphics/SVG/1.1/DTD/svg11.dtd">
<!-- Generated by graphviz version 2.43.0 (0)
 -->
<!-- Title: STag_Eth_QueueShaperType Pages: 1 -->
<svg width="393pt" height="95pt"
 viewBox="0.00 0.00 393.00 95.00" xmlns="http://www.w3.org/2000/svg" xmlns:xlink="http://www.w3.org/1999/xlink">
<g id="graph0" class="graph" transform="scale(1 1) rotate(0) translate(4 91)">
<title>STag_Eth_QueueShaperType</title>
<polygon fill="white" stroke="transparent" points="-4,4 -4,-91 389,-91 389,4 -4,4"/>
<!-- Node1 -->
<g id="node1" class="node">
<title>Node1</title>
<g id="a_node1"><a xlink:title=" ">
<polygon fill="#bfbfbf" stroke="black" points="122,-0.5 122,-19.5 275,-19.5 275,-0.5 122,-0.5"/>
<text text-anchor="middle" x="198.5" y="-7.5" font-family="Helvetica,sans-Serif" font-size="10.00">STag_Eth_QueueShaperType</text>
</a>
</g>
</g>
<!-- Node2 -->
<g id="node2" class="node">
<title>Node2</title>
<g id="a_node2"><a xlink:title=" ">
<polygon fill="white" stroke="#bfbfbf" points="0,-67.5 0,-86.5 85,-86.5 85,-67.5 0,-67.5"/>
<text text-anchor="middle" x="42.5" y="-74.5" font-family="Helvetica,sans-Serif" font-size="10.00">unsigned long</text>
</a>
</g>
</g>
<!-- Node2&#45;&gt;Node1 -->
<g id="edge1" class="edge">
<title>Node2&#45;&gt;Node1</title>
<path fill="none" stroke="#9a32cd" stroke-dasharray="5,2" d="M72.62,-63.45C103.51,-50.58 150.73,-30.9 177.7,-19.67"/>
<polygon fill="#9a32cd" stroke="#9a32cd" points="71.1,-60.29 63.22,-67.37 73.79,-66.75 71.1,-60.29"/>
<text text-anchor="middle" x="139.5" y="-41" font-family="Helvetica,sans-Serif" font-size="10.00"> civ</text>
</g>
<!-- Node3 -->
<g id="node3" class="node">
<title>Node3</title>
<g id="a_node3"><a xlink:title=" ">
<polygon fill="white" stroke="#bfbfbf" points="103,-67.5 103,-86.5 294,-86.5 294,-67.5 103,-67.5"/>
<text text-anchor="middle" x="198.5" y="-74.5" font-family="Helvetica,sans-Serif" font-size="10.00">enum ETag_Eth_TxQueuePolicyType</text>
</a>
</g>
</g>
<!-- Node3&#45;&gt;Node1 -->
<g id="edge2" class="edge">
<title>Node3&#45;&gt;Node1</title>
<path fill="none" stroke="#9a32cd" stroke-dasharray="5,2" d="M198.5,-57.04C198.5,-44.67 198.5,-29.12 198.5,-19.63"/>
<polygon fill="#9a32cd" stroke="#9a32cd" points="195,-57.23 198.5,-67.23 202,-57.23 195,-57.23"/>
<text text-anchor="middle" x="224.5" y="-41" font-family="Helvetica,sans-Serif" font-size="10.00"> TxQPolicy</text>
</g>
<!-- Node4 -->
<g id="node4" class="node">
<title>Node4</title>
<g id="a_node4"><a xlink:title=" ">
<polygon fill="white" stroke="#bfbfbf" points="312,-67.5 312,-86.5 385,-86.5 385,-67.5 312,-67.5"/>
<text text-anchor="middle" x="348.5" y="-74.5" font-family="Helvetica,sans-Serif" font-size="10.00">signed long</text>
</a>
</g>
</g>
<!-- Node4&#45;&gt;Node1 -->
<g id="edge3" class="edge">
<title>Node4&#45;&gt;Node1</title>
<path fill="none" stroke="#9a32cd" stroke-dasharray="5,2" d="M319.15,-63.28C289.44,-50.41 244.32,-30.85 218.5,-19.67"/>
<polygon fill="#9a32cd" stroke="#9a32cd" points="318.01,-66.6 328.58,-67.37 320.8,-60.18 318.01,-66.6"/>
<text text-anchor="middle" x="292" y="-41" font-family="Helvetica,sans-Serif" font-size="10.00"> cdv</text>
</g>
</g>
</svg>
