<?xml version="1.0" encoding="UTF-8" standalone="no"?>
<!DOCTYPE svg PUBLIC "-//W3C//DTD SVG 1.1//EN"
 "http://www.w3.org/Graphics/SVG/1.1/DTD/svg11.dtd">
<!-- Generated by graphviz version 2.43.0 (0)
 -->
<!-- Title: r_vsp2_BruConfig_t Pages: 1 -->
<svg width="550pt" height="252pt"
 viewBox="0.00 0.00 550.33 252.00" xmlns="http://www.w3.org/2000/svg" xmlns:xlink="http://www.w3.org/1999/xlink">
<g id="graph0" class="graph" transform="scale(1 1) rotate(0) translate(4 248)">
<title>r_vsp2_BruConfig_t</title>
<polygon fill="white" stroke="transparent" points="-4,4 -4,-248 546.33,-248 546.33,4 -4,4"/>
<!-- Node1 -->
<g id="node1" class="node">
<title>Node1</title>
<g id="a_node1"><a xlink:title=" ">
<polygon fill="#bfbfbf" stroke="black" points="266.33,-0.5 266.33,-19.5 376.33,-19.5 376.33,-0.5 266.33,-0.5"/>
<text text-anchor="middle" x="321.33" y="-7.5" font-family="Helvetica,sans-Serif" font-size="10.00">r_vsp2_BruConfig_t</text>
</a>
</g>
</g>
<!-- Node2 -->
<g id="node2" class="node">
<title>Node2</title>
<g id="a_node2"><a xlink:href="structr__vsp2__BruRopUnit__t.html" target="_top" xlink:title=" ">
<polygon fill="white" stroke="black" points="110.83,-129 110.83,-148 229.83,-148 229.83,-129 110.83,-129"/>
<text text-anchor="middle" x="170.33" y="-136" font-family="Helvetica,sans-Serif" font-size="10.00">r_vsp2_BruRopUnit_t</text>
</a>
</g>
</g>
<!-- Node2&#45;&gt;Node1 -->
<g id="edge1" class="edge">
<title>Node2&#45;&gt;Node1</title>
<path fill="none" stroke="#9a32cd" stroke-dasharray="5,2" d="M185.07,-121.12C204.33,-100.29 239.69,-63.92 274.33,-38 283.67,-31.01 294.99,-24.46 304.18,-19.56"/>
<polygon fill="#9a32cd" stroke="#9a32cd" points="182.24,-119.04 178.07,-128.78 187.4,-123.76 182.24,-119.04"/>
<text text-anchor="middle" x="295.83" y="-63" font-family="Helvetica,sans-Serif" font-size="10.00"> rop_unit</text>
</g>
<!-- Node3 -->
<g id="node3" class="node">
<title>Node3</title>
<g id="a_node3"><a xlink:title=" ">
<polygon fill="white" stroke="#bfbfbf" points="171.33,-224.5 171.33,-243.5 287.33,-243.5 287.33,-224.5 171.33,-224.5"/>
<text text-anchor="middle" x="229.33" y="-231.5" font-family="Helvetica,sans-Serif" font-size="10.00">r_vsp2_BruDataOp_t</text>
</a>
</g>
</g>
<!-- Node3&#45;&gt;Node2 -->
<g id="edge2" class="edge">
<title>Node3&#45;&gt;Node2</title>
<path fill="none" stroke="#9a32cd" stroke-dasharray="5,2" d="M209.04,-217.72C205.16,-214.17 201.36,-210.19 198.33,-206 184.96,-187.53 176.45,-161.71 172.64,-148.33"/>
<polygon fill="#9a32cd" stroke="#9a32cd" points="207.03,-220.6 216.93,-224.35 211.53,-215.24 207.03,-220.6"/>
<text text-anchor="middle" x="235.83" y="-198" font-family="Helvetica,sans-Serif" font-size="10.00"> alpha_data_op</text>
<text text-anchor="middle" x="235.83" y="-187" font-family="Helvetica,sans-Serif" font-size="10.00">color_data_op</text>
</g>
<!-- Node6 -->
<g id="node6" class="node">
<title>Node6</title>
<g id="a_node6"><a xlink:href="structr__vsp2__BruBlendRopUnit__t.html" target="_top" xlink:title=" ">
<polygon fill="white" stroke="black" points="248.33,-129 248.33,-148 394.33,-148 394.33,-129 248.33,-129"/>
<text text-anchor="middle" x="321.33" y="-136" font-family="Helvetica,sans-Serif" font-size="10.00">r_vsp2_BruBlendRopUnit_t</text>
</a>
</g>
</g>
<!-- Node3&#45;&gt;Node6 -->
<g id="edge7" class="edge">
<title>Node3&#45;&gt;Node6</title>
<path fill="none" stroke="#9a32cd" stroke-dasharray="5,2" d="M255.53,-219.27C261.71,-215.41 268.03,-210.91 273.33,-206 292.53,-188.18 308.93,-161.62 316.63,-148.09"/>
<polygon fill="#9a32cd" stroke="#9a32cd" points="253.57,-216.36 246.71,-224.43 257.11,-222.4 253.57,-216.36"/>
<text text-anchor="middle" x="330.83" y="-198" font-family="Helvetica,sans-Serif" font-size="10.00"> alpha_data_op</text>
<text text-anchor="middle" x="330.83" y="-187" font-family="Helvetica,sans-Serif" font-size="10.00">color_data_op</text>
</g>
<!-- Node4 -->
<g id="node4" class="node">
<title>Node4</title>
<g id="a_node4"><a xlink:title=" ">
<polygon fill="white" stroke="#bfbfbf" points="16.33,-224.5 16.33,-243.5 120.33,-243.5 120.33,-224.5 16.33,-224.5"/>
<text text-anchor="middle" x="68.33" y="-231.5" font-family="Helvetica,sans-Serif" font-size="10.00">r_vsp2_BruInput_t</text>
</a>
</g>
</g>
<!-- Node4&#45;&gt;Node2 -->
<g id="edge3" class="edge">
<title>Node4&#45;&gt;Node2</title>
<path fill="none" stroke="#9a32cd" stroke-dasharray="5,2" d="M19.36,-219.82C13.43,-216.26 8.13,-211.74 4.33,-206 -1.08,-197.85 -1.62,-191.76 4.33,-184 17.45,-166.9 68.65,-154.92 110.76,-147.74"/>
<polygon fill="#9a32cd" stroke="#9a32cd" points="17.89,-223 28.39,-224.39 21.04,-216.76 17.89,-223"/>
<text text-anchor="middle" x="41.33" y="-192.5" font-family="Helvetica,sans-Serif" font-size="10.00"> dst_side_input</text>
</g>
<!-- Node4&#45;&gt;Node6 -->
<g id="edge8" class="edge">
<title>Node4&#45;&gt;Node6</title>
<path fill="none" stroke="#9a32cd" stroke-dasharray="5,2" d="M78.19,-215.65C85.37,-204.71 96.12,-191.32 109.33,-184 159.95,-155.92 181.88,-178.85 238.33,-166 258.83,-161.33 281.54,-153.92 298.01,-148.12"/>
<polygon fill="#9a32cd" stroke="#9a32cd" points="75.06,-214.05 72.83,-224.41 81.04,-217.7 75.06,-214.05"/>
<text text-anchor="middle" x="146.33" y="-198" font-family="Helvetica,sans-Serif" font-size="10.00"> dst_side_input</text>
<text text-anchor="middle" x="146.33" y="-187" font-family="Helvetica,sans-Serif" font-size="10.00">src_side_input</text>
</g>
<!-- Node5 -->
<g id="node5" class="node">
<title>Node5</title>
<g id="a_node5"><a xlink:title=" ">
<polygon fill="white" stroke="#bfbfbf" points="411.33,-224.5 411.33,-243.5 467.33,-243.5 467.33,-224.5 411.33,-224.5"/>
<text text-anchor="middle" x="439.33" y="-231.5" font-family="Helvetica,sans-Serif" font-size="10.00">uint32_t</text>
</a>
</g>
</g>
<!-- Node5&#45;&gt;Node1 -->
<g id="edge4" class="edge">
<title>Node5&#45;&gt;Node1</title>
<path fill="none" stroke="#9a32cd" stroke-dasharray="5,2" d="M462.24,-218.09C465.93,-214.59 469.22,-210.54 471.33,-206 475.45,-197.13 473.19,-193.6 471.33,-184 457.97,-115.3 464.12,-85.07 412.33,-38 402.33,-28.91 389.4,-22.88 376.44,-18.87"/>
<polygon fill="#9a32cd" stroke="#9a32cd" points="459.94,-215.45 454.38,-224.47 464.35,-220.88 459.94,-215.45"/>
<text text-anchor="middle" x="505.33" y="-158" font-family="Helvetica,sans-Serif" font-size="10.00"> virt_rpf_color</text>
<text text-anchor="middle" x="505.33" y="-147" font-family="Helvetica,sans-Serif" font-size="10.00">virt_rpf_pos_x</text>
<text text-anchor="middle" x="505.33" y="-136" font-family="Helvetica,sans-Serif" font-size="10.00">virt_rpf_pos_y</text>
<text text-anchor="middle" x="505.33" y="-125" font-family="Helvetica,sans-Serif" font-size="10.00">virt_rpf_size_h</text>
<text text-anchor="middle" x="505.33" y="-114" font-family="Helvetica,sans-Serif" font-size="10.00">virt_rpf_size_w</text>
</g>
<!-- Node5&#45;&gt;Node6 -->
<g id="edge6" class="edge">
<title>Node5&#45;&gt;Node6</title>
<path fill="none" stroke="#9a32cd" stroke-dasharray="5,2" d="M414.22,-219.28C407.55,-215.28 400.5,-210.71 394.33,-206 383.08,-197.42 381.72,-193.59 371.33,-184 357.66,-171.39 341.55,-157.16 331.38,-148.26"/>
<polygon fill="#9a32cd" stroke="#9a32cd" points="412.53,-222.35 422.94,-224.33 416.04,-216.29 412.53,-222.35"/>
<text text-anchor="middle" x="432.83" y="-192.5" font-family="Helvetica,sans-Serif" font-size="10.00"> operation_type</text>
</g>
<!-- Node6&#45;&gt;Node1 -->
<g id="edge5" class="edge">
<title>Node6&#45;&gt;Node1</title>
<path fill="none" stroke="#9a32cd" stroke-dasharray="5,2" d="M321.33,-118.44C321.33,-90.62 321.33,-40.04 321.33,-19.76"/>
<polygon fill="#9a32cd" stroke="#9a32cd" points="317.83,-118.81 321.33,-128.81 324.83,-118.81 317.83,-118.81"/>
<text text-anchor="middle" x="364.83" y="-85" font-family="Helvetica,sans-Serif" font-size="10.00"> blend_rop_unit_a</text>
<text text-anchor="middle" x="364.83" y="-74" font-family="Helvetica,sans-Serif" font-size="10.00">blend_rop_unit_b</text>
<text text-anchor="middle" x="364.83" y="-63" font-family="Helvetica,sans-Serif" font-size="10.00">blend_rop_unit_c</text>
<text text-anchor="middle" x="364.83" y="-52" font-family="Helvetica,sans-Serif" font-size="10.00">blend_rop_unit_d</text>
<text text-anchor="middle" x="364.83" y="-41" font-family="Helvetica,sans-Serif" font-size="10.00">blend_rop_unit_e</text>
</g>
</g>
</svg>
