<?xml version="1.0" encoding="UTF-8" standalone="no"?>
<!DOCTYPE svg PUBLIC "-//W3C//DTD SVG 1.1//EN"
 "http://www.w3.org/Graphics/SVG/1.1/DTD/svg11.dtd">
<!-- Generated by graphviz version 2.43.0 (0)
 -->
<!-- Title: r_vsp2_BruRopUnit_t Pages: 1 -->
<svg width="258pt" height="106pt"
 viewBox="0.00 0.00 258.00 106.00" xmlns="http://www.w3.org/2000/svg" xmlns:xlink="http://www.w3.org/1999/xlink">
<g id="graph0" class="graph" transform="scale(1 1) rotate(0) translate(4 102)">
<title>r_vsp2_BruRopUnit_t</title>
<polygon fill="white" stroke="transparent" points="-4,4 -4,-102 254,-102 254,4 -4,4"/>
<!-- Node1 -->
<g id="node1" class="node">
<title>Node1</title>
<g id="a_node1"><a xlink:title=" ">
<polygon fill="#bfbfbf" stroke="black" points="62.5,-0.5 62.5,-19.5 181.5,-19.5 181.5,-0.5 62.5,-0.5"/>
<text text-anchor="middle" x="122" y="-7.5" font-family="Helvetica,sans-Serif" font-size="10.00">r_vsp2_BruRopUnit_t</text>
</a>
</g>
</g>
<!-- Node2 -->
<g id="node2" class="node">
<title>Node2</title>
<g id="a_node2"><a xlink:title=" ">
<polygon fill="white" stroke="#bfbfbf" points="0,-78.5 0,-97.5 116,-97.5 116,-78.5 0,-78.5"/>
<text text-anchor="middle" x="58" y="-85.5" font-family="Helvetica,sans-Serif" font-size="10.00">r_vsp2_BruDataOp_t</text>
</a>
</g>
</g>
<!-- Node2&#45;&gt;Node1 -->
<g id="edge1" class="edge">
<title>Node2&#45;&gt;Node1</title>
<path fill="none" stroke="#9a32cd" stroke-dasharray="5,2" d="M67.16,-69.62C72.77,-59.8 80.49,-47.61 89,-38 95.08,-31.13 103.02,-24.58 109.58,-19.65"/>
<polygon fill="#9a32cd" stroke="#9a32cd" points="64.05,-68.01 62.3,-78.46 70.19,-71.38 64.05,-68.01"/>
<text text-anchor="middle" x="126.5" y="-52" font-family="Helvetica,sans-Serif" font-size="10.00"> alpha_data_op</text>
<text text-anchor="middle" x="126.5" y="-41" font-family="Helvetica,sans-Serif" font-size="10.00">color_data_op</text>
</g>
<!-- Node3 -->
<g id="node3" class="node">
<title>Node3</title>
<g id="a_node3"><a xlink:title=" ">
<polygon fill="white" stroke="#bfbfbf" points="134,-78.5 134,-97.5 238,-97.5 238,-78.5 134,-78.5"/>
<text text-anchor="middle" x="186" y="-85.5" font-family="Helvetica,sans-Serif" font-size="10.00">r_vsp2_BruInput_t</text>
</a>
</g>
</g>
<!-- Node3&#45;&gt;Node1 -->
<g id="edge2" class="edge">
<title>Node3&#45;&gt;Node1</title>
<path fill="none" stroke="#9a32cd" stroke-dasharray="5,2" d="M180.57,-68.54C177.01,-58.69 171.59,-46.82 164,-38 157.44,-30.38 148.2,-24.12 140.06,-19.56"/>
<polygon fill="#9a32cd" stroke="#9a32cd" points="177.29,-69.77 183.72,-78.19 183.95,-67.6 177.29,-69.77"/>
<text text-anchor="middle" x="213" y="-46.5" font-family="Helvetica,sans-Serif" font-size="10.00"> dst_side_input</text>
</g>
</g>
</svg>
