<?xml version="1.0" encoding="UTF-8" standalone="no"?>
<!DOCTYPE svg PUBLIC "-//W3C//DTD SVG 1.1//EN"
 "http://www.w3.org/Graphics/SVG/1.1/DTD/svg11.dtd">
<!-- Generated by graphviz version 2.43.0 (0)
 -->
<!-- Title: st_imrdrv_data_t Pages: 1 -->
<svg width="419pt" height="197pt"
 viewBox="0.00 0.00 418.59 197.00" xmlns="http://www.w3.org/2000/svg" xmlns:xlink="http://www.w3.org/1999/xlink">
<g id="graph0" class="graph" transform="scale(1 1) rotate(0) translate(4 193)">
<title>st_imrdrv_data_t</title>
<polygon fill="white" stroke="transparent" points="-4,4 -4,-193 414.59,-193 414.59,4 -4,4"/>
<!-- Node1 -->
<g id="node1" class="node">
<title>Node1</title>
<g id="a_node1"><a xlink:title=" ">
<polygon fill="#bfbfbf" stroke="black" points="157.59,-0.5 157.59,-19.5 256.59,-19.5 256.59,-0.5 157.59,-0.5"/>
<text text-anchor="middle" x="207.09" y="-7.5" font-family="Helvetica,sans-Serif" font-size="10.00">st_imrdrv_data_t</text>
</a>
</g>
</g>
<!-- Node2 -->
<g id="node2" class="node">
<title>Node2</title>
<g id="a_node2"><a xlink:title=" ">
<polygon fill="white" stroke="#bfbfbf" points="12.09,-169.5 12.09,-188.5 68.09,-188.5 68.09,-169.5 12.09,-169.5"/>
<text text-anchor="middle" x="40.09" y="-176.5" font-family="Helvetica,sans-Serif" font-size="10.00">uint32_t</text>
</a>
</g>
</g>
<!-- Node2&#45;&gt;Node1 -->
<g id="edge1" class="edge">
<title>Node2&#45;&gt;Node1</title>
<path fill="none" stroke="#9a32cd" stroke-dasharray="5,2" d="M27.08,-161.06C10.84,-137.71 -12.32,-95.32 9.09,-67 26.98,-43.35 104.93,-26.83 157.52,-18.13"/>
<polygon fill="#9a32cd" stroke="#9a32cd" points="24.34,-163.25 33.06,-169.27 30,-159.13 24.34,-163.25"/>
<text text-anchor="middle" x="34.59" y="-103" font-family="Helvetica,sans-Serif" font-size="10.00"> height</text>
<text text-anchor="middle" x="34.59" y="-92" font-family="Helvetica,sans-Serif" font-size="10.00">phys_addr</text>
<text text-anchor="middle" x="34.59" y="-81" font-family="Helvetica,sans-Serif" font-size="10.00">stride</text>
<text text-anchor="middle" x="34.59" y="-70" font-family="Helvetica,sans-Serif" font-size="10.00">width</text>
</g>
<!-- Node3 -->
<g id="node3" class="node">
<title>Node3</title>
<g id="a_node3"><a xlink:href="structst__imrdrv__uv__setting__t.html" target="_top" xlink:title=" ">
<polygon fill="white" stroke="black" points="69.09,-79.5 69.09,-98.5 197.09,-98.5 197.09,-79.5 69.09,-79.5"/>
<text text-anchor="middle" x="133.09" y="-86.5" font-family="Helvetica,sans-Serif" font-size="10.00">st_imrdrv_uv_setting_t</text>
</a>
</g>
</g>
<!-- Node2&#45;&gt;Node3 -->
<g id="edge3" class="edge">
<title>Node2&#45;&gt;Node3</title>
<path fill="none" stroke="#9a32cd" stroke-dasharray="5,2" d="M54.67,-161.98C63.76,-152.21 75.82,-139.6 87.09,-129 98.69,-118.1 112.73,-106.39 122.23,-98.68"/>
<polygon fill="#9a32cd" stroke="#9a32cd" points="52.02,-159.69 47.82,-169.42 57.17,-164.43 52.02,-159.69"/>
<text text-anchor="middle" x="122.59" y="-143" font-family="Helvetica,sans-Serif" font-size="10.00"> uv_phys_addr</text>
<text text-anchor="middle" x="122.59" y="-132" font-family="Helvetica,sans-Serif" font-size="10.00">uv_stride</text>
</g>
<!-- Node3&#45;&gt;Node1 -->
<g id="edge2" class="edge">
<title>Node3&#45;&gt;Node1</title>
<path fill="none" stroke="#9a32cd" stroke-dasharray="5,2" d="M148.47,-72C163.69,-56.16 186.43,-32.51 198.63,-19.81"/>
<polygon fill="#9a32cd" stroke="#9a32cd" points="145.7,-69.83 141.3,-79.47 150.75,-74.68 145.7,-69.83"/>
<text text-anchor="middle" x="199.09" y="-41" font-family="Helvetica,sans-Serif" font-size="10.00"> uv_set</text>
</g>
<!-- Node4 -->
<g id="node4" class="node">
<title>Node4</title>
<g id="a_node4"><a xlink:title=" ">
<polygon fill="white" stroke="#bfbfbf" points="148.09,-169.5 148.09,-188.5 240.09,-188.5 240.09,-169.5 148.09,-169.5"/>
<text text-anchor="middle" x="194.09" y="-176.5" font-family="Helvetica,sans-Serif" font-size="10.00">e_imrdrv_bpp_t</text>
</a>
</g>
</g>
<!-- Node4&#45;&gt;Node1 -->
<g id="edge6" class="edge">
<title>Node4&#45;&gt;Node1</title>
<path fill="none" stroke="#9a32cd" stroke-dasharray="5,2" d="M211.58,-161.95C214.24,-158.61 216.59,-154.9 218.09,-151 236.17,-104.14 229.52,-87.13 219.09,-38 217.73,-31.58 214.73,-24.83 212.07,-19.68"/>
<polygon fill="#9a32cd" stroke="#9a32cd" points="208.89,-159.7 204.67,-169.42 214.03,-164.45 208.89,-159.7"/>
<text text-anchor="middle" x="240.09" y="-86.5" font-family="Helvetica,sans-Serif" font-size="10.00"> bpp</text>
</g>
<!-- Node4&#45;&gt;Node3 -->
<g id="edge4" class="edge">
<title>Node4&#45;&gt;Node3</title>
<path fill="none" stroke="#9a32cd" stroke-dasharray="5,2" d="M182.17,-160.8C169.24,-142.15 149.13,-113.13 139.14,-98.72"/>
<polygon fill="#9a32cd" stroke="#9a32cd" points="179.45,-163.02 188.02,-169.24 185.2,-159.03 179.45,-163.02"/>
<text text-anchor="middle" x="194.59" y="-137.5" font-family="Helvetica,sans-Serif" font-size="10.00"> uv_bpp</text>
</g>
<!-- Node5 -->
<g id="node5" class="node">
<title>Node5</title>
<g id="a_node5"><a xlink:title=" ">
<polygon fill="white" stroke="#bfbfbf" points="273.59,-79.5 273.59,-98.5 410.59,-98.5 410.59,-79.5 273.59,-79.5"/>
<text text-anchor="middle" x="342.09" y="-86.5" font-family="Helvetica,sans-Serif" font-size="10.00">e_imrdrv_color_format_t</text>
</a>
</g>
</g>
<!-- Node5&#45;&gt;Node1 -->
<g id="edge5" class="edge">
<title>Node5&#45;&gt;Node1</title>
<path fill="none" stroke="#9a32cd" stroke-dasharray="5,2" d="M318.44,-74.51C290.68,-58.68 245.48,-32.89 222.13,-19.57"/>
<polygon fill="#9a32cd" stroke="#9a32cd" points="316.71,-77.55 327.13,-79.47 320.18,-71.47 316.71,-77.55"/>
<text text-anchor="middle" x="303.09" y="-41" font-family="Helvetica,sans-Serif" font-size="10.00"> color_format</text>
</g>
</g>
</svg>
