<?xml version="1.0" encoding="UTF-8" standalone="no"?>
<!DOCTYPE svg PUBLIC "-//W3C//DTD SVG 1.1//EN"
 "http://www.w3.org/Graphics/SVG/1.1/DTD/svg11.dtd">
<!-- Generated by graphviz version 2.43.0 (0)
 -->
<!-- Title: r_cio_canfd_prv_DevInst_t Pages: 1 -->
<svg width="902pt" height="498pt"
 viewBox="0.00 0.00 902.00 497.53" xmlns="http://www.w3.org/2000/svg" xmlns:xlink="http://www.w3.org/1999/xlink">
<g id="graph0" class="graph" transform="scale(1 1) rotate(0) translate(4 493.53)">
<title>r_cio_canfd_prv_DevInst_t</title>
<polygon fill="white" stroke="transparent" points="-4,4 -4,-493.53 898,-493.53 898,4 -4,4"/>
<!-- Node1 -->
<g id="node1" class="node">
<title>Node1</title>
<g id="a_node1"><a xlink:title="CAN&#45;FD Device definition.">
<polygon fill="#bfbfbf" stroke="black" points="749,-334.03 749,-353.03 894,-353.03 894,-334.03 749,-334.03"/>
<text text-anchor="middle" x="821.5" y="-341.03" font-family="Helvetica,sans-Serif" font-size="10.00">r_cio_canfd_prv_DevInst_t</text>
</a>
</g>
</g>
<!-- Node2 -->
<g id="node2" class="node">
<title>Node2</title>
<g id="a_node2"><a xlink:title=" ">
<polygon fill="white" stroke="#bfbfbf" points="550,-440.03 550,-459.03 600,-459.03 600,-440.03 550,-440.03"/>
<text text-anchor="middle" x="575" y="-447.03" font-family="Helvetica,sans-Serif" font-size="10.00">int32_t</text>
</a>
</g>
</g>
<!-- Node2&#45;&gt;Node1 -->
<g id="edge1" class="edge">
<title>Node2&#45;&gt;Node1</title>
<path fill="none" stroke="#9a32cd" stroke-dasharray="5,2" d="M610.46,-449.84C643.04,-448.86 692.52,-444.01 731,-425.53 767.47,-408.02 799.58,-370.65 813.35,-353.06"/>
<polygon fill="#9a32cd" stroke="#9a32cd" points="610.03,-446.35 600.1,-450.04 610.17,-453.35 610.03,-446.35"/>
<text text-anchor="middle" x="694" y="-481.53" font-family="Helvetica,sans-Serif" font-size="10.00"> Error</text>
<text text-anchor="middle" x="694" y="-470.53" font-family="Helvetica,sans-Serif" font-size="10.00">InUseCnt</text>
<text text-anchor="middle" x="694" y="-459.53" font-family="Helvetica,sans-Serif" font-size="10.00">IrqNumCh</text>
<text text-anchor="middle" x="694" y="-448.53" font-family="Helvetica,sans-Serif" font-size="10.00">IrqNumGl</text>
</g>
<!-- Node3 -->
<g id="node3" class="node">
<title>Node3</title>
<g id="a_node3"><a xlink:title=" ">
<polygon fill="white" stroke="#bfbfbf" points="44.5,-385.03 44.5,-404.03 89.5,-404.03 89.5,-385.03 44.5,-385.03"/>
<text text-anchor="middle" x="67" y="-392.03" font-family="Helvetica,sans-Serif" font-size="10.00">size_t</text>
</a>
</g>
</g>
<!-- Node3&#45;&gt;Node1 -->
<g id="edge2" class="edge">
<title>Node3&#45;&gt;Node1</title>
<path fill="none" stroke="#9a32cd" stroke-dasharray="5,2" d="M99.81,-395.67C131.73,-396.58 182.3,-397.44 226,-395.53 415.16,-387.28 637.21,-364.31 748.8,-351.84"/>
<polygon fill="#9a32cd" stroke="#9a32cd" points="99.84,-392.16 89.74,-395.36 99.62,-399.16 99.84,-392.16"/>
<text text-anchor="middle" x="442.5" y="-387.53" font-family="Helvetica,sans-Serif" font-size="10.00"> BaseAddr</text>
</g>
<!-- Node12 -->
<g id="node12" class="node">
<title>Node12</title>
<g id="a_node12"><a xlink:href="structst__osal__device__info.html" target="_top" xlink:title=" ">
<polygon fill="white" stroke="black" points="252.5,-303.03 252.5,-322.03 365.5,-322.03 365.5,-303.03 252.5,-303.03"/>
<text text-anchor="middle" x="309" y="-310.03" font-family="Helvetica,sans-Serif" font-size="10.00">st_osal_device_info</text>
</a>
</g>
</g>
<!-- Node3&#45;&gt;Node12 -->
<g id="edge14" class="edge">
<title>Node3&#45;&gt;Node12</title>
<path fill="none" stroke="#9a32cd" stroke-dasharray="5,2" d="M99.36,-385.63C131.42,-376.34 182.54,-360.99 226,-345.53 246.39,-338.28 269.19,-329.01 285.57,-322.14"/>
<polygon fill="#9a32cd" stroke="#9a32cd" points="98.29,-382.3 89.65,-388.43 100.23,-389.02 98.29,-382.3"/>
<text text-anchor="middle" x="189" y="-383.53" font-family="Helvetica,sans-Serif" font-size="10.00"> irq_channels</text>
<text text-anchor="middle" x="189" y="-372.53" font-family="Helvetica,sans-Serif" font-size="10.00">range</text>
</g>
<!-- Node4 -->
<g id="node4" class="node">
<title>Node4</title>
<g id="a_node4"><a xlink:title=" ">
<polygon fill="white" stroke="#bfbfbf" points="547,-171.03 547,-190.03 603,-190.03 603,-171.03 547,-171.03"/>
<text text-anchor="middle" x="575" y="-178.03" font-family="Helvetica,sans-Serif" font-size="10.00">uint32_t</text>
</a>
</g>
</g>
<!-- Node4&#45;&gt;Node1 -->
<g id="edge3" class="edge">
<title>Node4&#45;&gt;Node1</title>
<path fill="none" stroke="#9a32cd" stroke-dasharray="5,2" d="M612.9,-187.71C646.17,-195.53 695.23,-210.55 731,-236.53 769.79,-264.72 802.12,-313.31 814.77,-333.88"/>
<polygon fill="#9a32cd" stroke="#9a32cd" points="613.64,-184.28 603.11,-185.5 612.1,-191.11 613.64,-184.28"/>
<text text-anchor="middle" x="694" y="-250.53" font-family="Helvetica,sans-Serif" font-size="10.00"> ChannelMask</text>
<text text-anchor="middle" x="694" y="-239.53" font-family="Helvetica,sans-Serif" font-size="10.00">FdMode</text>
</g>
<!-- Node5 -->
<g id="node5" class="node">
<title>Node5</title>
<g id="a_node5"><a xlink:href="structst__osal__device__control.html" target="_top" xlink:title="control of device (Defined in OSAL Wrapper implementation files).">
<polygon fill="white" stroke="black" points="511,-209.03 511,-228.03 639,-228.03 639,-209.03 511,-209.03"/>
<text text-anchor="middle" x="575" y="-216.03" font-family="Helvetica,sans-Serif" font-size="10.00">st_osal_device_control</text>
</a>
</g>
</g>
<!-- Node5&#45;&gt;Node1 -->
<g id="edge4" class="edge">
<title>Node5&#45;&gt;Node1</title>
<path fill="none" stroke="#9a32cd" stroke-dasharray="5,2" d="M603.79,-232.74C654.05,-258.44 758.84,-312.01 801.66,-333.9"/>
<polygon fill="#9a32cd" stroke="#9a32cd" points="605.28,-229.57 594.78,-228.13 602.09,-235.8 605.28,-229.57"/>
<text text-anchor="middle" x="694" y="-298.53" font-family="Helvetica,sans-Serif" font-size="10.00"> device_handle</text>
</g>
<!-- Node6 -->
<g id="node6" class="node">
<title>Node6</title>
<g id="a_node6"><a xlink:title=" ">
<polygon fill="white" stroke="#bfbfbf" points="244,-265.03 244,-284.03 374,-284.03 374,-265.03 244,-265.03"/>
<text text-anchor="middle" x="309" y="-272.03" font-family="Helvetica,sans-Serif" font-size="10.00">enum e_osal_pm_state</text>
</a>
</g>
</g>
<!-- Node6&#45;&gt;Node5 -->
<g id="edge5" class="edge">
<title>Node6&#45;&gt;Node5</title>
<path fill="none" stroke="#9a32cd" stroke-dasharray="5,2" d="M384.26,-266.27C417.76,-261.76 457.65,-255.27 493,-246.53 512.5,-241.71 533.96,-234.19 549.89,-228.15"/>
<polygon fill="#9a32cd" stroke="#9a32cd" points="383.54,-262.84 374.08,-267.61 384.45,-269.78 383.54,-262.84"/>
<text text-anchor="middle" x="442.5" y="-267.53" font-family="Helvetica,sans-Serif" font-size="10.00"> lowest_power_state</text>
</g>
<!-- Node7 -->
<g id="node7" class="node">
<title>Node7</title>
<g id="a_node7"><a xlink:title=" ">
<polygon fill="white" stroke="#bfbfbf" points="259,-227.03 259,-246.03 359,-246.03 359,-227.03 259,-227.03"/>
<text text-anchor="middle" x="309" y="-234.03" font-family="Helvetica,sans-Serif" font-size="10.00">st_pma_handle_t</text>
</a>
</g>
</g>
<!-- Node7&#45;&gt;Node5 -->
<g id="edge6" class="edge">
<title>Node7&#45;&gt;Node5</title>
<path fill="none" stroke="#9a32cd" stroke-dasharray="5,2" d="M369.14,-232.5C411.24,-229.63 467.74,-225.78 510.74,-222.85"/>
<polygon fill="#9a32cd" stroke="#9a32cd" points="368.78,-229.02 359.04,-233.19 369.25,-236 368.78,-229.02"/>
<text text-anchor="middle" x="442.5" y="-234.53" font-family="Helvetica,sans-Serif" font-size="10.00"> pma_handle</text>
</g>
<!-- Node8 -->
<g id="node8" class="node">
<title>Node8</title>
<g id="a_node8"><a xlink:title=" ">
<polygon fill="white" stroke="#bfbfbf" points="281,-189.03 281,-208.03 337,-208.03 337,-189.03 281,-189.03"/>
<text text-anchor="middle" x="309" y="-196.03" font-family="Helvetica,sans-Serif" font-size="10.00">uint64_t</text>
</a>
</g>
</g>
<!-- Node8&#45;&gt;Node5 -->
<g id="edge7" class="edge">
<title>Node8&#45;&gt;Node5</title>
<path fill="none" stroke="#9a32cd" stroke-dasharray="5,2" d="M347.44,-195.9C384.54,-193.91 442.91,-192.44 493,-198.53 509.68,-200.56 527.87,-204.86 542.79,-208.95"/>
<polygon fill="#9a32cd" stroke="#9a32cd" points="346.88,-192.42 337.1,-196.5 347.28,-199.41 346.88,-192.42"/>
<text text-anchor="middle" x="442.5" y="-212.53" font-family="Helvetica,sans-Serif" font-size="10.00"> axi_bus_id</text>
<text text-anchor="middle" x="442.5" y="-201.53" font-family="Helvetica,sans-Serif" font-size="10.00">handle_id</text>
</g>
<!-- Node9 -->
<g id="node9" class="node">
<title>Node9</title>
<g id="a_node9"><a xlink:title=" ">
<polygon fill="white" stroke="#bfbfbf" points="284,-151.03 284,-170.03 334,-170.03 334,-151.03 284,-151.03"/>
<text text-anchor="middle" x="309" y="-158.03" font-family="Helvetica,sans-Serif" font-size="10.00">int64_t</text>
</a>
</g>
</g>
<!-- Node9&#45;&gt;Node5 -->
<g id="edge8" class="edge">
<title>Node9&#45;&gt;Node5</title>
<path fill="none" stroke="#9a32cd" stroke-dasharray="5,2" d="M344.18,-157.03C382.55,-154.63 445.64,-155.43 493,-179.53 503.66,-184.96 500.9,-193.12 511,-199.53 517.08,-203.39 523.98,-206.5 530.93,-208.99"/>
<polygon fill="#9a32cd" stroke="#9a32cd" points="343.76,-153.55 334.05,-157.77 344.27,-160.53 343.76,-153.55"/>
<text text-anchor="middle" x="442.5" y="-182.53" font-family="Helvetica,sans-Serif" font-size="10.00"> inner_timeout</text>
</g>
<!-- Node10 -->
<g id="node10" class="node">
<title>Node10</title>
<g id="a_node10"><a xlink:title=" ">
<polygon fill="white" stroke="#bfbfbf" points="266,-113.03 266,-132.03 352,-132.03 352,-113.03 266,-113.03"/>
<text text-anchor="middle" x="309" y="-120.03" font-family="Helvetica,sans-Serif" font-size="10.00">base_mutex_t</text>
</a>
</g>
</g>
<!-- Node10&#45;&gt;Node5 -->
<g id="edge9" class="edge">
<title>Node10&#45;&gt;Node5</title>
<path fill="none" stroke="#9a32cd" stroke-dasharray="5,2" d="M362.5,-114.03C402.62,-110.6 456.97,-112.98 493,-142.53 513.54,-159.38 492.09,-180.87 511,-199.53 514.9,-203.38 519.56,-206.46 524.54,-208.91"/>
<polygon fill="#9a32cd" stroke="#9a32cd" points="361.97,-110.57 352.37,-115.05 362.67,-117.53 361.97,-110.57"/>
<text text-anchor="middle" x="442.5" y="-145.53" font-family="Helvetica,sans-Serif" font-size="10.00"> inner_mtx</text>
</g>
<!-- Node11 -->
<g id="node11" class="node">
<title>Node11</title>
<g id="a_node11"><a xlink:title=" ">
<polygon fill="white" stroke="#bfbfbf" points="290,-51.03 290,-70.03 328,-70.03 328,-51.03 290,-51.03"/>
<text text-anchor="middle" x="309" y="-58.03" font-family="Helvetica,sans-Serif" font-size="10.00">bool</text>
</a>
</g>
</g>
<!-- Node11&#45;&gt;Node5 -->
<g id="edge10" class="edge">
<title>Node11&#45;&gt;Node5</title>
<path fill="none" stroke="#9a32cd" stroke-dasharray="5,2" d="M337.92,-51.38C377.7,-40.27 450.58,-27.4 493,-65.53 537.69,-105.71 472.03,-153.79 511,-199.53 514.26,-203.36 518.26,-206.43 522.65,-208.89"/>
<polygon fill="#9a32cd" stroke="#9a32cd" points="336.69,-48.09 328.09,-54.28 338.67,-54.81 336.69,-48.09"/>
<text text-anchor="middle" x="442.5" y="-101.53" font-family="Helvetica,sans-Serif" font-size="10.00"> active</text>
<text text-anchor="middle" x="442.5" y="-90.53" font-family="Helvetica,sans-Serif" font-size="10.00">init_state</text>
<text text-anchor="middle" x="442.5" y="-79.53" font-family="Helvetica,sans-Serif" font-size="10.00">pm_wait_state</text>
<text text-anchor="middle" x="442.5" y="-68.53" font-family="Helvetica,sans-Serif" font-size="10.00">use</text>
</g>
<!-- Node12&#45;&gt;Node5 -->
<g id="edge11" class="edge">
<title>Node12&#45;&gt;Node5</title>
<path fill="none" stroke="#9a32cd" stroke-dasharray="5,2" d="M375.93,-308.11C411.74,-303.9 456.11,-295.65 493,-279.53 522.04,-266.84 550.29,-241.84 564.5,-228.11"/>
<polygon fill="#9a32cd" stroke="#9a32cd" points="375.15,-304.68 365.59,-309.25 375.92,-311.64 375.15,-304.68"/>
<text text-anchor="middle" x="442.5" y="-307.53" font-family="Helvetica,sans-Serif" font-size="10.00"> dev_info</text>
</g>
<!-- Node13 -->
<g id="node13" class="node">
<title>Node13</title>
<g id="a_node13"><a xlink:title=" ">
<polygon fill="white" stroke="#bfbfbf" points="18,-331.03 18,-350.03 116,-350.03 116,-331.03 18,-331.03"/>
<text text-anchor="middle" x="67" y="-338.03" font-family="Helvetica,sans-Serif" font-size="10.00">e_pma_hwa_id_t</text>
</a>
</g>
</g>
<!-- Node13&#45;&gt;Node12 -->
<g id="edge12" class="edge">
<title>Node13&#45;&gt;Node12</title>
<path fill="none" stroke="#9a32cd" stroke-dasharray="5,2" d="M126.26,-333.74C164.57,-329.27 214.43,-323.45 252.23,-319.04"/>
<polygon fill="#9a32cd" stroke="#9a32cd" points="125.81,-330.26 116.28,-334.9 126.62,-337.22 125.81,-330.26"/>
<text text-anchor="middle" x="189" y="-333.53" font-family="Helvetica,sans-Serif" font-size="10.00"> pm_id</text>
</g>
<!-- Node14 -->
<g id="node14" class="node">
<title>Node14</title>
<g id="a_node14"><a xlink:title=" ">
<polygon fill="white" stroke="#bfbfbf" points="48,-279.03 48,-298.03 86,-298.03 86,-279.03 48,-279.03"/>
<text text-anchor="middle" x="67" y="-286.03" font-family="Helvetica,sans-Serif" font-size="10.00">char</text>
</a>
</g>
</g>
<!-- Node14&#45;&gt;Node12 -->
<g id="edge13" class="edge">
<title>Node14&#45;&gt;Node12</title>
<path fill="none" stroke="#9a32cd" stroke-dasharray="5,2" d="M96.47,-287.26C112.73,-286.6 133.51,-285.86 152,-285.53 184.88,-284.95 193.83,-278.7 226,-285.53 234.56,-287.35 235.79,-290.5 244,-293.53 253.24,-296.94 263.4,-300.18 272.85,-302.99"/>
<polygon fill="#9a32cd" stroke="#9a32cd" points="95.86,-283.79 86.02,-287.7 96.16,-290.78 95.86,-283.79"/>
<text text-anchor="middle" x="189" y="-310.53" font-family="Helvetica,sans-Serif" font-size="10.00"> axi_bus_name</text>
<text text-anchor="middle" x="189" y="-299.53" font-family="Helvetica,sans-Serif" font-size="10.00">id</text>
<text text-anchor="middle" x="189" y="-288.53" font-family="Helvetica,sans-Serif" font-size="10.00">type</text>
</g>
<!-- Node15 -->
<g id="node15" class="node">
<title>Node15</title>
<g id="a_node15"><a xlink:title=" ">
<polygon fill="white" stroke="#bfbfbf" points="0,-241.03 0,-260.03 134,-260.03 134,-241.03 0,-241.03"/>
<text text-anchor="middle" x="67" y="-248.03" font-family="Helvetica,sans-Serif" font-size="10.00">enum e_osal_pm_policy</text>
</a>
</g>
</g>
<!-- Node15&#45;&gt;Node12 -->
<g id="edge15" class="edge">
<title>Node15&#45;&gt;Node12</title>
<path fill="none" stroke="#9a32cd" stroke-dasharray="5,2" d="M144.6,-245.19C171.95,-246.55 201.91,-252.03 226,-266.53 238.36,-273.97 232.4,-284.97 244,-293.53 249.22,-297.39 255.22,-300.46 261.41,-302.92"/>
<polygon fill="#9a32cd" stroke="#9a32cd" points="144.38,-241.68 134.27,-244.87 144.16,-248.68 144.38,-241.68"/>
<text text-anchor="middle" x="189" y="-269.53" font-family="Helvetica,sans-Serif" font-size="10.00"> initial_policy</text>
</g>
<!-- Node16 -->
<g id="node16" class="node">
<title>Node16</title>
<g id="a_node16"><a xlink:href="structst__osal__interrupt__info__t.html" target="_top" xlink:title=" ">
<polygon fill="white" stroke="black" points="1.5,-203.03 1.5,-222.03 132.5,-222.03 132.5,-203.03 1.5,-203.03"/>
<text text-anchor="middle" x="67" y="-210.03" font-family="Helvetica,sans-Serif" font-size="10.00">st_osal_interrupt_info_t</text>
</a>
</g>
</g>
<!-- Node16&#45;&gt;Node12 -->
<g id="edge16" class="edge">
<title>Node16&#45;&gt;Node12</title>
<path fill="none" stroke="#9a32cd" stroke-dasharray="5,2" d="M142.73,-204.88C171.7,-205.85 203.3,-212.26 226,-231.53 247.87,-250.1 223.77,-273.18 244,-293.53 247.84,-297.4 252.43,-300.48 257.36,-302.94"/>
<polygon fill="#9a32cd" stroke="#9a32cd" points="142.65,-201.38 132.61,-204.76 142.56,-208.38 142.65,-201.38"/>
<text text-anchor="middle" x="189" y="-234.53" font-family="Helvetica,sans-Serif" font-size="10.00"> interrupt</text>
</g>
<!-- Node17 -->
<g id="node17" class="node">
<title>Node17</title>
<g id="a_node17"><a xlink:title=" ">
<polygon fill="white" stroke="#bfbfbf" points="38,-165.03 38,-184.03 96,-184.03 96,-165.03 38,-165.03"/>
<text text-anchor="middle" x="67" y="-172.03" font-family="Helvetica,sans-Serif" font-size="10.00">uintptr_t</text>
</a>
</g>
</g>
<!-- Node17&#45;&gt;Node12 -->
<g id="edge17" class="edge">
<title>Node17&#45;&gt;Node12</title>
<path fill="none" stroke="#9a32cd" stroke-dasharray="5,2" d="M106.1,-166.96C141.8,-162.26 194.26,-161.87 226,-191.53 259.63,-222.97 213.35,-259.18 244,-293.53 247.47,-297.42 251.7,-300.54 256.31,-303.02"/>
<polygon fill="#9a32cd" stroke="#9a32cd" points="105.44,-163.52 96.06,-168.46 106.47,-170.45 105.44,-163.52"/>
<text text-anchor="middle" x="189" y="-194.53" font-family="Helvetica,sans-Serif" font-size="10.00"> address</text>
</g>
<!-- Node18 -->
<g id="node18" class="node">
<title>Node18</title>
<g id="a_node18"><a xlink:title=" ">
<polygon fill="white" stroke="#bfbfbf" points="251,-13.03 251,-32.03 367,-32.03 367,-13.03 251,-13.03"/>
<text text-anchor="middle" x="309" y="-20.03" font-family="Helvetica,sans-Serif" font-size="10.00">SemaphoreHandle_t</text>
</a>
</g>
</g>
<!-- Node18&#45;&gt;Node5 -->
<g id="edge18" class="edge">
<title>Node18&#45;&gt;Node5</title>
<path fill="none" stroke="#9a32cd" stroke-dasharray="5,2" d="M347.32,-10.22C388.49,0.76 454.05,10.18 493,-25.53 521.65,-51.8 486.24,-169.56 511,-199.53 514.2,-203.41 518.16,-206.51 522.53,-209"/>
<polygon fill="#9a32cd" stroke="#9a32cd" points="346.34,-6.86 337.66,-12.95 348.24,-13.6 346.34,-6.86"/>
<text text-anchor="middle" x="442.5" y="-28.53" font-family="Helvetica,sans-Serif" font-size="10.00"> inner_mtx</text>
</g>
</g>
</svg>
