<?xml version="1.0" encoding="UTF-8" standalone="no"?>
<!DOCTYPE svg PUBLIC "-//W3C//DTD SVG 1.1//EN"
 "http://www.w3.org/Graphics/SVG/1.1/DTD/svg11.dtd">
<!-- Generated by graphviz version 2.43.0 (0)
 -->
<!-- Title: r_cio_ether_mii Pages: 1 -->
<svg width="154pt" height="117pt"
 viewBox="0.00 0.00 153.50 117.00" xmlns="http://www.w3.org/2000/svg" xmlns:xlink="http://www.w3.org/1999/xlink">
<g id="graph0" class="graph" transform="scale(1 1) rotate(0) translate(4 113)">
<title>r_cio_ether_mii</title>
<polygon fill="white" stroke="transparent" points="-4,4 -4,-113 149.5,-113 149.5,4 -4,4"/>
<!-- Node1 -->
<g id="node1" class="node">
<title>Node1</title>
<g id="a_node1"><a xlink:title=" ">
<polygon fill="#bfbfbf" stroke="black" points="14,-0.5 14,-19.5 106,-19.5 106,-0.5 14,-0.5"/>
<text text-anchor="middle" x="60" y="-7.5" font-family="Helvetica,sans-Serif" font-size="10.00">r_cio_ether_mii</text>
</a>
</g>
</g>
<!-- Node2 -->
<g id="node2" class="node">
<title>Node2</title>
<g id="a_node2"><a xlink:title=" ">
<polygon fill="white" stroke="#bfbfbf" points="0,-89.5 0,-108.5 38,-108.5 38,-89.5 0,-89.5"/>
<text text-anchor="middle" x="19" y="-96.5" font-family="Helvetica,sans-Serif" font-size="10.00">char</text>
</a>
</g>
</g>
<!-- Node2&#45;&gt;Node1 -->
<g id="edge1" class="edge">
<title>Node2&#45;&gt;Node1</title>
<path fill="none" stroke="#9a32cd" stroke-dasharray="5,2" d="M25.3,-79.8C29.72,-67.71 36.07,-51.61 43,-38 46.22,-31.68 50.47,-24.93 53.91,-19.76"/>
<polygon fill="#9a32cd" stroke="#9a32cd" points="22,-78.64 21.94,-89.24 28.59,-80.99 22,-78.64"/>
<text text-anchor="middle" x="61" y="-63" font-family="Helvetica,sans-Serif" font-size="10.00"> CtrlIdx</text>
<text text-anchor="middle" x="61" y="-52" font-family="Helvetica,sans-Serif" font-size="10.00">RegIdx</text>
<text text-anchor="middle" x="61" y="-41" font-family="Helvetica,sans-Serif" font-size="10.00">TrcvIdx</text>
</g>
<!-- Node3 -->
<g id="node3" class="node">
<title>Node3</title>
<g id="a_node3"><a xlink:title=" ">
<polygon fill="white" stroke="#bfbfbf" points="56.5,-89.5 56.5,-108.5 145.5,-108.5 145.5,-89.5 56.5,-89.5"/>
<text text-anchor="middle" x="101" y="-96.5" font-family="Helvetica,sans-Serif" font-size="10.00">unsigned short</text>
</a>
</g>
</g>
<!-- Node3&#45;&gt;Node1 -->
<g id="edge2" class="edge">
<title>Node3&#45;&gt;Node1</title>
<path fill="none" stroke="#9a32cd" stroke-dasharray="5,2" d="M95.54,-79.28C91.66,-67.17 85.93,-51.24 79,-38 75.6,-31.5 70.85,-24.75 66.95,-19.63"/>
<polygon fill="#9a32cd" stroke="#9a32cd" points="92.28,-80.61 98.55,-89.15 98.98,-78.57 92.28,-80.61"/>
<text text-anchor="middle" x="110.5" y="-52" font-family="Helvetica,sans-Serif" font-size="10.00"> RegVal</text>
</g>
</g>
</svg>
