<?xml version="1.0" encoding="UTF-8" standalone="no"?>
<!DOCTYPE svg PUBLIC "-//W3C//DTD SVG 1.1//EN"
 "http://www.w3.org/Graphics/SVG/1.1/DTD/svg11.dtd">
<!-- Generated by graphviz version 2.43.0 (0)
 -->
<!-- Title: st_osal_mutex_control Pages: 1 -->
<svg width="486pt" height="184pt"
 viewBox="0.00 0.00 486.00 184.00" xmlns="http://www.w3.org/2000/svg" xmlns:xlink="http://www.w3.org/1999/xlink">
<g id="graph0" class="graph" transform="scale(1 1) rotate(0) translate(4 180)">
<title>st_osal_mutex_control</title>
<polygon fill="white" stroke="transparent" points="-4,4 -4,-180 482,-180 482,4 -4,4"/>
<!-- Node1 -->
<g id="node1" class="node">
<title>Node1</title>
<g id="a_node1"><a xlink:title="control of mutex (Defined in OSAL Wrapper implementation files).">
<polygon fill="#bfbfbf" stroke="black" points="166.5,-0.5 166.5,-19.5 293.5,-19.5 293.5,-0.5 166.5,-0.5"/>
<text text-anchor="middle" x="230" y="-7.5" font-family="Helvetica,sans-Serif" font-size="10.00">st_osal_mutex_control</text>
</a>
</g>
</g>
<!-- Node2 -->
<g id="node2" class="node">
<title>Node2</title>
<g id="a_node2"><a xlink:title=" ">
<polygon fill="white" stroke="#bfbfbf" points="0,-156.5 0,-175.5 56,-175.5 56,-156.5 0,-156.5"/>
<text text-anchor="middle" x="28" y="-163.5" font-family="Helvetica,sans-Serif" font-size="10.00">uint64_t</text>
</a>
</g>
</g>
<!-- Node2&#45;&gt;Node1 -->
<g id="edge1" class="edge">
<title>Node2&#45;&gt;Node1</title>
<path fill="none" stroke="#9a32cd" stroke-dasharray="5,2" d="M20.22,-147.04C13.32,-128.02 6.38,-98.04 21,-78 53.9,-32.9 117.59,-17.48 166.06,-12.54"/>
<polygon fill="#9a32cd" stroke="#9a32cd" points="16.97,-148.34 23.92,-156.34 23.48,-145.76 16.97,-148.34"/>
<text text-anchor="middle" x="46.5" y="-91" font-family="Helvetica,sans-Serif" font-size="10.00"> handle_id</text>
</g>
<!-- Node3 -->
<g id="node3" class="node">
<title>Node3</title>
<g id="a_node3"><a xlink:href="structst__osal__rcfg__mutex__config.html" target="_top" xlink:title=" ">
<polygon fill="white" stroke="black" points="81,-78.5 81,-108.5 193,-108.5 193,-78.5 81,-78.5"/>
<text text-anchor="start" x="89" y="-96.5" font-family="Helvetica,sans-Serif" font-size="10.00">st_osal_rcfg_mutex</text>
<text text-anchor="middle" x="137" y="-85.5" font-family="Helvetica,sans-Serif" font-size="10.00">_config</text>
</a>
</g>
</g>
<!-- Node2&#45;&gt;Node3 -->
<g id="edge3" class="edge">
<title>Node2&#45;&gt;Node3</title>
<path fill="none" stroke="#9a32cd" stroke-dasharray="5,2" d="M49.95,-150.8C68.95,-138.51 96.29,-120.83 115.24,-108.58"/>
<polygon fill="#9a32cd" stroke="#9a32cd" points="47.86,-147.99 41.37,-156.36 51.66,-153.86 47.86,-147.99"/>
<text text-anchor="middle" x="92.5" y="-130" font-family="Helvetica,sans-Serif" font-size="10.00"> id</text>
</g>
<!-- Node3&#45;&gt;Node1 -->
<g id="edge2" class="edge">
<title>Node3&#45;&gt;Node1</title>
<path fill="none" stroke="#9a32cd" stroke-dasharray="5,2" d="M148.08,-69.23C154.01,-58.65 162.14,-46.61 172,-38 181.12,-30.04 192.99,-23.96 203.61,-19.61"/>
<polygon fill="#9a32cd" stroke="#9a32cd" points="144.82,-67.91 143.26,-78.39 151.01,-71.17 144.82,-67.91"/>
<text text-anchor="middle" x="198.5" y="-46.5" font-family="Helvetica,sans-Serif" font-size="10.00"> usr_config</text>
</g>
<!-- Node4 -->
<g id="node4" class="node">
<title>Node4</title>
<g id="a_node4"><a xlink:title=" ">
<polygon fill="white" stroke="#bfbfbf" points="211,-84 211,-103 261,-103 261,-84 211,-84"/>
<text text-anchor="middle" x="236" y="-91" font-family="Helvetica,sans-Serif" font-size="10.00">int64_t</text>
</a>
</g>
</g>
<!-- Node4&#45;&gt;Node1 -->
<g id="edge4" class="edge">
<title>Node4&#45;&gt;Node1</title>
<path fill="none" stroke="#9a32cd" stroke-dasharray="5,2" d="M232.69,-73.78C232.01,-69.28 231.39,-64.48 231,-60 229.78,-45.93 229.72,-29.5 229.83,-19.69"/>
<polygon fill="#9a32cd" stroke="#9a32cd" points="229.29,-74.69 234.37,-83.98 236.2,-73.55 229.29,-74.69"/>
<text text-anchor="middle" x="267" y="-46.5" font-family="Helvetica,sans-Serif" font-size="10.00"> inner_timeout</text>
</g>
<!-- Node5 -->
<g id="node5" class="node">
<title>Node5</title>
<g id="a_node5"><a xlink:title=" ">
<polygon fill="white" stroke="#bfbfbf" points="306,-84 306,-103 344,-103 344,-84 306,-84"/>
<text text-anchor="middle" x="325" y="-91" font-family="Helvetica,sans-Serif" font-size="10.00">bool</text>
</a>
</g>
</g>
<!-- Node5&#45;&gt;Node1 -->
<g id="edge5" class="edge">
<title>Node5&#45;&gt;Node1</title>
<path fill="none" stroke="#9a32cd" stroke-dasharray="5,2" d="M321.52,-73.89C318.45,-62.2 312.87,-47.59 303,-38 294.18,-29.43 282.4,-23.55 270.89,-19.51"/>
<polygon fill="#9a32cd" stroke="#9a32cd" points="318.16,-74.92 323.75,-83.93 325,-73.41 318.16,-74.92"/>
<text text-anchor="middle" x="333" y="-52" font-family="Helvetica,sans-Serif" font-size="10.00"> active</text>
<text text-anchor="middle" x="333" y="-41" font-family="Helvetica,sans-Serif" font-size="10.00">use</text>
</g>
<!-- Node6 -->
<g id="node6" class="node">
<title>Node6</title>
<g id="a_node6"><a xlink:title=" ">
<polygon fill="white" stroke="#bfbfbf" points="362,-84 362,-103 478,-103 478,-84 362,-84"/>
<text text-anchor="middle" x="420" y="-91" font-family="Helvetica,sans-Serif" font-size="10.00">SemaphoreHandle_t</text>
</a>
</g>
</g>
<!-- Node6&#45;&gt;Node1 -->
<g id="edge6" class="edge">
<title>Node6&#45;&gt;Node1</title>
<path fill="none" stroke="#9a32cd" stroke-dasharray="5,2" d="M404.73,-76.22C392.24,-63.88 373.52,-47.48 354,-38 335.37,-28.95 313.71,-22.9 293.74,-18.88"/>
<polygon fill="#9a32cd" stroke="#9a32cd" points="402.48,-78.93 411.98,-83.62 407.48,-74.03 402.48,-78.93"/>
<text text-anchor="middle" x="411.5" y="-52" font-family="Helvetica,sans-Serif" font-size="10.00"> inner_mtx</text>
<text text-anchor="middle" x="411.5" y="-41" font-family="Helvetica,sans-Serif" font-size="10.00">mtx</text>
</g>
</g>
</svg>
