<?xml version="1.0" encoding="UTF-8" standalone="no"?>
<!DOCTYPE svg PUBLIC "-//W3C//DTD SVG 1.1//EN"
 "http://www.w3.org/Graphics/SVG/1.1/DTD/svg11.dtd">
<!-- Generated by graphviz version 2.43.0 (0)
 -->
<!-- Title: r_wm_Msg_ScreenFlush_t Pages: 1 -->
<svg width="955pt" height="367pt"
 viewBox="0.00 0.00 955.00 367.00" xmlns="http://www.w3.org/2000/svg" xmlns:xlink="http://www.w3.org/1999/xlink">
<g id="graph0" class="graph" transform="scale(1 1) rotate(0) translate(4 363)">
<title>r_wm_Msg_ScreenFlush_t</title>
<polygon fill="white" stroke="transparent" points="-4,4 -4,-363 951,-363 951,4 -4,4"/>
<!-- Node1 -->
<g id="node1" class="node">
<title>Node1</title>
<g id="a_node1"><a xlink:title=" ">
<polygon fill="#bfbfbf" stroke="black" points="804,-166.5 804,-185.5 947,-185.5 947,-166.5 804,-166.5"/>
<text text-anchor="middle" x="875.5" y="-173.5" font-family="Helvetica,sans-Serif" font-size="10.00">r_wm_Msg_ScreenFlush_t</text>
</a>
</g>
</g>
<!-- Node2 -->
<g id="node2" class="node">
<title>Node2</title>
<g id="a_node2"><a xlink:title=" ">
<polygon fill="white" stroke="#bfbfbf" points="631.5,-185.5 631.5,-204.5 687.5,-204.5 687.5,-185.5 631.5,-185.5"/>
<text text-anchor="middle" x="659.5" y="-192.5" font-family="Helvetica,sans-Serif" font-size="10.00">uint32_t</text>
</a>
</g>
</g>
<!-- Node2&#45;&gt;Node1 -->
<g id="edge1" class="edge">
<title>Node2&#45;&gt;Node1</title>
<path fill="none" stroke="#9a32cd" stroke-dasharray="5,2" d="M697.74,-191.69C726.86,-189.11 768.2,-185.44 803.57,-182.3"/>
<polygon fill="#9a32cd" stroke="#9a32cd" points="697.25,-188.22 687.6,-192.59 697.87,-195.2 697.25,-188.22"/>
<text text-anchor="middle" x="759.5" y="-191" font-family="Helvetica,sans-Serif" font-size="10.00"> Pid</text>
</g>
<!-- Node3 -->
<g id="node3" class="node">
<title>Node3</title>
<g id="a_node3"><a xlink:href="structst__osal__mq__control.html" target="_top" xlink:title="control of message queue (Defined in OSAL Wrapper implementation files).">
<polygon fill="white" stroke="black" points="604,-147.5 604,-166.5 715,-166.5 715,-147.5 604,-147.5"/>
<text text-anchor="middle" x="659.5" y="-154.5" font-family="Helvetica,sans-Serif" font-size="10.00">st_osal_mq_control</text>
</a>
</g>
</g>
<!-- Node3&#45;&gt;Node1 -->
<g id="edge2" class="edge">
<title>Node3&#45;&gt;Node1</title>
<path fill="none" stroke="#9a32cd" stroke-dasharray="5,2" d="M725.1,-162.74C749.96,-164.94 778.46,-167.47 803.86,-169.73"/>
<polygon fill="#9a32cd" stroke="#9a32cd" points="725.33,-159.24 715.05,-161.84 724.71,-166.21 725.33,-159.24"/>
<text text-anchor="middle" x="759.5" y="-171" font-family="Helvetica,sans-Serif" font-size="10.00"> MqHandle</text>
</g>
<!-- Node4 -->
<g id="node4" class="node">
<title>Node4</title>
<g id="a_node4"><a xlink:href="structst__osal__rcfg__mq__config.html" target="_top" xlink:title=" ">
<polygon fill="white" stroke="black" points="365,-249.5 365,-268.5 496,-268.5 496,-249.5 365,-249.5"/>
<text text-anchor="middle" x="430.5" y="-256.5" font-family="Helvetica,sans-Serif" font-size="10.00">st_osal_rcfg_mq_config</text>
</a>
</g>
</g>
<!-- Node4&#45;&gt;Node3 -->
<g id="edge3" class="edge">
<title>Node4&#45;&gt;Node3</title>
<path fill="none" stroke="#9a32cd" stroke-dasharray="5,2" d="M506.44,-262.73C534.29,-260.35 564.35,-252.8 586,-234 606.38,-216.3 585.25,-195.41 604,-176 607.76,-172.11 612.36,-169.01 617.27,-166.55"/>
<polygon fill="#9a32cd" stroke="#9a32cd" points="506.05,-259.25 496.3,-263.38 506.5,-266.23 506.05,-259.25"/>
<text text-anchor="middle" x="550" y="-264" font-family="Helvetica,sans-Serif" font-size="10.00"> usr_config</text>
</g>
<!-- Node5 -->
<g id="node5" class="node">
<title>Node5</title>
<g id="a_node5"><a xlink:title=" ">
<polygon fill="white" stroke="#bfbfbf" points="0,-269.5 0,-288.5 56,-288.5 56,-269.5 0,-269.5"/>
<text text-anchor="middle" x="28" y="-276.5" font-family="Helvetica,sans-Serif" font-size="10.00">uint64_t</text>
</a>
</g>
</g>
<!-- Node5&#45;&gt;Node3 -->
<g id="edge7" class="edge">
<title>Node5&#45;&gt;Node3</title>
<path fill="none" stroke="#9a32cd" stroke-dasharray="5,2" d="M62.83,-292.05C158.33,-326.44 433,-408.2 586,-276 620.17,-246.48 574.68,-210.34 604,-176 607.32,-172.11 611.48,-169.02 616.01,-166.56"/>
<polygon fill="#9a32cd" stroke="#9a32cd" points="63.97,-288.74 53.38,-288.58 61.56,-295.31 63.97,-288.74"/>
<text text-anchor="middle" x="321.5" y="-351" font-family="Helvetica,sans-Serif" font-size="10.00"> handle_id</text>
</g>
<!-- Node5&#45;&gt;Node4 -->
<g id="edge4" class="edge">
<title>Node5&#45;&gt;Node4</title>
<path fill="none" stroke="#9a32cd" stroke-dasharray="5,2" d="M66.49,-277.13C134.81,-273.72 280.28,-266.45 364.86,-262.23"/>
<polygon fill="#9a32cd" stroke="#9a32cd" points="66.03,-273.65 56.21,-277.64 66.38,-280.64 66.03,-273.65"/>
<text text-anchor="middle" x="224.5" y="-274" font-family="Helvetica,sans-Serif" font-size="10.00"> id</text>
</g>
<!-- Node6 -->
<g id="node6" class="node">
<title>Node6</title>
<g id="a_node6"><a xlink:href="structst__osal__mq__config.html" target="_top" xlink:title="configuration of message queue.">
<polygon fill="white" stroke="black" points="171,-223.5 171,-242.5 278,-242.5 278,-223.5 171,-223.5"/>
<text text-anchor="middle" x="224.5" y="-230.5" font-family="Helvetica,sans-Serif" font-size="10.00">st_osal_mq_config</text>
</a>
</g>
</g>
<!-- Node5&#45;&gt;Node6 -->
<g id="edge6" class="edge">
<title>Node5&#45;&gt;Node6</title>
<path fill="none" stroke="#9a32cd" stroke-dasharray="5,2" d="M44.99,-262.21C52.97,-254.96 63.2,-247.2 74,-243 104.67,-231.08 141.53,-228.5 170.98,-228.93"/>
<polygon fill="#9a32cd" stroke="#9a32cd" points="42.32,-259.93 37.58,-269.4 47.19,-264.95 42.32,-259.93"/>
<text text-anchor="middle" x="113.5" y="-257" font-family="Helvetica,sans-Serif" font-size="10.00"> max_num_msg</text>
<text text-anchor="middle" x="113.5" y="-246" font-family="Helvetica,sans-Serif" font-size="10.00">msg_size</text>
</g>
<!-- Node6&#45;&gt;Node3 -->
<g id="edge11" class="edge">
<title>Node6&#45;&gt;Node3</title>
<path fill="none" stroke="#9a32cd" stroke-dasharray="5,2" d="M288.53,-228.73C361.18,-222.78 483.71,-209.59 586,-183 594.31,-180.84 595.95,-178.97 604,-176 612.56,-172.85 621.92,-169.53 630.43,-166.57"/>
<polygon fill="#9a32cd" stroke="#9a32cd" points="287.87,-225.27 278.18,-229.55 288.43,-232.25 287.87,-225.27"/>
<text text-anchor="middle" x="430.5" y="-224" font-family="Helvetica,sans-Serif" font-size="10.00"> config</text>
</g>
<!-- Node6&#45;&gt;Node4 -->
<g id="edge5" class="edge">
<title>Node6&#45;&gt;Node4</title>
<path fill="none" stroke="#9a32cd" stroke-dasharray="5,2" d="M288.21,-240.99C312.49,-244.09 340.27,-247.63 364.74,-250.75"/>
<polygon fill="#9a32cd" stroke="#9a32cd" points="288.4,-237.49 278.04,-239.7 287.51,-244.43 288.4,-237.49"/>
<text text-anchor="middle" x="321.5" y="-251" font-family="Helvetica,sans-Serif" font-size="10.00"> config</text>
</g>
<!-- Node7 -->
<g id="node7" class="node">
<title>Node7</title>
<g id="a_node7"><a xlink:title=" ">
<polygon fill="white" stroke="#bfbfbf" points="411.5,-164.5 411.5,-183.5 449.5,-183.5 449.5,-164.5 411.5,-164.5"/>
<text text-anchor="middle" x="430.5" y="-171.5" font-family="Helvetica,sans-Serif" font-size="10.00">char</text>
</a>
</g>
</g>
<!-- Node7&#45;&gt;Node3 -->
<g id="edge8" class="edge">
<title>Node7&#45;&gt;Node3</title>
<path fill="none" stroke="#9a32cd" stroke-dasharray="5,2" d="M459.94,-171.87C495.86,-169.18 558.47,-164.49 603.79,-161.1"/>
<polygon fill="#9a32cd" stroke="#9a32cd" points="459.4,-168.4 449.69,-172.64 459.93,-175.38 459.4,-168.4"/>
<text text-anchor="middle" x="550" y="-171" font-family="Helvetica,sans-Serif" font-size="10.00"> buffer</text>
</g>
<!-- Node8 -->
<g id="node8" class="node">
<title>Node8</title>
<g id="a_node8"><a xlink:title=" ">
<polygon fill="white" stroke="#bfbfbf" points="405.5,-126.5 405.5,-145.5 455.5,-145.5 455.5,-126.5 405.5,-126.5"/>
<text text-anchor="middle" x="430.5" y="-133.5" font-family="Helvetica,sans-Serif" font-size="10.00">int64_t</text>
</a>
</g>
</g>
<!-- Node8&#45;&gt;Node3 -->
<g id="edge9" class="edge">
<title>Node8&#45;&gt;Node3</title>
<path fill="none" stroke="#9a32cd" stroke-dasharray="5,2" d="M465.99,-138.22C497.33,-140.35 544.82,-143.85 586,-148 591.8,-148.59 597.86,-149.25 603.9,-149.95"/>
<polygon fill="#9a32cd" stroke="#9a32cd" points="465.83,-134.7 455.62,-137.53 465.36,-141.69 465.83,-134.7"/>
<text text-anchor="middle" x="550" y="-151" font-family="Helvetica,sans-Serif" font-size="10.00"> inner_timeout</text>
</g>
<!-- Node9 -->
<g id="node9" class="node">
<title>Node9</title>
<g id="a_node9"><a xlink:title=" ">
<polygon fill="white" stroke="#bfbfbf" points="411.5,-76.5 411.5,-95.5 449.5,-95.5 449.5,-76.5 411.5,-76.5"/>
<text text-anchor="middle" x="430.5" y="-83.5" font-family="Helvetica,sans-Serif" font-size="10.00">bool</text>
</a>
</g>
</g>
<!-- Node9&#45;&gt;Node3 -->
<g id="edge10" class="edge">
<title>Node9&#45;&gt;Node3</title>
<path fill="none" stroke="#9a32cd" stroke-dasharray="5,2" d="M460.16,-85.35C491.98,-85.56 544.34,-88.73 586,-105 611.11,-114.8 635.58,-135.3 648.68,-147.43"/>
<polygon fill="#9a32cd" stroke="#9a32cd" points="459.8,-81.85 449.81,-85.38 459.82,-88.85 459.8,-81.85"/>
<text text-anchor="middle" x="550" y="-130" font-family="Helvetica,sans-Serif" font-size="10.00"> active</text>
<text text-anchor="middle" x="550" y="-119" font-family="Helvetica,sans-Serif" font-size="10.00">receive_wait</text>
<text text-anchor="middle" x="550" y="-108" font-family="Helvetica,sans-Serif" font-size="10.00">send_wait</text>
</g>
<!-- Node10 -->
<g id="node10" class="node">
<title>Node10</title>
<g id="a_node10"><a xlink:title=" ">
<polygon fill="white" stroke="#bfbfbf" points="384.5,-38.5 384.5,-57.5 476.5,-57.5 476.5,-38.5 384.5,-38.5"/>
<text text-anchor="middle" x="430.5" y="-45.5" font-family="Helvetica,sans-Serif" font-size="10.00">QueueHandle_t</text>
</a>
</g>
</g>
<!-- Node10&#45;&gt;Node3 -->
<g id="edge12" class="edge">
<title>Node10&#45;&gt;Node3</title>
<path fill="none" stroke="#9a32cd" stroke-dasharray="5,2" d="M486.92,-48.33C517.78,-50.65 555.92,-57.19 586,-74 618.06,-91.93 642.81,-129.65 653.18,-147.39"/>
<polygon fill="#9a32cd" stroke="#9a32cd" points="486.95,-44.82 476.76,-47.7 486.52,-51.81 486.95,-44.82"/>
<text text-anchor="middle" x="550" y="-77" font-family="Helvetica,sans-Serif" font-size="10.00"> mqd</text>
</g>
<!-- Node11 -->
<g id="node11" class="node">
<title>Node11</title>
<g id="a_node11"><a xlink:title=" ">
<polygon fill="white" stroke="#bfbfbf" points="372.5,-0.5 372.5,-19.5 488.5,-19.5 488.5,-0.5 372.5,-0.5"/>
<text text-anchor="middle" x="430.5" y="-7.5" font-family="Helvetica,sans-Serif" font-size="10.00">SemaphoreHandle_t</text>
</a>
</g>
</g>
<!-- Node11&#45;&gt;Node3 -->
<g id="edge13" class="edge">
<title>Node11&#45;&gt;Node3</title>
<path fill="none" stroke="#9a32cd" stroke-dasharray="5,2" d="M498.72,-9.62C527.7,-12.36 560.67,-19.67 586,-37 626.78,-64.91 648.47,-124.01 655.71,-147.29"/>
<polygon fill="#9a32cd" stroke="#9a32cd" points="498.9,-6.12 488.66,-8.83 498.35,-13.1 498.9,-6.12"/>
<text text-anchor="middle" x="550" y="-40" font-family="Helvetica,sans-Serif" font-size="10.00"> inner_mtx</text>
</g>
</g>
</svg>
