<?xml version="1.0" encoding="UTF-8" standalone="no"?>
<!DOCTYPE svg PUBLIC "-//W3C//DTD SVG 1.1//EN"
 "http://www.w3.org/Graphics/SVG/1.1/DTD/svg11.dtd">
<!-- Generated by graphviz version 2.43.0 (0)
 -->
<!-- Title: STag_Std_VersionInfoType Pages: 1 -->
<svg width="187pt" height="117pt"
 viewBox="0.00 0.00 186.50 117.00" xmlns="http://www.w3.org/2000/svg" xmlns:xlink="http://www.w3.org/1999/xlink">
<g id="graph0" class="graph" transform="scale(1 1) rotate(0) translate(4 113)">
<title>STag_Std_VersionInfoType</title>
<polygon fill="white" stroke="transparent" points="-4,4 -4,-113 182.5,-113 182.5,4 -4,4"/>
<!-- Node1 -->
<g id="node1" class="node">
<title>Node1</title>
<g id="a_node1"><a xlink:title=" ">
<polygon fill="#bfbfbf" stroke="black" points="4.5,-0.5 4.5,-19.5 147.5,-19.5 147.5,-0.5 4.5,-0.5"/>
<text text-anchor="middle" x="76" y="-7.5" font-family="Helvetica,sans-Serif" font-size="10.00">STag_Std_VersionInfoType</text>
</a>
</g>
</g>
<!-- Node2 -->
<g id="node2" class="node">
<title>Node2</title>
<g id="a_node2"><a xlink:title=" ">
<polygon fill="white" stroke="#bfbfbf" points="0,-89.5 0,-108.5 38,-108.5 38,-89.5 0,-89.5"/>
<text text-anchor="middle" x="19" y="-96.5" font-family="Helvetica,sans-Serif" font-size="10.00">char</text>
</a>
</g>
</g>
<!-- Node2&#45;&gt;Node1 -->
<g id="edge1" class="edge">
<title>Node2&#45;&gt;Node1</title>
<path fill="none" stroke="#9a32cd" stroke-dasharray="5,2" d="M14.56,-79.56C12.57,-66.89 12.18,-50.22 20,-38 25.41,-29.54 34.28,-23.67 43.38,-19.62"/>
<polygon fill="#9a32cd" stroke="#9a32cd" points="11.14,-80.34 16.54,-89.45 18,-78.96 11.14,-80.34"/>
<text text-anchor="middle" x="66" y="-63" font-family="Helvetica,sans-Serif" font-size="10.00"> sw_major_version</text>
<text text-anchor="middle" x="66" y="-52" font-family="Helvetica,sans-Serif" font-size="10.00">sw_minor_version</text>
<text text-anchor="middle" x="66" y="-41" font-family="Helvetica,sans-Serif" font-size="10.00">sw_patch_version</text>
</g>
<!-- Node3 -->
<g id="node3" class="node">
<title>Node3</title>
<g id="a_node3"><a xlink:title=" ">
<polygon fill="white" stroke="#bfbfbf" points="89.5,-89.5 89.5,-108.5 178.5,-108.5 178.5,-89.5 89.5,-89.5"/>
<text text-anchor="middle" x="134" y="-96.5" font-family="Helvetica,sans-Serif" font-size="10.00">unsigned short</text>
</a>
</g>
</g>
<!-- Node3&#45;&gt;Node1 -->
<g id="edge2" class="edge">
<title>Node3&#45;&gt;Node1</title>
<path fill="none" stroke="#9a32cd" stroke-dasharray="5,2" d="M130.09,-79.25C126.79,-66.68 121.11,-50.26 112,-38 106.5,-30.6 98.42,-24.29 91.31,-19.63"/>
<polygon fill="#9a32cd" stroke="#9a32cd" points="126.71,-80.16 132.4,-89.1 133.52,-78.56 126.71,-80.16"/>
<text text-anchor="middle" x="152.5" y="-57.5" font-family="Helvetica,sans-Serif" font-size="10.00"> moduleID</text>
<text text-anchor="middle" x="152.5" y="-46.5" font-family="Helvetica,sans-Serif" font-size="10.00">vendorID</text>
</g>
</g>
</svg>
