<?xml version="1.0" encoding="UTF-8" standalone="no"?>
<!DOCTYPE svg PUBLIC "-//W3C//DTD SVG 1.1//EN"
 "http://www.w3.org/Graphics/SVG/1.1/DTD/svg11.dtd">
<!-- Generated by graphviz version 2.43.0 (0)
 -->
<!-- Title: taurus_can_ioc_op2_in Pages: 1 -->
<svg width="138pt" height="117pt"
 viewBox="0.00 0.00 138.00 117.00" xmlns="http://www.w3.org/2000/svg" xmlns:xlink="http://www.w3.org/1999/xlink">
<g id="graph0" class="graph" transform="scale(1 1) rotate(0) translate(4 113)">
<title>taurus_can_ioc_op2_in</title>
<polygon fill="white" stroke="transparent" points="-4,4 -4,-113 134,-113 134,4 -4,4"/>
<!-- Node1 -->
<g id="node1" class="node">
<title>Node1</title>
<g id="a_node1"><a xlink:title=" ">
<polygon fill="#bfbfbf" stroke="black" points="1.5,-0.5 1.5,-19.5 128.5,-19.5 128.5,-0.5 1.5,-0.5"/>
<text text-anchor="middle" x="65" y="-7.5" font-family="Helvetica,sans-Serif" font-size="10.00">taurus_can_ioc_op2_in</text>
</a>
</g>
</g>
<!-- Node2 -->
<g id="node2" class="node">
<title>Node2</title>
<g id="a_node2"><a xlink:title=" ">
<polygon fill="white" stroke="#bfbfbf" points="0,-89.5 0,-108.5 56,-108.5 56,-89.5 0,-89.5"/>
<text text-anchor="middle" x="28" y="-96.5" font-family="Helvetica,sans-Serif" font-size="10.00">uint64_t</text>
</a>
</g>
</g>
<!-- Node2&#45;&gt;Node1 -->
<g id="edge1" class="edge">
<title>Node2&#45;&gt;Node1</title>
<path fill="none" stroke="#9a32cd" stroke-dasharray="5,2" d="M30.94,-79.54C33.36,-67.31 37.47,-51.16 44,-38 47.27,-31.4 52.3,-24.86 56.62,-19.87"/>
<polygon fill="#9a32cd" stroke="#9a32cd" points="27.48,-79.01 29.17,-89.47 34.37,-80.24 27.48,-79.01"/>
<text text-anchor="middle" x="62" y="-52" font-family="Helvetica,sans-Serif" font-size="10.00"> cookie</text>
</g>
<!-- Node3 -->
<g id="node3" class="node">
<title>Node3</title>
<g id="a_node3"><a xlink:title=" ">
<polygon fill="white" stroke="#bfbfbf" points="74,-89.5 74,-108.5 130,-108.5 130,-89.5 74,-89.5"/>
<text text-anchor="middle" x="102" y="-96.5" font-family="Helvetica,sans-Serif" font-size="10.00">uint32_t</text>
</a>
</g>
</g>
<!-- Node3&#45;&gt;Node1 -->
<g id="edge2" class="edge">
<title>Node3&#45;&gt;Node1</title>
<path fill="none" stroke="#9a32cd" stroke-dasharray="5,2" d="M96.06,-79.52C91.99,-67.5 86.22,-51.59 80,-38 77.14,-31.76 73.39,-25.01 70.36,-19.82"/>
<polygon fill="#9a32cd" stroke="#9a32cd" points="92.82,-80.89 99.28,-89.29 99.47,-78.69 92.82,-80.89"/>
<text text-anchor="middle" x="109" y="-63" font-family="Helvetica,sans-Serif" font-size="10.00"> arg1</text>
<text text-anchor="middle" x="109" y="-52" font-family="Helvetica,sans-Serif" font-size="10.00">arg2</text>
<text text-anchor="middle" x="109" y="-41" font-family="Helvetica,sans-Serif" font-size="10.00">can_ch</text>
</g>
</g>
</svg>
