<?xml version="1.0" encoding="UTF-8" standalone="no"?>
<!DOCTYPE svg PUBLIC "-//W3C//DTD SVG 1.1//EN"
 "http://www.w3.org/Graphics/SVG/1.1/DTD/svg11.dtd">
<!-- Generated by graphviz version 2.43.0 (0)
 -->
<!-- Title: STag_Eth_DataDescType Pages: 1 -->
<svg width="258pt" height="195pt"
 viewBox="0.00 0.00 258.00 195.00" xmlns="http://www.w3.org/2000/svg" xmlns:xlink="http://www.w3.org/1999/xlink">
<g id="graph0" class="graph" transform="scale(1 1) rotate(0) translate(4 191)">
<title>STag_Eth_DataDescType</title>
<polygon fill="white" stroke="transparent" points="-4,4 -4,-191 254,-191 254,4 -4,4"/>
<!-- Node1 -->
<g id="node1" class="node">
<title>Node1</title>
<g id="a_node1"><a xlink:title=" ">
<polygon fill="#bfbfbf" stroke="black" points="0,-0.5 0,-19.5 135,-19.5 135,-0.5 0,-0.5"/>
<text text-anchor="middle" x="67.5" y="-7.5" font-family="Helvetica,sans-Serif" font-size="10.00">STag_Eth_DataDescType</text>
</a>
</g>
</g>
<!-- Node2 -->
<g id="node2" class="node">
<title>Node2</title>
<g id="a_node2"><a xlink:title=" ">
<polygon fill="white" stroke="#bfbfbf" points="25,-167.5 25,-186.5 110,-186.5 110,-167.5 25,-167.5"/>
<text text-anchor="middle" x="67.5" y="-174.5" font-family="Helvetica,sans-Serif" font-size="10.00">unsigned long</text>
</a>
</g>
</g>
<!-- Node2&#45;&gt;Node1 -->
<g id="edge1" class="edge">
<title>Node2&#45;&gt;Node1</title>
<path fill="none" stroke="#9a32cd" stroke-dasharray="5,2" d="M64.84,-157.09C62.11,-135.36 58.53,-98.6 60.5,-67 61.55,-50.18 64.35,-30.68 66.07,-19.7"/>
<polygon fill="#9a32cd" stroke="#9a32cd" points="61.4,-157.79 66.19,-167.24 68.34,-156.87 61.4,-157.79"/>
<text text-anchor="middle" x="73" y="-74.5" font-family="Helvetica,sans-Serif" font-size="10.00"> Dptr</text>
</g>
<!-- Node3 -->
<g id="node3" class="node">
<title>Node3</title>
<g id="a_node3"><a xlink:href="structSTag__Eth__DataDescLowType.html" target="_top" xlink:title=" ">
<polygon fill="white" stroke="black" points="95,-67.5 95,-86.5 250,-86.5 250,-67.5 95,-67.5"/>
<text text-anchor="middle" x="172.5" y="-74.5" font-family="Helvetica,sans-Serif" font-size="10.00">STag_Eth_DataDescLowType</text>
</a>
</g>
</g>
<!-- Node2&#45;&gt;Node3 -->
<g id="edge3" class="edge">
<title>Node2&#45;&gt;Node3</title>
<path fill="none" stroke="#9a32cd" stroke-dasharray="5,2" d="M84.26,-160.35C106.7,-139.42 145.7,-103.01 163.35,-86.54"/>
<polygon fill="#9a32cd" stroke="#9a32cd" points="81.74,-157.92 76.82,-167.3 86.52,-163.04 81.74,-157.92"/>
<text text-anchor="middle" x="151" y="-141" font-family="Helvetica,sans-Serif" font-size="10.00"> Ctrl</text>
<text text-anchor="middle" x="151" y="-130" font-family="Helvetica,sans-Serif" font-size="10.00">Die</text>
<text text-anchor="middle" x="151" y="-119" font-family="Helvetica,sans-Serif" font-size="10.00">Ds</text>
<text text-anchor="middle" x="151" y="-108" font-family="Helvetica,sans-Serif" font-size="10.00">Dt</text>
</g>
<!-- Node3&#45;&gt;Node1 -->
<g id="edge2" class="edge">
<title>Node3&#45;&gt;Node1</title>
<path fill="none" stroke="#9a32cd" stroke-dasharray="5,2" d="M149.79,-61.94C129,-49.07 98.88,-30.43 81.44,-19.63"/>
<polygon fill="#9a32cd" stroke="#9a32cd" points="147.99,-64.95 158.34,-67.23 151.68,-58.99 147.99,-64.95"/>
<text text-anchor="middle" x="145" y="-41" font-family="Helvetica,sans-Serif" font-size="10.00"> Header</text>
</g>
</g>
</svg>
