<?xml version="1.0" encoding="UTF-8" standalone="no"?>
<!DOCTYPE svg PUBLIC "-//W3C//DTD SVG 1.1//EN"
 "http://www.w3.org/Graphics/SVG/1.1/DTD/svg11.dtd">
<!-- Generated by graphviz version 2.43.0 (0)
 -->
<!-- Title: R_TAURUS_PeripheralServer_t Pages: 1 -->
<svg width="482pt" height="186pt"
 viewBox="0.00 0.00 482.00 186.00" xmlns="http://www.w3.org/2000/svg" xmlns:xlink="http://www.w3.org/1999/xlink">
<g id="graph0" class="graph" transform="scale(1 1) rotate(0) translate(4 182)">
<title>R_TAURUS_PeripheralServer_t</title>
<polygon fill="white" stroke="transparent" points="-4,4 -4,-182 478,-182 478,4 -4,4"/>
<!-- Node1 -->
<g id="node1" class="node">
<title>Node1</title>
<g id="a_node1"><a xlink:title=" ">
<polygon fill="#bfbfbf" stroke="black" points="310,-84.5 310,-103.5 474,-103.5 474,-84.5 310,-84.5"/>
<text text-anchor="middle" x="392" y="-91.5" font-family="Helvetica,sans-Serif" font-size="10.00">R_TAURUS_PeripheralServer_t</text>
</a>
</g>
</g>
<!-- Node2 -->
<g id="node2" class="node">
<title>Node2</title>
<g id="a_node2"><a xlink:title=" ">
<polygon fill="white" stroke="#bfbfbf" points="70.5,-158.5 70.5,-177.5 108.5,-177.5 108.5,-158.5 70.5,-158.5"/>
<text text-anchor="middle" x="89.5" y="-165.5" font-family="Helvetica,sans-Serif" font-size="10.00">char</text>
</a>
</g>
</g>
<!-- Node2&#45;&gt;Node1 -->
<g id="edge1" class="edge">
<title>Node2&#45;&gt;Node1</title>
<path fill="none" stroke="#9a32cd" stroke-dasharray="5,2" d="M118.87,-161.96C136.24,-158.24 158.91,-153.38 179,-149 229.26,-138.05 242.24,-137.02 292,-124 315.63,-117.82 342.09,-109.74 361.71,-103.52"/>
<polygon fill="#9a32cd" stroke="#9a32cd" points="117.86,-158.59 108.81,-164.1 119.32,-165.44 117.86,-158.59"/>
<text text-anchor="middle" x="244.5" y="-147" font-family="Helvetica,sans-Serif" font-size="10.00"> Name</text>
</g>
<!-- Node3 -->
<g id="node3" class="node">
<title>Node3</title>
<g id="a_node3"><a xlink:title=" ">
<polygon fill="white" stroke="#bfbfbf" points="0,-98.5 0,-139.5 179,-139.5 179,-98.5 0,-98.5"/>
<text text-anchor="start" x="8" y="-127.5" font-family="Helvetica,sans-Serif" font-size="10.00">void(*)(int Guest,</text>
<text text-anchor="start" x="8" y="-116.5" font-family="Helvetica,sans-Serif" font-size="10.00"> R_TAURUS_CmdMsg_t *Cmd,</text>
<text text-anchor="middle" x="89.5" y="-105.5" font-family="Helvetica,sans-Serif" font-size="10.00"> R_TAURUS_ResultMsg_t *Result)</text>
</a>
</g>
</g>
<!-- Node3&#45;&gt;Node1 -->
<g id="edge2" class="edge">
<title>Node3&#45;&gt;Node1</title>
<path fill="none" stroke="#9a32cd" stroke-dasharray="5,2" d="M189.36,-110.78C228.38,-107.53 272.66,-103.85 309.77,-100.76"/>
<polygon fill="#9a32cd" stroke="#9a32cd" points="188.71,-107.32 179.03,-111.63 189.29,-114.29 188.71,-107.32"/>
<text text-anchor="middle" x="244.5" y="-112" font-family="Helvetica,sans-Serif" font-size="10.00"> Execute</text>
</g>
<!-- Node4 -->
<g id="node4" class="node">
<title>Node4</title>
<g id="a_node4"><a xlink:title=" ">
<polygon fill="white" stroke="#bfbfbf" points="75,-60.5 75,-79.5 104,-79.5 104,-60.5 75,-60.5"/>
<text text-anchor="middle" x="89.5" y="-67.5" font-family="Helvetica,sans-Serif" font-size="10.00">int</text>
</a>
</g>
</g>
<!-- Node4&#45;&gt;Node1 -->
<g id="edge3" class="edge">
<title>Node4&#45;&gt;Node1</title>
<path fill="none" stroke="#9a32cd" stroke-dasharray="5,2" d="M114.25,-69.33C152.02,-68.54 228.03,-68.12 292,-75 310.97,-77.04 331.73,-80.79 349.32,-84.42"/>
<polygon fill="#9a32cd" stroke="#9a32cd" points="114.15,-65.83 104.23,-69.56 114.31,-72.83 114.15,-65.83"/>
<text text-anchor="middle" x="244.5" y="-89" font-family="Helvetica,sans-Serif" font-size="10.00"> DeInit</text>
<text text-anchor="middle" x="244.5" y="-78" font-family="Helvetica,sans-Serif" font-size="10.00">Init</text>
</g>
<!-- Node5 -->
<g id="node5" class="node">
<title>Node5</title>
<g id="a_node5"><a xlink:title=" ">
<polygon fill="white" stroke="#bfbfbf" points="9,-0.5 9,-41.5 170,-41.5 170,-0.5 9,-0.5"/>
<text text-anchor="start" x="17" y="-29.5" font-family="Helvetica,sans-Serif" font-size="10.00">void(*)(R_TAURUS_Peripheral</text>
<text text-anchor="start" x="17" y="-18.5" font-family="Helvetica,sans-Serif" font-size="10.00">Server_SendSignalImpl_t</text>
<text text-anchor="middle" x="89.5" y="-7.5" font-family="Helvetica,sans-Serif" font-size="10.00"> SendSignalImpl)</text>
</a>
</g>
</g>
<!-- Node5&#45;&gt;Node1 -->
<g id="edge4" class="edge">
<title>Node5&#45;&gt;Node1</title>
<path fill="none" stroke="#9a32cd" stroke-dasharray="5,2" d="M180.58,-31.4C215.73,-36.59 256.12,-43.95 292,-54 320.2,-61.9 351.3,-75.29 370.98,-84.38"/>
<polygon fill="#9a32cd" stroke="#9a32cd" points="180.73,-27.89 170.34,-29.93 179.74,-34.82 180.73,-27.89"/>
<text text-anchor="middle" x="244.5" y="-57" font-family="Helvetica,sans-Serif" font-size="10.00"> SetSendSignalImpl</text>
</g>
</g>
</svg>
