<?xml version="1.0" encoding="UTF-8" standalone="no"?>
<!DOCTYPE svg PUBLIC "-//W3C//DTD SVG 1.1//EN"
 "http://www.w3.org/Graphics/SVG/1.1/DTD/svg11.dtd">
<!-- Generated by graphviz version 2.43.0 (0)
 -->
<!-- Title: R_CIO_VIN_RPV_Consumer_t Pages: 1 -->
<svg width="1087pt" height="637pt"
 viewBox="0.00 0.00 1087.00 636.50" xmlns="http://www.w3.org/2000/svg" xmlns:xlink="http://www.w3.org/1999/xlink">
<g id="graph0" class="graph" transform="scale(1 1) rotate(0) translate(4 632.5)">
<title>R_CIO_VIN_RPV_Consumer_t</title>
<polygon fill="white" stroke="transparent" points="-4,4 -4,-632.5 1083,-632.5 1083,4 -4,4"/>
<!-- Node1 -->
<g id="node1" class="node">
<title>Node1</title>
<g id="a_node1"><a xlink:title="Consumer of Vin.">
<polygon fill="#bfbfbf" stroke="black" points="922,-435 922,-454 1079,-454 1079,-435 922,-435"/>
<text text-anchor="middle" x="1000.5" y="-442" font-family="Helvetica,sans-Serif" font-size="10.00">R_CIO_VIN_RPV_Consumer_t</text>
</a>
</g>
</g>
<!-- Node2 -->
<g id="node2" class="node">
<title>Node2</title>
<g id="a_node2"><a xlink:title=" ">
<polygon fill="white" stroke="#bfbfbf" points="735.5,-473 735.5,-492 791.5,-492 791.5,-473 735.5,-473"/>
<text text-anchor="middle" x="763.5" y="-480" font-family="Helvetica,sans-Serif" font-size="10.00">uint32_t</text>
</a>
</g>
</g>
<!-- Node2&#45;&gt;Node1 -->
<g id="edge1" class="edge">
<title>Node2&#45;&gt;Node1</title>
<path fill="none" stroke="#9a32cd" stroke-dasharray="5,2" d="M801.85,-476.46C839.11,-470.43 896.92,-461.09 940.41,-454.06"/>
<polygon fill="#9a32cd" stroke="#9a32cd" points="801.23,-473.02 791.92,-478.07 802.35,-479.93 801.23,-473.02"/>
<text text-anchor="middle" x="874.5" y="-471.5" font-family="Helvetica,sans-Serif" font-size="10.00"> IsCapturing</text>
</g>
<!-- Node3 -->
<g id="node3" class="node">
<title>Node3</title>
<g id="a_node3"><a xlink:href="structst__osal__mq__control.html" target="_top" xlink:title="control of message queue (Defined in OSAL Wrapper implementation files).">
<polygon fill="white" stroke="black" points="708,-435 708,-454 819,-454 819,-435 708,-435"/>
<text text-anchor="middle" x="763.5" y="-442" font-family="Helvetica,sans-Serif" font-size="10.00">st_osal_mq_control</text>
</a>
</g>
</g>
<!-- Node3&#45;&gt;Node1 -->
<g id="edge2" class="edge">
<title>Node3&#45;&gt;Node1</title>
<path fill="none" stroke="#9a32cd" stroke-dasharray="5,2" d="M829.29,-444.5C857.89,-444.5 891.74,-444.5 921.7,-444.5"/>
<polygon fill="#9a32cd" stroke="#9a32cd" points="829,-441 819,-444.5 829,-448 829,-441"/>
<text text-anchor="middle" x="874.5" y="-447.5" font-family="Helvetica,sans-Serif" font-size="10.00"> mq_handle</text>
</g>
<!-- Node4 -->
<g id="node4" class="node">
<title>Node4</title>
<g id="a_node4"><a xlink:href="structst__osal__rcfg__mq__config.html" target="_top" xlink:title=" ">
<polygon fill="white" stroke="black" points="461,-564 461,-583 592,-583 592,-564 461,-564"/>
<text text-anchor="middle" x="526.5" y="-571" font-family="Helvetica,sans-Serif" font-size="10.00">st_osal_rcfg_mq_config</text>
</a>
</g>
</g>
<!-- Node4&#45;&gt;Node3 -->
<g id="edge3" class="edge">
<title>Node4&#45;&gt;Node3</title>
<path fill="none" stroke="#9a32cd" stroke-dasharray="5,2" d="M602.65,-578.3C630.83,-576.13 661.06,-568.45 682,-548.5 709.96,-521.86 673.9,-491.96 700,-463.5 703.53,-459.66 707.8,-456.58 712.45,-454.12"/>
<polygon fill="#9a32cd" stroke="#9a32cd" points="602.18,-574.82 592.38,-578.86 602.56,-581.81 602.18,-574.82"/>
<text text-anchor="middle" x="646" y="-579.5" font-family="Helvetica,sans-Serif" font-size="10.00"> usr_config</text>
</g>
<!-- Node5 -->
<g id="node5" class="node">
<title>Node5</title>
<g id="a_node5"><a xlink:title=" ">
<polygon fill="white" stroke="#bfbfbf" points="30,-460 30,-479 86,-479 86,-460 30,-460"/>
<text text-anchor="middle" x="58" y="-467" font-family="Helvetica,sans-Serif" font-size="10.00">uint64_t</text>
</a>
</g>
</g>
<!-- Node5&#45;&gt;Node3 -->
<g id="edge7" class="edge">
<title>Node5&#45;&gt;Node3</title>
<path fill="none" stroke="#9a32cd" stroke-dasharray="5,2" d="M96.23,-470.13C192.99,-471.45 460.32,-473.08 682,-455.5 690.3,-454.84 699.04,-453.9 707.6,-452.85"/>
<polygon fill="#9a32cd" stroke="#9a32cd" points="96.13,-466.63 86.08,-469.98 96.03,-473.63 96.13,-466.63"/>
<text text-anchor="middle" x="407" y="-471.5" font-family="Helvetica,sans-Serif" font-size="10.00"> handle_id</text>
</g>
<!-- Node5&#45;&gt;Node4 -->
<g id="edge4" class="edge">
<title>Node5&#45;&gt;Node4</title>
<path fill="none" stroke="#9a32cd" stroke-dasharray="5,2" d="M96.21,-476.45C174.96,-491.16 351.43,-524.13 353,-524.5 403.31,-536.32 460.91,-553.42 495.18,-563.97"/>
<polygon fill="#9a32cd" stroke="#9a32cd" points="96.69,-472.98 86.22,-474.58 95.41,-479.86 96.69,-472.98"/>
<text text-anchor="middle" x="292" y="-527.5" font-family="Helvetica,sans-Serif" font-size="10.00"> id</text>
</g>
<!-- Node6 -->
<g id="node6" class="node">
<title>Node6</title>
<g id="a_node6"><a xlink:href="structst__osal__mq__config.html" target="_top" xlink:title="configuration of message queue.">
<polygon fill="white" stroke="black" points="238.5,-545 238.5,-564 345.5,-564 345.5,-545 238.5,-545"/>
<text text-anchor="middle" x="292" y="-552" font-family="Helvetica,sans-Serif" font-size="10.00">st_osal_mq_config</text>
</a>
</g>
</g>
<!-- Node5&#45;&gt;Node6 -->
<g id="edge6" class="edge">
<title>Node5&#45;&gt;Node6</title>
<path fill="none" stroke="#9a32cd" stroke-dasharray="5,2" d="M75.03,-486.51C89.17,-500.41 111.05,-519.35 134,-529.5 166.82,-544.01 206.79,-550.23 238.19,-552.84"/>
<polygon fill="#9a32cd" stroke="#9a32cd" points="77.16,-483.68 67.65,-479.02 72.17,-488.6 77.16,-483.68"/>
<text text-anchor="middle" x="173.5" y="-563.5" font-family="Helvetica,sans-Serif" font-size="10.00"> max_num_msg</text>
<text text-anchor="middle" x="173.5" y="-552.5" font-family="Helvetica,sans-Serif" font-size="10.00">msg_size</text>
</g>
<!-- Node12 -->
<g id="node12" class="node">
<title>Node12</title>
<g id="a_node12"><a xlink:href="structst__osal__thread__control.html" target="_top" xlink:title="control of thread (Defined in OSAL Wrapper implementation files).">
<polygon fill="white" stroke="black" points="700,-192 700,-211 827,-211 827,-192 700,-192"/>
<text text-anchor="middle" x="763.5" y="-199" font-family="Helvetica,sans-Serif" font-size="10.00">st_osal_thread_control</text>
</a>
</g>
</g>
<!-- Node5&#45;&gt;Node12 -->
<g id="edge16" class="edge">
<title>Node5&#45;&gt;Node12</title>
<path fill="none" stroke="#9a32cd" stroke-dasharray="5,2" d="M96.26,-466.12C187.98,-457.45 419.01,-433.34 443,-408.5 488.42,-361.47 417.18,-311.02 461,-262.5 476.91,-244.89 616.08,-222.33 699.67,-210.18"/>
<polygon fill="#9a32cd" stroke="#9a32cd" points="95.67,-462.66 86.04,-467.08 96.32,-469.63 95.67,-462.66"/>
<text text-anchor="middle" x="407" y="-433.5" font-family="Helvetica,sans-Serif" font-size="10.00"> handle_id</text>
</g>
<!-- Node18 -->
<g id="node18" class="node">
<title>Node18</title>
<g id="a_node18"><a xlink:href="structst__osal__rcfg__thread__config.html" target="_top" xlink:title=" ">
<polygon fill="white" stroke="black" points="470.5,-184.5 470.5,-214.5 582.5,-214.5 582.5,-184.5 470.5,-184.5"/>
<text text-anchor="start" x="478.5" y="-202.5" font-family="Helvetica,sans-Serif" font-size="10.00">st_osal_rcfg_thread</text>
<text text-anchor="middle" x="526.5" y="-191.5" font-family="Helvetica,sans-Serif" font-size="10.00">_config</text>
</a>
</g>
</g>
<!-- Node5&#45;&gt;Node18 -->
<g id="edge24" class="edge">
<title>Node5&#45;&gt;Node18</title>
<path fill="none" stroke="#9a32cd" stroke-dasharray="5,2" d="M80.51,-453.87C95.33,-443.28 115.59,-429.14 134,-417.5 275.68,-327.88 312.19,-306.7 461,-229.5 470.87,-224.38 481.77,-219.15 491.76,-214.53"/>
<polygon fill="#9a32cd" stroke="#9a32cd" points="78.12,-451.27 72.05,-459.95 82.21,-456.95 78.12,-451.27"/>
<text text-anchor="middle" x="292" y="-358.5" font-family="Helvetica,sans-Serif" font-size="10.00"> id</text>
</g>
<!-- Node6&#45;&gt;Node3 -->
<g id="edge11" class="edge">
<title>Node6&#45;&gt;Node3</title>
<path fill="none" stroke="#9a32cd" stroke-dasharray="5,2" d="M355.6,-548.04C450.87,-537.39 626.99,-514.22 682,-483.5 692.44,-477.67 689.91,-469.92 700,-463.5 706.03,-459.67 712.87,-456.57 719.77,-454.08"/>
<polygon fill="#9a32cd" stroke="#9a32cd" points="355.07,-544.58 345.52,-549.16 355.84,-551.54 355.07,-544.58"/>
<text text-anchor="middle" x="526.5" y="-536.5" font-family="Helvetica,sans-Serif" font-size="10.00"> config</text>
</g>
<!-- Node6&#45;&gt;Node4 -->
<g id="edge5" class="edge">
<title>Node6&#45;&gt;Node4</title>
<path fill="none" stroke="#9a32cd" stroke-dasharray="5,2" d="M356.05,-559.65C388.58,-562.31 428.18,-565.55 460.93,-568.22"/>
<polygon fill="#9a32cd" stroke="#9a32cd" points="356.01,-556.14 345.76,-558.81 355.44,-563.11 356.01,-556.14"/>
<text text-anchor="middle" x="407" y="-568.5" font-family="Helvetica,sans-Serif" font-size="10.00"> config</text>
</g>
<!-- Node7 -->
<g id="node7" class="node">
<title>Node7</title>
<g id="a_node7"><a xlink:title=" ">
<polygon fill="white" stroke="#bfbfbf" points="39,-296 39,-315 77,-315 77,-296 39,-296"/>
<text text-anchor="middle" x="58" y="-303" font-family="Helvetica,sans-Serif" font-size="10.00">char</text>
</a>
</g>
</g>
<!-- Node7&#45;&gt;Node3 -->
<g id="edge8" class="edge">
<title>Node7&#45;&gt;Node3</title>
<path fill="none" stroke="#9a32cd" stroke-dasharray="5,2" d="M73.78,-323.14C87.62,-338.31 109.77,-359.3 134,-369.5 261.1,-423 306.51,-377.88 443,-397.5 517.89,-408.26 535.12,-419.69 610,-430.5 642.37,-435.17 678.84,-438.59 707.99,-440.87"/>
<polygon fill="#9a32cd" stroke="#9a32cd" points="76.21,-320.61 66.98,-315.42 70.96,-325.24 76.21,-320.61"/>
<text text-anchor="middle" x="407" y="-400.5" font-family="Helvetica,sans-Serif" font-size="10.00"> buffer</text>
</g>
<!-- Node14 -->
<g id="node14" class="node">
<title>Node14</title>
<g id="a_node14"><a xlink:href="structst__osal__thread__config.html" target="_top" xlink:title="configuration of thread.">
<polygon fill="white" stroke="black" points="231,-86 231,-105 353,-105 353,-86 231,-86"/>
<text text-anchor="middle" x="292" y="-93" font-family="Helvetica,sans-Serif" font-size="10.00">st_osal_thread_config</text>
</a>
</g>
</g>
<!-- Node7&#45;&gt;Node14 -->
<g id="edge19" class="edge">
<title>Node7&#45;&gt;Node14</title>
<path fill="none" stroke="#9a32cd" stroke-dasharray="5,2" d="M77.02,-289.19C123.03,-247.54 243.81,-138.21 280.37,-105.13"/>
<polygon fill="#9a32cd" stroke="#9a32cd" points="74.64,-286.63 69.57,-295.93 79.33,-291.82 74.64,-286.63"/>
<text text-anchor="middle" x="173.5" y="-240.5" font-family="Helvetica,sans-Serif" font-size="10.00"> task_name</text>
</g>
<!-- Node8 -->
<g id="node8" class="node">
<title>Node8</title>
<g id="a_node8"><a xlink:title=" ">
<polygon fill="white" stroke="#bfbfbf" points="33,-146 33,-165 83,-165 83,-146 33,-146"/>
<text text-anchor="middle" x="58" y="-153" font-family="Helvetica,sans-Serif" font-size="10.00">int64_t</text>
</a>
</g>
</g>
<!-- Node8&#45;&gt;Node3 -->
<g id="edge9" class="edge">
<title>Node8&#45;&gt;Node3</title>
<path fill="none" stroke="#9a32cd" stroke-dasharray="5,2" d="M69.31,-173.92C92.38,-213.05 152.33,-303.94 231,-341.5 377.4,-411.4 438.41,-343.27 592,-395.5 600.66,-398.45 601.5,-402.12 610,-405.5 642.88,-418.59 681.52,-428.41 711.68,-434.93"/>
<polygon fill="#9a32cd" stroke="#9a32cd" points="72.28,-172.06 64.26,-165.15 66.22,-175.56 72.28,-172.06"/>
<text text-anchor="middle" x="407" y="-378.5" font-family="Helvetica,sans-Serif" font-size="10.00"> inner_timeout</text>
</g>
<!-- Node8&#45;&gt;Node12 -->
<g id="edge26" class="edge">
<title>Node8&#45;&gt;Node12</title>
<path fill="none" stroke="#9a32cd" stroke-dasharray="5,2" d="M93.27,-156.18C177.96,-157.99 403.89,-163.62 592,-175.5 632.08,-178.03 642.32,-177.33 682,-183.5 696.01,-185.68 711.22,-188.86 724.61,-191.95"/>
<polygon fill="#9a32cd" stroke="#9a32cd" points="93.26,-152.68 83.19,-155.97 93.12,-159.68 93.26,-152.68"/>
<text text-anchor="middle" x="407" y="-181.5" font-family="Helvetica,sans-Serif" font-size="10.00"> inner_timeout</text>
<text text-anchor="middle" x="407" y="-170.5" font-family="Helvetica,sans-Serif" font-size="10.00">thread_ret</text>
</g>
<!-- Node8&#45;&gt;Node14 -->
<g id="edge20" class="edge">
<title>Node8&#45;&gt;Node14</title>
<path fill="none" stroke="#9a32cd" stroke-dasharray="5,2" d="M92.91,-143.38C105.7,-139.02 120.43,-134.26 134,-130.5 169.93,-120.54 211.08,-111.45 242.23,-105.03"/>
<polygon fill="#9a32cd" stroke="#9a32cd" points="91.43,-140.18 83.13,-146.76 93.72,-146.8 91.43,-140.18"/>
<text text-anchor="middle" x="173.5" y="-133.5" font-family="Helvetica,sans-Serif" font-size="10.00"> func</text>
</g>
<!-- Node9 -->
<g id="node9" class="node">
<title>Node9</title>
<g id="a_node9"><a xlink:title=" ">
<polygon fill="white" stroke="#bfbfbf" points="507.5,-315 507.5,-334 545.5,-334 545.5,-315 507.5,-315"/>
<text text-anchor="middle" x="526.5" y="-322" font-family="Helvetica,sans-Serif" font-size="10.00">bool</text>
</a>
</g>
</g>
<!-- Node9&#45;&gt;Node3 -->
<g id="edge10" class="edge">
<title>Node9&#45;&gt;Node3</title>
<path fill="none" stroke="#9a32cd" stroke-dasharray="5,2" d="M555.47,-333.02C599.22,-346.38 679.16,-370.89 682,-372.5 712.02,-389.51 740.47,-419.26 754.1,-434.65"/>
<polygon fill="#9a32cd" stroke="#9a32cd" points="556.29,-329.62 545.7,-330.05 554.25,-336.31 556.29,-329.62"/>
<text text-anchor="middle" x="646" y="-397.5" font-family="Helvetica,sans-Serif" font-size="10.00"> active</text>
<text text-anchor="middle" x="646" y="-386.5" font-family="Helvetica,sans-Serif" font-size="10.00">receive_wait</text>
<text text-anchor="middle" x="646" y="-375.5" font-family="Helvetica,sans-Serif" font-size="10.00">send_wait</text>
</g>
<!-- Node9&#45;&gt;Node12 -->
<g id="edge27" class="edge">
<title>Node9&#45;&gt;Node12</title>
<path fill="none" stroke="#9a32cd" stroke-dasharray="5,2" d="M555.65,-319.86C597.19,-312.86 671.19,-299.76 682,-293.5 717.81,-272.76 745.77,-230.23 757.07,-211.15"/>
<polygon fill="#9a32cd" stroke="#9a32cd" points="554.89,-316.44 545.6,-321.54 556.04,-323.34 554.89,-316.44"/>
<text text-anchor="middle" x="646" y="-334.5" font-family="Helvetica,sans-Serif" font-size="10.00"> active</text>
<text text-anchor="middle" x="646" y="-323.5" font-family="Helvetica,sans-Serif" font-size="10.00">joined</text>
<text text-anchor="middle" x="646" y="-312.5" font-family="Helvetica,sans-Serif" font-size="10.00">use</text>
</g>
<!-- Node10 -->
<g id="node10" class="node">
<title>Node10</title>
<g id="a_node10"><a xlink:title=" ">
<polygon fill="white" stroke="#bfbfbf" points="480.5,-602 480.5,-621 572.5,-621 572.5,-602 480.5,-602"/>
<text text-anchor="middle" x="526.5" y="-609" font-family="Helvetica,sans-Serif" font-size="10.00">QueueHandle_t</text>
</a>
</g>
</g>
<!-- Node10&#45;&gt;Node3 -->
<g id="edge12" class="edge">
<title>Node10&#45;&gt;Node3</title>
<path fill="none" stroke="#9a32cd" stroke-dasharray="5,2" d="M582.75,-618.79C615.95,-619.9 656.56,-614.93 682,-589.5 722.01,-549.51 663.18,-506.44 700,-463.5 703.32,-459.63 707.41,-456.53 711.88,-454.05"/>
<polygon fill="#9a32cd" stroke="#9a32cd" points="582.88,-615.29 572.71,-618.27 582.52,-622.28 582.88,-615.29"/>
<text text-anchor="middle" x="646" y="-620.5" font-family="Helvetica,sans-Serif" font-size="10.00"> mqd</text>
</g>
<!-- Node11 -->
<g id="node11" class="node">
<title>Node11</title>
<g id="a_node11"><a xlink:title=" ">
<polygon fill="white" stroke="#bfbfbf" points="468.5,-272 468.5,-291 584.5,-291 584.5,-272 468.5,-272"/>
<text text-anchor="middle" x="526.5" y="-279" font-family="Helvetica,sans-Serif" font-size="10.00">SemaphoreHandle_t</text>
</a>
</g>
</g>
<!-- Node11&#45;&gt;Node3 -->
<g id="edge13" class="edge">
<title>Node11&#45;&gt;Node3</title>
<path fill="none" stroke="#9a32cd" stroke-dasharray="5,2" d="M569.3,-269.81C602.39,-263.08 648.47,-259.61 682,-280.5 739.07,-316.06 756.82,-405.19 761.24,-434.78"/>
<polygon fill="#9a32cd" stroke="#9a32cd" points="568.48,-266.4 559.47,-271.97 569.99,-273.24 568.48,-266.4"/>
<text text-anchor="middle" x="646" y="-283.5" font-family="Helvetica,sans-Serif" font-size="10.00"> inner_mtx</text>
</g>
<!-- Node11&#45;&gt;Node12 -->
<g id="edge28" class="edge">
<title>Node11&#45;&gt;Node12</title>
<path fill="none" stroke="#9a32cd" stroke-dasharray="5,2" d="M564.59,-268.47C573.64,-265.09 583.23,-261.31 592,-257.5 600.2,-253.94 601.7,-251.83 610,-248.5 621.31,-243.96 689.15,-223.45 730.44,-211.07"/>
<polygon fill="#9a32cd" stroke="#9a32cd" points="563.24,-265.24 555.06,-271.98 565.66,-271.81 563.24,-265.24"/>
<text text-anchor="middle" x="646" y="-251.5" font-family="Helvetica,sans-Serif" font-size="10.00"> inner_mtx</text>
</g>
<!-- Node12&#45;&gt;Node1 -->
<g id="edge14" class="edge">
<title>Node12&#45;&gt;Node1</title>
<path fill="none" stroke="#9a32cd" stroke-dasharray="5,2" d="M780.76,-218.31C826.34,-265.44 954.31,-397.77 990.1,-434.78"/>
<polygon fill="#9a32cd" stroke="#9a32cd" points="783.18,-215.78 773.71,-211.03 778.15,-220.65 783.18,-215.78"/>
<text text-anchor="middle" x="874.5" y="-347.5" font-family="Helvetica,sans-Serif" font-size="10.00"> ThreadId</text>
</g>
<!-- Node13 -->
<g id="node13" class="node">
<title>Node13</title>
<g id="a_node13"><a xlink:title=" ">
<polygon fill="white" stroke="#bfbfbf" points="485.5,-108 485.5,-127 567.5,-127 567.5,-108 485.5,-108"/>
<text text-anchor="middle" x="526.5" y="-115" font-family="Helvetica,sans-Serif" font-size="10.00">TaskHandle_t</text>
</a>
</g>
</g>
<!-- Node13&#45;&gt;Node12 -->
<g id="edge15" class="edge">
<title>Node13&#45;&gt;Node12</title>
<path fill="none" stroke="#9a32cd" stroke-dasharray="5,2" d="M577.84,-108.7C609.06,-105.49 649.31,-105.53 682,-119.5 717.41,-134.63 745.18,-173.55 756.71,-191.79"/>
<polygon fill="#9a32cd" stroke="#9a32cd" points="577.15,-105.26 567.63,-109.9 577.97,-112.21 577.15,-105.26"/>
<text text-anchor="middle" x="646" y="-133.5" font-family="Helvetica,sans-Serif" font-size="10.00"> parent_thread</text>
<text text-anchor="middle" x="646" y="-122.5" font-family="Helvetica,sans-Serif" font-size="10.00">thread</text>
</g>
<!-- Node14&#45;&gt;Node12 -->
<g id="edge17" class="edge">
<title>Node14&#45;&gt;Node12</title>
<path fill="none" stroke="#9a32cd" stroke-dasharray="5,2" d="M336.62,-83.54C412.68,-65.32 571.95,-39.09 682,-103.5 719.43,-125.41 746.93,-171.63 757.61,-191.77"/>
<polygon fill="#9a32cd" stroke="#9a32cd" points="335.76,-80.15 326.89,-85.94 337.44,-86.94 335.76,-80.15"/>
<text text-anchor="middle" x="526.5" y="-73.5" font-family="Helvetica,sans-Serif" font-size="10.00"> config</text>
</g>
<!-- Node14&#45;&gt;Node18 -->
<g id="edge25" class="edge">
<title>Node14&#45;&gt;Node18</title>
<path fill="none" stroke="#9a32cd" stroke-dasharray="5,2" d="M363.36,-99.79C389.43,-103.5 418.57,-110.26 443,-122.5 450.88,-126.45 488.47,-162.91 510.09,-184.21"/>
<polygon fill="#9a32cd" stroke="#9a32cd" points="363.53,-96.28 353.16,-98.47 362.63,-103.22 363.53,-96.28"/>
<text text-anchor="middle" x="407" y="-125.5" font-family="Helvetica,sans-Serif" font-size="10.00"> config</text>
</g>
<!-- Node15 -->
<g id="node15" class="node">
<title>Node15</title>
<g id="a_node15"><a xlink:title=" ">
<polygon fill="white" stroke="#bfbfbf" points="0,-0.5 0,-30.5 116,-30.5 116,-0.5 0,-0.5"/>
<text text-anchor="start" x="8" y="-18.5" font-family="Helvetica,sans-Serif" font-size="10.00">enum e_osal_thread</text>
<text text-anchor="middle" x="58" y="-7.5" font-family="Helvetica,sans-Serif" font-size="10.00">_priority</text>
</a>
</g>
</g>
<!-- Node15&#45;&gt;Node14 -->
<g id="edge18" class="edge">
<title>Node15&#45;&gt;Node14</title>
<path fill="none" stroke="#9a32cd" stroke-dasharray="5,2" d="M126.13,-29.54C153.49,-36.14 185.18,-44.9 213,-55.5 235.33,-64.01 259.61,-77.12 275.04,-86"/>
<polygon fill="#9a32cd" stroke="#9a32cd" points="126.79,-26.1 116.25,-27.21 125.18,-32.92 126.79,-26.1"/>
<text text-anchor="middle" x="173.5" y="-58.5" font-family="Helvetica,sans-Serif" font-size="10.00"> priority</text>
</g>
<!-- Node16 -->
<g id="node16" class="node">
<title>Node16</title>
<g id="a_node16"><a xlink:title=" ">
<polygon fill="white" stroke="#bfbfbf" points="35.5,-88 35.5,-107 80.5,-107 80.5,-88 35.5,-88"/>
<text text-anchor="middle" x="58" y="-95" font-family="Helvetica,sans-Serif" font-size="10.00">size_t</text>
</a>
</g>
</g>
<!-- Node16&#45;&gt;Node14 -->
<g id="edge21" class="edge">
<title>Node16&#45;&gt;Node14</title>
<path fill="none" stroke="#9a32cd" stroke-dasharray="5,2" d="M90.79,-97.03C104.13,-96.84 119.82,-96.64 134,-96.5 166.03,-96.18 201.73,-95.95 230.98,-95.78"/>
<polygon fill="#9a32cd" stroke="#9a32cd" points="90.61,-93.53 80.66,-97.17 90.71,-100.53 90.61,-93.53"/>
<text text-anchor="middle" x="173.5" y="-99.5" font-family="Helvetica,sans-Serif" font-size="10.00"> stack_size</text>
</g>
<!-- Node17 -->
<g id="node17" class="node">
<title>Node17</title>
<g id="a_node17"><a xlink:title=" ">
<polygon fill="white" stroke="#bfbfbf" points="35,-50 35,-69 81,-69 81,-50 35,-50"/>
<text text-anchor="middle" x="58" y="-57" font-family="Helvetica,sans-Serif" font-size="10.00">void *</text>
</a>
</g>
</g>
<!-- Node17&#45;&gt;Node14 -->
<g id="edge22" class="edge">
<title>Node17&#45;&gt;Node14</title>
<path fill="none" stroke="#9a32cd" stroke-dasharray="5,2" d="M91.5,-63.8C122.71,-68.01 171.14,-74.76 213,-81.5 221.56,-82.88 230.63,-84.43 239.44,-85.98"/>
<polygon fill="#9a32cd" stroke="#9a32cd" points="91.6,-60.28 81.22,-62.42 90.67,-67.22 91.6,-60.28"/>
<text text-anchor="middle" x="173.5" y="-84.5" font-family="Helvetica,sans-Serif" font-size="10.00"> userarg</text>
</g>
<!-- Node18&#45;&gt;Node12 -->
<g id="edge23" class="edge">
<title>Node18&#45;&gt;Node12</title>
<path fill="none" stroke="#9a32cd" stroke-dasharray="5,2" d="M593.12,-190.82C598.82,-190.29 604.51,-189.83 610,-189.5 641.94,-187.57 650.09,-187.13 682,-189.5 689.75,-190.07 697.89,-190.96 705.88,-191.99"/>
<polygon fill="#9a32cd" stroke="#9a32cd" points="592.48,-187.37 582.89,-191.86 593.19,-194.33 592.48,-187.37"/>
<text text-anchor="middle" x="646" y="-192.5" font-family="Helvetica,sans-Serif" font-size="10.00"> usr_config</text>
</g>
</g>
</svg>
