<?xml version="1.0" encoding="UTF-8" standalone="no"?>
<!DOCTYPE svg PUBLIC "-//W3C//DTD SVG 1.1//EN"
 "http://www.w3.org/Graphics/SVG/1.1/DTD/svg11.dtd">
<!-- Generated by graphviz version 2.43.0 (0)
 -->
<!-- Title: taurus_ether_get_phys_addr_out Pages: 1 -->
<svg width="144pt" height="117pt"
 viewBox="0.00 0.00 144.00 117.00" xmlns="http://www.w3.org/2000/svg" xmlns:xlink="http://www.w3.org/1999/xlink">
<g id="graph0" class="graph" transform="scale(1 1) rotate(0) translate(4 113)">
<title>taurus_ether_get_phys_addr_out</title>
<polygon fill="white" stroke="transparent" points="-4,4 -4,-113 140,-113 140,4 -4,4"/>
<!-- Node1 -->
<g id="node1" class="node">
<title>Node1</title>
<g id="a_node1"><a xlink:title=" ">
<polygon fill="#bfbfbf" stroke="black" points="0,-0.5 0,-30.5 128,-30.5 128,-0.5 0,-0.5"/>
<text text-anchor="start" x="8" y="-18.5" font-family="Helvetica,sans-Serif" font-size="10.00">taurus_ether_get_phys</text>
<text text-anchor="middle" x="64" y="-7.5" font-family="Helvetica,sans-Serif" font-size="10.00">_addr_out</text>
</a>
</g>
</g>
<!-- Node2 -->
<g id="node2" class="node">
<title>Node2</title>
<g id="a_node2"><a xlink:title=" ">
<polygon fill="white" stroke="#bfbfbf" points="1,-89.5 1,-108.5 57,-108.5 57,-89.5 1,-89.5"/>
<text text-anchor="middle" x="29" y="-96.5" font-family="Helvetica,sans-Serif" font-size="10.00">uint64_t</text>
</a>
</g>
</g>
<!-- Node2&#45;&gt;Node1 -->
<g id="edge1" class="edge">
<title>Node2&#45;&gt;Node1</title>
<path fill="none" stroke="#9a32cd" stroke-dasharray="5,2" d="M32.36,-79.52C34.46,-70.12 37.6,-58.67 42,-49 44.88,-42.67 48.96,-36.23 52.82,-30.77"/>
<polygon fill="#9a32cd" stroke="#9a32cd" points="28.92,-78.89 30.38,-89.38 35.78,-80.27 28.92,-78.89"/>
<text text-anchor="middle" x="60" y="-63" font-family="Helvetica,sans-Serif" font-size="10.00"> cookie</text>
<text text-anchor="middle" x="60" y="-52" font-family="Helvetica,sans-Serif" font-size="10.00">res</text>
</g>
<!-- Node3 -->
<g id="node3" class="node">
<title>Node3</title>
<g id="a_node3"><a xlink:title=" ">
<polygon fill="white" stroke="#bfbfbf" points="75,-89.5 75,-108.5 125,-108.5 125,-89.5 75,-89.5"/>
<text text-anchor="middle" x="100" y="-96.5" font-family="Helvetica,sans-Serif" font-size="10.00">uint8_t</text>
</a>
</g>
</g>
<!-- Node3&#45;&gt;Node1 -->
<g id="edge2" class="edge">
<title>Node3&#45;&gt;Node1</title>
<path fill="none" stroke="#9a32cd" stroke-dasharray="5,2" d="M92.09,-80.09C85.52,-65.21 76.29,-44.31 70.23,-30.6"/>
<polygon fill="#9a32cd" stroke="#9a32cd" points="88.91,-81.54 96.15,-89.28 95.31,-78.72 88.91,-81.54"/>
<text text-anchor="middle" x="111.5" y="-57.5" font-family="Helvetica,sans-Serif" font-size="10.00"> PhysAddr</text>
</g>
</g>
</svg>
