<?xml version="1.0" encoding="UTF-8" standalone="no"?>
<!DOCTYPE svg PUBLIC "-//W3C//DTD SVG 1.1//EN"
 "http://www.w3.org/Graphics/SVG/1.1/DTD/svg11.dtd">
<!-- Generated by graphviz version 2.43.0 (0)
 -->
<!-- Title: st_osal_memory_buffer_obj Pages: 1 -->
<svg width="767pt" height="518pt"
 viewBox="0.00 0.00 767.00 517.50" xmlns="http://www.w3.org/2000/svg" xmlns:xlink="http://www.w3.org/1999/xlink">
<g id="graph0" class="graph" transform="scale(1 1) rotate(0) translate(4 513.5)">
<title>st_osal_memory_buffer_obj</title>
<polygon fill="white" stroke="transparent" points="-4,4 -4,-513.5 763,-513.5 763,4 -4,4"/>
<!-- Node1 -->
<g id="node1" class="node">
<title>Node1</title>
<g id="a_node1"><a xlink:title="memory buffer object.">
<polygon fill="#bfbfbf" stroke="black" points="607,-216 607,-235 759,-235 759,-216 607,-216"/>
<text text-anchor="middle" x="683" y="-223" font-family="Helvetica,sans-Serif" font-size="10.00">st_osal_memory_buffer_obj</text>
</a>
</g>
</g>
<!-- Node2 -->
<g id="node2" class="node">
<title>Node2</title>
<g id="a_node2"><a xlink:title=" ">
<polygon fill="white" stroke="#bfbfbf" points="322.5,-468 322.5,-509 452.5,-509 452.5,-468 322.5,-468"/>
<text text-anchor="start" x="330.5" y="-497" font-family="Helvetica,sans-Serif" font-size="10.00">e_osal_return_t(*)</text>
<text text-anchor="start" x="330.5" y="-486" font-family="Helvetica,sans-Serif" font-size="10.00">(const void *p_ptr_self,</text>
<text text-anchor="middle" x="387.5" y="-475" font-family="Helvetica,sans-Serif" font-size="10.00"> size_t *const p_size)</text>
</a>
</g>
</g>
<!-- Node2&#45;&gt;Node1 -->
<g id="edge1" class="edge">
<title>Node2&#45;&gt;Node1</title>
<path fill="none" stroke="#9a32cd" stroke-dasharray="5,2" d="M462.86,-477.39C504.09,-467.95 553.95,-450.71 589,-419.5 648.69,-366.34 673.57,-266.49 680.13,-235.16"/>
<polygon fill="#9a32cd" stroke="#9a32cd" points="461.87,-474.02 452.85,-479.57 463.36,-480.86 461.87,-474.02"/>
<text text-anchor="middle" x="539" y="-471.5" font-family="Helvetica,sans-Serif" font-size="10.00"> p_getSize</text>
</g>
<!-- Node3 -->
<g id="node3" class="node">
<title>Node3</title>
<g id="a_node3"><a xlink:title=" ">
<polygon fill="white" stroke="#bfbfbf" points="325,-408 325,-449 450,-449 450,-408 325,-408"/>
<text text-anchor="start" x="333" y="-437" font-family="Helvetica,sans-Serif" font-size="10.00">e_osal_return_t(*)</text>
<text text-anchor="start" x="333" y="-426" font-family="Helvetica,sans-Serif" font-size="10.00">(void *p_ptr_self, void</text>
<text text-anchor="middle" x="387.5" y="-415" font-family="Helvetica,sans-Serif" font-size="10.00"> **const pp_cpu_ptr)</text>
</a>
</g>
</g>
<!-- Node3&#45;&gt;Node1 -->
<g id="edge2" class="edge">
<title>Node3&#45;&gt;Node1</title>
<path fill="none" stroke="#9a32cd" stroke-dasharray="5,2" d="M460.07,-414.07C500.84,-403.23 551.17,-385.21 589,-356.5 634.33,-322.11 666.47,-259.34 677.66,-235.26"/>
<polygon fill="#9a32cd" stroke="#9a32cd" points="459.01,-410.73 450.2,-416.6 460.75,-417.51 459.01,-410.73"/>
<text text-anchor="middle" x="539" y="-407.5" font-family="Helvetica,sans-Serif" font-size="10.00"> p_getCpuPtr</text>
</g>
<!-- Node4 -->
<g id="node4" class="node">
<title>Node4</title>
<g id="a_node4"><a xlink:title=" ">
<polygon fill="white" stroke="#bfbfbf" points="326,-348 326,-389 449,-389 449,-348 326,-348"/>
<text text-anchor="start" x="334" y="-377" font-family="Helvetica,sans-Serif" font-size="10.00">e_osal_return_t(*)</text>
<text text-anchor="start" x="334" y="-366" font-family="Helvetica,sans-Serif" font-size="10.00">(void *p_ptr_self, size</text>
<text text-anchor="middle" x="387.5" y="-355" font-family="Helvetica,sans-Serif" font-size="10.00">_t offset, size_t size)</text>
</a>
</g>
</g>
<!-- Node4&#45;&gt;Node1 -->
<g id="edge3" class="edge">
<title>Node4&#45;&gt;Node1</title>
<path fill="none" stroke="#9a32cd" stroke-dasharray="5,2" d="M456.07,-344.21C461.13,-342.3 466.15,-340.39 471,-338.5 523.92,-317.9 539.12,-316.63 589,-289.5 619.65,-272.83 652.64,-248.4 669.9,-235.06"/>
<polygon fill="#9a32cd" stroke="#9a32cd" points="454.47,-341.07 446.32,-347.85 456.91,-347.63 454.47,-341.07"/>
<text text-anchor="middle" x="539" y="-344.5" font-family="Helvetica,sans-Serif" font-size="10.00"> p_flush</text>
<text text-anchor="middle" x="539" y="-333.5" font-family="Helvetica,sans-Serif" font-size="10.00">p_invalidate</text>
</g>
<!-- Node5 -->
<g id="node5" class="node">
<title>Node5</title>
<g id="a_node5"><a xlink:title=" ">
<polygon fill="white" stroke="#bfbfbf" points="322.5,-276.5 322.5,-328.5 452.5,-328.5 452.5,-276.5 322.5,-276.5"/>
<text text-anchor="start" x="330.5" y="-316.5" font-family="Helvetica,sans-Serif" font-size="10.00">e_osal_return_t(*)</text>
<text text-anchor="start" x="330.5" y="-305.5" font-family="Helvetica,sans-Serif" font-size="10.00">(void *p_ptr_self, const</text>
<text text-anchor="start" x="330.5" y="-294.5" font-family="Helvetica,sans-Serif" font-size="10.00"> void **const pp_const</text>
<text text-anchor="middle" x="387.5" y="-283.5" font-family="Helvetica,sans-Serif" font-size="10.00">_cpu_ptr)</text>
</a>
</g>
</g>
<!-- Node5&#45;&gt;Node1 -->
<g id="edge4" class="edge">
<title>Node5&#45;&gt;Node1</title>
<path fill="none" stroke="#9a32cd" stroke-dasharray="5,2" d="M462.49,-283.09C521.03,-267.73 600.25,-246.95 645.77,-235.01"/>
<polygon fill="#9a32cd" stroke="#9a32cd" points="461.33,-279.77 452.55,-285.7 463.11,-286.54 461.33,-279.77"/>
<text text-anchor="middle" x="539" y="-277.5" font-family="Helvetica,sans-Serif" font-size="10.00"> p_getConstCpuPtr</text>
</g>
<!-- Node6 -->
<g id="node6" class="node">
<title>Node6</title>
<g id="a_node6"><a xlink:title=" ">
<polygon fill="white" stroke="#bfbfbf" points="322.5,-194 322.5,-257 452.5,-257 452.5,-194 322.5,-194"/>
<text text-anchor="start" x="330.5" y="-245" font-family="Helvetica,sans-Serif" font-size="10.00">e_osal_return_t(*)</text>
<text text-anchor="start" x="330.5" y="-234" font-family="Helvetica,sans-Serif" font-size="10.00">(const void *p_ptr_self,</text>
<text text-anchor="start" x="330.5" y="-223" font-family="Helvetica,sans-Serif" font-size="10.00"> osal_axi_bus_id_t axi</text>
<text text-anchor="start" x="330.5" y="-212" font-family="Helvetica,sans-Serif" font-size="10.00">_id, uintptr_t *const p</text>
<text text-anchor="middle" x="387.5" y="-201" font-family="Helvetica,sans-Serif" font-size="10.00">_hw_addr)</text>
</a>
</g>
</g>
<!-- Node6&#45;&gt;Node1 -->
<g id="edge5" class="edge">
<title>Node6&#45;&gt;Node1</title>
<path fill="none" stroke="#9a32cd" stroke-dasharray="5,2" d="M462.64,-225.5C506.78,-225.5 562.63,-225.5 606.93,-225.5"/>
<polygon fill="#9a32cd" stroke="#9a32cd" points="462.55,-222 452.55,-225.5 462.55,-229 462.55,-222"/>
<text text-anchor="middle" x="539" y="-228.5" font-family="Helvetica,sans-Serif" font-size="10.00"> p_getHwAddr</text>
</g>
<!-- Node7 -->
<g id="node7" class="node">
<title>Node7</title>
<g id="a_node7"><a xlink:href="structst__osal__memory__manager__obj.html" target="_top" xlink:title="memory manager object.">
<polygon fill="white" stroke="black" points="304,-156 304,-175 471,-175 471,-156 304,-156"/>
<text text-anchor="middle" x="387.5" y="-163" font-family="Helvetica,sans-Serif" font-size="10.00">st_osal_memory_manager_obj</text>
</a>
</g>
</g>
<!-- Node7&#45;&gt;Node1 -->
<g id="edge6" class="edge">
<title>Node7&#45;&gt;Node1</title>
<path fill="none" stroke="#9a32cd" stroke-dasharray="5,2" d="M444.99,-177.05C500.29,-188.35 583.53,-205.37 635.23,-215.94"/>
<polygon fill="#9a32cd" stroke="#9a32cd" points="445.5,-173.58 435.01,-175.01 444.1,-180.44 445.5,-173.58"/>
<text text-anchor="middle" x="539" y="-208.5" font-family="Helvetica,sans-Serif" font-size="10.00"> mmngr_owner_hndl</text>
</g>
<!-- Node8 -->
<g id="node8" class="node">
<title>Node8</title>
<g id="a_node8"><a xlink:title=" ">
<polygon fill="white" stroke="#bfbfbf" points="17,-403.5 17,-455.5 161,-455.5 161,-403.5 17,-403.5"/>
<text text-anchor="start" x="25" y="-443.5" font-family="Helvetica,sans-Serif" font-size="10.00">e_osal_return_t(*)</text>
<text text-anchor="start" x="25" y="-432.5" font-family="Helvetica,sans-Serif" font-size="10.00">(void *p_ptr_self, osal</text>
<text text-anchor="start" x="25" y="-421.5" font-family="Helvetica,sans-Serif" font-size="10.00">_memory_buffer_handle_t</text>
<text text-anchor="middle" x="89" y="-410.5" font-family="Helvetica,sans-Serif" font-size="10.00"> buffer_obj)</text>
</a>
</g>
</g>
<!-- Node8&#45;&gt;Node7 -->
<g id="edge7" class="edge">
<title>Node8&#45;&gt;Node7</title>
<path fill="none" stroke="#9a32cd" stroke-dasharray="5,2" d="M171.06,-409.44C212.6,-394.74 259.82,-370.22 286,-330.5 321.98,-275.91 260.23,-233.06 304,-184.5 307.35,-180.79 311.26,-177.73 315.53,-175.21"/>
<polygon fill="#9a32cd" stroke="#9a32cd" points="169.82,-406.17 161.47,-412.7 172.07,-412.79 169.82,-406.17"/>
<text text-anchor="middle" x="241" y="-400.5" font-family="Helvetica,sans-Serif" font-size="10.00"> p_deallocate</text>
</g>
<!-- Node9 -->
<g id="node9" class="node">
<title>Node9</title>
<g id="a_node9"><a xlink:title=" ">
<polygon fill="white" stroke="#bfbfbf" points="10,-321 10,-384 168,-384 168,-321 10,-321"/>
<text text-anchor="start" x="18" y="-372" font-family="Helvetica,sans-Serif" font-size="10.00">e_osal_return_t(*)</text>
<text text-anchor="start" x="18" y="-361" font-family="Helvetica,sans-Serif" font-size="10.00">(void *p_ptr_self, size</text>
<text text-anchor="start" x="18" y="-350" font-family="Helvetica,sans-Serif" font-size="10.00">_t bytes, size_t alignment,</text>
<text text-anchor="start" x="18" y="-339" font-family="Helvetica,sans-Serif" font-size="10.00"> osal_memory_buffer_handle</text>
<text text-anchor="middle" x="89" y="-328" font-family="Helvetica,sans-Serif" font-size="10.00">_t *const p_buffer_obj)</text>
</a>
</g>
</g>
<!-- Node9&#45;&gt;Node7 -->
<g id="edge8" class="edge">
<title>Node9&#45;&gt;Node7</title>
<path fill="none" stroke="#9a32cd" stroke-dasharray="5,2" d="M177.97,-324.59C216.42,-308.18 258.84,-283.61 286,-248.5 304.08,-225.13 282.61,-204.89 304,-184.5 307.94,-180.75 312.46,-177.68 317.31,-175.19"/>
<polygon fill="#9a32cd" stroke="#9a32cd" points="176.21,-321.54 168.3,-328.59 178.88,-328.01 176.21,-321.54"/>
<text text-anchor="middle" x="241" y="-318.5" font-family="Helvetica,sans-Serif" font-size="10.00"> p_allocate</text>
</g>
<!-- Node10 -->
<g id="node10" class="node">
<title>Node10</title>
<g id="a_node10"><a xlink:title=" ">
<polygon fill="white" stroke="#bfbfbf" points="20,-249.5 20,-301.5 158,-301.5 158,-249.5 20,-249.5"/>
<text text-anchor="start" x="28" y="-289.5" font-family="Helvetica,sans-Serif" font-size="10.00">e_osal_return_t(*)</text>
<text text-anchor="start" x="28" y="-278.5" font-family="Helvetica,sans-Serif" font-size="10.00">(const void *p_ptr_self,</text>
<text text-anchor="start" x="28" y="-267.5" font-family="Helvetica,sans-Serif" font-size="10.00"> st_osal_mmngr_config_t</text>
<text text-anchor="middle" x="89" y="-256.5" font-family="Helvetica,sans-Serif" font-size="10.00"> *const p_config)</text>
</a>
</g>
</g>
<!-- Node10&#45;&gt;Node7 -->
<g id="edge9" class="edge">
<title>Node10&#45;&gt;Node7</title>
<path fill="none" stroke="#9a32cd" stroke-dasharray="5,2" d="M165.29,-245.56C169.59,-243.85 173.85,-242.15 178,-240.5 226,-221.4 240.71,-222.37 286,-197.5 294.65,-192.75 295.01,-188.58 304,-184.5 312.43,-180.67 321.71,-177.58 330.91,-175.09"/>
<polygon fill="#9a32cd" stroke="#9a32cd" points="163.83,-242.37 155.83,-249.32 166.42,-248.87 163.83,-242.37"/>
<text text-anchor="middle" x="241" y="-236.5" font-family="Helvetica,sans-Serif" font-size="10.00"> p_getConfig</text>
</g>
<!-- Node11 -->
<g id="node11" class="node">
<title>Node11</title>
<g id="a_node11"><a xlink:title=" ">
<polygon fill="white" stroke="#bfbfbf" points="0,-156.5 0,-230.5 178,-230.5 178,-156.5 0,-156.5"/>
<text text-anchor="start" x="8" y="-218.5" font-family="Helvetica,sans-Serif" font-size="10.00">e_osal_return_t(*)</text>
<text text-anchor="start" x="8" y="-207.5" font-family="Helvetica,sans-Serif" font-size="10.00">(void *p_ptr_self, e</text>
<text text-anchor="start" x="8" y="-196.5" font-family="Helvetica,sans-Serif" font-size="10.00">_osal_mmngr_event_t monitored</text>
<text text-anchor="start" x="8" y="-185.5" font-family="Helvetica,sans-Serif" font-size="10.00">_event, fp_osal_memory_mngr</text>
<text text-anchor="start" x="8" y="-174.5" font-family="Helvetica,sans-Serif" font-size="10.00">_cb_t monitor_handler, void</text>
<text text-anchor="middle" x="89" y="-163.5" font-family="Helvetica,sans-Serif" font-size="10.00"> *p_monitor_handler_user_arg)</text>
</a>
</g>
</g>
<!-- Node11&#45;&gt;Node7 -->
<g id="edge10" class="edge">
<title>Node11&#45;&gt;Node7</title>
<path fill="none" stroke="#9a32cd" stroke-dasharray="5,2" d="M188.56,-184.19C225.9,-180.67 268.01,-176.69 303.76,-173.31"/>
<polygon fill="#9a32cd" stroke="#9a32cd" points="187.78,-180.75 178.16,-185.17 188.44,-187.72 187.78,-180.75"/>
<text text-anchor="middle" x="241" y="-185.5" font-family="Helvetica,sans-Serif" font-size="10.00"> p_registerMonitor</text>
</g>
<!-- Node12 -->
<g id="node12" class="node">
<title>Node12</title>
<g id="a_node12"><a xlink:title=" ">
<polygon fill="white" stroke="#bfbfbf" points="24,-96 24,-137 154,-137 154,-96 24,-96"/>
<text text-anchor="start" x="32" y="-125" font-family="Helvetica,sans-Serif" font-size="10.00">e_osal_return_t(*)</text>
<text text-anchor="start" x="32" y="-114" font-family="Helvetica,sans-Serif" font-size="10.00">(const void *p_ptr_self,</text>
<text text-anchor="middle" x="89" y="-103" font-family="Helvetica,sans-Serif" font-size="10.00"> FILE *p_output)</text>
</a>
</g>
</g>
<!-- Node12&#45;&gt;Node1 -->
<g id="edge13" class="edge">
<title>Node12&#45;&gt;Node1</title>
<path fill="none" stroke="#9a32cd" stroke-dasharray="5,2" d="M164.26,-117.31C258.21,-118.85 414.57,-123.21 471,-135.5 547.46,-152.15 630.86,-196.27 665.5,-215.87"/>
<polygon fill="#9a32cd" stroke="#9a32cd" points="164.3,-113.82 154.25,-117.16 164.19,-120.81 164.3,-113.82"/>
<text text-anchor="middle" x="387.5" y="-138.5" font-family="Helvetica,sans-Serif" font-size="10.00"> p_print</text>
</g>
<!-- Node12&#45;&gt;Node7 -->
<g id="edge11" class="edge">
<title>Node12&#45;&gt;Node7</title>
<path fill="none" stroke="#9a32cd" stroke-dasharray="5,2" d="M164.22,-131.69C174.87,-133.73 185.7,-135.72 196,-137.5 235.53,-144.32 279.86,-150.89 315.8,-155.96"/>
<polygon fill="#9a32cd" stroke="#9a32cd" points="164.57,-128.19 154.09,-129.73 163.24,-135.06 164.57,-128.19"/>
<text text-anchor="middle" x="241" y="-153.5" font-family="Helvetica,sans-Serif" font-size="10.00"> p_print</text>
</g>
<!-- Node13 -->
<g id="node13" class="node">
<title>Node13</title>
<g id="a_node13"><a xlink:title=" ">
<polygon fill="white" stroke="#bfbfbf" points="66,-58 66,-77 112,-77 112,-58 66,-58"/>
<text text-anchor="middle" x="89" y="-65" font-family="Helvetica,sans-Serif" font-size="10.00">void *</text>
</a>
</g>
</g>
<!-- Node13&#45;&gt;Node1 -->
<g id="edge14" class="edge">
<title>Node13&#45;&gt;Node1</title>
<path fill="none" stroke="#9a32cd" stroke-dasharray="5,2" d="M122.29,-64.17C205.57,-57.14 432.11,-47.95 589,-135.5 627.06,-156.74 660.84,-197.47 674.98,-215.96"/>
<polygon fill="#9a32cd" stroke="#9a32cd" points="121.83,-60.7 112.18,-65.08 122.45,-67.67 121.83,-60.7"/>
<text text-anchor="middle" x="387.5" y="-90.5" font-family="Helvetica,sans-Serif" font-size="10.00"> p_ptr_self</text>
</g>
<!-- Node13&#45;&gt;Node7 -->
<g id="edge12" class="edge">
<title>Node13&#45;&gt;Node7</title>
<path fill="none" stroke="#9a32cd" stroke-dasharray="5,2" d="M122.08,-73.55C138.85,-76.93 159.65,-81.48 178,-86.5 226.8,-99.86 243.32,-95.32 286,-122.5 295.81,-128.75 294.07,-135.44 304,-141.5 314.19,-147.71 326.06,-152.39 337.58,-155.88"/>
<polygon fill="#9a32cd" stroke="#9a32cd" points="122.71,-70.11 112.22,-71.6 121.35,-76.97 122.71,-70.11"/>
<text text-anchor="middle" x="241" y="-125.5" font-family="Helvetica,sans-Serif" font-size="10.00"> p_ptr_self</text>
</g>
<!-- Node14 -->
<g id="node14" class="node">
<title>Node14</title>
<g id="a_node14"><a xlink:title=" ">
<polygon fill="white" stroke="#bfbfbf" points="322,-0.5 322,-30.5 453,-30.5 453,-0.5 322,-0.5"/>
<text text-anchor="start" x="330" y="-18.5" font-family="Helvetica,sans-Serif" font-size="10.00">e_osal_return_t(*)</text>
<text text-anchor="middle" x="387.5" y="-7.5" font-family="Helvetica,sans-Serif" font-size="10.00">(const void *p_ptr_self)</text>
</a>
</g>
</g>
<!-- Node14&#45;&gt;Node1 -->
<g id="edge15" class="edge">
<title>Node14&#45;&gt;Node1</title>
<path fill="none" stroke="#9a32cd" stroke-dasharray="5,2" d="M463.34,-9.5C503.9,-9.96 552.96,-16.92 589,-42.5 651.19,-86.64 674.39,-184.86 680.33,-215.9"/>
<polygon fill="#9a32cd" stroke="#9a32cd" points="463.22,-6 453.22,-9.52 463.23,-13 463.22,-6"/>
<text text-anchor="middle" x="539" y="-45.5" font-family="Helvetica,sans-Serif" font-size="10.00"> p_checkBuffer</text>
</g>
</g>
</svg>
