<?xml version="1.0" encoding="UTF-8" standalone="no"?>
<!DOCTYPE svg PUBLIC "-//W3C//DTD SVG 1.1//EN"
 "http://www.w3.org/Graphics/SVG/1.1/DTD/svg11.dtd">
<!-- Generated by graphviz version 2.43.0 (0)
 -->
<!-- Title: R_RTDMAC_Handle_t Pages: 1 -->
<svg width="941pt" height="348pt"
 viewBox="0.00 0.00 941.00 348.00" xmlns="http://www.w3.org/2000/svg" xmlns:xlink="http://www.w3.org/1999/xlink">
<g id="graph0" class="graph" transform="scale(1 1) rotate(0) translate(4 344)">
<title>R_RTDMAC_Handle_t</title>
<polygon fill="white" stroke="transparent" points="-4,4 -4,-344 937,-344 937,4 -4,4"/>
<!-- Node1 -->
<g id="node1" class="node">
<title>Node1</title>
<g id="a_node1"><a xlink:title=" ">
<polygon fill="#bfbfbf" stroke="black" points="814,-124.5 814,-143.5 933,-143.5 933,-124.5 814,-124.5"/>
<text text-anchor="middle" x="873.5" y="-131.5" font-family="Helvetica,sans-Serif" font-size="10.00">R_RTDMAC_Handle_t</text>
</a>
</g>
</g>
<!-- Node2 -->
<g id="node2" class="node">
<title>Node2</title>
<g id="a_node2"><a xlink:href="structst__osal__mq__control.html" target="_top" xlink:title="control of message queue (Defined in OSAL Wrapper implementation files).">
<polygon fill="white" stroke="black" points="604,-147.5 604,-166.5 715,-166.5 715,-147.5 604,-147.5"/>
<text text-anchor="middle" x="659.5" y="-154.5" font-family="Helvetica,sans-Serif" font-size="10.00">st_osal_mq_control</text>
</a>
</g>
</g>
<!-- Node2&#45;&gt;Node1 -->
<g id="edge1" class="edge">
<title>Node2&#45;&gt;Node1</title>
<path fill="none" stroke="#9a32cd" stroke-dasharray="5,2" d="M725.24,-149.98C753.4,-146.92 786.16,-143.37 813.63,-140.39"/>
<polygon fill="#9a32cd" stroke="#9a32cd" points="724.66,-146.52 715.1,-151.08 725.41,-153.48 724.66,-146.52"/>
<text text-anchor="middle" x="764.5" y="-151" font-family="Helvetica,sans-Serif" font-size="10.00"> mMqHandle</text>
</g>
<!-- Node3 -->
<g id="node3" class="node">
<title>Node3</title>
<g id="a_node3"><a xlink:href="structst__osal__rcfg__mq__config.html" target="_top" xlink:title=" ">
<polygon fill="white" stroke="black" points="365,-249.5 365,-268.5 496,-268.5 496,-249.5 365,-249.5"/>
<text text-anchor="middle" x="430.5" y="-256.5" font-family="Helvetica,sans-Serif" font-size="10.00">st_osal_rcfg_mq_config</text>
</a>
</g>
</g>
<!-- Node3&#45;&gt;Node2 -->
<g id="edge2" class="edge">
<title>Node3&#45;&gt;Node2</title>
<path fill="none" stroke="#9a32cd" stroke-dasharray="5,2" d="M506.1,-256.76C532.55,-253.48 561.74,-246.88 586,-234 616.65,-217.73 641.56,-183.51 652.5,-166.72"/>
<polygon fill="#9a32cd" stroke="#9a32cd" points="505.67,-253.29 496.12,-257.86 506.44,-260.25 505.67,-253.29"/>
<text text-anchor="middle" x="550" y="-258" font-family="Helvetica,sans-Serif" font-size="10.00"> usr_config</text>
</g>
<!-- Node4 -->
<g id="node4" class="node">
<title>Node4</title>
<g id="a_node4"><a xlink:title=" ">
<polygon fill="white" stroke="#bfbfbf" points="0,-269.5 0,-288.5 56,-288.5 56,-269.5 0,-269.5"/>
<text text-anchor="middle" x="28" y="-276.5" font-family="Helvetica,sans-Serif" font-size="10.00">uint64_t</text>
</a>
</g>
</g>
<!-- Node4&#45;&gt;Node2 -->
<g id="edge6" class="edge">
<title>Node4&#45;&gt;Node2</title>
<path fill="none" stroke="#9a32cd" stroke-dasharray="5,2" d="M65.94,-290.19C160.58,-316.54 416.18,-372.84 586,-270 626.27,-245.61 648.13,-189.35 655.56,-166.71"/>
<polygon fill="#9a32cd" stroke="#9a32cd" points="66.83,-286.81 56.25,-287.44 64.92,-293.54 66.83,-286.81"/>
<text text-anchor="middle" x="321.5" y="-332" font-family="Helvetica,sans-Serif" font-size="10.00"> handle_id</text>
</g>
<!-- Node4&#45;&gt;Node3 -->
<g id="edge3" class="edge">
<title>Node4&#45;&gt;Node3</title>
<path fill="none" stroke="#9a32cd" stroke-dasharray="5,2" d="M66.49,-277.13C134.81,-273.72 280.28,-266.45 364.86,-262.23"/>
<polygon fill="#9a32cd" stroke="#9a32cd" points="66.03,-273.65 56.21,-277.64 66.38,-280.64 66.03,-273.65"/>
<text text-anchor="middle" x="224.5" y="-274" font-family="Helvetica,sans-Serif" font-size="10.00"> id</text>
</g>
<!-- Node5 -->
<g id="node5" class="node">
<title>Node5</title>
<g id="a_node5"><a xlink:href="structst__osal__mq__config.html" target="_top" xlink:title="configuration of message queue.">
<polygon fill="white" stroke="black" points="171,-223.5 171,-242.5 278,-242.5 278,-223.5 171,-223.5"/>
<text text-anchor="middle" x="224.5" y="-230.5" font-family="Helvetica,sans-Serif" font-size="10.00">st_osal_mq_config</text>
</a>
</g>
</g>
<!-- Node4&#45;&gt;Node5 -->
<g id="edge5" class="edge">
<title>Node4&#45;&gt;Node5</title>
<path fill="none" stroke="#9a32cd" stroke-dasharray="5,2" d="M44.99,-262.21C52.97,-254.96 63.2,-247.2 74,-243 104.67,-231.08 141.53,-228.5 170.98,-228.93"/>
<polygon fill="#9a32cd" stroke="#9a32cd" points="42.32,-259.93 37.58,-269.4 47.19,-264.95 42.32,-259.93"/>
<text text-anchor="middle" x="113.5" y="-257" font-family="Helvetica,sans-Serif" font-size="10.00"> max_num_msg</text>
<text text-anchor="middle" x="113.5" y="-246" font-family="Helvetica,sans-Serif" font-size="10.00">msg_size</text>
</g>
<!-- Node5&#45;&gt;Node2 -->
<g id="edge10" class="edge">
<title>Node5&#45;&gt;Node2</title>
<path fill="none" stroke="#9a32cd" stroke-dasharray="5,2" d="M288.35,-227.79C360.83,-220.93 483.2,-206.75 586,-182 602.57,-178.01 620.69,-171.76 634.68,-166.51"/>
<polygon fill="#9a32cd" stroke="#9a32cd" points="287.66,-224.34 278.03,-228.75 288.31,-231.31 287.66,-224.34"/>
<text text-anchor="middle" x="430.5" y="-222" font-family="Helvetica,sans-Serif" font-size="10.00"> config</text>
</g>
<!-- Node5&#45;&gt;Node3 -->
<g id="edge4" class="edge">
<title>Node5&#45;&gt;Node3</title>
<path fill="none" stroke="#9a32cd" stroke-dasharray="5,2" d="M288.21,-240.99C312.49,-244.09 340.27,-247.63 364.74,-250.75"/>
<polygon fill="#9a32cd" stroke="#9a32cd" points="288.4,-237.49 278.04,-239.7 287.51,-244.43 288.4,-237.49"/>
<text text-anchor="middle" x="321.5" y="-251" font-family="Helvetica,sans-Serif" font-size="10.00"> config</text>
</g>
<!-- Node6 -->
<g id="node6" class="node">
<title>Node6</title>
<g id="a_node6"><a xlink:title=" ">
<polygon fill="white" stroke="#bfbfbf" points="411.5,-164.5 411.5,-183.5 449.5,-183.5 449.5,-164.5 411.5,-164.5"/>
<text text-anchor="middle" x="430.5" y="-171.5" font-family="Helvetica,sans-Serif" font-size="10.00">char</text>
</a>
</g>
</g>
<!-- Node6&#45;&gt;Node2 -->
<g id="edge7" class="edge">
<title>Node6&#45;&gt;Node2</title>
<path fill="none" stroke="#9a32cd" stroke-dasharray="5,2" d="M459.94,-171.87C495.86,-169.18 558.47,-164.49 603.79,-161.1"/>
<polygon fill="#9a32cd" stroke="#9a32cd" points="459.4,-168.4 449.69,-172.64 459.93,-175.38 459.4,-168.4"/>
<text text-anchor="middle" x="550" y="-170" font-family="Helvetica,sans-Serif" font-size="10.00"> buffer</text>
</g>
<!-- Node7 -->
<g id="node7" class="node">
<title>Node7</title>
<g id="a_node7"><a xlink:title=" ">
<polygon fill="white" stroke="#bfbfbf" points="405.5,-126.5 405.5,-145.5 455.5,-145.5 455.5,-126.5 405.5,-126.5"/>
<text text-anchor="middle" x="430.5" y="-133.5" font-family="Helvetica,sans-Serif" font-size="10.00">int64_t</text>
</a>
</g>
</g>
<!-- Node7&#45;&gt;Node2 -->
<g id="edge8" class="edge">
<title>Node7&#45;&gt;Node2</title>
<path fill="none" stroke="#9a32cd" stroke-dasharray="5,2" d="M466.01,-137.8C497.36,-139.6 544.85,-142.7 586,-147 591.81,-147.61 597.88,-148.32 603.92,-149.08"/>
<polygon fill="#9a32cd" stroke="#9a32cd" points="465.81,-134.29 455.63,-137.22 465.42,-141.28 465.81,-134.29"/>
<text text-anchor="middle" x="550" y="-150" font-family="Helvetica,sans-Serif" font-size="10.00"> inner_timeout</text>
</g>
<!-- Node8 -->
<g id="node8" class="node">
<title>Node8</title>
<g id="a_node8"><a xlink:title=" ">
<polygon fill="white" stroke="#bfbfbf" points="411.5,-76.5 411.5,-95.5 449.5,-95.5 449.5,-76.5 411.5,-76.5"/>
<text text-anchor="middle" x="430.5" y="-83.5" font-family="Helvetica,sans-Serif" font-size="10.00">bool</text>
</a>
</g>
</g>
<!-- Node8&#45;&gt;Node2 -->
<g id="edge9" class="edge">
<title>Node8&#45;&gt;Node2</title>
<path fill="none" stroke="#9a32cd" stroke-dasharray="5,2" d="M460.05,-82.18C492.96,-79.27 547.46,-79.13 586,-103 598.58,-110.79 592.9,-121.22 604,-131 611.79,-137.86 621.7,-143.3 630.93,-147.4"/>
<polygon fill="#9a32cd" stroke="#9a32cd" points="459.36,-78.74 449.77,-83.25 460.08,-85.7 459.36,-78.74"/>
<text text-anchor="middle" x="550" y="-128" font-family="Helvetica,sans-Serif" font-size="10.00"> active</text>
<text text-anchor="middle" x="550" y="-117" font-family="Helvetica,sans-Serif" font-size="10.00">receive_wait</text>
<text text-anchor="middle" x="550" y="-106" font-family="Helvetica,sans-Serif" font-size="10.00">send_wait</text>
</g>
<!-- Node9 -->
<g id="node9" class="node">
<title>Node9</title>
<g id="a_node9"><a xlink:title=" ">
<polygon fill="white" stroke="#bfbfbf" points="384.5,-38.5 384.5,-57.5 476.5,-57.5 476.5,-38.5 384.5,-38.5"/>
<text text-anchor="middle" x="430.5" y="-45.5" font-family="Helvetica,sans-Serif" font-size="10.00">QueueHandle_t</text>
</a>
</g>
</g>
<!-- Node9&#45;&gt;Node2 -->
<g id="edge11" class="edge">
<title>Node9&#45;&gt;Node2</title>
<path fill="none" stroke="#9a32cd" stroke-dasharray="5,2" d="M486.94,-40.67C519.41,-39.51 559.17,-43.97 586,-67 608.42,-86.25 584.97,-108.4 604,-131 610.08,-138.22 618.62,-143.57 627.14,-147.48"/>
<polygon fill="#9a32cd" stroke="#9a32cd" points="486.48,-37.19 476.68,-41.22 486.86,-44.18 486.48,-37.19"/>
<text text-anchor="middle" x="550" y="-70" font-family="Helvetica,sans-Serif" font-size="10.00"> mqd</text>
</g>
<!-- Node10 -->
<g id="node10" class="node">
<title>Node10</title>
<g id="a_node10"><a xlink:title=" ">
<polygon fill="white" stroke="#bfbfbf" points="372.5,-0.5 372.5,-19.5 488.5,-19.5 488.5,-0.5 372.5,-0.5"/>
<text text-anchor="middle" x="430.5" y="-7.5" font-family="Helvetica,sans-Serif" font-size="10.00">SemaphoreHandle_t</text>
</a>
</g>
</g>
<!-- Node10&#45;&gt;Node2 -->
<g id="edge12" class="edge">
<title>Node10&#45;&gt;Node2</title>
<path fill="none" stroke="#9a32cd" stroke-dasharray="5,2" d="M498.85,-0.46C529.13,-0.03 563.12,-5.5 586,-27 620.18,-59.13 575.67,-93.61 604,-131 609.51,-138.27 617.57,-143.6 625.81,-147.47"/>
<polygon fill="#9a32cd" stroke="#9a32cd" points="498.61,3.03 488.74,-0.82 498.86,-3.96 498.61,3.03"/>
<text text-anchor="middle" x="550" y="-30" font-family="Helvetica,sans-Serif" font-size="10.00"> inner_mtx</text>
</g>
<!-- Node11 -->
<g id="node11" class="node">
<title>Node11</title>
<g id="a_node11"><a xlink:title=" ">
<polygon fill="white" stroke="#bfbfbf" points="634.5,-102.5 634.5,-121.5 684.5,-121.5 684.5,-102.5 634.5,-102.5"/>
<text text-anchor="middle" x="659.5" y="-109.5" font-family="Helvetica,sans-Serif" font-size="10.00">uint8_t</text>
</a>
</g>
</g>
<!-- Node11&#45;&gt;Node1 -->
<g id="edge13" class="edge">
<title>Node11&#45;&gt;Node1</title>
<path fill="none" stroke="#9a32cd" stroke-dasharray="5,2" d="M694.9,-109.8C722.4,-108.63 761.85,-108.27 796,-113 812.37,-115.27 830.2,-120.02 844.53,-124.44"/>
<polygon fill="#9a32cd" stroke="#9a32cd" points="694.44,-106.32 684.62,-110.3 694.78,-113.31 694.44,-106.32"/>
<text text-anchor="middle" x="764.5" y="-127" font-family="Helvetica,sans-Serif" font-size="10.00"> mSubCh</text>
<text text-anchor="middle" x="764.5" y="-116" font-family="Helvetica,sans-Serif" font-size="10.00">mUnit</text>
</g>
</g>
</svg>
