<?xml version="1.0" encoding="UTF-8" standalone="no"?>
<!DOCTYPE svg PUBLIC "-//W3C//DTD SVG 1.1//EN"
 "http://www.w3.org/Graphics/SVG/1.1/DTD/svg11.dtd">
<!-- Generated by graphviz version 2.43.0 (0)
 -->
<!-- Title: st_mmc_base Pages: 1 -->
<svg width="710pt" height="652pt"
 viewBox="0.00 0.00 710.00 652.00" xmlns="http://www.w3.org/2000/svg" xmlns:xlink="http://www.w3.org/1999/xlink">
<g id="graph0" class="graph" transform="scale(1 1) rotate(0) translate(4 648)">
<title>st_mmc_base</title>
<polygon fill="white" stroke="transparent" points="-4,4 -4,-648 706,-648 706,4 -4,4"/>
<!-- Node1 -->
<g id="node1" class="node">
<title>Node1</title>
<g id="a_node1"><a xlink:title=" ">
<polygon fill="#bfbfbf" stroke="black" points="618,-221.5 618,-240.5 702,-240.5 702,-221.5 618,-221.5"/>
<text text-anchor="middle" x="660" y="-228.5" font-family="Helvetica,sans-Serif" font-size="10.00">st_mmc_base</text>
</a>
</g>
</g>
<!-- Node2 -->
<g id="node2" class="node">
<title>Node2</title>
<g id="a_node2"><a xlink:title=" ">
<polygon fill="white" stroke="#bfbfbf" points="240,-609.5 240,-628.5 456,-628.5 456,-609.5 240,-609.5"/>
<text text-anchor="middle" x="348" y="-616.5" font-family="Helvetica,sans-Serif" font-size="10.00">HAL_MEMCARD_DATA_TRANSFER_MODE</text>
</a>
</g>
</g>
<!-- Node2&#45;&gt;Node1 -->
<g id="edge1" class="edge">
<title>Node2&#45;&gt;Node1</title>
<path fill="none" stroke="#9a32cd" stroke-dasharray="5,2" d="M406.11,-629.87C463,-637.12 548.99,-637.79 600,-589 652.01,-539.25 658.18,-293.1 658.9,-240.78"/>
<polygon fill="#9a32cd" stroke="#9a32cd" points="406.58,-626.4 396.2,-628.5 405.63,-633.34 406.58,-626.4"/>
<text text-anchor="middle" x="537" y="-636" font-family="Helvetica,sans-Serif" font-size="10.00"> transfer_mode</text>
</g>
<!-- Node3 -->
<g id="node3" class="node">
<title>Node3</title>
<g id="a_node3"><a xlink:title=" ">
<polygon fill="white" stroke="#bfbfbf" points="329,-566.5 329,-585.5 367,-585.5 367,-566.5 329,-566.5"/>
<text text-anchor="middle" x="348" y="-573.5" font-family="Helvetica,sans-Serif" font-size="10.00">char</text>
</a>
</g>
</g>
<!-- Node3&#45;&gt;Node1 -->
<g id="edge2" class="edge">
<title>Node3&#45;&gt;Node1</title>
<path fill="none" stroke="#9a32cd" stroke-dasharray="5,2" d="M377.32,-574.38C436.24,-570.42 569.1,-558.17 600,-527 641.69,-484.95 655.75,-286.45 658.48,-240.51"/>
<polygon fill="#9a32cd" stroke="#9a32cd" points="376.98,-570.9 367.22,-575.03 377.42,-577.88 376.98,-570.9"/>
<text text-anchor="middle" x="537" y="-577" font-family="Helvetica,sans-Serif" font-size="10.00"> smpcmp</text>
<text text-anchor="middle" x="537" y="-566" font-family="Helvetica,sans-Serif" font-size="10.00">taps</text>
</g>
<!-- Node4 -->
<g id="node4" class="node">
<title>Node4</title>
<g id="a_node4"><a xlink:title=" ">
<polygon fill="white" stroke="#bfbfbf" points="266.5,-528.5 266.5,-547.5 429.5,-547.5 429.5,-528.5 266.5,-528.5"/>
<text text-anchor="middle" x="348" y="-535.5" font-family="Helvetica,sans-Serif" font-size="10.00">HAL_MEMCARD_DATA_WIDTH</text>
</a>
</g>
</g>
<!-- Node4&#45;&gt;Node1 -->
<g id="edge3" class="edge">
<title>Node4&#45;&gt;Node1</title>
<path fill="none" stroke="#9a32cd" stroke-dasharray="5,2" d="M430.22,-526.37C486.44,-513.94 558.38,-488.54 600,-437 650.02,-375.06 657.64,-272.73 658.8,-240.81"/>
<polygon fill="#9a32cd" stroke="#9a32cd" points="429.33,-522.98 420.27,-528.47 430.78,-529.83 429.33,-522.98"/>
<text text-anchor="middle" x="537" y="-515" font-family="Helvetica,sans-Serif" font-size="10.00"> bus_width</text>
</g>
<!-- Node5 -->
<g id="node5" class="node">
<title>Node5</title>
<g id="a_node5"><a xlink:title=" ">
<polygon fill="white" stroke="#bfbfbf" points="49.5,-201.5 49.5,-220.5 105.5,-220.5 105.5,-201.5 49.5,-201.5"/>
<text text-anchor="middle" x="77.5" y="-208.5" font-family="Helvetica,sans-Serif" font-size="10.00">uint32_t</text>
</a>
</g>
</g>
<!-- Node5&#45;&gt;Node1 -->
<g id="edge4" class="edge">
<title>Node5&#45;&gt;Node1</title>
<path fill="none" stroke="#9a32cd" stroke-dasharray="5,2" d="M96.66,-227.14C125.3,-251.87 183.53,-299.3 240,-328 329.96,-373.72 363.46,-357.75 456,-398 464.39,-401.65 465.14,-405.7 474,-408 528.21,-422.05 554.57,-440.74 600,-408 655.97,-367.66 659.65,-271.91 659.3,-240.89"/>
<polygon fill="#9a32cd" stroke="#9a32cd" points="98.9,-224.45 89.07,-220.52 94.3,-229.73 98.9,-224.45"/>
<text text-anchor="middle" x="348" y="-511" font-family="Helvetica,sans-Serif" font-size="10.00"> access_mode</text>
<text text-anchor="middle" x="348" y="-500" font-family="Helvetica,sans-Serif" font-size="10.00">base_clock</text>
<text text-anchor="middle" x="348" y="-489" font-family="Helvetica,sans-Serif" font-size="10.00">buff_address_physical</text>
<text text-anchor="middle" x="348" y="-478" font-family="Helvetica,sans-Serif" font-size="10.00">buff_address_virtual</text>
<text text-anchor="middle" x="348" y="-467" font-family="Helvetica,sans-Serif" font-size="10.00">card_power_enable</text>
<text text-anchor="middle" x="348" y="-456" font-family="Helvetica,sans-Serif" font-size="10.00">clock_enable</text>
<text text-anchor="middle" x="348" y="-445" font-family="Helvetica,sans-Serif" font-size="10.00">current_freq</text>
<text text-anchor="middle" x="348" y="-434" font-family="Helvetica,sans-Serif" font-size="10.00">data_timeout</text>
<text text-anchor="middle" x="348" y="-423" font-family="Helvetica,sans-Serif" font-size="10.00">dm_event1</text>
<text text-anchor="middle" x="348" y="-412" font-family="Helvetica,sans-Serif" font-size="10.00">dm_event2</text>
<text text-anchor="middle" x="348" y="-401" font-family="Helvetica,sans-Serif" font-size="10.00">...</text>
</g>
<!-- Node9 -->
<g id="node9" class="node">
<title>Node9</title>
<g id="a_node9"><a xlink:href="structst__error__info.html" target="_top" xlink:title=" ">
<polygon fill="white" stroke="black" points="309,-145.5 309,-164.5 387,-164.5 387,-145.5 309,-145.5"/>
<text text-anchor="middle" x="348" y="-152.5" font-family="Helvetica,sans-Serif" font-size="10.00">st_error_info</text>
</a>
</g>
</g>
<!-- Node5&#45;&gt;Node9 -->
<g id="edge10" class="edge">
<title>Node5&#45;&gt;Node9</title>
<path fill="none" stroke="#9a32cd" stroke-dasharray="5,2" d="M115.66,-210.73C145.58,-209.26 188.08,-204.29 222,-189 231.49,-184.72 230.56,-178.39 240,-174 261.56,-163.98 287.81,-159.22 308.92,-156.97"/>
<polygon fill="#9a32cd" stroke="#9a32cd" points="115.49,-207.23 105.63,-211.11 115.76,-214.23 115.49,-207.23"/>
<text text-anchor="middle" x="197.5" y="-261" font-family="Helvetica,sans-Serif" font-size="10.00"> dm_info1</text>
<text text-anchor="middle" x="197.5" y="-250" font-family="Helvetica,sans-Serif" font-size="10.00">dm_info2</text>
<text text-anchor="middle" x="197.5" y="-239" font-family="Helvetica,sans-Serif" font-size="10.00">info1</text>
<text text-anchor="middle" x="197.5" y="-228" font-family="Helvetica,sans-Serif" font-size="10.00">info2</text>
<text text-anchor="middle" x="197.5" y="-217" font-family="Helvetica,sans-Serif" font-size="10.00">status1</text>
<text text-anchor="middle" x="197.5" y="-206" font-family="Helvetica,sans-Serif" font-size="10.00">status2</text>
</g>
<!-- Node13 -->
<g id="node13" class="node">
<title>Node13</title>
<g id="a_node13"><a xlink:href="structst__command__info.html" target="_top" xlink:title=" ">
<polygon fill="white" stroke="black" points="296,-19.5 296,-38.5 400,-38.5 400,-19.5 296,-19.5"/>
<text text-anchor="middle" x="348" y="-26.5" font-family="Helvetica,sans-Serif" font-size="10.00">st_command_info</text>
</a>
</g>
</g>
<!-- Node5&#45;&gt;Node13 -->
<g id="edge14" class="edge">
<title>Node5&#45;&gt;Node13</title>
<path fill="none" stroke="#9a32cd" stroke-dasharray="5,2" d="M104.86,-196.72C123.63,-186.77 149.57,-173.46 173,-163 194.33,-153.48 207.06,-161.95 222,-144 249.49,-110.97 209.58,-79.35 240,-49 254.52,-34.52 275.95,-28.72 295.83,-26.85"/>
<polygon fill="#9a32cd" stroke="#9a32cd" points="103.18,-193.64 96.01,-201.44 106.48,-199.82 103.18,-193.64"/>
<text text-anchor="middle" x="197.5" y="-177" font-family="Helvetica,sans-Serif" font-size="10.00"> arg</text>
<text text-anchor="middle" x="197.5" y="-166" font-family="Helvetica,sans-Serif" font-size="10.00">hw</text>
</g>
<!-- Node6 -->
<g id="node6" class="node">
<title>Node6</title>
<g id="a_node6"><a xlink:title=" ">
<polygon fill="white" stroke="#bfbfbf" points="333.5,-299.5 333.5,-318.5 362.5,-318.5 362.5,-299.5 333.5,-299.5"/>
<text text-anchor="middle" x="348" y="-306.5" font-family="Helvetica,sans-Serif" font-size="10.00">int</text>
</a>
</g>
</g>
<!-- Node6&#45;&gt;Node1 -->
<g id="edge5" class="edge">
<title>Node6&#45;&gt;Node1</title>
<path fill="none" stroke="#9a32cd" stroke-dasharray="5,2" d="M372.73,-308.9C427.24,-308.34 559.8,-305.12 600,-287 622.92,-276.67 642.49,-253.63 652.29,-240.55"/>
<polygon fill="#9a32cd" stroke="#9a32cd" points="372.6,-305.4 362.63,-308.98 372.66,-312.4 372.6,-305.4"/>
<text text-anchor="middle" x="537" y="-396" font-family="Helvetica,sans-Serif" font-size="10.00"> adjust_hs400_enable</text>
<text text-anchor="middle" x="537" y="-385" font-family="Helvetica,sans-Serif" font-size="10.00">dma_tranend1</text>
<text text-anchor="middle" x="537" y="-374" font-family="Helvetica,sans-Serif" font-size="10.00">hs400_bad_tap</text>
<text text-anchor="start" x="474" y="-363" font-family="Helvetica,sans-Serif" font-size="10.00">hs400_ignore_dat</text>
<text text-anchor="middle" x="537" y="-352" font-family="Helvetica,sans-Serif" font-size="10.00">_correction</text>
<text text-anchor="middle" x="537" y="-341" font-family="Helvetica,sans-Serif" font-size="10.00">hs400_manual_correction</text>
<text text-anchor="middle" x="537" y="-330" font-family="Helvetica,sans-Serif" font-size="10.00">hs400_use_4tap</text>
<text text-anchor="middle" x="537" y="-319" font-family="Helvetica,sans-Serif" font-size="10.00">need_adjust_hs400</text>
<text text-anchor="middle" x="537" y="-308" font-family="Helvetica,sans-Serif" font-size="10.00">need_adjust_hs400_done</text>
</g>
<!-- Node7 -->
<g id="node7" class="node">
<title>Node7</title>
<g id="a_node7"><a xlink:title=" ">
<polygon fill="white" stroke="#bfbfbf" points="323,-221.5 323,-240.5 373,-240.5 373,-221.5 323,-221.5"/>
<text text-anchor="middle" x="348" y="-228.5" font-family="Helvetica,sans-Serif" font-size="10.00">uint8_t</text>
</a>
</g>
</g>
<!-- Node7&#45;&gt;Node1 -->
<g id="edge6" class="edge">
<title>Node7&#45;&gt;Node1</title>
<path fill="none" stroke="#9a32cd" stroke-dasharray="5,2" d="M383.08,-231C440.45,-231 556.11,-231 617.9,-231"/>
<polygon fill="#9a32cd" stroke="#9a32cd" points="383.07,-227.5 373.07,-231 383.07,-234.5 383.07,-227.5"/>
<text text-anchor="start" x="488" y="-278" font-family="Helvetica,sans-Serif" font-size="10.00"> adjust_hs400_calib</text>
<text text-anchor="middle" x="537" y="-267" font-family="Helvetica,sans-Serif" font-size="10.00">_table</text>
<text text-anchor="middle" x="537" y="-256" font-family="Helvetica,sans-Serif" font-size="10.00">adjust_hs400_offset</text>
<text text-anchor="middle" x="537" y="-245" font-family="Helvetica,sans-Serif" font-size="10.00">hs400_capable</text>
<text text-anchor="middle" x="537" y="-234" font-family="Helvetica,sans-Serif" font-size="10.00">tuning_status</text>
</g>
<!-- Node8 -->
<g id="node8" class="node">
<title>Node8</title>
<g id="a_node8"><a xlink:title=" ">
<polygon fill="white" stroke="#bfbfbf" points="288.5,-183.5 288.5,-202.5 407.5,-202.5 407.5,-183.5 288.5,-183.5"/>
<text text-anchor="middle" x="348" y="-190.5" font-family="Helvetica,sans-Serif" font-size="10.00">EMMC_PARTITION_ID</text>
</a>
</g>
</g>
<!-- Node8&#45;&gt;Node1 -->
<g id="edge7" class="edge">
<title>Node8&#45;&gt;Node1</title>
<path fill="none" stroke="#9a32cd" stroke-dasharray="5,2" d="M417.9,-189.57C468.87,-188.65 539.62,-190.77 600,-205 614.71,-208.47 630.31,-215.51 641.78,-221.39"/>
<polygon fill="#9a32cd" stroke="#9a32cd" points="417.58,-186.08 407.66,-189.8 417.74,-193.08 417.58,-186.08"/>
<text text-anchor="middle" x="537" y="-219" font-family="Helvetica,sans-Serif" font-size="10.00"> boot_partition_en</text>
<text text-anchor="middle" x="537" y="-208" font-family="Helvetica,sans-Serif" font-size="10.00">partition_access</text>
</g>
<!-- Node9&#45;&gt;Node1 -->
<g id="edge8" class="edge">
<title>Node9&#45;&gt;Node1</title>
<path fill="none" stroke="#9a32cd" stroke-dasharray="5,2" d="M397.07,-149.62C449.38,-145.81 534.31,-145.71 600,-175 622.96,-185.24 642.51,-208.31 652.3,-221.42"/>
<polygon fill="#9a32cd" stroke="#9a32cd" points="396.75,-146.13 387.06,-150.42 397.31,-153.11 396.75,-146.13"/>
<text text-anchor="middle" x="537" y="-178" font-family="Helvetica,sans-Serif" font-size="10.00"> error_info</text>
</g>
<!-- Node10 -->
<g id="node10" class="node">
<title>Node10</title>
<g id="a_node10"><a xlink:title=" ">
<polygon fill="white" stroke="#bfbfbf" points="49.5,-111.5 49.5,-130.5 105.5,-130.5 105.5,-111.5 49.5,-111.5"/>
<text text-anchor="middle" x="77.5" y="-118.5" font-family="Helvetica,sans-Serif" font-size="10.00">uint16_t</text>
</a>
</g>
</g>
<!-- Node10&#45;&gt;Node9 -->
<g id="edge9" class="edge">
<title>Node10&#45;&gt;Node9</title>
<path fill="none" stroke="#9a32cd" stroke-dasharray="5,2" d="M115.48,-114.87C145.13,-111.45 187.37,-109.98 222,-122 231.57,-125.32 230.74,-131.88 240,-136 261.64,-145.62 287.77,-150.37 308.8,-152.72"/>
<polygon fill="#9a32cd" stroke="#9a32cd" points="115.03,-111.4 105.55,-116.14 115.92,-118.34 115.03,-111.4"/>
<text text-anchor="middle" x="197.5" y="-136" font-family="Helvetica,sans-Serif" font-size="10.00"> code</text>
<text text-anchor="middle" x="197.5" y="-125" font-family="Helvetica,sans-Serif" font-size="10.00">num</text>
</g>
<!-- Node11 -->
<g id="node11" class="node">
<title>Node11</title>
<g id="a_node11"><a xlink:title=" ">
<polygon fill="white" stroke="#bfbfbf" points="298,-107.5 298,-126.5 398,-126.5 398,-107.5 298,-107.5"/>
<text text-anchor="middle" x="348" y="-114.5" font-family="Helvetica,sans-Serif" font-size="10.00">EMMC_R1_STATE</text>
</a>
</g>
</g>
<!-- Node11&#45;&gt;Node1 -->
<g id="edge11" class="edge">
<title>Node11&#45;&gt;Node1</title>
<path fill="none" stroke="#9a32cd" stroke-dasharray="5,2" d="M408.36,-106.09C462.34,-99.39 542.17,-97.84 600,-133 633.6,-153.43 650.52,-200.88 656.46,-221.33"/>
<polygon fill="#9a32cd" stroke="#9a32cd" points="407.71,-102.65 398.26,-107.44 408.64,-109.58 407.71,-102.65"/>
<text text-anchor="middle" x="537" y="-136" font-family="Helvetica,sans-Serif" font-size="10.00"> current_state</text>
</g>
<!-- Node12 -->
<g id="node12" class="node">
<title>Node12</title>
<g id="a_node12"><a xlink:title=" ">
<polygon fill="white" stroke="#bfbfbf" points="273.5,-58 273.5,-88 422.5,-88 422.5,-58 273.5,-58"/>
<text text-anchor="start" x="281.5" y="-76" font-family="Helvetica,sans-Serif" font-size="10.00">HAL_MEMCARD_PRESENCE</text>
<text text-anchor="middle" x="348" y="-65" font-family="Helvetica,sans-Serif" font-size="10.00">_STATUS</text>
</a>
</g>
</g>
<!-- Node12&#45;&gt;Node1 -->
<g id="edge12" class="edge">
<title>Node12&#45;&gt;Node1</title>
<path fill="none" stroke="#9a32cd" stroke-dasharray="5,2" d="M430.07,-56.74C483.14,-50.75 551.41,-52.39 600,-87 645.77,-119.6 656.11,-194.29 658.38,-221.15"/>
<polygon fill="#9a32cd" stroke="#9a32cd" points="429.51,-53.28 420.01,-57.98 430.37,-60.23 429.51,-53.28"/>
<text text-anchor="middle" x="537" y="-90" font-family="Helvetica,sans-Serif" font-size="10.00"> card_present</text>
</g>
<!-- Node13&#45;&gt;Node1 -->
<g id="edge13" class="edge">
<title>Node13&#45;&gt;Node1</title>
<path fill="none" stroke="#9a32cd" stroke-dasharray="5,2" d="M391.88,-17.03C446.26,-4.63 540.11,7.12 600,-39 659.4,-84.74 660.64,-189.08 659.52,-221.32"/>
<polygon fill="#9a32cd" stroke="#9a32cd" points="390.8,-13.69 381.88,-19.42 392.42,-20.5 390.8,-13.69"/>
<text text-anchor="middle" x="537" y="-42" font-family="Helvetica,sans-Serif" font-size="10.00"> cmd_info</text>
</g>
<!-- Node14 -->
<g id="node14" class="node">
<title>Node14</title>
<g id="a_node14"><a xlink:title=" ">
<polygon fill="white" stroke="#bfbfbf" points="1.5,-0.5 1.5,-19.5 153.5,-19.5 153.5,-0.5 1.5,-0.5"/>
<text text-anchor="middle" x="77.5" y="-7.5" font-family="Helvetica,sans-Serif" font-size="10.00">HAL_MEMCARD_COMMAND</text>
</a>
</g>
</g>
<!-- Node14&#45;&gt;Node13 -->
<g id="edge15" class="edge">
<title>Node14&#45;&gt;Node13</title>
<path fill="none" stroke="#9a32cd" stroke-dasharray="5,2" d="M163.97,-11.9C183.08,-12.63 203.24,-13.62 222,-15 246.39,-16.79 273.37,-19.69 296,-22.39"/>
<polygon fill="#9a32cd" stroke="#9a32cd" points="163.9,-8.4 153.78,-11.54 163.65,-15.39 163.9,-8.4"/>
<text text-anchor="middle" x="197.5" y="-18" font-family="Helvetica,sans-Serif" font-size="10.00"> cmd</text>
</g>
<!-- Node15 -->
<g id="node15" class="node">
<title>Node15</title>
<g id="a_node15"><a xlink:title=" ">
<polygon fill="white" stroke="#bfbfbf" points="0,-38.5 0,-57.5 155,-57.5 155,-38.5 0,-38.5"/>
<text text-anchor="middle" x="77.5" y="-45.5" font-family="Helvetica,sans-Serif" font-size="10.00">HAL_MEMCARD_OPERATION</text>
</a>
</g>
</g>
<!-- Node15&#45;&gt;Node13 -->
<g id="edge16" class="edge">
<title>Node15&#45;&gt;Node13</title>
<path fill="none" stroke="#9a32cd" stroke-dasharray="5,2" d="M165.29,-41.86C208.39,-38.81 258.97,-35.23 295.81,-32.62"/>
<polygon fill="#9a32cd" stroke="#9a32cd" points="164.81,-38.38 155.08,-42.58 165.3,-45.37 164.81,-38.38"/>
<text text-anchor="middle" x="197.5" y="-44" font-family="Helvetica,sans-Serif" font-size="10.00"> dir</text>
</g>
</g>
</svg>
