<?xml version="1.0" encoding="UTF-8" standalone="no"?>
<!DOCTYPE svg PUBLIC "-//W3C//DTD SVG 1.1//EN"
 "http://www.w3.org/Graphics/SVG/1.1/DTD/svg11.dtd">
<!-- Generated by graphviz version 2.43.0 (0)
 -->
<!-- Title: taurus_ether_update_phys_addr_filter_in Pages: 1 -->
<svg width="143pt" height="128pt"
 viewBox="0.00 0.00 143.00 128.00" xmlns="http://www.w3.org/2000/svg" xmlns:xlink="http://www.w3.org/1999/xlink">
<g id="graph0" class="graph" transform="scale(1 1) rotate(0) translate(4 124)">
<title>taurus_ether_update_phys_addr_filter_in</title>
<polygon fill="white" stroke="transparent" points="-4,4 -4,-124 139,-124 139,4 -4,4"/>
<!-- Node1 -->
<g id="node1" class="node">
<title>Node1</title>
<g id="a_node1"><a xlink:title=" ">
<polygon fill="#bfbfbf" stroke="black" points="4.5,-0.5 4.5,-30.5 121.5,-30.5 121.5,-0.5 4.5,-0.5"/>
<text text-anchor="start" x="12.5" y="-18.5" font-family="Helvetica,sans-Serif" font-size="10.00">taurus_ether_update</text>
<text text-anchor="middle" x="63" y="-7.5" font-family="Helvetica,sans-Serif" font-size="10.00">_phys_addr_filter_in</text>
</a>
</g>
</g>
<!-- Node2 -->
<g id="node2" class="node">
<title>Node2</title>
<g id="a_node2"><a xlink:title=" ">
<polygon fill="white" stroke="#bfbfbf" points="0,-100.5 0,-119.5 56,-119.5 56,-100.5 0,-100.5"/>
<text text-anchor="middle" x="28" y="-107.5" font-family="Helvetica,sans-Serif" font-size="10.00">uint64_t</text>
</a>
</g>
</g>
<!-- Node2&#45;&gt;Node1 -->
<g id="edge1" class="edge">
<title>Node2&#45;&gt;Node1</title>
<path fill="none" stroke="#9a32cd" stroke-dasharray="5,2" d="M30.24,-89.89C32.12,-77.81 35.41,-62.07 41,-49 43.73,-42.61 47.78,-36.15 51.66,-30.7"/>
<polygon fill="#9a32cd" stroke="#9a32cd" points="26.73,-89.76 28.85,-100.14 33.66,-90.7 26.73,-89.76"/>
<text text-anchor="middle" x="59" y="-63" font-family="Helvetica,sans-Serif" font-size="10.00"> cookie</text>
</g>
<!-- Node3 -->
<g id="node3" class="node">
<title>Node3</title>
<g id="a_node3"><a xlink:title=" ">
<polygon fill="white" stroke="#bfbfbf" points="74,-100.5 74,-119.5 124,-119.5 124,-100.5 74,-100.5"/>
<text text-anchor="middle" x="99" y="-107.5" font-family="Helvetica,sans-Serif" font-size="10.00">uint8_t</text>
</a>
</g>
</g>
<!-- Node3&#45;&gt;Node1 -->
<g id="edge2" class="edge">
<title>Node3&#45;&gt;Node1</title>
<path fill="none" stroke="#9a32cd" stroke-dasharray="5,2" d="M92.59,-90.72C88.34,-78.78 82.53,-62.89 77,-49 74.59,-42.95 71.78,-36.34 69.3,-30.67"/>
<polygon fill="#9a32cd" stroke="#9a32cd" points="89.38,-92.14 96.01,-100.4 95.98,-89.8 89.38,-92.14"/>
<text text-anchor="middle" x="112" y="-74" font-family="Helvetica,sans-Serif" font-size="10.00"> Action</text>
<text text-anchor="middle" x="112" y="-63" font-family="Helvetica,sans-Serif" font-size="10.00">CtrlIdx</text>
<text text-anchor="middle" x="112" y="-52" font-family="Helvetica,sans-Serif" font-size="10.00">PhysAddr</text>
</g>
</g>
</svg>
