<?xml version="1.0" encoding="UTF-8" standalone="no"?>
<!DOCTYPE svg PUBLIC "-//W3C//DTD SVG 1.1//EN"
 "http://www.w3.org/Graphics/SVG/1.1/DTD/svg11.dtd">
<!-- Generated by graphviz version 2.43.0 (0)
 -->
<!-- Title: st_imrdrv_attr_cache_mode_t Pages: 1 -->
<svg width="301pt" height="117pt"
 viewBox="0.00 0.00 301.00 117.00" xmlns="http://www.w3.org/2000/svg" xmlns:xlink="http://www.w3.org/1999/xlink">
<g id="graph0" class="graph" transform="scale(1 1) rotate(0) translate(4 113)">
<title>st_imrdrv_attr_cache_mode_t</title>
<polygon fill="white" stroke="transparent" points="-4,4 -4,-113 297,-113 297,4 -4,4"/>
<!-- Node1 -->
<g id="node1" class="node">
<title>Node1</title>
<g id="a_node1"><a xlink:title=" ">
<polygon fill="#bfbfbf" stroke="black" points="84.5,-0.5 84.5,-30.5 203.5,-30.5 203.5,-0.5 84.5,-0.5"/>
<text text-anchor="start" x="92.5" y="-18.5" font-family="Helvetica,sans-Serif" font-size="10.00">st_imrdrv_attr_cache</text>
<text text-anchor="middle" x="144" y="-7.5" font-family="Helvetica,sans-Serif" font-size="10.00">_mode_t</text>
</a>
</g>
</g>
<!-- Node2 -->
<g id="node2" class="node">
<title>Node2</title>
<g id="a_node2"><a xlink:title=" ">
<polygon fill="white" stroke="#bfbfbf" points="0,-84 0,-103 136,-103 136,-84 0,-84"/>
<text text-anchor="middle" x="68" y="-91" font-family="Helvetica,sans-Serif" font-size="10.00">e_imrdrv_cache_mode_t</text>
</a>
</g>
</g>
<!-- Node2&#45;&gt;Node1 -->
<g id="edge1" class="edge">
<title>Node2&#45;&gt;Node1</title>
<path fill="none" stroke="#9a32cd" stroke-dasharray="5,2" d="M83.98,-76.52C97.59,-62.91 116.96,-43.54 129.98,-30.52"/>
<polygon fill="#9a32cd" stroke="#9a32cd" points="81.31,-74.24 76.72,-83.78 86.26,-79.19 81.31,-74.24"/>
<text text-anchor="middle" x="143.5" y="-52" font-family="Helvetica,sans-Serif" font-size="10.00"> cache_mode</text>
</g>
<!-- Node3 -->
<g id="node3" class="node">
<title>Node3</title>
<g id="a_node3"><a xlink:title=" ">
<polygon fill="white" stroke="#bfbfbf" points="154,-78.5 154,-108.5 286,-108.5 286,-78.5 154,-78.5"/>
<text text-anchor="start" x="162" y="-96.5" font-family="Helvetica,sans-Serif" font-size="10.00">e_imrdrv_double_cache</text>
<text text-anchor="middle" x="220" y="-85.5" font-family="Helvetica,sans-Serif" font-size="10.00">_mode_t</text>
</a>
</g>
</g>
<!-- Node3&#45;&gt;Node1 -->
<g id="edge2" class="edge">
<title>Node3&#45;&gt;Node1</title>
<path fill="none" stroke="#9a32cd" stroke-dasharray="5,2" d="M200.63,-70.64C194.2,-63.6 186.91,-55.85 180,-49 173.78,-42.84 166.67,-36.32 160.42,-30.75"/>
<polygon fill="#9a32cd" stroke="#9a32cd" points="198.41,-73.4 207.71,-78.48 203.6,-68.71 198.41,-73.4"/>
<text text-anchor="middle" x="241.5" y="-52" font-family="Helvetica,sans-Serif" font-size="10.00"> double_cache_mode</text>
</g>
</g>
</svg>
