<?xml version="1.0" encoding="UTF-8" standalone="no"?>
<!DOCTYPE svg PUBLIC "-//W3C//DTD SVG 1.1//EN"
 "http://www.w3.org/Graphics/SVG/1.1/DTD/svg11.dtd">
<!-- Generated by graphviz version 2.43.0 (0)
 -->
<!-- Title: st_imrdrv_attr_mipmap_param_t Pages: 1 -->
<svg width="405pt" height="284pt"
 viewBox="0.00 0.00 404.50 284.00" xmlns="http://www.w3.org/2000/svg" xmlns:xlink="http://www.w3.org/1999/xlink">
<g id="graph0" class="graph" transform="scale(1 1) rotate(0) translate(4 280)">
<title>st_imrdrv_attr_mipmap_param_t</title>
<polygon fill="white" stroke="transparent" points="-4,4 -4,-280 400.5,-280 400.5,4 -4,4"/>
<!-- Node1 -->
<g id="node1" class="node">
<title>Node1</title>
<g id="a_node1"><a xlink:title=" ">
<polygon fill="#bfbfbf" stroke="black" points="44.5,-0.5 44.5,-30.5 175.5,-30.5 175.5,-0.5 44.5,-0.5"/>
<text text-anchor="start" x="52.5" y="-18.5" font-family="Helvetica,sans-Serif" font-size="10.00">st_imrdrv_attr_mipmap</text>
<text text-anchor="middle" x="110" y="-7.5" font-family="Helvetica,sans-Serif" font-size="10.00">_param_t</text>
</a>
</g>
</g>
<!-- Node2 -->
<g id="node2" class="node">
<title>Node2</title>
<g id="a_node2"><a xlink:title=" ">
<polygon fill="white" stroke="#bfbfbf" points="0,-95 0,-114 152,-114 152,-95 0,-95"/>
<text text-anchor="middle" x="76" y="-102" font-family="Helvetica,sans-Serif" font-size="10.00">e_imrdrv_map_max_level_t</text>
</a>
</g>
</g>
<!-- Node2&#45;&gt;Node1 -->
<g id="edge1" class="edge">
<title>Node2&#45;&gt;Node1</title>
<path fill="none" stroke="#9a32cd" stroke-dasharray="5,2" d="M83.1,-85.35C89.47,-69.04 98.69,-45.45 104.51,-30.55"/>
<polygon fill="#9a32cd" stroke="#9a32cd" points="79.76,-84.25 79.38,-94.84 86.28,-86.8 79.76,-84.25"/>
<text text-anchor="middle" x="121" y="-63" font-family="Helvetica,sans-Serif" font-size="10.00"> maxlodu</text>
<text text-anchor="middle" x="121" y="-52" font-family="Helvetica,sans-Serif" font-size="10.00">maxlodv</text>
</g>
<!-- Node3 -->
<g id="node3" class="node">
<title>Node3</title>
<g id="a_node3"><a xlink:href="structst__imrdrv__attr__mipmap__unit__t.html" target="_top" xlink:title=" ">
<polygon fill="white" stroke="black" points="170.5,-89.5 170.5,-119.5 301.5,-119.5 301.5,-89.5 170.5,-89.5"/>
<text text-anchor="start" x="178.5" y="-107.5" font-family="Helvetica,sans-Serif" font-size="10.00">st_imrdrv_attr_mipmap</text>
<text text-anchor="middle" x="236" y="-96.5" font-family="Helvetica,sans-Serif" font-size="10.00">_unit_t</text>
</a>
</g>
</g>
<!-- Node3&#45;&gt;Node1 -->
<g id="edge2" class="edge">
<title>Node3&#45;&gt;Node1</title>
<path fill="none" stroke="#9a32cd" stroke-dasharray="5,2" d="M206.99,-83.47C183.6,-67.32 151.29,-45.01 130.52,-30.67"/>
<polygon fill="#9a32cd" stroke="#9a32cd" points="205.26,-86.53 215.48,-89.33 209.24,-80.77 205.26,-86.53"/>
<text text-anchor="middle" x="228.5" y="-57.5" font-family="Helvetica,sans-Serif" font-size="10.00"> mipmap_param</text>
</g>
<!-- Node4 -->
<g id="node4" class="node">
<title>Node4</title>
<g id="a_node4"><a xlink:href="structst__imrdrv__attr__mipmap__unit__ex__t.html" target="_top" xlink:title=" ">
<polygon fill="white" stroke="black" points="265.5,-167.5 265.5,-197.5 396.5,-197.5 396.5,-167.5 265.5,-167.5"/>
<text text-anchor="start" x="273.5" y="-185.5" font-family="Helvetica,sans-Serif" font-size="10.00">st_imrdrv_attr_mipmap</text>
<text text-anchor="middle" x="331" y="-174.5" font-family="Helvetica,sans-Serif" font-size="10.00">_unit_ex_t</text>
</a>
</g>
</g>
<!-- Node4&#45;&gt;Node3 -->
<g id="edge3" class="edge">
<title>Node4&#45;&gt;Node3</title>
<path fill="none" stroke="#9a32cd" stroke-dasharray="5,2" d="M305.07,-160.75C288.79,-147.73 268.23,-131.28 253.79,-119.73"/>
<polygon fill="#9a32cd" stroke="#9a32cd" points="303.14,-163.69 313.13,-167.2 307.51,-158.22 303.14,-163.69"/>
<text text-anchor="middle" x="318" y="-141" font-family="Helvetica,sans-Serif" font-size="10.00"> extend_set</text>
</g>
<!-- Node5 -->
<g id="node5" class="node">
<title>Node5</title>
<g id="a_node5"><a xlink:title=" ">
<polygon fill="white" stroke="#bfbfbf" points="181,-256.5 181,-275.5 237,-275.5 237,-256.5 181,-256.5"/>
<text text-anchor="middle" x="209" y="-263.5" font-family="Helvetica,sans-Serif" font-size="10.00">uint32_t</text>
</a>
</g>
</g>
<!-- Node5&#45;&gt;Node3 -->
<g id="edge5" class="edge">
<title>Node5&#45;&gt;Node3</title>
<path fill="none" stroke="#9a32cd" stroke-dasharray="5,2" d="M204.58,-246.55C200.55,-226.61 196.2,-194.07 203,-167 207.37,-149.61 217.72,-131.77 225.67,-119.82"/>
<polygon fill="#9a32cd" stroke="#9a32cd" points="201.19,-247.44 206.76,-256.45 208.02,-245.93 201.19,-247.44"/>
<text text-anchor="middle" x="230" y="-185.5" font-family="Helvetica,sans-Serif" font-size="10.00"> phys_addr</text>
<text text-anchor="middle" x="230" y="-174.5" font-family="Helvetica,sans-Serif" font-size="10.00">stride</text>
</g>
<!-- Node5&#45;&gt;Node4 -->
<g id="edge4" class="edge">
<title>Node5&#45;&gt;Node4</title>
<path fill="none" stroke="#9a32cd" stroke-dasharray="5,2" d="M230.53,-250.62C252.9,-235.67 287.69,-212.44 309.9,-197.6"/>
<polygon fill="#9a32cd" stroke="#9a32cd" points="228.43,-247.81 222.06,-256.28 232.32,-253.63 228.43,-247.81"/>
<text text-anchor="middle" x="307" y="-230" font-family="Helvetica,sans-Serif" font-size="10.00"> phys_addr</text>
<text text-anchor="middle" x="307" y="-219" font-family="Helvetica,sans-Serif" font-size="10.00">stride</text>
</g>
</g>
</svg>
