<?xml version="1.0" encoding="UTF-8" standalone="no"?>
<!DOCTYPE svg PUBLIC "-//W3C//DTD SVG 1.1//EN"
 "http://www.w3.org/Graphics/SVG/1.1/DTD/svg11.dtd">
<!-- Generated by graphviz version 2.43.0 (0)
 -->
<!-- Title: r_cio_CmdMsg_t Pages: 1 -->
<svg width="197pt" height="117pt"
 viewBox="0.00 0.00 197.00 117.00" xmlns="http://www.w3.org/2000/svg" xmlns:xlink="http://www.w3.org/1999/xlink">
<g id="graph0" class="graph" transform="scale(1 1) rotate(0) translate(4 113)">
<title>r_cio_CmdMsg_t</title>
<polygon fill="white" stroke="transparent" points="-4,4 -4,-113 193,-113 193,4 -4,4"/>
<!-- Node1 -->
<g id="node1" class="node">
<title>Node1</title>
<g id="a_node1"><a xlink:title="CIO command message.">
<polygon fill="#bfbfbf" stroke="black" points="22,-0.5 22,-19.5 119,-19.5 119,-0.5 22,-0.5"/>
<text text-anchor="middle" x="70.5" y="-7.5" font-family="Helvetica,sans-Serif" font-size="10.00">r_cio_CmdMsg_t</text>
</a>
</g>
</g>
<!-- Node2 -->
<g id="node2" class="node">
<title>Node2</title>
<g id="a_node2"><a xlink:title=" ">
<polygon fill="white" stroke="#bfbfbf" points="0,-89.5 0,-108.5 29,-108.5 29,-89.5 0,-89.5"/>
<text text-anchor="middle" x="14.5" y="-96.5" font-family="Helvetica,sans-Serif" font-size="10.00">int</text>
</a>
</g>
</g>
<!-- Node2&#45;&gt;Node1 -->
<g id="edge1" class="edge">
<title>Node2&#45;&gt;Node1</title>
<path fill="none" stroke="#9a32cd" stroke-dasharray="5,2" d="M25.61,-80.74C37.48,-62.3 55.82,-33.8 64.95,-19.62"/>
<polygon fill="#9a32cd" stroke="#9a32cd" points="22.54,-79.04 20.07,-89.34 28.43,-82.83 22.54,-79.04"/>
<text text-anchor="middle" x="59" y="-52" font-family="Helvetica,sans-Serif" font-size="10.00"> Id</text>
</g>
<!-- Node3 -->
<g id="node3" class="node">
<title>Node3</title>
<g id="a_node3"><a xlink:title=" ">
<polygon fill="white" stroke="#bfbfbf" points="47.5,-89.5 47.5,-108.5 93.5,-108.5 93.5,-89.5 47.5,-89.5"/>
<text text-anchor="middle" x="70.5" y="-96.5" font-family="Helvetica,sans-Serif" font-size="10.00">void *</text>
</a>
</g>
</g>
<!-- Node3&#45;&gt;Node1 -->
<g id="edge2" class="edge">
<title>Node3&#45;&gt;Node1</title>
<path fill="none" stroke="#9a32cd" stroke-dasharray="5,2" d="M70.5,-79.19C70.5,-60.74 70.5,-33.41 70.5,-19.62"/>
<polygon fill="#9a32cd" stroke="#9a32cd" points="67,-79.34 70.5,-89.34 74,-79.34 67,-79.34"/>
<text text-anchor="middle" x="83" y="-63" font-family="Helvetica,sans-Serif" font-size="10.00"> Par1</text>
<text text-anchor="middle" x="83" y="-52" font-family="Helvetica,sans-Serif" font-size="10.00">Par2</text>
<text text-anchor="middle" x="83" y="-41" font-family="Helvetica,sans-Serif" font-size="10.00">Par3</text>
</g>
<!-- Node4 -->
<g id="node4" class="node">
<title>Node4</title>
<g id="a_node4"><a xlink:title=" ">
<polygon fill="white" stroke="#bfbfbf" points="112,-89.5 112,-108.5 189,-108.5 189,-89.5 112,-89.5"/>
<text text-anchor="middle" x="150.5" y="-96.5" font-family="Helvetica,sans-Serif" font-size="10.00">r_cio_Cmd_t</text>
</a>
</g>
</g>
<!-- Node4&#45;&gt;Node1 -->
<g id="edge3" class="edge">
<title>Node4&#45;&gt;Node1</title>
<path fill="none" stroke="#9a32cd" stroke-dasharray="5,2" d="M137.07,-81.15C127.06,-68.87 112.88,-52 99.5,-38 93.42,-31.63 86.17,-24.88 80.44,-19.73"/>
<polygon fill="#9a32cd" stroke="#9a32cd" points="134.54,-83.59 143.54,-89.18 139.99,-79.2 134.54,-83.59"/>
<text text-anchor="middle" x="140.5" y="-52" font-family="Helvetica,sans-Serif" font-size="10.00"> Cmd</text>
</g>
</g>
</svg>
