<?xml version="1.0" encoding="UTF-8" standalone="no"?>
<!DOCTYPE svg PUBLIC "-//W3C//DTD SVG 1.1//EN"
 "http://www.w3.org/Graphics/SVG/1.1/DTD/svg11.dtd">
<!-- Generated by graphviz version 2.43.0 (0)
 -->
<!-- Title: st_imrdrv_attr_sync_unit_t Pages: 1 -->
<svg width="284pt" height="106pt"
 viewBox="0.00 0.00 284.00 106.00" xmlns="http://www.w3.org/2000/svg" xmlns:xlink="http://www.w3.org/1999/xlink">
<g id="graph0" class="graph" transform="scale(1 1) rotate(0) translate(4 102)">
<title>st_imrdrv_attr_sync_unit_t</title>
<polygon fill="white" stroke="transparent" points="-4,4 -4,-102 280,-102 280,4 -4,4"/>
<!-- Node1 -->
<g id="node1" class="node">
<title>Node1</title>
<g id="a_node1"><a xlink:title=" ">
<polygon fill="#bfbfbf" stroke="black" points="86,-0.5 86,-30.5 199,-30.5 199,-0.5 86,-0.5"/>
<text text-anchor="start" x="94" y="-18.5" font-family="Helvetica,sans-Serif" font-size="10.00">st_imrdrv_attr_sync</text>
<text text-anchor="middle" x="142.5" y="-7.5" font-family="Helvetica,sans-Serif" font-size="10.00">_unit_t</text>
</a>
</g>
</g>
<!-- Node2 -->
<g id="node2" class="node">
<title>Node2</title>
<g id="a_node2"><a xlink:title=" ">
<polygon fill="white" stroke="#bfbfbf" points="0,-78.5 0,-97.5 139,-97.5 139,-78.5 0,-78.5"/>
<text text-anchor="middle" x="69.5" y="-85.5" font-family="Helvetica,sans-Serif" font-size="10.00">e_imrdrv_sync_module_t</text>
</a>
</g>
</g>
<!-- Node2&#45;&gt;Node1 -->
<g id="edge1" class="edge">
<title>Node2&#45;&gt;Node1</title>
<path fill="none" stroke="#9a32cd" stroke-dasharray="5,2" d="M85.97,-71.09C98.58,-58.91 115.81,-42.27 127.92,-30.58"/>
<polygon fill="#9a32cd" stroke="#9a32cd" points="83.21,-68.89 78.45,-78.36 88.08,-73.93 83.21,-68.89"/>
<text text-anchor="middle" x="142.5" y="-52" font-family="Helvetica,sans-Serif" font-size="10.00"> sync_module</text>
</g>
<!-- Node3 -->
<g id="node3" class="node">
<title>Node3</title>
<g id="a_node3"><a xlink:title=" ">
<polygon fill="white" stroke="#bfbfbf" points="157,-78.5 157,-97.5 276,-97.5 276,-78.5 157,-78.5"/>
<text text-anchor="middle" x="216.5" y="-85.5" font-family="Helvetica,sans-Serif" font-size="10.00">e_imrdrv_syncc_no_t</text>
</a>
</g>
</g>
<!-- Node3&#45;&gt;Node1 -->
<g id="edge2" class="edge">
<title>Node3&#45;&gt;Node1</title>
<path fill="none" stroke="#9a32cd" stroke-dasharray="5,2" d="M201.92,-70.87C195.51,-63.97 187.79,-55.93 180.5,-49 173.96,-42.78 166.46,-36.25 159.86,-30.69"/>
<polygon fill="#9a32cd" stroke="#9a32cd" points="199.4,-73.3 208.74,-78.3 204.56,-68.57 199.4,-73.3"/>
<text text-anchor="middle" x="215" y="-52" font-family="Helvetica,sans-Serif" font-size="10.00"> syncc_no</text>
</g>
</g>
</svg>
