<?xml version="1.0" encoding="UTF-8" standalone="no"?>
<!DOCTYPE svg PUBLIC "-//W3C//DTD SVG 1.1//EN"
 "http://www.w3.org/Graphics/SVG/1.1/DTD/svg11.dtd">
<!-- Generated by graphviz version 2.43.0 (0)
 -->
<!-- Title: r_cio_ether_get_ingress_time_stamp Pages: 1 -->
<svg width="456pt" height="184pt"
 viewBox="0.00 0.00 455.50 184.00" xmlns="http://www.w3.org/2000/svg" xmlns:xlink="http://www.w3.org/1999/xlink">
<g id="graph0" class="graph" transform="scale(1 1) rotate(0) translate(4 180)">
<title>r_cio_ether_get_ingress_time_stamp</title>
<polygon fill="white" stroke="transparent" points="-4,4 -4,-180 451.5,-180 451.5,4 -4,4"/>
<!-- Node1 -->
<g id="node1" class="node">
<title>Node1</title>
<g id="a_node1"><a xlink:title=" ">
<polygon fill="#bfbfbf" stroke="black" points="204.5,-0.5 204.5,-30.5 336.5,-30.5 336.5,-0.5 204.5,-0.5"/>
<text text-anchor="start" x="212.5" y="-18.5" font-family="Helvetica,sans-Serif" font-size="10.00">r_cio_ether_get_ingress</text>
<text text-anchor="middle" x="270.5" y="-7.5" font-family="Helvetica,sans-Serif" font-size="10.00">_time_stamp</text>
</a>
</g>
</g>
<!-- Node2 -->
<g id="node2" class="node">
<title>Node2</title>
<g id="a_node2"><a xlink:title=" ">
<polygon fill="white" stroke="#bfbfbf" points="0,-78.5 0,-97.5 147,-97.5 147,-78.5 0,-78.5"/>
<text text-anchor="middle" x="73.5" y="-85.5" font-family="Helvetica,sans-Serif" font-size="10.00">Eth_TimeStampQualType *</text>
</a>
</g>
</g>
<!-- Node2&#45;&gt;Node1 -->
<g id="edge1" class="edge">
<title>Node2&#45;&gt;Node1</title>
<path fill="none" stroke="#9a32cd" stroke-dasharray="5,2" d="M99.03,-73.89C114.99,-66.02 136.13,-56.18 155.5,-49 174.27,-42.05 195.24,-35.72 214.07,-30.53"/>
<polygon fill="#9a32cd" stroke="#9a32cd" points="97.2,-70.9 89.82,-78.5 100.33,-77.16 97.2,-70.9"/>
<text text-anchor="middle" x="186.5" y="-52" font-family="Helvetica,sans-Serif" font-size="10.00"> timeQualPtr</text>
</g>
<!-- Node3 -->
<g id="node3" class="node">
<title>Node3</title>
<g id="a_node3"><a xlink:href="structEth__TimeStampType.html" target="_top" xlink:title=" ">
<polygon fill="white" stroke="black" points="165.5,-78.5 165.5,-97.5 281.5,-97.5 281.5,-78.5 165.5,-78.5"/>
<text text-anchor="middle" x="223.5" y="-85.5" font-family="Helvetica,sans-Serif" font-size="10.00">Eth_TimeStampType</text>
</a>
</g>
</g>
<!-- Node3&#45;&gt;Node1 -->
<g id="edge2" class="edge">
<title>Node3&#45;&gt;Node1</title>
<path fill="none" stroke="#9a32cd" stroke-dasharray="5,2" d="M221.31,-67.84C221.39,-61.52 222.42,-54.66 225.5,-49 229.47,-41.72 235.85,-35.67 242.57,-30.83"/>
<polygon fill="#9a32cd" stroke="#9a32cd" points="217.84,-68.5 221.92,-78.28 224.83,-68.09 217.84,-68.5"/>
<text text-anchor="middle" x="261" y="-52" font-family="Helvetica,sans-Serif" font-size="10.00"> timeStampPtr</text>
</g>
<!-- Node4 -->
<g id="node4" class="node">
<title>Node4</title>
<g id="a_node4"><a xlink:title=" ">
<polygon fill="white" stroke="#bfbfbf" points="128,-156.5 128,-175.5 213,-175.5 213,-156.5 128,-156.5"/>
<text text-anchor="middle" x="170.5" y="-163.5" font-family="Helvetica,sans-Serif" font-size="10.00">unsigned long</text>
</a>
</g>
</g>
<!-- Node4&#45;&gt;Node3 -->
<g id="edge3" class="edge">
<title>Node4&#45;&gt;Node3</title>
<path fill="none" stroke="#9a32cd" stroke-dasharray="5,2" d="M166.57,-146.38C165.52,-136.65 165.95,-124.93 171.5,-116 176.71,-107.62 185.44,-101.71 194.27,-97.61"/>
<polygon fill="#9a32cd" stroke="#9a32cd" points="163.12,-146.98 168.18,-156.29 170.03,-145.85 163.12,-146.98"/>
<text text-anchor="middle" x="205" y="-130" font-family="Helvetica,sans-Serif" font-size="10.00"> nanoseconds</text>
<text text-anchor="middle" x="205" y="-119" font-family="Helvetica,sans-Serif" font-size="10.00">seconds</text>
</g>
<!-- Node5 -->
<g id="node5" class="node">
<title>Node5</title>
<g id="a_node5"><a xlink:title=" ">
<polygon fill="white" stroke="#bfbfbf" points="231,-156.5 231,-175.5 320,-175.5 320,-156.5 231,-156.5"/>
<text text-anchor="middle" x="275.5" y="-163.5" font-family="Helvetica,sans-Serif" font-size="10.00">unsigned short</text>
</a>
</g>
</g>
<!-- Node5&#45;&gt;Node3 -->
<g id="edge4" class="edge">
<title>Node5&#45;&gt;Node3</title>
<path fill="none" stroke="#9a32cd" stroke-dasharray="5,2" d="M263.87,-148.01C253.17,-132.37 237.74,-109.81 229.4,-97.62"/>
<polygon fill="#9a32cd" stroke="#9a32cd" points="261,-150.01 269.53,-156.28 266.78,-146.05 261,-150.01"/>
<text text-anchor="middle" x="282.5" y="-124.5" font-family="Helvetica,sans-Serif" font-size="10.00"> secondsHi</text>
</g>
<!-- Node6 -->
<g id="node6" class="node">
<title>Node6</title>
<g id="a_node6"><a xlink:title=" ">
<polygon fill="white" stroke="#bfbfbf" points="299.5,-78.5 299.5,-97.5 337.5,-97.5 337.5,-78.5 299.5,-78.5"/>
<text text-anchor="middle" x="318.5" y="-85.5" font-family="Helvetica,sans-Serif" font-size="10.00">char</text>
</a>
</g>
</g>
<!-- Node6&#45;&gt;Node1 -->
<g id="edge5" class="edge">
<title>Node6&#45;&gt;Node1</title>
<path fill="none" stroke="#9a32cd" stroke-dasharray="5,2" d="M309.12,-69.54C305.4,-62.97 300.95,-55.51 296.5,-49 292.26,-42.8 287.17,-36.27 282.63,-30.71"/>
<polygon fill="#9a32cd" stroke="#9a32cd" points="306.07,-71.26 313.96,-78.32 312.2,-67.88 306.07,-71.26"/>
<text text-anchor="middle" x="320.5" y="-52" font-family="Helvetica,sans-Serif" font-size="10.00"> CtrlIdx</text>
</g>
<!-- Node7 -->
<g id="node7" class="node">
<title>Node7</title>
<g id="a_node7"><a xlink:title=" ">
<polygon fill="white" stroke="#bfbfbf" points="355.5,-78.5 355.5,-97.5 447.5,-97.5 447.5,-78.5 355.5,-78.5"/>
<text text-anchor="middle" x="401.5" y="-85.5" font-family="Helvetica,sans-Serif" font-size="10.00">Eth_DataType *</text>
</a>
</g>
</g>
<!-- Node7&#45;&gt;Node1 -->
<g id="edge6" class="edge">
<title>Node7&#45;&gt;Node1</title>
<path fill="none" stroke="#9a32cd" stroke-dasharray="5,2" d="M380.63,-72.48C369.54,-65.05 355.54,-56.09 342.5,-49 330.33,-42.38 316.56,-35.93 304.34,-30.54"/>
<polygon fill="#9a32cd" stroke="#9a32cd" points="378.93,-75.56 389.17,-78.29 382.87,-69.77 378.93,-75.56"/>
<text text-anchor="middle" x="380.5" y="-52" font-family="Helvetica,sans-Serif" font-size="10.00"> DataPtr</text>
</g>
</g>
</svg>
