<?xml version="1.0" encoding="UTF-8" standalone="no"?>
<!DOCTYPE svg PUBLIC "-//W3C//DTD SVG 1.1//EN"
 "http://www.w3.org/Graphics/SVG/1.1/DTD/svg11.dtd">
<!-- Generated by graphviz version 2.43.0 (0)
 -->
<!-- Title: STag_Eth_RcrBitsType Pages: 1 -->
<svg width="130pt" height="172pt"
 viewBox="0.00 0.00 130.00 172.00" xmlns="http://www.w3.org/2000/svg" xmlns:xlink="http://www.w3.org/1999/xlink">
<g id="graph0" class="graph" transform="scale(1 1) rotate(0) translate(4 168)">
<title>STag_Eth_RcrBitsType</title>
<polygon fill="white" stroke="transparent" points="-4,4 -4,-168 126,-168 126,4 -4,4"/>
<!-- Node1 -->
<g id="node1" class="node">
<title>Node1</title>
<g id="a_node1"><a xlink:title=" ">
<polygon fill="#bfbfbf" stroke="black" points="0,-0.5 0,-19.5 122,-19.5 122,-0.5 0,-0.5"/>
<text text-anchor="middle" x="61" y="-7.5" font-family="Helvetica,sans-Serif" font-size="10.00">STag_Eth_RcrBitsType</text>
</a>
</g>
</g>
<!-- Node2 -->
<g id="node2" class="node">
<title>Node2</title>
<g id="a_node2"><a xlink:title=" ">
<polygon fill="white" stroke="#bfbfbf" points="18.5,-144.5 18.5,-163.5 103.5,-163.5 103.5,-144.5 18.5,-144.5"/>
<text text-anchor="middle" x="61" y="-151.5" font-family="Helvetica,sans-Serif" font-size="10.00">unsigned long</text>
</a>
</g>
</g>
<!-- Node2&#45;&gt;Node1 -->
<g id="edge1" class="edge">
<title>Node2&#45;&gt;Node1</title>
<path fill="none" stroke="#9a32cd" stroke-dasharray="5,2" d="M61,-134.11C61,-102.93 61,-41.93 61,-19.52"/>
<polygon fill="#9a32cd" stroke="#9a32cd" points="57.5,-134.12 61,-144.12 64.5,-134.12 57.5,-134.12"/>
<text text-anchor="middle" x="73.5" y="-118" font-family="Helvetica,sans-Serif" font-size="10.00"> Effs</text>
<text text-anchor="middle" x="73.5" y="-107" font-family="Helvetica,sans-Serif" font-size="10.00">Encf</text>
<text text-anchor="middle" x="73.5" y="-96" font-family="Helvetica,sans-Serif" font-size="10.00">Esf</text>
<text text-anchor="middle" x="73.5" y="-85" font-family="Helvetica,sans-Serif" font-size="10.00">Ets0</text>
<text text-anchor="middle" x="73.5" y="-74" font-family="Helvetica,sans-Serif" font-size="10.00">Ets2</text>
<text text-anchor="middle" x="73.5" y="-63" font-family="Helvetica,sans-Serif" font-size="10.00">Res1</text>
<text text-anchor="middle" x="73.5" y="-52" font-family="Helvetica,sans-Serif" font-size="10.00">Res2</text>
<text text-anchor="middle" x="73.5" y="-41" font-family="Helvetica,sans-Serif" font-size="10.00">Rfcl</text>
</g>
</g>
</svg>
