<?xml version="1.0" encoding="UTF-8" standalone="no"?>
<!DOCTYPE svg PUBLIC "-//W3C//DTD SVG 1.1//EN"
 "http://www.w3.org/Graphics/SVG/1.1/DTD/svg11.dtd">
<!-- Generated by graphviz version 2.43.0 (0)
 -->
<!-- Title: STag_Eth_TxSingleFrameType Pages: 1 -->
<svg width="426pt" height="106pt"
 viewBox="0.00 0.00 426.00 106.00" xmlns="http://www.w3.org/2000/svg" xmlns:xlink="http://www.w3.org/1999/xlink">
<g id="graph0" class="graph" transform="scale(1 1) rotate(0) translate(4 102)">
<title>STag_Eth_TxSingleFrameType</title>
<polygon fill="white" stroke="transparent" points="-4,4 -4,-102 422,-102 422,4 -4,4"/>
<!-- Node1 -->
<g id="node1" class="node">
<title>Node1</title>
<g id="a_node1"><a xlink:title=" ">
<polygon fill="#bfbfbf" stroke="black" points="83,-0.5 83,-19.5 244,-19.5 244,-0.5 83,-0.5"/>
<text text-anchor="middle" x="163.5" y="-7.5" font-family="Helvetica,sans-Serif" font-size="10.00">STag_Eth_TxSingleFrameType</text>
</a>
</g>
</g>
<!-- Node2 -->
<g id="node2" class="node">
<title>Node2</title>
<g id="a_node2"><a xlink:title=" ">
<polygon fill="white" stroke="#bfbfbf" points="0,-78.5 0,-97.5 85,-97.5 85,-78.5 0,-78.5"/>
<text text-anchor="middle" x="42.5" y="-85.5" font-family="Helvetica,sans-Serif" font-size="10.00">unsigned long</text>
</a>
</g>
</g>
<!-- Node2&#45;&gt;Node1 -->
<g id="edge1" class="edge">
<title>Node2&#45;&gt;Node1</title>
<path fill="none" stroke="#9a32cd" stroke-dasharray="5,2" d="M49.62,-68.93C54.58,-58.51 62.18,-45.93 72.5,-38 83.61,-29.47 97.37,-23.63 110.8,-19.63"/>
<polygon fill="#9a32cd" stroke="#9a32cd" points="46.28,-67.82 45.53,-78.39 52.71,-70.6 46.28,-67.82"/>
<text text-anchor="middle" x="94" y="-46.5" font-family="Helvetica,sans-Serif" font-size="10.00"> Address</text>
</g>
<!-- Node3 -->
<g id="node3" class="node">
<title>Node3</title>
<g id="a_node3"><a xlink:title=" ">
<polygon fill="white" stroke="#bfbfbf" points="103.5,-78.5 103.5,-97.5 141.5,-97.5 141.5,-78.5 103.5,-78.5"/>
<text text-anchor="middle" x="122.5" y="-85.5" font-family="Helvetica,sans-Serif" font-size="10.00">char</text>
</a>
</g>
</g>
<!-- Node3&#45;&gt;Node1 -->
<g id="edge2" class="edge">
<title>Node3&#45;&gt;Node1</title>
<path fill="none" stroke="#9a32cd" stroke-dasharray="5,2" d="M118.96,-68.32C118.07,-58.71 118.53,-47.13 123.5,-38 127.83,-30.05 135.62,-24.01 143.19,-19.67"/>
<polygon fill="#9a32cd" stroke="#9a32cd" points="115.52,-69.03 120.42,-78.43 122.45,-68.03 115.52,-69.03"/>
<text text-anchor="middle" x="153" y="-46.5" font-family="Helvetica,sans-Serif" font-size="10.00"> Timestamp</text>
</g>
<!-- Node4 -->
<g id="node4" class="node">
<title>Node4</title>
<g id="a_node4"><a xlink:title=" ">
<polygon fill="white" stroke="#bfbfbf" points="160,-78.5 160,-97.5 249,-97.5 249,-78.5 160,-78.5"/>
<text text-anchor="middle" x="204.5" y="-85.5" font-family="Helvetica,sans-Serif" font-size="10.00">unsigned short</text>
</a>
</g>
</g>
<!-- Node4&#45;&gt;Node1 -->
<g id="edge3" class="edge">
<title>Node4&#45;&gt;Node1</title>
<path fill="none" stroke="#9a32cd" stroke-dasharray="5,2" d="M197.36,-68.92C193.39,-59.49 188.13,-47.89 182.5,-38 178.87,-31.62 174.12,-24.87 170.28,-19.72"/>
<polygon fill="#9a32cd" stroke="#9a32cd" points="194.22,-70.5 201.24,-78.44 200.71,-67.86 194.22,-70.5"/>
<text text-anchor="middle" x="211" y="-52" font-family="Helvetica,sans-Serif" font-size="10.00"> Length</text>
<text text-anchor="middle" x="211" y="-41" font-family="Helvetica,sans-Serif" font-size="10.00">Tag</text>
</g>
<!-- Node5 -->
<g id="node5" class="node">
<title>Node5</title>
<g id="a_node5"><a xlink:title=" ">
<polygon fill="white" stroke="#bfbfbf" points="267,-78.5 267,-97.5 418,-97.5 418,-78.5 267,-78.5"/>
<text text-anchor="middle" x="342.5" y="-85.5" font-family="Helvetica,sans-Serif" font-size="10.00">enum ETag_Eth_OptionType</text>
</a>
</g>
</g>
<!-- Node5&#45;&gt;Node1 -->
<g id="edge4" class="edge">
<title>Node5&#45;&gt;Node1</title>
<path fill="none" stroke="#9a32cd" stroke-dasharray="5,2" d="M314.76,-74.03C292.84,-63.9 261.4,-49.64 233.5,-38 217.99,-31.53 200.34,-24.72 186.64,-19.56"/>
<polygon fill="#9a32cd" stroke="#9a32cd" points="313.57,-77.34 324.12,-78.37 316.52,-70.99 313.57,-77.34"/>
<text text-anchor="middle" x="309" y="-46.5" font-family="Helvetica,sans-Serif" font-size="10.00"> MacStatus</text>
</g>
</g>
</svg>
