<?xml version="1.0" encoding="UTF-8" standalone="no"?>
<!DOCTYPE svg PUBLIC "-//W3C//DTD SVG 1.1//EN"
 "http://www.w3.org/Graphics/SVG/1.1/DTD/svg11.dtd">
<!-- Generated by graphviz version 2.43.0 (0)
 -->
<!-- Title: taurus_camera_ioc_channel_feed_buffer_in Pages: 1 -->
<svg width="282pt" height="186pt"
 viewBox="0.00 0.00 281.50 186.00" xmlns="http://www.w3.org/2000/svg" xmlns:xlink="http://www.w3.org/1999/xlink">
<g id="graph0" class="graph" transform="scale(1 1) rotate(0) translate(4 182)">
<title>taurus_camera_ioc_channel_feed_buffer_in</title>
<polygon fill="white" stroke="transparent" points="-4,4 -4,-182 277.5,-182 277.5,4 -4,4"/>
<!-- Node1 -->
<g id="node1" class="node">
<title>Node1</title>
<g id="a_node1"><a xlink:title=" ">
<polygon fill="#bfbfbf" stroke="black" points="16,-0.5 16,-30.5 168,-30.5 168,-0.5 16,-0.5"/>
<text text-anchor="start" x="24" y="-18.5" font-family="Helvetica,sans-Serif" font-size="10.00">taurus_camera_ioc_channel</text>
<text text-anchor="middle" x="92" y="-7.5" font-family="Helvetica,sans-Serif" font-size="10.00">_feed_buffer_in</text>
</a>
</g>
</g>
<!-- Node2 -->
<g id="node2" class="node">
<title>Node2</title>
<g id="a_node2"><a xlink:title=" ">
<polygon fill="white" stroke="#bfbfbf" points="0,-79.5 0,-98.5 56,-98.5 56,-79.5 0,-79.5"/>
<text text-anchor="middle" x="28" y="-86.5" font-family="Helvetica,sans-Serif" font-size="10.00">uint64_t</text>
</a>
</g>
</g>
<!-- Node2&#45;&gt;Node1 -->
<g id="edge1" class="edge">
<title>Node2&#45;&gt;Node1</title>
<path fill="none" stroke="#9a32cd" stroke-dasharray="5,2" d="M31.97,-69.48C34.11,-62.55 37.31,-54.92 42,-49 47.78,-41.69 55.68,-35.51 63.49,-30.56"/>
<polygon fill="#9a32cd" stroke="#9a32cd" points="28.51,-68.91 29.42,-79.47 35.29,-70.65 28.51,-68.91"/>
<text text-anchor="middle" x="60" y="-52" font-family="Helvetica,sans-Serif" font-size="10.00"> cookie</text>
</g>
<!-- Node3 -->
<g id="node3" class="node">
<title>Node3</title>
<g id="a_node3"><a xlink:href="structtaurus__camera__buffer.html" target="_top" xlink:title=" ">
<polygon fill="white" stroke="black" points="150.5,-79.5 150.5,-98.5 273.5,-98.5 273.5,-79.5 150.5,-79.5"/>
<text text-anchor="middle" x="212" y="-86.5" font-family="Helvetica,sans-Serif" font-size="10.00">taurus_camera_buffer</text>
</a>
</g>
</g>
<!-- Node3&#45;&gt;Node1 -->
<g id="edge2" class="edge">
<title>Node3&#45;&gt;Node1</title>
<path fill="none" stroke="#9a32cd" stroke-dasharray="5,2" d="M188.63,-74.07C167.53,-61.5 136.65,-43.1 115.51,-30.51"/>
<polygon fill="#9a32cd" stroke="#9a32cd" points="186.9,-77.12 197.29,-79.23 190.49,-71.11 186.9,-77.12"/>
<text text-anchor="middle" x="178" y="-52" font-family="Helvetica,sans-Serif" font-size="10.00"> buffer</text>
</g>
<!-- Node4 -->
<g id="node4" class="node">
<title>Node4</title>
<g id="a_node4"><a xlink:title=" ">
<polygon fill="white" stroke="#bfbfbf" points="80,-158.5 80,-177.5 136,-177.5 136,-158.5 80,-158.5"/>
<text text-anchor="middle" x="108" y="-165.5" font-family="Helvetica,sans-Serif" font-size="10.00">uint32_t</text>
</a>
</g>
</g>
<!-- Node4&#45;&gt;Node1 -->
<g id="edge4" class="edge">
<title>Node4&#45;&gt;Node1</title>
<path fill="none" stroke="#9a32cd" stroke-dasharray="5,2" d="M106.02,-148.37C102.78,-117.93 96.43,-58.17 93.52,-30.8"/>
<polygon fill="#9a32cd" stroke="#9a32cd" points="102.56,-148.9 107.09,-158.48 109.52,-148.16 102.56,-148.9"/>
<text text-anchor="middle" x="121" y="-92" font-family="Helvetica,sans-Serif" font-size="10.00"> buf_cnt</text>
<text text-anchor="middle" x="121" y="-81" font-family="Helvetica,sans-Serif" font-size="10.00">channel</text>
</g>
<!-- Node4&#45;&gt;Node3 -->
<g id="edge3" class="edge">
<title>Node4&#45;&gt;Node3</title>
<path fill="none" stroke="#9a32cd" stroke-dasharray="5,2" d="M127.63,-152.46C149.11,-136.56 182.82,-111.6 200.42,-98.57"/>
<polygon fill="#9a32cd" stroke="#9a32cd" points="125.48,-149.7 119.53,-158.47 129.65,-155.33 125.48,-149.7"/>
<text text-anchor="middle" x="193" y="-132" font-family="Helvetica,sans-Serif" font-size="10.00"> address</text>
<text text-anchor="middle" x="193" y="-121" font-family="Helvetica,sans-Serif" font-size="10.00">index</text>
</g>
</g>
</svg>
