<?xml version="1.0" encoding="UTF-8" standalone="no"?>
<!DOCTYPE svg PUBLIC "-//W3C//DTD SVG 1.1//EN"
 "http://www.w3.org/Graphics/SVG/1.1/DTD/svg11.dtd">
<!-- Generated by graphviz version 2.43.0 (0)
 -->
<!-- Title: STag_Eth_RxQueueType Pages: 1 -->
<svg width="236pt" height="106pt"
 viewBox="0.00 0.00 235.50 106.00" xmlns="http://www.w3.org/2000/svg" xmlns:xlink="http://www.w3.org/1999/xlink">
<g id="graph0" class="graph" transform="scale(1 1) rotate(0) translate(4 102)">
<title>STag_Eth_RxQueueType</title>
<polygon fill="white" stroke="transparent" points="-4,4 -4,-102 231.5,-102 231.5,4 -4,4"/>
<!-- Node1 -->
<g id="node1" class="node">
<title>Node1</title>
<g id="a_node1"><a xlink:title=" ">
<polygon fill="#bfbfbf" stroke="black" points="14,-0.5 14,-19.5 146,-19.5 146,-0.5 14,-0.5"/>
<text text-anchor="middle" x="80" y="-7.5" font-family="Helvetica,sans-Serif" font-size="10.00">STag_Eth_RxQueueType</text>
</a>
</g>
</g>
<!-- Node2 -->
<g id="node2" class="node">
<title>Node2</title>
<g id="a_node2"><a xlink:title=" ">
<polygon fill="white" stroke="#bfbfbf" points="0,-78.5 0,-97.5 38,-97.5 38,-78.5 0,-78.5"/>
<text text-anchor="middle" x="19" y="-85.5" font-family="Helvetica,sans-Serif" font-size="10.00">char</text>
</a>
</g>
</g>
<!-- Node2&#45;&gt;Node1 -->
<g id="edge1" class="edge">
<title>Node2&#45;&gt;Node1</title>
<path fill="none" stroke="#9a32cd" stroke-dasharray="5,2" d="M20.49,-68.12C22.09,-58.3 25.34,-46.6 32,-38 38.2,-29.99 47.5,-23.98 56.26,-19.69"/>
<polygon fill="#9a32cd" stroke="#9a32cd" points="17.01,-67.79 19.31,-78.13 23.96,-68.61 17.01,-67.79"/>
<text text-anchor="middle" x="76" y="-52" font-family="Helvetica,sans-Serif" font-size="10.00"> EthPatternAddres</text>
<text text-anchor="middle" x="76" y="-41" font-family="Helvetica,sans-Serif" font-size="10.00">id</text>
</g>
<!-- Node3 -->
<g id="node3" class="node">
<title>Node3</title>
<g id="a_node3"><a xlink:title=" ">
<polygon fill="white" stroke="#bfbfbf" points="56.5,-78.5 56.5,-97.5 227.5,-97.5 227.5,-78.5 56.5,-78.5"/>
<text text-anchor="middle" x="142" y="-85.5" font-family="Helvetica,sans-Serif" font-size="10.00">enum ETag_Eth_ProcessingType</text>
</a>
</g>
</g>
<!-- Node3&#45;&gt;Node1 -->
<g id="edge2" class="edge">
<title>Node3&#45;&gt;Node1</title>
<path fill="none" stroke="#9a32cd" stroke-dasharray="5,2" d="M136.5,-68.61C132.91,-58.78 127.5,-46.91 120,-38 113.74,-30.56 104.94,-24.32 97.19,-19.72"/>
<polygon fill="#9a32cd" stroke="#9a32cd" points="133.21,-69.84 139.68,-78.23 139.86,-67.64 133.21,-69.84"/>
<text text-anchor="middle" x="176" y="-46.5" font-family="Helvetica,sans-Serif" font-size="10.00"> QueueProcessing</text>
</g>
</g>
</svg>
