<?xml version="1.0" encoding="UTF-8" standalone="no"?>
<!DOCTYPE svg PUBLIC "-//W3C//DTD SVG 1.1//EN"
 "http://www.w3.org/Graphics/SVG/1.1/DTD/svg11.dtd">
<!-- Generated by graphviz version 2.43.0 (0)
 -->
<!-- Title: STag_Eth_EcsiprBitsType Pages: 1 -->
<svg width="144pt" height="150pt"
 viewBox="0.00 0.00 144.00 150.00" xmlns="http://www.w3.org/2000/svg" xmlns:xlink="http://www.w3.org/1999/xlink">
<g id="graph0" class="graph" transform="scale(1 1) rotate(0) translate(4 146)">
<title>STag_Eth_EcsiprBitsType</title>
<polygon fill="white" stroke="transparent" points="-4,4 -4,-146 140,-146 140,4 -4,4"/>
<!-- Node1 -->
<g id="node1" class="node">
<title>Node1</title>
<g id="a_node1"><a xlink:title=" ">
<polygon fill="#bfbfbf" stroke="black" points="0,-0.5 0,-19.5 136,-19.5 136,-0.5 0,-0.5"/>
<text text-anchor="middle" x="68" y="-7.5" font-family="Helvetica,sans-Serif" font-size="10.00">STag_Eth_EcsiprBitsType</text>
</a>
</g>
</g>
<!-- Node2 -->
<g id="node2" class="node">
<title>Node2</title>
<g id="a_node2"><a xlink:title=" ">
<polygon fill="white" stroke="#bfbfbf" points="25.5,-122.5 25.5,-141.5 110.5,-141.5 110.5,-122.5 25.5,-122.5"/>
<text text-anchor="middle" x="68" y="-129.5" font-family="Helvetica,sans-Serif" font-size="10.00">unsigned long</text>
</a>
</g>
</g>
<!-- Node2&#45;&gt;Node1 -->
<g id="edge1" class="edge">
<title>Node2&#45;&gt;Node1</title>
<path fill="none" stroke="#9a32cd" stroke-dasharray="5,2" d="M68,-112.15C68,-85.72 68,-38.76 68,-19.55"/>
<polygon fill="#9a32cd" stroke="#9a32cd" points="64.5,-112.37 68,-122.37 71.5,-112.37 64.5,-112.37"/>
<text text-anchor="middle" x="85" y="-96" font-family="Helvetica,sans-Serif" font-size="10.00"> Icdip</text>
<text text-anchor="middle" x="85" y="-85" font-family="Helvetica,sans-Serif" font-size="10.00">Linkim</text>
<text text-anchor="middle" x="85" y="-74" font-family="Helvetica,sans-Serif" font-size="10.00">Mpdip</text>
<text text-anchor="middle" x="85" y="-63" font-family="Helvetica,sans-Serif" font-size="10.00">Pfrim</text>
<text text-anchor="middle" x="85" y="-52" font-family="Helvetica,sans-Serif" font-size="10.00">Phyim</text>
<text text-anchor="middle" x="85" y="-41" font-family="Helvetica,sans-Serif" font-size="10.00">Res1</text>
</g>
</g>
</svg>
