<?xml version="1.0" encoding="UTF-8" standalone="no"?>
<!DOCTYPE svg PUBLIC "-//W3C//DTD SVG 1.1//EN"
 "http://www.w3.org/Graphics/SVG/1.1/DTD/svg11.dtd">
<!-- Generated by graphviz version 2.43.0 (0)
 -->
<!-- Title: st_osal_version Pages: 1 -->
<svg width="123pt" height="195pt"
 viewBox="0.00 0.00 123.00 195.00" xmlns="http://www.w3.org/2000/svg" xmlns:xlink="http://www.w3.org/1999/xlink">
<g id="graph0" class="graph" transform="scale(1 1) rotate(0) translate(4 191)">
<title>st_osal_version</title>
<polygon fill="white" stroke="transparent" points="-4,4 -4,-191 119,-191 119,4 -4,4"/>
<!-- Node1 -->
<g id="node1" class="node">
<title>Node1</title>
<g id="a_node1"><a xlink:title="version structure.">
<polygon fill="#bfbfbf" stroke="black" points="11.5,-0.5 11.5,-19.5 103.5,-19.5 103.5,-0.5 11.5,-0.5"/>
<text text-anchor="middle" x="57.5" y="-7.5" font-family="Helvetica,sans-Serif" font-size="10.00">st_osal_version</text>
</a>
</g>
</g>
<!-- Node2 -->
<g id="node2" class="node">
<title>Node2</title>
<g id="a_node2"><a xlink:href="structst__osal__sub__version.html" target="_top" xlink:title="sub&#45;version structure.">
<polygon fill="white" stroke="black" points="0,-78.5 0,-97.5 115,-97.5 115,-78.5 0,-78.5"/>
<text text-anchor="middle" x="57.5" y="-85.5" font-family="Helvetica,sans-Serif" font-size="10.00">st_osal_sub_version</text>
</a>
</g>
</g>
<!-- Node2&#45;&gt;Node1 -->
<g id="edge1" class="edge">
<title>Node2&#45;&gt;Node1</title>
<path fill="none" stroke="#9a32cd" stroke-dasharray="5,2" d="M57.5,-68.22C57.5,-52.7 57.5,-31.36 57.5,-19.62"/>
<polygon fill="#9a32cd" stroke="#9a32cd" points="54,-68.28 57.5,-78.28 61,-68.28 54,-68.28"/>
<text text-anchor="middle" x="77.5" y="-52" font-family="Helvetica,sans-Serif" font-size="10.00"> api</text>
<text text-anchor="middle" x="77.5" y="-41" font-family="Helvetica,sans-Serif" font-size="10.00">wrapper</text>
</g>
<!-- Node3 -->
<g id="node3" class="node">
<title>Node3</title>
<g id="a_node3"><a xlink:title=" ">
<polygon fill="white" stroke="#bfbfbf" points="29.5,-167.5 29.5,-186.5 85.5,-186.5 85.5,-167.5 29.5,-167.5"/>
<text text-anchor="middle" x="57.5" y="-174.5" font-family="Helvetica,sans-Serif" font-size="10.00">uint32_t</text>
</a>
</g>
</g>
<!-- Node3&#45;&gt;Node2 -->
<g id="edge2" class="edge">
<title>Node3&#45;&gt;Node2</title>
<path fill="none" stroke="#9a32cd" stroke-dasharray="5,2" d="M57.5,-157.19C57.5,-138.74 57.5,-111.41 57.5,-97.62"/>
<polygon fill="#9a32cd" stroke="#9a32cd" points="54,-157.34 57.5,-167.34 61,-157.34 54,-157.34"/>
<text text-anchor="middle" x="73.5" y="-141" font-family="Helvetica,sans-Serif" font-size="10.00"> major</text>
<text text-anchor="middle" x="73.5" y="-130" font-family="Helvetica,sans-Serif" font-size="10.00">minor</text>
<text text-anchor="middle" x="73.5" y="-119" font-family="Helvetica,sans-Serif" font-size="10.00">patch</text>
</g>
</g>
</svg>
