<?xml version="1.0" encoding="UTF-8" standalone="no"?>
<!DOCTYPE svg PUBLIC "-//W3C//DTD SVG 1.1//EN"
 "http://www.w3.org/Graphics/SVG/1.1/DTD/svg11.dtd">
<!-- Generated by graphviz version 2.43.0 (0)
 -->
<!-- Title: r_cio_canfd_prv_ChInst_t Pages: 1 -->
<svg width="969pt" height="597pt"
 viewBox="0.00 0.00 969.00 596.56" xmlns="http://www.w3.org/2000/svg" xmlns:xlink="http://www.w3.org/1999/xlink">
<g id="graph0" class="graph" transform="scale(1 1) rotate(0) translate(4 592.56)">
<title>r_cio_canfd_prv_ChInst_t</title>
<polygon fill="white" stroke="transparent" points="-4,4 -4,-592.56 965,-592.56 965,4 -4,4"/>
<!-- Node1 -->
<g id="node1" class="node">
<title>Node1</title>
<g id="a_node1"><a xlink:title="CAN&#45;FD Channel (instance) definition.">
<polygon fill="#bfbfbf" stroke="black" points="823,-443.06 823,-462.06 961,-462.06 961,-443.06 823,-443.06"/>
<text text-anchor="middle" x="892" y="-450.06" font-family="Helvetica,sans-Serif" font-size="10.00">r_cio_canfd_prv_ChInst_t</text>
</a>
</g>
</g>
<!-- Node2 -->
<g id="node2" class="node">
<title>Node2</title>
<g id="a_node2"><a xlink:title=" ">
<polygon fill="white" stroke="#bfbfbf" points="644,-569.06 644,-588.06 694,-588.06 694,-569.06 644,-569.06"/>
<text text-anchor="middle" x="669" y="-576.06" font-family="Helvetica,sans-Serif" font-size="10.00">int32_t</text>
</a>
</g>
</g>
<!-- Node2&#45;&gt;Node1 -->
<g id="edge1" class="edge">
<title>Node2&#45;&gt;Node1</title>
<path fill="none" stroke="#9a32cd" stroke-dasharray="5,2" d="M703.97,-569.15C713.73,-566.27 724.34,-562.96 734,-559.56 766.16,-548.25 776.16,-548.73 805,-530.56 836.89,-510.47 868.08,-478.11 882.58,-462.12"/>
<polygon fill="#9a32cd" stroke="#9a32cd" points="702.82,-565.84 694.19,-571.99 704.77,-572.57 702.82,-565.84"/>
<text text-anchor="middle" x="778.5" y="-566.56" font-family="Helvetica,sans-Serif" font-size="10.00"> Error</text>
<text text-anchor="middle" x="778.5" y="-555.56" font-family="Helvetica,sans-Serif" font-size="10.00">InUseCnt</text>
</g>
<!-- Node3 -->
<g id="node3" class="node">
<title>Node3</title>
<g id="a_node3"><a xlink:title=" ">
<polygon fill="white" stroke="#bfbfbf" points="646.5,-531.06 646.5,-550.06 691.5,-550.06 691.5,-531.06 646.5,-531.06"/>
<text text-anchor="middle" x="669" y="-538.06" font-family="Helvetica,sans-Serif" font-size="10.00">size_t</text>
</a>
</g>
</g>
<!-- Node3&#45;&gt;Node1 -->
<g id="edge2" class="edge">
<title>Node3&#45;&gt;Node1</title>
<path fill="none" stroke="#9a32cd" stroke-dasharray="5,2" d="M701.57,-531.44C711.92,-528.38 723.48,-524.9 734,-521.56 765.75,-511.48 774.37,-510.65 805,-497.56 829.95,-486.89 857.53,-471.84 874.57,-462.14"/>
<polygon fill="#9a32cd" stroke="#9a32cd" points="700.3,-528.17 691.69,-534.34 702.27,-534.88 700.3,-528.17"/>
<text text-anchor="middle" x="778.5" y="-518.56" font-family="Helvetica,sans-Serif" font-size="10.00"> BaseAddr</text>
</g>
<!-- Node4 -->
<g id="node4" class="node">
<title>Node4</title>
<g id="a_node4"><a xlink:title=" ">
<polygon fill="white" stroke="#bfbfbf" points="402.5,-443.06 402.5,-462.06 458.5,-462.06 458.5,-443.06 402.5,-443.06"/>
<text text-anchor="middle" x="430.5" y="-450.06" font-family="Helvetica,sans-Serif" font-size="10.00">uint32_t</text>
</a>
</g>
</g>
<!-- Node4&#45;&gt;Node1 -->
<g id="edge3" class="edge">
<title>Node4&#45;&gt;Node1</title>
<path fill="none" stroke="#9a32cd" stroke-dasharray="5,2" d="M468.73,-452.56C545.9,-452.56 724.31,-452.56 822.73,-452.56"/>
<polygon fill="#9a32cd" stroke="#9a32cd" points="468.53,-449.06 458.53,-452.56 468.53,-456.06 468.53,-449.06"/>
<text text-anchor="middle" x="669" y="-466.56" font-family="Helvetica,sans-Serif" font-size="10.00"> Ch</text>
<text text-anchor="middle" x="669" y="-455.56" font-family="Helvetica,sans-Serif" font-size="10.00">FdMode</text>
</g>
<!-- Node14 -->
<g id="node14" class="node">
<title>Node14</title>
<g id="a_node14"><a xlink:href="structr__cio__can__Msg__t.html" target="_top" xlink:title="CAN Message definition.">
<polygon fill="white" stroke="black" points="620.5,-356.06 620.5,-375.06 717.5,-375.06 717.5,-356.06 620.5,-356.06"/>
<text text-anchor="middle" x="669" y="-363.06" font-family="Helvetica,sans-Serif" font-size="10.00">r_cio_can_Msg_t</text>
</a>
</g>
</g>
<!-- Node4&#45;&gt;Node14 -->
<g id="edge18" class="edge">
<title>Node4&#45;&gt;Node14</title>
<path fill="none" stroke="#9a32cd" stroke-dasharray="5,2" d="M468.46,-441.43C506.91,-429.74 564.45,-411.93 586,-403.56 608.08,-394.98 632.65,-383.3 649.08,-375.16"/>
<polygon fill="#9a32cd" stroke="#9a32cd" points="467.21,-438.15 458.65,-444.4 469.24,-444.85 467.21,-438.15"/>
<text text-anchor="middle" x="550" y="-428.56" font-family="Helvetica,sans-Serif" font-size="10.00"> Flags</text>
</g>
<!-- Node17 -->
<g id="node17" class="node">
<title>Node17</title>
<g id="a_node17"><a xlink:href="structr__cio__canfd__Stats__t.html" target="_top" xlink:title="Counting communication errors.">
<polygon fill="white" stroke="black" points="613.5,-493.06 613.5,-512.06 724.5,-512.06 724.5,-493.06 613.5,-493.06"/>
<text text-anchor="middle" x="669" y="-500.06" font-family="Helvetica,sans-Serif" font-size="10.00">r_cio_canfd_Stats_t</text>
</a>
</g>
</g>
<!-- Node4&#45;&gt;Node17 -->
<g id="edge21" class="edge">
<title>Node4&#45;&gt;Node17</title>
<path fill="none" stroke="#9a32cd" stroke-dasharray="5,2" d="M468.66,-460.42C510.46,-469.25 578.32,-483.6 623.06,-493.06"/>
<polygon fill="#9a32cd" stroke="#9a32cd" points="469.14,-456.94 458.63,-458.29 467.69,-463.79 469.14,-456.94"/>
<text text-anchor="middle" x="550" y="-520.56" font-family="Helvetica,sans-Serif" font-size="10.00"> RxDropped</text>
<text text-anchor="middle" x="550" y="-509.56" font-family="Helvetica,sans-Serif" font-size="10.00">RxErrors</text>
<text text-anchor="middle" x="550" y="-498.56" font-family="Helvetica,sans-Serif" font-size="10.00">TxDropped</text>
<text text-anchor="middle" x="550" y="-487.56" font-family="Helvetica,sans-Serif" font-size="10.00">TxErrors</text>
</g>
<!-- Node5 -->
<g id="node5" class="node">
<title>Node5</title>
<g id="a_node5"><a xlink:href="structst__osal__mq__control.html" target="_top" xlink:title="control of message queue (Defined in OSAL Wrapper implementation files).">
<polygon fill="white" stroke="black" points="613.5,-186.06 613.5,-205.06 724.5,-205.06 724.5,-186.06 613.5,-186.06"/>
<text text-anchor="middle" x="669" y="-193.06" font-family="Helvetica,sans-Serif" font-size="10.00">st_osal_mq_control</text>
</a>
</g>
</g>
<!-- Node5&#45;&gt;Node1 -->
<g id="edge4" class="edge">
<title>Node5&#45;&gt;Node1</title>
<path fill="none" stroke="#9a32cd" stroke-dasharray="5,2" d="M688.88,-211.67C716.1,-235.38 767.26,-281.73 805,-326.56 839.11,-367.08 872.41,-421.19 885.35,-442.93"/>
<polygon fill="#9a32cd" stroke="#9a32cd" points="691.09,-208.96 681.24,-205.07 686.51,-214.25 691.09,-208.96"/>
<text text-anchor="middle" x="778.5" y="-329.56" font-family="Helvetica,sans-Serif" font-size="10.00"> MqHandle</text>
</g>
<!-- Node6 -->
<g id="node6" class="node">
<title>Node6</title>
<g id="a_node6"><a xlink:href="structst__osal__rcfg__mq__config.html" target="_top" xlink:title=" ">
<polygon fill="white" stroke="black" points="365,-241.06 365,-260.06 496,-260.06 496,-241.06 365,-241.06"/>
<text text-anchor="middle" x="430.5" y="-248.06" font-family="Helvetica,sans-Serif" font-size="10.00">st_osal_rcfg_mq_config</text>
</a>
</g>
</g>
<!-- Node6&#45;&gt;Node5 -->
<g id="edge5" class="edge">
<title>Node6&#45;&gt;Node5</title>
<path fill="none" stroke="#9a32cd" stroke-dasharray="5,2" d="M506.32,-241.38C531.82,-237.48 560.35,-232.26 586,-225.56 606.53,-220.19 629.13,-211.72 645.4,-205.15"/>
<polygon fill="#9a32cd" stroke="#9a32cd" points="505.72,-237.94 496.34,-242.87 506.75,-244.86 505.72,-237.94"/>
<text text-anchor="middle" x="550" y="-242.56" font-family="Helvetica,sans-Serif" font-size="10.00"> usr_config</text>
</g>
<!-- Node7 -->
<g id="node7" class="node">
<title>Node7</title>
<g id="a_node7"><a xlink:title=" ">
<polygon fill="white" stroke="#bfbfbf" points="0,-261.06 0,-280.06 56,-280.06 56,-261.06 0,-261.06"/>
<text text-anchor="middle" x="28" y="-268.06" font-family="Helvetica,sans-Serif" font-size="10.00">uint64_t</text>
</a>
</g>
</g>
<!-- Node7&#45;&gt;Node5 -->
<g id="edge9" class="edge">
<title>Node7&#45;&gt;Node5</title>
<path fill="none" stroke="#9a32cd" stroke-dasharray="5,2" d="M66.36,-278.61C68.94,-278.99 71.5,-279.31 74,-279.56 108.94,-283.02 117.89,-279.84 153,-279.56 305.5,-278.34 344.27,-284.92 496,-269.56 536.35,-265.47 548.56,-270.14 586,-254.56 614.82,-242.56 643.21,-218.72 657.83,-205.31"/>
<polygon fill="#9a32cd" stroke="#9a32cd" points="66.92,-275.16 56.48,-276.95 65.76,-282.06 66.92,-275.16"/>
<text text-anchor="middle" x="321.5" y="-282.56" font-family="Helvetica,sans-Serif" font-size="10.00"> handle_id</text>
</g>
<!-- Node7&#45;&gt;Node6 -->
<g id="edge6" class="edge">
<title>Node7&#45;&gt;Node6</title>
<path fill="none" stroke="#9a32cd" stroke-dasharray="5,2" d="M66.49,-268.69C134.81,-265.28 280.28,-258.01 364.86,-253.79"/>
<polygon fill="#9a32cd" stroke="#9a32cd" points="66.03,-265.21 56.21,-269.2 66.38,-272.2 66.03,-265.21"/>
<text text-anchor="middle" x="224.5" y="-265.56" font-family="Helvetica,sans-Serif" font-size="10.00"> id</text>
</g>
<!-- Node8 -->
<g id="node8" class="node">
<title>Node8</title>
<g id="a_node8"><a xlink:href="structst__osal__mq__config.html" target="_top" xlink:title="configuration of message queue.">
<polygon fill="white" stroke="black" points="171,-215.06 171,-234.06 278,-234.06 278,-215.06 171,-215.06"/>
<text text-anchor="middle" x="224.5" y="-222.06" font-family="Helvetica,sans-Serif" font-size="10.00">st_osal_mq_config</text>
</a>
</g>
</g>
<!-- Node7&#45;&gt;Node8 -->
<g id="edge8" class="edge">
<title>Node7&#45;&gt;Node8</title>
<path fill="none" stroke="#9a32cd" stroke-dasharray="5,2" d="M44.99,-253.77C52.97,-246.52 63.2,-238.76 74,-234.56 104.67,-222.64 141.53,-220.05 170.98,-220.49"/>
<polygon fill="#9a32cd" stroke="#9a32cd" points="42.32,-251.49 37.58,-260.96 47.19,-256.51 42.32,-251.49"/>
<text text-anchor="middle" x="113.5" y="-248.56" font-family="Helvetica,sans-Serif" font-size="10.00"> max_num_msg</text>
<text text-anchor="middle" x="113.5" y="-237.56" font-family="Helvetica,sans-Serif" font-size="10.00">msg_size</text>
</g>
<!-- Node8&#45;&gt;Node5 -->
<g id="edge13" class="edge">
<title>Node8&#45;&gt;Node5</title>
<path fill="none" stroke="#9a32cd" stroke-dasharray="5,2" d="M288.43,-220.43C375.4,-214.74 530.88,-204.55 613.27,-199.15"/>
<polygon fill="#9a32cd" stroke="#9a32cd" points="288.19,-216.94 278.44,-221.09 288.64,-223.93 288.19,-216.94"/>
<text text-anchor="middle" x="430.5" y="-217.56" font-family="Helvetica,sans-Serif" font-size="10.00"> config</text>
</g>
<!-- Node8&#45;&gt;Node6 -->
<g id="edge7" class="edge">
<title>Node8&#45;&gt;Node6</title>
<path fill="none" stroke="#9a32cd" stroke-dasharray="5,2" d="M288.21,-232.55C312.49,-235.65 340.27,-239.19 364.74,-242.31"/>
<polygon fill="#9a32cd" stroke="#9a32cd" points="288.4,-229.05 278.04,-231.25 287.51,-235.99 288.4,-229.05"/>
<text text-anchor="middle" x="321.5" y="-242.56" font-family="Helvetica,sans-Serif" font-size="10.00"> config</text>
</g>
<!-- Node9 -->
<g id="node9" class="node">
<title>Node9</title>
<g id="a_node9"><a xlink:title=" ">
<polygon fill="white" stroke="#bfbfbf" points="411.5,-156.06 411.5,-175.06 449.5,-175.06 449.5,-156.06 411.5,-156.06"/>
<text text-anchor="middle" x="430.5" y="-163.06" font-family="Helvetica,sans-Serif" font-size="10.00">char</text>
</a>
</g>
</g>
<!-- Node9&#45;&gt;Node5 -->
<g id="edge10" class="edge">
<title>Node9&#45;&gt;Node5</title>
<path fill="none" stroke="#9a32cd" stroke-dasharray="5,2" d="M459.93,-169.17C497.68,-173.95 565.16,-182.51 613.03,-188.59"/>
<polygon fill="#9a32cd" stroke="#9a32cd" points="460.03,-165.65 449.67,-167.86 459.15,-172.59 460.03,-165.65"/>
<text text-anchor="middle" x="550" y="-187.56" font-family="Helvetica,sans-Serif" font-size="10.00"> buffer</text>
</g>
<!-- Node10 -->
<g id="node10" class="node">
<title>Node10</title>
<g id="a_node10"><a xlink:title=" ">
<polygon fill="white" stroke="#bfbfbf" points="405.5,-118.06 405.5,-137.06 455.5,-137.06 455.5,-118.06 405.5,-118.06"/>
<text text-anchor="middle" x="430.5" y="-125.06" font-family="Helvetica,sans-Serif" font-size="10.00">int64_t</text>
</a>
</g>
</g>
<!-- Node10&#45;&gt;Node5 -->
<g id="edge11" class="edge">
<title>Node10&#45;&gt;Node5</title>
<path fill="none" stroke="#9a32cd" stroke-dasharray="5,2" d="M465.85,-129.84C498.31,-133.13 547.63,-141.14 586,-160.56 595.55,-165.39 594.65,-171.36 604,-176.56 610.79,-180.33 618.4,-183.43 625.95,-185.95"/>
<polygon fill="#9a32cd" stroke="#9a32cd" points="465.8,-126.32 455.52,-128.89 465.16,-133.29 465.8,-126.32"/>
<text text-anchor="middle" x="550" y="-163.56" font-family="Helvetica,sans-Serif" font-size="10.00"> inner_timeout</text>
</g>
<!-- Node11 -->
<g id="node11" class="node">
<title>Node11</title>
<g id="a_node11"><a xlink:title=" ">
<polygon fill="white" stroke="#bfbfbf" points="411.5,-80.06 411.5,-99.06 449.5,-99.06 449.5,-80.06 411.5,-80.06"/>
<text text-anchor="middle" x="430.5" y="-87.06" font-family="Helvetica,sans-Serif" font-size="10.00">bool</text>
</a>
</g>
</g>
<!-- Node11&#45;&gt;Node5 -->
<g id="edge12" class="edge">
<title>Node11&#45;&gt;Node5</title>
<path fill="none" stroke="#9a32cd" stroke-dasharray="5,2" d="M459.72,-82.77C493.83,-76.37 551,-71.7 586,-101.56 612.08,-123.81 580.41,-151.69 604,-176.56 607.67,-180.43 612.09,-183.52 616.86,-185.99"/>
<polygon fill="#9a32cd" stroke="#9a32cd" points="458.6,-79.43 449.51,-84.87 460.01,-86.29 458.6,-79.43"/>
<text text-anchor="middle" x="550" y="-126.56" font-family="Helvetica,sans-Serif" font-size="10.00"> active</text>
<text text-anchor="middle" x="550" y="-115.56" font-family="Helvetica,sans-Serif" font-size="10.00">receive_wait</text>
<text text-anchor="middle" x="550" y="-104.56" font-family="Helvetica,sans-Serif" font-size="10.00">send_wait</text>
</g>
<!-- Node12 -->
<g id="node12" class="node">
<title>Node12</title>
<g id="a_node12"><a xlink:title=" ">
<polygon fill="white" stroke="#bfbfbf" points="384.5,-42.06 384.5,-61.06 476.5,-61.06 476.5,-42.06 384.5,-42.06"/>
<text text-anchor="middle" x="430.5" y="-49.06" font-family="Helvetica,sans-Serif" font-size="10.00">QueueHandle_t</text>
</a>
</g>
</g>
<!-- Node12&#45;&gt;Node5 -->
<g id="edge14" class="edge">
<title>Node12&#45;&gt;Node5</title>
<path fill="none" stroke="#9a32cd" stroke-dasharray="5,2" d="M483.17,-40.71C516.66,-36.89 558.94,-38.59 586,-63.56 623.38,-98.04 570.46,-138.33 604,-176.56 607.36,-180.39 611.46,-183.47 615.94,-185.94"/>
<polygon fill="#9a32cd" stroke="#9a32cd" points="482.53,-37.27 473.08,-42.06 483.46,-44.2 482.53,-37.27"/>
<text text-anchor="middle" x="550" y="-66.56" font-family="Helvetica,sans-Serif" font-size="10.00"> mqd</text>
</g>
<!-- Node13 -->
<g id="node13" class="node">
<title>Node13</title>
<g id="a_node13"><a xlink:title=" ">
<polygon fill="white" stroke="#bfbfbf" points="372.5,-4.06 372.5,-23.06 488.5,-23.06 488.5,-4.06 372.5,-4.06"/>
<text text-anchor="middle" x="430.5" y="-11.06" font-family="Helvetica,sans-Serif" font-size="10.00">SemaphoreHandle_t</text>
</a>
</g>
</g>
<!-- Node13&#45;&gt;Node5 -->
<g id="edge15" class="edge">
<title>Node13&#45;&gt;Node5</title>
<path fill="none" stroke="#9a32cd" stroke-dasharray="5,2" d="M480.14,-2.41C514.25,2.3 558.5,1.69 586,-24.56 635.21,-71.52 560.17,-124.53 604,-176.56 607.21,-180.37 611.15,-183.44 615.48,-185.9"/>
<polygon fill="#9a32cd" stroke="#9a32cd" points="479.25,0.99 469.91,-4.03 480.34,-5.93 479.25,0.99"/>
<text text-anchor="middle" x="550" y="-27.56" font-family="Helvetica,sans-Serif" font-size="10.00"> inner_mtx</text>
</g>
<!-- Node14&#45;&gt;Node1 -->
<g id="edge16" class="edge">
<title>Node14&#45;&gt;Node1</title>
<path fill="none" stroke="#9a32cd" stroke-dasharray="5,2" d="M702.98,-352.56C731.32,-343.51 772.62,-335.51 805,-350.56 847.01,-370.09 875.87,-421.36 886.49,-442.86"/>
<polygon fill="#9a32cd" stroke="#9a32cd" points="701.5,-349.36 693.16,-355.9 703.76,-355.99 701.5,-349.36"/>
<text text-anchor="middle" x="778.5" y="-430.56" font-family="Helvetica,sans-Serif" font-size="10.00"> RxBuf</text>
<text text-anchor="middle" x="778.5" y="-419.56" font-family="Helvetica,sans-Serif" font-size="10.00">RxEob</text>
<text text-anchor="middle" x="778.5" y="-408.56" font-family="Helvetica,sans-Serif" font-size="10.00">RxStop</text>
<text text-anchor="middle" x="778.5" y="-397.56" font-family="Helvetica,sans-Serif" font-size="10.00">RxStrt</text>
<text text-anchor="middle" x="778.5" y="-386.56" font-family="Helvetica,sans-Serif" font-size="10.00">TxBuf</text>
<text text-anchor="middle" x="778.5" y="-375.56" font-family="Helvetica,sans-Serif" font-size="10.00">TxEob</text>
<text text-anchor="middle" x="778.5" y="-364.56" font-family="Helvetica,sans-Serif" font-size="10.00">TxStop</text>
<text text-anchor="middle" x="778.5" y="-353.56" font-family="Helvetica,sans-Serif" font-size="10.00">TxStrt</text>
</g>
<!-- Node15 -->
<g id="node15" class="node">
<title>Node15</title>
<g id="a_node15"><a xlink:title=" ">
<polygon fill="white" stroke="#bfbfbf" points="402.5,-376.06 402.5,-395.06 458.5,-395.06 458.5,-376.06 402.5,-376.06"/>
<text text-anchor="middle" x="430.5" y="-383.06" font-family="Helvetica,sans-Serif" font-size="10.00">uint16_t</text>
</a>
</g>
</g>
<!-- Node15&#45;&gt;Node14 -->
<g id="edge17" class="edge">
<title>Node15&#45;&gt;Node14</title>
<path fill="none" stroke="#9a32cd" stroke-dasharray="5,2" d="M468.73,-382.41C509.71,-378.95 575.69,-373.37 620.39,-369.58"/>
<polygon fill="#9a32cd" stroke="#9a32cd" points="468.3,-378.93 458.63,-383.26 468.89,-385.91 468.3,-378.93"/>
<text text-anchor="middle" x="550" y="-391.56" font-family="Helvetica,sans-Serif" font-size="10.00"> DataLen</text>
<text text-anchor="middle" x="550" y="-380.56" font-family="Helvetica,sans-Serif" font-size="10.00">Id</text>
</g>
<!-- Node16 -->
<g id="node16" class="node">
<title>Node16</title>
<g id="a_node16"><a xlink:title=" ">
<polygon fill="white" stroke="#bfbfbf" points="405.5,-338.06 405.5,-357.06 455.5,-357.06 455.5,-338.06 405.5,-338.06"/>
<text text-anchor="middle" x="430.5" y="-345.06" font-family="Helvetica,sans-Serif" font-size="10.00">uint8_t</text>
</a>
</g>
</g>
<!-- Node16&#45;&gt;Node14 -->
<g id="edge19" class="edge">
<title>Node16&#45;&gt;Node14</title>
<path fill="none" stroke="#9a32cd" stroke-dasharray="5,2" d="M466.06,-345.84C497.44,-344.73 544.96,-344.22 586,-348.56 600.46,-350.09 616.13,-353.02 629.87,-356.02"/>
<polygon fill="#9a32cd" stroke="#9a32cd" points="465.52,-342.35 455.67,-346.24 465.8,-349.35 465.52,-342.35"/>
<text text-anchor="middle" x="550" y="-351.56" font-family="Helvetica,sans-Serif" font-size="10.00"> Data</text>
</g>
<!-- Node17&#45;&gt;Node1 -->
<g id="edge20" class="edge">
<title>Node17&#45;&gt;Node1</title>
<path fill="none" stroke="#9a32cd" stroke-dasharray="5,2" d="M722.1,-490.77C760.7,-482.04 812.64,-470.29 848.69,-462.13"/>
<polygon fill="#9a32cd" stroke="#9a32cd" points="721.07,-487.42 712.09,-493.04 722.61,-494.24 721.07,-487.42"/>
<text text-anchor="middle" x="778.5" y="-485.56" font-family="Helvetica,sans-Serif" font-size="10.00"> Stats</text>
</g>
<!-- Node18 -->
<g id="node18" class="node">
<title>Node18</title>
<g id="a_node18"><a xlink:title=" ">
<polygon fill="white" stroke="#bfbfbf" points="604,-148.06 604,-167.06 734,-167.06 734,-148.06 604,-148.06"/>
<text text-anchor="middle" x="669" y="-155.06" font-family="Helvetica,sans-Serif" font-size="10.00">r_cio_canfd_BusState_t</text>
</a>
</g>
</g>
<!-- Node18&#45;&gt;Node1 -->
<g id="edge22" class="edge">
<title>Node18&#45;&gt;Node1</title>
<path fill="none" stroke="#9a32cd" stroke-dasharray="5,2" d="M723.41,-170.93C727.1,-172.6 730.67,-174.47 734,-176.56 773.71,-201.48 779.54,-215.2 805,-254.56 848.15,-321.27 878.81,-413.28 888.08,-442.93"/>
<polygon fill="#9a32cd" stroke="#9a32cd" points="724.65,-167.66 714.07,-167.17 722.04,-174.15 724.65,-167.66"/>
<text text-anchor="middle" x="778.5" y="-257.56" font-family="Helvetica,sans-Serif" font-size="10.00"> State</text>
</g>
</g>
</svg>
