<?xml version="1.0" encoding="UTF-8" standalone="no"?>
<!DOCTYPE svg PUBLIC "-//W3C//DTD SVG 1.1//EN"
 "http://www.w3.org/Graphics/SVG/1.1/DTD/svg11.dtd">
<!-- Generated by graphviz version 2.43.0 (0)
 -->
<!-- Title: st_imrdrv_basic_api_area_t Pages: 1 -->
<svg width="211pt" height="106pt"
 viewBox="0.00 0.00 211.00 106.00" xmlns="http://www.w3.org/2000/svg" xmlns:xlink="http://www.w3.org/1999/xlink">
<g id="graph0" class="graph" transform="scale(1 1) rotate(0) translate(4 102)">
<title>st_imrdrv_basic_api_area_t</title>
<polygon fill="white" stroke="transparent" points="-4,4 -4,-102 207,-102 207,4 -4,4"/>
<!-- Node1 -->
<g id="node1" class="node">
<title>Node1</title>
<g id="a_node1"><a xlink:title=" ">
<polygon fill="#bfbfbf" stroke="black" points="26,-0.5 26,-30.5 140,-30.5 140,-0.5 26,-0.5"/>
<text text-anchor="start" x="34" y="-18.5" font-family="Helvetica,sans-Serif" font-size="10.00">st_imrdrv_basic_api</text>
<text text-anchor="middle" x="83" y="-7.5" font-family="Helvetica,sans-Serif" font-size="10.00">_area_t</text>
</a>
</g>
</g>
<!-- Node2 -->
<g id="node2" class="node">
<title>Node2</title>
<g id="a_node2"><a xlink:title=" ">
<polygon fill="white" stroke="#bfbfbf" points="0,-78.5 0,-97.5 50,-97.5 50,-78.5 0,-78.5"/>
<text text-anchor="middle" x="25" y="-85.5" font-family="Helvetica,sans-Serif" font-size="10.00">int32_t</text>
</a>
</g>
</g>
<!-- Node2&#45;&gt;Node1 -->
<g id="edge1" class="edge">
<title>Node2&#45;&gt;Node1</title>
<path fill="none" stroke="#9a32cd" stroke-dasharray="5,2" d="M21.89,-68.41C21.69,-61.87 22.57,-54.73 26,-49 30.62,-41.28 37.82,-35.23 45.56,-30.55"/>
<polygon fill="#9a32cd" stroke="#9a32cd" points="18.43,-68.92 22.97,-78.49 25.39,-68.17 18.43,-68.92"/>
<text text-anchor="middle" x="73" y="-52" font-family="Helvetica,sans-Serif" font-size="10.00"> callback_func_app</text>
</g>
<!-- Node3 -->
<g id="node3" class="node">
<title>Node3</title>
<g id="a_node3"><a xlink:title=" ">
<polygon fill="white" stroke="#bfbfbf" points="119,-78.5 119,-97.5 165,-97.5 165,-78.5 119,-78.5"/>
<text text-anchor="middle" x="142" y="-85.5" font-family="Helvetica,sans-Serif" font-size="10.00">void *</text>
</a>
</g>
</g>
<!-- Node3&#45;&gt;Node1 -->
<g id="edge2" class="edge">
<title>Node3&#45;&gt;Node1</title>
<path fill="none" stroke="#9a32cd" stroke-dasharray="5,2" d="M133.35,-69.36C129.68,-62.66 125.07,-55.18 120,-49 114.57,-42.39 107.74,-35.99 101.43,-30.64"/>
<polygon fill="#9a32cd" stroke="#9a32cd" points="130.3,-71.07 138.01,-78.34 136.51,-67.85 130.3,-71.07"/>
<text text-anchor="middle" x="165" y="-52" font-family="Helvetica,sans-Serif" font-size="10.00"> p_callback_arg</text>
</g>
</g>
</svg>
