<?xml version="1.0" encoding="UTF-8" standalone="no"?>
<!DOCTYPE svg PUBLIC "-//W3C//DTD SVG 1.1//EN"
 "http://www.w3.org/Graphics/SVG/1.1/DTD/svg11.dtd">
<!-- Generated by graphviz version 2.43.0 (0)
 -->
<!-- Title: taurus_ether_read_mii_out Pages: 1 -->
<svg width="155pt" height="106pt"
 viewBox="0.00 0.00 155.00 106.00" xmlns="http://www.w3.org/2000/svg" xmlns:xlink="http://www.w3.org/1999/xlink">
<g id="graph0" class="graph" transform="scale(1 1) rotate(0) translate(4 102)">
<title>taurus_ether_read_mii_out</title>
<polygon fill="white" stroke="transparent" points="-4,4 -4,-102 151,-102 151,4 -4,4"/>
<!-- Node1 -->
<g id="node1" class="node">
<title>Node1</title>
<g id="a_node1"><a xlink:title=" ">
<polygon fill="#bfbfbf" stroke="black" points="0,-0.5 0,-19.5 147,-19.5 147,-0.5 0,-0.5"/>
<text text-anchor="middle" x="73.5" y="-7.5" font-family="Helvetica,sans-Serif" font-size="10.00">taurus_ether_read_mii_out</text>
</a>
</g>
</g>
<!-- Node2 -->
<g id="node2" class="node">
<title>Node2</title>
<g id="a_node2"><a xlink:title=" ">
<polygon fill="white" stroke="#bfbfbf" points="8.5,-78.5 8.5,-97.5 64.5,-97.5 64.5,-78.5 8.5,-78.5"/>
<text text-anchor="middle" x="36.5" y="-85.5" font-family="Helvetica,sans-Serif" font-size="10.00">uint64_t</text>
</a>
</g>
</g>
<!-- Node2&#45;&gt;Node1 -->
<g id="edge1" class="edge">
<title>Node2&#45;&gt;Node1</title>
<path fill="none" stroke="#9a32cd" stroke-dasharray="5,2" d="M40.93,-68.41C43.58,-58.98 47.43,-47.54 52.5,-38 55.95,-31.5 60.99,-24.96 65.26,-19.95"/>
<polygon fill="#9a32cd" stroke="#9a32cd" points="37.49,-67.76 38.37,-78.32 44.26,-69.51 37.49,-67.76"/>
<text text-anchor="middle" x="70.5" y="-52" font-family="Helvetica,sans-Serif" font-size="10.00"> cookie</text>
<text text-anchor="middle" x="70.5" y="-41" font-family="Helvetica,sans-Serif" font-size="10.00">res</text>
</g>
<!-- Node3 -->
<g id="node3" class="node">
<title>Node3</title>
<g id="a_node3"><a xlink:title=" ">
<polygon fill="white" stroke="#bfbfbf" points="82.5,-78.5 82.5,-97.5 138.5,-97.5 138.5,-78.5 82.5,-78.5"/>
<text text-anchor="middle" x="110.5" y="-85.5" font-family="Helvetica,sans-Serif" font-size="10.00">uint16_t</text>
</a>
</g>
</g>
<!-- Node3&#45;&gt;Node1 -->
<g id="edge2" class="edge">
<title>Node3&#45;&gt;Node1</title>
<path fill="none" stroke="#9a32cd" stroke-dasharray="5,2" d="M102.78,-68.82C98.71,-59.51 93.54,-48.05 88.5,-38 85.42,-31.86 81.67,-25.11 78.69,-19.9"/>
<polygon fill="#9a32cd" stroke="#9a32cd" points="99.66,-70.42 106.83,-78.22 106.09,-67.65 99.66,-70.42"/>
<text text-anchor="middle" x="117" y="-46.5" font-family="Helvetica,sans-Serif" font-size="10.00"> RegVal</text>
</g>
</g>
</svg>
