<?xml version="1.0" encoding="UTF-8" standalone="no"?>
<!DOCTYPE svg PUBLIC "-//W3C//DTD SVG 1.1//EN"
 "http://www.w3.org/Graphics/SVG/1.1/DTD/svg11.dtd">
<!-- Generated by graphviz version 2.43.0 (0)
 -->
<!-- Title: taurus_ether_transmit_in Pages: 1 -->
<svg width="386pt" height="106pt"
 viewBox="0.00 0.00 386.00 106.00" xmlns="http://www.w3.org/2000/svg" xmlns:xlink="http://www.w3.org/1999/xlink">
<g id="graph0" class="graph" transform="scale(1 1) rotate(0) translate(4 102)">
<title>taurus_ether_transmit_in</title>
<polygon fill="white" stroke="transparent" points="-4,4 -4,-102 382,-102 382,4 -4,4"/>
<!-- Node1 -->
<g id="node1" class="node">
<title>Node1</title>
<g id="a_node1"><a xlink:title=" ">
<polygon fill="#bfbfbf" stroke="black" points="112.5,-0.5 112.5,-19.5 251.5,-19.5 251.5,-0.5 112.5,-0.5"/>
<text text-anchor="middle" x="182" y="-7.5" font-family="Helvetica,sans-Serif" font-size="10.00">taurus_ether_transmit_in</text>
</a>
</g>
</g>
<!-- Node2 -->
<g id="node2" class="node">
<title>Node2</title>
<g id="a_node2"><a xlink:title=" ">
<polygon fill="white" stroke="#bfbfbf" points="0,-78.5 0,-97.5 56,-97.5 56,-78.5 0,-78.5"/>
<text text-anchor="middle" x="28" y="-85.5" font-family="Helvetica,sans-Serif" font-size="10.00">uint64_t</text>
</a>
</g>
</g>
<!-- Node2&#45;&gt;Node1 -->
<g id="edge1" class="edge">
<title>Node2&#45;&gt;Node1</title>
<path fill="none" stroke="#9a32cd" stroke-dasharray="5,2" d="M37.66,-69.67C44.5,-58.97 54.64,-45.83 67,-38 80.6,-29.39 96.67,-23.52 112.42,-19.52"/>
<polygon fill="#9a32cd" stroke="#9a32cd" points="34.65,-67.88 32.52,-78.25 40.66,-71.47 34.65,-67.88"/>
<text text-anchor="middle" x="85" y="-46.5" font-family="Helvetica,sans-Serif" font-size="10.00"> cookie</text>
</g>
<!-- Node3 -->
<g id="node3" class="node">
<title>Node3</title>
<g id="a_node3"><a xlink:title=" ">
<polygon fill="white" stroke="#bfbfbf" points="74,-78.5 74,-97.5 130,-97.5 130,-78.5 74,-78.5"/>
<text text-anchor="middle" x="102" y="-85.5" font-family="Helvetica,sans-Serif" font-size="10.00">uint16_t</text>
</a>
</g>
</g>
<!-- Node3&#45;&gt;Node1 -->
<g id="edge2" class="edge">
<title>Node3&#45;&gt;Node1</title>
<path fill="none" stroke="#9a32cd" stroke-dasharray="5,2" d="M104.7,-68.42C107.01,-58.36 111.25,-46.32 119,-38 126.87,-29.55 137.82,-23.63 148.38,-19.53"/>
<polygon fill="#9a32cd" stroke="#9a32cd" points="101.25,-67.83 102.88,-78.3 108.13,-69.1 101.25,-67.83"/>
<text text-anchor="middle" x="147.5" y="-52" font-family="Helvetica,sans-Serif" font-size="10.00"> FrameType</text>
<text text-anchor="middle" x="147.5" y="-41" font-family="Helvetica,sans-Serif" font-size="10.00">LenByte</text>
</g>
<!-- Node4 -->
<g id="node4" class="node">
<title>Node4</title>
<g id="a_node4"><a xlink:title=" ">
<polygon fill="white" stroke="#bfbfbf" points="151,-78.5 151,-97.5 207,-97.5 207,-78.5 151,-78.5"/>
<text text-anchor="middle" x="179" y="-85.5" font-family="Helvetica,sans-Serif" font-size="10.00">uint32_t</text>
</a>
</g>
</g>
<!-- Node4&#45;&gt;Node1 -->
<g id="edge3" class="edge">
<title>Node4&#45;&gt;Node1</title>
<path fill="none" stroke="#9a32cd" stroke-dasharray="5,2" d="M179.74,-68.22C180.35,-52.7 181.2,-31.36 181.66,-19.62"/>
<polygon fill="#9a32cd" stroke="#9a32cd" points="176.24,-68.15 179.34,-78.28 183.24,-68.43 176.24,-68.15"/>
<text text-anchor="middle" x="197.5" y="-46.5" font-family="Helvetica,sans-Serif" font-size="10.00"> BufIdx</text>
</g>
<!-- Node5 -->
<g id="node5" class="node">
<title>Node5</title>
<g id="a_node5"><a xlink:title=" ">
<polygon fill="white" stroke="#bfbfbf" points="225,-78.5 225,-97.5 263,-97.5 263,-78.5 225,-78.5"/>
<text text-anchor="middle" x="244" y="-85.5" font-family="Helvetica,sans-Serif" font-size="10.00">bool</text>
</a>
</g>
</g>
<!-- Node5&#45;&gt;Node1 -->
<g id="edge4" class="edge">
<title>Node5&#45;&gt;Node1</title>
<path fill="none" stroke="#9a32cd" stroke-dasharray="5,2" d="M237.13,-68.74C232.87,-58.95 226.74,-47.07 219,-38 212.81,-30.74 204.29,-24.35 196.99,-19.62"/>
<polygon fill="#9a32cd" stroke="#9a32cd" points="234.01,-70.35 241,-78.31 240.5,-67.73 234.01,-70.35"/>
<text text-anchor="middle" x="271.5" y="-46.5" font-family="Helvetica,sans-Serif" font-size="10.00"> TxConfirmation</text>
</g>
<!-- Node6 -->
<g id="node6" class="node">
<title>Node6</title>
<g id="a_node6"><a xlink:title=" ">
<polygon fill="white" stroke="#bfbfbf" points="319,-78.5 319,-97.5 369,-97.5 369,-78.5 319,-78.5"/>
<text text-anchor="middle" x="344" y="-85.5" font-family="Helvetica,sans-Serif" font-size="10.00">uint8_t</text>
</a>
</g>
</g>
<!-- Node6&#45;&gt;Node1 -->
<g id="edge5" class="edge">
<title>Node6&#45;&gt;Node1</title>
<path fill="none" stroke="#9a32cd" stroke-dasharray="5,2" d="M337.5,-68.61C332.84,-58.07 325.51,-45.48 315,-38 296.67,-24.96 273.5,-17.89 251.66,-14.15"/>
<polygon fill="#9a32cd" stroke="#9a32cd" points="334.37,-70.19 341.29,-78.21 340.88,-67.62 334.37,-70.19"/>
<text text-anchor="middle" x="355" y="-52" font-family="Helvetica,sans-Serif" font-size="10.00"> CtrlIdx</text>
<text text-anchor="middle" x="355" y="-41" font-family="Helvetica,sans-Serif" font-size="10.00">PhysAddr</text>
</g>
</g>
</svg>
