<?xml version="1.0" encoding="UTF-8" standalone="no"?>
<!DOCTYPE svg PUBLIC "-//W3C//DTD SVG 1.1//EN"
 "http://www.w3.org/Graphics/SVG/1.1/DTD/svg11.dtd">
<!-- Generated by graphviz version 2.43.0 (0)
 -->
<!-- Title: r_wm_Msg_DocInfo_t Pages: 1 -->
<svg width="952pt" height="397pt"
 viewBox="0.00 0.00 951.50 397.00" xmlns="http://www.w3.org/2000/svg" xmlns:xlink="http://www.w3.org/1999/xlink">
<g id="graph0" class="graph" transform="scale(1 1) rotate(0) translate(4 393)">
<title>r_wm_Msg_DocInfo_t</title>
<polygon fill="white" stroke="transparent" points="-4,4 -4,-393 947.5,-393 947.5,4 -4,4"/>
<!-- Node1 -->
<g id="node1" class="node">
<title>Node1</title>
<g id="a_node1"><a xlink:title="Data Structure containing the parameters of DOC.">
<polygon fill="#bfbfbf" stroke="black" points="292.5,-0.5 292.5,-19.5 413.5,-19.5 413.5,-0.5 292.5,-0.5"/>
<text text-anchor="middle" x="353" y="-7.5" font-family="Helvetica,sans-Serif" font-size="10.00">r_wm_Msg_DocInfo_t</text>
</a>
</g>
</g>
<!-- Node2 -->
<g id="node2" class="node">
<title>Node2</title>
<g id="a_node2"><a xlink:title=" ">
<polygon fill="white" stroke="#bfbfbf" points="379,-291.5 379,-310.5 435,-310.5 435,-291.5 379,-291.5"/>
<text text-anchor="middle" x="407" y="-298.5" font-family="Helvetica,sans-Serif" font-size="10.00">uint32_t</text>
</a>
</g>
</g>
<!-- Node2&#45;&gt;Node1 -->
<g id="edge1" class="edge">
<title>Node2&#45;&gt;Node1</title>
<path fill="none" stroke="#9a32cd" stroke-dasharray="5,2" d="M402.54,-281.39C396.72,-256.42 386.61,-210.62 381,-171 372.68,-112.27 388.78,-94.26 370,-38 367.82,-31.48 363.77,-24.95 360.16,-19.94"/>
<polygon fill="#9a32cd" stroke="#9a32cd" points="399.18,-282.37 404.88,-291.3 405.99,-280.76 399.18,-282.37"/>
<text text-anchor="middle" x="428" y="-163" font-family="Helvetica,sans-Serif" font-size="10.00"> ActMonLowerTime</text>
<text text-anchor="middle" x="428" y="-152" font-family="Helvetica,sans-Serif" font-size="10.00">ActMonUpperTime</text>
<text text-anchor="middle" x="428" y="-141" font-family="Helvetica,sans-Serif" font-size="10.00">DOC_CH</text>
<text text-anchor="middle" x="428" y="-130" font-family="Helvetica,sans-Serif" font-size="10.00">DU_CH</text>
<text text-anchor="middle" x="428" y="-119" font-family="Helvetica,sans-Serif" font-size="10.00">Enable</text>
<text text-anchor="middle" x="428" y="-108" font-family="Helvetica,sans-Serif" font-size="10.00">Pid</text>
</g>
<!-- Node4 -->
<g id="node4" class="node">
<title>Node4</title>
<g id="a_node4"><a xlink:href="structr__wm__DOC__Status__t.html" target="_top" xlink:title=" ">
<polygon fill="white" stroke="black" points="240,-67.5 240,-86.5 356,-86.5 356,-67.5 240,-67.5"/>
<text text-anchor="middle" x="298" y="-74.5" font-family="Helvetica,sans-Serif" font-size="10.00">r_wm_DOC_Status_t</text>
</a>
</g>
</g>
<!-- Node2&#45;&gt;Node4 -->
<g id="edge4" class="edge">
<title>Node2&#45;&gt;Node4</title>
<path fill="none" stroke="#9a32cd" stroke-dasharray="5,2" d="M383.84,-285.83C361.19,-270.53 327.98,-243.85 313,-211 293.24,-167.66 295.51,-108.44 297.2,-86.57"/>
<polygon fill="#9a32cd" stroke="#9a32cd" points="381.95,-288.78 392.23,-291.32 385.77,-282.92 381.95,-288.78"/>
<text text-anchor="middle" x="341.5" y="-197.5" font-family="Helvetica,sans-Serif" font-size="10.00"> VocSelMon</text>
</g>
<!-- Node5 -->
<g id="node5" class="node">
<title>Node5</title>
<g id="a_node5"><a xlink:href="structr__wm__Doc__DUParam__t.html" target="_top" xlink:title="Data Structure containing the used DU parameters by DOC.">
<polygon fill="white" stroke="black" points="0,-128.5 0,-147.5 128,-147.5 128,-128.5 0,-128.5"/>
<text text-anchor="middle" x="64" y="-135.5" font-family="Helvetica,sans-Serif" font-size="10.00">r_wm_Doc_DUParam_t</text>
</a>
</g>
</g>
<!-- Node2&#45;&gt;Node5 -->
<g id="edge7" class="edge">
<title>Node2&#45;&gt;Node5</title>
<path fill="none" stroke="#9a32cd" stroke-dasharray="5,2" d="M368.75,-298.22C315.71,-295.25 222.97,-288.03 193,-273 132.67,-242.74 84.87,-172.57 69.35,-147.83"/>
<polygon fill="#9a32cd" stroke="#9a32cd" points="368.63,-301.72 378.8,-298.76 369,-294.73 368.63,-301.72"/>
<text text-anchor="middle" x="238.5" y="-265" font-family="Helvetica,sans-Serif" font-size="10.00"> HbackPorchOffset</text>
<text text-anchor="middle" x="238.5" y="-254" font-family="Helvetica,sans-Serif" font-size="10.00">ScreenHeight</text>
<text text-anchor="middle" x="238.5" y="-243" font-family="Helvetica,sans-Serif" font-size="10.00">ScreenWidth</text>
<text text-anchor="middle" x="238.5" y="-232" font-family="Helvetica,sans-Serif" font-size="10.00">VbackPorchOffset</text>
</g>
<!-- Node7 -->
<g id="node7" class="node">
<title>Node7</title>
<g id="a_node7"><a xlink:href="structr__wm__Doc__MonitorParam__t.html" target="_top" xlink:title="Data Structure containing the DOC configuration.">
<polygon fill="white" stroke="black" points="582,-67.5 582,-86.5 732,-86.5 732,-67.5 582,-67.5"/>
<text text-anchor="middle" x="657" y="-74.5" font-family="Helvetica,sans-Serif" font-size="10.00">r_wm_Doc_MonitorParam_t</text>
</a>
</g>
</g>
<!-- Node2&#45;&gt;Node7 -->
<g id="edge18" class="edge">
<title>Node2&#45;&gt;Node7</title>
<path fill="none" stroke="#9a32cd" stroke-dasharray="5,2" d="M407.95,-281.1C410.12,-257.03 417.15,-215.38 440,-189 452.5,-174.57 462.61,-180.78 479,-171 520.98,-145.95 523.36,-127.03 567,-105 582.87,-96.99 601.55,-90.9 617.76,-86.56"/>
<polygon fill="#9a32cd" stroke="#9a32cd" points="404.44,-281.14 407.24,-291.36 411.43,-281.63 404.44,-281.14"/>
<text text-anchor="middle" x="464.5" y="-203" font-family="Helvetica,sans-Serif" font-size="10.00"> threshold</text>
<text text-anchor="middle" x="464.5" y="-192" font-family="Helvetica,sans-Serif" font-size="10.00">vom_num</text>
</g>
<!-- Node9 -->
<g id="node9" class="node">
<title>Node9</title>
<g id="a_node9"><a xlink:href="structr__wm__DOC__rect.html" target="_top" xlink:title="structure describing the DOC Rectangle configuration">
<polygon fill="white" stroke="black" points="497.5,-190.5 497.5,-209.5 592.5,-209.5 592.5,-190.5 497.5,-190.5"/>
<text text-anchor="middle" x="545" y="-197.5" font-family="Helvetica,sans-Serif" font-size="10.00">r_wm_DOC_rect</text>
</a>
</g>
</g>
<!-- Node2&#45;&gt;Node9 -->
<g id="edge12" class="edge">
<title>Node2&#45;&gt;Node9</title>
<path fill="none" stroke="#9a32cd" stroke-dasharray="5,2" d="M427.5,-285.29C456.71,-264.34 509.37,-226.56 532.98,-209.62"/>
<polygon fill="#9a32cd" stroke="#9a32cd" points="425.33,-282.54 419.25,-291.21 429.41,-288.23 425.33,-282.54"/>
<text text-anchor="middle" x="521" y="-254" font-family="Helvetica,sans-Serif" font-size="10.00"> height</text>
<text text-anchor="middle" x="521" y="-243" font-family="Helvetica,sans-Serif" font-size="10.00">width</text>
</g>
<!-- Node13 -->
<g id="node13" class="node">
<title>Node13</title>
<g id="a_node13"><a xlink:href="structr__wm__DOC__pos.html" target="_top" xlink:title="structure describing the DOC Position configuration">
<polygon fill="white" stroke="black" points="610.5,-190.5 610.5,-209.5 703.5,-209.5 703.5,-190.5 610.5,-190.5"/>
<text text-anchor="middle" x="657" y="-197.5" font-family="Helvetica,sans-Serif" font-size="10.00">r_wm_DOC_pos</text>
</a>
</g>
</g>
<!-- Node2&#45;&gt;Node13 -->
<g id="edge17" class="edge">
<title>Node2&#45;&gt;Node13</title>
<path fill="none" stroke="#9a32cd" stroke-dasharray="5,2" d="M445.3,-296.09C472.92,-292.38 510.69,-285.45 542,-273 583.59,-256.47 626.79,-224.81 646.3,-209.59"/>
<polygon fill="#9a32cd" stroke="#9a32cd" points="444.73,-292.63 435.25,-297.36 445.61,-299.57 444.73,-292.63"/>
<text text-anchor="middle" x="633" y="-254" font-family="Helvetica,sans-Serif" font-size="10.00"> pos_x</text>
<text text-anchor="middle" x="633" y="-243" font-family="Helvetica,sans-Serif" font-size="10.00">pos_y</text>
</g>
<!-- Node3 -->
<g id="node3" class="node">
<title>Node3</title>
<g id="a_node3"><a xlink:title=" ">
<polygon fill="white" stroke="#bfbfbf" points="150,-190.5 150,-209.5 188,-209.5 188,-190.5 150,-190.5"/>
<text text-anchor="middle" x="169" y="-197.5" font-family="Helvetica,sans-Serif" font-size="10.00">bool</text>
</a>
</g>
</g>
<!-- Node3&#45;&gt;Node1 -->
<g id="edge2" class="edge">
<title>Node3&#45;&gt;Node1</title>
<path fill="none" stroke="#9a32cd" stroke-dasharray="5,2" d="M160.59,-180.97C149.12,-153.43 132.73,-100.55 158,-67 174.74,-44.77 245.1,-28.65 296.51,-19.57"/>
<polygon fill="#9a32cd" stroke="#9a32cd" points="157.41,-182.45 164.64,-190.19 163.82,-179.63 157.41,-182.45"/>
<text text-anchor="middle" x="194.5" y="-74.5" font-family="Helvetica,sans-Serif" font-size="10.00"> ActMonEnable</text>
</g>
<!-- Node3&#45;&gt;Node4 -->
<g id="edge5" class="edge">
<title>Node3&#45;&gt;Node4</title>
<path fill="none" stroke="#9a32cd" stroke-dasharray="5,2" d="M169.61,-180.32C171.33,-159.11 177.37,-124.91 198,-105 209.32,-94.07 224.59,-87.46 239.78,-83.49"/>
<polygon fill="#9a32cd" stroke="#9a32cd" points="166.11,-180.15 169.04,-190.33 173.1,-180.54 166.11,-180.15"/>
<text text-anchor="middle" x="241" y="-163" font-family="Helvetica,sans-Serif" font-size="10.00"> ActMonError0</text>
<text text-anchor="middle" x="241" y="-152" font-family="Helvetica,sans-Serif" font-size="10.00">ActMonError1</text>
<text text-anchor="middle" x="241" y="-141" font-family="Helvetica,sans-Serif" font-size="10.00">MonitorStatus</text>
<text text-anchor="middle" x="241" y="-130" font-family="Helvetica,sans-Serif" font-size="10.00">ParameterError</text>
<text text-anchor="middle" x="241" y="-119" font-family="Helvetica,sans-Serif" font-size="10.00">VocMonitorStatus</text>
<text text-anchor="middle" x="241" y="-108" font-family="Helvetica,sans-Serif" font-size="10.00">VomError</text>
</g>
<!-- Node4&#45;&gt;Node1 -->
<g id="edge3" class="edge">
<title>Node4&#45;&gt;Node1</title>
<path fill="none" stroke="#9a32cd" stroke-dasharray="5,2" d="M308.47,-59C312.94,-52.22 318.41,-44.5 324,-38 329.65,-31.43 336.77,-24.79 342.53,-19.73"/>
<polygon fill="#9a32cd" stroke="#9a32cd" points="305.5,-57.15 303.08,-67.46 311.4,-60.91 305.5,-57.15"/>
<text text-anchor="middle" x="347" y="-41" font-family="Helvetica,sans-Serif" font-size="10.00"> Callback</text>
</g>
<!-- Node5&#45;&gt;Node1 -->
<g id="edge6" class="edge">
<title>Node5&#45;&gt;Node1</title>
<path fill="none" stroke="#9a32cd" stroke-dasharray="5,2" d="M61.41,-118.03C60.37,-102.83 61.37,-81.69 72,-67 90.07,-42.03 105.35,-46.44 135,-38 186.9,-23.23 248.03,-16.54 292.33,-13.51"/>
<polygon fill="#9a32cd" stroke="#9a32cd" points="57.96,-118.71 62.47,-128.29 64.92,-117.99 57.96,-118.71"/>
<text text-anchor="middle" x="99.5" y="-74.5" font-family="Helvetica,sans-Serif" font-size="10.00"> DU_param</text>
</g>
<!-- Node6 -->
<g id="node6" class="node">
<title>Node6</title>
<g id="a_node6"><a xlink:title=" ">
<polygon fill="white" stroke="#bfbfbf" points="412,-67.5 412,-86.5 458,-86.5 458,-67.5 412,-67.5"/>
<text text-anchor="middle" x="435" y="-74.5" font-family="Helvetica,sans-Serif" font-size="10.00">void *</text>
</a>
</g>
</g>
<!-- Node6&#45;&gt;Node1 -->
<g id="edge8" class="edge">
<title>Node6&#45;&gt;Node1</title>
<path fill="none" stroke="#9a32cd" stroke-dasharray="5,2" d="M420.75,-59.56C414.2,-52.49 406.1,-44.41 398,-38 389.14,-30.99 378.31,-24.43 369.49,-19.54"/>
<polygon fill="#9a32cd" stroke="#9a32cd" points="418.34,-62.12 427.63,-67.22 423.55,-57.44 418.34,-62.12"/>
<text text-anchor="middle" x="426.5" y="-41" font-family="Helvetica,sans-Serif" font-size="10.00"> CbArg</text>
</g>
<!-- Node7&#45;&gt;Node1 -->
<g id="edge9" class="edge">
<title>Node7&#45;&gt;Node1</title>
<path fill="none" stroke="#9a32cd" stroke-dasharray="5,2" d="M606.97,-65.3C547.15,-52.51 448.21,-31.36 393.14,-19.58"/>
<polygon fill="#9a32cd" stroke="#9a32cd" points="606.43,-68.77 616.94,-67.44 607.9,-61.92 606.43,-68.77"/>
<text text-anchor="middle" x="555.5" y="-41" font-family="Helvetica,sans-Serif" font-size="10.00"> DocMonitors</text>
</g>
<!-- Node8 -->
<g id="node8" class="node">
<title>Node8</title>
<g id="a_node8"><a xlink:title=" ">
<polygon fill="white" stroke="#bfbfbf" points="722,-190.5 722,-209.5 766,-209.5 766,-190.5 722,-190.5"/>
<text text-anchor="middle" x="744" y="-197.5" font-family="Helvetica,sans-Serif" font-size="10.00">_Bool</text>
</a>
</g>
</g>
<!-- Node8&#45;&gt;Node7 -->
<g id="edge10" class="edge">
<title>Node8&#45;&gt;Node7</title>
<path fill="none" stroke="#9a32cd" stroke-dasharray="5,2" d="M733.82,-181.77C722.14,-162.46 702.02,-130.53 682,-105 676.95,-98.57 670.7,-91.82 665.72,-86.67"/>
<polygon fill="#9a32cd" stroke="#9a32cd" points="730.83,-183.6 738.97,-190.38 736.84,-180 730.83,-183.6"/>
<text text-anchor="middle" x="743.5" y="-141" font-family="Helvetica,sans-Serif" font-size="10.00"> Enable</text>
<text text-anchor="middle" x="743.5" y="-130" font-family="Helvetica,sans-Serif" font-size="10.00">in_use</text>
</g>
<!-- Node9&#45;&gt;Node7 -->
<g id="edge11" class="edge">
<title>Node9&#45;&gt;Node7</title>
<path fill="none" stroke="#9a32cd" stroke-dasharray="5,2" d="M559.68,-182.71C576.7,-163.87 605.66,-131.99 631,-105 636.7,-98.93 643.2,-92.18 648.28,-86.95"/>
<polygon fill="#9a32cd" stroke="#9a32cd" points="556.85,-180.61 552.75,-190.38 562.05,-185.3 556.85,-180.61"/>
<text text-anchor="middle" x="642" y="-135.5" font-family="Helvetica,sans-Serif" font-size="10.00"> rect</text>
</g>
<!-- Node10 -->
<g id="node10" class="node">
<title>Node10</title>
<g id="a_node10"><a xlink:href="structr__wm__DOC__Color.html" target="_top" xlink:title=" ">
<polygon fill="white" stroke="black" points="825.5,-190.5 825.5,-209.5 926.5,-209.5 926.5,-190.5 825.5,-190.5"/>
<text text-anchor="middle" x="876" y="-197.5" font-family="Helvetica,sans-Serif" font-size="10.00">r_wm_DOC_Color</text>
</a>
</g>
</g>
<!-- Node10&#45;&gt;Node7 -->
<g id="edge13" class="edge">
<title>Node10&#45;&gt;Node7</title>
<path fill="none" stroke="#9a32cd" stroke-dasharray="5,2" d="M868.28,-181.15C857.9,-159.44 837.3,-123.4 808,-105 795.03,-96.86 763.24,-90.58 732.16,-86.14"/>
<polygon fill="#9a32cd" stroke="#9a32cd" points="865.1,-182.62 872.44,-190.27 871.47,-179.71 865.1,-182.62"/>
<text text-anchor="middle" x="876" y="-135.5" font-family="Helvetica,sans-Serif" font-size="10.00"> color</text>
</g>
<!-- Node11 -->
<g id="node11" class="node">
<title>Node11</title>
<g id="a_node11"><a xlink:href="structr__wm__Doc__Threshold.html" target="_top" xlink:title=" ">
<polygon fill="white" stroke="black" points="822.5,-291.5 822.5,-310.5 943.5,-310.5 943.5,-291.5 822.5,-291.5"/>
<text text-anchor="middle" x="883" y="-298.5" font-family="Helvetica,sans-Serif" font-size="10.00">r_wm_Doc_Threshold</text>
</a>
</g>
</g>
<!-- Node11&#45;&gt;Node10 -->
<g id="edge14" class="edge">
<title>Node11&#45;&gt;Node10</title>
<path fill="none" stroke="#9a32cd" stroke-dasharray="5,2" d="M881.66,-281.03C880.14,-259.54 877.73,-225.47 876.61,-209.62"/>
<polygon fill="#9a32cd" stroke="#9a32cd" points="878.18,-281.49 882.38,-291.21 885.16,-280.99 878.18,-281.49"/>
<text text-anchor="middle" x="894" y="-259.5" font-family="Helvetica,sans-Serif" font-size="10.00"> blue</text>
<text text-anchor="middle" x="894" y="-248.5" font-family="Helvetica,sans-Serif" font-size="10.00">green</text>
<text text-anchor="middle" x="894" y="-237.5" font-family="Helvetica,sans-Serif" font-size="10.00">red</text>
</g>
<!-- Node12 -->
<g id="node12" class="node">
<title>Node12</title>
<g id="a_node12"><a xlink:title=" ">
<polygon fill="white" stroke="#bfbfbf" points="785,-369.5 785,-388.5 835,-388.5 835,-369.5 785,-369.5"/>
<text text-anchor="middle" x="810" y="-376.5" font-family="Helvetica,sans-Serif" font-size="10.00">uint8_t</text>
</a>
</g>
</g>
<!-- Node12&#45;&gt;Node7 -->
<g id="edge19" class="edge">
<title>Node12&#45;&gt;Node7</title>
<path fill="none" stroke="#9a32cd" stroke-dasharray="5,2" d="M809.58,-359.11C807.95,-303.55 800.3,-142.27 766,-105 758.67,-97.04 737.21,-90.9 715.24,-86.51"/>
<polygon fill="#9a32cd" stroke="#9a32cd" points="806.08,-359.37 809.84,-369.28 813.08,-359.19 806.08,-359.37"/>
<text text-anchor="middle" x="818.5" y="-248.5" font-family="Helvetica,sans-Serif" font-size="10.00"> CLUT</text>
</g>
<!-- Node12&#45;&gt;Node11 -->
<g id="edge15" class="edge">
<title>Node12&#45;&gt;Node11</title>
<path fill="none" stroke="#9a32cd" stroke-dasharray="5,2" d="M825.49,-361.88C840.53,-346.22 862.79,-323.04 874.72,-310.62"/>
<polygon fill="#9a32cd" stroke="#9a32cd" points="822.78,-359.65 818.37,-369.28 827.83,-364.49 822.78,-359.65"/>
<text text-anchor="middle" x="870.5" y="-343" font-family="Helvetica,sans-Serif" font-size="10.00"> lower</text>
<text text-anchor="middle" x="870.5" y="-332" font-family="Helvetica,sans-Serif" font-size="10.00">upper</text>
</g>
<!-- Node13&#45;&gt;Node7 -->
<g id="edge16" class="edge">
<title>Node13&#45;&gt;Node7</title>
<path fill="none" stroke="#9a32cd" stroke-dasharray="5,2" d="M657,-179.99C657,-153.35 657,-106 657,-86.62"/>
<polygon fill="#9a32cd" stroke="#9a32cd" points="653.5,-180.3 657,-190.3 660.5,-180.3 653.5,-180.3"/>
<text text-anchor="middle" x="667.5" y="-135.5" font-family="Helvetica,sans-Serif" font-size="10.00"> pos</text>
</g>
</g>
</svg>
