<?xml version="1.0" encoding="UTF-8" standalone="no"?>
<!DOCTYPE svg PUBLIC "-//W3C//DTD SVG 1.1//EN"
 "http://www.w3.org/Graphics/SVG/1.1/DTD/svg11.dtd">
<!-- Generated by graphviz version 2.43.0 (0)
 -->
<!-- Title: taurus_camera_channel_info Pages: 1 -->
<svg width="165pt" height="128pt"
 viewBox="0.00 0.00 165.00 128.00" xmlns="http://www.w3.org/2000/svg" xmlns:xlink="http://www.w3.org/1999/xlink">
<g id="graph0" class="graph" transform="scale(1 1) rotate(0) translate(4 124)">
<title>taurus_camera_channel_info</title>
<polygon fill="white" stroke="transparent" points="-4,4 -4,-124 161,-124 161,4 -4,4"/>
<!-- Node1 -->
<g id="node1" class="node">
<title>Node1</title>
<g id="a_node1"><a xlink:title=" ">
<polygon fill="#bfbfbf" stroke="black" points="0,-0.5 0,-19.5 157,-19.5 157,-0.5 0,-0.5"/>
<text text-anchor="middle" x="78.5" y="-7.5" font-family="Helvetica,sans-Serif" font-size="10.00">taurus_camera_channel_info</text>
</a>
</g>
</g>
<!-- Node2 -->
<g id="node2" class="node">
<title>Node2</title>
<g id="a_node2"><a xlink:title=" ">
<polygon fill="white" stroke="#bfbfbf" points="50.5,-100.5 50.5,-119.5 106.5,-119.5 106.5,-100.5 50.5,-100.5"/>
<text text-anchor="middle" x="78.5" y="-107.5" font-family="Helvetica,sans-Serif" font-size="10.00">uint32_t</text>
</a>
</g>
</g>
<!-- Node2&#45;&gt;Node1 -->
<g id="edge1" class="edge">
<title>Node2&#45;&gt;Node1</title>
<path fill="none" stroke="#9a32cd" stroke-dasharray="5,2" d="M78.5,-90.22C78.5,-68.95 78.5,-35.22 78.5,-19.54"/>
<polygon fill="#9a32cd" stroke="#9a32cd" points="75,-90.3 78.5,-100.3 82,-90.3 75,-90.3"/>
<text text-anchor="middle" x="117" y="-74" font-family="Helvetica,sans-Serif" font-size="10.00"> height</text>
<text text-anchor="start" x="78.5" y="-63" font-family="Helvetica,sans-Serif" font-size="10.00">vacant_buf_cell</text>
<text text-anchor="middle" x="117" y="-52" font-family="Helvetica,sans-Serif" font-size="10.00">_cnt</text>
<text text-anchor="middle" x="117" y="-41" font-family="Helvetica,sans-Serif" font-size="10.00">width</text>
</g>
</g>
</svg>
