<?xml version="1.0" encoding="UTF-8" standalone="no"?>
<!DOCTYPE svg PUBLIC "-//W3C//DTD SVG 1.1//EN"
 "http://www.w3.org/Graphics/SVG/1.1/DTD/svg11.dtd">
<!-- Generated by graphviz version 2.43.0 (0)
 -->
<!-- Title: taurus_can_cmd_msg Pages: 1 -->
<svg width="469pt" height="622pt"
 viewBox="0.00 0.00 469.00 621.54" xmlns="http://www.w3.org/2000/svg" xmlns:xlink="http://www.w3.org/1999/xlink">
<g id="graph0" class="graph" transform="scale(1 1) rotate(0) translate(4 617.54)">
<title>taurus_can_cmd_msg</title>
<polygon fill="white" stroke="transparent" points="-4,4 -4,-617.54 465,-617.54 465,4 -4,4"/>
<!-- Node1 -->
<g id="node1" class="node">
<title>Node1</title>
<g id="a_node1"><a xlink:title=" ">
<polygon fill="#bfbfbf" stroke="black" points="339,-293.04 339,-312.04 461,-312.04 461,-293.04 339,-293.04"/>
<text text-anchor="middle" x="400" y="-300.04" font-family="Helvetica,sans-Serif" font-size="10.00">taurus_can_cmd_msg</text>
</a>
</g>
</g>
<!-- Node2 -->
<g id="node2" class="node">
<title>Node2</title>
<g id="a_node2"><a xlink:title=" ">
<polygon fill="white" stroke="#bfbfbf" points="142,-508.04 142,-527.04 255,-527.04 255,-508.04 142,-508.04"/>
<text text-anchor="middle" x="198.5" y="-515.04" font-family="Helvetica,sans-Serif" font-size="10.00">anonymous:params</text>
</a>
</g>
</g>
<!-- Node2&#45;&gt;Node1 -->
<g id="edge1" class="edge">
<title>Node2&#45;&gt;Node1</title>
<path fill="none" stroke="#9a32cd" stroke-dasharray="5,2" d="M252.77,-503.9C255.99,-502.3 259.1,-500.52 262,-498.54 335.69,-448.16 382.23,-344.16 395.25,-312.13"/>
<polygon fill="#9a32cd" stroke="#9a32cd" points="251.22,-500.75 243.43,-507.93 254,-507.18 251.22,-500.75"/>
<text text-anchor="middle" x="300.5" y="-486.54" font-family="Helvetica,sans-Serif" font-size="10.00"> params</text>
</g>
<!-- Node3 -->
<g id="node3" class="node">
<title>Node3</title>
<g id="a_node3"><a xlink:href="structtaurus__can__write__in.html" target="_top" xlink:title=" ">
<polygon fill="white" stroke="black" points="141.5,-470.04 141.5,-489.04 255.5,-489.04 255.5,-470.04 141.5,-470.04"/>
<text text-anchor="middle" x="198.5" y="-477.04" font-family="Helvetica,sans-Serif" font-size="10.00">taurus_can_write_in</text>
</a>
</g>
</g>
<!-- Node3&#45;&gt;Node1 -->
<g id="edge2" class="edge">
<title>Node3&#45;&gt;Node1</title>
<path fill="none" stroke="#9a32cd" stroke-dasharray="5,2" d="M218.22,-463.15C242.12,-442.2 284.73,-404.78 321,-372.54 345.21,-351.02 373.46,-325.58 388.43,-312.08"/>
<polygon fill="#9a32cd" stroke="#9a32cd" points="215.8,-460.61 210.59,-469.84 220.42,-465.88 215.8,-460.61"/>
<text text-anchor="middle" x="300.5" y="-411.54" font-family="Helvetica,sans-Serif" font-size="10.00"> write</text>
</g>
<!-- Node4 -->
<g id="node4" class="node">
<title>Node4</title>
<g id="a_node4"><a xlink:title=" ">
<polygon fill="white" stroke="#bfbfbf" points="0,-346.04 0,-365.04 56,-365.04 56,-346.04 0,-346.04"/>
<text text-anchor="middle" x="28" y="-353.04" font-family="Helvetica,sans-Serif" font-size="10.00">uint64_t</text>
</a>
</g>
</g>
<!-- Node4&#45;&gt;Node3 -->
<g id="edge3" class="edge">
<title>Node4&#45;&gt;Node3</title>
<path fill="none" stroke="#9a32cd" stroke-dasharray="5,2" d="M30.89,-375.49C35.43,-418.47 48.47,-517.55 74,-537.54 89.05,-549.32 100.9,-547.84 117,-537.54 133.08,-527.25 120.61,-511.08 135,-498.54 139.45,-494.66 144.66,-491.58 150.16,-489.12"/>
<polygon fill="#9a32cd" stroke="#9a32cd" points="34.36,-375.01 29.88,-365.41 27.4,-375.71 34.36,-375.01"/>
<text text-anchor="middle" x="95.5" y="-548.54" font-family="Helvetica,sans-Serif" font-size="10.00"> cookie</text>
</g>
<!-- Node7 -->
<g id="node7" class="node">
<title>Node7</title>
<g id="a_node7"><a xlink:href="structtaurus__can__ioc__op2__in.html" target="_top" xlink:title=" ">
<polygon fill="white" stroke="black" points="135,-380.04 135,-399.04 262,-399.04 262,-380.04 135,-380.04"/>
<text text-anchor="middle" x="198.5" y="-387.04" font-family="Helvetica,sans-Serif" font-size="10.00">taurus_can_ioc_op2_in</text>
</a>
</g>
</g>
<!-- Node4&#45;&gt;Node7 -->
<g id="edge7" class="edge">
<title>Node4&#45;&gt;Node7</title>
<path fill="none" stroke="#9a32cd" stroke-dasharray="5,2" d="M31.69,-375.46C37.35,-414.07 51.83,-496.8 74,-513.54 89.25,-525.05 101.46,-524.67 117,-513.54 137.22,-499.05 122.54,-482.07 135,-460.54 149.31,-435.81 173.04,-411.89 186.78,-399.11"/>
<polygon fill="#9a32cd" stroke="#9a32cd" points="35.13,-374.83 30.27,-365.42 28.2,-375.81 35.13,-374.83"/>
<text text-anchor="middle" x="95.5" y="-525.54" font-family="Helvetica,sans-Serif" font-size="10.00"> cookie</text>
</g>
<!-- Node8 -->
<g id="node8" class="node">
<title>Node8</title>
<g id="a_node8"><a xlink:href="structtaurus__can__ioc__op1__in.html" target="_top" xlink:title=" ">
<polygon fill="white" stroke="black" points="135,-255.04 135,-274.04 262,-274.04 262,-255.04 135,-255.04"/>
<text text-anchor="middle" x="198.5" y="-262.04" font-family="Helvetica,sans-Serif" font-size="10.00">taurus_can_ioc_op1_in</text>
</a>
</g>
</g>
<!-- Node4&#45;&gt;Node8 -->
<g id="edge10" class="edge">
<title>Node4&#45;&gt;Node8</title>
<path fill="none" stroke="#9a32cd" stroke-dasharray="5,2" d="M36.82,-336.41C44.13,-321.02 56.54,-300.12 74,-288.54 91.84,-276.71 114.12,-270.42 134.82,-267.16"/>
<polygon fill="#9a32cd" stroke="#9a32cd" points="33.42,-335.44 32.58,-346 39.82,-338.27 33.42,-335.44"/>
<text text-anchor="middle" x="95.5" y="-291.54" font-family="Helvetica,sans-Serif" font-size="10.00"> cookie</text>
</g>
<!-- Node9 -->
<g id="node9" class="node">
<title>Node9</title>
<g id="a_node9"><a xlink:href="structtaurus__can__read__in.html" target="_top" xlink:title=" ">
<polygon fill="white" stroke="black" points="143,-293.04 143,-312.04 254,-312.04 254,-293.04 143,-293.04"/>
<text text-anchor="middle" x="198.5" y="-300.04" font-family="Helvetica,sans-Serif" font-size="10.00">taurus_can_read_in</text>
</a>
</g>
</g>
<!-- Node4&#45;&gt;Node9 -->
<g id="edge14" class="edge">
<title>Node4&#45;&gt;Node9</title>
<path fill="none" stroke="#9a32cd" stroke-dasharray="5,2" d="M66.44,-349.14C82.43,-345.66 101.05,-340.59 117,-333.54 125.79,-329.65 126.31,-325.65 135,-321.54 142.79,-317.85 151.47,-314.68 159.81,-312.05"/>
<polygon fill="#9a32cd" stroke="#9a32cd" points="65.46,-345.77 56.36,-351.2 66.86,-352.63 65.46,-345.77"/>
<text text-anchor="middle" x="95.5" y="-350.54" font-family="Helvetica,sans-Serif" font-size="10.00"> cookie</text>
</g>
<!-- Node10 -->
<g id="node10" class="node">
<title>Node10</title>
<g id="a_node10"><a xlink:href="structtaurus__can__open__in.html" target="_top" xlink:title=" ">
<polygon fill="white" stroke="black" points="142,-98.04 142,-117.04 255,-117.04 255,-98.04 142,-98.04"/>
<text text-anchor="middle" x="198.5" y="-105.04" font-family="Helvetica,sans-Serif" font-size="10.00">taurus_can_open_in</text>
</a>
</g>
</g>
<!-- Node4&#45;&gt;Node10 -->
<g id="edge17" class="edge">
<title>Node4&#45;&gt;Node10</title>
<path fill="none" stroke="#9a32cd" stroke-dasharray="5,2" d="M32.9,-335.69C38.18,-308.73 47.89,-259.01 56,-216.54 64.14,-173.9 42.09,-149.97 74,-120.54 91.91,-104.02 118.07,-99.55 141.71,-99.71"/>
<polygon fill="#9a32cd" stroke="#9a32cd" points="29.41,-335.28 30.92,-345.77 36.28,-336.63 29.41,-335.28"/>
<text text-anchor="middle" x="95.5" y="-123.54" font-family="Helvetica,sans-Serif" font-size="10.00"> cookie</text>
</g>
<!-- Node11 -->
<g id="node11" class="node">
<title>Node11</title>
<g id="a_node11"><a xlink:href="structtaurus__can__close__in.html" target="_top" xlink:title=" ">
<polygon fill="white" stroke="black" points="141,-331.04 141,-350.04 256,-350.04 256,-331.04 141,-331.04"/>
<text text-anchor="middle" x="198.5" y="-338.04" font-family="Helvetica,sans-Serif" font-size="10.00">taurus_can_close_in</text>
</a>
</g>
</g>
<!-- Node4&#45;&gt;Node11 -->
<g id="edge20" class="edge">
<title>Node4&#45;&gt;Node11</title>
<path fill="none" stroke="#9a32cd" stroke-dasharray="5,2" d="M35.78,-374.86C42.64,-391.12 54.97,-413.31 74,-423.54 90.83,-432.58 101.46,-434.67 117,-423.54 137.22,-409.05 118.5,-389.15 135,-370.54 143.14,-361.35 154.72,-354.72 165.7,-350.07"/>
<polygon fill="#9a32cd" stroke="#9a32cd" points="38.92,-373.28 32.05,-365.21 32.4,-375.8 38.92,-373.28"/>
<text text-anchor="middle" x="95.5" y="-434.54" font-family="Helvetica,sans-Serif" font-size="10.00"> cookie</text>
</g>
<!-- Node12 -->
<g id="node12" class="node">
<title>Node12</title>
<g id="a_node12"><a xlink:href="structR__TAURUS__CmdMsg__t.html" target="_top" xlink:title=" ">
<polygon fill="white" stroke="black" points="136,-188.04 136,-207.04 261,-207.04 261,-188.04 136,-188.04"/>
<text text-anchor="middle" x="198.5" y="-195.04" font-family="Helvetica,sans-Serif" font-size="10.00">R_TAURUS_CmdMsg_t</text>
</a>
</g>
</g>
<!-- Node4&#45;&gt;Node12 -->
<g id="edge23" class="edge">
<title>Node4&#45;&gt;Node12</title>
<path fill="none" stroke="#9a32cd" stroke-dasharray="5,2" d="M31.55,-335.8C37.05,-296.7 51.38,-211.7 74,-194.54 101.51,-173.67 143.26,-180.23 170.46,-187.98"/>
<polygon fill="#9a32cd" stroke="#9a32cd" points="28.05,-335.54 30.18,-345.92 34.99,-336.48 28.05,-335.54"/>
<text text-anchor="middle" x="95.5" y="-219.54" font-family="Helvetica,sans-Serif" font-size="10.00"> Par1</text>
<text text-anchor="middle" x="95.5" y="-208.54" font-family="Helvetica,sans-Serif" font-size="10.00">Par2</text>
<text text-anchor="middle" x="95.5" y="-197.54" font-family="Helvetica,sans-Serif" font-size="10.00">Par3</text>
</g>
<!-- Node5 -->
<g id="node5" class="node">
<title>Node5</title>
<g id="a_node5"><a xlink:title=" ">
<polygon fill="white" stroke="#bfbfbf" points="9,-594.04 9,-613.04 47,-613.04 47,-594.04 9,-594.04"/>
<text text-anchor="middle" x="28" y="-601.04" font-family="Helvetica,sans-Serif" font-size="10.00">char</text>
</a>
</g>
</g>
<!-- Node5&#45;&gt;Node3 -->
<g id="edge4" class="edge">
<title>Node5&#45;&gt;Node3</title>
<path fill="none" stroke="#9a32cd" stroke-dasharray="5,2" d="M56.83,-596.46C76.31,-590.12 101.53,-578.93 117,-560.54 135.47,-538.58 114.84,-518.95 135,-498.54 138.83,-494.66 143.41,-491.58 148.34,-489.11"/>
<polygon fill="#9a32cd" stroke="#9a32cd" points="55.81,-593.11 47.24,-599.34 57.83,-599.81 55.81,-593.11"/>
<text text-anchor="middle" x="95.5" y="-591.54" font-family="Helvetica,sans-Serif" font-size="10.00"> data</text>
</g>
<!-- Node6 -->
<g id="node6" class="node">
<title>Node6</title>
<g id="a_node6"><a xlink:title=" ">
<polygon fill="white" stroke="#bfbfbf" points="0,-188.04 0,-207.04 56,-207.04 56,-188.04 0,-188.04"/>
<text text-anchor="middle" x="28" y="-195.04" font-family="Helvetica,sans-Serif" font-size="10.00">uint32_t</text>
</a>
</g>
</g>
<!-- Node6&#45;&gt;Node1 -->
<g id="edge12" class="edge">
<title>Node6&#45;&gt;Node1</title>
<path fill="none" stroke="#9a32cd" stroke-dasharray="5,2" d="M30.65,-177.52C34.78,-132.94 47.22,-27.74 74,-6.54 88.98,5.33 98.38,-2.22 117,-6.54 186.9,-22.73 208.99,-29.18 262,-77.54 334.98,-144.12 382.34,-258.53 395.36,-292.65"/>
<polygon fill="#9a32cd" stroke="#9a32cd" points="27.15,-177.42 29.76,-187.69 34.12,-178.03 27.15,-177.42"/>
<text text-anchor="middle" x="198.5" y="-80.54" font-family="Helvetica,sans-Serif" font-size="10.00"> type</text>
</g>
<!-- Node6&#45;&gt;Node3 -->
<g id="edge5" class="edge">
<title>Node6&#45;&gt;Node3</title>
<path fill="none" stroke="#9a32cd" stroke-dasharray="5,2" d="M33.04,-217.36C38.49,-244.29 48.39,-293.98 56,-336.54 60.36,-360.92 57.37,-428.18 74,-446.54 90.98,-465.29 117.33,-473.89 141.34,-477.65"/>
<polygon fill="#9a32cd" stroke="#9a32cd" points="36.42,-216.4 31,-207.29 29.56,-217.79 36.42,-216.4"/>
<text text-anchor="middle" x="95.5" y="-496.54" font-family="Helvetica,sans-Serif" font-size="10.00"> can_ch</text>
<text text-anchor="middle" x="95.5" y="-485.54" font-family="Helvetica,sans-Serif" font-size="10.00">data_len</text>
<text text-anchor="middle" x="95.5" y="-474.54" font-family="Helvetica,sans-Serif" font-size="10.00">node_id</text>
</g>
<!-- Node6&#45;&gt;Node7 -->
<g id="edge8" class="edge">
<title>Node6&#45;&gt;Node7</title>
<path fill="none" stroke="#9a32cd" stroke-dasharray="5,2" d="M31.77,-217.12C37.72,-256.33 52.9,-342.48 74,-362.54 90.23,-377.96 113.13,-385.38 134.81,-388.72"/>
<polygon fill="#9a32cd" stroke="#9a32cd" points="35.23,-216.57 30.31,-207.19 28.3,-217.59 35.23,-216.57"/>
<text text-anchor="middle" x="95.5" y="-410.54" font-family="Helvetica,sans-Serif" font-size="10.00"> arg1</text>
<text text-anchor="middle" x="95.5" y="-399.54" font-family="Helvetica,sans-Serif" font-size="10.00">arg2</text>
<text text-anchor="middle" x="95.5" y="-388.54" font-family="Helvetica,sans-Serif" font-size="10.00">can_ch</text>
</g>
<!-- Node6&#45;&gt;Node8 -->
<g id="edge11" class="edge">
<title>Node6&#45;&gt;Node8</title>
<path fill="none" stroke="#9a32cd" stroke-dasharray="5,2" d="M38.43,-178.95C46.08,-166.11 58.19,-150.03 74,-142.54 91.27,-134.35 101.97,-130.73 117,-142.54 143.61,-163.45 116.53,-188.17 135,-216.54 145.98,-233.39 164.95,-246.72 179.13,-255.01"/>
<polygon fill="#9a32cd" stroke="#9a32cd" points="35.23,-177.51 33.46,-187.95 41.36,-180.89 35.23,-177.51"/>
<text text-anchor="middle" x="95.5" y="-167.54" font-family="Helvetica,sans-Serif" font-size="10.00"> arg1</text>
<text text-anchor="middle" x="95.5" y="-156.54" font-family="Helvetica,sans-Serif" font-size="10.00">arg2</text>
<text text-anchor="middle" x="95.5" y="-145.54" font-family="Helvetica,sans-Serif" font-size="10.00">can_ch</text>
</g>
<!-- Node6&#45;&gt;Node9 -->
<g id="edge15" class="edge">
<title>Node6&#45;&gt;Node9</title>
<path fill="none" stroke="#9a32cd" stroke-dasharray="5,2" d="M49.22,-213.63C56.84,-219.48 65.68,-226 74,-231.54 92.41,-243.78 100.9,-241.39 117,-256.54 127.51,-266.42 123.42,-274.94 135,-283.54 140.19,-287.39 146.17,-290.47 152.32,-292.93"/>
<polygon fill="#9a32cd" stroke="#9a32cd" points="50.98,-210.56 40.94,-207.18 46.67,-216.09 50.98,-210.56"/>
<text text-anchor="middle" x="95.5" y="-259.54" font-family="Helvetica,sans-Serif" font-size="10.00"> can_ch</text>
</g>
<!-- Node6&#45;&gt;Node10 -->
<g id="edge18" class="edge">
<title>Node6&#45;&gt;Node10</title>
<path fill="none" stroke="#9a32cd" stroke-dasharray="5,2" d="M30.98,-177.64C35.64,-135.21 48.89,-38.12 74,-18.54 118.39,16.08 174.41,-68.52 191.97,-97.92"/>
<polygon fill="#9a32cd" stroke="#9a32cd" points="27.47,-177.52 29.91,-187.83 34.43,-178.25 27.47,-177.52"/>
<text text-anchor="middle" x="95.5" y="-21.54" font-family="Helvetica,sans-Serif" font-size="10.00"> can_ch</text>
</g>
<!-- Node6&#45;&gt;Node11 -->
<g id="edge21" class="edge">
<title>Node6&#45;&gt;Node11</title>
<path fill="none" stroke="#9a32cd" stroke-dasharray="5,2" d="M32.74,-217.02C38.09,-239.79 50.04,-277.19 74,-299.54 86.27,-310.98 125.86,-322.94 156.95,-330.97"/>
<polygon fill="#9a32cd" stroke="#9a32cd" points="36.15,-216.19 30.63,-207.15 29.3,-217.66 36.15,-216.19"/>
<text text-anchor="middle" x="95.5" y="-322.54" font-family="Helvetica,sans-Serif" font-size="10.00"> can_ch</text>
</g>
<!-- Node6&#45;&gt;Node12 -->
<g id="edge24" class="edge">
<title>Node6&#45;&gt;Node12</title>
<path fill="none" stroke="#9a32cd" stroke-dasharray="5,2" d="M31.73,-177.87C37.46,-139.74 52.06,-58.04 74,-41.54 89.27,-30.05 102.15,-29.51 117,-41.54 147,-65.85 117.68,-92.03 135,-126.54 147.67,-151.78 171.53,-175.15 185.82,-187.78"/>
<polygon fill="#9a32cd" stroke="#9a32cd" points="28.26,-177.38 30.29,-187.78 35.19,-178.39 28.26,-177.38"/>
<text text-anchor="middle" x="95.5" y="-77.54" font-family="Helvetica,sans-Serif" font-size="10.00"> Channel</text>
<text text-anchor="middle" x="95.5" y="-66.54" font-family="Helvetica,sans-Serif" font-size="10.00">Cmd</text>
<text text-anchor="middle" x="95.5" y="-55.54" font-family="Helvetica,sans-Serif" font-size="10.00">Id</text>
<text text-anchor="middle" x="95.5" y="-44.54" font-family="Helvetica,sans-Serif" font-size="10.00">Per</text>
</g>
<!-- Node7&#45;&gt;Node1 -->
<g id="edge6" class="edge">
<title>Node7&#45;&gt;Node1</title>
<path fill="none" stroke="#9a32cd" stroke-dasharray="5,2" d="M234.41,-376.21C258.84,-366.7 292.14,-353.37 321,-340.54 341.51,-331.42 364.57,-320.04 380.26,-312.13"/>
<polygon fill="#9a32cd" stroke="#9a32cd" points="232.91,-373.04 224.85,-379.91 235.44,-379.56 232.91,-373.04"/>
<text text-anchor="middle" x="300.5" y="-360.54" font-family="Helvetica,sans-Serif" font-size="10.00"> ioc_op2</text>
</g>
<!-- Node8&#45;&gt;Node1 -->
<g id="edge9" class="edge">
<title>Node8&#45;&gt;Node1</title>
<path fill="none" stroke="#9a32cd" stroke-dasharray="5,2" d="M260.01,-275.96C279.49,-279.64 301.16,-283.75 321,-287.54 330.21,-289.3 340.03,-291.18 349.49,-292.99"/>
<polygon fill="#9a32cd" stroke="#9a32cd" points="260.53,-272.49 250.05,-274.07 259.22,-279.37 260.53,-272.49"/>
<text text-anchor="middle" x="300.5" y="-290.54" font-family="Helvetica,sans-Serif" font-size="10.00"> ioc_op1</text>
</g>
<!-- Node9&#45;&gt;Node1 -->
<g id="edge13" class="edge">
<title>Node9&#45;&gt;Node1</title>
<path fill="none" stroke="#9a32cd" stroke-dasharray="5,2" d="M264.11,-302.54C288.15,-302.54 315.32,-302.54 338.94,-302.54"/>
<polygon fill="#9a32cd" stroke="#9a32cd" points="264.01,-299.04 254.01,-302.54 264.01,-306.04 264.01,-299.04"/>
<text text-anchor="middle" x="300.5" y="-305.54" font-family="Helvetica,sans-Serif" font-size="10.00"> read</text>
</g>
<!-- Node10&#45;&gt;Node1 -->
<g id="edge16" class="edge">
<title>Node10&#45;&gt;Node1</title>
<path fill="none" stroke="#9a32cd" stroke-dasharray="5,2" d="M216.63,-124.29C257.01,-163.75 357.12,-261.6 389.05,-292.81"/>
<polygon fill="#9a32cd" stroke="#9a32cd" points="218.99,-121.7 209.39,-117.21 214.1,-126.7 218.99,-121.7"/>
<text text-anchor="middle" x="300.5" y="-225.54" font-family="Helvetica,sans-Serif" font-size="10.00"> open</text>
</g>
<!-- Node11&#45;&gt;Node1 -->
<g id="edge19" class="edge">
<title>Node11&#45;&gt;Node1</title>
<path fill="none" stroke="#9a32cd" stroke-dasharray="5,2" d="M259.45,-329.12C287.99,-323.68 321.74,-317.25 348.89,-312.08"/>
<polygon fill="#9a32cd" stroke="#9a32cd" points="258.75,-325.69 249.58,-331 260.06,-332.57 258.75,-325.69"/>
<text text-anchor="middle" x="300.5" y="-328.54" font-family="Helvetica,sans-Serif" font-size="10.00"> close</text>
</g>
<!-- Node12&#45;&gt;Node1 -->
<g id="edge22" class="edge">
<title>Node12&#45;&gt;Node1</title>
<path fill="none" stroke="#9a32cd" stroke-dasharray="5,2" d="M226.51,-211.75C267.82,-233.5 345.61,-274.44 380.84,-292.98"/>
<polygon fill="#9a32cd" stroke="#9a32cd" points="228.04,-208.6 217.56,-207.04 224.78,-214.8 228.04,-208.6"/>
<text text-anchor="middle" x="300.5" y="-262.54" font-family="Helvetica,sans-Serif" font-size="10.00"> hdr</text>
</g>
</g>
</svg>
