<?xml version="1.0" encoding="UTF-8" standalone="no"?>
<!DOCTYPE svg PUBLIC "-//W3C//DTD SVG 1.1//EN"
 "http://www.w3.org/Graphics/SVG/1.1/DTD/svg11.dtd">
<!-- Generated by graphviz version 2.43.0 (0)
 -->
<!-- Title: taurus_ether_get_ingress_time_stamp_in Pages: 1 -->
<svg width="207pt" height="106pt"
 viewBox="0.00 0.00 207.00 106.00" xmlns="http://www.w3.org/2000/svg" xmlns:xlink="http://www.w3.org/1999/xlink">
<g id="graph0" class="graph" transform="scale(1 1) rotate(0) translate(4 102)">
<title>taurus_ether_get_ingress_time_stamp_in</title>
<polygon fill="white" stroke="transparent" points="-4,4 -4,-102 203,-102 203,4 -4,4"/>
<!-- Node1 -->
<g id="node1" class="node">
<title>Node1</title>
<g id="a_node1"><a xlink:title=" ">
<polygon fill="#bfbfbf" stroke="black" points="32,-0.5 32,-30.5 172,-30.5 172,-0.5 32,-0.5"/>
<text text-anchor="start" x="40" y="-18.5" font-family="Helvetica,sans-Serif" font-size="10.00">taurus_ether_get_ingress</text>
<text text-anchor="middle" x="102" y="-7.5" font-family="Helvetica,sans-Serif" font-size="10.00">_time_stamp_in</text>
</a>
</g>
</g>
<!-- Node2 -->
<g id="node2" class="node">
<title>Node2</title>
<g id="a_node2"><a xlink:title=" ">
<polygon fill="white" stroke="#bfbfbf" points="0,-78.5 0,-97.5 56,-97.5 56,-78.5 0,-78.5"/>
<text text-anchor="middle" x="28" y="-85.5" font-family="Helvetica,sans-Serif" font-size="10.00">uint64_t</text>
</a>
</g>
</g>
<!-- Node2&#45;&gt;Node1 -->
<g id="edge1" class="edge">
<title>Node2&#45;&gt;Node1</title>
<path fill="none" stroke="#9a32cd" stroke-dasharray="5,2" d="M41.74,-70.52C47.73,-63.64 54.97,-55.7 62,-49 68.61,-42.7 76.3,-36.26 83.16,-30.8"/>
<polygon fill="#9a32cd" stroke="#9a32cd" points="38.76,-68.62 34.94,-78.5 44.09,-73.16 38.76,-68.62"/>
<text text-anchor="middle" x="80" y="-52" font-family="Helvetica,sans-Serif" font-size="10.00"> cookie</text>
</g>
<!-- Node3 -->
<g id="node3" class="node">
<title>Node3</title>
<g id="a_node3"><a xlink:title=" ">
<polygon fill="white" stroke="#bfbfbf" points="74,-78.5 74,-97.5 130,-97.5 130,-78.5 74,-78.5"/>
<text text-anchor="middle" x="102" y="-85.5" font-family="Helvetica,sans-Serif" font-size="10.00">uint32_t</text>
</a>
</g>
</g>
<!-- Node3&#45;&gt;Node1 -->
<g id="edge2" class="edge">
<title>Node3&#45;&gt;Node1</title>
<path fill="none" stroke="#9a32cd" stroke-dasharray="5,2" d="M102,-68.24C102,-56.41 102,-41.38 102,-30.58"/>
<polygon fill="#9a32cd" stroke="#9a32cd" points="98.5,-68.36 102,-78.36 105.5,-68.36 98.5,-68.36"/>
<text text-anchor="middle" x="126.5" y="-52" font-family="Helvetica,sans-Serif" font-size="10.00"> DataAddr</text>
</g>
<!-- Node4 -->
<g id="node4" class="node">
<title>Node4</title>
<g id="a_node4"><a xlink:title=" ">
<polygon fill="white" stroke="#bfbfbf" points="149,-78.5 149,-97.5 199,-97.5 199,-78.5 149,-78.5"/>
<text text-anchor="middle" x="174" y="-85.5" font-family="Helvetica,sans-Serif" font-size="10.00">uint8_t</text>
</a>
</g>
</g>
<!-- Node4&#45;&gt;Node1 -->
<g id="edge3" class="edge">
<title>Node4&#45;&gt;Node1</title>
<path fill="none" stroke="#9a32cd" stroke-dasharray="5,2" d="M165.94,-69.21C162.31,-62.4 157.57,-54.87 152,-49 145.3,-41.94 136.78,-35.69 128.68,-30.59"/>
<polygon fill="#9a32cd" stroke="#9a32cd" points="162.9,-70.96 170.44,-78.4 169.18,-67.88 162.9,-70.96"/>
<text text-anchor="middle" x="178" y="-52" font-family="Helvetica,sans-Serif" font-size="10.00"> CtrlIdx</text>
</g>
</g>
</svg>
