<?xml version="1.0" encoding="UTF-8" standalone="no"?>
<!DOCTYPE svg PUBLIC "-//W3C//DTD SVG 1.1//EN"
 "http://www.w3.org/Graphics/SVG/1.1/DTD/svg11.dtd">
<!-- Generated by graphviz version 2.43.0 (0)
 -->
<!-- Title: taurus_rvgc_ioc_layer_set_addr_in Pages: 1 -->
<svg width="139pt" height="128pt"
 viewBox="0.00 0.00 139.00 128.00" xmlns="http://www.w3.org/2000/svg" xmlns:xlink="http://www.w3.org/1999/xlink">
<g id="graph0" class="graph" transform="scale(1 1) rotate(0) translate(4 124)">
<title>taurus_rvgc_ioc_layer_set_addr_in</title>
<polygon fill="white" stroke="transparent" points="-4,4 -4,-124 135,-124 135,4 -4,4"/>
<!-- Node1 -->
<g id="node1" class="node">
<title>Node1</title>
<g id="a_node1"><a xlink:title=" ">
<polygon fill="#bfbfbf" stroke="black" points="3.5,-0.5 3.5,-30.5 126.5,-30.5 126.5,-0.5 3.5,-0.5"/>
<text text-anchor="start" x="11.5" y="-18.5" font-family="Helvetica,sans-Serif" font-size="10.00">taurus_rvgc_ioc_layer</text>
<text text-anchor="middle" x="65" y="-7.5" font-family="Helvetica,sans-Serif" font-size="10.00">_set_addr_in</text>
</a>
</g>
</g>
<!-- Node2 -->
<g id="node2" class="node">
<title>Node2</title>
<g id="a_node2"><a xlink:title=" ">
<polygon fill="white" stroke="#bfbfbf" points="0,-100.5 0,-119.5 56,-119.5 56,-100.5 0,-100.5"/>
<text text-anchor="middle" x="28" y="-107.5" font-family="Helvetica,sans-Serif" font-size="10.00">uint64_t</text>
</a>
</g>
</g>
<!-- Node2&#45;&gt;Node1 -->
<g id="edge1" class="edge">
<title>Node2&#45;&gt;Node1</title>
<path fill="none" stroke="#9a32cd" stroke-dasharray="5,2" d="M31.41,-90.31C33.99,-78.2 38.11,-62.28 44,-49 46.83,-42.61 50.83,-36.05 54.58,-30.51"/>
<polygon fill="#9a32cd" stroke="#9a32cd" points="27.96,-89.68 29.46,-100.17 34.83,-91.03 27.96,-89.68"/>
<text text-anchor="middle" x="62" y="-63" font-family="Helvetica,sans-Serif" font-size="10.00"> cookie</text>
</g>
<!-- Node3 -->
<g id="node3" class="node">
<title>Node3</title>
<g id="a_node3"><a xlink:title=" ">
<polygon fill="white" stroke="#bfbfbf" points="74,-100.5 74,-119.5 130,-119.5 130,-100.5 74,-100.5"/>
<text text-anchor="middle" x="102" y="-107.5" font-family="Helvetica,sans-Serif" font-size="10.00">uint32_t</text>
</a>
</g>
</g>
<!-- Node3&#45;&gt;Node1 -->
<g id="edge2" class="edge">
<title>Node3&#45;&gt;Node1</title>
<path fill="none" stroke="#9a32cd" stroke-dasharray="5,2" d="M95.71,-90.67C91.5,-78.71 85.71,-62.82 80,-49 77.48,-42.91 74.48,-36.29 71.82,-30.63"/>
<polygon fill="#9a32cd" stroke="#9a32cd" points="92.49,-92.07 99.08,-100.37 99.11,-89.78 92.49,-92.07"/>
<text text-anchor="middle" x="111.5" y="-74" font-family="Helvetica,sans-Serif" font-size="10.00"> display</text>
<text text-anchor="middle" x="111.5" y="-63" font-family="Helvetica,sans-Serif" font-size="10.00">layer</text>
<text text-anchor="middle" x="111.5" y="-52" font-family="Helvetica,sans-Serif" font-size="10.00">paddr</text>
</g>
</g>
</svg>
