<?xml version="1.0" encoding="UTF-8" standalone="no"?>
<!DOCTYPE svg PUBLIC "-//W3C//DTD SVG 1.1//EN"
 "http://www.w3.org/Graphics/SVG/1.1/DTD/svg11.dtd">
<!-- Generated by graphviz version 2.43.0 (0)
 -->
<!-- Title: r_cio_ether_get_drop_count Pages: 1 -->
<svg width="183pt" height="117pt"
 viewBox="0.00 0.00 182.50 117.00" xmlns="http://www.w3.org/2000/svg" xmlns:xlink="http://www.w3.org/1999/xlink">
<g id="graph0" class="graph" transform="scale(1 1) rotate(0) translate(4 113)">
<title>r_cio_ether_get_drop_count</title>
<polygon fill="white" stroke="transparent" points="-4,4 -4,-113 178.5,-113 178.5,4 -4,4"/>
<!-- Node1 -->
<g id="node1" class="node">
<title>Node1</title>
<g id="a_node1"><a xlink:title=" ">
<polygon fill="#bfbfbf" stroke="black" points="23,-0.5 23,-30.5 142,-30.5 142,-0.5 23,-0.5"/>
<text text-anchor="start" x="31" y="-18.5" font-family="Helvetica,sans-Serif" font-size="10.00">r_cio_ether_get_drop</text>
<text text-anchor="middle" x="82.5" y="-7.5" font-family="Helvetica,sans-Serif" font-size="10.00">_count</text>
</a>
</g>
</g>
<!-- Node2 -->
<g id="node2" class="node">
<title>Node2</title>
<g id="a_node2"><a xlink:title=" ">
<polygon fill="white" stroke="#bfbfbf" points="0,-89.5 0,-108.5 85,-108.5 85,-89.5 0,-89.5"/>
<text text-anchor="middle" x="42.5" y="-96.5" font-family="Helvetica,sans-Serif" font-size="10.00">unsigned long</text>
</a>
</g>
</g>
<!-- Node2&#45;&gt;Node1 -->
<g id="edge1" class="edge">
<title>Node2&#45;&gt;Node1</title>
<path fill="none" stroke="#9a32cd" stroke-dasharray="5,2" d="M40.34,-79.16C40.05,-69.67 40.97,-58.24 45.5,-49 48.96,-41.94 54.71,-35.75 60.66,-30.73"/>
<polygon fill="#9a32cd" stroke="#9a32cd" points="36.85,-79.46 41.09,-89.17 43.83,-78.93 36.85,-79.46"/>
<text text-anchor="middle" x="73" y="-57.5" font-family="Helvetica,sans-Serif" font-size="10.00"> DropCount</text>
</g>
<!-- Node3 -->
<g id="node3" class="node">
<title>Node3</title>
<g id="a_node3"><a xlink:title=" ">
<polygon fill="white" stroke="#bfbfbf" points="103.5,-89.5 103.5,-108.5 141.5,-108.5 141.5,-89.5 103.5,-89.5"/>
<text text-anchor="middle" x="122.5" y="-96.5" font-family="Helvetica,sans-Serif" font-size="10.00">char</text>
</a>
</g>
</g>
<!-- Node3&#45;&gt;Node1 -->
<g id="edge2" class="edge">
<title>Node3&#45;&gt;Node1</title>
<path fill="none" stroke="#9a32cd" stroke-dasharray="5,2" d="M114.77,-79.82C110.71,-70.52 105.53,-59.06 100.5,-49 97.44,-42.89 93.83,-36.26 90.65,-30.6"/>
<polygon fill="#9a32cd" stroke="#9a32cd" points="111.65,-81.42 118.82,-89.22 118.08,-78.65 111.65,-81.42"/>
<text text-anchor="middle" x="142.5" y="-63" font-family="Helvetica,sans-Serif" font-size="10.00"> CountValues</text>
<text text-anchor="middle" x="142.5" y="-52" font-family="Helvetica,sans-Serif" font-size="10.00">CtrlIdx</text>
</g>
</g>
</svg>
