<?xml version="1.0" encoding="UTF-8" standalone="no"?>
<!DOCTYPE svg PUBLIC "-//W3C//DTD SVG 1.1//EN"
 "http://www.w3.org/Graphics/SVG/1.1/DTD/svg11.dtd">
<!-- Generated by graphviz version 2.43.0 (0)
 -->
<!-- Title: r_du_Plane_t Pages: 1 -->
<svg width="336pt" height="139pt"
 viewBox="0.00 0.00 335.50 139.00" xmlns="http://www.w3.org/2000/svg" xmlns:xlink="http://www.w3.org/1999/xlink">
<g id="graph0" class="graph" transform="scale(1 1) rotate(0) translate(4 135)">
<title>r_du_Plane_t</title>
<polygon fill="white" stroke="transparent" points="-4,4 -4,-135 331.5,-135 331.5,4 -4,4"/>
<!-- Node1 -->
<g id="node1" class="node">
<title>Node1</title>
<g id="a_node1"><a xlink:title=" ">
<polygon fill="#bfbfbf" stroke="black" points="128.5,-0.5 128.5,-19.5 207.5,-19.5 207.5,-0.5 128.5,-0.5"/>
<text text-anchor="middle" x="168" y="-7.5" font-family="Helvetica,sans-Serif" font-size="10.00">r_du_Plane_t</text>
</a>
</g>
</g>
<!-- Node2 -->
<g id="node2" class="node">
<title>Node2</title>
<g id="a_node2"><a xlink:title=" ">
<polygon fill="white" stroke="#bfbfbf" points="0,-111.5 0,-130.5 122,-130.5 122,-111.5 0,-111.5"/>
<text text-anchor="middle" x="61" y="-118.5" font-family="Helvetica,sans-Serif" font-size="10.00">r_du_PlaneBlending_t</text>
</a>
</g>
</g>
<!-- Node2&#45;&gt;Node1 -->
<g id="edge1" class="edge">
<title>Node2&#45;&gt;Node1</title>
<path fill="none" stroke="#9a32cd" stroke-dasharray="5,2" d="M70.08,-102.27C79.95,-84.32 97.15,-56.63 118,-38 126.53,-30.37 137.6,-24.12 147.15,-19.55"/>
<polygon fill="#9a32cd" stroke="#9a32cd" points="66.86,-100.87 65.25,-111.35 73.04,-104.16 66.86,-100.87"/>
<text text-anchor="middle" x="141" y="-63" font-family="Helvetica,sans-Serif" font-size="10.00"> blending</text>
</g>
<!-- Node3 -->
<g id="node3" class="node">
<title>Node3</title>
<g id="a_node3"><a xlink:title=" ">
<polygon fill="white" stroke="#bfbfbf" points="140,-111.5 140,-130.5 196,-130.5 196,-111.5 140,-111.5"/>
<text text-anchor="middle" x="168" y="-118.5" font-family="Helvetica,sans-Serif" font-size="10.00">uint32_t</text>
</a>
</g>
</g>
<!-- Node3&#45;&gt;Node1 -->
<g id="edge2" class="edge">
<title>Node3&#45;&gt;Node1</title>
<path fill="none" stroke="#9a32cd" stroke-dasharray="5,2" d="M168,-101.19C168,-77.28 168,-36.99 168,-19.51"/>
<polygon fill="#9a32cd" stroke="#9a32cd" points="164.5,-101.45 168,-111.45 171.5,-101.45 164.5,-101.45"/>
<text text-anchor="middle" x="192" y="-85" font-family="Helvetica,sans-Serif" font-size="10.00"> pos_x</text>
<text text-anchor="middle" x="192" y="-74" font-family="Helvetica,sans-Serif" font-size="10.00">pos_y</text>
<text text-anchor="middle" x="192" y="-63" font-family="Helvetica,sans-Serif" font-size="10.00">size_h</text>
<text text-anchor="middle" x="192" y="-52" font-family="Helvetica,sans-Serif" font-size="10.00">size_w</text>
<text text-anchor="middle" x="192" y="-41" font-family="Helvetica,sans-Serif" font-size="10.00">vspd_unit</text>
</g>
<!-- Node4 -->
<g id="node4" class="node">
<title>Node4</title>
<g id="a_node4"><a xlink:title=" ">
<polygon fill="white" stroke="#bfbfbf" points="214.5,-111.5 214.5,-130.5 327.5,-130.5 327.5,-111.5 214.5,-111.5"/>
<text text-anchor="middle" x="271" y="-118.5" font-family="Helvetica,sans-Serif" font-size="10.00">r_du_PlaneFormat_t</text>
</a>
</g>
</g>
<!-- Node4&#45;&gt;Node1 -->
<g id="edge3" class="edge">
<title>Node4&#45;&gt;Node1</title>
<path fill="none" stroke="#9a32cd" stroke-dasharray="5,2" d="M263.37,-102.16C254.92,-84.12 239.84,-56.36 220,-38 211.56,-30.19 200.44,-24.02 190.65,-19.55"/>
<polygon fill="#9a32cd" stroke="#9a32cd" points="260.17,-103.6 267.46,-111.29 266.56,-100.73 260.17,-103.6"/>
<text text-anchor="middle" x="276.5" y="-63" font-family="Helvetica,sans-Serif" font-size="10.00"> format</text>
</g>
</g>
</svg>
