<?xml version="1.0" encoding="UTF-8" standalone="no"?>
<!DOCTYPE svg PUBLIC "-//W3C//DTD SVG 1.1//EN"
 "http://www.w3.org/Graphics/SVG/1.1/DTD/svg11.dtd">
<!-- Generated by graphviz version 2.43.0 (0)
 -->
<!-- Title: taurus_ether_receive_out Pages: 1 -->
<svg width="148pt" height="106pt"
 viewBox="0.00 0.00 148.00 106.00" xmlns="http://www.w3.org/2000/svg" xmlns:xlink="http://www.w3.org/1999/xlink">
<g id="graph0" class="graph" transform="scale(1 1) rotate(0) translate(4 102)">
<title>taurus_ether_receive_out</title>
<polygon fill="white" stroke="transparent" points="-4,4 -4,-102 144,-102 144,4 -4,4"/>
<!-- Node1 -->
<g id="node1" class="node">
<title>Node1</title>
<g id="a_node1"><a xlink:title=" ">
<polygon fill="#bfbfbf" stroke="black" points="0,-0.5 0,-19.5 140,-19.5 140,-0.5 0,-0.5"/>
<text text-anchor="middle" x="70" y="-7.5" font-family="Helvetica,sans-Serif" font-size="10.00">taurus_ether_receive_out</text>
</a>
</g>
</g>
<!-- Node2 -->
<g id="node2" class="node">
<title>Node2</title>
<g id="a_node2"><a xlink:title=" ">
<polygon fill="white" stroke="#bfbfbf" points="7,-78.5 7,-97.5 63,-97.5 63,-78.5 7,-78.5"/>
<text text-anchor="middle" x="35" y="-85.5" font-family="Helvetica,sans-Serif" font-size="10.00">uint64_t</text>
</a>
</g>
</g>
<!-- Node2&#45;&gt;Node1 -->
<g id="edge1" class="edge">
<title>Node2&#45;&gt;Node1</title>
<path fill="none" stroke="#9a32cd" stroke-dasharray="5,2" d="M38.01,-68.35C40.01,-58.91 43.17,-47.47 48,-38 51.41,-31.32 56.67,-24.78 61.2,-19.8"/>
<polygon fill="#9a32cd" stroke="#9a32cd" points="34.55,-67.81 36.17,-78.28 41.43,-69.08 34.55,-67.81"/>
<text text-anchor="middle" x="66" y="-52" font-family="Helvetica,sans-Serif" font-size="10.00"> cookie</text>
<text text-anchor="middle" x="66" y="-41" font-family="Helvetica,sans-Serif" font-size="10.00">res</text>
</g>
<!-- Node3 -->
<g id="node3" class="node">
<title>Node3</title>
<g id="a_node3"><a xlink:title=" ">
<polygon fill="white" stroke="#bfbfbf" points="81,-78.5 81,-97.5 131,-97.5 131,-78.5 81,-78.5"/>
<text text-anchor="middle" x="106" y="-85.5" font-family="Helvetica,sans-Serif" font-size="10.00">uint8_t</text>
</a>
</g>
</g>
<!-- Node3&#45;&gt;Node1 -->
<g id="edge2" class="edge">
<title>Node3&#45;&gt;Node1</title>
<path fill="none" stroke="#9a32cd" stroke-dasharray="5,2" d="M98.15,-68.88C94.06,-59.59 88.89,-48.13 84,-38 81.06,-31.91 77.56,-25.16 74.79,-19.94"/>
<polygon fill="#9a32cd" stroke="#9a32cd" points="95.04,-70.49 102.25,-78.26 101.46,-67.69 95.04,-70.49"/>
<text text-anchor="middle" x="116.5" y="-46.5" font-family="Helvetica,sans-Serif" font-size="10.00"> RxStatus</text>
</g>
</g>
</svg>
