<?xml version="1.0" encoding="UTF-8" standalone="no"?>
<!DOCTYPE svg PUBLIC "-//W3C//DTD SVG 1.1//EN"
 "http://www.w3.org/Graphics/SVG/1.1/DTD/svg11.dtd">
<!-- Generated by graphviz version 2.43.0 (0)
 -->
<!-- Title: regRDMSEC_un Pages: 1 -->
<svg width="171pt" height="205pt"
 viewBox="0.00 0.00 170.50 205.00" xmlns="http://www.w3.org/2000/svg" xmlns:xlink="http://www.w3.org/1999/xlink">
<g id="graph0" class="graph" transform="scale(1 1) rotate(0) translate(4 201)">
<title>regRDMSEC_un</title>
<polygon fill="white" stroke="transparent" points="-4,4 -4,-201 166.5,-201 166.5,4 -4,4"/>
<!-- Node1 -->
<g id="node1" class="node">
<title>Node1</title>
<g id="a_node1"><a xlink:title=" ">
<polygon fill="#bfbfbf" stroke="black" points="43.5,-0.5 43.5,-19.5 135.5,-19.5 135.5,-0.5 43.5,-0.5"/>
<text text-anchor="middle" x="89.5" y="-7.5" font-family="Helvetica,sans-Serif" font-size="10.00">regRDMSEC_un</text>
</a>
</g>
</g>
<!-- Node2 -->
<g id="node2" class="node">
<title>Node2</title>
<g id="a_node2"><a xlink:title=" ">
<polygon fill="white" stroke="#bfbfbf" points="0,-177.5 0,-196.5 89,-196.5 89,-177.5 0,-177.5"/>
<text text-anchor="middle" x="44.5" y="-184.5" font-family="Helvetica,sans-Serif" font-size="10.00">anonymous:bit</text>
</a>
</g>
</g>
<!-- Node2&#45;&gt;Node1 -->
<g id="edge1" class="edge">
<title>Node2&#45;&gt;Node1</title>
<path fill="none" stroke="#9a32cd" stroke-dasharray="5,2" d="M49.4,-166.95C59.08,-129.3 80.33,-46.65 87.26,-19.69"/>
<polygon fill="#9a32cd" stroke="#9a32cd" points="45.89,-166.52 46.79,-177.08 52.67,-168.27 45.89,-166.52"/>
<text text-anchor="middle" x="90.5" y="-96" font-family="Helvetica,sans-Serif" font-size="10.00"> bit</text>
</g>
<!-- Node3 -->
<g id="node3" class="node">
<title>Node3</title>
<g id="a_node3"><a xlink:title=" ">
<polygon fill="white" stroke="#bfbfbf" points="106.5,-177.5 106.5,-196.5 162.5,-196.5 162.5,-177.5 106.5,-177.5"/>
<text text-anchor="middle" x="134.5" y="-184.5" font-family="Helvetica,sans-Serif" font-size="10.00">uint32_t</text>
</a>
</g>
</g>
<!-- Node3&#45;&gt;Node1 -->
<g id="edge2" class="edge">
<title>Node3&#45;&gt;Node1</title>
<path fill="none" stroke="#9a32cd" stroke-dasharray="5,2" d="M131.92,-167.36C127.65,-138.92 118.04,-83.23 102.5,-38 100.34,-31.7 97.09,-24.95 94.38,-19.78"/>
<polygon fill="#9a32cd" stroke="#9a32cd" points="128.48,-168.07 133.37,-177.47 135.41,-167.07 128.48,-168.07"/>
<text text-anchor="middle" x="139.5" y="-151" font-family="Helvetica,sans-Serif" font-size="10.00"> INT</text>
<text text-anchor="middle" x="139.5" y="-140" font-family="Helvetica,sans-Serif" font-size="10.00">S0</text>
<text text-anchor="middle" x="139.5" y="-129" font-family="Helvetica,sans-Serif" font-size="10.00">S1</text>
<text text-anchor="middle" x="139.5" y="-118" font-family="Helvetica,sans-Serif" font-size="10.00">S10</text>
<text text-anchor="middle" x="139.5" y="-107" font-family="Helvetica,sans-Serif" font-size="10.00">S11</text>
<text text-anchor="middle" x="139.5" y="-96" font-family="Helvetica,sans-Serif" font-size="10.00">S12</text>
<text text-anchor="middle" x="139.5" y="-85" font-family="Helvetica,sans-Serif" font-size="10.00">S13</text>
<text text-anchor="middle" x="139.5" y="-74" font-family="Helvetica,sans-Serif" font-size="10.00">S14</text>
<text text-anchor="middle" x="139.5" y="-63" font-family="Helvetica,sans-Serif" font-size="10.00">S15</text>
<text text-anchor="middle" x="139.5" y="-52" font-family="Helvetica,sans-Serif" font-size="10.00">S2</text>
<text text-anchor="middle" x="139.5" y="-41" font-family="Helvetica,sans-Serif" font-size="10.00">...</text>
</g>
</g>
</svg>
