<?xml version="1.0" encoding="UTF-8" standalone="no"?>
<!DOCTYPE svg PUBLIC "-//W3C//DTD SVG 1.1//EN"
 "http://www.w3.org/Graphics/SVG/1.1/DTD/svg11.dtd">
<!-- Generated by graphviz version 2.43.0 (0)
 -->
<!-- Title: regRDMDPBASE_un Pages: 1 -->
<svg width="178pt" height="128pt"
 viewBox="0.00 0.00 177.50 128.00" xmlns="http://www.w3.org/2000/svg" xmlns:xlink="http://www.w3.org/1999/xlink">
<g id="graph0" class="graph" transform="scale(1 1) rotate(0) translate(4 124)">
<title>regRDMDPBASE_un</title>
<polygon fill="white" stroke="transparent" points="-4,4 -4,-124 173.5,-124 173.5,4 -4,4"/>
<!-- Node1 -->
<g id="node1" class="node">
<title>Node1</title>
<g id="a_node1"><a xlink:title=" ">
<polygon fill="#bfbfbf" stroke="black" points="33.5,-0.5 33.5,-19.5 145.5,-19.5 145.5,-0.5 33.5,-0.5"/>
<text text-anchor="middle" x="89.5" y="-7.5" font-family="Helvetica,sans-Serif" font-size="10.00">regRDMDPBASE_un</text>
</a>
</g>
</g>
<!-- Node2 -->
<g id="node2" class="node">
<title>Node2</title>
<g id="a_node2"><a xlink:title=" ">
<polygon fill="white" stroke="#bfbfbf" points="0,-100.5 0,-119.5 89,-119.5 89,-100.5 0,-100.5"/>
<text text-anchor="middle" x="44.5" y="-107.5" font-family="Helvetica,sans-Serif" font-size="10.00">anonymous:bit</text>
</a>
</g>
</g>
<!-- Node2&#45;&gt;Node1 -->
<g id="edge1" class="edge">
<title>Node2&#45;&gt;Node1</title>
<path fill="none" stroke="#9a32cd" stroke-dasharray="5,2" d="M52.72,-91.1C62.46,-69.89 78.28,-35.44 85.58,-19.54"/>
<polygon fill="#9a32cd" stroke="#9a32cd" points="49.49,-89.75 48.49,-100.3 55.85,-92.68 49.49,-89.75"/>
<text text-anchor="middle" x="84.5" y="-57.5" font-family="Helvetica,sans-Serif" font-size="10.00"> bit</text>
</g>
<!-- Node3 -->
<g id="node3" class="node">
<title>Node3</title>
<g id="a_node3"><a xlink:title=" ">
<polygon fill="white" stroke="#bfbfbf" points="106.5,-100.5 106.5,-119.5 162.5,-119.5 162.5,-100.5 106.5,-100.5"/>
<text text-anchor="middle" x="134.5" y="-107.5" font-family="Helvetica,sans-Serif" font-size="10.00">uint32_t</text>
</a>
</g>
</g>
<!-- Node3&#45;&gt;Node1 -->
<g id="edge2" class="edge">
<title>Node3&#45;&gt;Node1</title>
<path fill="none" stroke="#9a32cd" stroke-dasharray="5,2" d="M126.28,-91.1C116.54,-69.89 100.72,-35.44 93.42,-19.54"/>
<polygon fill="#9a32cd" stroke="#9a32cd" points="123.15,-92.68 130.51,-100.3 129.51,-89.75 123.15,-92.68"/>
<text text-anchor="middle" x="145" y="-74" font-family="Helvetica,sans-Serif" font-size="10.00"> DPBASE</text>
<text text-anchor="middle" x="145" y="-63" font-family="Helvetica,sans-Serif" font-size="10.00">INT</text>
<text text-anchor="middle" x="145" y="-52" font-family="Helvetica,sans-Serif" font-size="10.00">SEL</text>
<text text-anchor="middle" x="145" y="-41" font-family="Helvetica,sans-Serif" font-size="10.00">reserve_1</text>
</g>
</g>
</svg>
