<?xml version="1.0" encoding="UTF-8" standalone="no"?>
<!DOCTYPE svg PUBLIC "-//W3C//DTD SVG 1.1//EN"
 "http://www.w3.org/Graphics/SVG/1.1/DTD/svg11.dtd">
<!-- Generated by graphviz version 2.43.0 (0)
 -->
<!-- Title: regRDMCHCRB_un Pages: 1 -->
<svg width="185pt" height="172pt"
 viewBox="0.00 0.00 184.50 172.00" xmlns="http://www.w3.org/2000/svg" xmlns:xlink="http://www.w3.org/1999/xlink">
<g id="graph0" class="graph" transform="scale(1 1) rotate(0) translate(4 168)">
<title>regRDMCHCRB_un</title>
<polygon fill="white" stroke="transparent" points="-4,4 -4,-168 180.5,-168 180.5,4 -4,4"/>
<!-- Node1 -->
<g id="node1" class="node">
<title>Node1</title>
<g id="a_node1"><a xlink:title=" ">
<polygon fill="#bfbfbf" stroke="black" points="36,-0.5 36,-19.5 143,-19.5 143,-0.5 36,-0.5"/>
<text text-anchor="middle" x="89.5" y="-7.5" font-family="Helvetica,sans-Serif" font-size="10.00">regRDMCHCRB_un</text>
</a>
</g>
</g>
<!-- Node2 -->
<g id="node2" class="node">
<title>Node2</title>
<g id="a_node2"><a xlink:title=" ">
<polygon fill="white" stroke="#bfbfbf" points="0,-144.5 0,-163.5 89,-163.5 89,-144.5 0,-144.5"/>
<text text-anchor="middle" x="44.5" y="-151.5" font-family="Helvetica,sans-Serif" font-size="10.00">anonymous:bit</text>
</a>
</g>
</g>
<!-- Node2&#45;&gt;Node1 -->
<g id="edge1" class="edge">
<title>Node2&#45;&gt;Node1</title>
<path fill="none" stroke="#9a32cd" stroke-dasharray="5,2" d="M50.36,-134.52C60.2,-103.47 79.67,-42.02 86.8,-19.52"/>
<polygon fill="#9a32cd" stroke="#9a32cd" points="47,-133.53 47.31,-144.12 53.67,-135.64 47,-133.53"/>
<text text-anchor="middle" x="89.5" y="-79.5" font-family="Helvetica,sans-Serif" font-size="10.00"> bit</text>
</g>
<!-- Node3 -->
<g id="node3" class="node">
<title>Node3</title>
<g id="a_node3"><a xlink:title=" ">
<polygon fill="white" stroke="#bfbfbf" points="106.5,-144.5 106.5,-163.5 162.5,-163.5 162.5,-144.5 106.5,-144.5"/>
<text text-anchor="middle" x="134.5" y="-151.5" font-family="Helvetica,sans-Serif" font-size="10.00">uint32_t</text>
</a>
</g>
</g>
<!-- Node3&#45;&gt;Node1 -->
<g id="edge2" class="edge">
<title>Node3&#45;&gt;Node1</title>
<path fill="none" stroke="#9a32cd" stroke-dasharray="5,2" d="M130.02,-134.43C124.29,-111.48 113.64,-71.38 101.5,-38 99.26,-31.83 96.26,-25.08 93.82,-19.87"/>
<polygon fill="#9a32cd" stroke="#9a32cd" points="126.64,-135.34 132.42,-144.21 133.43,-133.67 126.64,-135.34"/>
<text text-anchor="middle" x="152" y="-118" font-family="Helvetica,sans-Serif" font-size="10.00"> DCNT</text>
<text text-anchor="middle" x="152" y="-107" font-family="Helvetica,sans-Serif" font-size="10.00">DPTR</text>
<text text-anchor="middle" x="152" y="-96" font-family="Helvetica,sans-Serif" font-size="10.00">DRST</text>
<text text-anchor="middle" x="152" y="-85" font-family="Helvetica,sans-Serif" font-size="10.00">DTS</text>
<text text-anchor="middle" x="152" y="-74" font-family="Helvetica,sans-Serif" font-size="10.00">INT</text>
<text text-anchor="middle" x="152" y="-63" font-family="Helvetica,sans-Serif" font-size="10.00">PRI</text>
<text text-anchor="middle" x="152" y="-52" font-family="Helvetica,sans-Serif" font-size="10.00">SLM</text>
<text text-anchor="middle" x="152" y="-41" font-family="Helvetica,sans-Serif" font-size="10.00">reserve_1</text>
</g>
</g>
</svg>
