<?xml version="1.0" encoding="UTF-8" standalone="no"?>
<!DOCTYPE svg PUBLIC "-//W3C//DTD SVG 1.1//EN"
 "http://www.w3.org/Graphics/SVG/1.1/DTD/svg11.dtd">
<!-- Generated by graphviz version 2.43.0 (0)
 -->
<!-- Title: UTag_Eth_EcsiprType Pages: 1 -->
<svg width="234pt" height="217pt"
 viewBox="0.00 0.00 233.50 217.00" xmlns="http://www.w3.org/2000/svg" xmlns:xlink="http://www.w3.org/1999/xlink">
<g id="graph0" class="graph" transform="scale(1 1) rotate(0) translate(4 213)">
<title>UTag_Eth_EcsiprType</title>
<polygon fill="white" stroke="transparent" points="-4,4 -4,-213 229.5,-213 229.5,4 -4,4"/>
<!-- Node1 -->
<g id="node1" class="node">
<title>Node1</title>
<g id="a_node1"><a xlink:title=" ">
<polygon fill="#bfbfbf" stroke="black" points="0,-0.5 0,-19.5 119,-19.5 119,-0.5 0,-0.5"/>
<text text-anchor="middle" x="59.5" y="-7.5" font-family="Helvetica,sans-Serif" font-size="10.00">UTag_Eth_EcsiprType</text>
</a>
</g>
</g>
<!-- Node2 -->
<g id="node2" class="node">
<title>Node2</title>
<g id="a_node2"><a xlink:title=" ">
<polygon fill="white" stroke="#bfbfbf" points="17,-189.5 17,-208.5 102,-208.5 102,-189.5 17,-189.5"/>
<text text-anchor="middle" x="59.5" y="-196.5" font-family="Helvetica,sans-Serif" font-size="10.00">unsigned long</text>
</a>
</g>
</g>
<!-- Node2&#45;&gt;Node1 -->
<g id="edge1" class="edge">
<title>Node2&#45;&gt;Node1</title>
<path fill="none" stroke="#9a32cd" stroke-dasharray="5,2" d="M57.15,-179.35C54.25,-153.94 50.01,-107.02 52.5,-67 53.55,-50.18 56.35,-30.68 58.07,-19.7"/>
<polygon fill="#9a32cd" stroke="#9a32cd" points="53.69,-179.9 58.35,-189.41 60.64,-179.07 53.69,-179.9"/>
<text text-anchor="middle" x="66.5" y="-74.5" font-family="Helvetica,sans-Serif" font-size="10.00"> Word</text>
</g>
<!-- Node3 -->
<g id="node3" class="node">
<title>Node3</title>
<g id="a_node3"><a xlink:href="structSTag__Eth__EcsiprBitsType.html" target="_top" xlink:title=" ">
<polygon fill="white" stroke="black" points="89.5,-67.5 89.5,-86.5 225.5,-86.5 225.5,-67.5 89.5,-67.5"/>
<text text-anchor="middle" x="157.5" y="-74.5" font-family="Helvetica,sans-Serif" font-size="10.00">STag_Eth_EcsiprBitsType</text>
</a>
</g>
</g>
<!-- Node2&#45;&gt;Node3 -->
<g id="edge3" class="edge">
<title>Node2&#45;&gt;Node3</title>
<path fill="none" stroke="#9a32cd" stroke-dasharray="5,2" d="M72.92,-181.57C94.05,-155.7 134.33,-106.37 150.52,-86.55"/>
<polygon fill="#9a32cd" stroke="#9a32cd" points="70.16,-179.41 66.55,-189.37 75.58,-183.84 70.16,-179.41"/>
<text text-anchor="middle" x="150.5" y="-163" font-family="Helvetica,sans-Serif" font-size="10.00"> Icdip</text>
<text text-anchor="middle" x="150.5" y="-152" font-family="Helvetica,sans-Serif" font-size="10.00">Linkim</text>
<text text-anchor="middle" x="150.5" y="-141" font-family="Helvetica,sans-Serif" font-size="10.00">Mpdip</text>
<text text-anchor="middle" x="150.5" y="-130" font-family="Helvetica,sans-Serif" font-size="10.00">Pfrim</text>
<text text-anchor="middle" x="150.5" y="-119" font-family="Helvetica,sans-Serif" font-size="10.00">Phyim</text>
<text text-anchor="middle" x="150.5" y="-108" font-family="Helvetica,sans-Serif" font-size="10.00">Res1</text>
</g>
<!-- Node3&#45;&gt;Node1 -->
<g id="edge2" class="edge">
<title>Node3&#45;&gt;Node1</title>
<path fill="none" stroke="#9a32cd" stroke-dasharray="5,2" d="M135.78,-61.59C116.39,-48.74 88.64,-30.33 72.51,-19.63"/>
<polygon fill="#9a32cd" stroke="#9a32cd" points="134.02,-64.62 144.28,-67.23 137.88,-58.79 134.02,-64.62"/>
<text text-anchor="middle" x="122" y="-41" font-family="Helvetica,sans-Serif" font-size="10.00"> Bit</text>
</g>
</g>
</svg>
