<?xml version="1.0" encoding="UTF-8" standalone="no"?>
<!DOCTYPE svg PUBLIC "-//W3C//DTD SVG 1.1//EN"
 "http://www.w3.org/Graphics/SVG/1.1/DTD/svg11.dtd">
<!-- Generated by graphviz version 2.43.0 (0)
 -->
<!-- Title: UTag_Eth_RcrType Pages: 1 -->
<svg width="203pt" height="239pt"
 viewBox="0.00 0.00 202.50 239.00" xmlns="http://www.w3.org/2000/svg" xmlns:xlink="http://www.w3.org/1999/xlink">
<g id="graph0" class="graph" transform="scale(1 1) rotate(0) translate(4 235)">
<title>UTag_Eth_RcrType</title>
<polygon fill="white" stroke="transparent" points="-4,4 -4,-235 198.5,-235 198.5,4 -4,4"/>
<!-- Node1 -->
<g id="node1" class="node">
<title>Node1</title>
<g id="a_node1"><a xlink:title=" ">
<polygon fill="#bfbfbf" stroke="black" points="9,-0.5 9,-19.5 114,-19.5 114,-0.5 9,-0.5"/>
<text text-anchor="middle" x="61.5" y="-7.5" font-family="Helvetica,sans-Serif" font-size="10.00">UTag_Eth_RcrType</text>
</a>
</g>
</g>
<!-- Node2 -->
<g id="node2" class="node">
<title>Node2</title>
<g id="a_node2"><a xlink:href="structSTag__Eth__RcrBitsType.html" target="_top" xlink:title=" ">
<polygon fill="white" stroke="black" points="72.5,-67.5 72.5,-86.5 194.5,-86.5 194.5,-67.5 72.5,-67.5"/>
<text text-anchor="middle" x="133.5" y="-74.5" font-family="Helvetica,sans-Serif" font-size="10.00">STag_Eth_RcrBitsType</text>
</a>
</g>
</g>
<!-- Node2&#45;&gt;Node1 -->
<g id="edge1" class="edge">
<title>Node2&#45;&gt;Node1</title>
<path fill="none" stroke="#9a32cd" stroke-dasharray="5,2" d="M116.17,-60.36C102.02,-47.58 82.54,-29.99 71.06,-19.63"/>
<polygon fill="#9a32cd" stroke="#9a32cd" points="114.02,-63.13 123.79,-67.23 118.71,-57.93 114.02,-63.13"/>
<text text-anchor="middle" x="110" y="-41" font-family="Helvetica,sans-Serif" font-size="10.00"> Bit</text>
</g>
<!-- Node3 -->
<g id="node3" class="node">
<title>Node3</title>
<g id="a_node3"><a xlink:title=" ">
<polygon fill="white" stroke="#bfbfbf" points="0,-211.5 0,-230.5 85,-230.5 85,-211.5 0,-211.5"/>
<text text-anchor="middle" x="42.5" y="-218.5" font-family="Helvetica,sans-Serif" font-size="10.00">unsigned long</text>
</a>
</g>
</g>
<!-- Node3&#45;&gt;Node1 -->
<g id="edge3" class="edge">
<title>Node3&#45;&gt;Node1</title>
<path fill="none" stroke="#9a32cd" stroke-dasharray="5,2" d="M38.53,-201.24C33.07,-172.12 25.02,-114.45 35.5,-67 39.43,-49.21 49.61,-30.35 56,-19.69"/>
<polygon fill="#9a32cd" stroke="#9a32cd" points="35.14,-202.11 40.52,-211.24 42,-200.75 35.14,-202.11"/>
<text text-anchor="middle" x="49.5" y="-74.5" font-family="Helvetica,sans-Serif" font-size="10.00"> Word</text>
</g>
<!-- Node3&#45;&gt;Node2 -->
<g id="edge2" class="edge">
<title>Node3&#45;&gt;Node2</title>
<path fill="none" stroke="#9a32cd" stroke-dasharray="5,2" d="M53.83,-202.32C73.55,-171.54 113.49,-109.22 128.04,-86.52"/>
<polygon fill="#9a32cd" stroke="#9a32cd" points="50.64,-200.81 48.19,-211.12 56.53,-204.59 50.64,-200.81"/>
<text text-anchor="middle" x="128" y="-185" font-family="Helvetica,sans-Serif" font-size="10.00"> Effs</text>
<text text-anchor="middle" x="128" y="-174" font-family="Helvetica,sans-Serif" font-size="10.00">Encf</text>
<text text-anchor="middle" x="128" y="-163" font-family="Helvetica,sans-Serif" font-size="10.00">Esf</text>
<text text-anchor="middle" x="128" y="-152" font-family="Helvetica,sans-Serif" font-size="10.00">Ets0</text>
<text text-anchor="middle" x="128" y="-141" font-family="Helvetica,sans-Serif" font-size="10.00">Ets2</text>
<text text-anchor="middle" x="128" y="-130" font-family="Helvetica,sans-Serif" font-size="10.00">Res1</text>
<text text-anchor="middle" x="128" y="-119" font-family="Helvetica,sans-Serif" font-size="10.00">Res2</text>
<text text-anchor="middle" x="128" y="-108" font-family="Helvetica,sans-Serif" font-size="10.00">Rfcl</text>
</g>
</g>
</svg>
