<?xml version="1.0" encoding="UTF-8" standalone="no"?>
<!DOCTYPE svg PUBLIC "-//W3C//DTD SVG 1.1//EN"
 "http://www.w3.org/Graphics/SVG/1.1/DTD/svg11.dtd">
<!-- Generated by graphviz version 2.43.0 (0)
 -->
<!-- Title: regRDMTCR_un Pages: 1 -->
<svg width="171pt" height="106pt"
 viewBox="0.00 0.00 170.50 106.00" xmlns="http://www.w3.org/2000/svg" xmlns:xlink="http://www.w3.org/1999/xlink">
<g id="graph0" class="graph" transform="scale(1 1) rotate(0) translate(4 102)">
<title>regRDMTCR_un</title>
<polygon fill="white" stroke="transparent" points="-4,4 -4,-102 166.5,-102 166.5,4 -4,4"/>
<!-- Node1 -->
<g id="node1" class="node">
<title>Node1</title>
<g id="a_node1"><a xlink:title=" ">
<polygon fill="#bfbfbf" stroke="black" points="43.5,-0.5 43.5,-19.5 135.5,-19.5 135.5,-0.5 43.5,-0.5"/>
<text text-anchor="middle" x="89.5" y="-7.5" font-family="Helvetica,sans-Serif" font-size="10.00">regRDMTCR_un</text>
</a>
</g>
</g>
<!-- Node2 -->
<g id="node2" class="node">
<title>Node2</title>
<g id="a_node2"><a xlink:title=" ">
<polygon fill="white" stroke="#bfbfbf" points="0,-78.5 0,-97.5 89,-97.5 89,-78.5 0,-78.5"/>
<text text-anchor="middle" x="44.5" y="-85.5" font-family="Helvetica,sans-Serif" font-size="10.00">anonymous:bit</text>
</a>
</g>
</g>
<!-- Node2&#45;&gt;Node1 -->
<g id="edge1" class="edge">
<title>Node2&#45;&gt;Node1</title>
<path fill="none" stroke="#9a32cd" stroke-dasharray="5,2" d="M54.82,-69.57C64.07,-53.95 77.24,-31.7 84.4,-19.62"/>
<polygon fill="#9a32cd" stroke="#9a32cd" points="51.75,-67.89 49.66,-78.28 57.77,-71.46 51.75,-67.89"/>
<text text-anchor="middle" x="80.5" y="-46.5" font-family="Helvetica,sans-Serif" font-size="10.00"> bit</text>
</g>
<!-- Node3 -->
<g id="node3" class="node">
<title>Node3</title>
<g id="a_node3"><a xlink:title=" ">
<polygon fill="white" stroke="#bfbfbf" points="106.5,-78.5 106.5,-97.5 162.5,-97.5 162.5,-78.5 106.5,-78.5"/>
<text text-anchor="middle" x="134.5" y="-85.5" font-family="Helvetica,sans-Serif" font-size="10.00">uint32_t</text>
</a>
</g>
</g>
<!-- Node3&#45;&gt;Node1 -->
<g id="edge2" class="edge">
<title>Node3&#45;&gt;Node1</title>
<path fill="none" stroke="#9a32cd" stroke-dasharray="5,2" d="M124.18,-69.57C114.93,-53.95 101.76,-31.7 94.6,-19.62"/>
<polygon fill="#9a32cd" stroke="#9a32cd" points="121.23,-71.46 129.34,-78.28 127.25,-67.89 121.23,-71.46"/>
<text text-anchor="middle" x="126.5" y="-52" font-family="Helvetica,sans-Serif" font-size="10.00"> INT</text>
<text text-anchor="middle" x="126.5" y="-41" font-family="Helvetica,sans-Serif" font-size="10.00">TSR</text>
</g>
</g>
</svg>
