<?xml version="1.0" encoding="UTF-8" standalone="no"?>
<!DOCTYPE svg PUBLIC "-//W3C//DTD SVG 1.1//EN"
 "http://www.w3.org/Graphics/SVG/1.1/DTD/svg11.dtd">
<!-- Generated by graphviz version 2.43.0 (0)
 -->
<!-- Title: UTag_Eth_TxRxCtrlType Pages: 1 -->
<svg width="337pt" height="195pt"
 viewBox="0.00 0.00 336.82 195.00" xmlns="http://www.w3.org/2000/svg" xmlns:xlink="http://www.w3.org/1999/xlink">
<g id="graph0" class="graph" transform="scale(1 1) rotate(0) translate(4 191)">
<title>UTag_Eth_TxRxCtrlType</title>
<polygon fill="white" stroke="transparent" points="-4,4 -4,-191 332.82,-191 332.82,4 -4,4"/>
<!-- Node1 -->
<g id="node1" class="node">
<title>Node1</title>
<g id="a_node1"><a xlink:title=" ">
<polygon fill="#bfbfbf" stroke="black" points="44.32,-0.5 44.32,-19.5 175.32,-19.5 175.32,-0.5 44.32,-0.5"/>
<text text-anchor="middle" x="109.82" y="-7.5" font-family="Helvetica,sans-Serif" font-size="10.00">UTag_Eth_TxRxCtrlType</text>
</a>
</g>
</g>
<!-- Node2 -->
<g id="node2" class="node">
<title>Node2</title>
<g id="a_node2"><a xlink:title=" ">
<polygon fill="white" stroke="#bfbfbf" points="67.32,-167.5 67.32,-186.5 152.32,-186.5 152.32,-167.5 67.32,-167.5"/>
<text text-anchor="middle" x="109.82" y="-174.5" font-family="Helvetica,sans-Serif" font-size="10.00">unsigned long</text>
</a>
</g>
</g>
<!-- Node2&#45;&gt;Node1 -->
<g id="edge1" class="edge">
<title>Node2&#45;&gt;Node1</title>
<path fill="none" stroke="#9a32cd" stroke-dasharray="5,2" d="M80.34,-163.06C41.81,-144.21 -18.1,-107.06 5.82,-67 20.76,-42 51.12,-27.5 75.2,-19.55"/>
<polygon fill="#9a32cd" stroke="#9a32cd" points="79.08,-166.34 89.61,-167.45 82.07,-160.01 79.08,-166.34"/>
<text text-anchor="middle" x="19.82" y="-74.5" font-family="Helvetica,sans-Serif" font-size="10.00"> Word</text>
</g>
<!-- Node3 -->
<g id="node3" class="node">
<title>Node3</title>
<g id="a_node3"><a xlink:href="structSTag__Eth__TxCtrlTagType.html" target="_top" xlink:title=" ">
<polygon fill="white" stroke="black" points="42.82,-67.5 42.82,-86.5 176.82,-86.5 176.82,-67.5 42.82,-67.5"/>
<text text-anchor="middle" x="109.82" y="-74.5" font-family="Helvetica,sans-Serif" font-size="10.00">STag_Eth_TxCtrlTagType</text>
</a>
</g>
</g>
<!-- Node2&#45;&gt;Node3 -->
<g id="edge3" class="edge">
<title>Node2&#45;&gt;Node3</title>
<path fill="none" stroke="#9a32cd" stroke-dasharray="5,2" d="M109.82,-157.22C109.82,-135.95 109.82,-102.22 109.82,-86.54"/>
<polygon fill="#9a32cd" stroke="#9a32cd" points="106.32,-157.3 109.82,-167.3 113.32,-157.3 106.32,-157.3"/>
<text text-anchor="middle" x="120.82" y="-135.5" font-family="Helvetica,sans-Serif" font-size="10.00"> Msr</text>
<text text-anchor="middle" x="120.82" y="-124.5" font-family="Helvetica,sans-Serif" font-size="10.00">Tag</text>
<text text-anchor="middle" x="120.82" y="-113.5" font-family="Helvetica,sans-Serif" font-size="10.00">Tsr</text>
</g>
<!-- Node4 -->
<g id="node4" class="node">
<title>Node4</title>
<g id="a_node4"><a xlink:href="structSTag__Eth__RxCtrlTagType.html" target="_top" xlink:title=" ">
<polygon fill="white" stroke="black" points="194.82,-67.5 194.82,-86.5 328.82,-86.5 328.82,-67.5 194.82,-67.5"/>
<text text-anchor="middle" x="261.82" y="-74.5" font-family="Helvetica,sans-Serif" font-size="10.00">STag_Eth_RxCtrlTagType</text>
</a>
</g>
</g>
<!-- Node2&#45;&gt;Node4 -->
<g id="edge5" class="edge">
<title>Node2&#45;&gt;Node4</title>
<path fill="none" stroke="#9a32cd" stroke-dasharray="5,2" d="M131.69,-161.9C163.68,-141.28 222.29,-103.49 248.52,-86.58"/>
<polygon fill="#9a32cd" stroke="#9a32cd" points="129.55,-159.11 123.05,-167.47 133.35,-165 129.55,-159.11"/>
<text text-anchor="middle" x="226.82" y="-141" font-family="Helvetica,sans-Serif" font-size="10.00"> Ei</text>
<text text-anchor="middle" x="226.82" y="-130" font-family="Helvetica,sans-Serif" font-size="10.00">Msc</text>
<text text-anchor="middle" x="226.82" y="-119" font-family="Helvetica,sans-Serif" font-size="10.00">Ps</text>
<text text-anchor="middle" x="226.82" y="-108" font-family="Helvetica,sans-Serif" font-size="10.00">Tr</text>
</g>
<!-- Node3&#45;&gt;Node1 -->
<g id="edge2" class="edge">
<title>Node3&#45;&gt;Node1</title>
<path fill="none" stroke="#9a32cd" stroke-dasharray="5,2" d="M109.82,-57.04C109.82,-44.67 109.82,-29.12 109.82,-19.63"/>
<polygon fill="#9a32cd" stroke="#9a32cd" points="106.32,-57.23 109.82,-67.23 113.32,-57.23 106.32,-57.23"/>
<text text-anchor="middle" x="126.32" y="-41" font-family="Helvetica,sans-Serif" font-size="10.00"> TxCtrl</text>
</g>
<!-- Node4&#45;&gt;Node1 -->
<g id="edge4" class="edge">
<title>Node4&#45;&gt;Node1</title>
<path fill="none" stroke="#9a32cd" stroke-dasharray="5,2" d="M232.08,-63.28C201.98,-50.41 156.25,-30.85 130.09,-19.67"/>
<polygon fill="#9a32cd" stroke="#9a32cd" points="231.07,-66.65 241.64,-67.37 233.82,-60.22 231.07,-66.65"/>
<text text-anchor="middle" x="211.82" y="-41" font-family="Helvetica,sans-Serif" font-size="10.00"> RxCtrl</text>
</g>
</g>
</svg>
