<?xml version="1.0" encoding="UTF-8" standalone="no"?>
<!DOCTYPE svg PUBLIC "-//W3C//DTD SVG 1.1//EN"
 "http://www.w3.org/Graphics/SVG/1.1/DTD/svg11.dtd">
<!-- Generated by graphviz version 2.43.0 (0)
 -->
<!-- Title: regRDMDPCR_un Pages: 1 -->
<svg width="177pt" height="117pt"
 viewBox="0.00 0.00 176.50 117.00" xmlns="http://www.w3.org/2000/svg" xmlns:xlink="http://www.w3.org/1999/xlink">
<g id="graph0" class="graph" transform="scale(1 1) rotate(0) translate(4 113)">
<title>regRDMDPCR_un</title>
<polygon fill="white" stroke="transparent" points="-4,4 -4,-113 172.5,-113 172.5,4 -4,4"/>
<!-- Node1 -->
<g id="node1" class="node">
<title>Node1</title>
<g id="a_node1"><a xlink:title=" ">
<polygon fill="#bfbfbf" stroke="black" points="39.5,-0.5 39.5,-19.5 139.5,-19.5 139.5,-0.5 39.5,-0.5"/>
<text text-anchor="middle" x="89.5" y="-7.5" font-family="Helvetica,sans-Serif" font-size="10.00">regRDMDPCR_un</text>
</a>
</g>
</g>
<!-- Node2 -->
<g id="node2" class="node">
<title>Node2</title>
<g id="a_node2"><a xlink:title=" ">
<polygon fill="white" stroke="#bfbfbf" points="0,-89.5 0,-108.5 89,-108.5 89,-89.5 0,-89.5"/>
<text text-anchor="middle" x="44.5" y="-96.5" font-family="Helvetica,sans-Serif" font-size="10.00">anonymous:bit</text>
</a>
</g>
</g>
<!-- Node2&#45;&gt;Node1 -->
<g id="edge1" class="edge">
<title>Node2&#45;&gt;Node1</title>
<path fill="none" stroke="#9a32cd" stroke-dasharray="5,2" d="M53.69,-80.23C63.24,-61.77 77.77,-33.67 85.04,-19.62"/>
<polygon fill="#9a32cd" stroke="#9a32cd" points="50.46,-78.85 48.98,-89.34 56.68,-82.07 50.46,-78.85"/>
<text text-anchor="middle" x="83.5" y="-52" font-family="Helvetica,sans-Serif" font-size="10.00"> bit</text>
</g>
<!-- Node3 -->
<g id="node3" class="node">
<title>Node3</title>
<g id="a_node3"><a xlink:title=" ">
<polygon fill="white" stroke="#bfbfbf" points="106.5,-89.5 106.5,-108.5 162.5,-108.5 162.5,-89.5 106.5,-89.5"/>
<text text-anchor="middle" x="134.5" y="-96.5" font-family="Helvetica,sans-Serif" font-size="10.00">uint32_t</text>
</a>
</g>
</g>
<!-- Node3&#45;&gt;Node1 -->
<g id="edge2" class="edge">
<title>Node3&#45;&gt;Node1</title>
<path fill="none" stroke="#9a32cd" stroke-dasharray="5,2" d="M125.31,-80.23C115.76,-61.77 101.23,-33.67 93.96,-19.62"/>
<polygon fill="#9a32cd" stroke="#9a32cd" points="122.32,-82.07 130.02,-89.34 128.54,-78.85 122.32,-82.07"/>
<text text-anchor="middle" x="144" y="-63" font-family="Helvetica,sans-Serif" font-size="10.00"> DIPT</text>
<text text-anchor="middle" x="144" y="-52" font-family="Helvetica,sans-Serif" font-size="10.00">INT</text>
<text text-anchor="middle" x="144" y="-41" font-family="Helvetica,sans-Serif" font-size="10.00">reserve_1</text>
</g>
</g>
</svg>
