<?xml version="1.0" encoding="UTF-8" standalone="no"?>
<!DOCTYPE svg PUBLIC "-//W3C//DTD SVG 1.1//EN"
 "http://www.w3.org/Graphics/SVG/1.1/DTD/svg11.dtd">
<!-- Generated by graphviz version 2.43.0 (0)
 -->
<!-- Title: regRDMOR_un Pages: 1 -->
<svg width="245pt" height="150pt"
 viewBox="0.00 0.00 245.00 150.00" xmlns="http://www.w3.org/2000/svg" xmlns:xlink="http://www.w3.org/1999/xlink">
<g id="graph0" class="graph" transform="scale(1 1) rotate(0) translate(4 146)">
<title>regRDMOR_un</title>
<polygon fill="white" stroke="transparent" points="-4,4 -4,-146 241,-146 241,4 -4,4"/>
<!-- Node1 -->
<g id="node1" class="node">
<title>Node1</title>
<g id="a_node1"><a xlink:title=" ">
<polygon fill="#bfbfbf" stroke="black" points="75.5,-0.5 75.5,-19.5 162.5,-19.5 162.5,-0.5 75.5,-0.5"/>
<text text-anchor="middle" x="119" y="-7.5" font-family="Helvetica,sans-Serif" font-size="10.00">regRDMOR_un</text>
</a>
</g>
</g>
<!-- Node2 -->
<g id="node2" class="node">
<title>Node2</title>
<g id="a_node2"><a xlink:title=" ">
<polygon fill="white" stroke="#bfbfbf" points="0,-122.5 0,-141.5 56,-141.5 56,-122.5 0,-122.5"/>
<text text-anchor="middle" x="28" y="-129.5" font-family="Helvetica,sans-Serif" font-size="10.00">uint16_t</text>
</a>
</g>
</g>
<!-- Node2&#45;&gt;Node1 -->
<g id="edge1" class="edge">
<title>Node2&#45;&gt;Node1</title>
<path fill="none" stroke="#9a32cd" stroke-dasharray="5,2" d="M39.57,-113.85C52.54,-94.89 74.46,-63.64 95,-38 100.02,-31.74 106.02,-24.99 110.76,-19.8"/>
<polygon fill="#9a32cd" stroke="#9a32cd" points="36.54,-112.08 33.81,-122.32 42.33,-116.02 36.54,-112.08"/>
<text text-anchor="middle" x="105" y="-68.5" font-family="Helvetica,sans-Serif" font-size="10.00"> INT</text>
</g>
<!-- Node3 -->
<g id="node3" class="node">
<title>Node3</title>
<g id="a_node3"><a xlink:title=" ">
<polygon fill="white" stroke="#bfbfbf" points="74.5,-122.5 74.5,-141.5 163.5,-141.5 163.5,-122.5 74.5,-122.5"/>
<text text-anchor="middle" x="119" y="-129.5" font-family="Helvetica,sans-Serif" font-size="10.00">anonymous:bit</text>
</a>
</g>
</g>
<!-- Node3&#45;&gt;Node1 -->
<g id="edge2" class="edge">
<title>Node3&#45;&gt;Node1</title>
<path fill="none" stroke="#9a32cd" stroke-dasharray="5,2" d="M119,-112.15C119,-85.72 119,-38.76 119,-19.55"/>
<polygon fill="#9a32cd" stroke="#9a32cd" points="115.5,-112.37 119,-122.37 122.5,-112.37 115.5,-112.37"/>
<text text-anchor="middle" x="127" y="-68.5" font-family="Helvetica,sans-Serif" font-size="10.00"> bit</text>
</g>
<!-- Node4 -->
<g id="node4" class="node">
<title>Node4</title>
<g id="a_node4"><a xlink:title=" ">
<polygon fill="white" stroke="#bfbfbf" points="181,-122.5 181,-141.5 237,-141.5 237,-122.5 181,-122.5"/>
<text text-anchor="middle" x="209" y="-129.5" font-family="Helvetica,sans-Serif" font-size="10.00">uint32_t</text>
</a>
</g>
</g>
<!-- Node4&#45;&gt;Node1 -->
<g id="edge3" class="edge">
<title>Node4&#45;&gt;Node1</title>
<path fill="none" stroke="#9a32cd" stroke-dasharray="5,2" d="M196.42,-114.23C176.95,-88.27 140.21,-39.28 125.41,-19.55"/>
<polygon fill="#9a32cd" stroke="#9a32cd" points="193.73,-116.47 202.53,-122.37 199.33,-112.27 193.73,-116.47"/>
<text text-anchor="middle" x="211.5" y="-96" font-family="Helvetica,sans-Serif" font-size="10.00"> AE</text>
<text text-anchor="middle" x="211.5" y="-85" font-family="Helvetica,sans-Serif" font-size="10.00">DME</text>
<text text-anchor="middle" x="211.5" y="-74" font-family="Helvetica,sans-Serif" font-size="10.00">PR</text>
<text text-anchor="middle" x="211.5" y="-63" font-family="Helvetica,sans-Serif" font-size="10.00">reserve_1</text>
<text text-anchor="middle" x="211.5" y="-52" font-family="Helvetica,sans-Serif" font-size="10.00">reserve_2</text>
<text text-anchor="middle" x="211.5" y="-41" font-family="Helvetica,sans-Serif" font-size="10.00">reserve_3</text>
</g>
</g>
</svg>
