<?xml version="1.0" encoding="UTF-8" standalone="no"?>
<!DOCTYPE svg PUBLIC "-//W3C//DTD SVG 1.1//EN"
 "http://www.w3.org/Graphics/SVG/1.1/DTD/svg11.dtd">
<!-- Generated by graphviz version 2.43.0 (0)
 -->
<!-- Title: regRDMFIXSAR_un Pages: 1 -->
<svg width="172pt" height="117pt"
 viewBox="0.00 0.00 171.50 117.00" xmlns="http://www.w3.org/2000/svg" xmlns:xlink="http://www.w3.org/1999/xlink">
<g id="graph0" class="graph" transform="scale(1 1) rotate(0) translate(4 113)">
<title>regRDMFIXSAR_un</title>
<polygon fill="white" stroke="transparent" points="-4,4 -4,-113 167.5,-113 167.5,4 -4,4"/>
<!-- Node1 -->
<g id="node1" class="node">
<title>Node1</title>
<g id="a_node1"><a xlink:title=" ">
<polygon fill="#bfbfbf" stroke="black" points="18.5,-0.5 18.5,-19.5 127.5,-19.5 127.5,-0.5 18.5,-0.5"/>
<text text-anchor="middle" x="73" y="-7.5" font-family="Helvetica,sans-Serif" font-size="10.00">regRDMFIXSAR_un</text>
</a>
</g>
</g>
<!-- Node2 -->
<g id="node2" class="node">
<title>Node2</title>
<g id="a_node2"><a xlink:title=" ">
<polygon fill="white" stroke="#bfbfbf" points="0,-89.5 0,-108.5 56,-108.5 56,-89.5 0,-89.5"/>
<text text-anchor="middle" x="28" y="-96.5" font-family="Helvetica,sans-Serif" font-size="10.00">uint32_t</text>
</a>
</g>
</g>
<!-- Node2&#45;&gt;Node1 -->
<g id="edge1" class="edge">
<title>Node2&#45;&gt;Node1</title>
<path fill="none" stroke="#9a32cd" stroke-dasharray="5,2" d="M32.03,-79.36C35.2,-67.05 40.38,-50.88 48,-38 52.03,-31.18 58.03,-24.63 63.13,-19.7"/>
<polygon fill="#9a32cd" stroke="#9a32cd" points="28.56,-78.83 29.67,-89.37 35.37,-80.44 28.56,-78.83"/>
<text text-anchor="middle" x="72.5" y="-63" font-family="Helvetica,sans-Serif" font-size="10.00"> INT</text>
<text text-anchor="middle" x="72.5" y="-52" font-family="Helvetica,sans-Serif" font-size="10.00">SAR</text>
<text text-anchor="middle" x="72.5" y="-41" font-family="Helvetica,sans-Serif" font-size="10.00">reserve_1</text>
</g>
<!-- Node3 -->
<g id="node3" class="node">
<title>Node3</title>
<g id="a_node3"><a xlink:title=" ">
<polygon fill="white" stroke="#bfbfbf" points="74.5,-89.5 74.5,-108.5 163.5,-108.5 163.5,-89.5 74.5,-89.5"/>
<text text-anchor="middle" x="119" y="-96.5" font-family="Helvetica,sans-Serif" font-size="10.00">anonymous:bit</text>
</a>
</g>
</g>
<!-- Node3&#45;&gt;Node1 -->
<g id="edge2" class="edge">
<title>Node3&#45;&gt;Node1</title>
<path fill="none" stroke="#9a32cd" stroke-dasharray="5,2" d="M114.16,-79.42C110.49,-67.14 104.76,-50.98 97,-38 93.01,-31.33 87.25,-24.78 82.38,-19.81"/>
<polygon fill="#9a32cd" stroke="#9a32cd" points="110.88,-80.71 116.94,-89.4 117.63,-78.83 110.88,-80.71"/>
<text text-anchor="middle" x="119" y="-52" font-family="Helvetica,sans-Serif" font-size="10.00"> bit</text>
</g>
</g>
</svg>
