<?xml version="1.0" encoding="UTF-8" standalone="no"?>
<!DOCTYPE svg PUBLIC "-//W3C//DTD SVG 1.1//EN"
 "http://www.w3.org/Graphics/SVG/1.1/DTD/svg11.dtd">
<!-- Generated by graphviz version 2.43.0 (0)
 -->
<!-- Title: UTag_Eth_TccrType Pages: 1 -->
<svg width="218pt" height="272pt"
 viewBox="0.00 0.00 217.50 272.00" xmlns="http://www.w3.org/2000/svg" xmlns:xlink="http://www.w3.org/1999/xlink">
<g id="graph0" class="graph" transform="scale(1 1) rotate(0) translate(4 268)">
<title>UTag_Eth_TccrType</title>
<polygon fill="white" stroke="transparent" points="-4,4 -4,-268 213.5,-268 213.5,4 -4,4"/>
<!-- Node1 -->
<g id="node1" class="node">
<title>Node1</title>
<g id="a_node1"><a xlink:title=" ">
<polygon fill="#bfbfbf" stroke="black" points="0,-0.5 0,-19.5 108,-19.5 108,-0.5 0,-0.5"/>
<text text-anchor="middle" x="54" y="-7.5" font-family="Helvetica,sans-Serif" font-size="10.00">UTag_Eth_TccrType</text>
</a>
</g>
</g>
<!-- Node2 -->
<g id="node2" class="node">
<title>Node2</title>
<g id="a_node2"><a xlink:title=" ">
<polygon fill="white" stroke="#bfbfbf" points="11.5,-244.5 11.5,-263.5 96.5,-263.5 96.5,-244.5 11.5,-244.5"/>
<text text-anchor="middle" x="54" y="-251.5" font-family="Helvetica,sans-Serif" font-size="10.00">unsigned long</text>
</a>
</g>
</g>
<!-- Node2&#45;&gt;Node1 -->
<g id="edge1" class="edge">
<title>Node2&#45;&gt;Node1</title>
<path fill="none" stroke="#9a32cd" stroke-dasharray="5,2" d="M52.34,-234.32C49.6,-200.79 44.73,-128.18 48,-67 48.9,-50.21 51.3,-30.7 52.78,-19.71"/>
<polygon fill="#9a32cd" stroke="#9a32cd" points="48.87,-234.8 53.21,-244.47 55.84,-234.21 48.87,-234.8"/>
<text text-anchor="middle" x="62" y="-74.5" font-family="Helvetica,sans-Serif" font-size="10.00"> Word</text>
</g>
<!-- Node3 -->
<g id="node3" class="node">
<title>Node3</title>
<g id="a_node3"><a xlink:href="structSTag__Eth__TccrBitsType.html" target="_top" xlink:title=" ">
<polygon fill="white" stroke="black" points="84.5,-67.5 84.5,-86.5 209.5,-86.5 209.5,-67.5 84.5,-67.5"/>
<text text-anchor="middle" x="147" y="-74.5" font-family="Helvetica,sans-Serif" font-size="10.00">STag_Eth_TccrBitsType</text>
</a>
</g>
</g>
<!-- Node2&#45;&gt;Node3 -->
<g id="edge3" class="edge">
<title>Node2&#45;&gt;Node3</title>
<path fill="none" stroke="#9a32cd" stroke-dasharray="5,2" d="M63.61,-234.91C83.37,-197.73 127.93,-113.89 142.38,-86.69"/>
<polygon fill="#9a32cd" stroke="#9a32cd" points="60.34,-233.61 58.74,-244.08 66.52,-236.89 60.34,-233.61"/>
<text text-anchor="middle" x="145" y="-218" font-family="Helvetica,sans-Serif" font-size="10.00"> Mfen</text>
<text text-anchor="middle" x="145" y="-207" font-family="Helvetica,sans-Serif" font-size="10.00">Mfr</text>
<text text-anchor="middle" x="145" y="-196" font-family="Helvetica,sans-Serif" font-size="10.00">Res1</text>
<text text-anchor="middle" x="145" y="-185" font-family="Helvetica,sans-Serif" font-size="10.00">Res2</text>
<text text-anchor="middle" x="145" y="-174" font-family="Helvetica,sans-Serif" font-size="10.00">Res3</text>
<text text-anchor="middle" x="145" y="-163" font-family="Helvetica,sans-Serif" font-size="10.00">Tfen</text>
<text text-anchor="middle" x="145" y="-152" font-family="Helvetica,sans-Serif" font-size="10.00">Tfr</text>
<text text-anchor="middle" x="145" y="-141" font-family="Helvetica,sans-Serif" font-size="10.00">Tsrq0</text>
<text text-anchor="middle" x="145" y="-130" font-family="Helvetica,sans-Serif" font-size="10.00">Tsrq1</text>
<text text-anchor="middle" x="145" y="-119" font-family="Helvetica,sans-Serif" font-size="10.00">Tsrq2</text>
<text text-anchor="middle" x="145" y="-108" font-family="Helvetica,sans-Serif" font-size="10.00">...</text>
</g>
<!-- Node3&#45;&gt;Node1 -->
<g id="edge2" class="edge">
<title>Node3&#45;&gt;Node1</title>
<path fill="none" stroke="#9a32cd" stroke-dasharray="5,2" d="M126.14,-61.42C107.75,-48.57 81.59,-30.28 66.34,-19.63"/>
<polygon fill="#9a32cd" stroke="#9a32cd" points="124.26,-64.37 134.46,-67.23 128.27,-58.64 124.26,-64.37"/>
<text text-anchor="middle" x="114.5" y="-41" font-family="Helvetica,sans-Serif" font-size="10.00"> Bit</text>
</g>
</g>
</svg>
