<?xml version="1.0" encoding="UTF-8" standalone="no"?>
<!DOCTYPE svg PUBLIC "-//W3C//DTD SVG 1.1//EN"
 "http://www.w3.org/Graphics/SVG/1.1/DTD/svg11.dtd">
<!-- Generated by graphviz version 2.43.0 (0)
 -->
<!-- Title: UTag_Eth_EcmrType Pages: 1 -->
<svg width="227pt" height="272pt"
 viewBox="0.00 0.00 226.50 272.00" xmlns="http://www.w3.org/2000/svg" xmlns:xlink="http://www.w3.org/1999/xlink">
<g id="graph0" class="graph" transform="scale(1 1) rotate(0) translate(4 268)">
<title>UTag_Eth_EcmrType</title>
<polygon fill="white" stroke="transparent" points="-4,4 -4,-268 222.5,-268 222.5,4 -4,4"/>
<!-- Node1 -->
<g id="node1" class="node">
<title>Node1</title>
<g id="a_node1"><a xlink:title=" ">
<polygon fill="#bfbfbf" stroke="black" points="0,-0.5 0,-19.5 114,-19.5 114,-0.5 0,-0.5"/>
<text text-anchor="middle" x="57" y="-7.5" font-family="Helvetica,sans-Serif" font-size="10.00">UTag_Eth_EcmrType</text>
</a>
</g>
</g>
<!-- Node2 -->
<g id="node2" class="node">
<title>Node2</title>
<g id="a_node2"><a xlink:title=" ">
<polygon fill="white" stroke="#bfbfbf" points="14.5,-244.5 14.5,-263.5 99.5,-263.5 99.5,-244.5 14.5,-244.5"/>
<text text-anchor="middle" x="57" y="-251.5" font-family="Helvetica,sans-Serif" font-size="10.00">unsigned long</text>
</a>
</g>
</g>
<!-- Node2&#45;&gt;Node1 -->
<g id="edge1" class="edge">
<title>Node2&#45;&gt;Node1</title>
<path fill="none" stroke="#9a32cd" stroke-dasharray="5,2" d="M55.07,-234.31C51.87,-200.78 46.19,-128.16 50,-67 51.05,-50.18 53.85,-30.68 55.57,-19.7"/>
<polygon fill="#9a32cd" stroke="#9a32cd" points="51.6,-234.86 56.07,-244.46 58.57,-234.17 51.6,-234.86"/>
<text text-anchor="middle" x="64" y="-74.5" font-family="Helvetica,sans-Serif" font-size="10.00"> Word</text>
</g>
<!-- Node3 -->
<g id="node3" class="node">
<title>Node3</title>
<g id="a_node3"><a xlink:href="structSTag__Eth__EcmrBitsType.html" target="_top" xlink:title=" ">
<polygon fill="white" stroke="black" points="87.5,-67.5 87.5,-86.5 218.5,-86.5 218.5,-67.5 87.5,-67.5"/>
<text text-anchor="middle" x="153" y="-74.5" font-family="Helvetica,sans-Serif" font-size="10.00">STag_Eth_EcmrBitsType</text>
</a>
</g>
</g>
<!-- Node2&#45;&gt;Node3 -->
<g id="edge3" class="edge">
<title>Node2&#45;&gt;Node3</title>
<path fill="none" stroke="#9a32cd" stroke-dasharray="5,2" d="M66.92,-234.91C87.32,-197.73 133.31,-113.89 148.23,-86.69"/>
<polygon fill="#9a32cd" stroke="#9a32cd" points="63.63,-233.63 61.89,-244.08 69.77,-237 63.63,-233.63"/>
<text text-anchor="middle" x="150" y="-218" font-family="Helvetica,sans-Serif" font-size="10.00"> Cer</text>
<text text-anchor="middle" x="150" y="-207" font-family="Helvetica,sans-Serif" font-size="10.00">Dm</text>
<text text-anchor="middle" x="150" y="-196" font-family="Helvetica,sans-Serif" font-size="10.00">Dpad</text>
<text text-anchor="middle" x="150" y="-185" font-family="Helvetica,sans-Serif" font-size="10.00">Mpde</text>
<text text-anchor="middle" x="150" y="-174" font-family="Helvetica,sans-Serif" font-size="10.00">Pfr</text>
<text text-anchor="middle" x="150" y="-163" font-family="Helvetica,sans-Serif" font-size="10.00">Prm</text>
<text text-anchor="middle" x="150" y="-152" font-family="Helvetica,sans-Serif" font-size="10.00">Rcsc</text>
<text text-anchor="middle" x="150" y="-141" font-family="Helvetica,sans-Serif" font-size="10.00">Re</text>
<text text-anchor="middle" x="150" y="-130" font-family="Helvetica,sans-Serif" font-size="10.00">Res1</text>
<text text-anchor="middle" x="150" y="-119" font-family="Helvetica,sans-Serif" font-size="10.00">Res2</text>
<text text-anchor="middle" x="150" y="-108" font-family="Helvetica,sans-Serif" font-size="10.00">...</text>
</g>
<!-- Node3&#45;&gt;Node1 -->
<g id="edge2" class="edge">
<title>Node3&#45;&gt;Node1</title>
<path fill="none" stroke="#9a32cd" stroke-dasharray="5,2" d="M131.72,-61.59C112.73,-48.74 85.55,-30.33 69.74,-19.63"/>
<polygon fill="#9a32cd" stroke="#9a32cd" points="129.81,-64.53 140.05,-67.23 133.73,-58.73 129.81,-64.53"/>
<text text-anchor="middle" x="118.5" y="-41" font-family="Helvetica,sans-Serif" font-size="10.00"> Bit</text>
</g>
</g>
</svg>
