<?xml version="1.0" encoding="UTF-8" standalone="no"?>
<!DOCTYPE svg PUBLIC "-//W3C//DTD SVG 1.1//EN"
 "http://www.w3.org/Graphics/SVG/1.1/DTD/svg11.dtd">
<!-- Generated by graphviz version 2.43.0 (0)
 -->
<!-- Title: UTag_Eth_CsrType Pages: 1 -->
<svg width="213pt" height="272pt"
 viewBox="0.00 0.00 212.50 272.00" xmlns="http://www.w3.org/2000/svg" xmlns:xlink="http://www.w3.org/1999/xlink">
<g id="graph0" class="graph" transform="scale(1 1) rotate(0) translate(4 268)">
<title>UTag_Eth_CsrType</title>
<polygon fill="white" stroke="transparent" points="-4,4 -4,-268 208.5,-268 208.5,4 -4,4"/>
<!-- Node1 -->
<g id="node1" class="node">
<title>Node1</title>
<g id="a_node1"><a xlink:title=" ">
<polygon fill="#bfbfbf" stroke="black" points="0,-0.5 0,-19.5 105,-19.5 105,-0.5 0,-0.5"/>
<text text-anchor="middle" x="52.5" y="-7.5" font-family="Helvetica,sans-Serif" font-size="10.00">UTag_Eth_CsrType</text>
</a>
</g>
</g>
<!-- Node2 -->
<g id="node2" class="node">
<title>Node2</title>
<g id="a_node2"><a xlink:title=" ">
<polygon fill="white" stroke="#bfbfbf" points="10,-244.5 10,-263.5 95,-263.5 95,-244.5 10,-244.5"/>
<text text-anchor="middle" x="52.5" y="-251.5" font-family="Helvetica,sans-Serif" font-size="10.00">unsigned long</text>
</a>
</g>
</g>
<!-- Node2&#45;&gt;Node1 -->
<g id="edge1" class="edge">
<title>Node2&#45;&gt;Node1</title>
<path fill="none" stroke="#9a32cd" stroke-dasharray="5,2" d="M50.57,-234.31C47.37,-200.78 41.69,-128.16 45.5,-67 46.55,-50.18 49.35,-30.68 51.07,-19.7"/>
<polygon fill="#9a32cd" stroke="#9a32cd" points="47.1,-234.86 51.57,-244.46 54.07,-234.17 47.1,-234.86"/>
<text text-anchor="middle" x="59.5" y="-74.5" font-family="Helvetica,sans-Serif" font-size="10.00"> Word</text>
</g>
<!-- Node3 -->
<g id="node3" class="node">
<title>Node3</title>
<g id="a_node3"><a xlink:href="structSTag__Eth__CsrBitsType.html" target="_top" xlink:title=" ">
<polygon fill="white" stroke="black" points="82.5,-67.5 82.5,-86.5 204.5,-86.5 204.5,-67.5 82.5,-67.5"/>
<text text-anchor="middle" x="143.5" y="-74.5" font-family="Helvetica,sans-Serif" font-size="10.00">STag_Eth_CsrBitsType</text>
</a>
</g>
</g>
<!-- Node2&#45;&gt;Node3 -->
<g id="edge3" class="edge">
<title>Node2&#45;&gt;Node3</title>
<path fill="none" stroke="#9a32cd" stroke-dasharray="5,2" d="M61.9,-234.91C81.24,-197.73 124.84,-113.89 138.98,-86.69"/>
<polygon fill="#9a32cd" stroke="#9a32cd" points="58.65,-233.59 57.14,-244.08 64.86,-236.82 58.65,-233.59"/>
<text text-anchor="middle" x="140" y="-218" font-family="Helvetica,sans-Serif" font-size="10.00"> Dts</text>
<text text-anchor="middle" x="140" y="-207" font-family="Helvetica,sans-Serif" font-size="10.00">Ops</text>
<text text-anchor="middle" x="140" y="-196" font-family="Helvetica,sans-Serif" font-size="10.00">Res1</text>
<text text-anchor="middle" x="140" y="-185" font-family="Helvetica,sans-Serif" font-size="10.00">Res2</text>
<text text-anchor="middle" x="140" y="-174" font-family="Helvetica,sans-Serif" font-size="10.00">Res3</text>
<text text-anchor="middle" x="140" y="-163" font-family="Helvetica,sans-Serif" font-size="10.00">Rpo</text>
<text text-anchor="middle" x="140" y="-152" font-family="Helvetica,sans-Serif" font-size="10.00">Tpo0</text>
<text text-anchor="middle" x="140" y="-141" font-family="Helvetica,sans-Serif" font-size="10.00">Tpo1</text>
<text text-anchor="middle" x="140" y="-130" font-family="Helvetica,sans-Serif" font-size="10.00">Tpo2</text>
<text text-anchor="middle" x="140" y="-119" font-family="Helvetica,sans-Serif" font-size="10.00">Tpo3</text>
<text text-anchor="middle" x="140" y="-108" font-family="Helvetica,sans-Serif" font-size="10.00">...</text>
</g>
<!-- Node3&#45;&gt;Node1 -->
<g id="edge2" class="edge">
<title>Node3&#45;&gt;Node1</title>
<path fill="none" stroke="#9a32cd" stroke-dasharray="5,2" d="M123.09,-61.42C105.1,-48.57 79.49,-30.28 64.58,-19.63"/>
<polygon fill="#9a32cd" stroke="#9a32cd" points="121.06,-64.27 131.23,-67.23 125.12,-58.57 121.06,-64.27"/>
<text text-anchor="middle" x="111" y="-41" font-family="Helvetica,sans-Serif" font-size="10.00"> Bit</text>
</g>
</g>
</svg>
