<?xml version="1.0" encoding="UTF-8" standalone="no"?>
<!DOCTYPE svg PUBLIC "-//W3C//DTD SVG 1.1//EN"
 "http://www.w3.org/Graphics/SVG/1.1/DTD/svg11.dtd">
<!-- Generated by graphviz version 2.43.0 (0)
 -->
<!-- Title: regRDMDPSEC_un Pages: 1 -->
<svg width="181pt" height="150pt"
 viewBox="0.00 0.00 180.50 150.00" xmlns="http://www.w3.org/2000/svg" xmlns:xlink="http://www.w3.org/1999/xlink">
<g id="graph0" class="graph" transform="scale(1 1) rotate(0) translate(4 146)">
<title>regRDMDPSEC_un</title>
<polygon fill="white" stroke="transparent" points="-4,4 -4,-146 176.5,-146 176.5,4 -4,4"/>
<!-- Node1 -->
<g id="node1" class="node">
<title>Node1</title>
<g id="a_node1"><a xlink:title=" ">
<polygon fill="#bfbfbf" stroke="black" points="37,-0.5 37,-19.5 142,-19.5 142,-0.5 37,-0.5"/>
<text text-anchor="middle" x="89.5" y="-7.5" font-family="Helvetica,sans-Serif" font-size="10.00">regRDMDPSEC_un</text>
</a>
</g>
</g>
<!-- Node2 -->
<g id="node2" class="node">
<title>Node2</title>
<g id="a_node2"><a xlink:title=" ">
<polygon fill="white" stroke="#bfbfbf" points="0,-122.5 0,-141.5 89,-141.5 89,-122.5 0,-122.5"/>
<text text-anchor="middle" x="44.5" y="-129.5" font-family="Helvetica,sans-Serif" font-size="10.00">anonymous:bit</text>
</a>
</g>
</g>
<!-- Node2&#45;&gt;Node1 -->
<g id="edge1" class="edge">
<title>Node2&#45;&gt;Node1</title>
<path fill="none" stroke="#9a32cd" stroke-dasharray="5,2" d="M51.31,-112.85C61.16,-86.57 79.02,-38.94 86.29,-19.55"/>
<polygon fill="#9a32cd" stroke="#9a32cd" points="47.97,-111.78 47.74,-122.37 54.52,-114.24 47.97,-111.78"/>
<text text-anchor="middle" x="87.5" y="-68.5" font-family="Helvetica,sans-Serif" font-size="10.00"> bit</text>
</g>
<!-- Node3 -->
<g id="node3" class="node">
<title>Node3</title>
<g id="a_node3"><a xlink:title=" ">
<polygon fill="white" stroke="#bfbfbf" points="106.5,-122.5 106.5,-141.5 162.5,-141.5 162.5,-122.5 106.5,-122.5"/>
<text text-anchor="middle" x="134.5" y="-129.5" font-family="Helvetica,sans-Serif" font-size="10.00">uint32_t</text>
</a>
</g>
</g>
<!-- Node3&#45;&gt;Node1 -->
<g id="edge2" class="edge">
<title>Node3&#45;&gt;Node1</title>
<path fill="none" stroke="#9a32cd" stroke-dasharray="5,2" d="M127.69,-112.85C117.84,-86.57 99.98,-38.94 92.71,-19.55"/>
<polygon fill="#9a32cd" stroke="#9a32cd" points="124.48,-114.24 131.26,-122.37 131.03,-111.78 124.48,-114.24"/>
<text text-anchor="middle" x="148" y="-96" font-family="Helvetica,sans-Serif" font-size="10.00"> INT</text>
<text text-anchor="middle" x="148" y="-85" font-family="Helvetica,sans-Serif" font-size="10.00">SA</text>
<text text-anchor="middle" x="148" y="-74" font-family="Helvetica,sans-Serif" font-size="10.00">SEC</text>
<text text-anchor="middle" x="148" y="-63" font-family="Helvetica,sans-Serif" font-size="10.00">SM</text>
<text text-anchor="middle" x="148" y="-52" font-family="Helvetica,sans-Serif" font-size="10.00">reserve_1</text>
<text text-anchor="middle" x="148" y="-41" font-family="Helvetica,sans-Serif" font-size="10.00">reserve_2</text>
</g>
</g>
</svg>
