<?xml version="1.0" encoding="UTF-8" standalone="no"?>
<!DOCTYPE svg PUBLIC "-//W3C//DTD SVG 1.1//EN"
 "http://www.w3.org/Graphics/SVG/1.1/DTD/svg11.dtd">
<!-- Generated by graphviz version 2.43.0 (0)
 -->
<!-- Title: rDmacFDSDM_CONTROL_un Pages: 1 -->
<svg width="176pt" height="150pt"
 viewBox="0.00 0.00 176.00 150.00" xmlns="http://www.w3.org/2000/svg" xmlns:xlink="http://www.w3.org/1999/xlink">
<g id="graph0" class="graph" transform="scale(1 1) rotate(0) translate(4 146)">
<title>rDmacFDSDM_CONTROL_un</title>
<polygon fill="white" stroke="transparent" points="-4,4 -4,-146 172,-146 172,4 -4,4"/>
<!-- Node1 -->
<g id="node1" class="node">
<title>Node1</title>
<g id="a_node1"><a xlink:title=" ">
<polygon fill="#bfbfbf" stroke="black" points="0,-0.5 0,-19.5 155,-19.5 155,-0.5 0,-0.5"/>
<text text-anchor="middle" x="77.5" y="-7.5" font-family="Helvetica,sans-Serif" font-size="10.00">rDmacFDSDM_CONTROL_un</text>
</a>
</g>
</g>
<!-- Node2 -->
<g id="node2" class="node">
<title>Node2</title>
<g id="a_node2"><a xlink:title=" ">
<polygon fill="white" stroke="#bfbfbf" points="4.5,-122.5 4.5,-141.5 60.5,-141.5 60.5,-122.5 4.5,-122.5"/>
<text text-anchor="middle" x="32.5" y="-129.5" font-family="Helvetica,sans-Serif" font-size="10.00">uint32_t</text>
</a>
</g>
</g>
<!-- Node2&#45;&gt;Node1 -->
<g id="edge1" class="edge">
<title>Node2&#45;&gt;Node1</title>
<path fill="none" stroke="#9a32cd" stroke-dasharray="5,2" d="M33.61,-112.26C35.42,-92.74 40.15,-61.76 52.5,-38 56.15,-30.97 62.13,-24.42 67.33,-19.53"/>
<polygon fill="#9a32cd" stroke="#9a32cd" points="30.12,-112.04 32.85,-122.28 37.1,-112.57 30.12,-112.04"/>
<text text-anchor="middle" x="77" y="-96" font-family="Helvetica,sans-Serif" font-size="10.00"> A_EN</text>
<text text-anchor="middle" x="77" y="-85" font-family="Helvetica,sans-Serif" font-size="10.00">DMA_CH1</text>
<text text-anchor="middle" x="77" y="-74" font-family="Helvetica,sans-Serif" font-size="10.00">DMA_CH2</text>
<text text-anchor="middle" x="77" y="-63" font-family="Helvetica,sans-Serif" font-size="10.00">D_EN</text>
<text text-anchor="middle" x="77" y="-52" font-family="Helvetica,sans-Serif" font-size="10.00">INT</text>
<text text-anchor="middle" x="77" y="-41" font-family="Helvetica,sans-Serif" font-size="10.00">reserve_1</text>
</g>
<!-- Node3 -->
<g id="node3" class="node">
<title>Node3</title>
<g id="a_node3"><a xlink:title=" ">
<polygon fill="white" stroke="#bfbfbf" points="79,-122.5 79,-141.5 168,-141.5 168,-122.5 79,-122.5"/>
<text text-anchor="middle" x="123.5" y="-129.5" font-family="Helvetica,sans-Serif" font-size="10.00">anonymous:bit</text>
</a>
</g>
</g>
<!-- Node3&#45;&gt;Node1 -->
<g id="edge2" class="edge">
<title>Node3&#45;&gt;Node1</title>
<path fill="none" stroke="#9a32cd" stroke-dasharray="5,2" d="M121.8,-112.3C119.43,-92.82 113.91,-61.87 101.5,-38 97.91,-31.1 92.17,-24.55 87.2,-19.63"/>
<polygon fill="#9a32cd" stroke="#9a32cd" points="118.33,-112.73 122.87,-122.3 125.29,-111.99 118.33,-112.73"/>
<text text-anchor="middle" x="128.5" y="-68.5" font-family="Helvetica,sans-Serif" font-size="10.00"> bit</text>
</g>
</g>
</svg>
