<?xml version="1.0" encoding="UTF-8" standalone="no"?>
<!DOCTYPE svg PUBLIC "-//W3C//DTD SVG 1.1//EN"
 "http://www.w3.org/Graphics/SVG/1.1/DTD/svg11.dtd">
<!-- Generated by graphviz version 2.43.0 (0)
 -->
<!-- Title: UTag_Eth_EicType Pages: 1 -->
<svg width="212pt" height="272pt"
 viewBox="0.00 0.00 211.50 272.00" xmlns="http://www.w3.org/2000/svg" xmlns:xlink="http://www.w3.org/1999/xlink">
<g id="graph0" class="graph" transform="scale(1 1) rotate(0) translate(4 268)">
<title>UTag_Eth_EicType</title>
<polygon fill="white" stroke="transparent" points="-4,4 -4,-268 207.5,-268 207.5,4 -4,4"/>
<!-- Node1 -->
<g id="node1" class="node">
<title>Node1</title>
<g id="a_node1"><a xlink:title=" ">
<polygon fill="#bfbfbf" stroke="black" points="0,-0.5 0,-19.5 104,-19.5 104,-0.5 0,-0.5"/>
<text text-anchor="middle" x="52" y="-7.5" font-family="Helvetica,sans-Serif" font-size="10.00">UTag_Eth_EicType</text>
</a>
</g>
</g>
<!-- Node2 -->
<g id="node2" class="node">
<title>Node2</title>
<g id="a_node2"><a xlink:title=" ">
<polygon fill="white" stroke="#bfbfbf" points="9.5,-244.5 9.5,-263.5 94.5,-263.5 94.5,-244.5 9.5,-244.5"/>
<text text-anchor="middle" x="52" y="-251.5" font-family="Helvetica,sans-Serif" font-size="10.00">unsigned long</text>
</a>
</g>
</g>
<!-- Node2&#45;&gt;Node1 -->
<g id="edge1" class="edge">
<title>Node2&#45;&gt;Node1</title>
<path fill="none" stroke="#9a32cd" stroke-dasharray="5,2" d="M50.34,-234.32C47.6,-200.79 42.73,-128.18 46,-67 46.9,-50.21 49.3,-30.7 50.78,-19.71"/>
<polygon fill="#9a32cd" stroke="#9a32cd" points="46.87,-234.8 51.21,-244.47 53.84,-234.21 46.87,-234.8"/>
<text text-anchor="middle" x="60" y="-74.5" font-family="Helvetica,sans-Serif" font-size="10.00"> Word</text>
</g>
<!-- Node3 -->
<g id="node3" class="node">
<title>Node3</title>
<g id="a_node3"><a xlink:href="structSTag__Eth__EicBitsType.html" target="_top" xlink:title=" ">
<polygon fill="white" stroke="black" points="82.5,-67.5 82.5,-86.5 203.5,-86.5 203.5,-67.5 82.5,-67.5"/>
<text text-anchor="middle" x="143" y="-74.5" font-family="Helvetica,sans-Serif" font-size="10.00">STag_Eth_EicBitsType</text>
</a>
</g>
</g>
<!-- Node2&#45;&gt;Node3 -->
<g id="edge3" class="edge">
<title>Node2&#45;&gt;Node3</title>
<path fill="none" stroke="#9a32cd" stroke-dasharray="5,2" d="M61.4,-234.91C80.74,-197.73 124.34,-113.89 138.48,-86.69"/>
<polygon fill="#9a32cd" stroke="#9a32cd" points="58.15,-233.59 56.64,-244.08 64.36,-236.82 58.15,-233.59"/>
<text text-anchor="middle" x="141" y="-218" font-family="Helvetica,sans-Serif" font-size="10.00"> Clle0</text>
<text text-anchor="middle" x="141" y="-207" font-family="Helvetica,sans-Serif" font-size="10.00">Clle1</text>
<text text-anchor="middle" x="141" y="-196" font-family="Helvetica,sans-Serif" font-size="10.00">Cule0</text>
<text text-anchor="middle" x="141" y="-185" font-family="Helvetica,sans-Serif" font-size="10.00">Cule1</text>
<text text-anchor="middle" x="141" y="-174" font-family="Helvetica,sans-Serif" font-size="10.00">Mffe</text>
<text text-anchor="middle" x="141" y="-163" font-family="Helvetica,sans-Serif" font-size="10.00">Mree</text>
<text text-anchor="middle" x="141" y="-152" font-family="Helvetica,sans-Serif" font-size="10.00">Mtee</text>
<text text-anchor="middle" x="141" y="-141" font-family="Helvetica,sans-Serif" font-size="10.00">Qee</text>
<text text-anchor="middle" x="141" y="-130" font-family="Helvetica,sans-Serif" font-size="10.00">Res</text>
<text text-anchor="middle" x="141" y="-119" font-family="Helvetica,sans-Serif" font-size="10.00">See</text>
<text text-anchor="middle" x="141" y="-108" font-family="Helvetica,sans-Serif" font-size="10.00">...</text>
</g>
<!-- Node3&#45;&gt;Node1 -->
<g id="edge2" class="edge">
<title>Node3&#45;&gt;Node1</title>
<path fill="none" stroke="#9a32cd" stroke-dasharray="5,2" d="M122.59,-61.42C104.6,-48.57 78.99,-30.28 64.08,-19.63"/>
<polygon fill="#9a32cd" stroke="#9a32cd" points="120.56,-64.27 130.73,-67.23 124.62,-58.57 120.56,-64.27"/>
<text text-anchor="middle" x="110.5" y="-41" font-family="Helvetica,sans-Serif" font-size="10.00"> Bit</text>
</g>
</g>
</svg>
