<?xml version="1.0" encoding="UTF-8" standalone="no"?>
<!DOCTYPE svg PUBLIC "-//W3C//DTD SVG 1.1//EN"
 "http://www.w3.org/Graphics/SVG/1.1/DTD/svg11.dtd">
<!-- Generated by graphviz version 2.43.0 (0)
 -->
<!-- Title: UTag_Eth_TgcType Pages: 1 -->
<svg width="216pt" height="272pt"
 viewBox="0.00 0.00 215.50 272.00" xmlns="http://www.w3.org/2000/svg" xmlns:xlink="http://www.w3.org/1999/xlink">
<g id="graph0" class="graph" transform="scale(1 1) rotate(0) translate(4 268)">
<title>UTag_Eth_TgcType</title>
<polygon fill="white" stroke="transparent" points="-4,4 -4,-268 211.5,-268 211.5,4 -4,4"/>
<!-- Node1 -->
<g id="node1" class="node">
<title>Node1</title>
<g id="a_node1"><a xlink:title=" ">
<polygon fill="#bfbfbf" stroke="black" points="0,-0.5 0,-19.5 107,-19.5 107,-0.5 0,-0.5"/>
<text text-anchor="middle" x="53.5" y="-7.5" font-family="Helvetica,sans-Serif" font-size="10.00">UTag_Eth_TgcType</text>
</a>
</g>
</g>
<!-- Node2 -->
<g id="node2" class="node">
<title>Node2</title>
<g id="a_node2"><a xlink:title=" ">
<polygon fill="white" stroke="#bfbfbf" points="11,-244.5 11,-263.5 96,-263.5 96,-244.5 11,-244.5"/>
<text text-anchor="middle" x="53.5" y="-251.5" font-family="Helvetica,sans-Serif" font-size="10.00">unsigned long</text>
</a>
</g>
</g>
<!-- Node2&#45;&gt;Node1 -->
<g id="edge1" class="edge">
<title>Node2&#45;&gt;Node1</title>
<path fill="none" stroke="#9a32cd" stroke-dasharray="5,2" d="M51.57,-234.31C48.37,-200.78 42.69,-128.16 46.5,-67 47.55,-50.18 50.35,-30.68 52.07,-19.7"/>
<polygon fill="#9a32cd" stroke="#9a32cd" points="48.1,-234.86 52.57,-244.46 55.07,-234.17 48.1,-234.86"/>
<text text-anchor="middle" x="60.5" y="-74.5" font-family="Helvetica,sans-Serif" font-size="10.00"> Word</text>
</g>
<!-- Node3 -->
<g id="node3" class="node">
<title>Node3</title>
<g id="a_node3"><a xlink:href="structSTag__Eth__TgcBitsType.html" target="_top" xlink:title=" ">
<polygon fill="white" stroke="black" points="83.5,-67.5 83.5,-86.5 207.5,-86.5 207.5,-67.5 83.5,-67.5"/>
<text text-anchor="middle" x="145.5" y="-74.5" font-family="Helvetica,sans-Serif" font-size="10.00">STag_Eth_TgcBitsType</text>
</a>
</g>
</g>
<!-- Node2&#45;&gt;Node3 -->
<g id="edge3" class="edge">
<title>Node2&#45;&gt;Node3</title>
<path fill="none" stroke="#9a32cd" stroke-dasharray="5,2" d="M63.01,-234.91C82.56,-197.73 126.63,-113.89 140.93,-86.69"/>
<polygon fill="#9a32cd" stroke="#9a32cd" points="59.74,-233.6 58.19,-244.08 65.94,-236.86 59.74,-233.6"/>
<text text-anchor="middle" x="142.5" y="-218" font-family="Helvetica,sans-Serif" font-size="10.00"> Ecbs</text>
<text text-anchor="middle" x="142.5" y="-207" font-family="Helvetica,sans-Serif" font-size="10.00">Res1</text>
<text text-anchor="middle" x="142.5" y="-196" font-family="Helvetica,sans-Serif" font-size="10.00">Res2</text>
<text text-anchor="middle" x="142.5" y="-185" font-family="Helvetica,sans-Serif" font-size="10.00">Res3</text>
<text text-anchor="middle" x="142.5" y="-174" font-family="Helvetica,sans-Serif" font-size="10.00">Res4</text>
<text text-anchor="middle" x="142.5" y="-163" font-family="Helvetica,sans-Serif" font-size="10.00">Res5</text>
<text text-anchor="middle" x="142.5" y="-152" font-family="Helvetica,sans-Serif" font-size="10.00">Tbd0</text>
<text text-anchor="middle" x="142.5" y="-141" font-family="Helvetica,sans-Serif" font-size="10.00">Tbd1</text>
<text text-anchor="middle" x="142.5" y="-130" font-family="Helvetica,sans-Serif" font-size="10.00">Tbd2</text>
<text text-anchor="middle" x="142.5" y="-119" font-family="Helvetica,sans-Serif" font-size="10.00">Tbd3</text>
<text text-anchor="middle" x="142.5" y="-108" font-family="Helvetica,sans-Serif" font-size="10.00">...</text>
</g>
<!-- Node3&#45;&gt;Node1 -->
<g id="edge2" class="edge">
<title>Node3&#45;&gt;Node1</title>
<path fill="none" stroke="#9a32cd" stroke-dasharray="5,2" d="M124.86,-61.42C106.68,-48.57 80.79,-30.28 65.71,-19.63"/>
<polygon fill="#9a32cd" stroke="#9a32cd" points="122.91,-64.32 133.09,-67.23 126.94,-58.6 122.91,-64.32"/>
<text text-anchor="middle" x="113" y="-41" font-family="Helvetica,sans-Serif" font-size="10.00"> Bit</text>
</g>
</g>
</svg>
