<?xml version="1.0" encoding="UTF-8" standalone="no"?>
<!DOCTYPE svg PUBLIC "-//W3C//DTD SVG 1.1//EN"
 "http://www.w3.org/Graphics/SVG/1.1/DTD/svg11.dtd">
<!-- Generated by graphviz version 2.43.0 (0)
 -->
<!-- Title: UTag_Eth_ApsrType Pages: 1 -->
<svg width="222pt" height="272pt"
 viewBox="0.00 0.00 221.50 272.00" xmlns="http://www.w3.org/2000/svg" xmlns:xlink="http://www.w3.org/1999/xlink">
<g id="graph0" class="graph" transform="scale(1 1) rotate(0) translate(4 268)">
<title>UTag_Eth_ApsrType</title>
<polygon fill="white" stroke="transparent" points="-4,4 -4,-268 217.5,-268 217.5,4 -4,4"/>
<!-- Node1 -->
<g id="node1" class="node">
<title>Node1</title>
<g id="a_node1"><a xlink:title=" ">
<polygon fill="#bfbfbf" stroke="black" points="0,-0.5 0,-19.5 111,-19.5 111,-0.5 0,-0.5"/>
<text text-anchor="middle" x="55.5" y="-7.5" font-family="Helvetica,sans-Serif" font-size="10.00">UTag_Eth_ApsrType</text>
</a>
</g>
</g>
<!-- Node2 -->
<g id="node2" class="node">
<title>Node2</title>
<g id="a_node2"><a xlink:title=" ">
<polygon fill="white" stroke="#bfbfbf" points="13,-244.5 13,-263.5 98,-263.5 98,-244.5 13,-244.5"/>
<text text-anchor="middle" x="55.5" y="-251.5" font-family="Helvetica,sans-Serif" font-size="10.00">unsigned long</text>
</a>
</g>
</g>
<!-- Node2&#45;&gt;Node1 -->
<g id="edge1" class="edge">
<title>Node2&#45;&gt;Node1</title>
<path fill="none" stroke="#9a32cd" stroke-dasharray="5,2" d="M53.57,-234.31C50.37,-200.78 44.69,-128.16 48.5,-67 49.55,-50.18 52.35,-30.68 54.07,-19.7"/>
<polygon fill="#9a32cd" stroke="#9a32cd" points="50.1,-234.86 54.57,-244.46 57.07,-234.17 50.1,-234.86"/>
<text text-anchor="middle" x="62.5" y="-74.5" font-family="Helvetica,sans-Serif" font-size="10.00"> Word</text>
</g>
<!-- Node3 -->
<g id="node3" class="node">
<title>Node3</title>
<g id="a_node3"><a xlink:href="structSTag__Eth__ApsrBitsType.html" target="_top" xlink:title=" ">
<polygon fill="white" stroke="black" points="85.5,-67.5 85.5,-86.5 213.5,-86.5 213.5,-67.5 85.5,-67.5"/>
<text text-anchor="middle" x="149.5" y="-74.5" font-family="Helvetica,sans-Serif" font-size="10.00">STag_Eth_ApsrBitsType</text>
</a>
</g>
</g>
<!-- Node2&#45;&gt;Node3 -->
<g id="edge3" class="edge">
<title>Node2&#45;&gt;Node3</title>
<path fill="none" stroke="#9a32cd" stroke-dasharray="5,2" d="M65.21,-234.91C85.19,-197.73 130.22,-113.89 144.83,-86.69"/>
<polygon fill="#9a32cd" stroke="#9a32cd" points="61.94,-233.62 60.29,-244.08 68.11,-236.93 61.94,-233.62"/>
<text text-anchor="middle" x="150.5" y="-218" font-family="Helvetica,sans-Serif" font-size="10.00"> Cmsw</text>
<text text-anchor="middle" x="150.5" y="-207" font-family="Helvetica,sans-Serif" font-size="10.00">Erren</text>
<text text-anchor="middle" x="150.5" y="-196" font-family="Helvetica,sans-Serif" font-size="10.00">Mem</text>
<text text-anchor="middle" x="150.5" y="-185" font-family="Helvetica,sans-Serif" font-size="10.00">Rdm</text>
<text text-anchor="middle" x="150.5" y="-174" font-family="Helvetica,sans-Serif" font-size="10.00">Res1</text>
<text text-anchor="middle" x="150.5" y="-163" font-family="Helvetica,sans-Serif" font-size="10.00">Res2</text>
<text text-anchor="middle" x="150.5" y="-152" font-family="Helvetica,sans-Serif" font-size="10.00">Res3</text>
<text text-anchor="middle" x="150.5" y="-141" font-family="Helvetica,sans-Serif" font-size="10.00">Res4</text>
<text text-anchor="middle" x="150.5" y="-130" font-family="Helvetica,sans-Serif" font-size="10.00">Rsta</text>
<text text-anchor="middle" x="150.5" y="-119" font-family="Helvetica,sans-Serif" font-size="10.00">Tdm</text>
<text text-anchor="middle" x="150.5" y="-108" font-family="Helvetica,sans-Serif" font-size="10.00">...</text>
</g>
<!-- Node3&#45;&gt;Node1 -->
<g id="edge2" class="edge">
<title>Node3&#45;&gt;Node1</title>
<path fill="none" stroke="#9a32cd" stroke-dasharray="5,2" d="M128.41,-61.42C109.83,-48.57 83.38,-30.28 67.98,-19.63"/>
<polygon fill="#9a32cd" stroke="#9a32cd" points="126.61,-64.43 136.82,-67.23 130.59,-58.67 126.61,-64.43"/>
<text text-anchor="middle" x="116" y="-41" font-family="Helvetica,sans-Serif" font-size="10.00"> Bit</text>
</g>
</g>
</svg>
