<?xml version="1.0" encoding="UTF-8" standalone="no"?>
<!DOCTYPE svg PUBLIC "-//W3C//DTD SVG 1.1//EN"
 "http://www.w3.org/Graphics/SVG/1.1/DTD/svg11.dtd">
<!-- Generated by graphviz version 2.43.0 (0)
 -->
<!-- Title: UTag_Eth_GecmrType Pages: 1 -->
<svg width="220pt" height="184pt"
 viewBox="0.00 0.00 220.00 184.00" xmlns="http://www.w3.org/2000/svg" xmlns:xlink="http://www.w3.org/1999/xlink">
<g id="graph0" class="graph" transform="scale(1 1) rotate(0) translate(4 180)">
<title>UTag_Eth_GecmrType</title>
<polygon fill="white" stroke="transparent" points="-4,4 -4,-180 216,-180 216,4 -4,4"/>
<!-- Node1 -->
<g id="node1" class="node">
<title>Node1</title>
<g id="a_node1"><a xlink:title=" ">
<polygon fill="#bfbfbf" stroke="black" points="2.5,-0.5 2.5,-19.5 124.5,-19.5 124.5,-0.5 2.5,-0.5"/>
<text text-anchor="middle" x="63.5" y="-7.5" font-family="Helvetica,sans-Serif" font-size="10.00">UTag_Eth_GecmrType</text>
</a>
</g>
</g>
<!-- Node2 -->
<g id="node2" class="node">
<title>Node2</title>
<g id="a_node2"><a xlink:href="structSTag__Eth__GecmrBitsType.html" target="_top" xlink:title=" ">
<polygon fill="white" stroke="black" points="73,-67.5 73,-86.5 212,-86.5 212,-67.5 73,-67.5"/>
<text text-anchor="middle" x="142.5" y="-74.5" font-family="Helvetica,sans-Serif" font-size="10.00">STag_Eth_GecmrBitsType</text>
</a>
</g>
</g>
<!-- Node2&#45;&gt;Node1 -->
<g id="edge1" class="edge">
<title>Node2&#45;&gt;Node1</title>
<path fill="none" stroke="#9a32cd" stroke-dasharray="5,2" d="M123.92,-60.71C108.36,-47.91 86.7,-30.09 73.99,-19.63"/>
<polygon fill="#9a32cd" stroke="#9a32cd" points="121.9,-63.58 131.85,-67.23 126.35,-58.18 121.9,-63.58"/>
<text text-anchor="middle" x="116" y="-41" font-family="Helvetica,sans-Serif" font-size="10.00"> Bit</text>
</g>
<!-- Node3 -->
<g id="node3" class="node">
<title>Node3</title>
<g id="a_node3"><a xlink:title=" ">
<polygon fill="white" stroke="#bfbfbf" points="0,-156.5 0,-175.5 85,-175.5 85,-156.5 0,-156.5"/>
<text text-anchor="middle" x="42.5" y="-163.5" font-family="Helvetica,sans-Serif" font-size="10.00">unsigned long</text>
</a>
</g>
</g>
<!-- Node3&#45;&gt;Node1 -->
<g id="edge3" class="edge">
<title>Node3&#45;&gt;Node1</title>
<path fill="none" stroke="#9a32cd" stroke-dasharray="5,2" d="M38.3,-146.6C34.48,-126.72 30.28,-94.21 36.5,-67 40.59,-49.11 51.15,-30.29 57.79,-19.66"/>
<polygon fill="#9a32cd" stroke="#9a32cd" points="34.9,-147.41 40.38,-156.48 41.75,-145.97 34.9,-147.41"/>
<text text-anchor="middle" x="50.5" y="-74.5" font-family="Helvetica,sans-Serif" font-size="10.00"> Word</text>
</g>
<!-- Node3&#45;&gt;Node2 -->
<g id="edge2" class="edge">
<title>Node3&#45;&gt;Node2</title>
<path fill="none" stroke="#9a32cd" stroke-dasharray="5,2" d="M60.05,-149.73C81.11,-131.41 115.69,-101.32 132.59,-86.62"/>
<polygon fill="#9a32cd" stroke="#9a32cd" points="57.7,-147.14 52.45,-156.34 62.3,-152.42 57.7,-147.14"/>
<text text-anchor="middle" x="125" y="-130" font-family="Helvetica,sans-Serif" font-size="10.00"> Bse</text>
<text text-anchor="middle" x="125" y="-119" font-family="Helvetica,sans-Serif" font-size="10.00">Res1</text>
<text text-anchor="middle" x="125" y="-108" font-family="Helvetica,sans-Serif" font-size="10.00">Speed</text>
</g>
</g>
</svg>
