<?xml version="1.0" encoding="UTF-8" standalone="no"?>
<!DOCTYPE svg PUBLIC "-//W3C//DTD SVG 1.1//EN"
 "http://www.w3.org/Graphics/SVG/1.1/DTD/svg11.dtd">
<!-- Generated by graphviz version 2.43.0 (0)
 -->
<!-- Title: rDmacFDSDM_STATUS_un Pages: 1 -->
<svg width="179pt" height="139pt"
 viewBox="0.00 0.00 178.50 139.00" xmlns="http://www.w3.org/2000/svg" xmlns:xlink="http://www.w3.org/1999/xlink">
<g id="graph0" class="graph" transform="scale(1 1) rotate(0) translate(4 135)">
<title>rDmacFDSDM_STATUS_un</title>
<polygon fill="white" stroke="transparent" points="-4,4 -4,-135 174.5,-135 174.5,4 -4,4"/>
<!-- Node1 -->
<g id="node1" class="node">
<title>Node1</title>
<g id="a_node1"><a xlink:title=" ">
<polygon fill="#bfbfbf" stroke="black" points="17.5,-0.5 17.5,-19.5 161.5,-19.5 161.5,-0.5 17.5,-0.5"/>
<text text-anchor="middle" x="89.5" y="-7.5" font-family="Helvetica,sans-Serif" font-size="10.00">rDmacFDSDM_STATUS_un</text>
</a>
</g>
</g>
<!-- Node2 -->
<g id="node2" class="node">
<title>Node2</title>
<g id="a_node2"><a xlink:title=" ">
<polygon fill="white" stroke="#bfbfbf" points="0,-111.5 0,-130.5 89,-130.5 89,-111.5 0,-111.5"/>
<text text-anchor="middle" x="44.5" y="-118.5" font-family="Helvetica,sans-Serif" font-size="10.00">anonymous:bit</text>
</a>
</g>
</g>
<!-- Node2&#45;&gt;Node1 -->
<g id="edge1" class="edge">
<title>Node2&#45;&gt;Node1</title>
<path fill="none" stroke="#9a32cd" stroke-dasharray="5,2" d="M51.86,-102.16C61.68,-78.38 78.67,-37.23 85.99,-19.51"/>
<polygon fill="#9a32cd" stroke="#9a32cd" points="48.61,-100.87 48.03,-111.45 55.08,-103.54 48.61,-100.87"/>
<text text-anchor="middle" x="85.5" y="-63" font-family="Helvetica,sans-Serif" font-size="10.00"> bit</text>
</g>
<!-- Node3 -->
<g id="node3" class="node">
<title>Node3</title>
<g id="a_node3"><a xlink:title=" ">
<polygon fill="white" stroke="#bfbfbf" points="106.5,-111.5 106.5,-130.5 162.5,-130.5 162.5,-111.5 106.5,-111.5"/>
<text text-anchor="middle" x="134.5" y="-118.5" font-family="Helvetica,sans-Serif" font-size="10.00">uint32_t</text>
</a>
</g>
</g>
<!-- Node3&#45;&gt;Node1 -->
<g id="edge2" class="edge">
<title>Node3&#45;&gt;Node1</title>
<path fill="none" stroke="#9a32cd" stroke-dasharray="5,2" d="M127.14,-102.16C117.32,-78.38 100.33,-37.23 93.01,-19.51"/>
<polygon fill="#9a32cd" stroke="#9a32cd" points="123.92,-103.54 130.97,-111.45 130.39,-100.87 123.92,-103.54"/>
<text text-anchor="middle" x="146" y="-85" font-family="Helvetica,sans-Serif" font-size="10.00"> INT</text>
<text text-anchor="middle" x="146" y="-74" font-family="Helvetica,sans-Serif" font-size="10.00">ST0</text>
<text text-anchor="middle" x="146" y="-63" font-family="Helvetica,sans-Serif" font-size="10.00">ST1</text>
<text text-anchor="middle" x="146" y="-52" font-family="Helvetica,sans-Serif" font-size="10.00">ST2</text>
<text text-anchor="middle" x="146" y="-41" font-family="Helvetica,sans-Serif" font-size="10.00">reserve_1</text>
</g>
</g>
</svg>
